<svg xmlns="http://www.w3.org/2000/svg" viewBox="0 0 16 16"><path d="M-16.92,618.68a1.5,1.5,0,0,1-.89-.29L-20,616.79l-2.19,1.59a1.5,1.5,0,0,1-.89.29,1.53,1.53,0,0,1-1.24-.64,1.49,1.49,0,0,1-.21-1.35l.84-2.58-2.19-1.59a1.49,1.49,0,0,1-.55-1.69,1.49,1.49,0,0,1,1.44-1h2.71l.84-2.58a1.49,1.49,0,0,1,1.44-1,1.49,1.49,0,0,1,1.44,1l.84,2.58H-15a1.49,1.49,0,0,1,1.44,1,1.49,1.49,0,0,1-.55,1.69l-2.19,1.59.84,2.58a1.49,1.49,0,0,1-.21,1.35,1.53,1.53,0,0,1-1.23.64Z" transform="translate(28 -605)" style="fill:#ffde33"/><path d="M-20,606.67a1,1,0,0,1,1,.7l.95,2.92H-15a1,1,0,0,1,.6,1.83l-2.49,1.81.95,2.92a1,1,0,0,1-1,1.33,1,1,0,0,1-.59-.2L-20,616.18-22.49,618a1,1,0,0,1-.59.2,1,1,0,0,1-1-1.33l.95-2.92-2.49-1.81a1,1,0,0,1,.6-1.83h3.07l.95-2.92a1,1,0,0,1,1-.7m0-1a2,2,0,0,0-1.91,1.39l-.72,2.23H-25a2,2,0,0,0-1.91,1.39,2,2,0,0,0,.73,2.25l1.9,1.38-.73,2.23a2,2,0,0,0,.28,1.8,2,2,0,0,0,1.64.84,2,2,0,0,0,1.18-.39l1.9-1.38,1.9,1.38a2,2,0,0,0,1.18.39,2,2,0,0,0,1.64-.84,2,2,0,0,0,.28-1.8l-.72-2.23,1.9-1.38a2,2,0,0,0,.73-2.25A2,2,0,0,0-15,609.29h-2.35l-.72-2.23A2,2,0,0,0-20,605.67Z" transform="translate(28 -605)" style="fill:#fff"/><rect width="16" height="16" style="fill:none"/></svg>