<svg id="53182e7b-7458-43c1-90c8-6419e6c40967" data-name="Layer 1" xmlns="http://www.w3.org/2000/svg" width="24" height="120" viewBox="0 0 24 120"><title>Source</title><g id="95f972e8-c303-43fe-9264-17567cc5e410" data-name="&lt;Group&gt;"><rect id="b8e0763f-f2d3-46e2-8191-a776b72a11d1" data-name="&lt;Rectangle&gt;" x="11" y="5" width="2" height="14" transform="translate(-4.97 12) rotate(-45)" style="fill:#ff0014"/><rect id="57edfcbb-ca17-498b-8a0c-c275b756f1e4" data-name="&lt;Rectangle&gt;" x="11" y="5" width="2" height="14" transform="translate(12 -4.97) rotate(45)" style="fill:#ff0014"/></g><g id="55245d84-ec11-40b4-8866-6d81a49bf386" data-name="&lt;Group&gt;"><path id="ae531409-93a2-4af9-bc9c-c4acbe07b941" data-name="&lt;Path&gt;" d="M10.5,41.5a7.37,7.37,0,0,1-3.3-.78A3.18,3.18,0,0,1,5.79,39.3a7.29,7.29,0,0,1,0-6.6A3.18,3.18,0,0,1,7.2,31.28a7.37,7.37,0,0,1,3.3-.78" style="fill:none;stroke:#ff0014;stroke-linecap:round;stroke-miterlimit:10;stroke-width:2px"/><rect id="4d0466c9-8868-4d8e-a57b-d025b5cb96e3" data-name="&lt;Rectangle&gt;" x="12.5" y="30.5" width="2" height="11" transform="translate(49.5 22.5) rotate(90)" style="fill:#ff0014"/><polygon id="e003ac5d-45bc-467d-898f-504af494f269" data-name="&lt;Path&gt;" points="20.42 36 15.76 40.66 14.34 39.24 17.58 36 14.34 32.76 15.76 31.34 20.42 36" style="fill:#ff0014"/></g><g id="83350f60-5377-4642-8311-391759fcc360" data-name="&lt;Group&gt;"><rect id="f611da4f-10ce-40a5-8c91-63d9d0410f5c" data-name="&lt;Rectangle&gt;" x="11" y="53" width="2" height="14" style="fill:#14d769"/><rect id="8a8a3c3f-40d4-4624-9a74-f15ffe68e665" data-name="&lt;Rectangle&gt;" x="11" y="53" width="2" height="14" transform="translate(72 48) rotate(90)" style="fill:#14d769"/></g><g id="dc69965d-3c00-4732-8c7d-779433cec6ce" data-name="&lt;Group&gt;"><rect id="ab3d668e-24f1-4916-abb2-1aa6092e1209" data-name="&lt;Rectangle&gt;" x="11" y="101" width="2" height="14" style="fill:#14d769"/><rect id="bc576fa6-0b58-4610-a14d-e801b52b83d1" data-name="&lt;Rectangle&gt;" x="11" y="101" width="2" height="14" transform="translate(120 96) rotate(90)" style="fill:#14d769"/></g><path id="ed724d20-d3c7-470d-9fb9-a18016d6af7a" data-name="&lt;Path&gt;" d="M15.23,77.5L7.05,85.68A7.24,7.24,0,0,0,4.93,90.8h0a7.24,7.24,0,0,0,5.12-2.12l8.18-8.18a2.12,2.12,0,0,0,0-3h0A2.12,2.12,0,0,0,15.23,77.5Z" style="fill:none;stroke:#14d769;stroke-linecap:round;stroke-miterlimit:10;stroke-width:1.5px"/><line id="b34a00bf-940f-4126-b21f-f8ade4bbc25a" data-name="&lt;Path&gt;" x1="14.13" y1="78.6" x2="17.13" y2="81.6" style="fill:none;stroke:#14d769;stroke-linecap:round;stroke-linejoin:round;stroke-width:1.5px"/></svg>