<svg xmlns="http://www.w3.org/2000/svg" width="24" height="120" viewBox="0 0 24 120"><defs><style>.a{fill:#ff0014;}.b,.d,.e{fill:none;stroke-linecap:round;}.b{stroke:#ff0014;stroke-width:2px;}.b,.d{stroke-miterlimit:10;}.c{fill:#14d769;}.d,.e{stroke:#14d769;stroke-width:1.5px;}.e{stroke-linejoin:round;}</style></defs><title>Source</title><rect class="a" x="11" y="5" width="2" height="14" transform="translate(-4.97 12) rotate(-45)"/><rect class="a" x="11" y="5" width="2" height="14" transform="translate(12 -4.97) rotate(45)"/><path class="b" d="M10.5,41.5a7.37,7.37,0,0,1-3.3-.78A3.18,3.18,0,0,1,5.79,39.3a7.29,7.29,0,0,1,0-6.6A3.18,3.18,0,0,1,7.2,31.28a7.37,7.37,0,0,1,3.3-.78"/><rect class="a" x="12.5" y="30.5" width="2" height="11" transform="translate(49.5 22.5) rotate(90)"/><polygon class="a" points="20.42 36 15.76 40.66 14.34 39.24 17.58 36 14.34 32.76 15.76 31.34 20.42 36"/><rect class="c" x="11" y="53" width="2" height="14"/><rect class="c" x="11" y="53" width="2" height="14" transform="translate(72 48) rotate(90)"/><rect class="c" x="11" y="101" width="2" height="14"/><rect class="c" x="11" y="101" width="2" height="14" transform="translate(120 96) rotate(90)"/><path class="d" d="M15.23,77.5L7.05,85.68A7.24,7.24,0,0,0,4.93,90.8h0a7.24,7.24,0,0,0,5.12-2.12l8.18-8.18a2.12,2.12,0,0,0,0-3h0A2.12,2.12,0,0,0,15.23,77.5Z"/><line class="e" x1="14.13" y1="78.6" x2="17.13" y2="81.6"/></svg>