<svg xmlns="http://www.w3.org/2000/svg" width="24" height="96" viewBox="0 0 24 96"><defs><style>.a,.b,.c{fill:none;stroke:#000;}.a,.b{stroke-miterlimit:10;}.b,.c{stroke-linecap:square;}.c{stroke-linejoin:bevel;}</style></defs><title>Source</title><path class="a" d="M19.5,53.5L18.63,69.64a2,2,0,0,1-2,1.86H8.36a2,2,0,0,1-2-1.86L5.5,53.5"/><line class="b" x1="4" y1="51.5" x2="21" y2="51.5"/><line class="b" x1="14.5" y1="49.5" x2="10.5" y2="49.5"/><line class="b" x1="10.5" y1="68.5" x2="10.5" y2="55.5"/><line class="b" x1="14.5" y1="68.5" x2="14.5" y2="55.5"/><polyline class="c" points="11.04 42.5 12 47.5 12.96 42.5"/><polyline class="b" points="11.04 42.5 9.5 34.5 3 34.5 12 25.5 21 34.5 14.5 34.5 12.96 42.5"/><path class="b" d="M11.5,8.5c5.3,0,11.2,2.66,11.2,12.2,0-5.57-5.9-6.7-11.2-6.7v7l-9-9,9-9V8.5Z"/><path class="a" d="M14,84a1.73,1.73,0,0,1-2,2,2,2,0,0,1,0-4A1.73,1.73,0,0,1,14,84ZM12,74a2,2,0,0,0,0,4A2,2,0,0,0,12,74Zm0,16a2,2,0,0,0,0,4A2,2,0,0,0,12,90Z"/></svg>