<svg id="8ea7885f-9ecd-497f-ad22-33b56b118cde" data-name="Layer 1" xmlns="http://www.w3.org/2000/svg" width="24" height="96" viewBox="0 0 24 96"><title>Source</title><rect id="dc9224dc-5bfb-48f4-a233-e70d801ee4bd" data-name="&lt;Rectangle&gt;" y="48" width="24" height="24" style="fill:none"/><path id="a3da0675-72c0-4629-8421-6784a5c339a9" data-name="&lt;Path&gt;" d="M19.5,53.5L18.63,69.64a2,2,0,0,1-2,1.86H8.36a2,2,0,0,1-2-1.86L5.5,53.5" style="fill:none;stroke:#000;stroke-miterlimit:10"/><line id="90f021e7-5619-434c-9d41-5df2dc9bcd33" data-name="&lt;Path&gt;" x1="4" y1="51.5" x2="21" y2="51.5" style="fill:none;stroke:#000;stroke-linecap:square;stroke-miterlimit:10"/><line id="26b52a52-90cb-4379-8a89-0146dde7bdf1" data-name="&lt;Path&gt;" x1="14.5" y1="49.5" x2="10.5" y2="49.5" style="fill:none;stroke:#000;stroke-linecap:square;stroke-miterlimit:10"/><line id="b01f296b-060f-4e85-b4ac-880618dd5c42" data-name="&lt;Path&gt;" x1="10.5" y1="68.5" x2="10.5" y2="55.5" style="fill:none;stroke:#000;stroke-linecap:square;stroke-miterlimit:10"/><line id="42b1d0f8-4bc9-487d-be24-7edd20e554a5" data-name="&lt;Path&gt;" x1="14.5" y1="68.5" x2="14.5" y2="55.5" style="fill:none;stroke:#000;stroke-linecap:square;stroke-miterlimit:10"/><rect y="24" width="24" height="24" style="fill:none"/><polyline points="11.04 42.5 12 47.5 12.96 42.5" style="fill:none;stroke:#000;stroke-linecap:square;stroke-linejoin:bevel"/><polyline points="11.04 42.5 9.5 34.5 3 34.5 12 25.5 21 34.5 14.5 34.5 12.96 42.5" style="fill:none;stroke:#000;stroke-linecap:square;stroke-miterlimit:10"/><rect width="24" height="24" style="fill:none"/><path id="43cbb202-0977-4ef2-badf-40abd97ced86" data-name="&lt;Path&gt;" d="M11.5,8.5c5.3,0,11.2,2.66,11.2,12.2,0-5.57-5.9-6.7-11.2-6.7v7l-9-9,9-9V8.5Z" style="fill:none;stroke:#000;stroke-linecap:square;stroke-miterlimit:10"/><rect y="72" width="24" height="24" style="fill:none"/><path id="33066fbb-d442-4ac7-8cc1-c1fedd0b0212" data-name="&lt;Compound Path&gt;" d="M14,84a1.73,1.73,0,0,1-2,2,2,2,0,0,1,0-4A1.73,1.73,0,0,1,14,84ZM12,74a2,2,0,0,0,0,4A2,2,0,0,0,12,74Zm0,16a2,2,0,0,0,0,4A2,2,0,0,0,12,90Z" style="fill:none;stroke:#000;stroke-miterlimit:10"/></svg>