<svg id="f431fed3-d668-4a78-b467-b73dbb8553a5" data-name="Layer 1" xmlns="http://www.w3.org/2000/svg" width="16" height="96" viewBox="0 0 16 96"><title>Source</title><g id="b36e25e7-ccb9-4f05-ae9a-1d0bcadaf547" data-name="&lt;Group&gt;"><rect id="1a415b9f-5d18-4f77-91ab-ab65e2081a3b" data-name="&lt;Rectangle&gt;" width="16" height="16" style="fill:none"/><g id="011b21bf-cc34-444e-b85b-b8ba35ad2237" data-name="&lt;Rectangle&gt;"><rect x="1.5" y="1.5" width="13" height="13" rx="2.5" ry="2.5" style="fill:#fff"/><path d="M12,2a2,2,0,0,1,2,2v8a2,2,0,0,1-2,2H4a2,2,0,0,1-2-2V4A2,2,0,0,1,4,2h8m0-1H4A3,3,0,0,0,1,4v8a3,3,0,0,0,3,3h8a3,3,0,0,0,3-3V4a3,3,0,0,0-3-3h0Z" style="fill:#ced9d3"/></g></g><g id="61c94c63-7650-45fb-80f6-5bbb10de2202" data-name="&lt;Group&gt;"><rect id="85db5a04-5e14-4fa9-8215-74107479ab5b" data-name="&lt;Rectangle&gt;" y="32" width="16" height="16" style="fill:none"/><g id="b8253ff6-95ec-43bf-a3aa-a5d8e6faf7f6" data-name="&lt;Rectangle&gt;"><rect x="1" y="33" width="14" height="14" rx="3" ry="3" style="fill:#ced9d3"/></g></g><g id="1fe7473f-5de0-492c-b816-5dc6f95b4806" data-name="&lt;Group&gt;"><rect id="5403fa45-edd8-4f67-a8d8-7e8e6fefd94c" data-name="&lt;Rectangle&gt;" y="16" width="16" height="16" style="fill:none"/><g id="851367eb-6195-48f3-9f39-79bfd6ab98fa" data-name="&lt;Rectangle&gt;"><rect x="1.5" y="17.5" width="13" height="13" rx="2.5" ry="2.5" style="fill:#14d769"/><path d="M12,18a2,2,0,0,1,2,2v8a2,2,0,0,1-2,2H4a2,2,0,0,1-2-2V20a2,2,0,0,1,2-2h8m0-1H4a3,3,0,0,0-3,3v8a3,3,0,0,0,3,3h8a3,3,0,0,0,3-3V20a3,3,0,0,0-3-3h0Z" style="fill:#00b45a"/></g><polyline id="4cb785a2-32e0-45dc-b635-0f78981362be" data-name="&lt;Path&gt;" points="12.5 20.5 6.5 26.5 3.5 23.5" style="fill:none;stroke:#fff;stroke-width:2px"/></g><g id="62d98546-8d52-4c86-a817-64fe4f0ed6b2" data-name="&lt;Group&gt;"><rect id="541ed52e-2823-4615-858c-d4d44bbb02b7" data-name="&lt;Rectangle&gt;" y="48" width="16" height="16" style="fill:none"/><g id="74afaa6b-6c2b-40c8-acde-6b721384b8c9" data-name="&lt;Rectangle&gt;"><circle cx="8" cy="56" r="6.5" style="fill:#fff"/><path d="M8,50a6,6,0,1,1-6,6,6,6,0,0,1,6-6m0-1H8a7,7,0,0,0-7,7H1a7,7,0,0,0,7,7H8a7,7,0,0,0,7-7h0a7,7,0,0,0-7-7H8Z" style="fill:#ced9d3"/></g></g><g id="c5389a14-2cd0-4145-ad8b-4f0cd8e77616" data-name="&lt;Group&gt;"><rect id="2fb07514-d537-4bcb-9857-1ee222527f67" data-name="&lt;Rectangle&gt;" y="80" width="16" height="16" style="fill:none"/><g id="5655c123-fdbc-4c6c-a397-9ba6a7eab63f" data-name="&lt;Rectangle&gt;"><rect x="1" y="81" width="14" height="14" rx="7" ry="7" style="fill:#ced9d3"/></g></g><g id="c6d8f7c0-6f80-4646-b42b-41c0b0a6e045" data-name="&lt;Group&gt;"><rect id="a3e0c708-f630-4a14-a90a-161fbafe4692" data-name="&lt;Rectangle&gt;" y="64" width="16" height="16" style="fill:none"/><g id="d7525753-c6d1-4b5f-9554-e784df065011" data-name="&lt;Rectangle&gt;"><circle cx="8" cy="72" r="6.5" style="fill:#fff"/><path d="M8,66a6,6,0,1,1-6,6,6,6,0,0,1,6-6m0-1H8a7,7,0,0,0-7,7H1a7,7,0,0,0,7,7H8a7,7,0,0,0,7-7h0a7,7,0,0,0-7-7H8Z" style="fill:#ced9d3"/></g><g id="d82f9179-8af3-4328-b270-1fb3167ccfc6" data-name="&lt;Rectangle&gt;"><circle cx="8" cy="72" r="3.5" style="fill:#14d769"/><path d="M8,69a3,3,0,1,1-3,3,3,3,0,0,1,3-3m0-1H8a4,4,0,0,0-4,4H4a4,4,0,0,0,4,4H8a4,4,0,0,0,4-4h0a4,4,0,0,0-4-4H8Z" style="fill:#14d769"/></g></g></svg>