<svg xmlns="http://www.w3.org/2000/svg" width="16" height="96" viewBox="0 0 16 96"><defs><style>.a{fill:#fff;}.b{fill:#ced9d3;}.c{fill:#14d769;}.d{fill:#00b45a;}.e{fill:none;stroke:#fff;stroke-width:2px;}</style></defs><title>Source</title><rect class="a" x="1.5" y="1.5" width="13" height="13" rx="2.5" ry="2.5"/><path class="b" d="M12,2a2,2,0,0,1,2,2v8a2,2,0,0,1-2,2H4a2,2,0,0,1-2-2V4A2,2,0,0,1,4,2h8m0-1H4A3,3,0,0,0,1,4v8a3,3,0,0,0,3,3h8a3,3,0,0,0,3-3V4a3,3,0,0,0-3-3h0Z"/><rect class="b" x="1" y="33" width="14" height="14" rx="3" ry="3"/><rect class="c" x="1.5" y="17.5" width="13" height="13" rx="2.5" ry="2.5"/><path class="d" d="M12,18a2,2,0,0,1,2,2v8a2,2,0,0,1-2,2H4a2,2,0,0,1-2-2V20a2,2,0,0,1,2-2h8m0-1H4a3,3,0,0,0-3,3v8a3,3,0,0,0,3,3h8a3,3,0,0,0,3-3V20a3,3,0,0,0-3-3h0Z"/><polyline class="e" points="12.5 20.5 6.5 26.5 3.5 23.5"/><circle class="a" cx="8" cy="56" r="6.5"/><path class="b" d="M8,50a6,6,0,1,1-6,6,6,6,0,0,1,6-6m0-1H8a7,7,0,0,0-7,7H1a7,7,0,0,0,7,7H8a7,7,0,0,0,7-7h0a7,7,0,0,0-7-7H8Z"/><rect class="b" x="1" y="81" width="14" height="14" rx="7" ry="7"/><circle class="a" cx="8" cy="72" r="6.5"/><path class="b" d="M8,66a6,6,0,1,1-6,6,6,6,0,0,1,6-6m0-1H8a7,7,0,0,0-7,7H1a7,7,0,0,0,7,7H8a7,7,0,0,0,7-7h0a7,7,0,0,0-7-7H8Z"/><circle class="c" cx="8" cy="72" r="3.5"/><path class="c" d="M8,69a3,3,0,1,1-3,3,3,3,0,0,1,3-3m0-1a4,4,0,0,0-4,4H4a4,4,0,0,0,8,0h0a4,4,0,0,0-4-4H8Z"/></svg>