<svg xmlns="http://www.w3.org/2000/svg" width="16" height="128" viewBox="0 0 16 128"><defs><style>.a{fill:#ced9d3;}.b{fill:#72e7a5;}.c{fill:#14d769;}.d{fill:#ffdc64;}.e{fill:#ffc850;}.f{fill:#f0f5f2;}.g{fill:#91dfff;}.h{fill:#23beff;}.i{fill:#ff6464;}.j{fill:#fff;}.k{fill:#3296ff;}.l{fill:#a3d0ff;}</style></defs><title>Source</title><path class="a" d="M10.5,78v1a1,1,0,0,1-1,1h-7a1,1,0,0,1-1-1V78a2.16,2.16,0,0,1,.69-1.76A4.47,4.47,0,0,0,6,79a4.47,4.47,0,0,0,3.81-2.79A2.16,2.16,0,0,1,10.5,78ZM6,70.5a3,3,0,0,0-3,3c0,1.66,1.34,4,3,4s3-2.34,3-4A3,3,0,0,0,6,70.5Z"/><path class="a" d="M10.5,94v1a1,1,0,0,1-1,1h-7a1,1,0,0,1-1-1V94a2.16,2.16,0,0,1,.69-1.76A4.47,4.47,0,0,0,6,95a4.47,4.47,0,0,0,3.81-2.79A2.16,2.16,0,0,1,10.5,94ZM6,86.5a3,3,0,0,0-3,3c0,1.66,1.34,4,3,4s3-2.34,3-4A3,3,0,0,0,6,86.5Z"/><rect class="b" y="3" width="16" height="11" rx="3" ry="3"/><path class="c" d="M0,6A3,3,0,0,1,3,3H13a3,3,0,0,1,3,3L8,10.62Z"/><path class="d" d="M0,57V54a3,3,0,0,1,3-3H13a3,3,0,0,1,3,3v2.75a6,6,0,0,1-3.22,5.31L11,63V60H3A3,3,0,0,1,0,57Z"/><path class="e" d="M15,60a5.87,5.87,0,0,1-2.26,2.07L11,63V60h4Z"/><path class="f" d="M3,31H13a3,3,0,0,0,3-3V22.63a2,2,0,0,0-1.1-1.79L8,17.38,1.1,20.85A2,2,0,0,0,0,22.63V28A3,3,0,0,0,3,31Z"/><path class="a" d="M16,22.5V28a3,3,0,0,1-3,3H3a3,3,0,0,1-3-3V22.5l6.21,3.11a4,4,0,0,0,3.58,0Z"/><rect class="g" y="35" width="16" height="11" rx="3" ry="3"/><path class="h" d="M0,38a3,3,0,0,1,3-3H13a3,3,0,0,1,3,3L8,42.62Z"/><circle class="i" cx="11.5" cy="84.5" r="4.5"/><rect class="j" x="11" y="81.5" width="1" height="6" transform="translate(-56.38 32.88) rotate(-45)"/><rect class="j" x="11" y="81.5" width="1" height="6" transform="translate(63.12 16.62) rotate(45)"/><circle class="k" cx="11.5" cy="68.5" r="4.5"/><path class="a" d="M10.5,110v1a1,1,0,0,1-1,1h-7a1,1,0,0,1-1-1v-1a2.16,2.16,0,0,1,.69-1.76A4.47,4.47,0,0,0,6,111a4.47,4.47,0,0,0,3.81-2.79A2.16,2.16,0,0,1,10.5,110ZM6,102.5a3,3,0,0,0-3,3c0,1.66,1.34,4,3,4s3-2.34,3-4A3,3,0,0,0,6,102.5Z"/><circle class="c" cx="11.5" cy="100.5" r="4.5"/><rect class="j" x="11" y="98" width="1" height="5"/><rect class="j" x="11" y="98" width="1" height="5" transform="translate(112 89) rotate(90)"/><path class="k" d="M4.25,127h-2A1.25,1.25,0,0,1,1,125.75V124.5H4.25V127Z"/><path class="k" d="M11.75,113h2A1.25,1.25,0,0,1,15,114.25v1.25H11.75V113Z"/><path class="l" d="M4.25,125a2,2,0,0,1-2,2h5.5a4,4,0,0,0,4-4v-8a2,2,0,0,1,2-2H8.25a4,4,0,0,0-4,4v8Z"/><path class="j" d="M14,66v1H13v2a2,2,0,0,1-2,2H9V70h1V68a2,2,0,0,1,2-2h2Z"/></svg>