<svg id="f0f95f04-8ffb-4702-bc41-cbd8305a5685" data-name="Layer 1" xmlns="http://www.w3.org/2000/svg" width="16" height="128" viewBox="0 0 16 128"><title>Source</title><path id="31c42c3d-fb26-42e0-8f2f-fd4dff00f155" data-name="&lt;Compound Path&gt;" d="M10.5,78v1a1,1,0,0,1-1,1h-7a1,1,0,0,1-1-1V78a2.16,2.16,0,0,1,.69-1.76A4.47,4.47,0,0,0,6,79a4.47,4.47,0,0,0,3.81-2.79A2.16,2.16,0,0,1,10.5,78ZM6,70.5a3,3,0,0,0-3,3c0,1.66,1.34,4,3,4s3-2.34,3-4A3,3,0,0,0,6,70.5Z" style="fill:#ced9d3"/><path id="1ce75917-a422-4644-9961-3bfbfb7df71b" data-name="&lt;Compound Path&gt;" d="M10.5,94v1a1,1,0,0,1-1,1h-7a1,1,0,0,1-1-1V94a2.16,2.16,0,0,1,.69-1.76A4.47,4.47,0,0,0,6,95a4.47,4.47,0,0,0,3.81-2.79A2.16,2.16,0,0,1,10.5,94ZM6,86.5a3,3,0,0,0-3,3c0,1.66,1.34,4,3,4s3-2.34,3-4A3,3,0,0,0,6,86.5Z" style="fill:#ced9d3"/><g id="cea7a525-81df-474c-870d-a72f19c1c926" data-name="&lt;Group&gt;"><g id="2278edec-8ea6-47d8-b912-4eb96d66e7ff" data-name="&lt;Rectangle&gt;"><rect y="3" width="16" height="11" rx="3" ry="3" style="fill:#72e7a5"/></g><g id="bc4ef801-4934-481f-890f-7c6ef2afda24" data-name="&lt;Group&gt;"><path d="M0,6A3,3,0,0,1,3,3H13a3,3,0,0,1,3,3L8,10.62Z" style="fill:#14d769"/></g></g><g id="1c0be9b6-665a-45cb-a7d7-9efac7be84bd" data-name="&lt;Group&gt;"><g id="90abf726-b238-4d35-8008-55f2e8083d72" data-name="&lt;Group&gt;"><path d="M0,57V54a3,3,0,0,1,3-3H13a3,3,0,0,1,3,3v2.75a6,6,0,0,1-3.22,5.31L11,63V60H3A3,3,0,0,1,0,57Z" style="fill:#ffdc64"/></g></g><g id="666fd283-861c-4438-89e8-ef750d0932e3" data-name="&lt;Group&gt;"><path d="M15,60a5.87,5.87,0,0,1-2.26,2.07L11,63V60h4Z" style="fill:#ffc850"/></g><g id="4df1ee3e-116e-4293-bfe1-bc74bf4f9ee8" data-name="&lt;Group&gt;"><g id="bf3eda6d-03ab-4521-a002-2f65171f4681" data-name="&lt;Group&gt;"><path d="M3,31H13a3,3,0,0,0,3-3V22.63a2,2,0,0,0-1.1-1.79L8,17.38,1.1,20.85A2,2,0,0,0,0,22.63V28A3,3,0,0,0,3,31Z" style="fill:#f0f5f2"/></g><g id="aae7be4b-f20e-4a23-bcfd-7d43093d153f" data-name="&lt;Group&gt;"><path d="M16,22.5V28a3,3,0,0,1-3,3H3a3,3,0,0,1-3-3V22.5l6.21,3.11a4,4,0,0,0,3.58,0Z" style="fill:#ced9d3"/></g></g><g id="2040f314-598c-4f9c-bb5e-b4ef7f4248c7" data-name="&lt;Group&gt;"><g id="75b06a81-a5d5-4b25-8a91-b9376297c521" data-name="&lt;Group&gt;"><g id="fdbdc4c3-d17c-4741-9960-cbc899910bf8" data-name="&lt;Rectangle&gt;"><rect y="35" width="16" height="11" rx="3" ry="3" style="fill:#91dfff"/></g><g id="a801b607-ea39-429c-83d5-9707c54861a5" data-name="&lt;Group&gt;"><path d="M0,38a3,3,0,0,1,3-3H13a3,3,0,0,1,3,3L8,42.62Z" style="fill:#23beff"/></g></g></g><g id="db871cf7-82c5-4775-8461-cd57d6b39429" data-name="&lt;Group&gt;"><circle cx="11.5" cy="84.5" r="4.5" style="fill:#ff6464"/></g><rect id="c8e56c46-bbb8-43dd-b7d8-97f1d4a4eeca" data-name="&lt;Rectangle&gt;" x="11" y="81.5" width="1" height="6" transform="translate(-56.38 32.88) rotate(-45)" style="fill:#fff"/><rect id="b538e02a-d7b4-49d2-9bf7-3fbd0e55ccfe" data-name="&lt;Rectangle&gt;" x="11" y="81.5" width="1" height="6" transform="translate(63.12 16.62) rotate(45)" style="fill:#fff"/><g id="291ea803-0113-4552-a248-2379477c2653" data-name="&lt;Group&gt;"><circle cx="11.5" cy="68.5" r="4.5" style="fill:#3296ff"/></g><path id="f7ff4e46-44aa-4610-bf4c-2b916ebc0695" data-name="&lt;Compound Path&gt;" d="M10.5,110v1a1,1,0,0,1-1,1h-7a1,1,0,0,1-1-1v-1a2.16,2.16,0,0,1,.69-1.76A4.47,4.47,0,0,0,6,111a4.47,4.47,0,0,0,3.81-2.79A2.16,2.16,0,0,1,10.5,110ZM6,102.5a3,3,0,0,0-3,3c0,1.66,1.34,4,3,4s3-2.34,3-4A3,3,0,0,0,6,102.5Z" style="fill:#ced9d3"/><g id="d91b9704-8487-4030-a65f-b0bee8dee743" data-name="&lt;Group&gt;"><circle cx="11.5" cy="100.5" r="4.5" style="fill:#14d769"/></g><rect id="4db89fb7-06f6-4c01-ac39-8d812e41840e" data-name="&lt;Rectangle&gt;" x="11" y="98" width="1" height="5" style="fill:#fff"/><rect id="e5204717-129d-49ff-961a-1ffec925766f" data-name="&lt;Rectangle&gt;" x="11" y="98" width="1" height="5" transform="translate(112 89) rotate(90)" style="fill:#fff"/><g id="a9617332-844a-46fc-ba21-21a8ec99b3e0" data-name="&lt;Group&gt;"><g id="18856af5-66a8-42d9-b83a-44128763272f" data-name="&lt;Group&gt;"><g id="4ac032c6-e4fe-42d5-86c1-bfe01654a2a8" data-name="&lt;Group&gt;"><path d="M4.25,127h-2A1.25,1.25,0,0,1,1,125.75V124.5H4.25V127Z" style="fill:#3296ff"/></g><g id="0809c57c-edde-47c5-a45b-1283dbedff7e" data-name="&lt;Group&gt;"><path d="M11.75,113h2A1.25,1.25,0,0,1,15,114.25v1.25H11.75V113Z" style="fill:#3296ff"/></g><g id="baee74eb-a308-42bf-9390-ddc9b7cf3f41" data-name="&lt;Group&gt;"><path d="M4.25,125a2,2,0,0,1-2,2h5.5a4,4,0,0,0,4-4v-8a2,2,0,0,1,2-2H8.25a4,4,0,0,0-4,4v8Z" style="fill:#a3d0ff"/></g></g></g><path d="M14,66v1H13v2a2,2,0,0,1-2,2H9V70h1V68a2,2,0,0,1,2-2h2Z" style="fill:#fff"/></svg>