<?xml version="1.0" encoding="utf-8"?>
<!-- Generator: Adobe Illustrator 19.2.1, SVG Export Plug-In . SVG Version: 6.00 Build 0)  -->
<svg version="1.1" id="Layer_1" xmlns="http://www.w3.org/2000/svg" xmlns:xlink="http://www.w3.org/1999/xlink" x="0px" y="0px"
	 viewBox="0 0 24 96" style="enable-background:new 0 0 24 96;" xml:space="preserve">
<style type="text/css">
	.st0{fill:#FFFFFF;}
</style>
<title>Source</title>
<circle class="st0" cx="12" cy="76" r="2"/>
<circle class="st0" cx="12" cy="84" r="2"/>
<circle class="st0" cx="12" cy="92" r="2"/>
<path class="st0" d="M2,53c-0.6,0-1-0.4-1-1s0.4-1,1-1h20c0.6,0,1,0.4,1,1s-0.4,1-1,1H2z"/>
<path class="st0" d="M2,61c-0.6,0-1-0.4-1-1s0.4-1,1-1h20c0.6,0,1,0.4,1,1s-0.4,1-1,1H2z"/>
<path class="st0" d="M2,69c-0.6,0-1-0.4-1-1s0.4-1,1-1h20c0.6,0,1,0.4,1,1s-0.4,1-1,1H2z"/>
</svg>
