<svg xmlns="http://www.w3.org/2000/svg" xmlns:xlink="http://www.w3.org/1999/xlink" width="24" height="96" viewBox="0 0 24 96"><defs><style>.a,.e,.f{fill:none;}.a{stroke:#000;stroke-linejoin:round;}.b{fill:#fff;}.c{mask:url(#a);}.d{fill:#ff0014;}.e{stroke:#ff0014;stroke-linecap:square;stroke-miterlimit:10;}.g{filter:url(#b);}</style><filter id="b" x="5" y="4" width="14" height="15" filterUnits="userSpaceOnUse" color-interpolation-filters="sRGB"><feFlood flood-color="#fff" result="bg"/><feBlend in="SourceGraphic" in2="bg"/></filter><mask id="a" x="5" y="4" width="14" height="15" maskUnits="userSpaceOnUse"><g class="g"><line class="a" x1="10.5" y1="16" x2="10.5" y2="9"/><line class="a" x1="13.5" y1="16" x2="13.5" y2="9"/></g></mask></defs><title>Source</title><circle class="b" cx="12" cy="12" r="12"/><circle class="b" cx="12" cy="36" r="12"/><circle class="b" cx="12" cy="60" r="12"/><circle class="b" cx="12" cy="84" r="12"/><g class="c"><path class="d" d="M17.5,6L16.64,17.15a2,2,0,0,1-2,1.85H9.35a2,2,0,0,1-2-1.85L6.5,6"/><line class="e" x1="13.5" y1="4.5" x2="10.5" y2="4.5"/><line class="e" x1="18.5" y1="6.5" x2="5.5" y2="6.5"/></g><path d="M14.27,29.52a2.62,2.62,0,0,0,1.69.76c3.55,0.22,4.29,1.77,4.29,6,0,4.56-1.42,6-8.25,6s-8.25-1.44-8.25-6c0-4.2.74-5.76,4.29-6a2.62,2.62,0,0,0,1.69-.76h0a2.62,2.62,0,0,1,1.85-.77h0.83a2.62,2.62,0,0,1,1.85.77h0ZM12,32.12a4.13,4.13,0,1,0,4.13,4.13A4.13,4.13,0,0,0,12,32.12Z"/><rect class="f" x="24" y="72" width="24" height="24" transform="translate(120 48) rotate(90)"/><rect class="f" x="24" y="96" width="24" height="24" transform="translate(-72 144) rotate(-90)"/><rect class="f" x="24" y="24" width="24" height="24" transform="translate(72 72) rotate(-180)"/></svg>