<svg id="0ca79855-24c6-4d47-9be2-76366d9f1bec" data-name="Layer 1" xmlns="http://www.w3.org/2000/svg" xmlns:xlink="http://www.w3.org/1999/xlink" width="24" height="96" viewBox="0 0 24 96"><defs><filter id="f9c6ecae-ca92-472a-b5b7-5e5d650e9814" x="5" y="4" width="14" height="15" filterUnits="userSpaceOnUse" color-interpolation-filters="sRGB"><feFlood flood-color="#fff" result="bg"/><feBlend in="SourceGraphic" in2="bg"/></filter><mask id="8d2dd467-667f-4d3a-a7d9-02c6b021859f" x="5" y="4" width="14" height="15" maskUnits="userSpaceOnUse"><g id="73ce0923-6f71-4dce-9f0d-734a3415894c" data-name="&lt;Group&gt;" style="filter:url(#f9c6ecae-ca92-472a-b5b7-5e5d650e9814)"><line id="1372e398-b770-454c-bdff-38a23000824a" data-name="&lt;Path&gt;" x1="10.5" y1="16" x2="10.5" y2="9" style="fill:none;stroke:#000;stroke-linejoin:round"/><line id="8e235c7b-0387-427c-93ab-8849750e86a7" data-name="&lt;Path&gt;" x1="13.5" y1="16" x2="13.5" y2="9" style="fill:none;stroke:#000;stroke-linejoin:round"/></g></mask></defs><title>Source</title><circle cx="12" cy="12" r="12" style="fill:#fff"/><circle cx="12" cy="36" r="12" style="fill:#fff"/><circle cx="12" cy="60" r="12" style="fill:#fff"/><circle cx="12" cy="84" r="12" style="fill:#fff"/><g style="mask:url(#8d2dd467-667f-4d3a-a7d9-02c6b021859f)"><g id="6b4bcdec-ef1c-4fec-99c8-649d42506006" data-name="&lt;Group&gt;"><path id="fa7d7f29-781e-4138-aecd-f6f2547f9ead" data-name="&lt;Path&gt;" d="M17.5,6L16.64,17.15a2,2,0,0,1-2,1.85H9.35a2,2,0,0,1-2-1.85L6.5,6" style="fill:#ff0014"/><line id="2bd7ce86-9bf2-42be-b51f-138fe9f5edbb" data-name="&lt;Path&gt;" x1="13.5" y1="4.5" x2="10.5" y2="4.5" style="fill:none;stroke:#ff0014;stroke-linecap:square;stroke-miterlimit:10"/><line id="7796847e-68cb-423d-99dc-0941e23be362" data-name="&lt;Path&gt;" x1="18.5" y1="6.5" x2="5.5" y2="6.5" style="fill:none;stroke:#ff0014;stroke-linecap:square;stroke-miterlimit:10"/></g></g><path id="d2609a31-96a2-4d0e-adef-2105707e9471" data-name="&lt;Compound Path&gt;" d="M14.27,29.52a2.62,2.62,0,0,0,1.69.76c3.55,0.22,4.29,1.77,4.29,6,0,4.56-1.42,6-8.25,6s-8.25-1.44-8.25-6c0-4.2.74-5.76,4.29-6a2.62,2.62,0,0,0,1.69-.76h0a2.62,2.62,0,0,1,1.85-.77h0.83a2.62,2.62,0,0,1,1.85.77h0ZM12,32.12a4.13,4.13,0,1,0,4.13,4.13A4.13,4.13,0,0,0,12,32.12Z"/><rect x="24" y="96" width="24" height="24" transform="translate(144 72) rotate(90)" style="fill:none"/><rect x="24" y="24" width="24" height="24" transform="translate(72 72) rotate(-180)" style="fill:none"/></svg>