<svg xmlns="http://www.w3.org/2000/svg" width="24" height="48" viewBox="0 0 24 48"><defs><style>.a{fill:#fff;}.b{fill:#ff0014;}.c{fill:none;stroke:#ff0014;stroke-linecap:square;stroke-miterlimit:10;}</style></defs><title>Source</title><circle class="a" cx="12" cy="12" r="12"/><circle class="a" cx="12" cy="36" r="12"/><path class="b" d="M6.5,6L7.36,17.15a2,2,0,0,0,2,1.85h5.3a2,2,0,0,0,2-1.85L17.5,6H6.5ZM11,16H10V9h1v7Zm3,0H13V9h1v7Z"/><line class="c" x1="13.5" y1="4.5" x2="10.5" y2="4.5"/><line class="c" x1="18.5" y1="6.5" x2="5.5" y2="6.5"/><path d="M14.27,29.52a2.62,2.62,0,0,0,1.69.76c3.55,0.22,4.29,1.77,4.29,6,0,4.56-1.42,6-8.25,6s-8.25-1.44-8.25-6c0-4.2.74-5.76,4.29-6a2.62,2.62,0,0,0,1.69-.76h0a2.62,2.62,0,0,1,1.85-.77h0.83a2.62,2.62,0,0,1,1.85.77h0ZM12,32.12a4.13,4.13,0,1,0,4.13,4.13A4.13,4.13,0,0,0,12,32.12Z"/></svg>