<svg xmlns="http://www.w3.org/2000/svg" xmlns:xlink="http://www.w3.org/1999/xlink" width="32" height="192" viewBox="0 0 32 192"><defs><style>.a,.b,.m,.n,.p,.r,.s{fill:none;}.a,.b{stroke:#000;stroke-width:4px;}.a,.b,.m,.p,.r,.s{stroke-miterlimit:10;}.a{filter:url(#b);}.b{filter:url(#d);}.c{fill:#72e7a5;}.d{fill:#14d769;}.e{fill:#ffdc64;}.f{fill:#f0f5f2;}.g{fill:#ced9d3;}.h{fill:#91dfff;}.i{fill:#23beff;}.j{fill:#ff6464;}.k{fill:#3296ff;}.l{mask:url(#a);}.m,.r{stroke:#ced9d3;}.o{mask:url(#c);}.p,.s{stroke:#869d91;}.q{fill:#869d91;}.r,.s{stroke-width:2px;}</style><filter id="b" x="5.66" y="5.66" width="20.69" height="20.69" filterUnits="userSpaceOnUse" color-interpolation-filters="sRGB"><feFlood flood-color="#fff" result="bg"/><feBlend in="SourceGraphic" in2="bg"/></filter><mask id="a" x="5.66" y="5.66" width="20.69" height="20.69" maskUnits="userSpaceOnUse"><line class="a" x1="7.07" y1="24.93" x2="24.93" y2="7.07"/></mask><filter id="d" x="5.66" y="37.66" width="20.69" height="20.69" filterUnits="userSpaceOnUse" color-interpolation-filters="sRGB"><feFlood flood-color="#fff" result="bg"/><feBlend in="SourceGraphic" in2="bg"/></filter><mask id="c" x="5.66" y="37.66" width="20.69" height="20.69" maskUnits="userSpaceOnUse"><line class="b" x1="7.07" y1="56.93" x2="24.93" y2="39.07"/></mask></defs><title>Source</title><rect class="c" x="-16" y="3" width="16" height="11" rx="3" ry="3"/><path class="d" d="M-16,6a3,3,0,0,1,3-3H-3A3,3,0,0,1,0,6l-8,4.62Z"/><path class="e" d="M-16,57V54a3,3,0,0,1,3-3H-3a3,3,0,0,1,3,3v2.75a6,6,0,0,1-3.22,5.31L-5,63V60h-8A3,3,0,0,1-16,57Z"/><path class="f" d="M-13,31H-3a3,3,0,0,0,3-3V22.63a2,2,0,0,0-1.1-1.79L-8,17.38l-6.9,3.47A2,2,0,0,0-16,22.63V28A3,3,0,0,0-13,31Z"/><path class="g" d="M0,22.5V28a3,3,0,0,1-3,3H-13a3,3,0,0,1-3-3V22.5l6.21,3.11a4,4,0,0,0,3.58,0Z"/><rect class="h" x="-16" y="35" width="16" height="11" rx="3" ry="3"/><path class="i" d="M-16,38a3,3,0,0,1,3-3H-3a3,3,0,0,1,3,3l-8,4.62Z"/><circle class="j" cx="-4.5" cy="84.5" r="4.5"/><circle class="k" cx="-4.5" cy="68.5" r="4.5"/><circle class="d" cx="-4.5" cy="100.5" r="4.5"/><g class="l"><path class="m" d="M24.9,16C23.48,19.52,20,21.5,16,21.5s-7.48-2-8.9-5.5C8.52,12.48,12,10.5,16,10.5S23.48,12.48,24.9,16Z"/><path class="g" d="M16,13a3,3,0,1,1-3,3,3,3,0,0,1,3-3m0-1a4,4,0,1,0,4,4,4,4,0,0,0-4-4h0Z"/></g><rect class="n" width="32" height="32"/><line class="m" x1="7.07" y1="24.93" x2="24.93" y2="7.07"/><g class="o"><path class="p" d="M24.9,48C23.48,51.52,20,53.5,16,53.5s-7.48-2-8.9-5.5C8.52,44.48,12,42.5,16,42.5S23.48,44.48,24.9,48Z"/><path class="q" d="M16,45a3,3,0,1,1-3,3,3,3,0,0,1,3-3m0-1a4,4,0,1,0,4,4,4,4,0,0,0-4-4h0Z"/></g><rect class="n" y="32" width="32" height="32"/><line class="p" x1="7.07" y1="56.93" x2="24.93" y2="39.07"/><path class="m" d="M24.9,80C23.48,83.52,20,85.5,16,85.5s-7.48-2-8.9-5.5C8.52,76.48,12,74.5,16,74.5S23.48,76.48,24.9,80Z"/><path class="g" d="M16,77a3,3,0,1,1-3,3,3,3,0,0,1,3-3m0-1a4,4,0,1,0,4,4,4,4,0,0,0-4-4h0Z"/><rect class="n" y="64" width="32" height="32"/><path class="p" d="M24.9,112c-1.43,3.52-4.87,5.5-8.9,5.5s-7.48-2-8.9-5.5c1.43-3.52,4.87-5.5,8.9-5.5S23.48,108.48,24.9,112Z"/><path class="q" d="M16,109a3,3,0,1,1-3,3,3,3,0,0,1,3-3m0-1a4,4,0,1,0,4,4,4,4,0,0,0-4-4h0Z"/><rect class="n" y="96" width="32" height="32"/><rect class="n" x="16" y="128" width="16" height="32"/><polyline class="r" points="28 148 24 152 20 148"/><polyline class="r" points="20 140 24 136 28 140"/><rect class="n" x="16" y="160" width="16" height="32"/><polyline class="s" points="28 180 24 184 20 180"/><polyline class="s" points="20 172 24 168 28 172"/></svg>