<svg id="6025aeda-61e3-4c33-92d9-7ce64c40075b" data-name="Layer 1" xmlns="http://www.w3.org/2000/svg" xmlns:xlink="http://www.w3.org/1999/xlink" width="32" height="192" viewBox="0 0 32 192"><defs><filter id="c3df7ac1-89bd-4f0b-b56b-dc5384b3a512" x="5.66" y="5.66" width="20.69" height="20.69" filterUnits="userSpaceOnUse" color-interpolation-filters="sRGB"><feFlood flood-color="#fff" result="bg"/><feBlend in="SourceGraphic" in2="bg"/></filter><mask id="fba03438-8144-4e92-8194-9d1be911b757" x="5.66" y="5.66" width="20.69" height="20.69" maskUnits="userSpaceOnUse"><g id="3e36f539-c310-49f5-9d59-d2c1397efc2c" data-name="&lt;Group&gt;" style="filter:url(#c3df7ac1-89bd-4f0b-b56b-dc5384b3a512)"><line id="6d1cf079-3d09-4d5d-bcf5-47da44fb3fdb" data-name="&lt;Path&gt;" x1="7.07" y1="24.93" x2="24.93" y2="7.07" style="fill:none;stroke:#000;stroke-miterlimit:10;stroke-width:4px"/></g></mask><filter id="daa96db8-77c4-4f61-bea2-b6bc6cc78693" x="5.66" y="37.66" width="20.69" height="20.69" filterUnits="userSpaceOnUse" color-interpolation-filters="sRGB"><feFlood flood-color="#fff" result="bg"/><feBlend in="SourceGraphic" in2="bg"/></filter><mask id="a04119eb-9b4b-43d7-8c6b-9d77c5c0e524" x="5.66" y="37.66" width="20.69" height="20.69" maskUnits="userSpaceOnUse"><g id="7399b3a5-19c5-4b39-af66-b315c013a415" data-name="&lt;Group&gt;" style="filter:url(#daa96db8-77c4-4f61-bea2-b6bc6cc78693)"><line id="de20d58d-d679-452c-849a-43e6ad98f43c" data-name="&lt;Path&gt;" x1="7.07" y1="56.93" x2="24.93" y2="39.07" style="fill:none;stroke:#000;stroke-miterlimit:10;stroke-width:4px"/></g></mask></defs><title>Source</title><g id="49a75739-aea2-4e10-b0a1-657b3868d814" data-name="&lt;Group&gt;"><g id="928d28cf-8aa3-46af-ad97-d76bad75b38f" data-name="&lt;Rectangle&gt;"><rect x="-16" y="3" width="16" height="11" rx="3" ry="3" style="fill:#72e7a5"/></g><g id="d2029e68-c604-4644-ade7-9f545bf71a8e" data-name="&lt;Group&gt;"><path d="M-16,6a3,3,0,0,1,3-3H-3A3,3,0,0,1,0,6l-8,4.62Z" style="fill:#14d769"/></g></g><g id="79a92b30-7fd3-4c78-9ac2-9cc4aeab08fa" data-name="&lt;Group&gt;"><g id="fffd4ba2-c15b-46e9-84ae-2311b0fe2264" data-name="&lt;Group&gt;"><path d="M-16,57V54a3,3,0,0,1,3-3H-3a3,3,0,0,1,3,3v2.75a6,6,0,0,1-3.22,5.31L-5,63V60h-8A3,3,0,0,1-16,57Z" style="fill:#ffdc64"/></g></g><g id="ce175ab4-cf86-4806-b38d-afdab10f7ca3" data-name="&lt;Group&gt;"><g id="0bf40a6d-fd31-4f14-81e5-04ab005c085e" data-name="&lt;Group&gt;"><path d="M-13,31H-3a3,3,0,0,0,3-3V22.63a2,2,0,0,0-1.1-1.79L-8,17.38l-6.9,3.47A2,2,0,0,0-16,22.63V28A3,3,0,0,0-13,31Z" style="fill:#f0f5f2"/></g><g id="f3a65218-1ef1-4400-a3c0-50685049eaa6" data-name="&lt;Group&gt;"><path d="M0,22.5V28a3,3,0,0,1-3,3H-13a3,3,0,0,1-3-3V22.5l6.21,3.11a4,4,0,0,0,3.58,0Z" style="fill:#ced9d3"/></g></g><g id="153a9dcc-2453-4e92-bd6d-db4e6b22eaa3" data-name="&lt;Group&gt;"><g id="ab0443f1-eed4-4c39-9854-ebac9b02a871" data-name="&lt;Group&gt;"><g id="40d7134e-7b7c-4a14-b312-5d4f4c5f468a" data-name="&lt;Rectangle&gt;"><rect x="-16" y="35" width="16" height="11" rx="3" ry="3" style="fill:#91dfff"/></g><g id="e73790bb-56ac-4340-a8c1-1e080a5cfac1" data-name="&lt;Group&gt;"><path d="M-16,38a3,3,0,0,1,3-3H-3a3,3,0,0,1,3,3l-8,4.62Z" style="fill:#23beff"/></g></g></g><g id="a3db949b-2ee8-42bd-b53e-91d0a1f00feb" data-name="&lt;Group&gt;"><circle cx="-4.5" cy="84.5" r="4.5" style="fill:#ff6464"/></g><g id="8d049903-4f09-4306-b3f7-79a1e839bdc7" data-name="&lt;Group&gt;"><circle cx="-4.5" cy="68.5" r="4.5" style="fill:#3296ff"/></g><g id="c3396d3d-e6ba-4f4f-8e15-0cd8ba9f6585" data-name="&lt;Group&gt;"><circle cx="-4.5" cy="100.5" r="4.5" style="fill:#14d769"/></g><g id="f3d17650-8a89-4547-a1cc-ef1549835714" data-name="&lt;Group&gt;"><g style="mask:url(#fba03438-8144-4e92-8194-9d1be911b757)"><g id="bdc9d5ff-a85d-401c-902e-6f15887eab7a" data-name="&lt;Group&gt;"><path id="fe1b98b4-3387-4807-9203-a55f257ee059" data-name="&lt;Path&gt;" d="M24.9,16C23.48,19.52,20,21.5,16,21.5s-7.48-2-8.9-5.5C8.52,12.48,12,10.5,16,10.5S23.48,12.48,24.9,16Z" style="fill:none;stroke:#ced9d3;stroke-miterlimit:10"/><g id="8d9361f8-799d-45d7-94cc-2bf5aa28032f" data-name="&lt;Group&gt;"><path d="M16,13a3,3,0,1,1-3,3,3,3,0,0,1,3-3m0-1a4,4,0,1,0,4,4,4,4,0,0,0-4-4h0Z" style="fill:#ced9d3"/></g></g></g><rect id="fe7d32f9-f10e-438e-8dd6-ccfa7f37feaa" data-name="&lt;Rectangle&gt;" width="32" height="32" style="fill:none"/><line id="ece608ff-9d96-44ee-ae1f-a27b0e6e03bb" data-name="&lt;Path&gt;" x1="7.07" y1="24.93" x2="24.93" y2="7.07" style="fill:none;stroke:#ced9d3;stroke-miterlimit:10"/></g><g id="b154e0e4-a959-474c-9b79-be31aff5226c" data-name="&lt;Group&gt;"><g style="mask:url(#a04119eb-9b4b-43d7-8c6b-9d77c5c0e524)"><g id="afe236e3-96e4-4b23-9783-c4ea15e5e121" data-name="&lt;Group&gt;"><path id="6adade85-6ea0-4255-8553-f7d1e53a4407" data-name="&lt;Path&gt;" d="M24.9,48C23.48,51.52,20,53.5,16,53.5s-7.48-2-8.9-5.5C8.52,44.48,12,42.5,16,42.5S23.48,44.48,24.9,48Z" style="fill:none;stroke:#869d91;stroke-miterlimit:10"/><g id="5e916523-07d5-4375-8795-64cef1c04a2e" data-name="&lt;Group&gt;"><path d="M16,45a3,3,0,1,1-3,3,3,3,0,0,1,3-3m0-1a4,4,0,1,0,4,4,4,4,0,0,0-4-4h0Z" style="fill:#869d91"/></g></g></g><rect id="6730d8d6-920a-4f2d-9fd2-e70105d46402" data-name="&lt;Rectangle&gt;" y="32" width="32" height="32" style="fill:none"/><line id="aedbef5d-c9fe-4b66-8c30-fecf6c20746c" data-name="&lt;Path&gt;" x1="7.07" y1="56.93" x2="24.93" y2="39.07" style="fill:none;stroke:#869d91;stroke-miterlimit:10"/></g><g id="233ee509-1451-490a-84e2-bc1952979195" data-name="&lt;Group&gt;"><path id="d60b973b-f813-4308-97be-d7887a85b4af" data-name="&lt;Path&gt;" d="M24.9,80C23.48,83.52,20,85.5,16,85.5s-7.48-2-8.9-5.5C8.52,76.48,12,74.5,16,74.5S23.48,76.48,24.9,80Z" style="fill:none;stroke:#ced9d3;stroke-miterlimit:10"/><g id="6eef0d68-3d53-42d3-9825-ed508de3869e" data-name="&lt;Group&gt;"><path d="M16,77a3,3,0,1,1-3,3,3,3,0,0,1,3-3m0-1a4,4,0,1,0,4,4,4,4,0,0,0-4-4h0Z" style="fill:#ced9d3"/></g><rect id="3b1bc454-ebc4-43e8-8474-55eadcaa5928" data-name="&lt;Rectangle&gt;" y="64" width="32" height="32" style="fill:none"/></g><g id="598c4583-366f-48da-b038-ca71c1816978" data-name="&lt;Group&gt;"><path id="2eab0963-43fe-4050-9702-e8a07dfe5c1d" data-name="&lt;Path&gt;" d="M24.9,112c-1.43,3.52-4.87,5.5-8.9,5.5s-7.48-2-8.9-5.5c1.43-3.52,4.87-5.5,8.9-5.5S23.48,108.48,24.9,112Z" style="fill:none;stroke:#869d91;stroke-miterlimit:10"/><g id="db9954cd-4663-4cac-b762-6dbc7efd78b2" data-name="&lt;Group&gt;"><path d="M16,109a3,3,0,1,1-3,3,3,3,0,0,1,3-3m0-1a4,4,0,1,0,4,4,4,4,0,0,0-4-4h0Z" style="fill:#869d91"/></g><rect id="7c244a64-5d3e-49bf-b91b-578977d350fb" data-name="&lt;Rectangle&gt;" y="96" width="32" height="32" style="fill:none"/></g><g id="18bbe9a5-3d3b-42e9-95bb-98d9c8721107" data-name="&lt;Group&gt;"><rect id="bab621b9-2a8b-457f-a49b-dd23f0606d9d" data-name="&lt;Rectangle&gt;" x="16" y="128" width="16" height="32" style="fill:none"/><polyline id="f58fbf12-b1af-43ae-923c-d3f8309a8c6c" data-name="&lt;Path&gt;" points="28 148 24 152 20 148" style="fill:none;stroke:#ced9d3;stroke-miterlimit:10;stroke-width:2.00000000004457px"/><polyline id="93bf2a6d-1522-4fb6-8dc8-dc560112bef5" data-name="&lt;Path&gt;" points="20 140 24 136 28 140" style="fill:none;stroke:#ced9d3;stroke-miterlimit:10;stroke-width:2.00000000004457px"/></g><g id="5b9be90f-8a72-4e58-a037-bdd67105e4e6" data-name="&lt;Group&gt;"><rect id="78c1b457-caac-44b0-9462-43e96e55d0b3" data-name="&lt;Rectangle&gt;" x="16" y="160" width="16" height="32" style="fill:none"/><polyline id="8921a483-c12a-42bc-8713-56a1c190f747" data-name="&lt;Path&gt;" points="28 180 24 184 20 180" style="fill:none;stroke:#869d91;stroke-miterlimit:10;stroke-width:2.00000000004457px"/><polyline id="0d7fe0fb-f409-4547-9ab5-c3994fec38df" data-name="&lt;Path&gt;" points="20 172 24 168 28 172" style="fill:none;stroke:#869d91;stroke-miterlimit:10;stroke-width:2.00000000004457px"/></g></svg>