<svg xmlns="http://www.w3.org/2000/svg" xmlns:xlink="http://www.w3.org/1999/xlink" width="24" height="168" viewBox="0 0 24 168"><defs><style>.a,.d,.e,.f{fill:none;}.a{stroke:#000;stroke-linejoin:round;}.b{mask:url(#a);}.c{fill:#476152;}.d,.f{stroke:#476152;stroke-miterlimit:10;}.d{stroke-linecap:square;}.f{stroke-width:2px;}.g{filter:url(#b);}</style><filter id="b" x="5" y="4" width="14" height="15" filterUnits="userSpaceOnUse" color-interpolation-filters="sRGB"><feFlood flood-color="#fff" result="bg"/><feBlend in="SourceGraphic" in2="bg"/></filter><mask id="a" x="5" y="4" width="14" height="15" maskUnits="userSpaceOnUse"><g class="g"><line class="a" x1="10.5" y1="16" x2="10.5" y2="9"/><line class="a" x1="13.5" y1="16" x2="13.5" y2="9"/></g></mask></defs><title>Source</title><g class="b"><path class="c" d="M17.5,6L16.64,17.15a2,2,0,0,1-2,1.85H9.35a2,2,0,0,1-2-1.85L6.5,6"/><line class="d" x1="13.5" y1="4.5" x2="10.5" y2="4.5"/><line class="d" x1="18.5" y1="6.5" x2="5.5" y2="6.5"/></g><rect class="e" y="48" width="24" height="24"/><polyline class="f" points="18 63 12 69 6 63"/><line class="f" x1="12" y1="68" x2="12" y2="54"/><line class="f" x1="8" y1="57" x2="8" y2="48"/><line class="f" x1="16" y1="60" x2="16" y2="51"/><rect class="e" y="72" width="24" height="24" transform="translate(96 72) rotate(90)"/><polyline class="f" points="14 89 9 84 14 79"/><line class="f" x1="10" y1="84" x2="20" y2="84"/><path class="f" d="M12,92H7a3,3,0,0,1-3-3V79a3,3,0,0,1,3-3h5"/><rect class="e" y="96" width="24" height="24" transform="translate(-96 120) rotate(-90)"/><polyline class="f" points="10 103 15 108 10 113"/><line class="f" x1="14" y1="108" x2="4" y2="108"/><path class="f" d="M12,100h5a3,3,0,0,1,3,3v10a3,3,0,0,1-3,3H12"/><rect class="f" x="4" y="124" width="16" height="16" rx="8" ry="8"/><circle class="f" cx="12" cy="132" r="4"/><path class="f" d="M7.2,138.4a6,6,0,0,1,9.6,0"/><rect class="e" y="24" width="24" height="24" transform="translate(24 72) rotate(-180)"/><polyline class="f" points="6 33 12 27 18 33"/><line class="f" x1="12" y1="28" x2="12" y2="42"/><line class="f" x1="16" y1="39" x2="16" y2="48"/><line class="f" x1="8" y1="36" x2="8" y2="45"/></svg>