<svg id="e7bf5d36-0a34-4013-99ac-eb1fe8c20cd6" data-name="Layer 1" xmlns="http://www.w3.org/2000/svg" xmlns:xlink="http://www.w3.org/1999/xlink" width="24" height="168" viewBox="0 0 24 168"><defs><filter id="e38ddac7-5843-4ab9-aa0b-1e9900bf80a2" x="5" y="4" width="14" height="15" filterUnits="userSpaceOnUse" color-interpolation-filters="sRGB"><feFlood flood-color="#fff" result="bg"/><feBlend in="SourceGraphic" in2="bg"/></filter><mask id="020f5358-4572-4c45-b998-22aec03b9f6f" x="5" y="4" width="14" height="15" maskUnits="userSpaceOnUse"><g id="003fe15f-b019-41f6-9474-24d49d18f082" data-name="&lt;Group&gt;" style="filter:url(#e38ddac7-5843-4ab9-aa0b-1e9900bf80a2)"><line id="daa2249b-db61-442a-b45b-3edaf30ce0b7" data-name="&lt;Path&gt;" x1="10.5" y1="16" x2="10.5" y2="9" style="fill:none;stroke:#000;stroke-linejoin:round"/><line id="f90dcf30-2e83-4a3b-b9e7-f4dcff80ef9c" data-name="&lt;Path&gt;" x1="13.5" y1="16" x2="13.5" y2="9" style="fill:none;stroke:#000;stroke-linejoin:round"/></g></mask></defs><title>Source</title><g style="mask:url(#020f5358-4572-4c45-b998-22aec03b9f6f)"><g id="c7f90d75-d589-4214-91c8-82229367ed99" data-name="&lt;Group&gt;"><path id="b8378648-89f0-458d-a62a-d2ce157d1229" data-name="&lt;Path&gt;" d="M17.5,6L16.64,17.15a2,2,0,0,1-2,1.85H9.35a2,2,0,0,1-2-1.85L6.5,6" style="fill:#476152"/><line id="7d0de09f-fc57-42a4-9151-c5a86ae4cc1a" data-name="&lt;Path&gt;" x1="13.5" y1="4.5" x2="10.5" y2="4.5" style="fill:none;stroke:#476152;stroke-linecap:square;stroke-miterlimit:10"/><line id="7d5d2dd1-bc6a-49c7-b5d1-9f3393349454" data-name="&lt;Path&gt;" x1="18.5" y1="6.5" x2="5.5" y2="6.5" style="fill:none;stroke:#476152;stroke-linecap:square;stroke-miterlimit:10"/></g></g><rect y="48" width="24" height="24" style="fill:none"/><polyline points="18 63 12 69 6 63" style="fill:none;stroke:#476152;stroke-miterlimit:10;stroke-width:2px"/><line x1="12" y1="68" x2="12" y2="54" style="fill:none;stroke:#476152;stroke-miterlimit:10;stroke-width:2px"/><line x1="8" y1="57" x2="8" y2="48" style="fill:none;stroke:#476152;stroke-miterlimit:10;stroke-width:2px"/><line x1="16" y1="60" x2="16" y2="51" style="fill:none;stroke:#476152;stroke-miterlimit:10;stroke-width:2px"/><rect y="72" width="24" height="24" transform="translate(96 72) rotate(90)" style="fill:none"/><polyline points="14 89 9 84 14 79" style="fill:none;stroke:#476152;stroke-miterlimit:10;stroke-width:2px"/><line x1="10" y1="84" x2="20" y2="84" style="fill:none;stroke:#476152;stroke-miterlimit:10;stroke-width:2px"/><path d="M12,92H7a3,3,0,0,1-3-3V79a3,3,0,0,1,3-3h5" style="fill:none;stroke:#476152;stroke-miterlimit:10;stroke-width:2px"/><rect y="96" width="24" height="24" transform="translate(-96 120) rotate(-90)" style="fill:none"/><polyline points="10 103 15 108 10 113" style="fill:none;stroke:#476152;stroke-miterlimit:10;stroke-width:2px"/><line x1="14" y1="108" x2="4" y2="108" style="fill:none;stroke:#476152;stroke-miterlimit:10;stroke-width:2px"/><path d="M12,100h5a3,3,0,0,1,3,3v10a3,3,0,0,1-3,3H12" style="fill:none;stroke:#476152;stroke-miterlimit:10;stroke-width:2px"/><rect x="4" y="124" width="16" height="16" rx="8" ry="8" style="fill:none;stroke:#476152;stroke-miterlimit:10;stroke-width:2px"/><circle cx="12" cy="132" r="4" style="fill:none;stroke:#476152;stroke-miterlimit:10;stroke-width:2px"/><path d="M7.2,138.4a6,6,0,0,1,9.6,0" style="fill:none;stroke:#476152;stroke-miterlimit:10;stroke-width:2px"/><rect y="24" width="24" height="24" transform="translate(24 72) rotate(-180)" style="fill:none"/><polyline points="6 33 12 27 18 33" style="fill:none;stroke:#476152;stroke-miterlimit:10;stroke-width:2px"/><line x1="12" y1="28" x2="12" y2="42" style="fill:none;stroke:#476152;stroke-miterlimit:10;stroke-width:2px"/><line x1="16" y1="39" x2="16" y2="48" style="fill:none;stroke:#476152;stroke-miterlimit:10;stroke-width:2px"/><line x1="8" y1="36" x2="8" y2="45" style="fill:none;stroke:#476152;stroke-miterlimit:10;stroke-width:2px"/></svg>
