<svg id="ee914a96-a4f3-487f-bd46-4c2579053e7b" data-name="Layer 1" xmlns="http://www.w3.org/2000/svg" xmlns:xlink="http://www.w3.org/1999/xlink" width="24" height="168" viewBox="0 0 24 168"><defs><filter id="1281966b-a0b5-4f6e-8c09-3c97402eb6da" x="5" y="4" width="14" height="15" filterUnits="userSpaceOnUse" color-interpolation-filters="sRGB"><feFlood flood-color="#fff" result="bg"/><feBlend in="SourceGraphic" in2="bg"/></filter><mask id="c9185ba1-4953-476d-9f9c-a545b3fc7242" x="5" y="4" width="14" height="15" maskUnits="userSpaceOnUse"><g id="dc788e20-e4dd-4812-be84-81bd2fa3e3ba" data-name="&lt;Group&gt;" style="filter:url(#1281966b-a0b5-4f6e-8c09-3c97402eb6da)"><line id="19fb966d-4270-4545-bcbd-28d7da2adbce" data-name="&lt;Path&gt;" x1="10.5" y1="16" x2="10.5" y2="9" style="fill:none;stroke:#000;stroke-linejoin:round"/><line id="8cccb61c-a0f6-4cc1-8d6a-6d87e4ad7f61" data-name="&lt;Path&gt;" x1="13.5" y1="16" x2="13.5" y2="9" style="fill:none;stroke:#000;stroke-linejoin:round"/></g></mask></defs><title>Source</title><g style="mask:url(#c9185ba1-4953-476d-9f9c-a545b3fc7242)"><g id="26063d6b-cdbb-4937-9a3b-13d4d18bd205" data-name="&lt;Group&gt;"><path id="77ceae2a-79c4-4fc9-b01c-190f0a01b942" data-name="&lt;Path&gt;" d="M17.5,6L16.64,17.15a2,2,0,0,1-2,1.85H9.35a2,2,0,0,1-2-1.85L6.5,6" style="fill:#476152"/><line id="962eb637-da17-4bec-b41c-1f410cbac4fc" data-name="&lt;Path&gt;" x1="13.5" y1="4.5" x2="10.5" y2="4.5" style="fill:none;stroke:#476152;stroke-linecap:square;stroke-miterlimit:10"/><line id="8b258070-180a-4953-a62e-afba1d31ab8f" data-name="&lt;Path&gt;" x1="18.5" y1="6.5" x2="5.5" y2="6.5" style="fill:none;stroke:#476152;stroke-linecap:square;stroke-miterlimit:10"/></g></g><rect y="48" width="24" height="24" style="fill:none"/><polyline points="18 63 12 69 6 63" style="fill:none;stroke:#476152;stroke-miterlimit:10;stroke-width:2px"/><line x1="12" y1="68" x2="12" y2="54" style="fill:none;stroke:#476152;stroke-miterlimit:10;stroke-width:2px"/><line x1="8" y1="57" x2="8" y2="48" style="fill:none;stroke:#476152;stroke-miterlimit:10;stroke-width:2px"/><line x1="16" y1="60" x2="16" y2="51" style="fill:none;stroke:#476152;stroke-miterlimit:10;stroke-width:2px"/><rect y="72" width="24" height="24" style="fill:none"/><polyline points="18 87 12 93 6 87" style="fill:none;stroke:#476152;stroke-miterlimit:10;stroke-width:2px"/><line x1="12" y1="92" x2="12" y2="78" style="fill:none;stroke:#476152;stroke-miterlimit:10;stroke-width:2px"/><line x1="8" y1="81" x2="8" y2="72" style="fill:none;stroke:#476152;stroke-miterlimit:10;stroke-width:2px"/><line x1="16" y1="84" x2="16" y2="75" style="fill:none;stroke:#476152;stroke-miterlimit:10;stroke-width:2px"/><rect y="96" width="24" height="24" transform="translate(120 96) rotate(90)" style="fill:none"/><polyline points="14 113 9 108 14 103" style="fill:none;stroke:#476152;stroke-miterlimit:10;stroke-width:2px"/><line x1="10" y1="108" x2="20" y2="108" style="fill:none;stroke:#476152;stroke-miterlimit:10;stroke-width:2px"/><path d="M12,116H7a3,3,0,0,1-3-3V103a3,3,0,0,1,3-3h5" style="fill:none;stroke:#476152;stroke-miterlimit:10;stroke-width:2px"/><rect y="120" width="24" height="24" transform="translate(-120 144) rotate(-90)" style="fill:none"/><polyline points="10 127 15 132 10 137" style="fill:none;stroke:#476152;stroke-miterlimit:10;stroke-width:2px"/><line x1="14" y1="132" x2="4" y2="132" style="fill:none;stroke:#476152;stroke-miterlimit:10;stroke-width:2px"/><path d="M12,124h5a3,3,0,0,1,3,3v10a3,3,0,0,1-3,3H12" style="fill:none;stroke:#476152;stroke-miterlimit:10;stroke-width:2px"/><rect x="4" y="148" width="16" height="16" rx="8" ry="8" style="fill:none;stroke:#476152;stroke-miterlimit:10;stroke-width:2px"/><circle cx="12" cy="156" r="4" style="fill:none;stroke:#476152;stroke-miterlimit:10;stroke-width:2px"/><path d="M7.2,162.4a6,6,0,0,1,9.6,0" style="fill:none;stroke:#476152;stroke-miterlimit:10;stroke-width:2px"/><rect y="24" width="24" height="24" transform="translate(24 72) rotate(-180)" style="fill:none"/><polyline points="6 33 12 27 18 33" style="fill:none;stroke:#476152;stroke-miterlimit:10;stroke-width:2px"/><line x1="12" y1="28" x2="12" y2="42" style="fill:none;stroke:#476152;stroke-miterlimit:10;stroke-width:2px"/><line x1="16" y1="39" x2="16" y2="48" style="fill:none;stroke:#476152;stroke-miterlimit:10;stroke-width:2px"/><line x1="8" y1="36" x2="8" y2="45" style="fill:none;stroke:#476152;stroke-miterlimit:10;stroke-width:2px"/></svg>