<svg xmlns="http://www.w3.org/2000/svg" width="24" height="144" viewBox="0 0 24 144"><defs><style>.a{fill:#476152;}.b,.c,.d{fill:none;stroke:#476152;}.b{stroke-linecap:square;}.b,.c{stroke-miterlimit:10;}.c,.d{stroke-width:2px;}.d{stroke-linecap:round;stroke-linejoin:round;}</style></defs><title>Source</title><path class="a" d="M6.5,6L7.36,17.15a2,2,0,0,0,2,1.85h5.3a2,2,0,0,0,2-1.85L17.5,6H6.5ZM11,16H10V9h1v7Zm3,0H13V9h1v7Z"/><line class="b" x1="13.5" y1="4.5" x2="10.5" y2="4.5"/><line class="b" x1="18.5" y1="6.5" x2="5.5" y2="6.5"/><polyline class="c" points="18 63 12 69 6 63"/><line class="c" x1="12" y1="68" x2="12" y2="54"/><line class="c" x1="8" y1="57" x2="8" y2="48"/><line class="c" x1="16" y1="60" x2="16" y2="51"/><polyline class="d" points="10 103 15 108 10 113"/><line class="d" x1="14" y1="108" x2="4" y2="108"/><path class="d" d="M12,100h5a3,3,0,0,1,3,3v10a3,3,0,0,1-3,3H12"/><polyline class="c" points="6 33 12 27 18 33"/><line class="c" x1="12" y1="28" x2="12" y2="42"/><line class="c" x1="16" y1="39" x2="16" y2="48"/><line class="c" x1="8" y1="36" x2="8" y2="45"/><circle class="d" cx="12" cy="129" r="5"/><path class="d" d="M7,139a5,5,0,0,1,10,0"/><polyline class="d" points="15 79 20 84 15 89"/><line class="d" x1="19" y1="84" x2="9" y2="84"/><path class="d" d="M12,76H7a3,3,0,0,0-3,3V89a3,3,0,0,0,3,3h5"/></svg>