<?xml version="1.0" encoding="utf-8"?>
<!-- Generator: Adobe Illustrator 19.0.0, SVG Export Plug-In . SVG Version: 6.00 Build 0)  -->
<svg version="1.1" id="Layer_1" xmlns="http://www.w3.org/2000/svg" xmlns:xlink="http://www.w3.org/1999/xlink" x="0px" y="0px"
	 viewBox="-245 217 20 80" style="enable-background:new -245 217 20 80;" xml:space="preserve">
<style type="text/css">
	.st0{fill:none;stroke:#869D91;stroke-linecap:square;stroke-linejoin:bevel;}
	.st1{fill:none;stroke:#869D91;stroke-linecap:square;stroke-miterlimit:10;}
	.st2{fill:none;stroke:#869D91;stroke-miterlimit:10;}
</style>
<title>Source</title>
<polyline class="st0" points="-235.8,271.2 -235,275.3 -234.2,271.2 "/>
<polyline class="st1" points="-235.8,271.2 -237.1,264.5 -242.5,264.5 -235,257 -227.5,264.5 -232.9,264.5 -234.2,271.2 "/>
<path class="st2" d="M-233,246c0.2,0.9-0.5,1.8-1.4,2c-0.2,0-0.4,0-0.6,0c-0.9,0.2-1.8-0.5-2-1.4c0-0.2,0-0.4,0-0.6
	c-0.2-0.9,0.5-1.8,1.4-2c0.2,0,0.4,0,0.6,0c0.9-0.2,1.8,0.5,2,1.4C-233,245.6-233,245.8-233,246z M-235,250c-0.9-0.2-1.8,0.5-2,1.4
	c0,0.2,0,0.4,0,0.6c-0.2,0.9,0.5,1.8,1.4,2c0.2,0,0.4,0,0.6,0c0.9,0.2,1.8-0.5,2-1.4c0-0.2,0-0.4,0-0.6c0.2-0.9-0.5-1.8-1.4-2
	C-234.6,250-234.8,250-235,250z M-235,238c-0.9-0.2-1.8,0.5-2,1.4c0,0.2,0,0.4,0,0.6c-0.2,0.9,0.5,1.8,1.4,2c0.2,0,0.4,0,0.6,0
	c0.9,0.2,1.8-0.5,2-1.4c0-0.2,0-0.4,0-0.6c0.2-0.9-0.5-1.8-1.4-2C-234.6,238-234.8,238-235,238z"/>
<path class="st1" d="M-235.9,223.1c4.4,0,9.3,2.2,9.3,10.2c0-4.6-4.9-5.6-9.3-5.6v5.8l-7.5-7.5l7.5-7.5V223.1z"/>
<polyline id="XMLID_23_" class="st2" points="-241.5,287 -241.5,293.5 -235,293.5 "/>
<polyline id="XMLID_1_" class="st2" points="-228.5,287 -228.5,280.5 -235,280.5 "/>
</svg>
