<svg xmlns="http://www.w3.org/2000/svg" width="20" height="40" viewBox="0 0 20 40"><defs><style>.a,.b{fill:none;stroke:#869d91;stroke-miterlimit:10;}.b{stroke-linecap:square;}</style></defs><title>Source</title><path class="a" d="M12,30a1.73,1.73,0,0,1-2,2,1.73,1.73,0,0,1-2-2,1.73,1.73,0,0,1,2-2A1.73,1.73,0,0,1,12,30Zm-2,4a1.73,1.73,0,0,0-2,2,1.73,1.73,0,0,0,2,2,1.73,1.73,0,0,0,2-2A1.73,1.73,0,0,0,10,34Zm0-12a1.73,1.73,0,0,0-2,2,1.73,1.73,0,0,0,2,2,1.73,1.73,0,0,0,2-2A1.73,1.73,0,0,0,10,22Z"/><path class="b" d="M8.58,7.08c4.42,0,9.33,2.21,9.33,10.17,0-4.64-4.92-5.58-9.33-5.58V17.5L1.08,10l7.5-7.5V7.08Z"/></svg>