<svg xmlns="http://www.w3.org/2000/svg" width="20" height="80" viewBox="0 0 20 80"><defs><style>.a,.b,.c{fill:none;}.b,.c{stroke:#869d91;stroke-miterlimit:10;}.c{stroke-linecap:square;}</style></defs><title>Source</title><rect class="a" y="20" width="20" height="20"/><path class="b" d="M12,30a1.73,1.73,0,0,1-2,2,1.73,1.73,0,0,1-2-2,1.73,1.73,0,0,1,2-2A1.73,1.73,0,0,1,12,30Z"/><path class="b" d="M12,36a1.73,1.73,0,0,1-2,2,1.73,1.73,0,0,1-2-2,1.73,1.73,0,0,1,2-2A1.73,1.73,0,0,1,12,36Z"/><path class="b" d="M12,24a1.73,1.73,0,0,1-2,2,1.73,1.73,0,0,1-2-2,1.73,1.73,0,0,1,2-2A1.73,1.73,0,0,1,12,24Z"/><polyline class="a" points="20 0 20 20 0 20 0 0"/><path class="c" d="M8.58,7.08c4.42,0,9.33,2.21,9.33,10.17,0-4.64-4.92-5.58-9.33-5.58V17.5L1.08,10l7.5-7.5V7.08Z"/></svg>