<svg xmlns="http://www.w3.org/2000/svg" width="320" height="120" viewBox="0 0 320 120"><defs><style>.a{fill:#14d769;}</style></defs><title>_Nested</title><path class="a" d="M282.71,82.83c1.1,11.15,5.72,13.66,11.45,13.66,5.07,0,9.94-1.61,13.21-4.47,4.72-7.28,4.77-22.39,3.92-44.64-0.7-18.18-2.81-27-17.82-28.57,0.7-4.37,1.05-6.53,5.82-6.17,16.57,1.1,20,19,20.33,31.43,0.7,25.15,1.51,44.64-8,53.72-4.62,4.42-11.4,6.28-18.38,6.28-8.94,0-17.12-2.91-19-19.93-1.76-16,.9-28.82,7.23-34.84a25.72,25.72,0,0,1,18.07-7.13,37.17,37.17,0,0,1,14.16,3.26l-0.25,7.73a31,31,0,0,0-14-3.36,21.26,21.26,0,0,0-13,4.22c-4.37,6.68-4.67,18.68-3.72,28.82M74.43,78.22c14.36,1.25,26.26-1.56,32.08-7,4.42-4.12,5.17-10.39,4.62-15.56-1.05-9.24-9-13.3-17.67-13.46-8.84-.15-14.46,2.66-19,7-6.93,6.48-9.34,19.23-7.88,32.54,1.76,15.92,10.19,22.39,21.94,22.54A57.4,57.4,0,0,0,107,100.91c4.27-1.51,4.57-4.47,3-9.14-10.54,3.11-16.87,4-22.69,3.92-7.63-1.31-11-5.82-12.25-17.07-1-8.49.55-17.62,4.07-24.15A20.58,20.58,0,0,1,92.31,50.2c6.17,0.1,9.39,2.61,9.94,6.83a15.09,15.09,0,0,1-1.1,8.69c-6.58,4.77-17.87,6-27.16,5Zm96.48-27.39h36.85l0.5-6.83H171.42Zm18.7-11.68c0-2.91-.1-5.72-0.25-7.48a3.2,3.2,0,0,0-3.46-3.16c-1.41,0-3.56.15-5.37,0.35,0.5,3.46.7,11.8,0.7,26.31-0.1,11.4,0,29.92.5,36,0.5,6.63,3.26,13,12.65,13a31.87,31.87,0,0,0,11.3-2.21c3.26-1.46,3.46-4.22,2-8.39a46.94,46.94,0,0,1-12.85,2.66c-3.41-.25-4.47-3.11-4.77-7.13-0.45-6.88-.45-41.77-0.45-50M160.14,53.31c2.06-5,1-8.74-3.56-9.94a45.45,45.45,0,0,0-11-1.21c-5.07.25-11.7,1.46-16.07,5.67a16.13,16.13,0,0,0-4.52,13.05c1.41,17.22,28.17,13.46,29.17,25.86a9.85,9.85,0,0,1-2.06,7.33,33.56,33.56,0,0,1-10.29,1.51A51,51,0,0,1,125.29,93c-1.31,5.12-1.46,8.23,2.41,9.64,3.31,1.25,9.29,1.71,14,1.51,7.83-.35,13.2-1.61,17.07-5.62,2.61-2.66,4.67-8.08,4.22-13.81-1.56-19-28.52-15.16-29.32-25.51a10.56,10.56,0,0,1,1.51-6.68,32.31,32.31,0,0,1,10.49-1.71,50.75,50.75,0,0,1,14.51,2.46m64.63,24.9c14.41,1.25,26.26-1.56,32.13-7,4.42-4.12,5.12-10.39,4.57-15.56-1-9.24-9-13.3-17.62-13.46-8.84-.15-14.46,2.66-19.08,7-6.88,6.48-9.29,19.23-7.83,32.54,1.76,15.92,10.19,22.39,21.94,22.54a56.88,56.88,0,0,0,18.48-3.31c4.32-1.51,4.62-4.47,3-9.14-10.54,3.11-16.87,4-22.64,3.92-7.63-1.31-11-5.82-12.25-17.07-1-8.49.55-17.62,4.07-24.15a20.44,20.44,0,0,1,13.1-4.27c6.23,0.1,9.39,2.61,10,6.83a16,16,0,0,1-1.11,8.69c-6.63,4.77-17.87,6-27.21,5Zm-210-23.08c6.72-2.31,15.5-3.86,19.62-3.71,6.27,1.81,8,6.32,8.08,22.08v29.4a1.77,1.77,0,0,0,1.81,1.61c1.91,0,5.07-.3,7-0.5V73.85c0-15.8.3-31.21-16.51-31.21C26.82,42.64,16.34,46,6,50.22V102.9a1.77,1.77,0,0,0,1.81,1.61c1.91,0,5-.3,7-0.5V55.13"/></svg>