<svg id="77c6cf3a-db92-4c77-826c-9674fbc98317" data-name="Layer 1" xmlns="http://www.w3.org/2000/svg" width="320" height="120" viewBox="0 0 320 120">
  <title>NestedLogo</title>
  <g id="30bfd9a9-b026-4131-9157-3da4a26ffb72" data-name="&lt;Group&gt;">
    <g id="62c30cfa-0ab6-4b70-a07b-20c7969b0476" data-name="nested">
      <path id="0145aace-f595-45dd-800b-8a6b081a177c" data-name="d" d="M282.71,82.83c-1-10.14-.65-22.14,3.72-28.82a21.26,21.26,0,0,1,13-4.22,31,31,0,0,1,14,3.36l0.25-7.73a37.17,37.17,0,0,0-14.16-3.26,25.72,25.72,0,0,0-18.07,7.13c-6.33,6-9,18.88-7.23,34.84,1.91,17,10.09,19.93,19,19.93,7,0,13.76-1.86,18.38-6.28,9.49-9.09,8.69-28.57,8-53.72-0.35-12.45-3.77-30.33-20.33-31.43-4.77-.35-5.12,1.81-5.82,6.17,15,1.56,17.12,10.39,17.82,28.57,0.85,22.24.8,37.36-3.92,44.64-3.26,2.86-8.13,4.47-13.21,4.47-5.72,0-10.34-2.51-11.45-13.66" style="fill: #14d769"/>
      <path id="315e82bd-4a2b-44e6-b6ef-7f7a8d62d66d" data-name="e" d="M74,70.68c9.29,1.05,20.59-.2,27.16-5a15.09,15.09,0,0,0,1.1-8.69c-0.55-4.22-3.77-6.73-9.94-6.83a20.58,20.58,0,0,0-13.16,4.27c-3.51,6.53-5,15.67-4.07,24.15,1.26,11.25,4.62,15.77,12.25,17.07,5.82,0.1,12.15-.8,22.69-3.92,1.56,4.67,1.26,7.63-3,9.14a57.4,57.4,0,0,1-18.53,3.31c-11.75-.15-20.18-6.63-21.94-22.54-1.46-13.31,1-26.06,7.88-32.54,4.57-4.32,10.19-7.13,19-7,8.64,0.15,16.62,4.22,17.67,13.46,0.55,5.17-.2,11.45-4.62,15.56-5.82,5.47-17.72,8.28-32.08,7Z" style="fill: #14d769"/>
      <polygon id="d217128e-c78c-4aac-813a-15b7fe4a5d3a" data-name="t2" points="171.41 44 208.27 44 207.77 50.83 170.91 50.83 171.41 44" style="fill: #14d769"/>
      <path id="d335d349-03a9-4127-89fe-2fd5caf73244" data-name="t1" d="M189.61,39.15c0,8.23,0,43.13.45,50,0.3,4,1.36,6.88,4.77,7.13a46.94,46.94,0,0,0,12.85-2.66c1.46,4.17,1.25,6.93-2,8.39a31.87,31.87,0,0,1-11.3,2.21c-9.39,0-12.15-6.38-12.65-13-0.5-6.13-.6-24.65-0.5-36,0-14.51-.2-22.85-0.7-26.31,1.81-.2,4-0.35,5.37-0.35a3.2,3.2,0,0,1,3.46,3.16c0.15,1.76.25,4.57,0.25,7.48" style="fill: #14d769"/>
      <path id="4f6e9dee-b2b2-4f5c-8c7b-9bcd1e5a476b" data-name="s" d="M160.14,53.31a50.75,50.75,0,0,0-14.51-2.46,32.31,32.31,0,0,0-10.49,1.71,10.56,10.56,0,0,0-1.51,6.68c0.8,10.34,27.77,6.53,29.32,25.51,0.45,5.72-1.61,11.15-4.22,13.81-3.87,4-9.24,5.27-17.07,5.62-4.67.2-10.64-.25-14-1.51-3.87-1.41-3.72-4.52-2.41-9.64a51,51,0,0,0,16.47,2.56,33.56,33.56,0,0,0,10.29-1.51,9.85,9.85,0,0,0,2.06-7.33c-1-12.4-27.77-8.64-29.17-25.86a16.13,16.13,0,0,1,4.52-13.05c4.37-4.22,11-5.42,16.07-5.67a45.45,45.45,0,0,1,11,1.21c4.57,1.2,5.62,4.92,3.56,9.94" style="fill: #14d769"/>
      <path id="4ae157cf-5a63-4d47-bbef-9612b74976bc" data-name="e" d="M224.32,70.68c9.34,1.05,20.59-.2,27.21-5A16,16,0,0,0,252.64,57c-0.6-4.22-3.77-6.73-10-6.83a20.44,20.44,0,0,0-13.1,4.27c-3.51,6.53-5,15.67-4.07,24.15,1.21,11.25,4.62,15.77,12.25,17.07,5.77,0.1,12.1-.8,22.64-3.92,1.61,4.67,1.31,7.63-3,9.14a56.88,56.88,0,0,1-18.48,3.31c-11.75-.15-20.18-6.63-21.94-22.54-1.46-13.31,1-26.06,7.83-32.54,4.62-4.32,10.24-7.13,19.08-7,8.64,0.15,16.62,4.22,17.62,13.46,0.55,5.17-.15,11.45-4.57,15.56-5.87,5.47-17.72,8.28-32.13,7Z" style="fill: #14d769"/>
      <path id="714e162e-9037-4370-85c8-3a08f9e3a302" data-name="n" d="M14.78,55.13V104c-2,.2-5.07.5-7,0.5A1.77,1.77,0,0,1,6,102.9V50.22C16.34,46,26.82,42.64,34.75,42.64c16.81,0,16.51,15.4,16.51,31.21V104c-1.91.2-5.07,0.5-7,.5a1.77,1.77,0,0,1-1.81-1.61V73.5c-0.05-15.75-1.81-20.27-8.08-22.08-4.11-.15-12.9,1.41-19.62,3.71" style="fill: #14d769"/>
    </g>
  </g>
  <rect id="8ddee510-2e83-4dbc-83c0-d38b5d06eb6e" data-name="&lt;Rectangle&gt;" x="-280" y="-120" width="720" height="360" style="fill: none"/>
</svg>
