<svg xmlns="http://www.w3.org/2000/svg" xmlns:xlink="http://www.w3.org/1999/xlink" width="120" height="120" viewBox="0 0 120 120"><defs><style>.a{isolation:isolate;}.b{fill:#fff;}.c{mix-blend-mode:multiply;fill:url(#a);}</style><radialGradient id="a" cx="60" cy="74.93" r="59.94" gradientTransform="translate(120 131.12) rotate(180) scale(1 0.75)" gradientUnits="userSpaceOnUse"><stop offset="0" stop-color="#f0f0f0"/><stop offset="0.13" stop-color="#f0f0f0" stop-opacity="0.82"/><stop offset="0.37" stop-color="#f0f0f0" stop-opacity="0.53"/><stop offset="0.58" stop-color="#f0f0f0" stop-opacity="0.3"/><stop offset="0.77" stop-color="#f0f0f0" stop-opacity="0.14"/><stop offset="0.91" stop-color="#f0f0f0" stop-opacity="0.04"/><stop offset="1" stop-color="#f0f0f0" stop-opacity="0"/></radialGradient></defs><title>_Nested</title><g class="a"><path class="b" d="M60,11.55l45,26a10,10,0,0,1,5,8.66V74.64a30.08,30.08,0,0,1-15,26,70,70,0,0,1-70,0,30.08,30.08,0,0,1-15-26V46.19a10,10,0,0,1,5-8.66l45-26M60,0L10,28.87A20,20,0,0,0,0,46.19V74.64a40,40,0,0,0,20,34.64h0a80,80,0,0,0,80,0h0a40,40,0,0,0,20-34.64V46.19a20,20,0,0,0-10-17.32L60,0h0Z"/><path class="b" d="M60,120a80,80,0,0,1-40-10.72A40,40,0,0,1,0,74.64V46.19a19.91,19.91,0,0,1,.73-5.35L60,75.06l59.27-34.22a19.91,19.91,0,0,1,.73,5.35V74.64a40,40,0,0,1-20,34.64A80,80,0,0,1,60,120Z"/><path class="c" d="M60,75.06l59.27-34.22a19.91,19.91,0,0,1,.73,5.35V74.64a40,40,0,0,1-20,34.64A80,80,0,0,1,60,120"/></g></svg>