<svg xmlns="http://www.w3.org/2000/svg" xmlns:xlink="http://www.w3.org/1999/xlink" width="120" height="120" viewBox="0 0 120 120">
  <defs>
    <radialGradient id="dedf4fb9-7470-423c-8a5c-c056c684c500" cx="60" cy="74.93" r="59.94" gradientTransform="translate(120 131.12) rotate(180) scale(1 0.75)" gradientUnits="userSpaceOnUse">
      <stop offset="0" stop-color="#00f0ff"/>
      <stop offset="0.17" stop-color="#00f0ff" stop-opacity="0.78"/>
      <stop offset="0.4" stop-color="#00f0ff" stop-opacity="0.5"/>
      <stop offset="0.6" stop-color="#00f0ff" stop-opacity="0.29"/>
      <stop offset="0.78" stop-color="#00f0ff" stop-opacity="0.13"/>
      <stop offset="0.92" stop-color="#00f0ff" stop-opacity="0.04"/>
      <stop offset="1" stop-color="#00f0ff" stop-opacity="0"/>
    </radialGradient>
  </defs>
  <title>NestedLogo</title>
  <g style="isolation: isolate">
    <g id="d6522214-9cdc-402c-8a49-457c6f6c9205" data-name="Layer 1">
      <g id="d41531e6-3c9a-4ed1-9b59-f3be5e59fe25" data-name="&lt;Group&gt;">
        <g id="fe4c9712-1542-439d-b654-1dbdfc02a722" data-name="&lt;Group&gt;">
          <g id="f065e3c2-3cd7-4b07-b76a-8b60ca514e3e" data-name="&lt;Group&gt;">
            <path id="d48c7d19-641e-4837-8dc9-2adc5c8a466f" data-name="&lt;Compound Path&gt;" d="M60,11.55l45,26a10,10,0,0,1,5,8.66V74.64a30.08,30.08,0,0,1-15,26,70,70,0,0,1-70,0,30.08,30.08,0,0,1-15-26V46.19a10,10,0,0,1,5-8.66l45-26M60,0L10,28.87A20,20,0,0,0,0,46.19V74.64a40,40,0,0,0,20,34.64h0a80,80,0,0,0,80,0h0a40,40,0,0,0,20-34.64V46.19a20,20,0,0,0-10-17.32L60,0h0Z" style="fill: #14d769"/>
          </g>
          <g id="b6d87a71-2452-4ae8-a344-fbaa1a209c2c" data-name="&lt;Group&gt;">
            <path id="cee7efd4-e970-48de-811b-a7e55d34032a" data-name="&lt;Path&gt;" d="M60,120a80,80,0,0,1-40-10.72A40,40,0,0,1,0,74.64V46.19a19.91,19.91,0,0,1,.73-5.35L60,75.06l59.27-34.22a19.91,19.91,0,0,1,.73,5.35V74.64a40,40,0,0,1-20,34.64A80,80,0,0,1,60,120Z" style="fill: #14d769"/>
          </g>
          <path id="94dff98c-705a-42b7-bd00-9b3d9c898ff8" data-name="&lt;Path&gt;" d="M60,75.06l59.27-34.22a19.91,19.91,0,0,1,.73,5.35V74.64a40,40,0,0,1-20,34.64A80,80,0,0,1,60,120" style="mix-blend-mode: multiply;fill: url(#dedf4fb9-7470-423c-8a5c-c056c684c500)"/>
        </g>
      </g>
      <rect id="eadea0e7-43ed-4ac0-97e6-ea7d1dc69231" data-name="&lt;Rectangle&gt;" x="-120" y="-120" width="720" height="360" style="fill: none"/>
    </g>
  </g>
</svg>
