<svg id="icons" xmlns="http://www.w3.org/2000/svg" viewBox="0 0 20 20">
  <title>nst</title>
  <g id="cross">
    <rect id="empty16" width="20" height="20" style="fill: none"/>
    <polygon points="17 9 17 11 11 11 11 17 9 17 9 11 3 11 3 9 9 9 9 3 11 3 11 9 17 9"/>
  </g>
  <g id="Wre">
    <rect id="empty20" width="20" height="20" style="fill: none"/>
    <path d="M10,17.46,1.92,9.38,10,1.29V6.7a8.57,8.57,0,0,1,8.25,8.73v1.88h-1V15.44c0-3.11-4.73-3.63-7.25-3.68ZM3.33,9.38,9,15V10.75h.5c1.8,0,5.24.21,7.23,1.71A7.84,7.84,0,0,0,9.5,7.69H9v-4Z"/>
  </g>
  <g id="Wfwd">
    <rect id="empty20-2" data-name="empty20" width="20" height="20" style="fill: none"/>
    <path id="_Compound_Path_" data-name="&lt;Compound Path&gt;" d="M10.51,1.92,2.41,10h5.5L10,19h1l2.1-9h5.5ZM12.29,9l-1.79,8.17L8.71,9H4.84l5.67-5.67L16.16,9Z"/>
  </g>
  <g id="Wmore">
    <rect id="empty20-3" data-name="empty20" width="20" height="20" style="fill: none"/>
    <path d="M10,12.5A2.5,2.5,0,1,1,12.5,10,2.5,2.5,0,0,1,10,12.5Zm0-4A1.5,1.5,0,1,0,11.5,10,1.5,1.5,0,0,0,10,8.5Zm0-2A2.5,2.5,0,1,1,12.5,4,2.5,2.5,0,0,1,10,6.5Zm0-4A1.5,1.5,0,1,0,11.5,4,1.5,1.5,0,0,0,10,2.5Zm0,16A2.5,2.5,0,1,1,12.5,16,2.5,2.5,0,0,1,10,18.5Zm0-4A1.5,1.5,0,1,0,11.5,16,1.5,1.5,0,0,0,10,14.5Z"/>
  </g>
</svg>
