<?xml version="1.0" encoding="utf-8"?>
<!-- Generator: Adobe Illustrator 19.0.0, SVG Export Plug-In . SVG Version: 6.00 Build 0)  -->
<svg version="1.1" id="icn16" xmlns="http://www.w3.org/2000/svg" xmlns:xlink="http://www.w3.org/1999/xlink" x="0px" y="0px"
	 viewBox="0 0 16 16" style="enable-background:new 0 0 16 16;" xml:space="preserve">
<g id="replied">
	<rect id="space_223_" style="fill:none;" width="16" height="16"/>
	<rect id="space_206_" y="0" style="fill:none;" width="16" height="16"/>
	<path d="M11.9,12.4C10.5,9.3,8.4,8,5,8h0l1.8,1.8c0.4,0.4,0.4,1,0,1.4s-1,0.4-1.4,0L1.8,7.7c-0.4-0.4-0.4-1,0-1.4l3.5-3.5
		c0.4-0.4,1-0.4,1.4,0s0.4,1,0,1.4L4.9,6h0c4.3,0,7,1.8,8.8,5.5c0.2,0.5,0,1.1-0.5,1.3C12.7,13.1,12.1,12.9,11.9,12.4z"/>
</g>
<g id="forwarded">
	<rect id="space_207_" style="fill:none;" width="16" height="16"/>
	<g>
		<path d="M8,13.5c-0.6,0-1-0.4-1-1V5.9L5.2,7.7c-0.4,0.4-1,0.4-1.4,0s-0.4-1,0-1.4l3.5-3.5c0.4-0.4,1-0.4,1.4,0l3.5,3.5
			c0.4,0.4,0.4,1,0,1.4s-1,0.4-1.4,0L9,5.9v6.6C9,13.1,8.6,13.5,8,13.5z"/>
	</g>
</g>
<g id="retract">
	<rect id="space_658_" style="fill:none;" width="16" height="16"/>
	<path d="M10,5.4V4.5C10,4.2,9.8,4,9.5,4h-1C8.6,2.5,9.2,2,11,2c0.3,0,0.5-0.2,0.5-0.5S11.3,1,11,1C8.7,1,7.7,1.9,7.5,4h-1
		C6.2,4,6,4.2,6,4.5v0.9C4.2,6.2,3,8,3,10c0,2.8,2.2,5,5,5s5-2.2,5-5C13,8,11.8,6.2,10,5.4z M8,13.5c-1.9,0-3.5-1.6-3.5-3.5
		c0-1.9,1.6-3.5,3.5-3.5s3.5,1.6,3.5,3.5C11.5,11.9,9.9,13.5,8,13.5z M9.8,11.1c0.2,0.2,0.2,0.5,0,0.7c-0.1,0.1-0.2,0.1-0.4,0.1
		s-0.3,0-0.4-0.1l-1.6-1.6V8c0-0.3,0.2-0.5,0.5-0.5S8.5,7.7,8.5,8v1.8L9.8,11.1z"/>
</g>
<g id="bin">
	<rect id="space_151_" style="fill:none;" width="16" height="16"/>
	<path d="M10,2H6V1h4V2z M3,3h10v1h-1v8c0,1.1-0.9,2-2,2H6c-1.1,0-2-0.9-2-2V4H3V3z M7,5.7H6V12h1V5.7z M10,5.7H9V12h1V5.7z"/>
</g>
<g id="printer">
	<rect id="space_554_" style="fill:none;" width="16" height="16"/>
	<path d="M11,5H5V3h6V5z M14,7c0,0.6-0.4,1-1,1s-1-0.4-1-1s0.4-1,1-1S14,6.4,14,7z M11,13H5V9h6V13z M15,7c0-1.1-0.9-2-2-2h-1V2H4v3
		H3C1.9,5,1,5.9,1,7v5h3v2h8v-2h3V7z"/>
</g>
<g id="message">
	<rect id="space_514_" style="fill:none;" width="16" height="16"/>
	<path style="fill-rule:evenodd;clip-rule:evenodd;" d="M13.5,3h-11C1.7,3,1,3.7,1,4.5v8C1,13.3,1.7,14,2.5,14h11
		c0.8,0,1.5-0.7,1.5-1.5v-8C15,3.7,14.3,3,13.5,3z M2.5,7.8L8,10.3l5.5-2.6V6.1L8,8.7L2.5,6.1V7.8z"/>
</g>
<g id="more">
	<rect id="space_15_" style="fill:none;" width="16" height="16"/>
	<path d="M9.5,8c0,0.8-0.7,1.5-1.5,1.5S6.5,8.8,6.5,8S7.2,6.5,8,6.5S9.5,7.2,9.5,8z M8,11.5c-0.8,0-1.5,0.7-1.5,1.5s0.7,1.5,1.5,1.5
		s1.5-0.7,1.5-1.5S8.8,11.5,8,11.5z M8,1.5C7.2,1.5,6.5,2.2,6.5,3S7.2,4.5,8,4.5S9.5,3.8,9.5,3S8.8,1.5,8,1.5z"/>
</g>
<g id="alert">
	<rect id="space_642_" style="fill:none;" width="16" height="16"/>
	<path style="fill-rule:evenodd;clip-rule:evenodd;" d="M9.3,2.4l5.4,9.4c0.6,1-0.1,2.2-1.3,2.2H2.6c-1.2,0-1.9-1.2-1.3-2.2l5.4-9.4
		C7.3,1.4,8.7,1.4,9.3,2.4z M9,5H7v5h2V5z M9,13H7v-2h2V13z"/>
</g>
<g id="exit">
	<g id="space_320_">
		<rect style="fill:none;" width="16" height="16"/>
	</g>
	<path d="M8,14H4c-1.1,0-2-0.9-2-2V4c0-1.1,0.9-2,2-2h4v2H4v8h4V14z M10.7,12.7l-1.4-1.4L11.6,9H6V7h5.6L9.3,4.7l1.4-1.4l4,4
		c0.4,0.4,0.4,1,0,1.4L10.7,12.7z"/>
</g>
<g id="enter">
	<g id="space_312_">
		<rect style="fill:none;" width="16" height="16"/>
	</g>
	<path d="M12,14H8v-2h4V4H8V2h4c1.1,0,2,0.9,2,2v8C14,13.1,13.1,14,12,14z M5.7,12.7l-1.4-1.4L6.6,9H2V7h4.6L4.3,4.7l1.4-1.4l4,4
		c0.4,0.4,0.4,1,0,1.4L5.7,12.7z"/>
</g>
<g id="eye-open">
	<rect id="space_666_" style="fill:none;" width="16" height="16"/>
	<path d="M6.5,6.5c-0.6,0-1,0.4-1,1s0.4,1,1,1s1-0.4,1-1S7.1,6.5,6.5,6.5z M8,5c1.2,0,2.5,0.4,3.6,1.3C11.8,6.8,12,7.4,12,8
		s-0.2,1.2-0.4,1.7C10.5,10.6,9.2,11,8,11s-2.5-0.4-3.6-1.3C4.2,9.2,4,8.6,4,8c0-0.6,0.2-1.2,0.4-1.7C5.5,5.4,6.8,5,8,5z M8,4
		c2.1,0,4.9,1.1,5.9,4c-1.1,2.9-3.8,4-5.9,4s-4.9-1.1-5.9-4C3.1,5.1,5.9,4,8,4 M8,3C5,3,2,4.7,1,8c1,3.3,4,5,7,5s6-1.7,7-5
		C14,4.7,11,3,8,3L8,3z"/>
</g>
<g id="add-to-place">
	<rect id="space_730_" style="fill:none;" width="16" height="16"/>
	<path d="M12,14H8v-2h4V4H8V2h4c1.1,0,2,0.9,2,2v8C14,13.1,13.1,14,12,14z M7,12H5V9H2V7h3V4h2v3h3v2H7V12z"/>
</g>
<g id="remove-from-place">
	<rect id="space_738_" style="fill:none;" width="16" height="16"/>
	<path d="M8,14H4c-1.1,0-2-0.9-2-2V4c0-1.1,0.9-2,2-2h4v2H4v8h4V14z M14,9H6V7h8V9z"/>
</g>
<g id="ignor-place">
	<rect style="fill:none;" width="16" height="16"/>
	<path d="M12,14H9v-2h3V4H9V2h3c1.1,0,2,0.9,2,2v8C14,13.1,13.1,14,12,14z M8.1,11.5L6,9.4l-2.1,2.1l-1.4-1.4L4.6,8L2.5,5.9l1.4-1.4
		L6,6.6l2.1-2.1l1.4,1.4L7.4,8l2.1,2.1L8.1,11.5z"/>
</g>
<g id="messages">
	<rect id="space_426_" style="fill:none;" width="16" height="16"/>
	<path d="M10.7,5H1.3C0.6,5,0,5.6,0,6.3v6.3C0,13.4,0.6,14,1.3,14h9.3c0.7,0,1.3-0.6,1.3-1.3V6.3C12,5.6,11.4,5,10.7,5L10.7,5z
		 M10.5,7.7v1.5L6,11.2L1.5,9.1V7.7L6,9.8L10.5,7.7z M16,3.3v6.3c0,0.7-0.6,1.3-1.3,1.3H13V8l1.5-0.7V5.8L13,6.5V6.3
		C13,5,12,4,10.7,4H4V3.3C4,2.6,4.6,2,5.3,2h9.3C15.4,2,16,2.6,16,3.3z"/>
</g>
<g id="bookmarked-message">
	<path d="M14,5.3v6.3c0,0.7-0.6,1.3-1.3,1.3H3.3C2.6,13,2,12.4,2,11.7V5.3C2,4.6,2.6,4,3.3,4H8v7l2-2l2,2V4h0.7
		C13.4,4,14,4.6,14,5.3z"/>
	<rect id="space_17_" style="fill:none;" width="16" height="16"/>
</g>
<g id="sent-message">
	<rect id="space_336_" style="fill:none;" width="16" height="16"/>
	<path style="fill-rule:evenodd;clip-rule:evenodd;" d="M1,5V4h13.5C15.3,4,16,4.7,16,5.5v6c0,0.8-0.7,1.5-1.5,1.5h-9
		C4.7,13,4,12.3,4,11.5V9H2V8h2V7H0V6h4V5H1z M14.5,6.5L10,8.4L5.5,6.5v1.6l4.5,1.9l4.5-1.9V6.5z"/>
</g>
<g id="sort">
	<rect id="space_63_" style="fill:none;" width="16" height="16"/>
	<path d="M11,9H1V7h10V9z M15,3H1v2h14V3z M7,11H1v2h6V11z"/>
</g>
<g id="expand">
	<rect id="space_818_" style="fill:none;" width="16" height="16"/>
	<path d="M14,2.8V7h-1.5V4.6L10.1,7L9,5.9l2.4-2.4H9V2h4.2C13.7,2,14,2.3,14,2.8z M2,13.2V9h1.5v2.4L5.9,9L7,10.1l-2.4,2.4H7V14H2.8
		C2.3,14,2,13.7,2,13.2z"/>
</g>
<g id="collapse">
	<rect id="space_810_" style="fill:none;" width="16" height="16"/>
	<path d="M9,6.2V2h1.5v2.4L12.9,2L14,3.1l-2.4,2.4H14V7H9.8C9.3,7,9,6.7,9,6.2z M7,9.8V14H5.5v-2.4L3.1,14L2,12.9l2.4-2.4H2V9h4.2
		C6.7,9,7,9.3,7,9.8z"/>
</g>
<g id="comment">
	<rect id="space_4_" style="fill:none;" width="16" height="16"/>
	<path style="fill-rule:evenodd;clip-rule:evenodd;" d="M16,9L16,9c0,2.2-1.8,4-4,4H4c-2.2,0-4-1.8-4-4V1l4,4h8C14.2,5,16,6.8,16,9z
		 M12,10.2c0.7,0,1.2-0.6,1.2-1.2S12.7,7.8,12,7.8S10.8,8.3,10.8,9S11.3,10.2,12,10.2z M8,10.2c0.7,0,1.2-0.6,1.2-1.2S8.7,7.8,8,7.8
		S6.8,8.3,6.8,9S7.3,10.2,8,10.2z M4,10.2c0.7,0,1.2-0.6,1.2-1.2S4.7,7.8,4,7.8S2.8,8.3,2.8,9S3.3,10.2,4,10.2z"/>
</g>
<g id="arrow">
	<g id="space_47_">
		<rect style="fill:none;" width="16" height="16"/>
	</g>
	<g id="path_2_">
		<polygon points="8,11.4 3.3,6.7 4.7,5.3 8,8.6 11.3,5.3 12.7,6.7 		"/>
	</g>
</g>
<g id="gear">
	<rect id="space_231_" style="fill:none;" width="16" height="16"/>
	<path id="XMLID_359_" d="M11.1,8c0,1.7-1.4,3.1-3.1,3.1S4.9,9.7,4.9,8S6.3,4.9,8,4.9S11.1,6.3,11.1,8z M13.2,10.2
		C13.2,10.2,13.2,10.1,13.2,10.2c0.2-0.4,0.5-0.7,0.8-0.8l0.6-0.2C15.1,9,15.5,8.6,15.5,8c0,0,0,0,0,0c0-0.5-0.4-1-0.9-1.2L14,6.6
		c-0.4-0.1-0.6-0.4-0.8-0.7c0,0,0,0,0-0.1c-0.1-0.4-0.1-0.7,0-1.1l0.3-0.6c0.3-0.5,0.2-1.1-0.2-1.4c0,0,0,0,0,0
		c-0.4-0.4-1-0.5-1.4-0.2l-0.6,0.3c-0.3,0.2-0.7,0.2-1.1,0c0,0,0,0-0.1,0C9.8,2.7,9.5,2.4,9.4,2L9.2,1.4C9,0.9,8.6,0.5,8,0.5
		c0,0,0,0,0,0c-0.5,0-1,0.4-1.2,0.9L6.6,2C6.5,2.4,6.2,2.7,5.9,2.8c0,0,0,0-0.1,0C5.5,3,5.1,3,4.7,2.8L4.2,2.5
		C3.7,2.2,3.1,2.3,2.7,2.7c0,0,0,0,0,0c-0.4,0.4-0.5,1-0.2,1.4l0.3,0.6C3,5.1,3,5.5,2.8,5.8c0,0,0,0,0,0.1C2.7,6.2,2.4,6.5,2,6.6
		L1.4,6.8C0.9,7,0.5,7.4,0.5,8c0,0,0,0,0,0c0,0.5,0.4,1,0.9,1.2L2,9.4c0.4,0.1,0.6,0.4,0.8,0.7c0,0,0,0,0,0.1c0.1,0.4,0.1,0.7,0,1.1
		l-0.3,0.6c-0.3,0.5-0.2,1.1,0.2,1.4c0,0,0,0,0,0c0.4,0.4,1,0.5,1.4,0.2l0.6-0.3c0.3-0.2,0.7-0.2,1.1,0c0,0,0,0,0.1,0
		c0.4,0.1,0.6,0.4,0.7,0.8l0.2,0.6C7,15.1,7.4,15.5,8,15.5c0,0,0,0,0,0c0.5,0,1-0.4,1.2-0.9L9.4,14c0.1-0.4,0.4-0.6,0.7-0.8
		c0,0,0,0,0.1,0c0.4-0.1,0.7-0.1,1.1,0l0.6,0.3c0.5,0.3,1.1,0.2,1.4-0.2c0,0,0,0,0,0c0.4-0.4,0.5-1,0.2-1.4l-0.3-0.6
		C13,10.9,13,10.5,13.2,10.2z"/>
</g>
<g id="brick-wall">
	<rect id="space_167_" style="fill:none;" width="16" height="16"/>
	<path id="XMLID_731_" d="M1,4v8c0,1.1,0.9,2,2,2h10c1.1,0,2-0.9,2-2V4c0-1.1-0.9-2-2-2H3C1.9,2,1,2.9,1,4z M3,4h5v2H3V4z M10,9H6V7
		h4V9z M3,7h2v2H3V7z M3,12v-2h4v2H3z M13,12H8v-2h5V12z M13,9h-2V7h2V9z M13,6H9V4h4V6z"/>
</g>
<g id="window">
	<rect id="space_175_" style="fill:none;" width="16" height="16"/>
	<linearGradient id="SVGID_1_" gradientUnits="userSpaceOnUse" x1="8" y1="12" x2="8" y2="4">
		<stop  offset="0" style="stop-color:#FFFFFF"/>
		<stop  offset="1" style="stop-color:#000000"/>
	</linearGradient>
	<rect x="3" y="4" style="opacity:0.2;fill:url(#SVGID_1_);" width="10" height="8"/>
	<path d="M1,4v8c0,1.1,0.9,2,2,2h10c1.1,0,2-0.9,2-2V4c0-1.1-0.9-2-2-2H3C1.9,2,1,2.9,1,4z M3,4h10v8H3V4z M8.1,9.1L7.9,8.9l4-4
		l0.2,0.2L8.1,9.1z M8.1,11.1l-0.2-0.2l4-4l0.2,0.2L8.1,11.1z"/>
</g>
<g id="places">
	<rect id="space_401_" style="fill:none;" width="16" height="16"/>
	<path d="M13,14H3c-1.1,0-2-0.9-2-2V4c0-1.1,0.9-2,2-2h10c1.1,0,2,0.9,2,2v8C15,13.1,14.1,14,13,14z M3.5,10c1.2,0,2.2,0.6,3.1,1.4
		C6.9,11.8,7.4,12,8,12h0c0.6,0,1.1-0.2,1.4-0.6c0.8-0.8,1.9-1.4,3.1-1.4H13V4H3v6H3.5z"/>
</g>
<g id="earth">
	<rect id="space_19_" style="fill:none;" width="16" height="16"/>
	<path d="M8,1.5C4.4,1.5,1.5,4.4,1.5,8s2.9,6.5,6.5,6.5s6.5-2.9,6.5-6.5S11.6,1.5,8,1.5z M3.5,8c0-0.7,0.2-1.3,0.4-1.9
		c0.2,0.1,0.5,0.2,0.6,0.5c0.1,0.1,0.1,0.3,0.2,0.4C4.9,7,5,7.1,5.2,7.1c0,0,0-0.1,0-0.1c0,0,0.1,0,0.1,0.1C5.5,7.4,5,7.8,5,8.3
		c0,0.3,0.3,0.6,0.4,0.9c0,0.1,0.1,0.3,0.1,0.4C5.6,9.8,5.9,9.9,6,10.1c0.3,0.3,0.3,0.7,0.3,1.2c0,0.3,0.1,0.7,0.2,1
		C4.8,11.6,3.5,10,3.5,8z M8,12.5c-0.2,0-0.4,0-0.7-0.1c0.2-0.1,0.5-0.2,0.6-0.4c0.2,0,0.4-0.3,0.5-0.5c0.1-0.2,0.2-0.5,0.4-0.6
		c0.3-0.3,0.8-0.3,0.9-0.7c0-0.1,0-0.3,0-0.4c0-0.2,0.2-0.4,0.4-0.5c0.1,0,0.1,0,0.2-0.1c0-0.1,0-0.1,0-0.2c0-0.2-0.1-0.3-0.1-0.5
		C10,8.5,9.6,8.4,9.3,8.3C9,8.2,8.7,8.1,8.4,7.9c0-0.3-0.3-0.6-0.6-0.7c-0.1,0-0.1,0-0.2,0c-0.1,0-0.1-0.1-0.1-0.2
		C7.4,7.1,7.2,7,7.2,6.9c0,0,0-0.1-0.1-0.1c0,0-0.1,0-0.1,0c-0.3,0-0.6,0-0.9-0.1c-0.3,0-0.7,0-0.8,0.3C5.3,6.9,5.2,6.9,5.1,6.8
		C5.1,6.8,5,6.9,4.9,6.9c-0.1-0.2-0.1-0.4,0-0.7C4.8,6.1,4.7,6.1,4.6,6.1c0-0.1,0.1-0.2,0.1-0.3c0.1-0.1,0.1-0.2,0.1-0.3
		c0-0.1-0.2-0.1-0.2,0c0,0,0,0.1,0,0.1c0,0.1-0.2,0.1-0.3,0.1C4.4,5.3,4.7,5,5,4.7c0,0,0.1,0,0.1,0c0.1,0,0.3,0.1,0.3,0.2
		c0,0,0,0,0,0c0,0.1,0.1,0.1,0.1,0.2c0.1-0.2,0.2-0.5,0.2-0.8c0.1,0,0.1-0.1,0.2-0.1C6,4.1,6.2,4,6.3,3.8C6.8,3.6,7.4,3.5,8,3.5
		c0.7,0,1.4,0.2,2,0.5c0,0,0,0.1,0,0.1c0,0.2-0.2,0.3-0.3,0.5c0,0.1,0.2,0.3,0.2,0.4c0,0.1,0,0.2,0,0.2c0,0.1,0.2,0.1,0.3,0.2
		c-0.2,0.3-0.1,0.6,0.2,0.9c0.2,0.2,0.4,0.3,0.5,0.5c0,0.1,0,0.1,0,0.2c0.1,0.1,0.2,0.2,0.3,0.3c0.3-0.1,0.2-0.1,0.5,0
		C11.8,7.2,12,7,12.2,7c0.1,0,0.1,0,0.2,0.1c0.1,0.3,0.1,0.6,0.1,0.9C12.5,10.5,10.5,12.5,8,12.5z"/>
</g>
<g id="cross">
	<rect id="space_39_" style="fill:none;" width="16" height="16"/>
	<polygon points="9,2 7,2 7,7 2,7 2,9 7,9 7,14 9,14 9,9 14,9 14,7 9,7 	"/>
</g>
<g id="crown">
	<rect id="space_247_" style="fill:none;" width="16" height="16"/>
	<g>
		<path d="M13,5.8c-0.9,0-1.7,0.7-1.7,1.7c0,0.5,0.2,1,0.6,1.3l-0.7,0.6C10.6,9.9,9.6,9.7,9.2,9L8.5,7.7c0.7-0.2,1.2-0.8,1.2-1.6
			c0-0.9-0.7-1.7-1.7-1.7S6.3,5.2,6.3,6.1c0,0.7,0.5,1.4,1.2,1.6L6.8,9C6.4,9.7,5.4,9.9,4.7,9.3L4.1,8.7C4.4,8.4,4.7,8,4.7,7.5
			c0-0.9-0.7-1.7-1.7-1.7S1.3,6.5,1.3,7.5S2.1,9.1,3,9.1c0.1,0,0.1,0,0.2,0l0.3,2.7C3.6,12.5,4.2,13,4.8,13h6.3
			c0.7,0,1.2-0.5,1.3-1.2l0.3-2.7c0.1,0,0.1,0,0.2,0c0.9,0,1.7-0.7,1.7-1.7S13.9,5.8,13,5.8z"/>
	</g>
</g>
<g id="manager">
	<rect id="space_95_" style="fill:none;" width="16" height="16"/>
	<path d="M12,13v2h-1v-2c0-0.5-0.5-1-1-1v3H6v-3c-0.5,0-1,0.5-1,1v2H4v-2c0-1.1,0.9-2,2-2h4C11.1,11,12,11.9,12,13z M11.8,2.6
		c-0.7,0-1.2,0.6-1.2,1.2c0,0.4,0.2,0.7,0.5,0.9l-0.5,0.5C10,5.7,9.2,5.6,8.9,5L8.4,4c0.5-0.2,0.9-0.6,0.9-1.2
		c0-0.7-0.6-1.2-1.2-1.2S6.8,2.2,6.8,2.8c0,0.6,0.4,1,0.9,1.2L7.1,5C6.8,5.6,6,5.7,5.6,5.3L5,4.8c0.3-0.2,0.5-0.6,0.5-0.9
		c0-0.7-0.6-1.2-1.2-1.2S3,3.2,3,3.8s0.6,1.2,1.2,1.2c0.1,0,0.1,0,0.2,0l0.2,1.1C4.7,6.6,5.1,7,5.6,7h4.8c0.5,0,0.9-0.4,1-0.8
		l0.2-1.1c0.1,0,0.1,0,0.2,0c0.7,0,1.2-0.6,1.2-1.2S12.4,2.6,11.8,2.6z M8,10.5c1.4,0,2.5-1.1,2.5-2.5h-5C5.5,9.4,6.6,10.5,8,10.5z"
		/>
</g>
<g id="manager-member">
	<rect id="space_103_" style="fill:none;" width="16" height="16"/>
	<path d="M15,13v2h-1v-2c0-0.5-0.5-1-1-1v3H9v-3H7v3H3v-3c-0.5,0-1,0.5-1,1v2H1v-2c0-1.1,0.9-2,2-2h10C14.1,11,15,11.9,15,13z
		 M1.4,5.1l0.2,1.1C1.7,6.6,2.1,7,2.6,7h4.8c0.5,0,0.9-0.4,1-0.8l0.2-1.1c0.1,0,0.1,0,0.2,0c0.7,0,1.2-0.6,1.2-1.2S9.4,2.6,8.8,2.6
		S7.5,3.2,7.5,3.8c0,0.4,0.2,0.7,0.5,0.9L7.4,5.3C7,5.7,6.2,5.6,5.9,5L5.4,4c0.5-0.2,0.9-0.6,0.9-1.2c0-0.7-0.6-1.2-1.2-1.2
		S3.8,2.2,3.8,2.8c0,0.6,0.4,1,0.9,1.2L4.1,5C3.8,5.6,3,5.7,2.6,5.3L2,4.8c0.3-0.2,0.5-0.6,0.5-0.9c0-0.7-0.6-1.2-1.2-1.2
		S0,3.2,0,3.8s0.6,1.2,1.2,1.2C1.3,5.1,1.4,5.1,1.4,5.1z M5,10.5c1.4,0,2.5-1.1,2.5-2.5h-5C2.5,9.4,3.6,10.5,5,10.5z M8.5,8
		c0,1.4,1.1,2.5,2.5,2.5c1.4,0,2.5-1.1,2.5-2.5c0-1.4-1.1-2.5-2.5-2.5C9.6,5.5,8.5,6.6,8.5,8z"/>
</g>
<g id="member">
	<rect id="space_87_" style="fill:none;" width="16" height="16"/>
	<path d="M6,15v-3c-0.5,0-1,0.5-1,1v2H4v-2c0-1.1,0.9-2,2-2h4c1.1,0,2,0.9,2,2v2h-1v-2c0-0.5-0.5-1-1-1v3H6z M8,5.5
		C6.6,5.5,5.5,6.6,5.5,8s1.1,2.5,2.5,2.5s2.5-1.1,2.5-2.5S9.4,5.5,8,5.5z"/>
</g>
<g id="team">
	<rect id="space_111_" style="fill:none;" width="16" height="16"/>
	<path d="M16,13v2h-1v-2c0-0.5-0.5-1-1-1v3h-3v-3h-1v3H6v-3H5v3H2v-3c-0.5,0-1,0.5-1,1v2H0v-2c0-1.1,0.9-2,2-2h12
		C15.1,11,16,11.9,16,13z M13,10.2c1.2,0,2.2-1,2.2-2.2c0-1.2-1-2.2-2.2-2.2c-1.2,0-2.2,1-2.2,2.2C10.8,9.2,11.8,10.2,13,10.2z
		 M8,10.2c1.2,0,2.2-1,2.2-2.2c0-1.2-1-2.2-2.2-2.2c-1.2,0-2.2,1-2.2,2.2C5.8,9.2,6.8,10.2,8,10.2z M3,10.2c1.2,0,2.2-1,2.2-2.2
		c0-1.2-1-2.2-2.2-2.2c-1.2,0-2.2,1-2.2,2.2C0.8,9.2,1.8,10.2,3,10.2z"/>
</g>
<g id="search">
	<rect id="space_22_" style="fill:none;" width="16" height="16"/>
	<path d="M14,12.9l-3.3-3.3C11.2,8.9,11.5,8,11.5,7c0-2.5-2-4.5-4.5-4.5c-2.5,0-4.5,2-4.5,4.5c0,2.5,2,4.5,4.5,4.5
		c1,0,1.9-0.3,2.6-0.8l3.3,3.3c0.3,0.3,0.8,0.3,1.1,0C14.3,13.7,14.3,13.2,14,12.9z M4,7c0-1.7,1.3-3,3-3s3,1.3,3,3s-1.3,3-3,3
		S4,8.7,4,7z"/>
</g>
<g id="person">
	<rect id="space_255_" style="fill:none;" width="16" height="16"/>
	<path d="M4,14v-1.5c0-1.7,1.3-3,3-3h2c1.7,0,3,1.3,3,3V14H4z M5,5c0,1.7,1.3,3,3,3s3-1.3,3-3S9.7,2,8,2S5,3.3,5,5z"/>
</g>
<g id="small-face-wire">
	<path style="opacity:0.16;" d="M8,15.2c-6.9,0-7.8-4.1-7.8-7.2S1.1,0.8,8,0.8s7.8,4.1,7.8,7.2S14.9,15.2,8,15.2z"/>
	<rect id="space_779_" style="fill:none;" width="16" height="16"/>
	<path d="M7,6.5C7,7.3,6.3,8,5.5,8S4,7.3,4,6.5S4.7,5,5.5,5S7,5.7,7,6.5z M10.5,5C9.7,5,9,5.7,9,6.5S9.7,8,10.5,8S12,7.3,12,6.5
		S11.3,5,10.5,5z M8,15.2c-6.9,0-7.8-4.1-7.8-7.2S1.1,0.8,8,0.8s7.8,4.1,7.8,7.2S14.9,15.2,8,15.2z M8,2.2C2.8,2.2,1.8,4.5,1.8,8
		s1.1,5.8,6.2,5.8s6.2-2.3,6.2-5.8S13.2,2.2,8,2.2z M8,12.2c-2.2,0-4.2-0.3-4.7-2.6C3.3,9.2,3.5,8.9,4,8.8C4.4,8.7,4.8,9,4.8,9.4
		C4.9,10,5.1,10.8,8,10.8c2.2,0,3-0.3,3.2-1.4C11.2,9,11.6,8.7,12,8.8c0.4,0.1,0.7,0.5,0.6,0.9C12.2,12.2,9.5,12.2,8,12.2z"/>
</g>
<g id="atsign">
	<rect id="space_422_" style="fill:none;" width="16" height="16"/>
	<g>
		<path d="M8.2,15c-0.3,0-0.5,0-0.8,0C3.2,14.6,0.7,11.6,1,7.4c0.4-4,3.6-6.7,7.6-6.4c3.8,0.3,5.3,2.3,5.8,3.5
			c0.8,1.7,0.6,3.9-0.4,5.4c-0.8,1.1-1.9,1.7-3.1,1.6c-0.6-0.1-1.1-0.4-1.4-0.8c-0.1-0.1-0.1-0.2-0.2-0.3c-0.8,0.6-1.8,1-3.1,0.8
			C5.2,11,4.4,10.3,4,9.2c-0.4-1.3,0-2.9,1.1-3.8C5.9,4.6,7.7,3.6,11,4.8c0.4,0.1,0.6,0.5,0.5,0.9C11.3,6.3,11.1,7,11,7.5
			c0,0,0,0,0,0.1c0,0.1,0,0.1,0,0.2c-0.1,0.7-0.2,1.2-0.2,1.2c-0.1,0.6,0,0.9,0,1c0,0,0.1,0.1,0.3,0.2c0.9,0.1,1.4-0.6,1.7-1
			c0.6-0.9,1-2.5,0.3-3.9c-0.5-1.1-1.7-2.4-4.6-2.6c-3.2-0.3-5.7,1.8-6,5c-0.3,3.4,1.6,5.7,5,6c1.2,0.1,2.3-0.1,3.2-0.5
			c0.4-0.2,0.8,0,1,0.3c0.2,0.4,0,0.8-0.3,1C10.5,14.8,9.4,15,8.2,15z M8.3,5.7C7.4,5.7,6.7,6,6.2,6.5C5.4,7.2,5.3,8.1,5.5,8.8
			c0.1,0.4,0.4,0.8,1,1c2.1,0.4,2.8-1.6,3-2.3C9.6,7,9.7,6.5,9.8,6C9.3,5.8,8.7,5.7,8.3,5.7z"/>
	</g>
</g>
<g id="downloads">
	<rect id="space_821_" style="fill:none;" width="16" height="16"/>
	<g>
		<path d="M13,14H3v-2h10V14z M8,11.4L3.3,6.7l1.4-1.4L7,7.6V1h2v6.6l2.3-2.3l1.4,1.4L8,11.4z"/>
	</g>
</g>
<g id="bookmark-wire">
	<rect id="space_639_" style="fill:none;" width="16" height="16"/>
	<polygon points="13,0 13,0 13,16 8,11 3,16 3,0 4,0 4,13.6 8,9.6 12,13.6 12,0 	"/>
</g>
<g id="heavy-tick">
	<rect style="fill:none;" width="16" height="16"/>
	<polygon points="6,12.4 2.3,8.7 3.7,7.3 6,9.6 11.3,4.3 12.7,5.7 	"/>
</g>
<g id="exclamation-mark">
	<rect id="space_814_" style="fill:none;" width="16" height="16"/>
	<path style="fill-rule:evenodd;clip-rule:evenodd;" d="M8,11L8,11c-0.8,0-1.5-0.7-1.6-1.5L6.1,3C6,1.9,6.9,1,8,1h0
		c1.1,0,2,0.9,1.9,2L9.6,9.5C9.5,10.3,8.8,11,8,11z M8.5,12h-1C6.7,12,6,12.7,6,13.5v0C6,14.3,6.7,15,7.5,15h1
		c0.8,0,1.5-0.7,1.5-1.5v0C10,12.7,9.3,12,8.5,12z"/>
</g>
<g id="menu">
	<rect id="space" style="fill:none;" width="16" height="16"/>
	<path d="M14,9H2V7h12V9z M14,4H2v2h12V4z M14,10H2v2h12V10z"/>
</g>
<g id="filter">
	<rect id="space_828_" style="fill:none;" width="16" height="16"/>
	<g>
		<polygon points="7,14 5,14 5,8.9 0.7,3.6 1.5,2 14.5,2 15.3,3.6 11,8.9 11,12 9,12 9,8.1 12.4,4 3.6,4 7,8.1 		"/>
	</g>
</g>
<g id="forward">
	<rect id="space_653_" style="fill:none;" width="16" height="16"/>
	<polygon id="XMLID_321_" points="3.5,7 8.5,2 13.5,7 10.2,7 8.5,14.3 6.8,7 	"/>
</g>
<g id="reply">
	<rect id="space_667_" style="fill:none;" width="16" height="16"/>
	<path d="M14.3,12.5C13.7,8.7,10.8,5.8,7,5.2V2.5l-5,5l5,5V9.2C10,9.2,12.8,9.9,14.3,12.5z"/>
</g>
<g id="ask">
	<rect id="space_25_" style="fill:none;" width="16" height="16"/>
	<path d="M15,8c0,3.9-3.1,7-7,7s-7-3.1-7-7s3.1-7,7-7S15,4.1,15,8z M8.4,9.3V9c0-0.2,0-0.4,0.1-0.5c0.1-0.1,0.3-0.3,0.7-0.6
		c0.5-0.4,0.8-0.7,1-1s0.3-0.6,0.3-1c0-0.6-0.2-1.1-0.7-1.4c-0.4-0.4-1-0.5-1.8-0.5c-0.9,0-1.7,0.2-2.5,0.7l0.6,1.2
		c0.7-0.4,1.3-0.5,1.8-0.5c0.3,0,0.5,0.1,0.7,0.2C8.8,5.6,8.9,5.7,8.9,6c0,0.2-0.1,0.4-0.2,0.6C8.6,6.7,8.4,6.9,8,7.2
		C7.6,7.5,7.3,7.8,7.2,8C7,8.3,7,8.6,7,8.9v0.4H8.4z M7,11.8c0.2,0.2,0.4,0.2,0.7,0.2c0.3,0,0.5-0.1,0.7-0.2s0.2-0.4,0.2-0.7
		c0-0.3-0.1-0.5-0.2-0.7c-0.2-0.2-0.4-0.2-0.7-0.2c-0.3,0-0.5,0.1-0.7,0.2c-0.2,0.2-0.2,0.4-0.2,0.7C6.8,11.4,6.9,11.7,7,11.8z"/>
</g>
<g id="xcross">
	<rect id="space_8_" style="fill:none;" width="16" height="16"/>
	<polygon points="4.5,3.1 3.1,4.5 6.6,8 3.1,11.5 4.5,12.9 8,9.4 11.5,12.9 12.9,11.5 9.4,8 12.9,4.5 11.5,3.1 8,6.6 	"/>
</g>
<g id="comments">
	<rect id="space_391_" style="fill:none;" width="16" height="16"/>
	<path style="opacity:0.5;fill-rule:evenodd;clip-rule:evenodd;" d="M0,7.5L0,1l3,3h6.5c1.4,0,2.6,0.8,3.2,2H6.5C4,6,2,8,2,10.5
		c0,0,0,0.1,0,0.2C0.8,10.1,0,8.9,0,7.5z"/>
	<path style="fill-rule:evenodd;clip-rule:evenodd;" d="M6.5,14h6c1.9,0,3.5-1.6,3.5-3.5V4l-3,3H6.5C5.5,7,4.7,7.4,4,8
		c-0.6,0.6-1,1.5-1,2.5C3,12.4,4.6,14,6.5,14z M7.5,10.5c0,0.6-0.4,1-1,1s-1-0.4-1-1s0.4-1,1-1S7.5,9.9,7.5,10.5z M10.5,10.5
		c0,0.6-0.4,1-1,1s-1-0.4-1-1s0.4-1,1-1S10.5,9.9,10.5,10.5z M13.5,10.5c0,0.6-0.4,1-1,1s-1-0.4-1-1s0.4-1,1-1S13.5,9.9,13.5,10.5z"
		/>
</g>
<g id="hourglass">
	<rect id="space_263_" style="fill:none;" width="16" height="16"/>
	<g style="opacity:0.1;">
		<path d="M12,12v2H4v-2c0-0.8,0.3-1.5,0.8-2.1L6,8.7V7.3L4.8,6.1C4.5,5.8,4.3,5.4,4.2,5h7.6c-0.1,0.4-0.4,0.8-0.6,1.1L10,7.3v1.4
			l1.2,1.2C11.7,10.5,12,11.2,12,12z"/>
	</g>
	<path d="M11.2,6.1C11.7,5.5,12,4.8,12,4V3h1V2c0-0.6-0.4-1-1-1H4C3.4,1,3,1.4,3,2v1h1v1c0,0.8,0.3,1.5,0.8,2.1L6,7.3v1.4L4.8,9.9
		C4.3,10.5,4,11.2,4,12v1H3v1c0,0.6,0.4,1,1,1h8c0.6,0,1-0.4,1-1v-1h-1v-1c0-0.8-0.3-1.5-0.8-2.1L10,8.7V7.3L11.2,6.1z M9.3,9.4
		l1.2,1.2C10.8,11,11,11.5,11,12v1H5v-1c0-0.5,0.2-1,0.6-1.4l1.2-1.2L7,9.1V6.9L6.7,6.6L5.6,5.4C5.2,5,5,4.5,5,4V3h6v1
		c0,0.5-0.2,1-0.6,1.4L9.3,6.6L9,6.9v2.2L9.3,9.4z"/>
</g>
<g id="device-phone">
	<rect id="space_538_" style="fill:none;" width="16" height="16"/>
	<path d="M12,15H4c-0.6,0-1-0.4-1-1V2c0-0.6,0.4-1,1-1h8c0.6,0,1,0.4,1,1v12C13,14.6,12.6,15,12,15z M11,3H5v8h6V3z M8,12
		c-0.6,0-1,0.4-1,1s0.4,1,1,1s1-0.4,1-1S8.6,12,8,12z"/>
</g>
<g id="lock">
	<rect id="space_546_" style="fill:none;" width="16" height="16"/>
	<path d="M13,6h-1V5c0-2.2-1.8-4-4-4S4,2.8,4,5v1H3C2.4,6,2,6.4,2,7v6c0,1.1,0.9,2,2,2h8c1.1,0,2-0.9,2-2V7C14,6.4,13.6,6,13,6z
		 M6,5c0-1.1,0.9-2,2-2s2,0.9,2,2v1H6V5z M9,13H7V9h2V13z"/>
</g>
<g id="bookmark">
	<rect id="space_632_" style="fill:none;" width="16" height="16"/>
	<polygon points="13,16 8,11 3,16 3,0 13,0 	"/>
</g>
<g id="open-message">
	<rect id="space_594_" style="fill:none;" width="16" height="16"/>
	<path style="fill-rule:evenodd;clip-rule:evenodd;" d="M1.9,4.7L8,1.9l6.1,2.9C14.7,5,15,5.5,15,6.1v6.4c0,0.8-0.7,1.5-1.5,1.5h-11
		C1.7,14,1,13.3,1,12.5V6.1C1,5.5,1.3,5,1.9,4.7z M2.5,6.1L8,3.5l5.5,2.6v1.7L8,10.3L2.5,7.8V6.1z"/>
</g>
<g id="log">
	<rect id="space_1122_" style="fill:none;" width="16" height="16"/>
	<path style="fill-rule:evenodd;clip-rule:evenodd;" d="M13.2,1c0,0.7-0.2,1.2-1.2,1.2S10.8,1.7,10.8,1H9.2C9.2,1.7,9,2.2,8,2.2
		S6.8,1.7,6.8,1H5.2C5.2,1.7,5,2.2,4,2.2S2.8,1.7,2.8,1H2v15h0.8c0-0.7,0.2-1.2,1.2-1.2s1.2,0.6,1.2,1.2h1.5c0-0.7,0.2-1.2,1.2-1.2
		s1.2,0.6,1.2,1.2h1.5c0-0.7,0.2-1.2,1.2-1.2s1.2,0.6,1.2,1.2H14V1H13.2z M11.5,12h-7C4.2,12,4,11.8,4,11.5C4,11.2,4.2,11,4.5,11h7
		c0.3,0,0.5,0.2,0.5,0.5C12,11.8,11.8,12,11.5,12z M11.5,9h-7C4.2,9,4,8.8,4,8.5C4,8.2,4.2,8,4.5,8h7C11.8,8,12,8.2,12,8.5
		C12,8.8,11.8,9,11.5,9z M11.5,6h-7C4.2,6,4,5.8,4,5.5C4,5.2,4.2,5,4.5,5h7C11.8,5,12,5.2,12,5.5C12,5.8,11.8,6,11.5,6z"/>
</g>
<g id="roll">
	<rect id="space_989_" x="0" style="fill:none;" width="16" height="16"/>
	<g>
		<path style="opacity:0.4;" d="M14.5,1H8C5.8,1,4,2.8,4,5v7l-2.5,3H8c2.2,0,4-1.8,4-4V4L14.5,1z"/>
		<g>
			<path d="M4,12.5C4,13.9,2.9,15,1.5,15h0C0.7,15,0,14.3,0,13.5L0,12h4V12.5z M12,4h4V2.5C16,1.7,15.3,1,14.5,1h0
				C13.1,1,12,2.1,12,3.5V4z"/>
		</g>
	</g>
</g>
<g id="bell">
	<rect id="space_287_" style="fill:none;" width="16" height="16"/>
	<path d="M14,11v1H2v-1l2-2V5c0-2.2,1.8-4,4-4h0c2.2,0,4,1.8,4,4v4L14,11z M6.2,13c0,1,0.8,1.8,1.8,1.8S9.8,14,9.8,13H6.2z"/>
</g>
<g id="nested3d">
	<g>
		<g>
			<path d="M15,9.7V6.4c0-0.8-0.4-1.6-1.2-2L8,1L2.2,4.4C1.4,4.8,1,5.6,1,6.4v3.3C1,16.8,15,16.8,15,9.7z M8,9.8L2.2,6.4
				c0-0.4,0.2-0.8,0.6-1l5.2-3l5.2,3c0.4,0.2,0.6,0.6,0.6,1L8,9.8z"/>
		</g>
		
			<radialGradient id="SVGID_2_" cx="7.9998" cy="9.7414" r="6.9932" gradientTransform="matrix(-1 0 0 -0.75 15.9996 17.0474)" gradientUnits="userSpaceOnUse">
			<stop  offset="0" style="stop-color:#000000"/>
			<stop  offset="1" style="stop-color:#000000;stop-opacity:0"/>
		</radialGradient>
		<path style="fill:url(#SVGID_2_);" d="M8,9.8l6.9-4C15,6,15,6.2,15,6.4v3.3c0,3.5-3.5,5.3-7,5.3V9.8z"/>
	</g>
	<rect id="space_10_" style="fill:none;" width="16" height="16"/>
</g>
<g id="replace">
	<rect id="space_1325_" style="fill:none;" width="16" height="16"/>
	<path d="M5.3,15.7L1.6,12l3.7-3.7l1.4,1.4L5.4,11H11c0.6,0,1-0.4,1-1V8h2v2c0,1.7-1.3,3-3,3H5.4l1.3,1.3L5.3,15.7z M4,8H2V6
		c0-1.7,1.3-3,3-3h5.6L9.3,1.7l1.4-1.4L14.4,4l-3.7,3.7L9.3,6.3L10.6,5H5C4.4,5,4,5.4,4,6V8z"/>
</g>
<g id="square-clock">
	<rect id="space_321_" style="fill:none;" width="16" height="16"/>
	<g>
		<path d="M13,15H3c-1.1,0-2-0.9-2-2V3c0-1.1,0.9-2,2-2h10c1.1,0,2,0.9,2,2v10C15,14.1,14.1,15,13,15z M11.7,10.3L9,7.6V3H7v5.4
			l3.3,3.3L11.7,10.3z"/>
	</g>
</g>
<g id="square-clock-wire">
	<rect id="space_314_" style="fill:none;" width="16" height="16"/>
	<path d="M13.5,15h-11C1.7,15,1,14.3,1,13.5v-11C1,1.7,1.7,1,2.5,1h11C14.3,1,15,1.7,15,2.5v11C15,14.3,14.3,15,13.5,15z M13.5,13.5
		v0.8V13.5C13.5,13.5,13.5,13.5,13.5,13.5z M2.5,2.5v11h11l0-11H2.5z M9.5,11L7.2,8.8V4h1.5v4.2l1.8,1.8L9.5,11z"/>
</g>
<g id="tag-wire">
	<rect id="space_328_" style="fill:none;" width="16" height="16"/>
	<path d="M13,2c0.6,0,1,0.4,1,1v4.2c0,0.3-0.1,0.5-0.3,0.7l-6,6c-0.2,0.2-0.4,0.3-0.7,0.3c-0.3,0-0.5-0.1-0.7-0.3L2.1,9.7
		C1.9,9.5,1.8,9.3,1.8,9s0.1-0.5,0.3-0.7l6-6C8.3,2.1,8.6,2,8.8,2H13 M13,1H8.8c-0.5,0-1,0.2-1.4,0.6l-6,6c-0.8,0.8-0.8,2,0,2.8
		l4.2,4.2C6,15,6.5,15.2,7,15.2s1-0.2,1.4-0.6l6-6C14.8,8.2,15,7.7,15,7.2V3C15,1.9,14.1,1,13,1L13,1z M11,4c0.5,0,1,0.5,1,1
		c0,0.6-0.4,1-1,1c-0.6,0-1-0.5-1-1C10,4.5,10.5,4,11,4 M11,3C9.9,3,9,3.9,9,5c0,1.1,0.9,2,2,2c1.1,0,2-0.9,2-2C13,3.9,12.1,3,11,3
		L11,3z"/>
</g>
<g id="bookmark-sign-wire">
	<rect id="space_625_" style="fill:none;" width="16" height="16"/>
	<path d="M11,2c0.6,0,1,0.4,1,1v9.6L8.7,9.3L8,8.6L7.3,9.3L4,12.6V3c0-0.6,0.4-1,1-1H11 M11,1H5C3.9,1,3,1.9,3,3v12l5-5l5,5V3
		C13,1.9,12.1,1,11,1L11,1z"/>
</g>
<g id="bookmark-sign">
	<rect id="space_618_" style="fill:none;" width="16" height="16"/>
	<path d="M13,15l-5-5l-5,5V3c0-1.1,0.9-2,2-2h6c1.1,0,2,0.9,2,2V15z"/>
</g>
<g id="circle">
	<rect id="space_442_" style="fill:none;" width="16" height="16"/>
	<circle cx="8" cy="8" r="5"/>
</g>
<g id="hole">
	<rect id="space_1402_" style="fill:none;" width="16" height="16"/>
	<path d="M9,9.5H8c-0.6,0-1-0.4-1-1v-1c0-0.6,0.4-1,1-1h1c0.6,0,1,0.4,1,1v1C10,9.1,9.6,9.5,9,9.5z"/>
</g>
<g id="pencil">
	<rect style="fill:none;" width="16" height="16"/>
	<path d="M11.3,7.7L7,12c-2,2-3,3-6,3c0-3,1-4,3-6l4.3-4.3L11.3,7.7z M13.7,2.3c-0.8-0.8-2.2-0.8-3,0l-1,1l3,3l1-1
		C14.5,4.5,14.5,3.2,13.7,2.3z"/>
</g>
<g id="star">
	<rect style="fill:none;" width="16" height="16"/>
	<polygon points="10.6,9.1 15,6 9.6,6 8,0.9 6.3,6 1,6 5.3,9.1 3.6,14.2 8,11.1 12.3,14.2 	"/>
</g>
<g id="pause">
	<rect id="space_961_" style="fill:none;" width="16" height="16"/>
	<path d="M3,3h3v10H3V3z M10,3v10h3V3H10z"/>
</g>
<g id="play">
	<rect id="space_954_" style="fill:none;" width="16" height="16"/>
	<polygon points="5.3,12.5 13.3,8 5.3,3.5 	"/>
</g>
<g id="player-next">
	<rect id="space_933_" style="fill:none;" width="16" height="16"/>
	<path d="M13,3h-3v10h3V3z M11.7,8L3,3v10L11.7,8"/>
</g>
<g id="player-back">
	<rect id="space_926_" style="fill:none;" width="16" height="16"/>
	<path d="M3,13h3V3H3V13z M4.3,8l8.7,5V3L4.3,8"/>
</g>
<g id="file">
	<rect id="space_1115_" style="fill:none;" width="16" height="16"/>
	<path style="fill-rule:evenodd;clip-rule:evenodd;" d="M13,5v8.5c0,0.8-0.7,1.5-1.5,1.5h-7C3.7,15,3,14.3,3,13.5v-11
		C3,1.7,3.7,1,4.5,1H9L13,5z M9,2.4V5h2.6L9,2.4z"/>
</g>
<g id="exchange">
	<rect id="space_1478_" style="fill:none;" width="16" height="16"/>
	<g>
		<path d="M5.3,14.7L1.6,11l3.7-3.7l1.4,1.4L5.4,10H13v2H5.4l1.3,1.3L5.3,14.7z M10.7,8.7L9.3,7.3L10.6,6H3V4h7.6L9.3,2.7l1.4-1.4
			L14.4,5L10.7,8.7z"/>
	</g>
</g>
<g id="preferences">
	<rect id="space_1485_" style="fill:none;" width="16" height="16"/>
	<g>
		<path d="M10,11c0,0.7-0.4,1.2-1,1.4V13H8v-0.6c-0.6-0.2-1-0.8-1-1.4c0-0.6,0.4-1.2,1-1.4V3h1v6.6C9.6,9.8,10,10.4,10,11z"/>
		<path d="M6,7c0,0.7-0.4,1.2-1,1.4V13H4V8.4C3.4,8.2,3,7.6,3,7c0-0.6,0.4-1.2,1-1.4V3h1v2.6C5.6,5.8,6,6.4,6,7z"/>
		<path d="M14,5c0,0.7-0.4,1.2-1,1.4V13h-1V6.4c-0.6-0.2-1-0.8-1-1.4c0-0.6,0.4-1.2,1-1.4V3h1v0.6C13.6,3.8,14,4.4,14,5z"/>
	</g>
</g>
<g id="place-members">
	<rect id="space_1108_" style="fill:none;" width="16" height="16"/>
	<path style="fill-rule:evenodd;clip-rule:evenodd;" d="M12.7,3h-2.4C9.9,2.1,9,1.5,8,1.5S6.1,2.1,5.7,3H3.3C2.6,3,2,3.6,2,4.3v9.3
		C2,14.4,2.6,15,3.3,15h9.3c0.7,0,1.3-0.6,1.3-1.3V4.3C14,3.6,13.4,3,12.7,3z M8,3c0.6,0,1,0.4,1,1c0,0.6-0.4,1-1,1S7,4.6,7,4
		C7,3.4,7.4,3,8,3z M8,5.5c1.4,0,2.5,1.1,2.5,2.5c0,1.4-1.1,2.5-2.5,2.5S5.5,9.4,5.5,8C5.5,6.6,6.6,5.5,8,5.5z M11,14H5v-0.5
		C5,12.7,5.7,12,6.5,12h3c0.8,0,1.5,0.7,1.5,1.5V14z"/>
</g>
<g id="info">
	<rect id="space_1443_" style="fill:none;" width="16" height="16"/>
	<g>
		<path style="fill-rule:evenodd;clip-rule:evenodd;" d="M15.5,8c0,4.1-3.4,7.5-7.5,7.5S0.5,12.1,0.5,8S3.9,0.5,8,0.5
			S15.5,3.9,15.5,8z M6,7h3v4l1,1H6l1-1V8L6,7z M8,6c0.6,0,1-0.4,1-1S8.6,4,8,4S7,4.4,7,5S7.4,6,8,6z"/>
	</g>
</g>
<g id="info-wire_1_">
	<rect id="space_1450_" style="fill:none;" width="16" height="16"/>
	<path d="M8,1.5c3.6,0,6.5,2.9,6.5,6.5s-2.9,6.5-6.5,6.5S1.5,11.6,1.5,8S4.4,1.5,8,1.5 M8,0.5C3.9,0.5,0.5,3.9,0.5,8
		s3.4,7.5,7.5,7.5s7.5-3.4,7.5-7.5S12.1,0.5,8,0.5L8,0.5z M6,7h3v4l1,1H6l1-1V8L6,7z M8,6c0.6,0,1-0.4,1-1S8.6,4,8,4S7,4.4,7,5
		S7.4,6,8,6z"/>
</g>
<g id="card-view">
	<rect id="space_1464_" style="fill:none;" width="16" height="16"/>
	<g>
		<path d="M12.5,13h-9C2.7,13,2,12.3,2,11.5v-7C2,3.7,2.7,3,3.5,3h9C13.3,3,14,3.7,14,4.5v7C14,12.3,13.3,13,12.5,13z"/>
	</g>
</g>
<g id="list-view">
	<rect id="space_1457_" style="fill:none;" width="16" height="16"/>
	<g>
		<path d="M13.5,7h-11C2.2,7,2,6.8,2,6.5v-3C2,3.2,2.2,3,2.5,3h11C13.8,3,14,3.2,14,3.5v3C14,6.8,13.8,7,13.5,7z M14,12.5v-3
			C14,9.2,13.8,9,13.5,9h-11C2.2,9,2,9.2,2,9.5v3C2,12.8,2.2,13,2.5,13h11C13.8,13,14,12.8,14,12.5z"/>
	</g>
</g>
<g id="double-check">
	<rect id="space_1471_" style="fill:none;" width="16" height="16"/>
	<g>
		<polygon points="9,12.1 6.5,9.6 4,12.1 0.5,8.5 1.5,7.5 4,9.9 9.5,4.5 10.5,5.5 7.6,8.5 9,9.9 14.5,4.5 15.5,5.5 		"/>
	</g>
</g>
<g id="tag">
	<rect id="space_335_" style="fill:none;" width="16" height="16"/>
	<g>
		<g>
			<path d="M6.9,2.6l-5,5c-0.8,0.8-0.8,2,0,2.8l3.7,3.7c0.8,0.8,2,0.8,2.8,0l5-5C13.8,8.7,14,8.2,14,7.7V4c0-1.1-0.9-2-2-2H8.3
				C7.8,2,7.3,2.2,6.9,2.6z M10,8C8.9,8,8,7.1,8,6c0-1.1,0.9-2,2-2c1.1,0,2,0.9,2,2C12,7.1,11.1,8,10,8z"/>
		</g>
	</g>
</g>
</svg>
