<svg id="icons" xmlns="http://www.w3.org/2000/svg" xmlns:xlink="http://www.w3.org/1999/xlink" viewBox="0 0 20 20">
  <defs>
    <linearGradient id="linear-gradient" x1="10" y1="15" x2="10" y2="4" gradientUnits="userSpaceOnUse">
      <stop offset="0" stop-color="#fff"/>
      <stop offset="1"/>
    </linearGradient>
  </defs>
  <title>____</title>
  <g id="cross">
    <rect id="empty16" width="20" height="20" style="fill: none"/>
    <polygon points="17 9 17 11 11 11 11 17 9 17 9 11 3 11 3 9 9 9 9 3 11 3 11 9 17 9"/>
  </g>
  <g id="Wre">
    <rect id="empty20" width="20" height="20" style="fill: none"/>
    <path d="M10,17.46,1.92,9.38,10,1.29V6.7a8.57,8.57,0,0,1,8.25,8.73v1.88h-1V15.44c0-3.11-4.73-3.63-7.25-3.68ZM3.33,9.38,9,15V10.75h.5c1.8,0,5.24.21,7.23,1.71A7.84,7.84,0,0,0,9.5,7.69H9v-4Z"/>
  </g>
  <g id="Wfwd">
    <rect id="empty20-2" data-name="empty20" width="20" height="20" style="fill: none"/>
    <path id="_Compound_Path_" data-name="&lt;Compound Path&gt;" d="M10.51,1.92,2.41,10h5.5L10,19h1l2.1-9h5.5ZM12.29,9l-1.79,8.17L8.71,9H4.84l5.67-5.67L16.16,9Z"/>
  </g>
  <g id="Wmore">
    <rect id="empty20-3" data-name="empty20" width="20" height="20" style="fill: none"/>
    <path d="M10,12.5A2.5,2.5,0,1,1,12.5,10,2.5,2.5,0,0,1,10,12.5Zm0-4A1.5,1.5,0,1,0,11.5,10,1.5,1.5,0,0,0,10,8.5Zm0-2A2.5,2.5,0,1,1,12.5,4,2.5,2.5,0,0,1,10,6.5Zm0-4A1.5,1.5,0,1,0,11.5,4,1.5,1.5,0,0,0,10,2.5Zm0,16A2.5,2.5,0,1,1,12.5,16,2.5,2.5,0,0,1,10,18.5Zm0-4A1.5,1.5,0,1,0,11.5,16,1.5,1.5,0,0,0,10,14.5Z"/>
  </g>
  <g id="closedplace">
    <rect id="empty16-2" data-name="empty16" width="20" height="20" style="fill: none"/>
    <path d="M1,3V16a1,1,0,0,0,1,1H18a1,1,0,0,0,1-1V3a1,1,0,0,0-1-1H2A1,1,0,0,0,1,3ZM3,4h7V7H3Zm10,7H7V8h6ZM3,8H6v3H3Zm0,7V12H9v3Zm14,0H10V12h7Zm0-4H14V8h3Zm0-4H11V4h6Z"/>
  </g>
  <g id="openplace">
    <rect x="3" y="4" width="14" height="11" style="opacity: 0.2;fill: url(#linear-gradient)"/>
    <rect id="empty16-3" data-name="empty16" width="20" height="20" style="fill: none"/>
    <path d="M1,3V16a1,1,0,0,0,1,1H18a1,1,0,0,0,1-1V3a1,1,0,0,0-1-1H2A1,1,0,0,0,1,3ZM3,4H17V15H3Z"/>
    <line x1="15.91" y1="5.06" x2="12" y2="9" style="fill: none;stroke: #000;stroke-miterlimit: 10;stroke-width: 0.25px"/>
    <line x1="15.91" y1="8.06" x2="12" y2="12" style="fill: none;stroke: #000;stroke-miterlimit: 10;stroke-width: 0.25px"/>
  </g>
  <g id="everyone">
    <rect width="20" height="20" style="fill: none"/>
    <path d="M10,3.5A6.5,6.5,0,1,1,3.5,10,6.51,6.51,0,0,1,10,3.5m0-1A7.5,7.5,0,1,0,17.5,10,7.5,7.5,0,0,0,10,2.5Z"/>
    <path d="M12.8,11.4c0-.2-.09-.4-.14-.61a3.81,3.81,0,0,0-1.11-.42,4.69,4.69,0,0,1-1-.48.77.77,0,0,0-.72-.77.63.63,0,0,1-.24,0c-.07,0-.12-.14-.07-.2A.44.44,0,0,1,9,8.66.24.24,0,0,0,9,8.55l-.12,0L7.78,8.44c-.35,0-.8,0-.9.34l-.29-.2-.22.11a.89.89,0,0,1,0-.78.54.54,0,0,0-.4-.17A.72.72,0,0,1,6,7.43a.38.38,0,0,0,.06-.32c0-.11-.22-.14-.27,0s0,.08,0,.11a.22.22,0,0,1-.35.07.44.44,0,0,1-.09-.4A1.14,1.14,0,0,1,6.5,6.09c.14,0,.33.06.33.19,0,0,0,0,0-.05A.41.41,0,0,0,7,6.42a2.94,2.94,0,0,0,.21-1,.9.9,0,0,0,1-.68c.38.06.62-.58,1-.5A.58.58,0,0,0,8.62,4L10,3.75a.75.75,0,0,1-.21.32l.62-.16a.43.43,0,0,0-.2-.11.37.37,0,0,0,0-.29H10A6.48,6.48,0,0,0,4.21,7c.27,0,.58-.08.56,0s-.08.43.08.55a.54.54,0,0,0,.22.09,1.5,1.5,0,0,1,.84.6,4.09,4.09,0,0,0,.28.44.42.42,0,0,0,.46.15s0-.1,0-.15.13,0,.16.08c.21.5-.39,1-.39,1.55s.32.72.45,1.1a2.16,2.16,0,0,0,.15.45c.15.26.47.36.69.57a2,2,0,0,1,.37,1.36,6.13,6.13,0,0,0,.47,1.93,1.5,1.5,0,0,0,.34.55.6.6,0,0,0,.15.09.55.55,0,0,0,.43.06h0a.38.38,0,0,0-.3-.23.87.87,0,0,1,.06-.32l-.17-.1a.84.84,0,0,0,.08-.56c.29-.09.62-.21.73-.49a1,1,0,0,0,.63-.55,2.11,2.11,0,0,1,.46-.73c.34-.3.94-.35,1.07-.78a3.29,3.29,0,0,0,.05-.44.75.75,0,0,1,.51-.59.32.32,0,0,0,.19-.1A.28.28,0,0,0,12.8,11.4Zm2.72,1.95a.31.31,0,0,1,0,.1A6.5,6.5,0,0,0,13,4.21c-.08,0-.1.06-.17.21a5.49,5.49,0,0,0-.37.57c-.06.18,0,.23,0,.42a1.07,1.07,0,0,1-.31.57c0,.17.18.38.21.52s0,.21,0,.26.19.17.3.29c-.29.35-.06.76.21,1.07s.47.36.65.59c0,.06,0,.14,0,.2s.22.2.31.32c.34-.13.21-.15.6,0,.12-.13.4-.38.62-.36s.32.36.67.38A10.74,10.74,0,0,1,15.91,12C15.83,12.5,15.54,12.82,15.52,13.35Z"/>
  </g>
  <g id="manager">
    <rect id="empty16-4" data-name="empty16" width="20" height="20" style="fill: none"/>
    <path d="M9,14v4H8V9a1,1,0,0,0-1,1v3H6V10A2,2,0,0,1,8,8h4a2,2,0,0,1,2,2v3H13V10a1,1,0,0,0-1-1h0v9H11V14a1,1,0,0,0-2,0Zm3.11-9.75.36-2.75L11,3,10,1.5,9,3,7.52,1.5l.36,2.75ZM8,4.75,8,5.26a2,2,0,0,0,4,0L12,4.75Z"/>
  </g>
  <g id="member">
    <rect id="empty16-5" data-name="empty16" width="20" height="20" style="fill: none"/>
    <path d="M9,14v4H8V9a1,1,0,0,0-1,1v3H6V10A2,2,0,0,1,8,8h4a2,2,0,0,1,2,2v3H13V10a1,1,0,0,0-1-1h0v9H11V14a1,1,0,0,0-2,0ZM10,3a2,2,0,1,0,2,2A2,2,0,0,0,10,3Z"/>
  </g>
  <g id="manager_member" data-name="manager&amp;member">
    <rect id="empty16-6" data-name="empty16" width="20" height="20" style="fill: none"/>
    <polygon points="9.12 4.25 9.48 1.5 8 3 7 1.5 6 3 4.52 1.5 4.88 4.25 9.12 4.25"/>
    <path d="M5,4.75,5,5.26a2,2,0,0,0,4,0L9,4.75Z"/>
    <path d="M9,9v9H8V14a1,1,0,0,0-2,0v4H5V9a1,1,0,0,0-1,1v3H3V10A2,2,0,0,1,5,8H15a2,2,0,0,1,2,2v3H16V10a1,1,0,0,0-1-1h0v9H14V14a1,1,0,0,0-2,0v4H11V9Z"/>
    <circle cx="13" cy="5" r="2"/>
  </g>
  <g id="team">
    <rect id="empty16-7" data-name="empty16" width="20" height="20" style="fill: none"/>
    <path d="M6,9v9H5V14a1,1,0,0,0-2,0v4H2V9a1,1,0,0,0-1,1v3H0V10A2,2,0,0,1,2,8H18a2,2,0,0,1,2,2v3H19V10a1,1,0,0,0-1-1h0v9H17V14a1,1,0,0,0-2,0v4H14V9H12v9H11V14a1,1,0,0,0-2,0v4H8V9Z"/>
    <circle cx="10" cy="5" r="2"/>
    <circle cx="4" cy="5" r="2"/>
    <circle cx="16" cy="5" r="2"/>
  </g>
</svg>
