<svg xmlns="http://www.w3.org/2000/svg" viewBox="0 0 32 32">
  <title>nst</title>
  <g id="icn32">
    <g id="compose">
      <rect id="space" width="32" height="32" style="fill: none"/>
      <path d="M24,25H8a1,1,0,0,1-1-1V8A1,1,0,0,1,8,7h6V8H8V24H24V19h1v5A1,1,0,0,1,24,25ZM12,20a9.84,9.84,0,0,1,3.15-7.85l9-9a3.33,3.33,0,0,1,4.71,4.71l-9,9A9.86,9.86,0,0,1,12,20ZM22.5,6.21l-6.65,6.65A8.68,8.68,0,0,0,13,19a8.68,8.68,0,0,0,6.14-2.84L25.79,9.5Zm.71-.71L26.5,8.79l1.65-1.65a2.33,2.33,0,0,0-3.29-3.29Z" style="fill: #323d47"/>
    </g>
    <g id="more">
      <rect id="space-2" data-name="space" x="8" width="16" height="32" style="fill: none"/>
      <path d="M19,16a3,3,0,1,1-3-3A3,3,0,0,1,19,16Zm-3,5a3,3,0,1,0,3,3A3,3,0,0,0,16,21ZM16,5a3,3,0,1,0,3,3A3,3,0,0,0,16,5Z" style="fill: #323d47"/>
    </g>
    <g id="downloads">
      <rect id="space-3" data-name="space" width="32" height="32" style="fill: none"/>
      <path d="M27,28H5V24H27ZM16,22.83,6.59,13.41l2.83-2.83L14,15.17V3h4V15.17l4.59-4.59,2.83,2.83Z" style="fill: #323d47"/>
    </g>
    <g id="arrow">
      <rect id="space-4" data-name="space" width="32" height="32" style="fill: none"/>
      <g id="path">
        <polygon points="16 22.12 7.94 14.06 10.06 11.94 16 17.88 21.94 11.94 24.06 14.06 16 22.12" style="fill: #323d47"/>
      </g>
    </g>
    <g id="menu">
      <rect id="space-5" data-name="space" width="32" height="32" style="fill: none"/>
      <path d="M28,17H4V14H28ZM28,7H4v3H28Zm0,14H4v3H28Z" style="fill: #323d47"/>
    </g>
    <g id="filter">
      <rect width="32" height="32" style="fill: none"/>
      <polygon points="15 27.83 12 27.83 12 16.62 2.94 7.56 4 5 28 5 29.06 7.56 20 16.62 20 23 17 23 17 15.38 24.38 8 7.62 8 15 15.38 15 27.83" style="fill: #323d47"/>
    </g>
    <g id="cross">
      <rect id="space-6" data-name="space" width="32" height="32" style="fill: none"/>
      <polygon points="14 28 18 28 18 18 28 18 28 14 18 14 18 4 14 4 14 14 4 14 4 18 14 18 14 28" style="fill: #323d47"/>
    </g>
    <g id="search">
      <rect id="space-7" data-name="space" width="32" height="32" style="fill: none"/>
      <path d="M26.5,24.38l-6.17-6.17a9,9,0,1,0-2.12,2.12l6.17,6.17a1.5,1.5,0,0,0,2.12-2.12ZM13,19a6,6,0,1,1,6-6A6,6,0,0,1,13,19Z" style="fill: #323d47"/>
    </g>
    <g id="atsign">
      <rect id="space-8" data-name="space" width="32" height="32" style="fill: none"/>
      <path d="M16.42,30q-.8,0-1.63-.08A14,14,0,0,1,5,25.23,13.94,13.94,0,0,1,2.07,14.78,13.91,13.91,0,0,1,7.11,5,14.06,14.06,0,0,1,17.22,2.05c9.45.83,13.17,7,12.66,12.68-.44,5-4,8.73-8.08,8.36A3.91,3.91,0,0,1,19,21.5a3.79,3.79,0,0,1-.31-.55,7.41,7.41,0,0,1-6.21,1.51,5.51,5.51,0,0,1-4.43-4,7.77,7.77,0,0,1,2.18-7.68c1.57-1.48,5.17-3.61,11.66-1.24a1.5,1.5,0,0,1,.95,1.74c-.3,1.31-.59,2.63-.82,3.74l0,.12-.08.38c-.29,1.37-.48,2.32-.48,2.34-.28,1.29-.06,1.79,0,1.94s.17.25.66.32c2.59.21,4.47-2.69,4.73-5.65C27.24,10.56,24.85,5.74,17,5a11.1,11.1,0,0,0-8,2.3A10.79,10.79,0,0,0,5.05,15,11,11,0,0,0,7.3,23.3,11.08,11.08,0,0,0,15.06,27a11.82,11.82,0,0,0,6.48-1.08,1.5,1.5,0,0,1,1.35,2.68A14.18,14.18,0,0,1,16.42,30Zm.09-18.54A5.92,5.92,0,0,0,12.32,13,4.7,4.7,0,0,0,11,17.6,2.56,2.56,0,0,0,13,19.5c4.25.76,5.64-3.3,6-4.69.18-.84.39-1.83.62-2.87A11.74,11.74,0,0,0,16.51,11.48Z" style="fill: #323d47"/>
    </g>
  </g>
</svg>
