<svg xmlns="http://www.w3.org/2000/svg" viewBox="0 0 32 32">
  <title>WebIconExporter</title>
  <g id="icn32">
    <g id="compose">
      <rect id="space" width="32" height="32" style="fill: none"/>
      <path d="M23.5,28.5H3.5V8.5H13v2H5.5v16h16V20h2Zm-13-6h-1v-1a10.21,10.21,0,0,1,3.29-7.71l10-10a3.83,3.83,0,0,1,5.41,5.41l-10,10A10.21,10.21,0,0,1,10.5,22.5Zm11-14.59-7.29,7.29a8.26,8.26,0,0,0-2.66,5.24,8.26,8.26,0,0,0,5.24-2.66l7.29-7.29ZM22.91,6.5,25.5,9.09l1.29-1.29a1.83,1.83,0,0,0-2.59-2.59Z"/>
    </g>
    <g id="cross">
      <rect id="space-2" data-name="space" width="32" height="32" style="fill: none"/>
      <polygon points="14 26 18 26 18 18 26 18 26 14 18 14 18 6 14 6 14 14 6 14 6 18 14 18 14 26"/>
    </g>
    <g id="search">
      <rect id="space-3" data-name="space" width="32" height="32" style="fill: none"/>
      <path d="M13,22a9,9,0,1,1,9-9A9,9,0,0,1,13,22ZM13,7a6,6,0,1,0,6,6A6,6,0,0,0,13,7ZM27.56,25.44l-6-6-2.12,2.12,6,6Z"/>
    </g>
    <g id="downloads">
      <rect width="32" height="32" style="fill: none"/>
      <path d="M27,28H5V24H27ZM16,22.83,6.59,13.41l2.83-2.83L14,15.17V4h4V15.17l4.59-4.59,2.83,2.83Z"/>
    </g>
    <g id="menu">
      <rect id="space-4" data-name="space" width="32" height="32" style="fill: none"/>
      <path d="M28,17H4V14H28ZM28,7H4v3H28Zm0,14H4v3H28Z"/>
    </g>
    <g id="filter">
      <rect width="32" height="32" style="fill: none"/>
      <polygon points="15 27.83 12 27.83 12 16.62 2.94 7.56 4 5 28 5 29.06 7.56 20 16.62 20 23 17 23 17 15.38 24.38 8 7.62 8 15 15.38 15 27.83"/>
    </g>
    <g id="atsign">
      <rect width="32" height="32" style="fill: none"/>
      <path d="M16.42,30q-.8,0-1.63-.08C6.45,29.21,1.33,23.12,2.07,14.78A13.91,13.91,0,0,1,7.11,5,14.07,14.07,0,0,1,17.22,2.05c9.45.83,13.17,7,12.66,12.68-.44,5-4,8.73-8.08,8.36A3.91,3.91,0,0,1,19,21.5a3.79,3.79,0,0,1-.31-.55,7.39,7.39,0,0,1-6.21,1.51,5.51,5.51,0,0,1-4.43-4,7.77,7.77,0,0,1,2.18-7.68c1.57-1.48,5.17-3.61,11.66-1.24a1.5,1.5,0,0,1,.95,1.74c-.2.88-.4,1.77-.58,2.59L22,15.14l-.08.38c-.29,1.37-.48,2.32-.48,2.34-.28,1.29-.06,1.79,0,1.94s.17.25.66.32c2.6.21,4.47-2.69,4.73-5.65C27.24,10.56,24.85,5.74,17,5a11.11,11.11,0,0,0-8,2.3A10.79,10.79,0,0,0,5.05,15C4.46,21.8,8.29,26.36,15.06,27a11.78,11.78,0,0,0,6.48-1.08l1.34-.67,1.35,2.68-1.34.68A14.2,14.2,0,0,1,16.42,30Zm.09-18.54A5.92,5.92,0,0,0,12.32,13,4.7,4.7,0,0,0,11,17.6,2.56,2.56,0,0,0,13,19.5c4.24.76,5.64-3.3,6-4.69l.33-1.57,0-.19h0l.24-1.11A11.74,11.74,0,0,0,16.51,11.48Z"/>
    </g>
    <g id="arrow">
      <rect id="space-5" data-name="space" width="32" height="32" style="fill: none"/>
      <g id="path">
        <polygon points="16 22.12 7.94 14.06 10.06 11.94 16 17.88 21.94 11.94 24.06 14.06 16 22.12"/>
      </g>
    </g>
  </g>
</svg>
