<svg id="icn16" xmlns="http://www.w3.org/2000/svg" xmlns:xlink="http://www.w3.org/1999/xlink" viewBox="0 0 16 16">
  <defs>
    <linearGradient id="linear-gradient" x1="8" y1="12" x2="8" y2="4" gradientUnits="userSpaceOnUse">
      <stop offset="0" stop-color="#fff"/>
      <stop offset="1" stop-color="#323d47"/>
    </linearGradient>
    <radialGradient id="radial-gradient" cx="8" cy="9.74" r="6.99" gradientTransform="translate(16 17.05) rotate(180) scale(1 0.75)" gradientUnits="userSpaceOnUse">
      <stop offset="0" stop-color="#00b45a"/>
      <stop offset="0.22" stop-color="#00b45a" stop-opacity="0.71"/>
      <stop offset="0.49" stop-color="#00b45a" stop-opacity="0.41"/>
      <stop offset="0.71" stop-color="#00b45a" stop-opacity="0.19"/>
      <stop offset="0.89" stop-color="#00b45a" stop-opacity="0.05"/>
      <stop offset="1" stop-color="#00b45a" stop-opacity="0"/>
    </radialGradient>
  </defs>
  <title>nst</title>
  <g id="replied">
    <rect id="space" width="16" height="16" style="fill: none"/>
    <rect id="space-2" data-name="space" width="16" height="16" style="fill: none"/>
    <path d="M11.89,12.37C10.5,9.32,8.42,8,5,8h0L6.71,9.79a1,1,0,0,1-1.41,1.41l-3.5-3.5a1,1,0,0,1,0-1.41l3.5-3.5A1,1,0,0,1,6.71,4.21L4.9,6H5c4.26,0,7,1.77,8.75,5.53a1,1,0,1,1-1.82.83Z" style="fill: #323d47"/>
  </g>
  <g id="forwarded">
    <rect id="space-3" data-name="space" width="16" height="16" style="fill: none"/>
    <path d="M8,13.5a1,1,0,0,1-1-1V5.91L5.21,7.71A1,1,0,1,1,3.79,6.29l3.5-3.5a1,1,0,0,1,1.41,0l3.5,3.5a1,1,0,0,1-1.41,1.41L9,5.91V12.5A1,1,0,0,1,8,13.5Z" style="fill: #323d47"/>
  </g>
  <g id="retract">
    <rect id="space-4" data-name="space" width="16" height="16" style="fill: none"/>
    <path d="M10,5.42V4.5A.5.5,0,0,0,9.5,4h-1c.1-1.55.7-2,2.48-2a.5.5,0,0,0,0-1c-2.34,0-3.34.86-3.47,3h-1a.5.5,0,0,0-.5.5v.92a5,5,0,1,0,4,0ZM8,13.5A3.5,3.5,0,1,1,11.5,10,3.5,3.5,0,0,1,8,13.5Zm1.77-2.44a.5.5,0,1,1-.71.71L7.5,10.21V8a.5.5,0,0,1,1,0V9.79Z" style="fill: #323d47"/>
  </g>
  <g id="bin">
    <rect id="space-5" data-name="space" width="16" height="16" style="fill: none"/>
    <path d="M10,2H6V1h4ZM3,3H13V4H12v8a2,2,0,0,1-2,2H6a2,2,0,0,1-2-2V4H3ZM7,5.67H6V12H7Zm3,0H9V12h1Z" style="fill: #323d47"/>
  </g>
  <g id="printer">
    <rect id="space-6" data-name="space" width="16" height="16" style="fill: none"/>
    <path d="M11,5H5V3h6Zm3,2a1,1,0,1,1-1-1A1,1,0,0,1,14,7Zm-3,6H5V9h6Zm4-6a2,2,0,0,0-2-2H12V2H4V5H3A2,2,0,0,0,1,7v5H4v2h8V12h3Z" style="fill: #323d47"/>
  </g>
  <g id="message">
    <rect id="space-7" data-name="space" width="16" height="16" style="fill: none"/>
    <path d="M13.5,3H2.5A1.5,1.5,0,0,0,1,4.5v8A1.5,1.5,0,0,0,2.5,14h11A1.5,1.5,0,0,0,15,12.5v-8A1.5,1.5,0,0,0,13.5,3ZM2.5,7.76,8,10.33l5.5-2.56V6.11L8,8.67,2.5,6.11Z" style="fill: #323d47;fill-rule: evenodd"/>
  </g>
  <g id="more">
    <rect id="space-8" data-name="space" width="16" height="16" style="fill: none"/>
    <path d="M9.5,8A1.5,1.5,0,1,1,8,6.5,1.5,1.5,0,0,1,9.5,8ZM8,11.5A1.5,1.5,0,1,0,9.5,13,1.5,1.5,0,0,0,8,11.5Zm0-10A1.5,1.5,0,1,0,9.5,3,1.5,1.5,0,0,0,8,1.5Z" style="fill: #323d47"/>
  </g>
  <g id="alert">
    <rect id="space-9" data-name="space" width="16" height="16" style="fill: none"/>
    <path d="M9.3,2.39l5.4,9.36A1.5,1.5,0,0,1,13.4,14H2.6a1.5,1.5,0,0,1-1.3-2.25L6.7,2.39A1.5,1.5,0,0,1,9.3,2.39ZM9,5H7v5H9Zm0,8H7V11H9Z" style="fill: #323d47;fill-rule: evenodd"/>
  </g>
  <g id="exit">
    <g id="space-10" data-name="space">
      <rect width="16" height="16" style="fill: none"/>
    </g>
    <path d="M8,14H4a2,2,0,0,1-2-2V4A2,2,0,0,1,4,2H8V4H4v8H8Zm2.71-1.29L9.29,11.29,11.59,9H6V7h5.59L9.29,4.71l1.41-1.41,4,4a1,1,0,0,1,0,1.41Z" style="fill: #323d47"/>
  </g>
  <g id="enter">
    <g id="space-11" data-name="space">
      <rect width="16" height="16" style="fill: none"/>
    </g>
    <path d="M12,14H8V12h4V4H8V2h4a2,2,0,0,1,2,2v8A2,2,0,0,1,12,14ZM5.71,12.71,4.29,11.29,6.59,9H2V7H6.59L4.29,4.71,5.71,3.29l4,4a1,1,0,0,1,0,1.41Z" style="fill: #323d47"/>
  </g>
  <g id="eye-open">
    <rect id="space-12" data-name="space" width="16" height="16" style="fill: none"/>
    <path d="M6.5,6.5a1,1,0,1,0,1,1A1,1,0,0,0,6.5,6.5ZM8,5a5.56,5.56,0,0,1,3.6,1.28,3.87,3.87,0,0,1,0,3.44A5.56,5.56,0,0,1,8,11,5.56,5.56,0,0,1,4.4,9.72a3.87,3.87,0,0,1,0-3.44A5.56,5.56,0,0,1,8,5ZM8,4a6.18,6.18,0,0,1,5.95,4A6.18,6.18,0,0,1,8,12,6.18,6.18,0,0,1,2.05,8,6.18,6.18,0,0,1,8,4M8,3A7.11,7.11,0,0,0,1,8a7.11,7.11,0,0,0,7,5,7.11,7.11,0,0,0,7-5A7.11,7.11,0,0,0,8,3Z" style="fill: #323d47"/>
  </g>
  <g id="add-to-place">
    <rect id="space-13" data-name="space" width="16" height="16" style="fill: none"/>
    <path d="M12,14H8V12h4V4H8V2h4a2,2,0,0,1,2,2v8A2,2,0,0,1,12,14ZM7,12H5V9H2V7H5V4H7V7h3V9H7Z" style="fill: #323d47"/>
  </g>
  <g id="remove-from-place">
    <rect id="space-14" data-name="space" width="16" height="16" style="fill: none"/>
    <path d="M8,14H4a2,2,0,0,1-2-2V4A2,2,0,0,1,4,2H8V4H4v8H8Zm6-5H6V7h8Z" style="fill: #323d47"/>
  </g>
  <g id="ignor-place">
    <rect width="16" height="16" style="fill: none"/>
    <path d="M12,14H9V12h3V4H9V2h3a2,2,0,0,1,2,2v8A2,2,0,0,1,12,14ZM8.12,11.54,6,9.41,3.88,11.54,2.46,10.12,4.59,8,2.46,5.88,3.88,4.46,6,6.59,8.12,4.46,9.54,5.88,7.41,8l2.12,2.12Z" style="fill: #323d47"/>
  </g>
  <g id="messages">
    <rect id="space-15" data-name="space" width="16" height="16" style="fill: none"/>
    <path d="M10.67,5H1.33A1.33,1.33,0,0,0,0,6.33v6.33A1.33,1.33,0,0,0,1.33,14h9.33A1.33,1.33,0,0,0,12,12.67V6.33A1.33,1.33,0,0,0,10.67,5ZM10.5,7.67V9.14L6,11.24,1.5,9.13V7.67L6,9.76ZM16,3.33V9.67A1.33,1.33,0,0,1,14.67,11H13V8l1.5-.7V5.81l-1.5.7V6.33A2.34,2.34,0,0,0,10.67,4H4V3.33A1.33,1.33,0,0,1,5.33,2h9.33A1.33,1.33,0,0,1,16,3.33Z" style="fill: #323d47"/>
  </g>
  <g id="bookmarked-message">
    <path d="M14,5.33v6.34A1.34,1.34,0,0,1,12.67,13H3.33A1.34,1.34,0,0,1,2,11.67V5.33A1.34,1.34,0,0,1,3.33,4H8v7l2-2,2,2V4h.67A1.34,1.34,0,0,1,14,5.33Z" style="fill: #323d47"/>
    <rect id="space-16" data-name="space" width="16" height="16" style="fill: none"/>
  </g>
  <g id="sent-message">
    <rect id="space-17" data-name="space" width="16" height="16" style="fill: none"/>
    <path d="M1,5V4H14.5A1.5,1.5,0,0,1,16,5.5v6A1.5,1.5,0,0,1,14.5,13h-9A1.5,1.5,0,0,1,4,11.5V9H2V8H4V7H0V6H4V5ZM14.5,6.53,10,8.44,5.5,6.53V8.16L10,10.06l4.5-1.91Z" style="fill: #323d47;fill-rule: evenodd"/>
  </g>
  <g id="square-clock">
    <rect id="space-18" data-name="space" width="16" height="16" style="fill: none"/>
    <path d="M13,15H3a2,2,0,0,1-2-2V3A2,2,0,0,1,3,1H13a2,2,0,0,1,2,2V13A2,2,0,0,1,13,15Zm-1.29-4.71L9,7.59V3H7V8.41l3.29,3.29Z" style="fill: #323d47"/>
  </g>
  <g id="tag">
    <rect id="space-19" data-name="space" width="16" height="16" style="fill: none"/>
    <path d="M7.41,1.59l-6,6a2,2,0,0,0,0,2.83l4.17,4.17a2,2,0,0,0,2.83,0l6-6A2,2,0,0,0,15,7.17V3a2,2,0,0,0-2-2H8.83A2,2,0,0,0,7.41,1.59ZM11,7a2,2,0,1,1,2-2A2,2,0,0,1,11,7Z" style="fill: #323d47"/>
  </g>
  <g id="sort">
    <rect id="space-20" data-name="space" width="16" height="16" style="fill: none"/>
    <path d="M11,9H1V7H11Zm4-6H1V5H15ZM7,11H1v2H7Z" style="fill: #323d47"/>
  </g>
  <g id="expand">
    <rect id="space-21" data-name="space" width="16" height="16" style="fill: none"/>
    <path d="M14,2.75V7H12.5V4.56L10.06,7,9,5.94,11.44,3.5H9V2h4.25A.75.75,0,0,1,14,2.75ZM2,13.25V9H3.5v2.44L5.94,9,7,10.06,4.56,12.5H7V14H2.75A.75.75,0,0,1,2,13.25Z" style="fill: #323d47"/>
  </g>
  <g id="collapse">
    <rect id="space-22" data-name="space" width="16" height="16" style="fill: none"/>
    <path d="M9,6.25V2h1.5V4.44L12.94,2,14,3.06,11.56,5.5H14V7H9.75A.75.75,0,0,1,9,6.25ZM7,9.75V14H5.5V11.56L3.06,14,2,12.94,4.44,10.5H2V9H6.25A.75.75,0,0,1,7,9.75Z" style="fill: #323d47"/>
  </g>
  <g id="star">
    <rect id="space-23" data-name="space" width="16" height="16" style="fill: none"/>
    <polygon id="star-2" data-name="star" points="10.65 9.14 14.97 6 9.63 6 7.97 0.91 6.32 6 0.97 6 5.3 9.14 3.65 14.23 7.97 11.09 12.3 14.23 10.65 9.14" style="fill: #323d47"/>
  </g>
  <g id="comment">
    <rect id="space-24" data-name="space" width="16" height="16" style="fill: none"/>
    <path d="M16,9h0a4,4,0,0,1-4,4H4A4,4,0,0,1,0,9V1L4,5h8A4,4,0,0,1,16,9Zm-4,1.25A1.25,1.25,0,1,0,10.75,9,1.25,1.25,0,0,0,12,10.25Zm-4,0A1.25,1.25,0,1,0,6.75,9,1.25,1.25,0,0,0,8,10.25Zm-4,0A1.25,1.25,0,1,0,2.75,9,1.25,1.25,0,0,0,4,10.25Z" style="fill: #323d47;fill-rule: evenodd"/>
  </g>
  <g id="arrow">
    <g id="space-25" data-name="space">
      <rect width="16" height="16" style="fill: none"/>
    </g>
    <g id="path">
      <polygon points="8 11.41 3.29 6.71 4.71 5.29 8 8.59 11.29 5.29 12.71 6.71 8 11.41" style="fill: #323d47"/>
    </g>
  </g>
  <g id="gear">
    <rect id="space-26" data-name="space" width="16" height="16" style="fill: none"/>
    <path id="_Compound_Path_" data-name="&lt;Compound Path&gt;" d="M11.13,8A3.12,3.12,0,1,1,8,4.88,3.12,3.12,0,0,1,11.13,8Zm2,2.18,0-.07A1.25,1.25,0,0,1,14,9.37l.64-.19A1.23,1.23,0,0,0,15.5,8s0,0,0,0a1.23,1.23,0,0,0-.88-1.17L14,6.63a1.25,1.25,0,0,1-.79-.74l0-.07a1.25,1.25,0,0,1,0-1.08l.32-.59a1.23,1.23,0,0,0-.21-1.45h0a1.23,1.23,0,0,0-1.45-.21l-.59.32a1.25,1.25,0,0,1-1.08,0l-.07,0A1.25,1.25,0,0,1,9.37,2l-.19-.64A1.23,1.23,0,0,0,8,.5H8a1.23,1.23,0,0,0-1.17.88L6.63,2a1.25,1.25,0,0,1-.74.79l-.07,0a1.25,1.25,0,0,1-1.08,0l-.59-.32a1.23,1.23,0,0,0-1.45.21h0a1.23,1.23,0,0,0-.21,1.45l.32.59a1.25,1.25,0,0,1,0,1.08l0,.07A1.25,1.25,0,0,1,2,6.63l-.64.19A1.23,1.23,0,0,0,.5,8s0,0,0,0a1.23,1.23,0,0,0,.88,1.17L2,9.37a1.25,1.25,0,0,1,.79.74l0,.07a1.25,1.25,0,0,1,0,1.08l-.32.59a1.23,1.23,0,0,0,.21,1.45h0a1.23,1.23,0,0,0,1.45.21l.59-.32a1.25,1.25,0,0,1,1.08,0l.07,0a1.25,1.25,0,0,1,.74.79l.19.64A1.23,1.23,0,0,0,8,15.5H8a1.23,1.23,0,0,0,1.17-.88L9.37,14a1.25,1.25,0,0,1,.74-.79l.07,0a1.25,1.25,0,0,1,1.08,0l.59.32a1.23,1.23,0,0,0,1.45-.21h0a1.23,1.23,0,0,0,.21-1.45l-.32-.59A1.25,1.25,0,0,1,13.16,10.18Z" style="fill: #323d47"/>
  </g>
  <g id="brick-wall">
    <rect id="space-27" data-name="space" width="16" height="16" style="fill: none"/>
    <path id="_Compound_Path_2" data-name="&lt;Compound Path&gt;" d="M1,4v8a2,2,0,0,0,2,2H13a2,2,0,0,0,2-2V4a2,2,0,0,0-2-2H3A2,2,0,0,0,1,4ZM3,4H8V6H3Zm7,5H6V7h4ZM3,7H5V9H3Zm0,5V10H7v2Zm10,0H8V10h5Zm0-3H11V7h2Zm0-3H9V4h4Z" style="fill: #323d47"/>
  </g>
  <g id="window">
    <rect id="space-28" data-name="space" width="16" height="16" style="fill: none"/>
    <rect x="3" y="4" width="10" height="8" style="opacity: 0.2;fill: url(#linear-gradient)"/>
    <path d="M1,4v8a2,2,0,0,0,2,2H13a2,2,0,0,0,2-2V4a2,2,0,0,0-2-2H3A2,2,0,0,0,1,4ZM3,4H13v8H3ZM8.09,9.09l-.18-.18,4-4,.18.18Zm0,2-.18-.18,4-4,.18.18Z" style="fill: #323d47"/>
  </g>
  <g id="places">
    <rect id="space-29" data-name="space" width="16" height="16" style="fill: none"/>
    <path d="M13,14H3a2,2,0,0,1-2-2V4A2,2,0,0,1,3,2H13a2,2,0,0,1,2,2v8A2,2,0,0,1,13,14ZM3.51,10a4.39,4.39,0,0,1,3.08,1.41A2,2,0,0,0,8,12H8a2,2,0,0,0,1.41-.59A4.39,4.39,0,0,1,12.49,10H13V4H3v6Z" style="fill: #323d47"/>
  </g>
  <g id="earth">
    <rect id="space-30" data-name="space" width="16" height="16" style="fill: none"/>
    <path d="M8,1.5A6.5,6.5,0,1,0,14.5,8,6.5,6.5,0,0,0,8,1.5ZM3.5,8a4.45,4.45,0,0,1,.43-1.9,1.22,1.22,0,0,1,.61.46,3.46,3.46,0,0,0,.24.37.35.35,0,0,0,.39.13s0-.08,0-.13.11,0,.14.07c.18.42-.33.85-.33,1.31s.27.61.38.93a1.83,1.83,0,0,0,.13.38c.13.22.4.3.58.48a1.72,1.72,0,0,1,.31,1.15,5.17,5.17,0,0,0,.18,1A4.49,4.49,0,0,1,3.5,8ZM8,12.5a4.45,4.45,0,0,1-.67-.07A.82.82,0,0,0,7.9,12a.81.81,0,0,0,.53-.47A1.79,1.79,0,0,1,8.82,11c.29-.25.8-.3.91-.66a2.78,2.78,0,0,0,0-.37.64.64,0,0,1,.43-.5.27.27,0,0,0,.16-.08.24.24,0,0,0,0-.15c0-.17-.08-.34-.12-.52a3.22,3.22,0,0,0-.94-.36,4,4,0,0,1-.88-.41.65.65,0,0,0-.61-.65.54.54,0,0,1-.2,0c-.06,0-.1-.12-.06-.17a.37.37,0,0,1-.39-.2.2.2,0,0,0-.05-.09l-.1,0-.9-.07c-.3,0-.68,0-.76.29L5.11,6.8l-.19.09a.75.75,0,0,1,0-.66.46.46,0,0,0-.34-.14.61.61,0,0,1,.09-.26.32.32,0,0,0,.05-.27c0-.09-.19-.12-.23,0s0,.07,0,.09a.19.19,0,0,1-.3.06A4.51,4.51,0,0,1,5,4.7H5c.12,0,.28.05.28.16s0,0,0,0A.35.35,0,0,0,5.44,5a2.47,2.47,0,0,0,.17-.77l.16-.09a.76.76,0,0,0,.54-.28A4.36,4.36,0,0,1,10,4a.42.42,0,0,1,0,.11.9.9,0,0,1-.26.48c0,.14.15.32.18.44s0,.18,0,.22.16.14.25.25c-.25.3-.05.64.18.91s.4.3.55.5,0,.12,0,.17.19.17.26.27c.29-.11.18-.13.51,0,.1-.11.34-.32.52-.3a.32.32,0,0,1,.18.06A4.5,4.5,0,0,1,8,12.5Z" style="fill: #323d47"/>
  </g>
  <g id="cross">
    <rect id="space-31" data-name="space" width="16" height="16" style="fill: none"/>
    <polygon points="9 2 7 2 7 7 2 7 2 9 7 9 7 14 9 14 9 9 14 9 14 7 9 7 9 2" style="fill: #323d47"/>
  </g>
  <g id="crown">
    <rect id="space-32" data-name="space" width="16" height="16" style="fill: none"/>
    <path d="M13,5.79a1.66,1.66,0,0,0-1.06,2.94l-.69.61A1.33,1.33,0,0,1,9.2,9L8.5,7.71a1.67,1.67,0,1,0-1,0L6.8,9a1.33,1.33,0,0,1-2.06.36l-.69-.61A1.66,1.66,0,1,0,3,9.13l.17,0,.35,2.73A1.33,1.33,0,0,0,4.84,13h6.32a1.33,1.33,0,0,0,1.32-1.16l.35-2.73.17,0a1.67,1.67,0,0,0,0-3.33Z" style="fill: #323d47"/>
  </g>
  <g id="manager">
    <rect id="space-33" data-name="space" width="16" height="16" style="fill: none"/>
    <path d="M12,13v2H11V13a1,1,0,0,0-1-1v3H6V12a1,1,0,0,0-1,1v2H4V13a2,2,0,0,1,2-2h4A2,2,0,0,1,12,13ZM11.75,2.59A1.25,1.25,0,0,0,10.5,3.84a1.23,1.23,0,0,0,.46.95l-.52.47A1,1,0,0,1,8.9,5L8.37,4a1.24,1.24,0,0,0,.88-1.18,1.25,1.25,0,0,0-2.5,0A1.24,1.24,0,0,0,7.63,4L7.1,5a1,1,0,0,1-1.54.27L5,4.79a1.23,1.23,0,0,0,.46-.95A1.25,1.25,0,1,0,4.25,5.09a1.18,1.18,0,0,0,.17,0l.19,1.11a1,1,0,0,0,1,.83h4.81a1,1,0,0,0,1-.83l.19-1.11a1.18,1.18,0,0,0,.17,0,1.25,1.25,0,0,0,0-2.5ZM8,10.5A2.5,2.5,0,0,0,10.5,8h-5A2.5,2.5,0,0,0,8,10.5Z" style="fill: #323d47"/>
  </g>
  <g id="manager-member">
    <rect id="space-34" data-name="space" width="16" height="16" style="fill: none"/>
    <path d="M15,13v2H14V13a1,1,0,0,0-1-1v3H9V12H7v3H3V12a1,1,0,0,0-1,1v2H1V13a2,2,0,0,1,2-2H13A2,2,0,0,1,15,13ZM1.42,5.06l.19,1.11a1,1,0,0,0,1,.83H7.41a1,1,0,0,0,1-.83l.19-1.11a1.18,1.18,0,0,0,.17,0A1.25,1.25,0,1,0,7.5,3.84,1.23,1.23,0,0,0,8,4.79l-.52.47A1,1,0,0,1,5.9,5L5.37,4a1.24,1.24,0,0,0,.88-1.18,1.25,1.25,0,0,0-2.5,0A1.24,1.24,0,0,0,4.63,4L4.1,5a1,1,0,0,1-1.54.27L2,4.79a1.23,1.23,0,0,0,.46-.95A1.25,1.25,0,1,0,1.25,5.09,1.18,1.18,0,0,0,1.42,5.06ZM5,10.5A2.5,2.5,0,0,0,7.5,8h-5A2.5,2.5,0,0,0,5,10.5ZM8.5,8A2.5,2.5,0,1,0,11,5.5,2.5,2.5,0,0,0,8.5,8Z" style="fill: #323d47"/>
  </g>
  <g id="member">
    <rect id="space-35" data-name="space" width="16" height="16" style="fill: none"/>
    <path d="M6,15V12a1,1,0,0,0-1,1v2H4V13a2,2,0,0,1,2-2h4a2,2,0,0,1,2,2v2H11V13a1,1,0,0,0-1-1v3ZM8,5.5A2.5,2.5,0,1,0,10.5,8,2.5,2.5,0,0,0,8,5.5Z" style="fill: #323d47"/>
  </g>
  <g id="team">
    <rect id="space-36" data-name="space" width="16" height="16" style="fill: none"/>
    <path d="M16,13v2H15V13a1,1,0,0,0-1-1v3H11V12H10v3H6V12H5v3H2V12a1,1,0,0,0-1,1v2H0V13a2,2,0,0,1,2-2H14A2,2,0,0,1,16,13Zm-3-2.75A2.25,2.25,0,1,0,10.75,8,2.25,2.25,0,0,0,13,10.25Zm-5,0A2.25,2.25,0,1,0,5.75,8,2.25,2.25,0,0,0,8,10.25Zm-5,0A2.25,2.25,0,1,0,.75,8,2.25,2.25,0,0,0,3,10.25Z" style="fill: #323d47"/>
  </g>
  <g id="search">
    <rect id="space-37" data-name="space" width="16" height="16" style="fill: none"/>
    <path d="M14,12.94,10.66,9.6A4.53,4.53,0,1,0,9.6,10.66L12.94,14A.75.75,0,0,0,14,12.94ZM4,7a3,3,0,1,1,3,3A3,3,0,0,1,4,7Z" style="fill: #323d47"/>
  </g>
  <g id="person">
    <rect id="space-38" data-name="space" width="16" height="16" style="fill: none"/>
    <path d="M4,14V12.5a3,3,0,0,1,3-3H9a3,3,0,0,1,3,3V14ZM5,5A3,3,0,1,0,8,2,3,3,0,0,0,5,5Z" style="fill: #323d47"/>
  </g>
  <g id="small-face-wire">
    <path d="M8,15.25C1.05,15.25.25,11.11.25,8S1.05.75,8,.75,15.75,4.89,15.75,8,14.95,15.25,8,15.25Z" style="fill: #323d47;opacity: 0.16"/>
    <rect id="space-39" data-name="space" width="16" height="16" style="fill: none"/>
    <path d="M7,6.5A1.5,1.5,0,1,1,5.5,5,1.5,1.5,0,0,1,7,6.5ZM10.5,5A1.5,1.5,0,1,0,12,6.5,1.5,1.5,0,0,0,10.5,5ZM8,15.25C1.05,15.25.25,11.11.25,8S1.05.75,8,.75,15.75,4.89,15.75,8,14.95,15.25,8,15.25Zm0-13C2.81,2.25,1.75,4.55,1.75,8S2.81,13.75,8,13.75s6.25-2.3,6.25-5.75S13.19,2.25,8,2.25Zm0,10c-2.18,0-4.25-.32-4.65-2.6a.75.75,0,0,1,1.48-.26c.11.64.24,1.36,3.17,1.36,2.22,0,3-.33,3.17-1.36a.75.75,0,0,1,1.48.26C12.19,12.25,9.47,12.25,8,12.25Z" style="fill: #323d47"/>
  </g>
  <g id="atsign">
    <rect id="space-40" data-name="space" width="16" height="16" style="fill: none"/>
    <path d="M8.21,15q-.4,0-.81,0A6.63,6.63,0,0,1,1,7.39,6.85,6.85,0,0,1,8.61,1c3.82.34,5.3,2.34,5.84,3.5A5.62,5.62,0,0,1,14,10a3.42,3.42,0,0,1-3.12,1.58,2,2,0,0,1-1.39-.8,1.88,1.88,0,0,1-.16-.28,3.69,3.69,0,0,1-3.1.76A2.76,2.76,0,0,1,4,9.23,3.89,3.89,0,0,1,5.13,5.39c.78-.74,2.58-1.8,5.83-.62a.75.75,0,0,1,.47.87C11.29,6.3,11.14,7,11,7.51v.07l0,.2c-.15.69-.24,1.16-.24,1.16-.14.65,0,.89,0,1s.08.12.33.16a2,2,0,0,0,1.72-1,4.07,4.07,0,0,0,.3-3.94C12.6,4.1,11.4,2.78,8.48,2.52a5.31,5.31,0,0,0-6,5,5.1,5.1,0,0,0,5,6,5.92,5.92,0,0,0,3.24-.54.75.75,0,0,1,.68,1.34A7.11,7.11,0,0,1,8.21,15Zm0-9.27a3,3,0,0,0-2.09.74A2.35,2.35,0,0,0,5.48,8.8a1.28,1.28,0,0,0,1,1c2.12.37,2.82-1.64,3-2.34.09-.42.2-.92.31-1.44A5.87,5.87,0,0,0,8.26,5.74Z" style="fill: #323d47"/>
  </g>
  <g id="downloads">
    <rect id="space-41" data-name="space" width="16" height="16" style="fill: none"/>
    <path d="M13,14H3V12H13ZM8,11.41,3.29,6.71,4.71,5.29,7,7.59V1H9V7.59l2.29-2.29,1.41,1.41Z" style="fill: #323d47"/>
  </g>
  <g id="bookmark-wire">
    <rect id="space-42" data-name="space" width="16" height="16" style="fill: none"/>
    <polygon points="13 0 13 0 13 16 8 11 3 16 3 0 4 0 4 13.59 8 9.59 12 13.59 12 0 13 0" style="fill: #323d47"/>
  </g>
  <g id="heavy-tick">
    <rect width="16" height="16" style="fill: none"/>
    <polygon points="6 12.41 2.29 8.71 3.71 7.29 6 9.59 11.29 4.29 12.71 5.71 6 12.41" style="fill: #323d47"/>
  </g>
  <g id="exclamation-mark">
    <rect id="space-43" data-name="space" width="16" height="16" style="fill: none"/>
    <path d="M8,11H8A1.58,1.58,0,0,1,6.43,9.5L6.1,3A1.9,1.9,0,0,1,8,1H8A1.9,1.9,0,0,1,9.9,3L9.57,9.5A1.58,1.58,0,0,1,8,11Zm.5,1h-1A1.5,1.5,0,0,0,6,13.5H6A1.5,1.5,0,0,0,7.5,15h1A1.5,1.5,0,0,0,10,13.5h0A1.5,1.5,0,0,0,8.5,12Z" style="fill: #323d47;fill-rule: evenodd"/>
  </g>
  <g id="menu">
    <rect id="space-44" data-name="space" width="16" height="16" style="fill: none"/>
    <path d="M14,9H2V7H14Zm0-5H2V6H14Zm0,6H2v2H14Z" style="fill: #323d47"/>
  </g>
  <g id="filter">
    <rect id="space-45" data-name="space" width="16" height="16" style="fill: none"/>
    <polygon points="7 14 5 14 5 8.86 0.73 3.63 1.5 2 14.5 2 15.27 3.63 11 8.86 11 12 9 12 9 8.14 12.39 4 3.61 4 7 8.14 7 14" style="fill: #323d47"/>
  </g>
  <g id="forward">
    <rect id="space-46" data-name="space" width="16" height="16" style="fill: none"/>
    <polygon id="_Path_" data-name="&lt;Path&gt;" points="3.5 7 8.5 2 13.5 7 10.17 7 8.5 14.33 6.83 7 3.5 7" style="fill: #323d47"/>
  </g>
  <g id="reply">
    <rect id="space-47" data-name="space" width="16" height="16" style="fill: none"/>
    <path d="M14.33,12.53A8.91,8.91,0,0,0,7,5.17V2.5l-5,5,5,5V9.17C10,9.17,12.82,9.91,14.33,12.53Z" style="fill: #323d47"/>
  </g>
  <g id="ask">
    <rect id="space-48" data-name="space" width="16" height="16" style="fill: none"/>
    <path d="M15,8A7,7,0,1,1,8,1,7,7,0,0,1,15,8ZM8.4,9.3V9a.9.9,0,0,1,.14-.52,3.11,3.11,0,0,1,.65-.58,3.84,3.84,0,0,0,1-1,1.89,1.89,0,0,0,.27-1,1.74,1.74,0,0,0-.65-1.42,2.7,2.7,0,0,0-1.76-.53,5.12,5.12,0,0,0-2.54.67l.58,1.18a4.13,4.13,0,0,1,1.84-.53,1.22,1.22,0,0,1,.72.18A.61.61,0,0,1,8.92,6a1,1,0,0,1-.18.56A3.34,3.34,0,0,1,8,7.2a2.9,2.9,0,0,0-.8.81,1.76,1.76,0,0,0-.22.9v.4ZM7,11.82a1,1,0,0,0,.7.24.93.93,0,0,0,.69-.24,1,1,0,0,0,0-1.35,1,1,0,0,0-.69-.24,1,1,0,0,0-.7.23.9.9,0,0,0-.24.68A.89.89,0,0,0,7,11.82Z" style="fill: #323d47"/>
  </g>
  <g id="xcross">
    <rect id="space-49" data-name="space" width="16" height="16" style="fill: none"/>
    <polygon points="4.46 3.05 3.05 4.46 6.59 8 3.05 11.54 4.46 12.95 8 9.41 11.54 12.95 12.95 11.54 9.41 8 12.95 4.46 11.54 3.05 8 6.59 4.46 3.05" style="fill: #323d47"/>
  </g>
  <g id="comments">
    <rect id="space-50" data-name="space" width="16" height="16" transform="translate(16 16) rotate(-180)" style="fill: none"/>
    <path d="M0,7.5V1L3,4H9.5a3.48,3.48,0,0,1,3.15,2H6.5A4.51,4.51,0,0,0,2,10.5a.86.86,0,0,0,0,.16A3.49,3.49,0,0,1,0,7.5Z" style="fill: #323d47;fill-rule: evenodd;opacity: 0.5"/>
    <path d="M6.5,14h6A3.5,3.5,0,0,0,16,10.5V4L13,7H6.5A3.52,3.52,0,0,0,3,10.5,3.5,3.5,0,0,0,6.5,14Zm1-3.5a1,1,0,1,1-1-1A1,1,0,0,1,7.5,10.5Zm3,0a1,1,0,1,1-1-1A1,1,0,0,1,10.5,10.5Zm3,0a1,1,0,1,1-1-1A1,1,0,0,1,13.5,10.5Z" style="fill: #323d47;fill-rule: evenodd"/>
  </g>
  <g id="hourglass">
    <rect id="space-51" data-name="space" width="16" height="16" style="fill: none"/>
    <g style="opacity: 0.1">
      <path d="M12,12v2H4V12a3,3,0,0,1,.83-2.07L6,8.7V7.3L4.83,6.07A2.88,2.88,0,0,1,4.18,5h7.64a2.88,2.88,0,0,1-.65,1.07L10,7.3V8.7l1.17,1.23A3,3,0,0,1,12,12Z" style="fill: #323d47"/>
    </g>
    <path d="M11.17,6.07A3,3,0,0,0,12,4V3h1V2a1,1,0,0,0-1-1H4A1,1,0,0,0,3,2V3H4V4a3,3,0,0,0,.83,2.07L6,7.3V8.7L4.83,9.93A3,3,0,0,0,4,12v1H3v1a1,1,0,0,0,1,1h8a1,1,0,0,0,1-1V13H12V12a3,3,0,0,0-.83-2.07L10,8.7V7.3ZM9.28,9.39l1.17,1.23A2,2,0,0,1,11,12v1H5V12a2,2,0,0,1,.55-1.38L6.72,9.39,7,9.1V6.9l-.28-.29L5.55,5.38A2,2,0,0,1,5,4V3h6V4a2,2,0,0,1-.55,1.38L9.28,6.61,9,6.9V9.1Z" style="fill: #323d47"/>
  </g>
  <g id="device-phone">
    <rect id="space-52" data-name="space" width="16" height="16" style="fill: none"/>
    <path d="M12,15H4a1,1,0,0,1-1-1V2A1,1,0,0,1,4,1h8a1,1,0,0,1,1,1V14A1,1,0,0,1,12,15ZM11,3H5v8h6ZM8,12a1,1,0,1,0,1,1A1,1,0,0,0,8,12Z" style="fill: #323d47"/>
  </g>
  <g id="lock">
    <rect id="space-53" data-name="space" width="16" height="16" style="fill: none"/>
    <path d="M13,6H12V5A4,4,0,0,0,4,5V6H3A1,1,0,0,0,2,7v6a2,2,0,0,0,2,2h8a2,2,0,0,0,2-2V7A1,1,0,0,0,13,6ZM6,5a2,2,0,0,1,4,0V6H6Zm3,8H7V9H9Z" style="fill: #323d47"/>
  </g>
  <g id="bookmark">
    <rect id="space-54" data-name="space" width="16" height="16" style="fill: none"/>
    <polygon points="13 16 8 11 3 16 3 0 13 0 13 16" style="fill: #323d47"/>
  </g>
  <g id="open-message">
    <rect id="space-55" data-name="space" width="16" height="16" style="fill: none"/>
    <path d="M1.87,4.75,8,1.89l6.13,2.86A1.5,1.5,0,0,1,15,6.11V12.5A1.5,1.5,0,0,1,13.5,14H2.5A1.5,1.5,0,0,1,1,12.5V6.11A1.5,1.5,0,0,1,1.87,4.75ZM2.5,6.11,8,3.55l5.5,2.56V7.76L8,10.33,2.5,7.76Z" style="fill: #323d47;fill-rule: evenodd"/>
  </g>
  <g id="unread-message">
    <rect id="space-56" data-name="space" width="16" height="16" style="fill: none"/>
    <circle cx="8" cy="8" r="6" style="fill: #323d47"/>
  </g>
  <g id="log">
    <rect id="space-57" data-name="space" width="16" height="16" style="fill: none"/>
    <path d="M13.25,1c0,.69-.21,1.25-1.25,1.25S10.75,1.69,10.75,1H9.25C9.25,1.69,9,2.25,8,2.25S6.75,1.69,6.75,1H5.25C5.25,1.69,5,2.25,4,2.25S2.75,1.69,2.75,1H2V16h.75c0-.69.21-1.25,1.25-1.25s1.25.56,1.25,1.25h1.5c0-.69.21-1.25,1.25-1.25s1.25.56,1.25,1.25h1.5c0-.69.21-1.25,1.25-1.25s1.25.56,1.25,1.25H14V1ZM11.5,12h-7a.5.5,0,1,1,0-1h7a.5.5,0,0,1,0,1Zm0-3h-7a.5.5,0,1,1,0-1h7a.5.5,0,0,1,0,1Zm0-3h-7a.5.5,0,1,1,0-1h7a.5.5,0,0,1,0,1Z" style="fill: #323d47;fill-rule: evenodd"/>
  </g>
  <g id="roll">
    <rect id="space-58" data-name="space" width="16" height="16" style="fill: none"/>
    <g>
      <path d="M14.5,1H8A4,4,0,0,0,4,5v7L1.5,15H8a4,4,0,0,0,4-4V4Z" style="fill: #323d47;opacity: 0.4"/>
      <path d="M4,12.5A2.5,2.5,0,0,1,1.5,15h0A1.5,1.5,0,0,1,0,13.5V12H4ZM12,4h4V2.5A1.5,1.5,0,0,0,14.5,1h0A2.5,2.5,0,0,0,12,3.5Z" style="fill: #323d47"/>
    </g>
  </g>
  <g id="bell">
    <rect id="space-59" data-name="space" width="16" height="16" style="fill: none"/>
    <path d="M14,11v1H2V11L4,9V5A4,4,0,0,1,8,1H8a4,4,0,0,1,4,4V9ZM6.25,13a1.75,1.75,0,0,0,3.5,0Z" style="fill: #323d47"/>
  </g>
  <g id="nested3d">
    <g>
      <path d="M15,9.71V6.39a2.33,2.33,0,0,0-1.17-2L8,1,2.17,4.37A2.33,2.33,0,0,0,1,6.39V9.71C1,16.75,15,16.75,15,9.71Zm-7,0L2.17,6.39a1.17,1.17,0,0,1,.58-1L8,2.35l5.25,3a1.17,1.17,0,0,1,.58,1Z" style="fill: #14d769"/>
      <path d="M8,9.76l6.91-4a2.32,2.32,0,0,1,.09.62V9.71C15,13.19,11.47,15,8,15Z" style="fill: url(#radial-gradient)"/>
    </g>
    <rect id="space-60" data-name="space" width="16" height="16" style="fill: none"/>
  </g>
  <g id="replace">
    <rect id="space-61" data-name="space" width="16" height="16" style="fill: none"/>
    <path d="M5.29,15.71,1.59,12,5.29,8.29,6.71,9.71,5.41,11H11a1,1,0,0,0,1-1V8h2v2a3,3,0,0,1-3,3H5.41l1.29,1.29ZM4,8H2V6A3,3,0,0,1,5,3h5.59L9.29,1.71,10.71.29,14.41,4,10.71,7.71,9.29,6.29,10.59,5H5A1,1,0,0,0,4,6Z" style="fill: #323d47"/>
  </g>
  <g id="square-clock-2" data-name="square-clock">
    <rect id="space-62" data-name="space" width="16" height="16" style="fill: none"/>
    <path d="M13,15H3a2,2,0,0,1-2-2V3A2,2,0,0,1,3,1H13a2,2,0,0,1,2,2V13A2,2,0,0,1,13,15Zm-1.29-4.71L9,7.59V3H7V8.41l3.29,3.29Z" style="fill: #323d47"/>
  </g>
  <g id="square-clock-wire">
    <rect id="space-63" data-name="space" width="16" height="16" style="fill: none"/>
    <path d="M13.5,15H2.5A1.5,1.5,0,0,1,1,13.5V2.5A1.5,1.5,0,0,1,2.5,1h11A1.5,1.5,0,0,1,15,2.5v11A1.5,1.5,0,0,1,13.5,15Zm0-1.5v0Zm-11-11v11h11V2.5Zm7,8.53L7.25,8.81V4h1.5V8.19L10.53,10Z" style="fill: #323d47"/>
  </g>
  <g id="tag-wire">
    <rect id="space-64" data-name="space" width="16" height="16" style="fill: none"/>
    <path d="M13,2a1,1,0,0,1,1,1V7.17a1,1,0,0,1-.29.71l-6,6a1,1,0,0,1-1.41,0L2.12,9.71a1,1,0,0,1,0-1.41l6-6A1,1,0,0,1,8.83,2H13m0-1H8.83a2,2,0,0,0-1.41.59l-6,6a2,2,0,0,0,0,2.83l4.17,4.17a2,2,0,0,0,2.83,0l6-6A2,2,0,0,0,15,7.17V3a2,2,0,0,0-2-2ZM11,4a1,1,0,1,1-1,1,1,1,0,0,1,1-1m0-1a2,2,0,1,0,2,2,2,2,0,0,0-2-2Z" style="fill: #323d47"/>
  </g>
  <g id="bookmark-sign-wire">
    <rect id="space-65" data-name="space" width="16" height="16" style="fill: none"/>
    <path d="M11,2a1,1,0,0,1,1,1v9.59L8.71,9.29,8,8.59l-.71.71L4,12.59V3A1,1,0,0,1,5,2h6m0-1H5A2,2,0,0,0,3,3V15l5-5,5,5V3a2,2,0,0,0-2-2Z" style="fill: #323d47"/>
  </g>
  <g id="bookmark-sign">
    <rect id="space-66" data-name="space" width="16" height="16" style="fill: none"/>
    <path d="M13,15,8,10,3,15V3A2,2,0,0,1,5,1h6a2,2,0,0,1,2,2Z" style="fill: #323d47"/>
  </g>
</svg>
