<svg xmlns="http://www.w3.org/2000/svg" xmlns:xlink="http://www.w3.org/1999/xlink" viewBox="0 0 16 16">
  <defs>
    <linearGradient id="linear-gradient" x1="8" y1="10" x2="8" y2="5" gradientUnits="userSpaceOnUse">
      <stop offset="0" stop-color="#fff"/>
      <stop offset="1" stop-color="#d9d9d9"/>
    </linearGradient>
  </defs>
  <title>Nested Web Icon Resource</title>
  <g id="favedplace" data-name="favedplace">
    <path d="M7,1.33,5.83,5H2a1,1,0,0,0-.59,1.81L4.5,9.08,3.31,12.74a1,1,0,0,0,1.54,1.12L8,11.6l3.12,2.27a1,1,0,0,0,1.54-1.12L11.44,9.08l3.09-2.25A1,1,0,0,0,14,5H10.12L8.92,1.33A1,1,0,0,0,7,1.33Z" style="fill: #fff"/>
    <rect id="space" width="16" height="16" style="fill: none"/>
    <polygon points="10.26 8.69 11.68 13.05 7.97 10.36 4.26 13.05 5.68 8.69 1.97 6 6.56 6 7.97 1.64 9.39 6 13.97 6 10.26 8.69" style="fill: #00b45a"/>
  </g>
  <g id="openplace">
    <rect id="space-2" data-name="space" width="16" height="16" style="fill: none"/>
    <path d="M4,5v5a1,1,0,0,0,1,1h6a1,1,0,0,0,1-1V5a1,1,0,0,0-1-1H5A1,1,0,0,0,4,5ZM5,5h6v5H5ZM7.09,9.09l-.18-.18,3-3,.18.18Z" style="fill: #d9d9d9"/>
    <rect x="5" y="5" width="6" height="5" style="opacity: 0.2;fill: url(#linear-gradient)"/>
  </g>
  <g id="closedplace">
    <rect id="space-3" data-name="space" width="16" height="16" style="fill: none"/>
    <path id="_Compound_Path_" data-name="&lt;Compound Path&gt;" d="M4,5v5a1,1,0,0,0,1,1h6a1,1,0,0,0,1-1V5a1,1,0,0,0-1-1H5A1,1,0,0,0,4,5ZM5,5H8V7H5Zm1,5H5V8H6Zm5,0H7V8h4Zm0-3H9V5h2Z" style="fill: #d9d9d9"/>
  </g>
  <g id="cross">
    <rect id="space-4" data-name="space" width="16" height="16" style="fill: none"/>
    <polygon points="9 3 7 3 7 7 3 7 3 9 7 9 7 13 9 13 9 9 13 9 13 7 9 7 9 3"/>
  </g>
  <g id="replied">
    <rect id="space-5" data-name="space" width="16" height="16" style="fill: none"/>
    <rect id="space-6" data-name="space" width="16" height="16" style="fill: none"/>
    <path d="M11.89,12.37C10.5,9.32,8.42,8,5,8h0L6.71,9.79a1,1,0,0,1-1.41,1.41l-3.5-3.5a1,1,0,0,1,0-1.41l3.5-3.5A1,1,0,0,1,6.71,4.21L4.9,6H5c4.26,0,7,1.77,8.75,5.53a1,1,0,0,1-1.82.83Z"/>
  </g>
  <g id="forwarded">
    <rect id="space-7" data-name="space" width="16" height="16" style="fill: none"/>
    <path d="M8,13.5a1,1,0,0,1-1-1V5.91L5.21,7.71A1,1,0,0,1,3.79,6.29l3.5-3.5a1,1,0,0,1,1.41,0l3.5,3.5a1,1,0,0,1-1.41,1.41L9,5.91V12.5A1,1,0,0,1,8,13.5Z"/>
  </g>
  <g id="heavy-tick">
    <rect width="16" height="16" style="fill: none"/>
    <polygon points="6 12.41 2.29 8.71 3.71 7.29 6 9.59 11.29 4.29 12.71 5.71 6 12.41"/>
  </g>
  <g id="star">
    <rect id="space" width="16" height="16" style="fill: none"/>
    <polygon id="_Path_" data-name="&lt;Path&gt;" points="10.26 9.19 13.97 6.5 9.39 6.5 7.97 2.14 6.56 6.5 1.97 6.5 5.68 9.19 4.26 13.55 7.97 10.86 11.68 13.55 10.26 9.19"/>
  </g>
</svg>
