<svg id="icons" xmlns="http://www.w3.org/2000/svg" viewBox="0 0 40 40">
  <title>nst</title>
  <path id="sq40dashed" d="M30,18v4H22v8H18V22H10V18h8V10h4v8ZM1,4.5A3.5,3.5,0,0,1,4.5,1H6V0H4.5A4.5,4.5,0,0,0,0,4.5V6H1ZM1,10H0v4H1Zm0,8H0v4H1Zm0,8H0v4H1ZM6,39H4.5A3.5,3.5,0,0,1,1,35.5V34H0v1.5A4.5,4.5,0,0,0,4.5,40H6Zm8,0H10v1h4Zm8,0H18v1h4Zm8,0H26v1h4Zm10-3.5V34H39v1.5A3.5,3.5,0,0,1,35.5,39H34v1h1.5A4.5,4.5,0,0,0,40,35.5ZM40,26H39v4h1Zm0-8H39v4h1Zm0-8H39v4h1Zm0-5.5A4.5,4.5,0,0,0,35.5,0H34V1h1.5A3.5,3.5,0,0,1,39,4.5V6h1ZM30,0H26V1h4ZM22,0H18V1h4ZM14,0H10V1h4Z"/>
  <path id="sq40" d="M1,4.5A3.5,3.5,0,0,1,4.5,1h31A3.5,3.5,0,0,1,39,4.5v31A3.5,3.5,0,0,1,35.5,39H4.5A3.5,3.5,0,0,1,1,35.5Zm-1,31A4.5,4.5,0,0,0,4.5,40h31A4.5,4.5,0,0,0,40,35.5V4.5A4.5,4.5,0,0,0,35.5,0H4.5A4.5,4.5,0,0,0,0,4.5Z"/>
</svg>
