<svg xmlns="http://www.w3.org/2000/svg" viewBox="0 0 24 24">
  <title>nst</title>
  <g id="icn24">
    <g id="bell-ringed">
      <rect width="24" height="24" style="fill: none"/>
      <path d="M16,9.5V14l2,2v1H6V16l2-2V9.5a4,4,0,0,1,4-4h0A4,4,0,0,1,16,9.5Z"/>
      <path d="M13.5,18a1.5,1.5,0,0,1-3,0Z"/>
      <path d="M19.68,19.18,19,18.47a3.5,3.5,0,0,0,0-4.95l.71-.71a4.5,4.5,0,0,1,0,6.36Z"/>
      <path d="M21.1,20.6l-.71-.71a5.5,5.5,0,0,0,0-7.78l.71-.71a6.5,6.5,0,0,1,0,9.19Z"/>
      <path d="M4.32,19.18a4.5,4.5,0,0,1,0-6.36l.71.71a3.5,3.5,0,0,0,0,4.95Z"/>
      <path d="M2.9,20.6a6.5,6.5,0,0,1,0-9.19l.71.71a5.5,5.5,0,0,0,0,7.78Z"/>
    </g>
    <g id="star">
      <rect id="space" width="24" height="24" style="fill: none"/>
      <polygon id="_Path_" data-name="&lt;Path&gt;" points="15.79 13.49 21.97 9 14.33 9 11.97 1.74 9.61 9 1.97 9 8.15 13.49 5.79 20.76 11.97 16.27 18.15 20.76 15.79 13.49"/>
    </g>
    <g id="star-wire">
      <rect id="space-2" data-name="space" width="24" height="24" style="fill: none"/>
      <path d="M12,6.59l.93,2.87.34,1h4.11l-2.45,1.78-.88.64.34,1,.93,2.87-2.45-1.78L12,14.41l-.88.64L8.64,16.83,9.58,14l.34-1L9,12.28,6.59,10.5H10.7l.34-1L12,6.59m0-4.85L9.61,9H2l6.18,4.49L5.79,20.76,12,16.27l6.18,4.49-2.36-7.27L22,9H14.33L12,1.73Z"/>
    </g>
    <g id="bell-muted">
      <rect id="space-3" data-name="space" width="24" height="24" style="fill: none"/>
      <path d="M7,8.84,15.17,17H5V16l2-2V9A.86.86,0,0,1,7,8.84ZM10,18h4a2,2,0,0,1-4,0Zm7-4.83V9a5,5,0,0,0-5-5A4.92,4.92,0,0,0,8.91,5.08L5.12,1.29,3.71,2.71l16,16,1.41-1.42Z"/>
    </g>
    <g id="more">
      <rect id="space-4" data-name="space" width="24" height="24" style="fill: none"/>
      <path d="M14,12a2,2,0,1,1-2-2A2,2,0,0,1,14,12ZM12,4a2,2,0,1,0,2,2A2,2,0,0,0,12,4Zm0,12a2,2,0,1,0,2,2A2,2,0,0,0,12,16Z"/>
    </g>
    <g id="bell">
      <rect id="space-5" data-name="space" width="24" height="24" style="fill: none"/>
      <path d="M19,16v1H5V16l2-2V9A5,5,0,0,1,17,9v5Zm-7,4a2,2,0,0,0,2-2H10A2,2,0,0,0,12,20Z"/>
    </g>
    <g id="forward">
      <rect id="space-6" data-name="space" width="24" height="24" style="fill: none"/>
      <polygon id="_Path_2" data-name="&lt;Path&gt;" points="5 10 12.5 2.5 20 10 15 10 12.5 21 10 10 5 10"/>
    </g>
    <g id="reply">
      <rect id="space-7" data-name="space" width="24" height="24" style="fill: none"/>
      <path d="M21,19A13.36,13.36,0,0,0,10,8V4L2.5,11.5,10,19V14C14.55,14,18.73,15.11,21,19Z"/>
    </g>
    <g id="forwarded">
      <g id="space-8" data-name="space">
        <rect width="24" height="24" style="fill: none"/>
      </g>
      <path d="M12.5,20.5A1.5,1.5,0,0,1,11,19V9.12L8.06,12.06A1.5,1.5,0,1,1,5.94,9.94l5.5-5.5a1.5,1.5,0,0,1,2.12,0l5.5,5.5a1.5,1.5,0,0,1-2.12,2.12L14,9.12V19A1.5,1.5,0,0,1,12.5,20.5Z"/>
    </g>
    <g id="replied">
      <rect width="24" height="24" style="fill: none"/>
      <path d="M18.58,19.55C16.5,15,13.38,13,8.18,13h0l2.92,2.92a1.5,1.5,0,0,1-2.12,2.12l-5.5-5.5a1.5,1.5,0,0,1,0-2.12l5.5-5.5a1.5,1.5,0,0,1,2.12,2.12l-3,3h.07c6.38,0,10.55,2.65,13.13,8.29A1.5,1.5,0,0,1,18.58,19.55Z"/>
    </g>
    <g id="gear">
      <g id="space-9" data-name="space">
        <rect width="24" height="24" style="fill: none"/>
      </g>
      <g id="_Group_" data-name="&lt;Group&gt;">
        <path d="M3.3,13.87l-.37-.09A1.85,1.85,0,0,1,1.51,12s0,0,0,0a1.85,1.85,0,0,1,1.43-1.76l.37-.09A1.92,1.92,0,0,0,4.6,9l0-.07a1.92,1.92,0,0,0-.1-1.74l-.19-.32a1.85,1.85,0,0,1,.24-2.26l0,0a1.85,1.85,0,0,1,2.26-.24l.32.19a1.92,1.92,0,0,0,1.74.1L9,4.6a1.92,1.92,0,0,0,1.16-1.3l.09-.37A1.85,1.85,0,0,1,12,1.51h0a1.85,1.85,0,0,1,1.76,1.43l.09.37A1.92,1.92,0,0,0,15,4.6l.07,0a1.92,1.92,0,0,0,1.74-.1l.32-.19a1.85,1.85,0,0,1,2.26.24l0,0a1.85,1.85,0,0,1,.24,2.26l-.19.32a1.92,1.92,0,0,0-.1,1.74l0,.07a1.92,1.92,0,0,0,1.3,1.16l.37.09A1.85,1.85,0,0,1,22.5,12s0,0,0,0a1.85,1.85,0,0,1-1.43,1.76l-.37.09A1.92,1.92,0,0,0,19.4,15l0,.07a1.92,1.92,0,0,0,.1,1.74l.19.32a1.85,1.85,0,0,1-.24,2.26l0,0a1.85,1.85,0,0,1-2.26.24l-.32-.19a1.92,1.92,0,0,0-1.74-.1l-.07,0a1.92,1.92,0,0,0-1.16,1.3l-.09.37A1.85,1.85,0,0,1,12,22.49h0a1.85,1.85,0,0,1-1.76-1.43l-.09-.37A1.92,1.92,0,0,0,9,19.4l-.07,0a1.92,1.92,0,0,0-1.74.1l-.32.19a1.85,1.85,0,0,1-2.26-.24l0,0a1.85,1.85,0,0,1-.24-2.26l.19-.32a1.92,1.92,0,0,0,.1-1.74l0-.07A1.92,1.92,0,0,0,3.3,13.87ZM12,7a5,5,0,1,0,5,5A5,5,0,0,0,12,7Z"/>
      </g>
    </g>
    <g id="exit">
      <g id="space-10" data-name="space">
        <rect width="24" height="24" style="fill: none"/>
      </g>
      <path d="M11,21H5.5A2.5,2.5,0,0,1,3,18.5V6.5A2.5,2.5,0,0,1,5.5,4H11V7H6V18h5Zm4.56-.44-2.12-2.12L17.88,14H9V11h8.88L13.44,6.56l2.12-2.12,7,7a1.5,1.5,0,0,1,0,2.12Z"/>
    </g>
    <g id="sent-message">
      <rect id="space-11" data-name="space" width="24" height="24" style="fill: none"/>
      <path d="M24,8v9a2,2,0,0,1-2,2H9a2,2,0,0,1-2-2V16H4V14H7V12H0V10H7V8H2V6H22A2,2,0,0,1,24,8ZM22,9.37l-6.5,3L9,9.37v2.21l6.5,3,6.5-3Z" style="fill-rule: evenodd"/>
    </g>
    <g id="arrow-down">
      <rect width="24" height="24" style="fill: none"/>
      <polygon points="12 16.41 6.29 10.71 7.71 9.29 12 13.59 16.29 9.29 17.71 10.71 12 16.41"/>
    </g>
    <g id="arrow-up">
      <rect width="24" height="24" transform="translate(24 24) rotate(-180)" style="fill: none"/>
      <polygon points="12 7.59 17.71 13.29 16.29 14.71 12 10.41 7.71 14.71 6.29 13.29 12 7.59"/>
    </g>
    <g id="cross">
      <rect id="space-12" data-name="space" width="24" height="24" style="fill: none"/>
      <polygon points="13 5 11 5 11 11 5 11 5 13 11 13 11 19 13 19 13 13 19 13 19 11 13 11 13 5"/>
    </g>
    <g id="unread-circle">
      <rect id="space-13" data-name="space" width="24" height="24" style="fill: none"/>
      <circle cx="12" cy="12" r="4" style="fill: #ff0014"/>
    </g>
    <g id="messages">
      <rect id="space-14" data-name="space" width="24" height="24" style="fill: none"/>
      <path d="M15,8H2a2,2,0,0,0-2,2v9a2,2,0,0,0,2,2H15a2,2,0,0,0,2-2V10A2,2,0,0,0,15,8ZM2,13.57l6.5,3,6.5-3V11.37l-6.5,3-6.5-3ZM24,6v9a2,2,0,0,1-2,2H18V12.18l4-1.87V8.1L18,10a3,3,0,0,0-3-3H7V6A2,2,0,0,1,9,4H22A2,2,0,0,1,24,6Z" style="fill-rule: evenodd"/>
    </g>
    <g id="delete">
      <rect id="space-15" data-name="space" width="24" height="24" style="fill: none"/>
      <path d="M15,4H9V3a1,1,0,0,1,1-1h4a1,1,0,0,1,1,1Zm4,2V7H18V19a2,2,0,0,1-2,2H8a2,2,0,0,1-2-2V7H5V6A1,1,0,0,1,6,5H18A1,1,0,0,1,19,6ZM10.5,9h-1v9h1Zm4,0h-1v9h1Z"/>
    </g>
    <g id="comments">
      <rect id="space-16" data-name="space" width="24" height="24" style="fill: none"/>
      <path id="comment" d="M4,3H15a2,2,0,0,1,2,2v9H6L2,18V5A2,2,0,0,1,4,3ZM20,8H19v8H7v1a2,2,0,0,0,2,2h9l4,4V10A2,2,0,0,0,20,8Z" style="fill-rule: evenodd"/>
    </g>
    <g id="comment-2" data-name="comment">
      <rect id="space-17" data-name="space" width="24" height="24" style="fill: none"/>
      <path d="M4,4H20a2,2,0,0,1,2,2V16a2,2,0,0,1-2,2H6L2,22V6A2,2,0,0,1,4,4Z" style="fill-rule: evenodd"/>
    </g>
    <g id="search">
      <rect id="space-18" data-name="space" width="24" height="24" style="fill: none"/>
      <path d="M10,16.5A6.5,6.5,0,1,1,16.5,10,6.51,6.51,0,0,1,10,16.5Zm0-11A4.5,4.5,0,1,0,14.5,10,4.5,4.5,0,0,0,10,5.5ZM19.41,21,21,19.41,16.58,15,15,16.58Z"/>
    </g>
    <g>
      <rect width="24" height="24" style="fill: none"/>
      <path d="M19,21H4V18H19Zm-7.5-3.38L3.44,9.56,5.56,7.44,10,11.88V3h3v8.88l4.44-4.44,2.12,2.12Z"/>
    </g>
    <g id="menu">
      <rect id="space-19" data-name="space" width="24" height="24" style="fill: none"/>
      <path d="M21,13H3V11H21Zm0-7H3V8H21Zm0,10H3v2H21Z"/>
    </g>
    <g id="filter">
      <rect width="24" height="24" style="fill: none"/>
      <polygon points="11 21 9 21 9 12.41 2.29 5.71 3 4 21 4 21.71 5.71 15 12.41 15 17 13 17 13 11.59 18.59 6 5.41 6 11 11.59 11 21"/>
    </g>
  </g>
</svg>
