<?xml version="1.0" encoding="utf-8"?>
<!-- Generator: Adobe Illustrator 19.0.0, SVG Export Plug-In . SVG Version: 6.00 Build 0)  -->
<svg version="1.1" id="icn16" xmlns="http://www.w3.org/2000/svg" xmlns:xlink="http://www.w3.org/1999/xlink" x="0px" y="0px"
	 viewBox="0 0 16 16" enable-background="new 0 0 16 16" xml:space="preserve">
<g id="replied">
	<rect id="space_223_" fill="none" width="16" height="16"/>
	<rect id="space_206_" y="0" fill="none" width="16" height="16"/>
	<path id="XMLID_2_" d="M11.886,12.366C10.497,9.32,8.423,8.018,4.952,8.01H4.924l1.783,1.783c0.391,0.391,0.391,1.023,0,1.414
		s-1.023,0.391-1.414,0l-3.5-3.5c-0.391-0.391-0.391-1.023,0-1.414l3.5-3.5c0.391-0.391,1.023-0.391,1.414,0s0.391,1.023,0,1.414
		L4.904,6.01h0.05c4.257,0.01,7.036,1.766,8.752,5.526c0.229,0.503,0.007,1.096-0.495,1.325
		C12.716,13.087,12.117,12.874,11.886,12.366z"/>
</g>
<g id="forwarded">
	<rect id="space_207_" fill="none" width="16" height="16"/>
	<g id="XMLID_3_">
		<path id="XMLID_4_" d="M8,13.5c-0.552,0-1-0.447-1-1V5.914L5.207,7.707c-0.391,0.391-1.023,0.391-1.414,0s-0.391-1.023,0-1.414
			l3.5-3.5c0.391-0.391,1.023-0.391,1.414,0l3.5,3.5c0.391,0.391,0.391,1.023,0,1.414s-1.023,0.391-1.414,0L9,5.914V12.5
			C9,13.053,8.552,13.5,8,13.5z"/>
	</g>
</g>
<g id="retract">
	<rect id="space_658_" fill="none" width="16" height="16"/>
	<path id="XMLID_5_" d="M10,5.422V4.5C10,4.224,9.776,4,9.5,4H8.52C8.618,2.454,9.22,2,11,2c0.276,0,0.5-0.224,0.5-0.5
		S11.276,1,11,1C8.662,1,7.66,1.863,7.527,4H6.5C6.224,4,6,4.224,6,4.5v0.922C4.236,6.194,3,7.951,3,10c0,2.761,2.239,5,5,5
		s5-2.239,5-5C13,7.951,11.764,6.194,10,5.422z M8,13.5c-1.93,0-3.5-1.57-3.5-3.5c0-1.93,1.57-3.5,3.5-3.5s3.5,1.57,3.5,3.5
		C11.5,11.93,9.93,13.5,8,13.5z M9.768,11.061c0.195,0.195,0.195,0.512,0,0.707c-0.098,0.098-0.226,0.146-0.354,0.146
		s-0.256-0.049-0.354-0.146L7.5,10.207V8c0-0.276,0.224-0.5,0.5-0.5S8.5,7.724,8.5,8v1.793L9.768,11.061z"/>
</g>
<g id="bin">
	<rect id="space_151_" fill="none" width="16" height="16"/>
	<path id="XMLID_9_" d="M10,2H6V1h4V2z M3,3h10v1h-1v8c0,1.105-0.895,2-2,2H6c-1.105,0-2-0.895-2-2V4H3V3z M7,5.667H6V12h1V5.667z
		 M10,5.667H9V12h1V5.667z"/>
</g>
<g id="printer">
	<rect id="space_554_" fill="none" width="16" height="16"/>
	<path id="XMLID_14_" d="M11,5H5V3h6V5z M14,7c0,0.552-0.448,1-1,1s-1-0.448-1-1s0.448-1,1-1S14,6.448,14,7z M11,13H5V9h6V13z M15,7
		c0-1.105-0.895-2-2-2h-1V2H4v3H3C1.895,5,1,5.895,1,7v5h3v2h8v-2h3V7z"/>
</g>
<g id="message">
	<rect id="space_514_" fill="none" width="16" height="16"/>
	<path id="XMLID_18_" fill-rule="evenodd" clip-rule="evenodd" d="M13.5,3h-11C1.672,3,1,3.672,1,4.5v8C1,13.328,1.672,14,2.5,14h11
		c0.828,0,1.5-0.672,1.5-1.5v-8C15,3.672,14.328,3,13.5,3z M2.5,7.764L8,10.327l5.5-2.563V6.11L8,8.673L2.5,6.11V7.764z"/>
</g>
<g id="more">
	<rect id="space_15_" fill="none" width="16" height="16"/>
	<path id="XMLID_21_" d="M9.5,8c0,0.828-0.672,1.5-1.5,1.5S6.5,8.828,6.5,8S7.172,6.5,8,6.5S9.5,7.172,9.5,8z M8,11.5
		c-0.828,0-1.5,0.672-1.5,1.5s0.672,1.5,1.5,1.5s1.5-0.672,1.5-1.5S8.828,11.5,8,11.5z M8,1.5C7.172,1.5,6.5,2.172,6.5,3
		S7.172,4.5,8,4.5S9.5,3.828,9.5,3S8.828,1.5,8,1.5z"/>
</g>
<g id="alert">
	<rect id="space_642_" fill="none" width="16" height="16"/>
	<path id="XMLID_22_" fill-rule="evenodd" clip-rule="evenodd" d="M9.299,2.394l5.402,9.356c0.577,1-0.144,2.25-1.299,2.25H2.598
		c-1.155,0-1.876-1.25-1.299-2.25l5.402-9.356C7.278,1.394,8.722,1.394,9.299,2.394z M9,5H7v5h2V5z M9,13H7v-2h2V13z"/>
</g>
<g id="exit">
	<g id="space_320_">
		<rect fill="none" width="16" height="16"/>
	</g>
	<path id="XMLID_23_" d="M8,14H4c-1.103,0-2-0.897-2-2V4c0-1.103,0.897-2,2-2h4v2H4v8h4V14z M10.707,12.707l-1.414-1.414L11.586,9H6
		V7h5.586L9.293,4.707l1.414-1.414l4,4c0.391,0.391,0.391,1.023,0,1.414L10.707,12.707z"/>
</g>
<g id="enter">
	<g id="space_312_">
		<rect fill="none" width="16" height="16"/>
	</g>
	<path id="XMLID_26_" d="M12,14H8v-2h4V4H8V2h4c1.103,0,2,0.897,2,2v8C14,13.103,13.103,14,12,14z M5.707,12.707l-1.414-1.414
		L6.586,9H2V7h4.586L4.293,4.707l1.414-1.414l4,4c0.391,0.391,0.391,1.023,0,1.414L5.707,12.707z"/>
</g>
<g id="eye-open">
	<rect id="space_666_" fill="none" width="16" height="16"/>
	<path id="XMLID_29_" d="M6.5,6.5c-0.552,0-1,0.448-1,1s0.448,1,1,1s1-0.448,1-1S7.052,6.5,6.5,6.5z M8,5
		c1.196,0,2.545,0.375,3.597,1.28C11.848,6.803,12,7.381,12,8s-0.152,1.197-0.403,1.72C10.545,10.625,9.196,11,8,11
		s-2.545-0.375-3.597-1.28C4.152,9.197,4,8.619,4,8c0-0.619,0.152-1.197,0.403-1.72C5.455,5.375,6.804,5,8,5z M8,4
		c2.113,0,4.893,1.055,5.947,4c-1.054,2.945-3.833,4-5.947,4s-4.893-1.055-5.947-4C3.107,5.055,5.887,4,8,4 M8,3
		C5.01,3,2.02,4.667,1,8c1.02,3.333,4.01,5,7,5s5.98-1.667,7-5C13.98,4.667,10.99,3,8,3L8,3z"/>
</g>
<g id="add-to-place">
	<rect id="space_730_" fill="none" width="16" height="16"/>
	<path id="XMLID_33_" d="M12,14H8v-2h4V4H8V2h4c1.103,0,2,0.897,2,2v8C14,13.103,13.103,14,12,14z M7,12H5V9H2V7h3V4h2v3h3v2H7V12z"
		/>
</g>
<g id="remove-from-place">
	<rect id="space_738_" fill="none" width="16" height="16"/>
	<path id="XMLID_36_" d="M8,14H4c-1.103,0-2-0.897-2-2V4c0-1.103,0.897-2,2-2h4v2H4v8h4V14z M14,9H6V7h8V9z"/>
</g>
<g id="ignor-place">
	<rect fill="none" width="16" height="16"/>
	<path id="XMLID_39_" d="M12,14H9v-2h3V4H9V2h3c1.103,0,2,0.897,2,2v8C14,13.102,13.103,14,12,14z M8.122,11.535L6,9.414
		l-2.122,2.121l-1.414-1.414L4.585,8L2.464,5.879l1.414-1.414L6,6.586l2.122-2.121l1.414,1.414L7.415,8l2.121,2.121L8.122,11.535z"
		/>
</g>
<g id="messages">
	<rect id="space_426_" fill="none" width="16" height="16"/>
	<path id="XMLID_42_" d="M10.667,5H1.333C0.597,5,0,5.597,0,6.333v6.333C0,13.403,0.597,14,1.333,14h9.333
		C11.403,14,12,13.403,12,12.667V6.333C12,5.597,11.403,5,10.667,5L10.667,5z M10.5,7.67v1.47L6,11.24L1.5,9.13V7.67L6,9.76
		L10.5,7.67z M16,3.333v6.333C16,10.403,15.403,11,14.667,11H13V7.979l1.5-0.699V5.81L13,6.507V6.333C13,5.047,11.953,4,10.667,4H4
		V3.333C4,2.597,4.597,2,5.333,2h9.333C15.403,2,16,2.597,16,3.333z"/>
</g>
<g id="bookmarked-message">
	<path id="XMLID_46_" d="M14,5.33v6.34C14,12.4,13.4,13,12.67,13H3.33C2.6,13,2,12.4,2,11.67V5.33C2,4.6,2.6,4,3.33,4H8v7l2-2l2,2V4
		h0.67C13.4,4,14,4.6,14,5.33z"/>
	<rect id="space_17_" fill="none" width="16" height="16"/>
</g>
<g id="sent-message">
	<rect id="space_336_" fill="none" width="16" height="16"/>
	<path id="XMLID_47_" fill-rule="evenodd" clip-rule="evenodd" d="M1,5V4h13.5C15.328,4,16,4.672,16,5.5v6
		c0,0.828-0.672,1.5-1.5,1.5h-9C4.672,13,4,12.328,4,11.5V9H2V8h2V7H0V6h4V5H1z M14.5,6.529L10,8.436L5.5,6.529v1.629l4.5,1.906
		l4.5-1.906V6.529z"/>
</g>
<g id="sort">
	<rect id="space_63_" fill="none" width="16" height="16"/>
	<path id="XMLID_50_" d="M11,9H1V7h10V9z M15,3H1v2h14V3z M7,11H1v2h6V11z"/>
</g>
<g id="expand">
	<rect id="space_818_" fill="none" width="16" height="16"/>
	<path id="XMLID_51_" d="M14,2.75V7h-1.5V4.561L10.061,7L9,5.939L11.439,3.5H9V2h4.25C13.664,2,14,2.336,14,2.75z M2,13.25V9h1.5
		v2.439L5.939,9L7,10.061L4.561,12.5H7V14H2.75C2.336,14,2,13.664,2,13.25z"/>
</g>
<g id="collapse">
	<rect id="space_810_" fill="none" width="16" height="16"/>
	<path id="XMLID_53_" d="M9,6.25V2h1.5v2.439L12.939,2L14,3.061L11.561,5.5H14V7H9.75C9.336,7,9,6.664,9,6.25z M7,9.75V14H5.5
		v-2.439L3.061,14L2,12.939L4.439,10.5H2V9h4.25C6.664,9,7,9.336,7,9.75z"/>
</g>
<g id="comment">
	<rect id="space_4_" fill="none" width="16" height="16"/>
	<path id="XMLID_54_" fill-rule="evenodd" clip-rule="evenodd" d="M16,9L16,9c0,2.209-1.791,4-4,4H4c-2.209,0-4-1.791-4-4V1l4,4h8
		C14.209,5,16,6.791,16,9z M12,10.25c0.69,0,1.25-0.56,1.25-1.25S12.69,7.75,12,7.75S10.75,8.31,10.75,9S11.31,10.25,12,10.25z
		 M8,10.25c0.69,0,1.25-0.56,1.25-1.25S8.69,7.75,8,7.75S6.75,8.31,6.75,9S7.31,10.25,8,10.25z M4,10.25c0.69,0,1.25-0.56,1.25-1.25
		S4.69,7.75,4,7.75S2.75,8.31,2.75,9S3.31,10.25,4,10.25z"/>
</g>
<g id="arrow">
	<g id="space_47_">
		<rect fill="none" width="16" height="16"/>
	</g>
	<g id="path_2_">
		<polygon id="XMLID_57_" points="8,11.414 3.293,6.707 4.707,5.293 8,8.586 11.293,5.293 12.707,6.707"/>
	</g>
</g>
<g id="gear">
	<rect id="space_231_" fill="none" width="16" height="16"/>
	<path id="XMLID_359_" d="M11.125,8c0,1.726-1.399,3.125-3.125,3.125S4.875,9.726,4.875,8S6.274,4.875,8,4.875
		S11.125,6.274,11.125,8z M13.164,10.178c0.009-0.022,0.019-0.045,0.028-0.067c0.143-0.352,0.428-0.627,0.792-0.736l0.64-0.191
		c0.519-0.155,0.875-0.632,0.876-1.173c0-0.006,0-0.013,0-0.019c-0.001-0.541-0.358-1.018-0.876-1.173l-0.639-0.191
		c-0.365-0.109-0.649-0.385-0.793-0.738c-0.009-0.022-0.018-0.045-0.028-0.067c-0.148-0.35-0.141-0.746,0.039-1.081l0.317-0.588
		c0.257-0.476,0.172-1.066-0.21-1.449c-0.004-0.004-0.009-0.009-0.013-0.013c-0.383-0.382-0.973-0.467-1.449-0.21L11.26,2.797
		c-0.335,0.181-0.732,0.187-1.082,0.039c-0.022-0.009-0.045-0.019-0.067-0.028C9.759,2.665,9.483,2.38,9.374,2.016l-0.191-0.64
		C9.028,0.858,8.551,0.501,8.009,0.5c-0.006,0-0.013,0-0.019,0C7.449,0.501,6.972,0.858,6.817,1.376L6.626,2.015
		C6.517,2.38,6.241,2.665,5.888,2.808C5.866,2.817,5.843,2.827,5.821,2.836C5.471,2.984,5.075,2.977,4.74,2.797L4.153,2.48
		C3.676,2.223,3.087,2.308,2.703,2.69C2.699,2.694,2.695,2.699,2.69,2.703C2.308,3.087,2.223,3.676,2.48,4.153L2.797,4.74
		c0.181,0.335,0.187,0.732,0.039,1.082C2.826,5.844,2.817,5.867,2.808,5.889C2.665,6.241,2.38,6.517,2.016,6.626l-0.64,0.191
		C0.858,6.972,0.501,7.449,0.5,7.991c0,0.006,0,0.013,0,0.019c0.001,0.541,0.358,1.018,0.876,1.173l0.639,0.191
		c0.365,0.109,0.649,0.385,0.793,0.738c0.009,0.022,0.018,0.045,0.028,0.067c0.148,0.35,0.141,0.746-0.039,1.081L2.48,11.847
		c-0.257,0.476-0.172,1.066,0.21,1.449c0.004,0.004,0.009,0.009,0.013,0.013c0.383,0.382,0.973,0.467,1.449,0.21l0.587-0.317
		c0.335-0.181,0.732-0.187,1.082-0.039c0.022,0.009,0.045,0.019,0.067,0.028c0.352,0.143,0.627,0.428,0.736,0.792l0.191,0.64
		c0.155,0.519,0.632,0.875,1.173,0.876c0.006,0,0.013,0,0.019,0c0.541-0.001,1.018-0.358,1.173-0.876l0.191-0.639
		c0.109-0.365,0.385-0.649,0.738-0.793c0.022-0.009,0.045-0.018,0.067-0.028c0.35-0.148,0.746-0.141,1.081,0.039l0.588,0.317
		c0.476,0.257,1.066,0.172,1.449-0.21c0.004-0.004,0.009-0.009,0.013-0.013c0.382-0.383,0.467-0.973,0.21-1.449l-0.317-0.587
		C13.023,10.925,13.016,10.529,13.164,10.178z"/>
</g>
<g id="brick-wall">
	<rect id="space_167_" fill="none" width="16" height="16"/>
	<path d="M1,4v8c0,1.105,0.895,2,2,2h10c1.105,0,2-0.895,2-2V4c0-1.105-0.895-2-2-2H3C1.895,2,1,2.895,1,4z M3,4h5
		v2H3V4z M10,9H6V7h4V9z M3,7h2v2H3V7z M3,12v-2h4v2H3z M13,12H8v-2h5V12z M13,9h-2V7h2V9z M13,6H9V4h4V6z"/>
</g>
<g id="window">
	<rect id="space_175_" fill="none" width="16" height="16"/>
	<linearGradient id="SVGID_1_" gradientUnits="userSpaceOnUse" x1="8" y1="12" x2="8" y2="4">
		<stop  offset="0" style="stop-color:#FFFFFF"/>
		<stop  offset="1" style="stop-color:#000000"/>
	</linearGradient>
	<rect x="3" y="4" opacity="0.2" fill="url(#SVGID_1_)" width="10" height="8"/>
	<path id="XMLID_56_" d="M1,4v8c0,1.105,0.895,2,2,2h10c1.105,0,2-0.895,2-2V4c0-1.105-0.895-2-2-2H3C1.895,2,1,2.895,1,4z M3,4h10
		v8H3V4z M8.09,9.09L7.91,8.91l4-4l0.181,0.18L8.09,9.09z M8.09,11.09L7.91,10.91l4-4l0.181,0.18L8.09,11.09z"/>
</g>
<g id="places">
	<rect id="space_401_" fill="none" width="16" height="16"/>
	<path id="XMLID_60_" d="M13,14H3c-1.105,0-2-0.895-2-2V4c0-1.105,0.895-2,2-2h10c1.105,0,2,0.895,2,2v8C15,13.105,14.105,14,13,14z
		 M3.509,10c1.183,0,2.24,0.578,3.076,1.414C6.948,11.776,7.448,12,8,12h0c0.552,0,1.052-0.224,1.414-0.586
		C10.25,10.578,11.308,10,12.491,10H13V4H3v6H3.509z"/>
</g>
<g id="earth">
	<rect id="space_19_" fill="none" width="16" height="16"/>
	<path id="XMLID_62_" d="M8,1.5C4.41,1.5,1.5,4.41,1.5,8s2.91,6.5,6.5,6.5s6.5-2.91,6.5-6.5S11.59,1.5,8,1.5z M3.5,8
		c0-0.68,0.163-1.318,0.434-1.896C4.173,6.197,4.4,6.341,4.539,6.562C4.624,6.68,4.675,6.824,4.776,6.934
		C4.869,7.044,5.03,7.12,5.165,7.061C5.157,7.018,5.157,6.976,5.148,6.934c0.034-0.042,0.11,0.008,0.135,0.068
		c0.178,0.423-0.33,0.846-0.33,1.312c0,0.339,0.271,0.609,0.381,0.931c0.042,0.127,0.059,0.271,0.127,0.381
		c0.127,0.22,0.398,0.305,0.584,0.482c0.288,0.288,0.288,0.745,0.313,1.151c0.025,0.33,0.092,0.657,0.18,0.978
		C4.777,11.625,3.5,9.967,3.5,8z M8,12.5c-0.228,0-0.447-0.034-0.666-0.067c0.231-0.075,0.478-0.176,0.564-0.396
		c0.245-0.034,0.415-0.254,0.533-0.465c0.11-0.22,0.203-0.465,0.389-0.618c0.288-0.254,0.795-0.296,0.905-0.66
		c0.042-0.118,0.017-0.254,0.042-0.372C9.802,9.692,9.98,9.489,10.2,9.422c0.059-0.017,0.127-0.034,0.161-0.085
		c0.025-0.051,0.017-0.102,0.008-0.152c-0.042-0.169-0.076-0.339-0.118-0.516C9.98,8.474,9.633,8.415,9.312,8.313
		c-0.313-0.102-0.609-0.237-0.88-0.406c0.017-0.33-0.279-0.643-0.609-0.652c-0.068,0-0.144,0.008-0.203-0.017
		C7.56,7.205,7.518,7.12,7.56,7.069C7.408,7.095,7.238,7.01,7.171,6.866C7.162,6.832,7.145,6.798,7.12,6.773
		C7.086,6.756,7.052,6.748,7.018,6.748C6.722,6.722,6.418,6.705,6.122,6.68C5.825,6.655,5.445,6.688,5.36,6.968
		c-0.076-0.051-0.161-0.11-0.245-0.169C5.055,6.832,4.988,6.858,4.928,6.892c-0.11-0.203-0.118-0.448-0.025-0.66
		C4.818,6.138,4.692,6.088,4.565,6.088c0-0.093,0.051-0.178,0.093-0.262c0.051-0.085,0.085-0.186,0.051-0.271
		C4.666,5.462,4.522,5.436,4.48,5.521C4.463,5.546,4.472,5.588,4.463,5.614c-0.034,0.118-0.21,0.135-0.295,0.059
		c0.219-0.36,0.484-0.685,0.792-0.969c0.026-0.002,0.052-0.012,0.079-0.012c0.118-0.008,0.279,0.051,0.279,0.161
		c0-0.017,0.008-0.025,0-0.042c0.025,0.068,0.076,0.127,0.127,0.161c0.099-0.244,0.151-0.509,0.168-0.77
		c0.053-0.033,0.111-0.058,0.165-0.09c0.211-0.012,0.41-0.114,0.543-0.279C6.841,3.622,7.406,3.5,8,3.5
		c0.732,0,1.414,0.192,2.026,0.504c0.004,0.034,0.01,0.062,0.005,0.112c-0.017,0.212-0.152,0.339-0.262,0.482
		c0.034,0.144,0.152,0.322,0.178,0.44c0.017,0.059-0.042,0.178-0.025,0.22c0.042,0.118,0.161,0.144,0.254,0.245
		C9.929,5.8,10.124,6.147,10.352,6.409c0.152,0.195,0.398,0.305,0.55,0.499c0.034,0.051,0,0.118,0.034,0.169
		c0.076,0.102,0.186,0.169,0.262,0.271c0.288-0.11,0.178-0.127,0.508-0.008c0.102-0.11,0.338-0.321,0.525-0.305
		c0.078,0.004,0.133,0.029,0.178,0.061C12.468,7.388,12.5,7.69,12.5,8C12.5,10.481,10.481,12.5,8,12.5z"/>
</g>
<g id="cross">
	<rect id="space_39_" fill="none" width="16" height="16"/>
	<polygon id="XMLID_66_" points="9,2 7,2 7,7 2,7 2,9 7,9 7,14 9,14 9,9 14,9 14,7 9,7 "/>
</g>
<g id="crown">
	<rect id="space_247_" fill="none" width="16" height="16"/>
	<g id="XMLID_69_">
		<path id="XMLID_68_" d="M13,5.792c-0.92,0-1.667,0.746-1.667,1.667c0,0.515,0.239,0.97,0.606,1.276l-0.686,0.61
			c-0.641,0.57-1.646,0.395-2.056-0.358L8.499,7.707C9.174,7.494,9.667,6.87,9.667,6.125c0-0.92-0.746-1.667-1.667-1.667
			S6.333,5.205,6.333,6.125c0,0.745,0.493,1.369,1.167,1.582L6.803,8.986C6.392,9.739,5.388,9.914,4.747,9.344L4.06,8.734
			c0.367-0.306,0.606-0.761,0.606-1.276c0-0.92-0.746-1.667-1.667-1.667S1.333,6.538,1.333,7.458S2.08,9.125,3,9.125
			c0.058,0,0.112-0.011,0.169-0.017l0.349,2.728C3.603,12.502,4.169,13,4.84,13h6.321c0.671,0,1.237-0.498,1.322-1.164l0.349-2.728
			C12.888,9.114,12.942,9.125,13,9.125c0.92,0,1.667-0.746,1.667-1.667S13.92,5.792,13,5.792z"/>
	</g>
</g>
<g id="manager">
	<rect id="space_95_" fill="none" width="16" height="16"/>
	<path id="XMLID_70_" d="M12,13v2h-1v-2c0-0.55-0.45-1-1-1v3H6v-3c-0.55,0-1,0.45-1,1v2H4v-2c0-1.1,0.9-2,2-2h4
		C11.1,11,12,11.9,12,13z M11.75,2.594c-0.69,0-1.25,0.56-1.25,1.25c0,0.387,0.187,0.72,0.463,0.949L10.44,5.258
		C9.959,5.686,9.206,5.554,8.898,4.99l-0.529-0.97C8.876,3.86,9.25,3.403,9.25,2.844c0-0.69-0.56-1.25-1.25-1.25
		s-1.25,0.56-1.25,1.25c0,0.56,0.374,1.016,0.881,1.176L7.102,4.99C6.794,5.554,6.041,5.686,5.56,5.258L5.037,4.793
		C5.313,4.564,5.5,4.231,5.5,3.844c0-0.69-0.56-1.25-1.25-1.25S3,3.153,3,3.844s0.56,1.25,1.25,1.25
		c0.059,0,0.109-0.026,0.166-0.034L4.607,6.17C4.69,6.649,5.106,7,5.593,7h4.815c0.487,0,0.903-0.351,0.986-0.83l0.191-1.109
		c0.057,0.008,0.107,0.034,0.166,0.034c0.69,0,1.25-0.56,1.25-1.25S12.44,2.594,11.75,2.594z M8,10.5c1.38,0,2.5-1.12,2.5-2.5h-5
		C5.5,9.38,6.62,10.5,8,10.5z"/>
</g>
<g id="manager-member">
	<rect id="space_103_" fill="none" width="16" height="16"/>
	<path id="XMLID_74_" d="M15,13v2h-1v-2c0-0.55-0.45-1-1-1v3H9v-3H7v3H3v-3c-0.55,0-1,0.45-1,1v2H1v-2c0-1.1,0.9-2,2-2h10
		C14.1,11,15,11.9,15,13z M1.416,5.06L1.607,6.17C1.69,6.649,2.106,7,2.593,7h4.815C7.894,7,8.31,6.649,8.393,6.17L8.584,5.06
		C8.641,5.068,8.691,5.094,8.75,5.094c0.69,0,1.25-0.56,1.25-1.25s-0.56-1.25-1.25-1.25S7.5,3.153,7.5,3.844
		c0,0.387,0.187,0.72,0.463,0.949L7.44,5.258C6.959,5.686,6.206,5.554,5.898,4.99l-0.529-0.97C5.876,3.86,6.25,3.403,6.25,2.844
		c0-0.69-0.56-1.25-1.25-1.25s-1.25,0.56-1.25,1.25c0,0.56,0.374,1.016,0.881,1.176L4.102,4.99C3.794,5.554,3.041,5.686,2.56,5.258
		L2.037,4.793C2.313,4.564,2.5,4.231,2.5,3.844c0-0.69-0.56-1.25-1.25-1.25S0,3.153,0,3.844s0.56,1.25,1.25,1.25
		C1.309,5.094,1.359,5.068,1.416,5.06z M5,10.5c1.38,0,2.5-1.12,2.5-2.5h-5C2.5,9.38,3.62,10.5,5,10.5z M8.5,8
		c0,1.381,1.119,2.5,2.5,2.5c1.381,0,2.5-1.119,2.5-2.5c0-1.381-1.119-2.5-2.5-2.5C9.619,5.5,8.5,6.619,8.5,8z"/>
</g>
<g id="member">
	<rect id="space_87_" fill="none" width="16" height="16"/>
	<path id="XMLID_79_" d="M6,15v-3c-0.55,0-1,0.45-1,1v2H4v-2c0-1.1,0.9-2,2-2h4c1.1,0,2,0.9,2,2v2h-1v-2c0-0.55-0.45-1-1-1v3H6z
		 M8,5.5C6.619,5.5,5.5,6.619,5.5,8s1.119,2.5,2.5,2.5s2.5-1.119,2.5-2.5S9.381,5.5,8,5.5z"/>
</g>
<g id="team">
	<rect id="space_111_" fill="none" width="16" height="16"/>
	<path id="XMLID_81_" d="M16,13v2h-1v-2c0-0.55-0.45-1-1-1v3h-3v-3h-1v3H6v-3H5v3H2v-3c-0.55,0-1,0.45-1,1v2H0v-2c0-1.1,0.9-2,2-2
		h12C15.1,11,16,11.9,16,13z M13,10.25c1.243,0,2.25-1.007,2.25-2.25c0-1.243-1.007-2.25-2.25-2.25c-1.243,0-2.25,1.007-2.25,2.25
		C10.75,9.243,11.757,10.25,13,10.25z M8,10.25c1.243,0,2.25-1.007,2.25-2.25c0-1.243-1.007-2.25-2.25-2.25
		C6.757,5.75,5.75,6.757,5.75,8C5.75,9.243,6.757,10.25,8,10.25z M3,10.25c1.243,0,2.25-1.007,2.25-2.25
		c0-1.243-1.007-2.25-2.25-2.25C1.757,5.75,0.75,6.757,0.75,8C0.75,9.243,1.757,10.25,3,10.25z"/>
</g>
<g id="search">
	<rect id="space_22_" fill="none" width="16" height="16"/>
	<path id="XMLID_86_" d="M14,12.939l-3.34-3.34C11.184,8.864,11.5,7.97,11.5,7c0-2.481-2.019-4.5-4.5-4.5C4.519,2.5,2.5,4.519,2.5,7
		c0,2.481,2.019,4.5,4.5,4.5c0.97,0,1.864-0.316,2.599-0.84l3.34,3.34c0.293,0.293,0.768,0.293,1.061,0
		C14.293,13.707,14.293,13.232,14,12.939z M4,7c0-1.654,1.346-3,3-3s3,1.346,3,3s-1.346,3-3,3S4,8.654,4,7z"/>
</g>
<g id="person">
	<rect id="space_255_" fill="none" width="16" height="16"/>
	<path id="XMLID_89_" d="M12,12v2H4v-2c0-0.89,0.39-1.69,1.01-2.23C5.79,10.54,6.85,11,8,11s2.21-0.46,2.99-1.23
		C11.61,10.31,12,11.11,12,12z M10.576,4.97l-0.293,2.05C10.121,8.156,9.148,9,8,9h0C6.852,9,5.879,8.156,5.717,7.02L5.424,4.97
		C5.2,3.402,6.417,2,8,2h0C9.583,2,10.8,3.402,10.576,4.97z M10.576,4.97l-0.293,2.05C10.121,8.156,9.148,9,8,9h0
		C6.852,9,5.879,8.156,5.717,7.02L5.424,4.97C5.2,3.402,6.417,2,8,2h0C9.583,2,10.8,3.402,10.576,4.97z"/>
</g>
<g id="small-face-wire">
	<path id="XMLID_90_" opacity="0.16" d="M8,15.25c-6.947,0-7.75-4.138-7.75-7.25S1.053,0.75,8,0.75S15.75,4.888,15.75,8
		S14.947,15.25,8,15.25z"/>
	<rect id="space_779_" fill="none" width="16" height="16"/>
	<path id="XMLID_91_" d="M7,6.5C7,7.328,6.328,8,5.5,8S4,7.328,4,6.5S4.672,5,5.5,5S7,5.672,7,6.5z M10.5,5C9.672,5,9,5.672,9,6.5
		S9.672,8,10.5,8S12,7.328,12,6.5S11.328,5,10.5,5z M8,15.25c-6.947,0-7.75-4.138-7.75-7.25S1.053,0.75,8,0.75S15.75,4.888,15.75,8
		S14.947,15.25,8,15.25z M8,2.25C2.813,2.25,1.75,4.549,1.75,8S2.813,13.75,8,13.75s6.25-2.299,6.25-5.75S13.187,2.25,8,2.25z
		 M8,12.25c-2.179,0-4.25-0.315-4.651-2.603C3.277,9.239,3.55,8.851,3.958,8.779c0.405-0.073,0.796,0.2,0.868,0.608
		C4.938,10.026,5.065,10.75,8,10.75c2.222,0,2.993-0.331,3.174-1.362c0.072-0.408,0.465-0.682,0.868-0.608
		c0.408,0.071,0.681,0.46,0.609,0.868C12.195,12.25,9.466,12.25,8,12.25z"/>
</g>
<g id="atsign">
	<rect id="space_422_" fill="none" width="16" height="16"/>
	<g id="XMLID_95_">
		<path id="XMLID_96_" d="M8.21,15.009c-0.267,0-0.538-0.013-0.814-0.037c-4.172-0.368-6.729-3.414-6.363-7.579
			c0.351-3.98,3.623-6.721,7.579-6.365c3.824,0.337,5.303,2.338,5.844,3.5c0.809,1.735,0.636,3.921-0.429,5.439
			c-0.779,1.111-1.919,1.694-3.123,1.581c-0.628-0.095-1.091-0.368-1.387-0.798c-0.06-0.087-0.112-0.18-0.157-0.277
			c-0.79,0.647-1.826,0.983-3.104,0.756c-1.084-0.191-1.891-0.921-2.213-2C3.649,7.916,4.089,6.373,5.134,5.388
			c0.784-0.74,2.584-1.803,5.827-0.622c0.355,0.13,0.559,0.503,0.475,0.872c-0.15,0.658-0.293,1.315-0.41,1.868
			c-0.003,0.021-0.007,0.044-0.011,0.065c-0.014,0.065-0.029,0.13-0.045,0.195c-0.146,0.69-0.24,1.161-0.24,1.161
			c-0.14,0.646-0.03,0.895,0.022,0.972c0.021,0.03,0.084,0.122,0.33,0.16c0.858,0.072,1.443-0.566,1.716-0.954
			c0.639-0.91,0.979-2.483,0.298-3.944c-0.494-1.062-1.696-2.383-4.615-2.64C5.298,2.242,2.807,4.346,2.526,7.524
			c-0.297,3.373,1.62,5.654,5.003,5.953c1.221,0.108,2.309-0.071,3.237-0.54c0.371-0.188,0.821-0.037,1.008,0.332
			c0.187,0.37,0.038,0.821-0.332,1.008C10.477,14.764,9.393,15.009,8.21,15.009z M8.257,5.739c-0.857,0-1.572,0.248-2.095,0.74
			C5.421,7.179,5.284,8.148,5.479,8.799c0.11,0.37,0.38,0.837,1.037,0.953c2.117,0.37,2.818-1.639,2.995-2.34
			c0.089-0.42,0.195-0.918,0.311-1.438C9.262,5.817,8.737,5.739,8.257,5.739z"/>
	</g>
</g>
<g id="downloads">
	<rect id="space_821_" fill="none" width="16" height="16"/>
	<g id="XMLID_99_">
		<path id="XMLID_100_" d="M13,14H3v-2h10V14z M8,11.414L3.293,6.707l1.414-1.414L7,7.586V1h2v6.586l2.293-2.293l1.414,1.414
			L8,11.414z"/>
	</g>
</g>
<g id="bookmark-wire">
	<rect id="space_639_" fill="none" width="16" height="16"/>
	<polygon id="XMLID_103_" points="13,0 13,0 13,16 8,11 3,16 3,0 4,0 4,13.586 8,9.586 12,13.586 12,0 	"/>
</g>
<g id="heavy-tick">
	<rect fill="none" width="16" height="16"/>
	<polygon id="XMLID_104_" points="6,12.414 2.293,8.707 3.707,7.293 6,9.586 11.293,4.293 12.707,5.707 	"/>
</g>
<g id="exclamation-mark">
	<rect id="space_814_" fill="none" width="16" height="16"/>
	<path id="XMLID_105_" fill-rule="evenodd" clip-rule="evenodd" d="M8,11L8,11c-0.84,0-1.533-0.659-1.575-1.498L6.1,2.998
		C6.046,1.911,6.912,1,8,1h0c1.088,0,1.954,0.911,1.9,1.998L9.575,9.502C9.533,10.341,8.84,11,8,11z M8.5,12h-1
		C6.672,12,6,12.672,6,13.5v0C6,14.328,6.672,15,7.5,15h1c0.828,0,1.5-0.672,1.5-1.5v0C10,12.672,9.328,12,8.5,12z"/>
</g>
<g id="menu">
	<rect id="space" fill="none" width="16" height="16"/>
	<path id="XMLID_107_" d="M14,9H2V7h12V9z M14,4H2v2h12V4z M14,10H2v2h12V10z"/>
</g>
<g id="filter">
	<rect id="space_828_" fill="none" width="16" height="16"/>
	<g id="XMLID_108_">
		<polygon id="XMLID_109_" points="7,14 5,14 5,8.857 0.726,3.633 1.5,2 14.5,2 15.274,3.633 11,8.857 11,12 9,12 9,8.143 12.39,4
			3.61,4 7,8.143 		"/>
	</g>
</g>
<g id="forward">
	<rect id="space_653_" fill="none" width="16" height="16"/>
	<polygon id="XMLID_321_" points="3.5,7 8.5,2 13.5,7 10.167,7 8.5,14.333 6.833,7 	"/>
</g>
<g id="reply">
	<rect id="space_667_" fill="none" width="16" height="16"/>
	<path d="M14.333,12.533C13.658,8.703,10.83,5.842,7,5.167V2.5l-5,5l5,5V9.167C10.031,9.167,12.818,9.908,14.333,12.533z"/>
</g>
<g id="ask">
	<rect id="space_25_" fill="none" width="16" height="16"/>
	<path id="XMLID_110_" d="M15,8c0,3.866-3.134,7-7,7s-7-3.134-7-7s3.134-7,7-7S15,4.134,15,8z M8.398,9.305V8.982
		c0-0.215,0.045-0.388,0.137-0.521c0.091-0.133,0.309-0.326,0.652-0.58c0.501-0.358,0.842-0.681,1.021-0.967
		s0.269-0.627,0.269-1.021c0-0.591-0.218-1.063-0.652-1.418c-0.436-0.354-1.021-0.531-1.76-0.531c-0.895,0-1.741,0.224-2.54,0.671
		l0.585,1.177C6.796,5.441,7.41,5.266,7.947,5.266c0.308,0,0.547,0.062,0.719,0.184C8.837,5.57,8.923,5.748,8.923,5.98
		c0,0.208-0.06,0.396-0.18,0.564C8.624,6.713,8.376,6.932,8,7.199C7.61,7.486,7.341,7.757,7.195,8.011
		C7.047,8.265,6.974,8.564,6.974,8.908v0.396H8.398z M7.049,11.816c0.165,0.159,0.397,0.238,0.698,0.238
		c0.294,0,0.522-0.081,0.688-0.244s0.247-0.386,0.247-0.668c0-0.294-0.081-0.52-0.244-0.678c-0.163-0.157-0.394-0.236-0.69-0.236
		c-0.308,0-0.543,0.077-0.703,0.231c-0.162,0.154-0.242,0.382-0.242,0.683C6.802,11.432,6.884,11.657,7.049,11.816z"/>
</g>
<g id="xcross">
	<rect id="space_8_" fill="none" width="16" height="16"/>
	<polygon points="4.464,3.05 3.05,4.464 6.586,8 3.05,11.536 4.464,12.95 8,9.414 11.536,12.95 12.95,11.536 9.414,8 12.95,4.464
		11.536,3.05 8,6.586 	"/>
</g>
<g id="comments">
	<rect id="space_391_" fill="none" width="16" height="16"/>
	<path opacity="0.5" fill-rule="evenodd" clip-rule="evenodd" d="M0,7.5L0,1l3,3h6.5c1.39,0,2.6,0.82,3.15,2H6.5
		C4.02,6,2,8.02,2,10.5c0,0.05,0,0.11,0.01,0.16C0.82,10.1,0,8.9,0,7.5z"/>
	<path id="XMLID_113_" fill-rule="evenodd" clip-rule="evenodd" d="M6.5,14h6c1.93,0,3.5-1.57,3.5-3.5V4l-3,3H6.5
		C5.54,7,4.66,7.39,4.03,8.03C3.39,8.66,3,9.54,3,10.5C3,12.43,4.57,14,6.5,14z M7.5,10.5c0,0.552-0.448,1-1,1s-1-0.448-1-1
		s0.448-1,1-1S7.5,9.948,7.5,10.5z M10.5,10.5c0,0.552-0.448,1-1,1s-1-0.448-1-1s0.448-1,1-1S10.5,9.948,10.5,10.5z M13.5,10.5
		c0,0.552-0.448,1-1,1s-1-0.448-1-1s0.448-1,1-1S13.5,9.948,13.5,10.5z"/>
</g>
<g id="hourglass">
	<rect id="space_263_" fill="none" width="16" height="16"/>
	<g id="XMLID_114_" opacity="0.1">
		<path id="XMLID_115_" d="M12,12v2H4v-2c0-0.77,0.3-1.51,0.83-2.07L6,8.7V7.3L4.83,6.07C4.54,5.76,4.31,5.4,4.18,5h7.64
			c-0.13,0.4-0.36,0.76-0.65,1.07L10,7.3v1.4l1.17,1.23C11.7,10.49,12,11.23,12,12z"/>
	</g>
	<path id="XMLID_116_" d="M11.172,6.069C11.704,5.511,12,4.77,12,4V3h1V2c0-0.552-0.448-1-1-1H4C3.448,1,3,1.448,3,2v1h1v1
		c0,0.77,0.296,1.511,0.828,2.069L6,7.3v1.4L4.828,9.931C4.296,10.489,4,11.23,4,12v1H3v1c0,0.552,0.448,1,1,1h8
		c0.552,0,1-0.448,1-1v-1h-1v-1c0-0.77-0.296-1.511-0.828-2.069L10,8.7V7.3L11.172,6.069z M9.276,9.39l1.172,1.231
		C10.804,10.994,11,11.484,11,12v1H5v-1c0-0.516,0.196-1.006,0.552-1.379L6.724,9.39L7,9.1V6.9L6.724,6.61L5.552,5.379
		C5.196,5.006,5,4.516,5,4V3h6v1c0,0.516-0.196,1.006-0.552,1.379L9.276,6.61L9,6.9v2.2L9.276,9.39z"/>
</g>
<g id="device-phone">
	<rect id="space_538_" fill="none" width="16" height="16"/>
	<path id="XMLID_255_" d="M12,4.5v-2C12,1.672,11.328,1,10.5,1h-5C4.672,1,4,1.672,4,2.5v11C4,14.328,4.672,15,5.5,15h5
		c0.828,0,1.5-0.672,1.5-1.5v-7c0.276,0,0.5-0.224,0.5-0.5V5C12.5,4.724,12.276,4.5,12,4.5z M11,13.5c0,0.276-0.224,0.5-0.5,0.5h-5
		C5.224,14,5,13.776,5,13.5v-11C5,2.224,5.224,2,5.5,2h1l0.362,0.724C6.946,2.893,7.12,3,7.309,3h1.382
		C8.88,3,9.054,2.893,9.138,2.724L9.5,2h1C10.776,2,11,2.224,11,2.5V13.5z"/>
	<path id="XMLID_208_" opacity="0.2" d="M10.5,2h-5C5.224,2,5,2.224,5,2.5v11C5,13.776,5.224,14,5.5,14h5c0.276,0,0.5-0.224,0.5-0.5
		v-11C11,2.224,10.776,2,10.5,2z"/>
</g>
<g id="lock">
	<rect id="space_546_" fill="none" width="16" height="16"/>
	<path id="XMLID_120_" d="M13,6h-1V5c0-2.206-1.794-4-4-4S4,2.794,4,5v1H3C2.448,6,2,6.448,2,7v6c0,1.105,0.895,2,2,2h8
		c1.105,0,2-0.895,2-2V7C14,6.448,13.552,6,13,6z M6,5c0-1.103,0.897-2,2-2s2,0.897,2,2v1H6V5z M9,13H7V9h2V13z"/>
</g>
<g id="bookmark">
	<rect id="space_632_" fill="none" width="16" height="16"/>
	<polygon id="XMLID_124_" points="13,16 8,11 3,16 3,0 13,0 	"/>
</g>
<g id="open-message">
	<rect id="space_594_" fill="none" width="16" height="16"/>
	<path id="XMLID_125_" fill-rule="evenodd" clip-rule="evenodd" d="M1.866,4.75L8,1.892l6.134,2.858C14.662,4.996,15,5.526,15,6.109
		V12.5c0,0.828-0.672,1.5-1.5,1.5h-11C1.672,14,1,13.328,1,12.5V6.109C1,5.526,1.338,4.996,1.866,4.75z M2.5,6.11L8,3.547l5.5,2.563
		v1.655L8,10.327L2.5,7.764V6.11z"/>
</g>
<g id="log">
	<rect id="space_1122_" fill="none" width="16" height="16"/>
	<path id="XMLID_127_" fill-rule="evenodd" clip-rule="evenodd" d="M13.25,1c0,0.69-0.214,1.25-1.25,1.25S10.75,1.69,10.75,1h-1.5
		c0,0.69-0.214,1.25-1.25,1.25S6.75,1.69,6.75,1h-1.5c0,0.69-0.214,1.25-1.25,1.25S2.75,1.69,2.75,1H2v15h0.75
		c0-0.69,0.214-1.25,1.25-1.25S5.25,15.31,5.25,16h1.5c0-0.69,0.214-1.25,1.25-1.25S9.25,15.31,9.25,16h1.5
		c0-0.69,0.214-1.25,1.25-1.25s1.25,0.56,1.25,1.25H14V1H13.25z M11.5,12h-7C4.224,12,4,11.776,4,11.5C4,11.224,4.224,11,4.5,11h7
		c0.276,0,0.5,0.224,0.5,0.5C12,11.776,11.776,12,11.5,12z M11.5,9h-7C4.224,9,4,8.776,4,8.5C4,8.224,4.224,8,4.5,8h7
		C11.776,8,12,8.224,12,8.5C12,8.776,11.776,9,11.5,9z M11.5,6h-7C4.224,6,4,5.776,4,5.5C4,5.224,4.224,5,4.5,5h7
		C11.776,5,12,5.224,12,5.5C12,5.776,11.776,6,11.5,6z"/>
</g>
<g id="roll">
	<rect id="space_989_" x="0" fill="none" width="16" height="16"/>
	<g id="XMLID_132_">
		<path id="XMLID_133_" opacity="0.4" d="M14.5,1H8C5.791,1,4,2.791,4,5v7l-2.5,3H8c2.209,0,4-1.791,4-4V4L14.5,1z"/>
		<g id="XMLID_136_">
			<path id="XMLID_304_" d="M4,12.5C4,13.881,2.881,15,1.5,15h0C0.672,15,0,14.328,0,13.5L0,12h4V12.5z M12,4h4V2.5
				C16,1.672,15.328,1,14.5,1h0C13.119,1,12,2.119,12,3.5V4z"/>
		</g>
	</g>
</g>
<g id="bell">
	<rect id="space_287_" fill="none" width="16" height="16"/>
	<path id="XMLID_137_" d="M14,11v1H2v-1l2-2V5c0-2.209,1.791-4,4-4h0c2.209,0,4,1.791,4,4v4L14,11z M6.25,13
		c0,0.966,0.784,1.75,1.75,1.75S9.75,13.966,9.75,13H6.25z"/>
</g>
<g id="nested3d">
	<g id="XMLID_140_">
		<g>
			<path id="XMLID_307_" d="M15,9.708V6.389c0-0.834-0.445-1.604-1.167-2.021L8,1L2.167,4.368C1.445,4.785,1,5.555,1,6.389v3.319
				C1,16.751,15,16.751,15,9.708z M8,9.757L2.167,6.389c0-0.415,0.224-0.803,0.583-1.01L8,2.347l5.25,3.031
				c0.36,0.208,0.583,0.595,0.583,1.01L8,9.757z"/>
		</g>

			<radialGradient id="SVGID_2_" cx="7.9998" cy="9.7414" r="6.9932" gradientTransform="matrix(-1 0 0 -0.75 15.9996 17.0474)" gradientUnits="userSpaceOnUse">
			<stop  offset="0" style="stop-color:#000000"/>
			<stop  offset="1" style="stop-color:#000000;stop-opacity:0"/>
		</radialGradient>
		<path fill="url(#SVGID_2_)" d="M8,9.757l6.915-3.992C14.971,5.965,15,6.175,15,6.389v3.319C15,13.193,11.471,15,8,15V9.757z"/>
	</g>
	<rect id="space_10_" fill="none" width="16" height="16"/>
</g>
<g id="replace">
	<rect id="space_1325_" fill="none" width="16" height="16"/>
	<path id="XMLID_141_" d="M5.293,15.707L1.586,12l3.707-3.707l1.414,1.414L5.414,11H11c0.552,0,1-0.448,1-1V8h2v2
		c0,1.654-1.346,3-3,3H5.414l1.293,1.293L5.293,15.707z M4,8H2V6c0-1.654,1.346-3,3-3h5.586L9.293,1.707l1.414-1.414L14.414,4
		l-3.707,3.707L9.293,6.293L10.586,5H5C4.448,5,4,5.448,4,6V8z"/>
</g>
<g id="square-clock">
	<rect id="space_321_" fill="none" width="16" height="16"/>
	<g id="XMLID_149_">
		<path id="XMLID_315_" d="M13,15H3c-1.105,0-2-0.895-2-2V3c0-1.105,0.895-2,2-2h10c1.105,0,2,0.895,2,2v10
			C15,14.105,14.105,15,13,15z M11.707,10.293L9,7.586V3H7v5.414l3.293,3.293L11.707,10.293z"/>
	</g>
</g>
<g id="square-clock-wire">
	<rect id="space_314_" fill="none" width="16" height="16"/>
	<path id="XMLID_152_" d="M13.5,15h-11C1.673,15,1,14.327,1,13.5v-11C1,1.673,1.673,1,2.5,1h11C14.327,1,15,1.673,15,2.5v11
		C15,14.327,14.327,15,13.5,15z M13.5,13.5v0.75V13.5C13.5,13.5,13.5,13.5,13.5,13.5z M2.5,2.5v11h11l0-11H2.5z M9.47,11.03
		l-2.22-2.22V4h1.5v4.189l1.78,1.78L9.47,11.03z"/>
</g>
<g id="tag-wire">
	<rect id="space_328_" fill="none" width="16" height="16"/>
	<path id="XMLID_157_" d="M13,2c0.551,0,1,0.449,1,1v4.172c0,0.267-0.104,0.518-0.293,0.707l-6,6
		C7.518,14.068,7.267,14.172,7,14.172c-0.267,0-0.518-0.104-0.707-0.293L2.121,9.707C1.932,9.518,1.828,9.267,1.828,9
		s0.104-0.518,0.293-0.707l6-6C8.31,2.104,8.561,2,8.828,2H13 M13,1H8.828c-0.53,0-1.039,0.211-1.414,0.586l-6,6
		c-0.781,0.781-0.781,2.047,0,2.828l4.172,4.172C5.976,14.976,6.488,15.172,7,15.172s1.024-0.195,1.414-0.586l6-6
		C14.789,8.211,15,7.702,15,7.172V3C15,1.895,14.105,1,13,1L13,1z M11.007,4.008C11.545,4.008,12,4.462,12,5
		c0,0.556-0.445,1.008-0.993,1.008C10.452,6.008,10,5.556,10,5C10,4.453,10.452,4.008,11.007,4.008 M11.007,3.008
		C9.899,3.008,9,3.906,9,5c0,1.109,0.899,2.008,2.007,2.008C12.101,7.008,13,6.109,13,5C13,3.906,12.101,3.008,11.007,3.008
		L11.007,3.008z"/>
</g>
<g id="bookmark-sign-wire">
	<rect id="space_625_" fill="none" width="16" height="16"/>
	<path id="XMLID_162_" d="M11,2c0.551,0,1,0.449,1,1v9.586L8.707,9.293L8,8.586L7.293,9.293L4,12.586V3c0-0.551,0.449-1,1-1H11
		 M11,1H5C3.895,1,3,1.895,3,3v12l5-5l5,5V3C13,1.895,12.105,1,11,1L11,1z"/>
</g>
<g id="bookmark-sign">
	<rect id="space_618_" fill="none" width="16" height="16"/>
	<path id="XMLID_165_" d="M13,15l-5-5l-5,5V3c0-1.105,0.895-2,2-2h6c1.105,0,2,0.895,2,2V15z"/>
</g>
<g id="circle">
	<rect id="space_442_" fill="none" width="16" height="16"/>
	<circle id="XMLID_166_" cx="8" cy="8" r="5"/>
</g>
<g id="hole">
	<rect id="space_1402_" fill="none" width="16" height="16"/>
	<path d="M9,9.5H8c-0.552,0-1-0.448-1-1v-1c0-0.552,0.448-1,1-1h1c0.552,0,1,0.448,1,1v1C10,9.052,9.552,9.5,9,9.5z"/>
</g>
<g id="pencil">
	<rect fill="none" width="16" height="16"/>
	<path id="XMLID_167_" d="M11.293,7.707L7,12c-2,2-3,3-6,3c0-3,1-4,3-6l4.293-4.293L11.293,7.707z M13.672,2.328
		c-0.828-0.828-2.172-0.828-3,0L9.707,3.293l3,3l0.965-0.965C14.5,4.5,14.5,3.157,13.672,2.328z"/>
</g>
<g id="star">
	<rect fill="none" width="16" height="16"/>
	<polygon id="XMLID_170_" points="10.646,9.143 14.972,6 9.625,6 7.972,0.914 6.32,6 0.972,6 5.298,9.143 3.646,14.229
		7.972,11.086 12.298,14.229 	"/>
</g>
<g id="pause">
	<rect id="space_961_" fill="none" width="16" height="16"/>
	<path id="XMLID_171_" d="M3,3h3v10H3V3z M10,3v10h3V3H10z"/>
</g>
<g id="play">
	<rect id="space_954_" fill="none" width="16" height="16"/>
	<polygon points="5.333,12.5 13.333,8 5.333,3.5 	"/>
</g>
<g id="player-next">
	<rect id="space_933_" fill="none" width="16" height="16"/>
	<path id="XMLID_174_" d="M13,3h-3v10h3V3z M11.66,8L3,3v10L11.66,8"/>
</g>
<g id="player-back">
	<rect id="space_926_" fill="none" width="16" height="16"/>
	<path id="XMLID_175_" d="M3,13h3V3H3V13z M4.34,8L13,13V3L4.34,8"/>
</g>
<g id="file">
	<rect id="space_1115_" fill="none" width="16" height="16"/>
	<path id="XMLID_177_" fill-rule="evenodd" clip-rule="evenodd" d="M13,5v8.5c0,0.828-0.672,1.5-1.5,1.5h-7
		C3.672,15,3,14.328,3,13.5v-11C3,1.672,3.672,1,4.5,1H9L13,5z M9,2.414V5h2.586L9,2.414z"/>
</g>
<g id="exchange">
	<rect id="space_1478_" fill="none" width="16" height="16"/>
	<g id="XMLID_180_">
		<path id="XMLID_182_" d="M5.293,14.707L1.586,11l3.707-3.707l1.414,1.414L5.414,10H13v2H5.414l1.293,1.293L5.293,14.707z
			 M10.707,8.707L9.293,7.293L10.586,6H3V4h7.586L9.293,2.707l1.414-1.414L14.414,5L10.707,8.707z"/>
	</g>
</g>
<g id="preferences">
	<rect id="space_1485_" fill="none" width="16" height="16"/>
	<g id="XMLID_185_">
		<path id="XMLID_186_" d="M9.996,11.004c0,0.65-0.42,1.21-1,1.41v0.59h-1v-0.59c-0.58-0.21-1-0.77-1-1.41c0-0.65,0.42-1.21,1-1.41
			v-6.59h1v6.59C9.576,9.794,9.996,10.354,9.996,11.004z"/>
		<path id="XMLID_187_" d="M5.996,7.004c0,0.65-0.42,1.21-1,1.41v4.59h-1v-4.59c-0.58-0.21-1-0.77-1-1.41c0-0.65,0.42-1.21,1-1.41
			v-2.59h1v2.59C5.576,5.794,5.996,6.354,5.996,7.004z"/>
		<path id="XMLID_188_" d="M13.996,5.004c0,0.65-0.42,1.21-1,1.41v6.59h-1v-6.59c-0.58-0.21-1-0.77-1-1.41c0-0.65,0.42-1.21,1-1.41
			v-0.59h1v0.59C13.576,3.794,13.996,4.354,13.996,5.004z"/>
	</g>
</g>
<g id="place-members">
	<rect id="space_1108_" fill="none" width="16" height="16"/>
	<path id="XMLID_189_" fill-rule="evenodd" clip-rule="evenodd" d="M12.667,3h-2.378C9.903,2.118,9.025,1.5,8,1.5
		S6.097,2.118,5.711,3H3.333C2.597,3,2,3.597,2,4.333v9.333C2,14.403,2.597,15,3.333,15h9.333C13.403,15,14,14.403,14,13.667V4.333
		C14,3.597,13.403,3,12.667,3z M8,3c0.552,0,1,0.448,1,1c0,0.552-0.448,1-1,1S7,4.552,7,4C7,3.448,7.448,3,8,3z M8,5.5
		c1.381,0,2.5,1.119,2.5,2.5c0,1.381-1.119,2.5-2.5,2.5S5.5,9.381,5.5,8C5.5,6.619,6.619,5.5,8,5.5z M11,14H5v-0.5
		C5,12.672,5.672,12,6.5,12h3c0.828,0,1.5,0.672,1.5,1.5V14z"/>
</g>
<g id="info">
	<rect id="space_1443_" fill="none" width="16" height="16"/>
	<g id="XMLID_194_">
		<path id="XMLID_195_" fill-rule="evenodd" clip-rule="evenodd" d="M15.5,8c0,4.142-3.358,7.5-7.5,7.5S0.5,12.142,0.5,8
			S3.858,0.5,8,0.5S15.5,3.858,15.5,8z M6,7h3v4l1,1H6l1-1V8L6,7z M8,6c0.552,0,1-0.448,1-1S8.552,4,8,4S7,4.448,7,5S7.448,6,8,6z"
			/>
	</g>
</g>
<g id="info-wire">
	<rect id="space_1450_" fill="none" width="16" height="16"/>
	<path id="XMLID_196_" d="M8,1.5c3.584,0,6.5,2.916,6.5,6.5s-2.916,6.5-6.5,6.5S1.5,11.584,1.5,8S4.416,1.5,8,1.5 M8,0.5
		C3.858,0.5,0.5,3.858,0.5,8s3.358,7.5,7.5,7.5s7.5-3.358,7.5-7.5S12.142,0.5,8,0.5L8,0.5z M6,7h3v4l1,1H6l1-1V8L6,7z M8,6
		c0.552,0,1-0.448,1-1S8.552,4,8,4S7,4.448,7,5S7.448,6,8,6z"/>
</g>
<g id="card-view">
	<rect id="space_1464_" fill="none" width="16" height="16"/>
	<g id="XMLID_199_">
		<path d="M12.5,13h-9C2.672,13,2,12.328,2,11.5v-7C2,3.672,2.672,3,3.5,3h9C13.328,3,14,3.672,14,4.5v7
			C14,12.328,13.328,13,12.5,13z"/>
	</g>
</g>
<g id="list-view">
	<rect id="space_1457_" fill="none" width="16" height="16"/>
	<g id="XMLID_200_">
		<path id="XMLID_201_" d="M13.5,7h-11C2.224,7,2,6.776,2,6.5v-3C2,3.224,2.224,3,2.5,3h11C13.776,3,14,3.224,14,3.5v3
			C14,6.776,13.776,7,13.5,7z M14,12.5v-3C14,9.224,13.776,9,13.5,9h-11C2.224,9,2,9.224,2,9.5v3C2,12.776,2.224,13,2.5,13h11
			C13.776,13,14,12.776,14,12.5z"/>
	</g>
</g>
<g id="double-check">
	<rect id="space_1471_" fill="none" width="16" height="16"/>
	<g id="XMLID_202_">
		<polygon id="XMLID_203_" points="9,12.061 6.5,9.561 4,12.061 0.47,8.53 1.53,7.47 4,9.939 9.47,4.47 10.53,5.53 7.561,8.5
			9,9.939 14.47,4.47 15.53,5.53 		"/>
	</g>
</g>
<g id="tag">
	<rect id="space_335_" fill="none" width="16" height="16"/>
	<g id="XMLID_209_">
		<g id="XMLID_327_">
			<path id="XMLID_328_" d="M6.914,2.586l-5,5c-0.781,0.781-0.781,2.047,0,2.828l3.672,3.672c0.781,0.781,2.047,0.781,2.828,0l5-5
				C13.789,8.711,14,8.202,14,7.672V4c0-1.105-0.895-2-2-2H8.328C7.798,2,7.289,2.211,6.914,2.586z M10.007,8.008
				C8.899,8.008,8,7.109,8,6c0-1.094,0.899-1.992,2.007-1.992C11.101,4.008,12,4.906,12,6C12,7.109,11.101,8.008,10.007,8.008z"/>
		</g>
	</g>
</g>
<g id="negative-xcross">
	<rect id="space_1423_" fill="none" width="16" height="16"/>
	<path id="XMLID_212_" d="M15,8c0,3.866-3.134,7-7,7s-7-3.134-7-7s3.134-7,7-7S15,4.134,15,8z M5.879,4.464L4.464,5.879L6.586,8
		l-2.121,2.121l1.414,1.414L8,9.414l2.121,2.121l1.414-1.414L9.414,8l2.121-2.121l-1.414-1.414L8,6.586L5.879,4.464z"/>
</g>
<g id="calendar">
	<g id="space_1618_">
		<rect fill="none" width="16" height="16"/>
	</g>
	<path id="XMLID_134_" d="M12,2h-1c0-0.552-0.448-1-1-1C9.448,1,9,1.448,9,2H7c0-0.552-0.448-1-1-1C5.448,1,5,1.448,5,2H4
		C2.9,2,2,2.9,2,4v8c0,1.1,0.9,2,2,2h8c1.1,0,2-0.9,2-2V4C14,2.9,13.1,2,12,2z M5,4c0,0.552,0.448,1,1,1c0.552,0,1-0.448,1-1h2
		c0,0.552,0.448,1,1,1c0.552,0,1-0.448,1-1h1v2H4V4H5z M7,9V7h2v2H7z M9,10v2H7v-2H9z M6,9H4V7h2V9z M10,7h2v2h-2V7z M4,10h2v2H4V10
		z M10,12v-2h2v2H10z"/>
</g>
<g id="glance">
	<g id="space_1604_">
		<rect fill="none" width="16" height="16"/>
	</g>
	<path id="XMLID_213_" d="M12,9h2v3.002c0,1.103-0.897,2-2,2H3.999c-1.103,0-2-0.897-2-2V4c0-1.103,0.897-2,2-2H7v2H3.999v8.002H12
		V9z M12,1c-1.657,0-3,1.343-3,3s1.343,3,3,3s3-1.343,3-3S13.657,1,12,1z"/>
</g>
<g id="checked-box">
	<g id="space_1611_">
		<rect x="0" fill="none" width="16" height="16"/>
	</g>
	<path id="XMLID_135_" d="M14,9v3.002c0,1.103-0.897,2-2,2H3.999c-1.103,0-2-0.897-2-2V4c0-1.103,0.897-2,2-2H7v2H3.999v8.002H12V9
		H14z M5.293,7.707L8,10.414l5.707-5.707l-1.414-1.414L8,7.586L6.707,6.293L5.293,7.707z"/>
</g>
<g id="internal">
	<g id="space_1597_">
		<rect fill="none" width="16" height="16"/>
	</g>
	<path id="XMLID_224_" d="M12,2c-0.553,0-1,0.447-1,1v3.586L7.707,3.293c-0.391-0.391-1.023-0.391-1.414,0s-0.391,1.023,0,1.414
		L8.586,7H3C2.447,7,2,7.447,2,8s0.447,1,1,1h5.586l-2.293,2.293c-0.391,0.391-0.391,1.023,0,1.414C6.488,12.902,6.744,13,7,13
		s0.512-0.098,0.707-0.293L11,9.414V13c0,0.553,0.447,1,1,1s1-0.447,1-1V3C13,2.447,12.552,2,12,2z"/>
</g>
<g id="external">
	<g id="space_1590_">
		<rect fill="none" width="16" height="16"/>
	</g>
	<path id="XMLID_227_" d="M13.707,7.293l-4-4c-0.391-0.391-1.023-0.391-1.414,0s-0.391,1.023,0,1.414L10.586,7H5V3
		c0-0.553-0.447-1-1-1S3,2.447,3,3v10c0,0.553,0.447,1,1,1s1-0.447,1-1V9h5.586l-2.293,2.293c-0.391,0.391-0.391,1.023,0,1.414
		C8.488,12.902,8.744,13,9,13s0.512-0.098,0.707-0.293l4-4C14.097,8.316,14.097,7.683,13.707,7.293z"/>
</g>
<g id="filter-plus">
	<g id="space_1576_">
		<rect fill="none" width="16" height="16"/>
	</g>
	<polygon id="XMLID_228_" opacity="0.5" points="7,14 5,14 5,8.857 0.725,3.633 1.5,2 14,2 14,4 3.61,4 7,8.142 	"/>
	<polygon id="XMLID_229_" points="15.999,8.998 15.999,10.998 12.999,10.998 12.999,13.998 10.999,13.998 10.999,10.998
		7.999,10.998 7.999,8.998 10.999,8.998 10.999,5.998 12.999,5.998 12.999,8.998 	"/>
</g>
<g id="ragged-list">
	<g id="space_1583_">
		<rect fill="none" width="16" height="16"/>
	</g>
	<path id="XMLID_230_" d="M13,13H6c-0.553,0-1-0.447-1-1s0.447-1,1-1h7c0.553,0,1,0.447,1,1S13.552,13,13,13z M10,9H3
		C2.447,9,2,8.553,2,8s0.447-1,1-1h7c0.553,0,1,0.447,1,1S10.552,9,10,9z M13,5H6C5.447,5,5,4.553,5,4s0.447-1,1-1h7
		c0.553,0,1,0.447,1,1S13.552,5,13,5z M3.009,5C2.458,5,2.005,4.553,2.005,4S2.447,3,3,3h0.01c0.553,0,1,0.447,1,1S3.562,5,3.009,5z
		 M13.009,9c-0.552,0-1.005-0.447-1.005-1S12.447,7,13,7h0.01c0.553,0,1,0.447,1,1S13.562,9,13.009,9z M3.009,13
		c-0.552,0-1.005-0.447-1.005-1S2.447,11,3,11h0.01c0.553,0,1,0.447,1,1S3.562,13,3.009,13z"/>
</g>
<g id="list-check">
	<rect id="space_1304_" fill="none" width="16" height="16"/>
	<path id="XMLID_142_" fill="none" stroke="#000000" stroke-width="2" stroke-miterlimit="10" d="M12,6h4 M9,9h4 M6,12h4 M1,9
		l2.5,2.5L10,5"/>
</g>
<g id="finish-flag">
	<rect id="space_1569_" fill="none" width="16" height="16"/>
	<path id="XMLID_261_" d="M12,1H4C2.343,1,1,2.343,1,4v4c0,1.657,1.343,3,3,3h9v4h2V4C15,2.343,13.657,1,12,1z M3,9V3h10v6H3z"/>
	<path id="XMLID_245_" d="M13,5v2h-2V5H13z M9,9h2V7H9V9z M11,3H9v2h2V3z M7,5v2h2V5H7z M5,9h2V7H5V9z M7,3H5v2h2V3z M3,5v2h2V5H3z"
		/>
</g>
<g id="petition">
	<rect id="space_1562_" fill="none" width="16" height="16"/>
	<polygon id="XMLID_206_" opacity="0.5" points="13,11 10,11 10,14 	"/>
	<path id="XMLID_148_" d="M10,14H4c-0.552,0-1-0.448-1-1V2c0-0.552,0.448-1,1-1h8c0.552,0,1,0.448,1,1v9h-3V14z M11,4H5v1h6V4z
		 M11,6H5v1h6V6z M11,8H5v1h6V8z"/>
</g>
<g id="bullet-list">
	<rect id="space_1555_" fill="none" width="16" height="16"/>
	<path id="XMLID_275_" d="M3.5,4c0,0.828-0.672,1.5-1.5,1.5S0.5,4.828,0.5,4S1.172,2.5,2,2.5S3.5,3.172,3.5,4z M2,6.5
		C1.172,6.5,0.5,7.172,0.5,8S1.172,9.5,2,9.5S3.5,8.828,3.5,8S2.828,6.5,2,6.5z M2,10.5c-0.828,0-1.5,0.672-1.5,1.5
		s0.672,1.5,1.5,1.5s1.5-0.672,1.5-1.5S2.828,10.5,2,10.5z M15,4L15,4c0-0.552-0.448-1-1-1H6C5.448,3,5,3.448,5,4v0
		c0,0.552,0.448,1,1,1h8C14.552,5,15,4.552,15,4z M15,8L15,8c0-0.552-0.448-1-1-1H6C5.448,7,5,7.448,5,8v0c0,0.552,0.448,1,1,1h8
		C14.552,9,15,8.552,15,8z M15,12L15,12c0-0.552-0.448-1-1-1H6c-0.552,0-1,0.448-1,1v0c0,0.552,0.448,1,1,1h8
		C14.552,13,15,12.552,15,12z"/>
</g>
<g id="attach">
	<rect id="space_800_" fill="none" width="16" height="16"/>
	<path id="XMLID_269_" d="M6,14.993c-1.333,0-2.587-0.52-3.53-1.463c-1.946-1.947-1.946-5.114,0-7.061l4.333-4.333
		c1.396-1.396,3.666-1.395,5.06,0c1.396,1.395,1.396,3.666,0,5.061L7.53,11.53c-0.817,0.818-2.243,0.818-3.061,0
		c-0.843-0.844-0.843-2.217,0-3.061l4.333-4.333c0.293-0.293,0.768-0.293,1.061,0s0.293,0.768,0,1.061L5.53,9.53
		c-0.259,0.259-0.259,0.681,0,0.939c0.25,0.252,0.688,0.252,0.938,0l4.333-4.333c0.811-0.811,0.811-2.129,0-2.939
		s-2.128-0.812-2.939,0L3.53,7.53c-1.361,1.362-1.361,3.577,0,4.939c1.319,1.32,3.62,1.32,4.939,0l5-5
		c0.293-0.293,0.768-0.293,1.061,0s0.293,0.768,0,1.061l-5,5C8.587,14.474,7.333,14.993,6,14.993z"/>
</g>
<g id="todo-undone">
	<rect id="space_2_" x="0" fill="none" width="16" height="16"/>
	<path id="XMLID_266_" opacity="0.24" d="M8,2.5c3.033,0,5.5,2.467,5.5,5.5s-2.467,5.5-5.5,5.5S2.5,11.033,2.5,8S4.967,2.5,8,2.5
		 M8,1C4.134,1,1,4.134,1,8s3.134,7,7,7s7-3.134,7-7S11.866,1,8,1L8,1z"/>
</g>
<g id="todo-done">
	<path id="XMLID_277_" opacity="0.24" d="M8,1c3.866,0,7,3.134,7,7s-3.134,7-7,7s-7-3.134-7-7S4.134,1,8,1L8,1z"/>
	<rect id="space_1_" x="0" fill="none" width="16" height="16"/>
	<path id="XMLID_258_" opacity="0.24" d="M15,8c0,3.866-3.134,7-7,7s-7-3.134-7-7s3.134-7,7-7S15,4.134,15,8z M8,2.5
		C4.967,2.5,2.5,4.967,2.5,8s2.467,5.5,5.5,5.5s5.5-2.467,5.5-5.5S11.033,2.5,8,2.5"/>
	<g id="XMLID_257_">
		<polygon id="XMLID_271_" points="7,11.061 4.47,8.531 5.53,7.47 7,8.94 10.47,5.47 11.53,6.531 		"/>
	</g>
</g>
<g id="alarm-clock">
	<g id="space_1640_">
		<rect id="XMLID_237_" fill="none" width="16" height="16"/>
	</g>
	<path id="XMLID_119_" d="M10.03,9.47c0.293,0.293,0.293,0.768,0,1.061c-0.293,0.293-0.768,0.293-1.061,0l-1.5-1.5
		C7.329,8.89,7.25,8.699,7.25,8.5V4.75C7.25,4.336,7.586,4,8,4s0.75,0.336,0.75,0.75v3.439L10.03,9.47z M14.71,13.29
		c0.39,0.39,0.39,1.03,0,1.42c-0.39,0.39-1.03,0.39-1.42,0c-0.103-0.103-0.621-0.621-1.107-1.107c-2.489,1.862-5.872,1.865-8.366,0
		c-0.486,0.486-1.004,1.004-1.107,1.107c-0.39,0.39-1.03,0.39-1.42,0c-0.39-0.39-0.39-1.03,0-1.42
		c0.103-0.103,0.621-0.621,1.107-1.107c-1.389-1.858-1.789-4.272-0.985-6.529c-1.418-1.418-1.225-3.276-0.129-4.372
		c1.085-1.085,2.941-1.301,4.372,0.129c1.498-0.533,3.11-0.564,4.692,0c1.418-1.418,3.276-1.225,4.372-0.129
		c1.085,1.085,1.301,2.941-0.129,4.372c0.802,2.25,0.407,4.666-0.985,6.529C14.089,12.669,14.607,13.187,14.71,13.29z M8,13.5
		c3.033,0,5.5-2.467,5.5-5.5S11.033,2.5,8,2.5S2.5,4.967,2.5,8S4.967,13.5,8,13.5z"/>
</g>
<g id="line-star">
	<rect id="space_1520_" fill="none" width="16" height="16"/>
	<path id="XMLID_291_" d="M12.755,6.455c-0.171-0.525-0.735-0.813-1.26-0.642L9,6.624V4c0-0.552-0.448-1-1-1C7.448,3,7,3.448,7,4
		v2.624L4.505,5.813C3.98,5.642,3.415,5.93,3.245,6.455s0.117,1.089,0.642,1.26l2.495,0.811L4.84,10.648
		c-0.325,0.447-0.226,1.072,0.221,1.397c0.447,0.325,1.072,0.226,1.397-0.221L8,9.701l1.542,2.123
		c0.325,0.447,0.95,0.546,1.397,0.221c0.447-0.325,0.546-0.95,0.221-1.397L9.618,8.526l2.495-0.811
		C12.638,7.544,12.926,6.98,12.755,6.455z"/>
</g>
<g id="chain">
	<g id="space_1527_">
		<rect id="XMLID_240_" x="0" fill="none" width="16" height="16"/>
	</g>
	<path id="XMLID_238_" d="M1.581,13.234C0.529,11.641,0.845,9.5,2.196,8.15l1.333-1.332c0.391-0.39,1.023-0.39,1.414,0l0,0
		c0.391,0.391,0.39,1.024,0,1.414L3.609,9.565c-0.705,0.705-0.881,1.84-0.3,2.651c0.739,1.031,2.188,1.116,3.047,0.259l1.415-1.414
		c0.39-0.39,1.024-0.39,1.414,0l0,0c0.391,0.391,0.39,1.024,0,1.414L7.77,13.889C6.017,15.641,3.027,15.424,1.581,13.234z M6,10
		L6,10C5.61,9.61,5.61,8.976,6,8.586L8.586,6C8.977,5.61,9.61,5.61,10,6l0,0c0.39,0.39,0.39,1.024,0,1.414L7.414,10
		C7.024,10.391,6.391,10.391,6,10z M11.063,9.182L11.063,9.182c-0.391-0.391-0.391-1.024,0-1.414l1.333-1.333
		c0.705-0.705,0.881-1.84,0.3-2.651c-0.739-1.031-2.188-1.116-3.047-0.259L8.235,4.94c-0.39,0.39-1.024,0.39-1.414,0l0,0
		c-0.391-0.391-0.39-1.024,0-1.414L8.16,2.187c1.35-1.35,3.492-1.66,5.083-0.605c2.189,1.452,2.406,4.43,0.649,6.186l-1.415,1.414
		C12.087,9.572,11.454,9.572,11.063,9.182z"/>
</g>
<g id="task-completed">
	<rect id="space_1499_" fill="none" width="16" height="16"/>
	<path id="XMLID_265_" d="M14,8c0,3.314-2.686,6-6,6s-6-2.686-6-6s2.686-6,6-6S14,4.686,14,8z M11.53,6.53L10.47,5.47L7,8.939
		L5.53,7.47L4.47,8.53L7,11.061L11.53,6.53z"/>
</g>
<g id="task-hold">
	<rect id="space_1506_" fill="none" width="16" height="16"/>
	<path id="XMLID_241_" d="M7,13H4V3h3V13z M12,3H9v10h3V3z"/>
</g>
<g id="task-in-progress">
	<rect id="space_1513_" fill="none" width="16" height="16"/>
	<path id="XMLID_1_" d="M8,4c2.206,0,4,1.794,4,4s-1.794,4-4,4s-4-1.794-4-4S5.794,4,8,4 M8,2C4.686,2,2,4.686,2,8s2.686,6,6,6
		s6-2.686,6-6S11.314,2,8,2L8,2z"/>
</g>
<g id="microphone-wire">
	<path transform="translate(2.25 1)" id="path0_fill" d="M 5.75 1.5C 6.577 1.5 7.25 2.173 7.25 3L 7.25 7C 7.25 7.827 6.577 8.5 5.75 8.5C 4.923 8.5 4.25 7.827 4.25 7L 4.25 3C 4.25 2.173 4.923 1.5 5.75 1.5ZM 5.75 0C 4.093 0 2.75 1.343 2.75 3L 2.75 7C 2.75 8.657 4.093 10 5.75 10C 7.407 10 8.75 8.657 8.75 7L 8.75 3C 8.75 1.343 7.407 0 5.75 0Z"/>
	<path transform="translate(2.25 1)" id="path1_fill" d="M 8.75 14.76L 2.75 14.76C 2.336 14.76 2 14.424 2 14.01C 2 13.596 2.336 13.26 2.75 13.26L 5 13.26L 5 12.701C 2.183 12.333 0 9.916 0 7C 0 6.586 0.336 6.25 0.75 6.25C 1.164 6.25 1.5 6.586 1.5 7C 1.5 9.344 3.406 11.25 5.75 11.25C 8.094 11.25 10 9.344 10 7C 10 6.586 10.336 6.25 10.75 6.25C 11.164 6.25 11.5 6.586 11.5 7C 11.5 9.916 9.317 12.333 6.5 12.701L 6.5 13.26L 8.75 13.26C 9.164 13.26 9.5 13.596 9.5 14.01C 9.5 14.424 9.164 14.76 8.75 14.76Z"/>
</g>
<g id="microphone">
	<path transform="translate(2.25 1)" id="path0_fill" d="M 5.75 10C 4.093 10 2.75 8.657 2.75 7L 2.75 3C 2.75 1.343 4.093 0 5.75 0C 7.407 0 8.75 1.343 8.75 3L 8.75 7C 8.75 8.657 7.407 10 5.75 10Z"/>
	<path transform="translate(2.25 1)" id="path1_fill" d="M 8.75 14.76L 2.75 14.76C 2.336 14.76 2 14.424 2 14.01C 2 13.596 2.336 13.26 2.75 13.26L 5 13.26L 5 12.701C 2.183 12.333 0 9.916 0 7C 0 6.586 0.336 6.25 0.75 6.25C 1.164 6.25 1.5 6.586 1.5 7C 1.5 9.344 3.406 11.25 5.75 11.25C 8.094 11.25 10 9.344 10 7C 10 6.586 10.336 6.25 10.75 6.25C 11.164 6.25 11.5 6.586 11.5 7C 11.5 9.916 9.317 12.333 6.5 12.701L 6.5 13.26L 8.75 13.26C 9.164 13.26 9.5 13.596 9.5 14.01C 9.5 14.424 9.164 14.76 8.75 14.76Z"/>
</g>
<g id="dotted-grip">
	<path transform="translate(5 1)" d="M 1 2C 0.448 2 0 1.552 0 1C 0 0.448 0.448 0 1 0C 1.552 0 2 0.448 2 1C 2 1.552 1.552 2 1 2ZM 2 13C 2 12.448 1.552 12 1 12C 0.448 12 0 12.448 0 13C 0 13.552 0.448 14 1 14C 1.552 14 2 13.552 2 13ZM 2 9C 2 8.448 1.552 8 1 8C 0.448 8 0 8.448 0 9C 0 9.552 0.448 10 1 10C 1.552 10 2 9.552 2 9ZM 2 5C 2 4.448 1.552 4 1 4C 0.448 4 0 4.448 0 5C 0 5.552 0.448 6 1 6C 1.552 6 2 5.552 2 5ZM 6 1C 6 0.448 5.552 0 5 0C 4.448 0 4 0.448 4 1C 4 1.552 4.448 2 5 2C 5.552 2 6 1.552 6 1ZM 6 13C 6 12.448 5.552 12 5 12C 4.448 12 4 12.448 4 13C 4 13.552 4.448 14 5 14C 5.552 14 6 13.552 6 13ZM 6 9C 6 8.448 5.552 8 5 8C 4.448 8 4 8.448 4 9C 4 9.552 4.448 10 5 10C 5.552 10 6 9.552 6 9ZM 6 5C 6 4.448 5.552 4 5 4C 4.448 4 4 4.448 4 5C 4 5.552 4.448 6 5 6C 5.552 6 6 5.552 6 5Z"/>
</g>
<g id="places-relation">
	<path transform="translate(1 3)" id="path0_fill" d="M 1.5 6C 0.672 6 0 5.32812 0 4.5L 0 1.5C 0 0.671875 0.672 0 1.5 0L 4.5 0C 5.328 0 6 0.671875 6 1.5L 6 2.5L 10 2.5L 10 2C 10 1.44824 10.448 1 11 1L 13 1C 13.552 1 14 1.44824 14 2L 14 4C 14 4.55176 13.552 5 13 5L 11 5C 10.448 5 10 4.55176 10 4L 10 3.5L 6 3.5L 6 4.5C 6 5.32812 5.328 6 4.5 6L 3.94464 6C 4.19804 6.60059 4.56838 7.04443 5.07735 7.38379C 6.04188 8.02686 7.57593 8.35498 10 8.46094L 10 8C 10 7.44824 10.448 7 11 7L 13 7C 13.552 7 14 7.44824 14 8L 14 10C 14 10.5518 13.552 11 13 11L 11 11C 10.448 11 10 10.5518 10 10L 10 9.4624C 7.49794 9.35693 5.71881 9.01318 4.52265 8.21582C 3.69908 7.66699 3.18284 6.92969 2.8782 6L 1.5 6Z"/>
</g>
<g id="printer">
	<path transform="translate(1 2)" d="M 10 3L 4 3L 4 1L 10 1L 10 3ZM 13 5C 13 5.552 12.552 6 12 6C 11.448 6 11 5.552 11 5C 11 4.448 11.448 4 12 4C 12.552 4 13 4.448 13 5ZM 10 11L 4 11L 4 7L 10 7L 10 11ZM 14 5C 14 3.895 13.105 3 12 3L 11 3L 11 0L 3 0L 3 3L 2 3C 0.895 3 0 3.895 0 5L 0 10L 3 10L 3 12L 11 12L 11 10L 14 10L 14 5Z"/>
</g>
<g id="failed">
	<rect id="space_2_" style="fill:none;" width="16" height="16"/>
	<path style="fill:#FF3344;transform: scale(0.65) translate(-25%, -25%);" d="M25,16c0,4.971-4.029,9-9,9s-9-4.029-9-9s4.029-9,9-9S25,11.029,25,16z M20.243,13.172l-1.414-1.414
		L16,14.586l-2.828-2.828l-1.414,1.414L14.586,16l-2.828,2.828l1.414,1.414L16,17.414l2.828,2.828l1.414-1.414L17.414,16
		L20.243,13.172z"/>
</g>
</svg>
