<svg id="icons" xmlns="http://www.w3.org/2000/svg" viewBox="0 0 24 24">
  <title>nst</title>
  <g id="Wlogout">
    <rect id="empty24" width="24" height="24" style="fill: none"/>
    <path d="M7,18h3.75v1H7a2,2,0,0,1-2-2V8A2,2,0,0,1,7,6h3.75V7H7A1,1,0,0,0,6,8v9A1,1,0,0,0,7,18ZM13.85,6.65l-.71.71L17.79,12H9v1h8.79l-4.65,4.65.71.71,5.85-5.85Z"/>
  </g>
  <g id="Wsetting">
    <rect id="empty24-2" data-name="empty24" width="24" height="24" style="fill: none"/>
    <path d="M12,20.9a2,2,0,0,1-1.92-1.52L10,19.08a1,1,0,0,0-.63-.7,1.07,1.07,0,0,0-1,0l-.26.16a2,2,0,0,1-2.7-2.7l.15-.26a1,1,0,0,0,.05-.94A1.07,1.07,0,0,0,4.92,14h0l-.29-.07a2,2,0,0,1,0-3.82L4.92,10a1,1,0,0,0,.7-.63,1.06,1.06,0,0,0,0-1l-.16-.26a2,2,0,0,1,2.7-2.7l.26.16a1,1,0,0,0,.94,0A1.07,1.07,0,0,0,10,4.92l.07-.29a2,2,0,0,1,3.82,0l.07.29a1,1,0,0,0,.63.7,1.08,1.08,0,0,0,1,0l.26-.16a2,2,0,0,1,2.7,2.7l-.16.26a1,1,0,0,0,0,.94,1.07,1.07,0,0,0,.72.69l.29.07a2,2,0,0,1,0,3.82l-.29.07a1,1,0,0,0-.7.63,1.07,1.07,0,0,0,0,1l.15.25a2,2,0,0,1-2.7,2.7l-.26-.15a1,1,0,0,0-.94-.05,1.07,1.07,0,0,0-.69.72l-.07.29A2,2,0,0,1,12,20.9ZM8.9,17.27a2.12,2.12,0,0,1,.82.17A2.07,2.07,0,0,1,11,18.84l.07.29a1,1,0,0,0,1.88,0l.07-.29a2,2,0,0,1,1.22-1.39,2.07,2.07,0,0,1,1.89.1l.26.15a1,1,0,0,0,1.33-1.33l-.16-.26a2,2,0,0,1-.12-1.85A2.07,2.07,0,0,1,18.84,13l.29-.07a1,1,0,0,0,0-1.87L18.84,11a2,2,0,0,1-1.39-1.22,2.08,2.08,0,0,1,.1-1.89l.16-.26a1,1,0,0,0-1.33-1.33l-.26.16a2.05,2.05,0,0,1-1.84.12A2.07,2.07,0,0,1,13,5.16l-.07-.29a1,1,0,0,0-1.88,0L11,5.16A2,2,0,0,1,9.77,6.54a2.07,2.07,0,0,1-1.89-.1l-.26-.16A1,1,0,0,0,6.29,7.62l.16.26a2,2,0,0,1,.12,1.84A2.07,2.07,0,0,1,5.16,11l-.29.07a1,1,0,0,0,0,1.88l.29.07a2,2,0,0,1,1.39,1.22,2.08,2.08,0,0,1-.1,1.89l-.15.26a1,1,0,0,0,1.33,1.33l.26-.16A2,2,0,0,1,8.9,17.27ZM12,16.5A4.5,4.5,0,1,1,16.5,12,4.5,4.5,0,0,1,12,16.5Zm0-8A3.5,3.5,0,1,0,15.5,12,3.5,3.5,0,0,0,12,8.5Z"/>
  </g>
  <g id="sent">
    <rect id="empty24-3" data-name="empty24" width="24" height="24" style="fill: none"/>
    <path d="M23,18H9a1,1,0,0,1-1-1V9A1,1,0,0,1,9,8H23a1,1,0,0,1,1,1v8A1,1,0,0,1,23,18Zm0-7.54-7,3.48L9,10.46v1.12l7,3.48,7-3.48ZM7,10H1v1H7Zm0,2H3v1H7Zm0,2H5v1H7Z"/>
  </g>
  <g id="allmsg">
    <rect id="empty24-4" data-name="empty24" width="24" height="24" style="fill: none"/>
    <path d="M15,19H1a1,1,0,0,1-1-1V10A1,1,0,0,1,1,9H15a1,1,0,0,1,1,1v8A1,1,0,0,1,15,19ZM1,11.46v1.12l7,3.48,7-3.37V11.58L8,14.94ZM23,5H9A1,1,0,0,0,8,6V8h7a2,2,0,0,1,2,2v.6l6-2.87V8.84l-6,2.88V15h6a1,1,0,0,0,1-1V6A1,1,0,0,0,23,5Z"/>
  </g>
  <g id="fav">
    <rect id="empty24-5" data-name="empty24" width="24" height="24" style="fill: none"/>
    <path id="_Path_" data-name="&lt;Path&gt;" d="M16.61,14.42l5-3.61A1,1,0,0,0,21,9H14.85L13,3.16a1,1,0,0,0-1.9,0L9.15,9H3a1,1,0,0,0-.59,1.81l5,3.61-1.9,5.84A1,1,0,0,0,7,21.37l5-3.61,5,3.61a1,1,0,0,0,1.54-1.12Z"/>
  </g>
  <path id="Wfav" d="M12,3.52l1.88,5.79.22.69h6.82L16,13.58l-.59.43.22.69,1.88,5.79-4.93-3.58L12,16.48l-.59.43L6.49,20.49,8.37,14.7,8.59,14,8,13.58,3.08,10H9.89l.22-.69L12,3.52M12,2a.74.74,0,0,0-.71.52L9.17,9H2.31a.75.75,0,0,0-.44,1.36l5.55,4L5.3,20.91a.75.75,0,0,0,.72,1,.74.74,0,0,0,.44-.15l5.55-4,5.55,4a.74.74,0,0,0,.44.15.75.75,0,0,0,.72-1l-2.12-6.52,5.55-4A.75.75,0,0,0,21.69,9H14.83L12.71,2.48A.74.74,0,0,0,12,2Z"/>
  <path id="Wnotifon" d="M17.55,12.38a8.06,8.06,0,0,0-.74,4.32c.25,2.27-1.11,2.91-1.94,3.08a4.13,4.13,0,0,1-.86.08h-.15A2.51,2.51,0,0,1,9,19a2.87,2.87,0,0,1,.08-.67c-2.45-1.29-4.68-3.22-5.24-5-.26-.81-.39-2.3,1.7-3.22A8.06,8.06,0,0,0,8.9,7.38,4.82,4.82,0,0,1,13,5.22l.09-.16a2.42,2.42,0,0,1,3.42-.92,2.42,2.42,0,0,1,.91,3.42l-.1.16A4.79,4.79,0,0,1,17.55,12.38ZM13.78,6a1.29,1.29,0,0,0,.11.24,2.66,2.66,0,0,0,.94.87,2.67,2.67,0,0,0,1.23.38,1.09,1.09,0,0,0,.28-.05v0a3.09,3.09,0,0,0,.24-.34,1.46,1.46,0,0,0,.17-1.21,1.64,1.64,0,0,0-1.81-1,1.46,1.46,0,0,0-1,.75,3.1,3.1,0,0,0-.18.38Zm2.55,2-.23,0a3.14,3.14,0,0,1-1.51-.45,3.13,3.13,0,0,1-1.12-1,1.75,1.75,0,0,1-.11-.25H13.3l-.43,0A3.78,3.78,0,0,0,9.72,8,9.05,9.05,0,0,1,5.93,11.1h0c-1.41.62-1.34,1.44-1.15,2,.88,2.74,7.07,6.31,9.89,5.71.58-.12,1.32-.46,1.15-2A9.05,9.05,0,0,1,16.65,12a3.76,3.76,0,0,0-.31-4S16.33,8,16.33,8Z"/>
  <path id="Wnotifoff" d="M6.41,22.68l-.87-.5,12-20.87.87.5Zm0-6,.5-.86A6.55,6.55,0,0,1,4.78,13.1c-.18-.56-.26-1.38,1.16-2A9.05,9.05,0,0,0,9.72,8a3.82,3.82,0,0,1,2.71-1.7l.59-1A4.78,4.78,0,0,0,8.9,7.38a8.06,8.06,0,0,1-3.37,2.8c-2.09.92-2,2.41-1.7,3.22A7.71,7.71,0,0,0,6.43,16.65Zm10.33-7.9A3.82,3.82,0,0,1,16.65,12a9.05,9.05,0,0,0-.83,4.85c.17,1.53-.58,1.88-1.15,2a6.55,6.55,0,0,1-3.4-.52l-1.5,2.61a2.56,2.56,0,0,0,4.1-1H14a4.13,4.13,0,0,0,.86-.08c.83-.18,2.19-.82,1.94-3.08a8.06,8.06,0,0,1,.74-4.32,4.79,4.79,0,0,0-.2-4.65Z"/>
  <path id="more" d="M12,15a3,3,0,1,1,3-3A3,3,0,0,1,12,15Zm0-8a3,3,0,1,1,3-3A3,3,0,0,1,12,7Zm0,16a3,3,0,1,1,3-3A3,3,0,0,1,12,23Z"/>
  <path id="Wmore" d="M12,15a3,3,0,1,1,3-3A3,3,0,0,1,12,15Zm0-5a2,2,0,1,0,2,2A2,2,0,0,0,12,10Zm0-3a3,3,0,1,1,3-3A3,3,0,0,1,12,7Zm0-5a2,2,0,1,0,2,2A2,2,0,0,0,12,2Zm0,21a3,3,0,1,1,3-3A3,3,0,0,1,12,23Zm0-5a2,2,0,1,0,2,2A2,2,0,0,0,12,18Z"/>
</svg>
