<svg xmlns="http://www.w3.org/2000/svg" xmlns:xlink="http://www.w3.org/1999/xlink" viewBox="0 0 20 20">
  <defs>
    <linearGradient id="linear-gradient" x1="10" y1="15" x2="10" y2="4" gradientUnits="userSpaceOnUse">
      <stop offset="0" stop-color="#fff"/>
      <stop offset="1"/>
    </linearGradient>
  </defs>
  <title>WebIconExporter</title>
  <g id="icn20">
    <g id="openplace">
      <rect id="space" width="20" height="20" style="fill: none"/>
      <rect x="3" y="4" width="14" height="11" style="opacity: 0.2;fill: url(#linear-gradient)"/>
      <path d="M1,3V16a1,1,0,0,0,1,1H18a1,1,0,0,0,1-1V3a1,1,0,0,0-1-1H2A1,1,0,0,0,1,3ZM3,4H17V15H3ZM16.09,5.09l-.18-.18-4,4,.18.18Zm0,3-.18-.18-4,4,.18.18Z"/>
    </g>
    <g id="cross">
      <rect id="space-2" data-name="space" width="20" height="20" style="fill: none"/>
      <path d="M11,4H9A0,0,0,0,0,9,4V9A0,0,0,0,1,9,9H4A0,0,0,0,0,4,9V11a0,0,0,0,0,0,0H9a0,0,0,0,1,0,0V16a0,0,0,0,0,0,0H11a0,0,0,0,0,0,0V11a0,0,0,0,1,0,0H16a0,0,0,0,0,0,0V9a0,0,0,0,0,0,0H11a0,0,0,0,1,0,0V4A0,0,0,0,0,11,4Z"/>
    </g>
    <g id="reply">
      <rect width="20" height="20" style="fill: none"/>
      <path d="M17.92,15.79A10.87,10.87,0,0,0,9,6.58V3L2.5,9.5,9,16V11.58C12.79,11.58,16,12.51,17.92,15.79Z"/>
    </g>
    <g id="forward">
      <rect width="20" height="20" style="fill: none"/>
      <polygon points="4 9 10.5 2.5 17 9 12.83 9 10.5 17.92 8.17 9 4 9"/>
    </g>
    <g id="replied">
      <rect width="20" height="20" style="fill: none"/>
      <path d="M15.08,15.6C13.3,11.69,10.64,10,6.19,10H5.55l2.66,2.66a1,1,0,0,1-1.41,1.41L2.42,9.71a1,1,0,0,1,0-1.41L6.79,3.92A1,1,0,0,1,8.21,5.33L5.53,8h.67c5.21,0,8.61,2.16,10.71,6.76A1,1,0,0,1,15.08,15.6Z"/>
    </g>
    <g id="forwarded">
      <rect width="20" height="20" style="fill: none"/>
      <path d="M10,16.63a1,1,0,0,1-1-1V6.79L6.33,9.46A1,1,0,0,1,4.92,8L9.29,3.67a1,1,0,0,1,1.41,0L15.08,8a1,1,0,0,1-1.41,1.41L11,6.79v8.84A1,1,0,0,1,10,16.63Z"/>
    </g>
    <g id="closedplace">
      <rect id="space-3" data-name="space" width="20" height="20" style="fill: none"/>
      <path id="_Compound_Path_" data-name="&lt;Compound Path&gt;" d="M1,3V16a1,1,0,0,0,1,1H18a1,1,0,0,0,1-1V3a1,1,0,0,0-1-1H2A1,1,0,0,0,1,3ZM3,4h7V7H3Zm10,7H7V8h6ZM3,8H6v3H3Zm0,7V12H9v3Zm14,0H10V12h7Zm0-4H14V8h3Zm0-4H11V4h6Z"/>
    </g>
    <g id="earth">
      <rect id="space-4" data-name="space" width="20" height="20" style="fill: none"/>
      <path d="M10,2.5A7.5,7.5,0,1,0,17.5,10,7.5,7.5,0,0,0,10,2.5ZM3.5,10a6.52,6.52,0,0,1,.71-3,.82.82,0,0,1,.07-.13A.49.49,0,0,0,4.22,7c.27,0,.57-.08.55,0s-.08.43.08.55a.54.54,0,0,0,.22.09,1.5,1.5,0,0,1,.84.6,4.09,4.09,0,0,0,.28.44.42.42,0,0,0,.46.15s0-.1,0-.15.13,0,.16.08c.21.5-.39,1-.39,1.55s.32.72.45,1.1a2.16,2.16,0,0,0,.15.45c.15.26.47.36.69.57a2,2,0,0,1,.37,1.36,6.13,6.13,0,0,0,.47,1.93,1.5,1.5,0,0,0,.34.55.6.6,0,0,0,.15.09A6.5,6.5,0,0,1,3.5,10Zm12.21,3.1c-.06.12-.13.23-.2.35v0A6.49,6.49,0,0,1,10,16.5l-.54,0h0a.38.38,0,0,0-.3-.23.87.87,0,0,1,.06-.32l-.17-.1a.84.84,0,0,0,.08-.56c.29-.09.62-.21.73-.49a1,1,0,0,0,.63-.55,2.11,2.11,0,0,1,.46-.73c.34-.3.94-.35,1.07-.78a3.29,3.29,0,0,0,.05-.44.75.75,0,0,1,.51-.59.32.32,0,0,0,.19-.1.28.28,0,0,0,0-.18c0-.2-.09-.4-.14-.61a3.81,3.81,0,0,0-1.11-.42,4.69,4.69,0,0,1-1-.48.77.77,0,0,0-.72-.77.63.63,0,0,1-.24,0c-.07,0-.12-.14-.07-.2A.44.44,0,0,1,9,8.66.24.24,0,0,0,9,8.55l-.12,0L7.78,8.44c-.35,0-.8,0-.9.34l-.29-.2-.22.11a.89.89,0,0,1,0-.78.54.54,0,0,0-.4-.17A.72.72,0,0,1,6,7.43a.38.38,0,0,0,.06-.32c0-.11-.22-.14-.27,0s0,.08,0,.11a.22.22,0,0,1-.35.07.44.44,0,0,1-.09-.4A1.14,1.14,0,0,1,6.5,6.09c.14,0,.33.06.33.19,0,0,0,0,0-.05A.41.41,0,0,0,7,6.42a2.94,2.94,0,0,0,.21-1,.9.9,0,0,0,1-.68c.38.06.62-.58,1-.5A.58.58,0,0,0,8.62,4L10,3.75a.75.75,0,0,1-.21.32l.62-.16a.43.43,0,0,0-.2-.11.37.37,0,0,0,0-.29,6.32,6.32,0,0,1,2.7.7c-.07,0-.09.07-.16.21a5.49,5.49,0,0,0-.37.57c-.06.18,0,.23,0,.42a1.07,1.07,0,0,1-.31.57c0,.17.18.38.21.52s0,.21,0,.26.19.17.3.29c-.29.35-.06.76.21,1.07s.47.36.65.59c0,.06,0,.14,0,.2s.22.2.31.32c.34-.13.21-.15.6,0,.12-.13.4-.38.62-.36s.32.36.67.38A10.74,10.74,0,0,1,15.91,12c-.08.49-.37.81-.39,1.34a.19.19,0,0,1,0,.08C15.58,13.32,15.65,13.21,15.71,13.1Z"/>
    </g>
    <g id="member">
      <rect id="space-5" data-name="space" width="20" height="20" style="fill: none"/>
      <path d="M14,13v3H13V13a1,1,0,0,0-1-1v7H11V16a1,1,0,0,0-2,0v3H8V12a1,1,0,0,0-1,1v3H6V13a2,2,0,0,1,2-2h4A2,2,0,0,1,14,13ZM10,5.5A2.5,2.5,0,1,0,12.5,8,2.5,2.5,0,0,0,10,5.5Z"/>
    </g>
    <g id="manager-member">
      <rect id="space-6" data-name="space" width="20" height="20" style="fill: none"/>
      <path d="M9,12v7H8V17a1,1,0,0,0-2,0v2H5V12a1,1,0,0,0-1,1v2H3V13a2,2,0,0,1,2-2H16a2,2,0,0,1,2,2v2H17V13a1,1,0,0,0-1-1v7H15V17a1,1,0,0,0-2,0v2H12V12ZM10.75,1.59A1.25,1.25,0,0,0,9.5,2.84a1.22,1.22,0,0,0,.46,1l-.52.46A1,1,0,0,1,7.9,4L7.37,3a1.22,1.22,0,0,0,.88-1.18,1.25,1.25,0,0,0-2.5,0A1.22,1.22,0,0,0,6.63,3L6.1,4a1,1,0,0,1-1.54.27L4,3.8a1.22,1.22,0,0,0,.46-1A1.25,1.25,0,1,0,3.25,4.09a.3.3,0,0,0,.13,0l.26,2.06a1,1,0,0,0,1,.87H9.37a1,1,0,0,0,1-.87l.26-2.06a.3.3,0,0,0,.13,0,1.25,1.25,0,1,0,0-2.5ZM4.5,8a2.5,2.5,0,0,0,5,0ZM14,5.5A2.5,2.5,0,1,0,16.5,8,2.5,2.5,0,0,0,14,5.5Z"/>
    </g>
    <g id="team">
      <rect id="space-7" data-name="space" width="20" height="20" style="fill: none"/>
      <path d="M6.5,8A2.5,2.5,0,1,1,4,5.5,2.5,2.5,0,0,1,6.5,8ZM10,5.5A2.5,2.5,0,1,0,12.5,8,2.5,2.5,0,0,0,10,5.5Zm6,0A2.5,2.5,0,1,0,18.5,8,2.5,2.5,0,0,0,16,5.5ZM6,12v7H5V17a1,1,0,0,0-2,0v2H2V12a1,1,0,0,0-1,1v3H0V13a2,2,0,0,1,2-2H18a2,2,0,0,1,2,2v2H19V13a1,1,0,0,0-1-1v7H17V17a1,1,0,0,0-2,0v2H14V12H12v7H11V17a1,1,0,0,0-2,0v2H8V12Z"/>
    </g>
    <g id="manager">
      <rect id="space-8" data-name="space" width="20" height="20" style="fill: none"/>
      <path d="M14,13v2H13V13a1,1,0,0,0-1-1v7H11V17a1,1,0,0,0-2,0v2H8V12a1,1,0,0,0-1,1v2H6V13a2,2,0,0,1,2-2h4A2,2,0,0,1,14,13ZM7.5,8a2.5,2.5,0,0,0,5,0ZM15,2.84a1.25,1.25,0,0,1-1.25,1.25.3.3,0,0,1-.13,0l-.26,2.06a1,1,0,0,1-1,.87H7.63a1,1,0,0,1-1-.87L6.38,4.07a.3.3,0,0,1-.13,0A1.25,1.25,0,1,1,7.5,2.84,1.22,1.22,0,0,1,7,3.8l.52.46A1,1,0,0,0,9.1,4l.53-1a1.22,1.22,0,0,1-.88-1.18,1.25,1.25,0,0,1,2.5,0A1.22,1.22,0,0,1,10.37,3l.53,1a1,1,0,0,0,1.54.27L13,3.8a1.22,1.22,0,0,1-.46-1,1.25,1.25,0,1,1,2.5,0Z"/>
    </g>
    <g id="more">
      <rect id="space-9" data-name="space" width="20" height="20" style="fill: none"/>
      <path d="M12,10a2,2,0,1,1-2-2A2,2,0,0,1,12,10Zm0-6a2,2,0,1,1-2-2A2,2,0,0,1,12,4Zm0,12a2,2,0,1,1-2-2A2,2,0,0,1,12,16Z"/>
    </g>
    <g id="menu">
      <rect id="space-10" data-name="space" width="20" height="20" style="fill: none"/>
      <path d="M18,11H2V9H18Zm0-6H2V7H18Zm0,8H2v2H18Z"/>
    </g>
    <g id="search">
      <rect id="space-11" data-name="space" width="20" height="20" style="fill: none"/>
      <path d="M8,13.5A5.5,5.5,0,1,1,13.5,8,5.51,5.51,0,0,1,8,13.5ZM8,4.25A3.75,3.75,0,1,0,11.75,8,3.75,3.75,0,0,0,8,4.25Zm9.62,12.13-4-4-1.24,1.24,4,4Z"/>
    </g>
    <g id="downloads">
      <rect width="20" height="20" style="fill: none"/>
      <path d="M14.75,17H4.25V14.5h10.5ZM9.5,13.77,3.87,8.13,5.63,6.37,8.25,9V3h2.5V9l2.62-2.62,1.77,1.77Z"/>
    </g>
    <g id="filter">
      <rect width="20" height="20" style="fill: none"/>
      <polygon points="9 17.83 7 17.83 7 10.41 1.29 4.71 2 3 18 3 18.71 4.71 13 10.41 13 15 11 15 11 9.59 15.59 5 4.41 5 9 9.59 9 17.83"/>
    </g>
    <g id="atsign">
      <rect width="20" height="20" style="fill: none"/>
      <path d="M10.26,18.82q-.5,0-1,0a8.81,8.81,0,0,1-6.16-3A8.77,8.77,0,0,1,1.23,9.23a8.62,8.62,0,0,1,9.54-8c4.81.42,6.67,2.95,7.36,4.41a7.09,7.09,0,0,1-.54,6.86,4.35,4.35,0,0,1-4,2,2.5,2.5,0,0,1-1.78-1,2.21,2.21,0,0,1-.17-.28,4.68,4.68,0,0,1-3.87.91A3.51,3.51,0,0,1,5,11.55,4.92,4.92,0,0,1,6.37,6.69c1-.93,3.26-2.28,7.35-.79a1,1,0,0,1,.63,1.16c-.12.53-.24,1.07-.35,1.56l-.18.85-.06.25c-.18.86-.3,1.45-.3,1.45-.17.81,0,1.1,0,1.17a.53.53,0,0,0,.37.17,2.39,2.39,0,0,0,2.08-1.17,5,5,0,0,0,.37-4.87c-.61-1.31-2.1-2.95-5.72-3.26a6.59,6.59,0,0,0-7.37,6.2,6.83,6.83,0,0,0,1.39,5.12,6.87,6.87,0,0,0,4.8,2.26,7.3,7.3,0,0,0,4-.67l.89-.45.9,1.79-.89.45A8.94,8.94,0,0,1,10.26,18.82Zm.06-11.59a3.64,3.64,0,0,0-2.58.91A2.88,2.88,0,0,0,6.91,11a1.54,1.54,0,0,0,1.25,1.15c2.6.45,3.45-2,3.67-2.88l.22-1,0-.12.13-.58A7.21,7.21,0,0,0,10.32,7.24Z"/>
    </g>
  </g>
</svg>
