<svg xmlns="http://www.w3.org/2000/svg" viewBox="0 0 32 32">
  <title>nst</title>
  <g id="icn32">
    <g id="compose">
      <rect id="space" width="32" height="32" style="fill: none"/>
      <path d="M21,20h3v9H3V8H13v3H6V26H21ZM28.56,3.44a4.33,4.33,0,0,1,0,6.12l-10,10A10.81,10.81,0,0,1,10.5,23H9V21.5a10.81,10.81,0,0,1,3.44-8.06l10-10A4.33,4.33,0,0,1,28.56,3.44ZM23.38,10.5,21.5,8.62l-6.94,6.94a8,8,0,0,0-2.42,4.3,8,8,0,0,0,4.3-2.42Zm3.06-4.94a1.33,1.33,0,0,0-1.88,0l-.94.94L25.5,8.38l.94-.94A1.33,1.33,0,0,0,26.44,5.56Z"/>
    </g>
    <g id="atsign">
      <rect id="space-2" data-name="space" width="32" height="32" style="fill: none"/>
      <path d="M1.5,16.36C1.5,25,7.78,30.52,16.42,30.52c4.13,0,6.35-1.35,8.47-2.42l-1.8-3.57c-2,1-3.54,2-6.68,2-6.41,0-10.92-3.7-10.92-10.14,0-6.85,4.78-10.88,10.37-10.88,5.38,0,10.65,3,10.65,8.27,0,2.52-1.64,5.86-4.15,5.86-.46,0-.55-.06-.55-.66,0-.82,1.59-7.68,1.59-8a2,2,0,0,0-1.31-1.88A16.32,16.32,0,0,0,16.51,8c-5.59,0-9.21,4-9.21,8.51,0,3.54,2.31,6.62,6.78,6.62a7.64,7.64,0,0,0,4.48-1.4,4.41,4.41,0,0,0,3.81,1.92c4.86,0,8.13-5.06,8.13-9.85,0-7.49-6.87-12.27-14.65-12.27S1.5,7.31,1.5,16.36Zm17-1.66c-.3,1.19-1.4,4.39-4.52,4.39-1.87,0-2.71-1-2.71-2.62,0-2.36,1.86-4.49,5.21-4.49a10.76,10.76,0,0,1,2.54.33C18.87,13.15,18.71,13.9,18.54,14.7Z"/>
    </g>
    <g id="cross">
      <rect id="space-3" data-name="space" width="32" height="32" style="fill: none"/>
      <polygon points="14 26 18 26 18 18 26 18 26 14 18 14 18 6 14 6 14 14 6 14 6 18 14 18 14 26"/>
    </g>
    <g id="search">
      <rect id="space-4" data-name="space" width="32" height="32" style="fill: none"/>
      <path d="M13,22a9,9,0,1,1,9-9A9,9,0,0,1,13,22ZM13,7a6,6,0,1,0,6,6A6,6,0,0,0,13,7ZM27.56,25.44l-6-6-2.12,2.12,6,6Z"/>
    </g>
    <g id="downloads">
      <rect width="32" height="32" style="fill: none"/>
      <path d="M27,28H5V24H27ZM16,22.83,6.59,13.41l2.83-2.83L14,15.17V4h4V15.17l4.59-4.59,2.83,2.83Z"/>
    </g>
    <g id="menu">
      <rect id="space-5" data-name="space" width="32" height="32" style="fill: none"/>
      <path d="M28,17H4V14H28ZM28,7H4v3H28Zm0,14H4v3H28Z"/>
    </g>
    <g id="filter">
      <rect width="32" height="32" style="fill: none"/>
      <polygon points="15 27.83 12 27.83 12 16.62 2.94 7.56 4 5 28 5 29.06 7.56 20 16.62 20 23 17 23 17 15.38 24.38 8 7.62 8 15 15.38 15 27.83"/>
    </g>
  </g>
</svg>
