<?xml version="1.0" encoding="utf-8"?>
<!-- Generator: Adobe Illustrator 19.0.0, SVG Export Plug-In . SVG Version: 6.00 Build 0)  -->
<svg version="1.1" id="icn20" xmlns="http://www.w3.org/2000/svg" xmlns:xlink="http://www.w3.org/1999/xlink" x="0px" y="0px"
	 viewBox="0 0 20 20" style="enable-background:new 0 0 20 20;" xml:space="preserve">
<g id="menu">
	<rect id="space_86_" style="&st0;" width="20" height="20"/>
	<path d="M18,11H2V9h16V11z M18,5H2v2h16V5z M18,13H2v2h16V13z"/>
</g>
<g id="bell">
	<rect id="space_286_" style="fill:none;" width="20" height="20"/>
	<path d="M17,13v2H3v-2l2-2V6.5c0-2.761,2.239-5,5-5h0c2.761,0,5,2.239,5,5V11L17,13z M7.5,16c0,1.381,1.119,2.5,2.5,2.5
		s2.5-1.119,2.5-2.5H7.5z"/>
</g>
<g id="message">
	<rect id="space_513_" style="&st0;" width="20" height="20"/>
	<path style="&st1;" d="M16.2,4H3.8C2.8,4,2,4.8,2,5.8v9.5c0,1,0.8,1.8,1.8,1.8h12.5c1,0,1.8-0.8,1.8-1.8V5.8C18,4.8,17.2,4,16.2,4z
		 M3.8,9.6l6.2,2.9l6.2-2.9V7.6L10,10.5L3.8,7.6V9.6z"/>
</g>
<g id="file">
	<rect id="space_1113_" style="&st0;" width="20" height="20"/>
	<path d="M15.9,8H11V3.1L15.9,8z M12,2H5.5C4.7,2,4,2.7,4,3.5v14C4,18.3,4.7,19,5.5,19h10c0.8,0,1.5-0.7,1.5-1.5V7L12,2L12,2z
		 M7.2,12c-0.4,0-0.8-0.3-0.8-0.8s0.3-0.8,0.8-0.8h6.5c0.4,0,0.8,0.3,0.8,0.8S14.2,12,13.8,12H7.2L7.2,12z M7.2,16
		c-0.4,0-0.8-0.3-0.8-0.8s0.3-0.8,0.8-0.8h6.5c0.4,0,0.8,0.3,0.8,0.8S14.2,16,13.8,16H7.2L7.2,16z"/>
</g>
<g id="search">
	<rect id="space_26_" style="&st0;" width="20" height="20"/>
	<path d="M17,15.8l-4.5-4.5c0.7-0.9,1-2,1-3.2c0-3-2.5-5.5-5.5-5.5S2.5,5,2.5,8S5,13.5,8,13.5c1.2,0,2.3-0.4,3.2-1l4.5,4.5
		c0.3,0.3,0.9,0.3,1.2,0S17.3,16.1,17,15.8z M4.2,8c0-2.1,1.7-3.8,3.8-3.8s3.8,1.7,3.8,3.8s-1.7,3.8-3.8,3.8S4.2,10.1,4.2,8z"/>
</g>
<g id="atsign">
	<rect id="space_420_" style="&st0;" width="20" height="20"/>
	<g>
		<path d="M10.3,18.8c-0.3,0-0.7,0-1,0c-2.6-0.2-4.7-1.3-6.2-3c-1.4-1.7-2.1-4-1.9-6.6c0.2-2.5,1.3-4.7,3.2-6.2
			c1.8-1.4,4-2.1,6.4-1.9c4.8,0.4,6.7,2.9,7.4,4.4c1,2.2,0.8,4.9-0.5,6.9c-1,1.4-2.4,2.1-4,2c-0.8-0.1-1.4-0.5-1.8-1
			c-0.1-0.1-0.1-0.2-0.2-0.3c-1,0.8-2.3,1.2-3.9,0.9c-1.4-0.2-2.4-1.2-2.8-2.5C4.5,9.9,5.1,7.9,6.4,6.7c1-0.9,3.3-2.3,7.3-0.8
			c0.5,0.2,0.7,0.7,0.6,1.2c-0.2,0.8-0.4,1.6-0.5,2.3c0,0,0,0.1,0,0.1c0,0.1,0,0.2-0.1,0.2c-0.2,0.9-0.3,1.4-0.3,1.4
			c-0.2,0.8,0,1.1,0,1.2c0.1,0.1,0.2,0.1,0.4,0.2c1,0.1,1.8-0.7,2.1-1.2c0.8-1.1,1.2-3.1,0.4-4.9c-0.6-1.3-2.1-2.9-5.7-3.3
			C8.8,3.1,7,3.6,5.7,4.6C4.2,5.8,3.4,7.4,3.2,9.4c-0.2,2,0.3,3.8,1.4,5.1c1.1,1.3,2.8,2.1,4.8,2.3c1.5,0.1,2.9-0.1,4-0.7
			c0.5-0.3,1.1-0.1,1.3,0.4c0.2,0.5,0.1,1.1-0.4,1.3C13.1,18.5,11.8,18.8,10.3,18.8z M10.3,7.2c-1.1,0-1.9,0.3-2.6,0.9
			C6.8,9,6.7,10.2,6.9,11c0.1,0.4,0.5,1,1.2,1.1c2.6,0.5,3.5-2,3.7-2.9c0.1-0.5,0.2-1.1,0.4-1.7C11.5,7.3,10.9,7.2,10.3,7.2z"/>
	</g>
</g>
<g id="window">
	<rect id="space_526_" style="&st0;" width="20" height="20"/>
	<linearGradient id="SVGID_1_" gradientUnits="userSpaceOnUse" x1="10" y1="15" x2="10" y2="4">
		<stop  offset="0" style="stop-color:#FFFFFF"/>
		<stop  offset="1" style="stop-color:#000000"/>
	</linearGradient>
	<rect x="3" y="4" style="&st2;" width="14" height="11"/>
	<path id="XMLID_771_" d="M1,3v13c0,0.6,0.4,1,1,1h16c0.6,0,1-0.4,1-1V3c0-0.6-0.4-1-1-1H2C1.4,2,1,2.4,1,3z M3,4h14v11H3V4z"/>
	<path style="&st3;" d="M16,5l-4,4 M16,8l-4,4"/>
</g>
<g id="brick-wall">
	<rect id="space_533_" style="&st0;" width="20" height="20"/>
	<path id="XMLID_709_" d="M1,3v13c0,0.6,0.4,1,1,1h16c0.6,0,1-0.4,1-1V3c0-0.6-0.4-1-1-1H2C1.4,2,1,2.4,1,3z M3,4h7v3H3V4z M13,11H7
		V8h6V11z M3,8h3v3H3V8z M3,15v-3h6v3H3z M17,15h-7v-3h7V15z M17,11h-3V8h3V11z M17,7h-6V4h6V7z"/>
</g>
<g id="places">
	<rect id="space_1280_" style="&st0;" width="20" height="20"/>
	<path d="M16,18H4c-1.1,0-2-0.9-2-2V4c0-1.1,0.9-2,2-2h12c1.1,0,2,0.9,2,2v12C18,17.1,17.1,18,16,18z M4.4,13c1.5,0,2.8,0.7,3.8,1.8
		c0.5,0.5,1.1,0.7,1.8,0.7h0c0.7,0,1.3-0.3,1.8-0.7c1-1,2.4-1.8,3.8-1.8l0.4,0V4H4v9L4.4,13z"/>
</g>
<g id="reply">
	<rect style="&st0;" width="20" height="20"/>
	<path d="M17.9,15.8C17.1,11,13.8,7.4,9,6.6V3L2.5,9.5L9,16v-4.4C12.8,11.6,16,12.5,17.9,15.8z"/>
</g>
<g id="forward">
	<rect style="&st0;" width="20" height="20"/>
	<polygon points="4,9 10.5,2.5 17,9 12.8,9 10.5,17.9 8.2,9 	"/>
</g>
<g id="replied">
	<rect style="&st0;" width="20" height="20"/>
	<path d="M15.1,15.6c-1.8-3.9-4.4-5.6-8.9-5.6H5.6l2.7,2.7c0.4,0.4,0.4,1,0,1.4s-1,0.4-1.4,0L2.4,9.7C2,9.3,2,8.7,2.4,8.3l4.4-4.4
		c0.4-0.4,1-0.4,1.4,0s0.4,1,0,1.4L5.5,8h0.7c5.2,0,8.6,2.2,10.7,6.8C17.5,16,15.6,16.8,15.1,15.6z"/>
</g>
<g id="forwarded">
	<rect style="&st0;" width="20" height="20"/>
	<path d="M10,16.6c-0.6,0-1-0.4-1-1V6.8L6.3,9.5c-0.4,0.4-1,0.4-1.4,0s-0.4-1,0-1.4l4.4-4.4c0.4-0.4,1-0.4,1.4,0L15.1,8
		c0.4,0.4,0.4,1,0,1.4s-1,0.4-1.4,0L11,6.8v8.8C11,16.2,10.6,16.6,10,16.6z"/>
</g>
<g id="cross">
	<rect id="space_32_" style="&st0;" width="20" height="20"/>
	<polygon points="11,3 9,3 9,9 3,9 3,11 9,11 9,17 11,17 11,11 17,11 17,9 11,9 	"/>
</g>
<g id="more">
	<rect id="space_27_" style="&st0;" width="20" height="20"/>
	<path d="M12,10c0,1.1-0.9,2-2,2c-1.1,0-2-0.9-2-2s0.9-2,2-2C11.1,8,12,8.9,12,10z M12,4c0,1.1-0.9,2-2,2C8.9,6,8,5.1,8,4s0.9-2,2-2
		C11.1,2,12,2.9,12,4z M12,16c0,1.1-0.9,2-2,2c-1.1,0-2-0.9-2-2s0.9-2,2-2C11.1,14,12,14.9,12,16z"/>
</g>
<g id="filter">
	<rect style="&st0;" width="20" height="20"/>
	<polygon points="9,17.8 7,17.8 7,10.4 1.3,4.7 2,3 18,3 18.7,4.7 13,10.4 13,15 11,15 11,9.6 15.6,5 4.4,5 9,9.6 	"/>
</g>
<g id="downloads">
	<rect id="space_819_" style="&st0;" width="20" height="20"/>
	<path d="M14.8,17H4.2v-2.5h10.5V17z M9.5,13.8L3.9,8.1l1.8-1.8L8.2,9V2h2.5v7l2.6-2.6l1.8,1.8L9.5,13.8z"/>
</g>
<g id="sort">
	<rect id="space_53_" style="&st0;" width="20" height="20"/>
	<path d="M14,11H2V9h12V11z M18,5H2v2h16V5z M10,13H2v2h8V13z"/>
</g>
<g id="earth">
	<rect id="space_512_" style="&st0;" width="20" height="20"/>
	<path d="M10,2.5c-4.1,0-7.5,3.4-7.5,7.5s3.4,7.5,7.5,7.5s7.5-3.4,7.5-7.5S14.1,2.5,10,2.5z M4.5,10c0-0.9,0.2-1.8,0.6-2.6
		c0,0.1,0,0.3,0.1,0.4c0.1,0,0.1,0.1,0.2,0.1C5.8,8,6,8.2,6.2,8.4c0.1,0.1,0.1,0.3,0.3,0.4C6.6,9,6.8,9,6.9,9c0,0,0-0.1,0-0.1
		c0,0,0.1,0,0.1,0.1c0.2,0.5-0.4,0.9-0.4,1.4c0,0.4,0.3,0.7,0.4,1c0,0.1,0.1,0.3,0.1,0.4c0.1,0.2,0.4,0.3,0.6,0.5
		c0.3,0.3,0.3,0.8,0.3,1.3c0,0.6,0.2,1.2,0.4,1.8C6.3,14.7,4.5,12.6,4.5,10z M10,15.5c-0.2,0-0.5,0-0.7-0.1c0,0-0.1-0.1-0.1-0.1
		c0.1-0.2,0.1-0.3,0.1-0.5c0.3-0.1,0.6-0.2,0.7-0.5c0.3,0,0.5-0.3,0.6-0.5c0.1-0.2,0.2-0.5,0.4-0.7c0.3-0.3,0.9-0.3,1-0.7
		c0-0.1,0-0.3,0-0.4c0-0.2,0.2-0.5,0.5-0.5c0.1,0,0.1,0,0.2-0.1c0-0.1,0-0.1,0-0.2c0-0.2-0.1-0.4-0.1-0.6c-0.3-0.2-0.7-0.3-1-0.4
		c-0.3-0.1-0.7-0.3-1-0.4c0-0.4-0.3-0.7-0.7-0.7c-0.1,0-0.2,0-0.2,0C9.5,9.1,9.5,9,9.5,9C9.4,9,9.2,8.9,9.1,8.8c0,0,0-0.1-0.1-0.1
		c0,0-0.1,0-0.1,0c-0.3,0-0.7,0-1-0.1c-0.3,0-0.7,0-0.8,0.3C7,8.8,6.9,8.8,6.9,8.7c-0.1,0-0.1,0.1-0.2,0.1c-0.1-0.2-0.1-0.5,0-0.7
		C6.5,8,6.4,7.9,6.3,7.9c0-0.1,0.1-0.2,0.1-0.3c0.1-0.1,0.1-0.2,0.1-0.3c0-0.1-0.2-0.1-0.2,0c0,0,0,0.1,0,0.1c0,0.1-0.2,0.1-0.3,0.1
		C5.7,7.4,5.7,7.2,5.7,7.1c0.1-0.4,0.6-0.7,1-0.7c0.1,0,0.3,0.1,0.3,0.2c0,0,0,0,0,0c0,0.1,0.1,0.1,0.1,0.2c0.1-0.3,0.2-0.6,0.2-0.9
		c0.4,0.1,0.8-0.2,0.9-0.6c0.4,0.1,0.6-0.5,0.9-0.5c0,0-0.1-0.1-0.1-0.1c0.2,0,0.5-0.1,0.7-0.1c0,0,0,0,0,0c0,0,0.1,0,0.1,0
		c0,0,0.1,0,0.1,0c0.9,0,1.7,0.2,2.4,0.6c-0.1,0.1-0.2,0.2-0.2,0.3c-0.1,0.2,0,0.2,0,0.4c0,0.2-0.2,0.4-0.3,0.5
		c0,0.2,0.2,0.4,0.2,0.5c0,0.1,0,0.2,0,0.2c0,0.1,0.2,0.2,0.3,0.3c-0.3,0.3-0.1,0.7,0.2,1c0.2,0.2,0.4,0.3,0.6,0.5
		c0,0.1,0,0.1,0,0.2c0.1,0.1,0.2,0.2,0.3,0.3c0.3-0.1,0.2-0.1,0.6,0c0.1-0.1,0.4-0.4,0.6-0.3c0.3,0,0.3,0.3,0.6,0.4
		c0,0.5,0.1,1,0.2,1.4C15.1,13.4,12.8,15.5,10,15.5z"/>
</g>
<g id="member">
	<rect id="space_99_" style="&st0;" width="20" height="20"/>
	<g>
		<path d="M14,13v3h-1v-3c0-0.5-0.5-1-1-1v7h-1v-3c0-0.5-0.5-1-1-1s-1,0.5-1,1v3H8v-7c-0.5,0-1,0.5-1,1v3H6v-3c0-1.1,0.9-2,2-2h4
			C13.1,11,14,11.9,14,13z M10,5.5C8.6,5.5,7.5,6.6,7.5,8s1.1,2.5,2.5,2.5s2.5-1.1,2.5-2.5S11.4,5.5,10,5.5z"/>
	</g>
</g>
<g id="manager-member">
	<rect id="space_94_" style="&st0;" width="20" height="20"/>
	<g>
		<path d="M9,12v7H8v-2c0-0.5-0.5-1-1-1s-1,0.5-1,1v2H5v-7c-0.5,0-1,0.5-1,1v2H3v-2c0-1.1,0.9-2,2-2h11c1.1,0,2,0.9,2,2v2h-1v-2
			c0-0.5-0.5-1-1-1v7h-1v-2c0-0.5-0.5-1-1-1s-1,0.5-1,1v2h-1v-7H9z M10.8,1.6c-0.7,0-1.2,0.6-1.2,1.2c0,0.4,0.2,0.7,0.5,1L9.4,4.3
			C9,4.7,8.2,4.5,7.9,4L7.4,3c0.5-0.1,0.9-0.6,0.9-1.2c0-0.7-0.6-1.2-1.2-1.2S5.8,1.2,5.8,1.8c0,0.6,0.4,1,0.9,1.2L6.1,4
			C5.8,4.5,5,4.7,4.6,4.3L4,3.8c0.3-0.2,0.5-0.6,0.5-1c0-0.7-0.6-1.2-1.2-1.2S2,2.2,2,2.8s0.6,1.2,1.2,1.2c0,0,0.1,0,0.1,0l0.3,2.1
			C3.7,6.6,4.1,7,4.6,7h4.7c0.5,0,0.9-0.4,1-0.9l0.3-2.1c0,0,0.1,0,0.1,0c0.7,0,1.2-0.6,1.2-1.2S11.4,1.6,10.8,1.6z M4.5,8
			c0,1.4,1.1,2.5,2.5,2.5S9.5,9.4,9.5,8H4.5z M14,5.5c-1.4,0-2.5,1.1-2.5,2.5s1.1,2.5,2.5,2.5s2.5-1.1,2.5-2.5S15.4,5.5,14,5.5z"/>
	</g>
</g>
<g id="team">
	<rect id="space_90_" style="&st0;" width="20" height="20"/>
	<path d="M6.5,8c0,1.4-1.1,2.5-2.5,2.5S1.5,9.4,1.5,8S2.6,5.5,4,5.5S6.5,6.6,6.5,8z M10,5.5C8.6,5.5,7.5,6.6,7.5,8s1.1,2.5,2.5,2.5
		s2.5-1.1,2.5-2.5S11.4,5.5,10,5.5z M16,5.5c-1.4,0-2.5,1.1-2.5,2.5s1.1,2.5,2.5,2.5s2.5-1.1,2.5-2.5S17.4,5.5,16,5.5z M6,12v7H5v-2
		c0-0.5-0.5-1-1-1s-1,0.5-1,1v2H2v-7c-0.5,0-1,0.5-1,1v3H0v-3c0-1.1,0.9-2,2-2h16c1.1,0,2,0.9,2,2v2h-1v-2c0-0.5-0.5-1-1-1v7h-1v-2
		c0-0.5-0.5-1-1-1s-1,0.5-1,1v2h-1v-7h-2v7h-1v-2c0-0.5-0.5-1-1-1s-1,0.5-1,1v2H8v-7H6z"/>
</g>
<g id="manager">
	<rect id="space_89_" style="&st0;" width="20" height="20"/>
	<g>
		<path d="M14,13v2h-1v-2c0-0.5-0.5-1-1-1v7h-1v-2c0-0.5-0.5-1-1-1s-1,0.5-1,1v2H8v-7c-0.5,0-1,0.5-1,1v2H6v-2c0-1.1,0.9-2,2-2h4
			C13.1,11,14,11.9,14,13z M7.5,8c0,1.4,1.1,2.5,2.5,2.5s2.5-1.1,2.5-2.5H7.5z M15,2.8c0,0.7-0.6,1.2-1.2,1.2c0,0-0.1,0-0.1,0
			l-0.3,2.1c-0.1,0.5-0.5,0.9-1,0.9H7.6c-0.5,0-0.9-0.4-1-0.9L6.4,4.1c0,0-0.1,0-0.1,0C5.6,4.1,5,3.5,5,2.8s0.6-1.2,1.2-1.2
			s1.2,0.6,1.2,1.2c0,0.4-0.2,0.7-0.5,1l0.5,0.5C8,4.7,8.8,4.5,9.1,4l0.5-1C9.1,2.9,8.7,2.4,8.7,1.8c0-0.7,0.6-1.2,1.2-1.2
			s1.2,0.6,1.2,1.2c0,0.6-0.4,1-0.9,1.2l0.5,1c0.3,0.6,1.1,0.7,1.5,0.3L13,3.8c-0.3-0.2-0.5-0.6-0.5-1c0-0.7,0.6-1.2,1.2-1.2
			S15,2.2,15,2.8z"/>
	</g>
</g>
<g id="crown">
	<rect id="space_477_" style="&st0;" width="20" height="20"/>
	<path d="M16.2,6.8c-1.2,0-2.1,0.9-2.1,2.1c0,0.6,0.3,1.2,0.8,1.6l-0.9,0.8c-0.8,0.7-2.1,0.5-2.6-0.4l-0.9-1.6c0.8-0.3,1.5-1,1.5-2
		c0-1.2-0.9-2.1-2.1-2.1c-1.2,0-2.1,0.9-2.1,2.1c0,0.9,0.6,1.7,1.5,2l-0.9,1.6C8,11.8,6.7,12,5.9,11.3l-0.9-0.8
		c0.5-0.4,0.8-1,0.8-1.6c0-1.2-0.9-2.1-2.1-2.1c-1.2,0-2.1,0.9-2.1,2.1c0,1.2,0.9,2.1,2.1,2.1c0.1,0,0.1,0,0.2,0l0.4,3.4
		c0.1,0.8,0.8,1.5,1.7,1.5H14c0.8,0,1.5-0.6,1.7-1.5L16,11c0.1,0,0.1,0,0.2,0c1.2,0,2.1-0.9,2.1-2.1C18.3,7.8,17.4,6.8,16.2,6.8z"/>
</g>
<g id="person">
	<rect id="space_470_" style="&st0;" width="20" height="20"/>
	<path d="M4,18v-3c0-1.7,1.3-3,3-3h6c1.7,0,3,1.3,3,3v3H4z M6.2,6c0,2.1,1.7,3.8,3.8,3.8s3.8-1.7,3.8-3.8S12.1,2.2,10,2.2
		S6.2,3.9,6.2,6z"/>
</g>
<g id="hourglass">
	<rect id="space_463_" style="&st0;" width="20" height="20"/>
	<g style="&st4;">
		<path d="M14,14.2V17H6v-2.8c0-0.8,0.3-1.6,0.9-2.1L8,11V9L6.9,7.9C6.4,7.4,6.1,6.7,6,6h8c-0.1,0.7-0.4,1.4-0.9,1.9L12,9v2l1.1,1.1
			C13.7,12.7,14,13.5,14,14.2z"/>
	</g>
	<path d="M13.1,7.9C13.7,7.3,14,6.6,14,5.8V4h1V3c0-0.6-0.4-1-1-1H6C5.4,2,5,2.4,5,3v1h1v1.8c0,0.8,0.3,1.6,0.9,2.1L8,9v2l-1.1,1.1
		C6.3,12.7,6,13.4,6,14.2V16H5v1c0,0.6,0.4,1,1,1h8c0.6,0,1-0.4,1-1v-1h-1v-1.8c0-0.8-0.3-1.6-0.9-2.1L12,11V9L13.1,7.9z M11.3,11.7
		l1.1,1.1c0.4,0.4,0.6,0.9,0.6,1.4V16H7v-1.8c0-0.5,0.2-1,0.6-1.4l1.1-1.1L9,11.4V8.6L8.7,8.3L7.6,7.2C7.2,6.8,7,6.3,7,5.8V4h6v1.8
		c0,0.5-0.2,1-0.6,1.4l-1.1,1.1L11,8.6v2.8L11.3,11.7z"/>
</g>
<g id="bookmark-sign">
	<rect id="space_616_" style="&st0;" width="20" height="20"/>
	<path d="M16,19l-6-6l-6,6V4c0-1.7,1.3-3,3-3h6c1.7,0,3,1.3,3,3V19z"/>
</g>
<g id="bookmark-sign-wire">
	<rect id="space_623_" style="&st0;" width="20" height="20"/>
	<path d="M13,2.5c0.8,0,1.5,0.7,1.5,1.5v11.4l-3.4-3.4L10,10.9l-1.1,1.1l-3.4,3.4V4c0-0.8,0.7-1.5,1.5-1.5H13 M13,1H7
		C5.3,1,4,2.3,4,4v15l6-6l6,6V4C16,2.3,14.7,1,13,1L13,1z"/>
</g>
<g id="photo-wire">
	<g id="space_756_">
		<rect style="&st0;" width="20" height="20"/>
	</g>
	<path d="M10,6c0,1.1-0.9,2-2,2S6,7.1,6,6s0.9-2,2-2S10,4.9,10,6z M20,15V4c0-1.7-1.3-3-3-3H3C1.3,1,0,2.3,0,4v11c0,1.7,1.3,3,3,3
		h14C18.7,18,20,16.7,20,15z M5.5,11.9l3,3l7-7l2.5,2.5V15c0,0.6-0.4,1-1,1H3c-0.4,0-0.8-0.3-0.9-0.6L5.5,11.9z M17,3
		c0.6,0,1,0.4,1,1v3.6l-2.5-2.5l-7,7l-3-3L2,12.6V4c0-0.6,0.4-1,1-1H17z"/>
</g>
<g id="video-wire">
	<g id="space_749_">
		<rect style="&st0;" width="20" height="20"/>
	</g>
	<g>
		<g>
			<g>
				<polygon points="7,6 7,13 13.5,9.5 				"/>
			</g>
		</g>
		<g>
			<path d="M17,18h-1.5v-1c0-0.3-0.2-0.5-0.5-0.5s-0.5,0.2-0.5,0.5v1h-4v-1c0-0.3-0.2-0.5-0.5-0.5S9.5,16.7,9.5,17v1h-4v-1
				c0-0.3-0.2-0.5-0.5-0.5S4.5,16.7,4.5,17v1H3c-1.7,0-3-1.3-3-3V4c0-1.7,1.3-3,3-3h1.5v1c0,0.3,0.2,0.5,0.5,0.5S5.5,2.3,5.5,2V1h4
				v1c0,0.3,0.2,0.5,0.5,0.5s0.5-0.2,0.5-0.5V1h4v1c0,0.3,0.2,0.5,0.5,0.5s0.5-0.2,0.5-0.5V1H17c1.7,0,3,1.3,3,3v11
				C20,16.7,18.7,18,17,18z M12.3,16h0.4c0.4-0.9,1.3-1.5,2.3-1.5c1,0,1.9,0.6,2.3,1.5c0.4-0.1,0.7-0.5,0.7-1V4c0-0.5-0.3-0.8-0.7-1
				C16.9,3.9,16,4.5,15,4.5c-1,0-1.9-0.6-2.3-1.5h-0.4C11.9,3.9,11,4.5,10,4.5S8.1,3.9,7.7,3H7.3C6.9,3.9,6,4.5,5,4.5
				C4,4.5,3.1,3.9,2.7,3C2.3,3.2,2,3.5,2,4v11c0,0.5,0.3,0.8,0.7,1C3.1,15.1,4,14.5,5,14.5c1,0,1.9,0.6,2.3,1.5h0.4
				c0.4-0.9,1.3-1.5,2.3-1.5S11.9,15.1,12.3,16z"/>
		</g>
	</g>
</g>
<g id="two-eighth-note-wire">
	<g id="space_735_">
		<rect style="&st0;" width="20" height="20"/>
	</g>
	<path d="M20,3.3C20,2,18.7,1,17.5,1.4L9.2,3.6C7.9,4,7,5.2,7,6.5v5c-0.5-0.2-1.2-0.4-1.9-0.4c-2.5,0-5.1,1.5-5.1,4.1
		c0,2.1,1.7,3.2,3.9,3.2C6.4,18.5,9,17,9,14.4V6.5c0-0.4,0.3-0.8,0.7-1L18,3.3V9c-0.5-0.2-1.2-0.4-1.9-0.4c-2.5,0-5.1,1.5-5.1,4.1
		c0,2.1,1.7,3.2,3.9,3.2c2.5,0,5.1-1.5,5.1-4.1C20,11.8,20,3.3,20,3.3z M3.9,16.5c-0.9,0-1.9-0.3-1.9-1.2c0-1.4,1.8-2.1,3.1-2.1
		c0.6,0,1.9,0.1,1.9,1.2C7,15.8,5.2,16.5,3.9,16.5z M14.9,14c-0.9,0-1.9-0.3-1.9-1.2c0-1.4,1.8-2.1,3.1-2.1c0.6,0,1.9,0.1,1.9,1.2
		C18,13.3,16.2,14,14.9,14z"/>
</g>
<g id="tag">
	<rect id="space_333_" style="&st0;" width="20" height="20"/>
	<g>
		<g>
			<path d="M9,3.6L2.7,9.8c-0.8,0.8-0.8,2,0,2.8l4.6,4.6c0.8,0.8,2,0.8,2.8,0l6.2-6.2c0.4-0.4,0.6-0.9,0.6-1.4V5c0-1.1-0.9-2-2-2
				h-4.6C9.9,3,9.4,3.2,9,3.6z M15,7.5c0,1.4-1.1,2.5-2.5,2.5S10,8.9,10,7.5S11.1,5,12.5,5S15,6.1,15,7.5z"/>
		</g>
	</g>
</g>
</svg>
