<?xml version="1.0" encoding="utf-8"?>
<!-- Generator: Adobe Illustrator 19.0.0, SVG Export Plug-In . SVG Version: 6.00 Build 0)  -->
<svg version="1.1" id="icn24" xmlns="http://www.w3.org/2000/svg" xmlns:xlink="http://www.w3.org/1999/xlink" x="0px" y="0px"
	 viewBox="0 0 24 24" style="enable-background:new 0 0 24 24;" xml:space="preserve">
<g id="menu">
	<rect id="space_6_" x="0" style="fill:none;" width="24" height="24"/>
	<path d="M21,13H3v-2h18V13z M21,6H3v2h18V6z M21,16H3v2h18V16z"/>
</g>
<g id="bookmark">
	<rect id="space_784_" x="0" style="fill:none;" width="24" height="24"/>
	<polygon points="20,24 12,16 4,24 4,0 20,0 	"/>
</g>
<g id="bookmark-wire">
	<rect id="space_776_" x="0" y="0" style="fill:none;" width="24" height="24"/>
	<polygon points="20,0 20,0 20,24 12,16 4,24 4,0 5,0 5,21.6 12,14.6 19,21.6 19,0 	"/>
</g>
<g id="brick-wall">
	<rect id="space_165_" x="0" style="fill:none;" width="24" height="24"/>
	<path id="XMLID_748_" d="M2,5v14c0,1.1,0.9,2,2,2h16c1.1,0,2-0.9,2-2V5c0-1.1-0.9-2-2-2H4C2.9,3,2,3.9,2,5z M4,5h9v4H4V5z M16,14H8
		v-4h8V14z M4,10h3v4H4V10z M4,19v-4h8v4H4z M20,19h-7v-4h7V19z M20,14h-3v-4h3V14z M20,9h-6V5h6V9z"/>
</g>
<g id="window">
	<rect id="space_173_" x="0" style="fill:none;" width="24" height="24"/>
	<linearGradient id="SVGID_1_" gradientUnits="userSpaceOnUse" x1="12" y1="19" x2="12" y2="5">
		<stop  offset="0" style="stop-color:#FFFFFF"/>
		<stop  offset="1" style="stop-color:#000000"/>
	</linearGradient>
	<rect x="4" y="5" style="opacity:0.3;fill:url(#SVGID_1_);" width="16" height="14"/>
	<path d="M2,5v14c0,1.1,0.9,2,2,2h16c1.1,0,2-0.9,2-2V5c0-1.1-0.9-2-2-2H4C2.9,3,2,3.9,2,5z M4,5h16v14H4V5z M19.1,6.1l-0.2-0.2
		l-6,6l0.2,0.2L19.1,6.1z M19.1,10.1l-0.2-0.2l-6,6l0.2,0.2L19.1,10.1z"/>
</g>
<g id="places">
	<rect id="space_398_" x="0" style="fill:none;" width="24" height="24"/>
	<path d="M19,21H5c-1.1,0-2-0.9-2-2V5c0-1.1,0.9-2,2-2h14c1.1,0,2,0.9,2,2v14C21,20.1,20.1,21,19,21z M5.4,15c1.6,0,3.2,0.7,4.3,2
		c0.6,0.6,1.4,1,2.3,1h0c0.9,0,1.7-0.4,2.3-1c1.1-1.3,2.7-2,4.3-2l0.4,0V5H5v10L5.4,15z"/>
</g>
<g id="search">
	<rect id="space_13_" x="0" style="fill:none;" width="24" height="24"/>
	<path d="M20.2,18.6l-4.9-4.9c0.7-1.1,1.2-2.3,1.2-3.7c0-3.6-2.9-6.5-6.5-6.5S3.5,6.4,3.5,10s2.9,6.5,6.5,6.5c1.4,0,2.7-0.4,3.7-1.2
		l4.9,4.9c0.4,0.4,1.2,0.4,1.6,0C20.6,19.8,20.6,19.1,20.2,18.6z M5.5,10c0-2.5,2-4.5,4.5-4.5s4.5,2,4.5,4.5s-2,4.5-4.5,4.5
		S5.5,12.5,5.5,10z"/>
</g>
<g id="forward">
	<rect id="space_42_" x="0" style="fill:none;" width="24" height="24"/>
	<polygon id="XMLID_7_" points="5,10 12.5,2.5 20,10 15,10 12.5,21 10,10 	"/>
</g>
<g id="reply">
	<rect id="space_41_" x="0" style="fill:none;" width="24" height="24"/>
	<path d="M21,19c-1-5.7-5.3-10-11-11V4l-7.5,7.5L10,19v-5C14.5,14,18.7,15.1,21,19z"/>
</g>
<g id="more">
	<rect id="space_43_" x="6" style="fill:none;" width="12" height="24"/>
	<path d="M14.5,12c0,1.4-1.1,2.5-2.5,2.5c-1.4,0-2.5-1.1-2.5-2.5s1.1-2.5,2.5-2.5C13.4,9.5,14.5,10.6,14.5,12z M12,2.5
		c-1.4,0-2.5,1.1-2.5,2.5s1.1,2.5,2.5,2.5c1.4,0,2.5-1.1,2.5-2.5S13.4,2.5,12,2.5z M12,16.5c-1.4,0-2.5,1.1-2.5,2.5s1.1,2.5,2.5,2.5
		c1.4,0,2.5-1.1,2.5-2.5S13.4,16.5,12,16.5z"/>
</g>
<g id="crown">
	<rect id="space_245_" x="0" style="fill:none;" width="24" height="24"/>
	<g>
		<path d="M19.5,8.2c-1.4,0-2.5,1.1-2.5,2.5c0,0.8,0.4,1.5,0.9,1.9l-1,0.9c-1,0.9-2.5,0.6-3.1-0.5l-1-1.9c1-0.3,1.8-1.3,1.8-2.4
			c0-1.4-1.1-2.5-2.5-2.5c-1.4,0-2.5,1.1-2.5,2.5c0,1.1,0.7,2.1,1.8,2.4l-1,1.9c-0.6,1.1-2.1,1.4-3.1,0.5l-1-0.9
			C6.6,12.1,7,11.5,7,10.7c0-1.4-1.1-2.5-2.5-2.5C3.1,8.2,2,9.3,2,10.7s1.1,2.5,2.5,2.5c0.1,0,0.2,0,0.3,0l0.5,4.1
			c0.1,1,1,1.7,2,1.7h9.5c1,0,1.9-0.7,2-1.7l0.5-4.1c0.1,0,0.2,0,0.3,0c1.4,0,2.5-1.1,2.5-2.5S20.9,8.2,19.5,8.2z"/>
	</g>
</g>
<g id="tag">
	<rect id="space_704_" x="0" style="fill:none;" width="24" height="24"/>
	<g>
		<g>
			<path d="M10.6,3.9l-7.5,7.5c-1.2,1.2-1.2,3.1,0,4.2l5.3,5.3c1.2,1.2,3.1,1.2,4.2,0l7.5-7.5c0.6-0.6,0.9-1.3,0.9-2.1V6
				c0-1.7-1.3-3-3-3h-5.3C11.9,3,11.2,3.3,10.6,3.9z M18,9c0,1.7-1.3,3-3,3s-3-1.3-3-3s1.3-3,3-3S18,7.3,18,9z"/>
		</g>
	</g>
</g>
<g id="tag-wire">
	<rect id="space_325_" style="fill:none;" width="24" height="24"/>
	<path d="M18,5c0.6,0,1,0.4,1,1v5.3c0,0.3-0.1,0.5-0.3,0.7l-7.5,7.5c-0.3,0.3-0.6,0.3-0.7,0.3c-0.2,0-0.5,0-0.7-0.3l-5.3-5.3
		c-0.3-0.3-0.3-0.6-0.3-0.7c0-0.2,0-0.5,0.3-0.7L12,5.3C12.2,5.1,12.5,5,12.7,5H18 M18,3h-5.3c-0.8,0-1.6,0.3-2.1,0.9l-7.5,7.5
		c-1.2,1.2-1.2,3.1,0,4.2l5.3,5.3c0.6,0.6,1.4,0.9,2.1,0.9s1.5-0.3,2.1-0.9l7.5-7.5c0.6-0.6,0.9-1.3,0.9-2.1V6C21,4.3,19.7,3,18,3
		L18,3z M15,8c0.6,0,1,0.4,1,1s-0.4,1-1,1s-1-0.4-1-1S14.4,8,15,8 M15,6c-1.7,0-3,1.3-3,3s1.3,3,3,3s3-1.3,3-3S16.7,6,15,6L15,6z"/>
</g>
<g id="microphone-wire">
	<rect id="space_769_" style="fill:none;" width="24" height="24"/>
	<path d="M12,3.5c1.7,0,3,1.3,3,3v6c0,1.7-1.3,3-3,3s-3-1.3-3-3v-6C9,4.8,10.3,3.5,12,3.5 M12,1.5c-2.8,0-5,2.2-5,5v6
		c0,2.8,2.2,5,5,5s5-2.2,5-5v-6C17,3.7,14.8,1.5,12,1.5L12,1.5z M18,23c0-0.6-0.4-1-1-1h-4v-1.1c4.2-0.5,7.5-4.1,7.5-8.4
		c0-0.6-0.4-1-1-1s-1,0.4-1,1c0,3.6-2.9,6.5-6.5,6.5s-6.5-2.9-6.5-6.5c0-0.6-0.4-1-1-1s-1,0.4-1,1c0,4.3,3.3,7.9,7.5,8.4V22H7
		c-0.6,0-1,0.4-1,1s0.4,1,1,1h10C17.6,24,18,23.6,18,23z"/>
</g>
<g id="attach">
	<rect id="space_797_" style="fill:none;" width="24" height="24"/>
	<path d="M9,22.4c-1.9,0-3.8-0.7-5.2-2.2c-2.9-2.9-2.9-7.5,0-10.4l6.5-6.5c1-1,2.3-1.5,3.7-1.5s2.7,0.5,3.7,1.5c2,2,2,5.4,0,7.4
		l-6.5,6.5c-1.2,1.2-3.2,1.2-4.4,0c-0.6-0.6-0.9-1.4-0.9-2.2s0.3-1.6,0.9-2.2l6.5-6.5c0.4-0.4,1-0.4,1.4,0s0.4,1,0,1.4l-6.5,6.5
		C8,14.4,7.9,14.7,7.9,15s0.1,0.6,0.3,0.8c0.4,0.4,1.1,0.4,1.6,0l6.5-6.5c1.3-1.3,1.3-3.3,0-4.6c-1.2-1.2-3.4-1.2-4.6,0l-6.5,6.5
		c-2.1,2.1-2.1,5.5,0,7.6c2.1,2.1,5.5,2.1,7.6,0l7.5-7.5c0.4-0.4,1-0.4,1.4,0s0.4,1,0,1.4l-7.5,7.5C12.8,21.6,10.9,22.4,9,22.4z"/>
</g>
<g id="small-face-wire">
	<rect id="space_28_" style="fill:none;" width="24" height="24"/>
	<path d="M17.5,9.5c0,1.1-0.9,2-2,2s-2-0.9-2-2s0.9-2,2-2S17.5,8.4,17.5,9.5z M8.5,7.5c-1.1,0-2,0.9-2,2s0.9,2,2,2s2-0.9,2-2
		S9.6,7.5,8.5,7.5z M12,22C5.1,22,1.5,18.5,1.5,12S5.1,2,12,2s10.5,3.5,10.5,10S18.9,22,12,22z M12,4c-5.7,0-8.5,2.6-8.5,8
		s2.8,8,8.5,8s8.5-2.6,8.5-8S17.7,4,12,4z M12,18c-1.6,0-5.4,0-6.3-3.6c-0.1-0.5,0.2-1.1,0.7-1.2C7,13,7.5,13.4,7.7,13.9
		C8.1,15.4,9.2,16,12,16s3.9-0.6,4.3-2.1c0.1-0.5,0.7-0.9,1.2-0.7c0.5,0.1,0.9,0.7,0.7,1.2C17.4,18,13.6,18,12,18z"/>
</g>
<g id="camera-wire">
	<rect id="space_790_" style="fill:none;" width="24" height="24"/>
	<path d="M14.2,4l2.4,2.4L17.2,7H18h1c1.1,0,2,0.9,2,2v9c0,1.1-0.9,2-2,2H5c-1.1,0-2-0.9-2-2V9c0-1.1,0.9-2,2-2h1h0.8l0.6-0.6L9.8,4
		H14.2 M15,2H9L6,5H5C2.8,5,1,6.8,1,9v9c0,2.2,1.8,4,4,4h14c2.2,0,4-1.8,4-4V9c0-2.2-1.8-4-4-4h-1L15,2L15,2z M12,9c2.2,0,4,1.8,4,4
		s-1.8,4-4,4s-4-1.8-4-4S9.8,9,12,9 M12,7c-3.3,0-6,2.7-6,6s2.7,6,6,6s6-2.7,6-6S15.3,7,12,7L12,7z"/>
</g>
<g id="manager">
	<rect id="space_93_" x="0" style="fill:none;" width="24" height="24"/>
	<path d="M16,13v4h-1v-4c0-0.5-0.5-1-1-1v10h-1v-4c0-0.5-0.5-1-1-1s-1,0.5-1,1v4h-1V12c-0.5,0-1,0.5-1,1v4H8v-4c0-1.1,0.9-2,2-2h4
		C15.1,11,16,11.9,16,13z M15.7,1.6c-0.7,0-1.2,0.6-1.2,1.2c0,0.4,0.2,0.7,0.5,0.9l-0.5,0.5C14,4.7,13.2,4.6,12.9,4l-0.5-1
		c0.5-0.2,0.9-0.6,0.9-1.2c0-0.7-0.6-1.2-1.2-1.2c-0.7,0-1.2,0.6-1.2,1.2c0,0.6,0.4,1,0.9,1.2l-0.5,1C10.8,4.6,10,4.7,9.6,4.3L9,3.8
		c0.3-0.2,0.5-0.6,0.5-0.9c0-0.7-0.6-1.2-1.2-1.2C7.6,1.6,7,2.2,7,2.8s0.6,1.2,1.2,1.2c0,0,0.1,0,0.1,0l0.3,2.1C8.7,6.6,9.1,7,9.6,7
		h4.7c0.5,0,0.9-0.4,1-0.9l0.3-2.1c0,0,0.1,0,0.1,0c0.7,0,1.3-0.6,1.3-1.2S16.4,1.6,15.7,1.6z M12,10.5c1.4,0,2.5-1.1,2.5-2.5h-5
		C9.5,9.4,10.6,10.5,12,10.5z"/>
</g>
<g id="member">
	<rect id="space_85_" x="0" style="fill:none;" width="24" height="24"/>
	<g>
		<path d="M16,13v4h-1v-4c0-0.5-0.5-1-1-1v10h-1v-4c0-0.5-0.5-1-1-1s-1,0.5-1,1v4h-1V12c-0.5,0-1,0.5-1,1v4H8v-4c0-1.1,0.9-2,2-2h4
			C15.1,11,16,11.9,16,13z M12,5.5c-1.4,0-2.5,1.1-2.5,2.5s1.1,2.5,2.5,2.5s2.5-1.1,2.5-2.5S13.4,5.5,12,5.5z"/>
	</g>
</g>
<g id="manager-member">
	<rect id="space_101_" x="0" style="fill:none;" width="24" height="24"/>
	<path d="M19,13v4h-1v-4c0-0.5-0.5-1-1-1v10h-1v-4c0-0.5-0.5-1-1-1s-1,0.5-1,1v4h-1V12h-3v10H9v-4c0-0.5-0.5-1-1-1s-1,0.5-1,1v4H6
		V12c-0.5,0-1,0.5-1,1v4H4v-4c0-1.1,0.9-2,2-2h11C18.1,11,19,11.9,19,13z M4.4,4.1l0.3,2.1C4.7,6.6,5.1,7,5.6,7h4.7
		c0.5,0,0.9-0.4,1-0.9l0.3-2.1c0,0,0.1,0,0.1,0c0.7,0,1.2-0.6,1.2-1.2s-0.6-1.2-1.2-1.2c-0.7,0-1.2,0.6-1.2,1.2
		c0,0.4,0.2,0.7,0.5,0.9l-0.5,0.5C10,4.7,9.2,4.6,8.9,4L8.4,3c0.5-0.2,0.9-0.6,0.9-1.2c0-0.7-0.6-1.2-1.2-1.2
		c-0.7,0-1.2,0.6-1.2,1.2c0,0.6,0.4,1,0.9,1.2L7.1,4C6.8,4.6,6,4.7,5.6,4.3L5,3.8c0.3-0.2,0.5-0.6,0.5-0.9c0-0.7-0.6-1.2-1.2-1.2
		C3.6,1.6,3,2.2,3,2.8s0.6,1.2,1.2,1.2C4.3,4.1,4.3,4.1,4.4,4.1z M15,10.5c1.4,0,2.5-1.1,2.5-2.5c0-1.4-1.1-2.5-2.5-2.5
		c-1.4,0-2.5,1.1-2.5,2.5C12.5,9.4,13.6,10.5,15,10.5z M8,10.5c1.4,0,2.5-1.1,2.5-2.5h-5C5.5,9.4,6.6,10.5,8,10.5z"/>
</g>
<g id="team">
	<rect id="space_109_" x="0" style="fill:none;" width="24" height="24"/>
	<path d="M7.5,8c0,1.4-1.1,2.5-2.5,2.5S2.5,9.4,2.5,8S3.6,5.5,5,5.5S7.5,6.6,7.5,8z M12,5.5c-1.4,0-2.5,1.1-2.5,2.5s1.1,2.5,2.5,2.5
		s2.5-1.1,2.5-2.5S13.4,5.5,12,5.5z M19,5.5c-1.4,0-2.5,1.1-2.5,2.5s1.1,2.5,2.5,2.5s2.5-1.1,2.5-2.5S20.4,5.5,19,5.5z M7,12v10H6
		v-4c0-0.5-0.5-1-1-1s-1,0.5-1,1v4H3V12c-0.5,0-1,0.5-1,1v4H1v-4c0-1.1,0.9-2,2-2h18c1.1,0,2,0.9,2,2v4h-1v-4c0-0.5-0.5-1-1-1v10h-1
		v-4c0-0.5-0.5-1-1-1s-1,0.5-1,1v4h-1V12h-3v10h-1v-4c0-0.5-0.5-1-1-1s-1,0.5-1,1v4h-1V12H7z"/>
</g>
<g id="photo-wire">
	<rect id="space_755_" style="fill:none;" width="24" height="24"/>
	<path d="M12,8c0,1.1-0.9,2-2,2S8,9.1,8,8s0.9-2,2-2S12,6.9,12,8z M23,18V5c0-1.7-1.3-3-3-3H4C2.3,2,1,3.3,1,5v13c0,1.7,1.3,3,3,3
		h16C21.7,21,23,19.7,23,18z M7.5,13.9l3,3l7-7l3.5,3.5V18c0,0.6-0.4,1-1,1H4c-0.4,0-0.8-0.3-0.9-0.6L7.5,13.9z M20,4
		c0.6,0,1,0.4,1,1v5.6l-3.5-3.5l-7,7l-3-3L3,15.6V5c0-0.6,0.4-1,1-1H20z"/>
</g>
<g id="film-wire">
	<rect id="space_748_" style="fill:none;" width="24" height="24"/>
	<path d="M9,8v7l6.5-3.5L9,8z M20,21h-1.5v-1c0-0.3-0.2-0.5-0.5-0.5s-0.5,0.2-0.5,0.5v1h-5v-1c0-0.3-0.2-0.5-0.5-0.5
		s-0.5,0.2-0.5,0.5v1h-5v-1c0-0.3-0.2-0.5-0.5-0.5S5.5,19.7,5.5,20v1H4c-1.7,0-3-1.3-3-3V5c0-1.7,1.3-3,3-3h1.5v1
		c0,0.3,0.2,0.5,0.5,0.5S6.5,3.3,6.5,3V2h5v1c0,0.3,0.2,0.5,0.5,0.5s0.5-0.2,0.5-0.5V2h5v1c0,0.3,0.2,0.5,0.5,0.5s0.5-0.2,0.5-0.5V2
		H20c1.7,0,3,1.3,3,3v13C23,19.7,21.7,21,20,21z M14.3,19h1.4c0.4-0.9,1.3-1.5,2.3-1.5c1,0,1.9,0.6,2.3,1.5c0.4-0.1,0.7-0.5,0.7-1V5
		c0-0.5-0.3-0.8-0.7-1C19.9,4.9,19,5.5,18,5.5c-1,0-1.9-0.6-2.3-1.5h-1.4C13.9,4.9,13,5.5,12,5.5S10.1,4.9,9.7,4H8.3
		C7.9,4.9,7,5.5,6,5.5C5,5.5,4.1,4.9,3.7,4C3.3,4.2,3,4.5,3,5v13c0,0.5,0.3,0.8,0.7,1C4.1,18.1,5,17.5,6,17.5c1,0,1.9,0.6,2.3,1.5
		h1.4c0.4-0.9,1.3-1.5,2.3-1.5S13.9,18.1,14.3,19z"/>
</g>
<g id="bell">
	<rect id="space_412_" style="fill:none;" width="24" height="24"/>
	<path d="M12,22.7c1.4,0,2.5-1.1,2.5-2.5h-5C9.5,21.5,10.6,22.7,12,22.7z M21,16v3H3v-3l3-3V8c0-3.3,2.7-6,6-6h0c3.3,0,6,2.7,6,6v5
		L21,16z"/>
</g>
<g id="bell-ringed">
	<rect id="space_405_" style="fill:none;" width="24" height="24"/>
	<path style="opacity:0.75;" d="M20.3,20.3c-0.1,0-0.3,0-0.4-0.1c-0.2-0.2-0.2-0.5,0-0.7c0.7-0.7,1-1.5,1-2.5s-0.4-1.8-1-2.5
		c-0.2-0.2-0.2-0.5,0-0.7s0.5-0.2,0.7,0c0.9,0.8,1.3,2,1.3,3.2s-0.5,2.3-1.3,3.2C20.6,20.3,20.5,20.3,20.3,20.3z M3.7,20.3
		c-0.1,0-0.3,0-0.4-0.1C2.5,19.3,2,18.2,2,17s0.5-2.3,1.3-3.2c0.2-0.2,0.5-0.2,0.7,0s0.2,0.5,0,0.7c-0.7,0.7-1,1.5-1,2.5
		s0.4,1.8,1,2.5c0.2,0.2,0.2,0.5,0,0.7C3.9,20.3,3.8,20.3,3.7,20.3z"/>
	<path style="opacity:0.5;" d="M21.7,21.7c-0.1,0-0.3,0-0.4-0.1c-0.2-0.2-0.2-0.5,0-0.7c1-1,1.6-2.4,1.6-3.9s-0.6-2.8-1.6-3.9
		c-0.2-0.2-0.2-0.5,0-0.7s0.5-0.2,0.7,0c1.2,1.2,1.9,2.9,1.9,4.6s-0.7,3.4-1.9,4.6C22,21.7,21.9,21.7,21.7,21.7z M2.3,21.7
		c-0.1,0-0.3,0-0.4-0.1C0.7,20.4,0,18.7,0,17s0.7-3.4,1.9-4.6c0.2-0.2,0.5-0.2,0.7,0s0.2,0.5,0,0.7c-1,1-1.6,2.4-1.6,3.9
		s0.6,2.8,1.6,3.9c0.2,0.2,0.2,0.5,0,0.7C2.5,21.7,2.4,21.7,2.3,21.7z"/>
	<path d="M17,9v5l2,2v2H5v-2l2-2V9c0-2.8,2.2-5,5-5h0C14.8,4,17,6.2,17,9z M12,21c1.1,0,2-0.9,2-2h-4C10,20.1,10.9,21,12,21z"/>
</g>
<g id="bell-muted">
	<rect id="space_1273_" style="fill:none;" width="24" height="24"/>
	<path d="M21.1,18.3l-1.4,1.4l-16-16l1.4-1.4l3.3,3.3C9.3,4.6,10.6,4,12,4c2.8,0,5,2.2,5,5v5.2L21.1,18.3z M7,14l-2,2v2h10.2L7,9.8
		V14z M12,21c1.1,0,2-0.9,2-2h-4C10,20.1,10.9,21,12,21z"/>
</g>
<g id="forwarded">
	<g id="space_40_">
		<rect x="0" style="fill:none;" width="24" height="24"/>
	</g>
	<g>
		<path d="M12.5,20.5c-0.8,0-1.5-0.7-1.5-1.5V9.1l-2.9,2.9c-0.6,0.6-1.5,0.6-2.1,0s-0.6-1.5,0-2.1l5.5-5.5c0.6-0.6,1.5-0.6,2.1,0
			l5.5,5.5c0.6,0.6,0.6,1.5,0,2.1s-1.5,0.6-2.1,0L14,9.1V19C14,19.8,13.3,20.5,12.5,20.5z"/>
	</g>
</g>
<g id="replied">
	<rect x="0" style="fill:none;" width="24" height="24"/>
	<path d="M18.6,19.5C16.5,15,13.4,13,8.2,13h0l2.9,2.9c0.6,0.6,0.6,1.5,0,2.1s-1.5,0.6-2.1,0l-5.5-5.5c-0.6-0.6-0.6-1.5,0-2.1
		l5.5-5.5c0.6-0.6,1.5-0.6,2.1,0s0.6,1.5,0,2.1l-3,3h0.1c6.4,0,10.6,2.6,13.1,8.3C22.1,20.1,19.4,21.3,18.6,19.5z"/>
</g>
<g id="gear">
	<rect id="space_367_" style="fill:none;" width="24" height="24"/>
	<g id="XMLID_358_">
		<path d="M3.3,13.9l-0.4-0.1c-0.8-0.2-1.4-0.9-1.4-1.8c0,0,0,0,0,0c0-0.8,0.6-1.6,1.4-1.8l0.4-0.1C3.9,10,4.4,9.5,4.6,9
			c0,0,0,0,0-0.1c0.2-0.6,0.2-1.2-0.1-1.7L4.3,6.8C3.9,6.1,4,5.2,4.6,4.6c0,0,0,0,0,0C5.2,4,6.1,3.9,6.8,4.3l0.3,0.2
			c0.5,0.3,1.2,0.3,1.7,0.1c0,0,0,0,0.1,0c0.6-0.2,1-0.7,1.2-1.3l0.1-0.4c0.2-0.8,0.9-1.4,1.8-1.4c0,0,0,0,0,0
			c0.8,0,1.6,0.6,1.8,1.4l0.1,0.4C14,3.9,14.5,4.4,15,4.6c0,0,0,0,0.1,0c0.6,0.2,1.2,0.2,1.7-0.1l0.3-0.2c0.7-0.4,1.7-0.4,2.3,0.2
			c0,0,0,0,0,0c0.6,0.6,0.7,1.5,0.2,2.3l-0.2,0.3c-0.3,0.5-0.3,1.2-0.1,1.7c0,0,0,0,0,0.1c0.2,0.6,0.7,1,1.3,1.2l0.4,0.1
			c0.8,0.2,1.4,0.9,1.4,1.8c0,0,0,0,0,0c0,0.8-0.6,1.6-1.4,1.8l-0.4,0.1c-0.6,0.1-1.1,0.6-1.3,1.2c0,0,0,0,0,0.1
			c-0.2,0.6-0.2,1.2,0.1,1.7l0.2,0.3c0.4,0.7,0.4,1.7-0.2,2.3c0,0,0,0,0,0c-0.6,0.6-1.5,0.7-2.3,0.2l-0.3-0.2
			c-0.5-0.3-1.2-0.3-1.7-0.1c0,0,0,0-0.1,0c-0.6,0.2-1,0.7-1.2,1.3l-0.1,0.4c-0.2,0.8-0.9,1.4-1.8,1.4c0,0,0,0,0,0
			c-0.8,0-1.6-0.6-1.8-1.4l-0.1-0.4C10,20.1,9.5,19.6,9,19.4c0,0,0,0-0.1,0c-0.6-0.2-1.2-0.2-1.7,0.1l-0.3,0.2
			c-0.7,0.4-1.7,0.4-2.3-0.2c0,0,0,0,0,0c-0.6-0.6-0.7-1.5-0.2-2.3l0.2-0.3c0.3-0.5,0.3-1.2,0.1-1.7c0,0,0,0,0-0.1
			C4.4,14.5,3.9,14,3.3,13.9z M12,7c-2.8,0-5,2.2-5,5s2.2,5,5,5s5-2.2,5-5S14.8,7,12,7z"/>
	</g>
</g>
<g id="gear-wire">
	<rect id="space_360_" style="fill:none;" width="24" height="24"/>
	<path d="M12,3c0.1,0,0.3,0.1,0.3,0.3l0.1,0.4c0.3,1,1,1.9,2.1,2.3l0.1,0c0.4,0.2,0.9,0.3,1.4,0.3c0.6,0,1.2-0.2,1.7-0.5l0.3-0.2
		c0.1,0,0.2-0.1,0.2-0.1c0.1,0,0.1,0,0.2,0.1c0.1,0.1,0.1,0.3,0,0.4l-0.2,0.3c-0.6,0.9-0.6,2.1-0.2,3.1l0,0.1c0.4,1,1.3,1.8,2.3,2
		l0.4,0.1c0.2,0,0.3,0.2,0.3,0.3c0,0.1-0.1,0.3-0.3,0.3l-0.4,0.1c-1,0.3-1.9,1-2.3,2l0,0.1c-0.4,1-0.3,2.2,0.2,3.1l0.2,0.3
		c0.1,0.1,0.1,0.3,0,0.4c-0.1,0.1-0.1,0.1-0.2,0.1c-0.1,0-0.1,0-0.2-0.1l-0.3-0.2c-0.5-0.3-1.1-0.5-1.7-0.5c-0.5,0-0.9,0.1-1.4,0.3
		l-0.1,0c-1,0.4-1.8,1.3-2,2.3l-0.1,0.4c0,0.2-0.2,0.3-0.3,0.3c-0.1,0-0.3-0.1-0.3-0.3l-0.1-0.4c-0.3-1-1-1.9-2-2.3l-0.1,0
		c-0.4-0.2-0.9-0.3-1.4-0.3c-0.6,0-1.2,0.2-1.7,0.5l-0.3,0.2c-0.1,0-0.2,0.1-0.2,0.1c-0.1,0-0.1,0-0.2-0.1c-0.1-0.1-0.1-0.3,0-0.4
		l0.2-0.3c0.6-0.9,0.6-2.1,0.2-3.1l0-0.1c-0.4-1-1.3-1.8-2.3-2l-0.4-0.1C3.1,12.3,3,12.1,3,12c0-0.1,0.1-0.3,0.3-0.3l0.4-0.1
		c1-0.3,1.9-1,2.3-2l0-0.1c0.4-1,0.3-2.2-0.2-3.1L5.6,6.1c-0.1-0.1-0.1-0.3,0-0.4c0.1-0.1,0.2-0.1,0.2-0.1c0.1,0,0.1,0,0.2,0.1
		l0.3,0.2c0.5,0.3,1.1,0.5,1.7,0.5C8.6,6.3,9,6.2,9.5,6l0.1,0c1-0.4,1.8-1.3,2-2.3l0.1-0.4C11.7,3.1,11.9,3,12,3L12,3 M12,1.5
		C12,1.5,12,1.5,12,1.5c-0.9,0-1.6,0.6-1.8,1.4l-0.1,0.4C10,3.9,9.5,4.4,9,4.6c0,0,0,0-0.1,0C8.7,4.7,8.4,4.8,8.1,4.8
		c-0.3,0-0.7-0.1-1-0.3L6.8,4.3c-0.3-0.2-0.6-0.3-1-0.3c-0.5,0-0.9,0.2-1.3,0.5c0,0,0,0,0,0C4,5.2,3.9,6.1,4.3,6.8l0.2,0.3
		c0.3,0.5,0.3,1.2,0.1,1.7c0,0,0,0,0,0.1c-0.2,0.6-0.7,1-1.3,1.2l-0.4,0.1c-0.8,0.2-1.4,0.9-1.4,1.8c0,0,0,0,0,0
		c0,0.8,0.6,1.6,1.4,1.8l0.4,0.1C3.9,14,4.4,14.5,4.6,15c0,0,0,0,0,0.1c0.2,0.6,0.2,1.2-0.1,1.7l-0.2,0.3c-0.4,0.7-0.4,1.7,0.2,2.3
		c0,0,0,0,0,0c0.3,0.3,0.8,0.5,1.3,0.5c0.3,0,0.7-0.1,1-0.3l0.3-0.2c0.3-0.2,0.6-0.3,1-0.3c0.3,0,0.5,0.1,0.8,0.2c0,0,0,0,0.1,0
		c0.6,0.2,1,0.7,1.2,1.3l0.1,0.4c0.2,0.8,0.9,1.4,1.8,1.4c0,0,0,0,0,0c0.8,0,1.6-0.6,1.8-1.4l0.1-0.4c0.1-0.6,0.6-1.1,1.2-1.3
		c0,0,0,0,0.1,0c0.3-0.1,0.5-0.2,0.8-0.2c0.3,0,0.7,0.1,1,0.3l0.3,0.2c0.3,0.2,0.6,0.3,1,0.3c0.5,0,0.9-0.2,1.3-0.5c0,0,0,0,0,0
		c0.6-0.6,0.7-1.5,0.2-2.3l-0.2-0.3c-0.3-0.5-0.3-1.2-0.1-1.7c0,0,0,0,0-0.1c0.2-0.6,0.7-1,1.3-1.2l0.4-0.1c0.8-0.2,1.4-0.9,1.4-1.8
		c0,0,0,0,0,0c0-0.8-0.6-1.6-1.4-1.8l-0.4-0.1C20.1,10,19.6,9.5,19.4,9c0,0,0,0,0-0.1c-0.2-0.6-0.2-1.2,0.1-1.7l0.2-0.3
		c0.4-0.7,0.4-1.7-0.2-2.3c0,0,0,0,0,0c-0.3-0.3-0.8-0.5-1.3-0.5c-0.3,0-0.7,0.1-1,0.3l-0.3,0.2c-0.3,0.2-0.6,0.3-1,0.3
		c-0.3,0-0.5-0.1-0.8-0.2c0,0,0,0-0.1,0c-0.6-0.2-1-0.7-1.2-1.3l-0.1-0.4C13.6,2.1,12.9,1.5,12,1.5L12,1.5z M12,8.5
		c1.9,0,3.5,1.6,3.5,3.5s-1.6,3.5-3.5,3.5S8.5,13.9,8.5,12S10.1,8.5,12,8.5 M12,7c-2.8,0-5,2.2-5,5s2.2,5,5,5c2.8,0,5-2.2,5-5
		S14.8,7,12,7L12,7z"/>
</g>
<g id="sort">
	<rect id="space_52_" style="fill:none;" width="24" height="24"/>
	<path d="M16,13H2v-2h14V13z M22,6H2v2h20V6z M10,16H2v2h8V16z"/>
</g>
<g id="filter">
	<rect id="space_825_" style="fill:none;" width="24" height="24"/>
	<polygon points="11,21 9,21 9,12.4 2.3,5.7 3,4 21,4 21.7,5.7 15,12.4 15,17 13,17 13,11.6 18.6,6 5.4,6 11,11.6 	"/>
</g>
<g id="list-check">
	<rect id="space_1301_" style="fill:none;" width="24" height="24"/>
	<path d="M5.5,19.9l-5.2-5.2l1.4-1.4l3.8,3.8L16.3,6.3l1.4,1.4L5.5,19.9z M16,19h-6v-2h6V19z M20,15h-6v-2h6V15z M24,11h-6V9h6V11z"
		/>
</g>
<g id="rotateccw">
	<rect id="space_1315_" style="fill:none;" width="24" height="24"/>
	<path d="M21,12h-2c0-3.9-3.1-7-7-7h-0.5v2.5L5.5,4l6-3.5V3H12C17,3,21,7,21,12z M13,12v7H6v-7H13 M13,10H6c-1.1,0-2,0.9-2,2v7
		c0,1.1,0.9,2,2,2h7c1.1,0,2-0.9,2-2v-7C15,10.9,14.1,10,13,10L13,10z"/>
</g>
<g id="rotatecw">
	<rect id="space_1308_" style="fill:none;" width="24" height="24"/>
	<path d="M5,12H3c0-5,4-9,9-9h0.5V0.5l6,3.5l-6,3.5V5H12C8.1,5,5,8.1,5,12z M18,12v7h-7v-7H18 M18,10h-7c-1.1,0-2,0.9-2,2v7
		c0,1.1,0.9,2,2,2h7c1.1,0,2-0.9,2-2v-7C20,10.9,19.1,10,18,10L18,10z"/>
</g>
<g id="replace">
	<rect id="space_1322_" style="fill:none;" width="24" height="24"/>
	<path d="M9.3,22.7L4.6,18l4.7-4.7l1.4,1.4L8.4,17H17v-6h2v6c0,1.1-0.9,2-2,2H8.4l2.3,2.3L9.3,22.7z M7,13H5V7c0-1.1,0.9-2,2-2h8.6
		l-2.3-2.3l1.4-1.4L19.4,6l-4.7,4.7l-1.4-1.4L15.6,7H7V13z"/>
</g>
<g id="expand">
	<rect id="space_816_" x="0" style="fill:none;" width="24" height="24"/>
	<path d="M20,5v6h-2V7.4L14.4,11L13,9.6L16.6,6H13V4h6C19.6,4,20,4.4,20,5z M9.6,13L6,16.6V13H4v6c0,0.6,0.4,1,1,1h6v-2H7.4l3.6-3.6
		L9.6,13z"/>
</g>
<g id="collapse">
	<rect id="space_808_" x="0" style="fill:none;" width="24" height="24"/>
	<path d="M11,14v6H9v-3.6L5.4,20L4,18.6L7.6,15H4v-2h6C10.6,13,11,13.4,11,14z M20,5.4L18.6,4L15,7.6V4h-2v6c0,0.6,0.4,1,1,1h6V9
		h-3.6L20,5.4z"/>
</g>
<g id="sarrow">
	<rect id="space_1357_" style="fill:none;" width="24" height="24"/>
	<polygon points="12,15 17,10 7,10 	"/>
</g>
<g id="sync">
	<rect id="space_1364_" style="fill:none;" width="24" height="24"/>
	<path d="M19.4,15.1l-1.8-0.8c0.8-1.9,0.6-3.9-0.5-5.6C15.9,7,14,6,12,6v3L8,5l4-4v3c2.7,0,5.2,1.3,6.7,3.6
		C20.2,9.8,20.4,12.6,19.4,15.1z M12,18c-2,0-3.9-1-5-2.7c-1.1-1.7-1.3-3.8-0.5-5.6L4.6,8.9c-1,2.5-0.8,5.3,0.7,7.5
		c1.5,2.2,4,3.6,6.7,3.6v3l4-4l-4-4V18z"/>
</g>
<g id="earth">
	<rect id="space_181_" x="0" style="fill:none;" width="24" height="24"/>
	<path d="M12,2.5c-5.2,0-9.5,4.3-9.5,9.5s4.3,9.5,9.5,9.5s9.5-4.3,9.5-9.5S17.2,2.5,12,2.5z M4.5,12c0-1.1,0.3-2.2,0.7-3.2
		c0,0,0,0,0,0.1C5.3,8.9,5.4,9,5.6,9C6,9.1,6.4,9.4,6.7,9.8C6.8,10,6.9,10.2,7,10.4c0.1,0.2,0.4,0.3,0.6,0.2c0-0.1,0-0.1,0-0.2
		c0.1-0.1,0.2,0,0.2,0.1c0.3,0.7-0.5,1.3-0.5,2c0,0.5,0.4,0.9,0.6,1.4c0.1,0.2,0.1,0.4,0.2,0.6C8.3,14.9,8.7,15,9,15.3
		c0.4,0.4,0.4,1.2,0.5,1.8c0.1,0.7,0.2,1.5,0.5,2.2C6.8,18.3,4.5,15.4,4.5,12z M12,19.5c-0.4,0-0.8,0-1.1-0.1c0.1-0.2,0.1-0.3,0-0.5
		c0.4-0.1,0.8-0.3,1-0.6c0.4-0.1,0.6-0.4,0.8-0.7c0.2-0.3,0.3-0.7,0.6-1c0.4-0.4,1.2-0.5,1.4-1c0.1-0.2,0-0.4,0.1-0.6
		c0.1-0.4,0.3-0.7,0.7-0.8c0.1,0,0.2-0.1,0.2-0.1c0-0.1,0-0.2,0-0.2c-0.1-0.3-0.1-0.5-0.2-0.8c-0.4-0.3-1-0.4-1.5-0.5
		c-0.5-0.2-0.9-0.4-1.4-0.6c0-0.5-0.4-1-0.9-1c-0.1,0-0.2,0-0.3,0c-0.1-0.1-0.2-0.2-0.1-0.3c-0.2,0-0.5-0.1-0.6-0.3
		c0-0.1,0-0.1-0.1-0.1c-0.1,0-0.1,0-0.2,0C10,10,9.6,10,9.1,10c-0.5,0-1,0-1.2,0.4c-0.1-0.1-0.2-0.2-0.4-0.3
		c-0.1,0.1-0.2,0.1-0.3,0.1c-0.2-0.3-0.2-0.7,0-1C7.1,9.1,6.9,9,6.7,9c0-0.1,0.1-0.3,0.1-0.4C6.9,8.5,7,8.4,6.9,8.2
		C6.8,8.1,6.6,8,6.6,8.2c0,0,0,0.1,0,0.1C6.5,8.5,6.2,8.5,6.1,8.4C5.9,8.3,5.9,8.1,6,7.9c0.1-0.6,0.8-1,1.5-1c0.2,0,0.4,0.1,0.4,0.2
		c0,0,0,0,0-0.1c0,0.1,0.1,0.2,0.2,0.2C8.2,6.9,8.3,6.4,8.3,6c0.6,0.1,1.2-0.3,1.3-0.9c0.3,0,0.5-0.2,0.8-0.4
		c0.5-0.1,1.1-0.2,1.6-0.2c1.2,0,2.3,0.3,3.3,0.8c0,0.1-0.1,0.1-0.1,0.2c-0.1,0.2,0,0.3,0,0.5c0,0.3-0.2,0.5-0.4,0.7
		C14.8,7,15,7.2,15,7.4c0,0.1-0.1,0.3,0,0.3C15,7.9,15.2,8,15.4,8.1c-0.4,0.5-0.1,1,0.3,1.4c0.2,0.3,0.6,0.5,0.8,0.8
		c0.1,0.1,0,0.2,0.1,0.3c0.1,0.2,0.3,0.3,0.4,0.4c0.4-0.2,0.3-0.2,0.8,0c0.2-0.2,0.5-0.5,0.8-0.5c0.5,0,0.4,0.5,0.9,0.5
		c0,0.2,0,0.4,0.1,0.6c0,0.1,0,0.3,0,0.4C19.5,16.1,16.1,19.5,12,19.5z"/>
</g>
<g id="star">
	<rect id="space_381_" style="fill:none;" width="24" height="24"/>
	<polygon id="XMLID_217_" points="16.2,13.9 23,9 14.6,9 12,1 9.4,9 1,9 7.8,13.9 5.2,21.9 12,17 18.8,21.9 	"/>
</g>
<g id="star-wire">
	<rect id="space_374_" style="fill:none;" width="24" height="24"/>
	<path d="M12,5.9l1.2,3.6l0.3,1h1.1h3.8l-3.1,2.2l-0.9,0.6l0.3,1l1.2,3.6l-3.1-2.2L12,15.1l-0.9,0.6L8,18l1.2-3.6l0.3-1l-0.9-0.6
		l-3.1-2.2h3.8h1.1l0.3-1L12,5.9 M12,1L9.4,9H1l6.8,4.9l-2.6,8L12,17l6.8,4.9l-2.6-8L23,9h-8.4L12,1L12,1z"/>
</g>
<g id="square-clock-wire">
	<rect id="space_311_" style="fill:none;" width="24" height="24"/>
	<path d="M19,22H5c-1.7,0-3-1.3-3-3V5c0-1.7,1.3-3,3-3h14c1.7,0,3,1.3,3,3v14C22,20.7,20.7,22,19,22z M5,4C4.4,4,4,4.4,4,5v14
		c0,0.6,0.4,1,1,1h14c0.6,0,1-0.4,1-1V5c0-0.6-0.4-1-1-1H5z M14.3,16.7L11,13.4V6h2v6.6l2.7,2.7L14.3,16.7z"/>
</g>
<g id="square-clock">
	<rect id="space_318_" style="fill:none;" width="24" height="24"/>
	<path style="fill-rule:evenodd;clip-rule:evenodd;" d="M19,22H5c-1.7,0-3-1.3-3-3V5c0-1.7,1.3-3,3-3h14c1.7,0,3,1.3,3,3v14
		C22,20.7,20.7,22,19,22z M14.3,16.7L11,13.4V6h2v6.6l2.7,2.7L14.3,16.7z"/>
</g>
<g id="atsign">
	<g id="space_419_">
		<rect style="fill:none;" width="24" height="24"/>
	</g>
	<path d="M12.3,22.6c-0.4,0-0.8,0-1.2-0.1C8,22.3,5.4,21.1,3.7,19c-1.7-2.1-2.5-4.8-2.2-7.9c0.3-3,1.6-5.7,3.8-7.4
		c2.1-1.7,4.8-2.5,7.7-2.2c5.8,0.5,8,3.6,8.9,5.3c1.2,2.6,1,6-0.7,8.3c-1.2,1.7-2.9,2.6-4.8,2.4c-1-0.1-1.7-0.6-2.2-1.2
		C14.1,16.1,14,16,14,15.9c-1.2,0.9-2.7,1.4-4.6,1.1c-1.7-0.3-2.9-1.4-3.4-3.1C5.3,11.9,6,9.5,7.6,8c1.2-1.1,3.9-2.8,8.9-1
		c0.6,0.2,0.9,0.8,0.8,1.5c-0.2,1-0.4,2-0.6,2.8c0,0,0,0.1,0,0.1c0,0.1,0,0.2-0.1,0.3c-0.2,1-0.4,1.7-0.4,1.7
		c-0.2,0.8-0.1,1.2,0,1.4c0.1,0.1,0.2,0.2,0.4,0.2c1.2,0.1,2.1-0.8,2.5-1.4c0.9-1.3,1.4-3.6,0.4-5.8c-0.7-1.6-2.5-3.5-6.8-3.9
		c-2.2-0.2-4.3,0.4-5.9,1.7C5.1,7,4.1,8.9,3.9,11.3c-0.2,2.4,0.4,4.6,1.7,6.1c1.3,1.5,3.3,2.5,5.7,2.7c1.8,0.2,3.4-0.1,4.8-0.8
		c0.6-0.3,1.4-0.1,1.7,0.6c0.3,0.6,0.1,1.4-0.6,1.7C15.8,22.3,14.1,22.6,12.3,22.6z M12.4,8.7c-1.3,0-2.3,0.4-3.1,1.1
		c-1.1,1-1.3,2.4-1,3.4c0.2,0.5,0.5,1.2,1.5,1.3c3.1,0.5,4.1-2.4,4.4-3.4c0.1-0.6,0.3-1.3,0.4-2C13.8,8.8,13.1,8.7,12.4,8.7z"/>
</g>
<g id="comment">
	<rect id="space_395_" style="fill:none;" width="24" height="24"/>
	<path style="fill-rule:evenodd;clip-rule:evenodd;" d="M17.5,9H7L1,3v11.5c0,3,2.5,5.5,5.5,5.5h11c1.5,0,2.9-0.6,3.9-1.6
		c1-1,1.6-2.4,1.6-3.9C23,11.5,20.5,9,17.5,9z M6.5,16C5.7,16,5,15.3,5,14.5S5.7,13,6.5,13S8,13.7,8,14.5S7.3,16,6.5,16z M12,16
		c-0.8,0-1.5-0.7-1.5-1.5S11.2,13,12,13s1.5,0.7,1.5,1.5S12.8,16,12,16z M17.5,16c-0.8,0-1.5-0.7-1.5-1.5s0.7-1.5,1.5-1.5
		s1.5,0.7,1.5,1.5S18.3,16,17.5,16z"/>
</g>
<g id="comments">
	<rect id="space_388_" style="fill:none;" width="24" height="24"/>
	<path style="opacity:0.5;fill-rule:evenodd;clip-rule:evenodd;" d="M17.9,10H11c-3.4,0-6.2,2.4-6.9,5.6C2.3,14.9,1,13.1,1,11V2l4,4
		h8c1.4,0,2.6,0.6,3.5,1.5C17.2,8.1,17.7,9,17.9,10z"/>
	<path style="fill-rule:evenodd;clip-rule:evenodd;" d="M23,8l-4,4h-8c-2.8,0-5,2.2-5,5v0c0,2.8,2.2,5,5,5h7c2.8,0,5-2.2,5-5V8
		 M11,15.7c-0.7,0-1.2,0.6-1.2,1.2s0.6,1.2,1.2,1.2s1.2-0.6,1.2-1.2S11.7,15.7,11,15.7z M18,15.7c-0.7,0-1.2,0.6-1.2,1.2
		s0.6,1.2,1.2,1.2s1.2-0.6,1.2-1.2S18.7,15.7,18,15.7z M14.5,15.7c-0.7,0-1.2,0.6-1.2,1.2s0.6,1.2,1.2,1.2s1.2-0.6,1.2-1.2
		S15.2,15.7,14.5,15.7z"/>
</g>
<g id="unread-circle">
	<rect id="space_3_" x="0" style="fill:none;" width="24" height="24"/>
	<circle cx="12" cy="12" r="4"/>
</g>
<g id="log">
	<rect id="space_1119_" style="fill:none;" width="24" height="24"/>
	<path style="fill-rule:evenodd;clip-rule:evenodd;" d="M19.2,2c0,0.7-0.2,1.2-1.2,1.2S16.8,2.7,16.8,2h-1.5c0,0.7-0.2,1.2-1.2,1.2
		S12.8,2.7,12.8,2h-1.5c0,0.7-0.2,1.2-1.2,1.2S8.8,2.7,8.8,2H7.2C7.2,2.7,7,3.2,6,3.2S4.8,2.7,4.8,2H4v20h0.8c0-0.7,0.2-1.2,1.2-1.2
		s1.2,0.6,1.2,1.2h1.5c0-0.7,0.2-1.2,1.2-1.2s1.2,0.6,1.2,1.2h1.5c0-0.7,0.2-1.2,1.2-1.2s1.2,0.6,1.2,1.2h1.5c0-0.7,0.2-1.2,1.2-1.2
		s1.2,0.6,1.2,1.2H20V2H19.2z M16.5,17h-9c-0.6,0-1-0.4-1-1c0-0.6,0.4-1,1-1h9c0.6,0,1,0.4,1,1C17.5,16.6,17.1,17,16.5,17z M16.5,13
		h-9c-0.6,0-1-0.4-1-1c0-0.6,0.4-1,1-1h9c0.6,0,1,0.4,1,1C17.5,12.6,17.1,13,16.5,13z M16.5,9h-9c-0.6,0-1-0.4-1-1c0-0.6,0.4-1,1-1
		h9c0.6,0,1,0.4,1,1C17.5,8.6,17.1,9,16.5,9z"/>
</g>
<g id="place-members">
	<rect id="space_1105_" style="fill:none;" width="24" height="24"/>
	<path style="fill-rule:evenodd;clip-rule:evenodd;" d="M19,4h-4.7C13.9,3.1,13,2.5,12,2.5S10.1,3.1,9.7,4H5C3.9,4,3,4.9,3,6v14
		c0,1.1,0.9,2,2,2h14c1.1,0,2-0.9,2-2V6C21,4.9,20.1,4,19,4z M12,4c0.6,0,1,0.4,1,1s-0.4,1-1,1s-1-0.4-1-1S11.4,4,12,4z M12,8.2
		c2.1,0,3.8,1.7,3.8,3.8s-1.7,3.8-3.8,3.8S8.2,14.1,8.2,12S9.9,8.2,12,8.2z M17,20H7v-1c0-1.1,0.9-2,2-2h6c1.1,0,2,0.9,2,2V20z"/>
</g>
<g id="file">
	<rect id="space_1112_" style="fill:none;" width="24" height="24"/>
	<path d="M18,22H6c-1.1,0-2-0.9-2-2V4c0-1.1,0.9-2,2-2h8l6,6v12C20,21.1,19.1,22,18,22z M15.5,12h-7c-0.6,0-1,0.4-1,1v0
		c0,0.6,0.4,1,1,1h7c0.6,0,1-0.4,1-1v0C16.5,12.4,16.1,12,15.5,12z M15.5,16h-7c-0.6,0-1,0.4-1,1v0c0,0.6,0.4,1,1,1h7
		c0.6,0,1-0.4,1-1v0C16.5,16.4,16.1,16,15.5,16z M13,3.8V9h5.2L13,3.8z"/>
</g>
<g id="sent-message">
	<rect id="space_24_" x="0" style="fill:none;" width="24" height="24"/>
	<path style="fill-rule:evenodd;clip-rule:evenodd;" d="M24,8v9c0,1.1-0.9,2-2,2H9c-1.1,0-2-0.9-2-2v-1H4v-2h3v-2H0v-2h7V8H2V6h7v0
		l0,0h13C23.1,6,24,6.9,24,8z M22,9.4l-6.5,3L9,9.4v2.2l6.5,3l6.5-3V9.4z"/>
</g>
<g id="messages">
	<rect id="space_341_" x="0" style="fill:none;" width="24" height="24"/>
	<path style="fill-rule:evenodd;clip-rule:evenodd;" d="M15,8H2c-1.1,0-2,0.9-2,2v9c0,1.1,0.9,2,2,2h13c1.1,0,2-0.9,2-2v-9
		C17,8.9,16.1,8,15,8z M2,13.6l6.5,3l6.5-3v-2.2l-6.5,3l-6.5-3V13.6z M24,6v9c0,1.1-0.9,2-2,2h-4v-4.8l4-1.9V8.1L18,10
		c0-1.6-1.4-3-3-3H7V6c0-1.1,0.9-2,2-2h13C23.1,4,24,4.9,24,6z"/>
</g>
<g id="unread-message">
	<rect id="space_440_" x="0" style="fill:none;" width="24" height="24"/>
	<path d="M22,11.6V19c0,1.1-0.9,2-2,2H4c-1.1,0-2-0.9-2-2V7c0-1.1,0.9-2,2-2h11.4C15.2,5.6,15,6.3,15,7c0,2.8,2.2,5,5,5
		C20.7,12,21.4,11.8,22,11.6z M15.1,12L12,13.4L4,9.7v2.2l8,3.7l4.9-2.3C16.3,13,15.6,12.5,15.1,12z M20,4c-1.7,0-3,1.3-3,3
		s1.3,3,3,3s3-1.3,3-3S21.7,4,20,4z"/>
</g>
<g id="microphone">
	<rect id="space_762_" style="fill:none;" width="24" height="24"/>
	<path d="M7,12.5v-6c0-2.8,2.2-5,5-5s5,2.2,5,5v6c0,2.8-2.2,5-5,5S7,15.3,7,12.5z M17,22h-4v-1.1c4.2-0.5,7.5-4.1,7.5-8.4
		c0-0.6-0.4-1-1-1s-1,0.4-1,1c0,3.6-2.9,6.5-6.5,6.5s-6.5-2.9-6.5-6.5c0-0.6-0.4-1-1-1c-0.6,0-1,0.4-1,1c0,4.3,3.3,7.9,7.5,8.4V22H7
		c-0.6,0-1,0.4-1,1s0.4,1,1,1h10c0.6,0,1-0.4,1-1S17.6,22,17,22z"/>
</g>
<g id="camera">
	<rect id="space_783_" style="fill:none;" width="24" height="24"/>
	<g>
		<path d="M23,9v9c0,2.2-1.8,4-4,4H5c-2.2,0-4-1.8-4-4V9c0-2.2,1.8-4,4-4h1l3-3h6l3,3h1C21.2,5,23,6.8,23,9z M12,7c-3.3,0-6,2.7-6,6
			s2.7,6,6,6s6-2.7,6-6S15.3,7,12,7z"/>
	</g>
</g>
<g id="bookmark-sign-wire">
	<rect id="space_622_" style="fill:none;" width="24" height="24"/>
	<path d="M17,3c0.6,0,1,0.4,1,1v14.2l-4.6-4.6L12,12.2l-1.4,1.4L6,18.2V4c0-0.6,0.4-1,1-1H17 M17,1H7C5.3,1,4,2.3,4,4v19l8-8l8,8V4
		C20,2.3,18.7,1,17,1L17,1z"/>
</g>
<g id="bookmark-sign">
	<rect id="space_615_" style="fill:none;" width="24" height="24"/>
	<path d="M20,23l-8-8l-8,8V4c0-1.7,1.3-3,3-3h10c1.7,0,3,1.3,3,3V23z"/>
</g>
<g id="person">
	<rect id="space_468_" style="fill:none;" width="24" height="24"/>
	<path d="M5,21v-3c0-2.2,1.8-4,4-4h6c2.2,0,4,1.8,4,4v3H5z M7.5,7c0,2.5,2,4.5,4.5,4.5s4.5-2,4.5-4.5s-2-4.5-4.5-4.5S7.5,4.5,7.5,7z
		"/>
</g>
<g id="hourglass">
	<rect id="space_461_" style="fill:none;" width="24" height="24"/>
	<g style="opacity:0.2;">
		<path d="M17,17.7V21H7v-3.3c0-1.1,0.4-2.1,1.2-2.8L10,13v-2L8.2,9.2C7.6,8.6,7.2,7.8,7.1,7h9.9c-0.1,0.8-0.5,1.6-1.1,2.2L14,11v2
			l1.8,1.8C16.6,15.6,17,16.6,17,17.7z"/>
	</g>
	<path d="M15.8,9.2C16.6,8.4,17,7.4,17,6.3V4h1V3c0-0.6-0.4-1-1-1H7C6.4,2,6,2.4,6,3v1h1v2.3c0,1.1,0.4,2.1,1.2,2.8L10,11v2
		l-1.8,1.8C7.4,15.6,7,16.6,7,17.7V20H6v1c0,0.6,0.4,1,1,1h10c0.6,0,1-0.4,1-1v-1h-1v-2.3c0-1.1-0.4-2.1-1.2-2.8L14,13v-2L15.8,9.2z
		 M13.3,13.7l1.8,1.8c0.6,0.6,0.9,1.3,0.9,2.1V20H8v-2.3c0-0.8,0.3-1.6,0.9-2.1l1.8-1.8l0.3-0.3v-2.8l-0.3-0.3L8.9,8.5
		C8.3,7.9,8,7.1,8,6.3V4h8v2.3c0,0.8-0.3,1.6-0.9,2.1l-1.8,1.8L13,10.6v2.8L13.3,13.7z"/>
</g>
<g id="retract-wire">
	<rect id="space_339_" style="fill:none;" width="24" height="24"/>
	<path d="M15,8.1V6.8C15,6.3,14.7,6,14.2,6h-1.5c0.2-2.1,1.1-2.8,3.7-2.8c0.4,0,0.8-0.3,0.8-0.8s-0.3-0.8-0.8-0.8
		c-3.4,0-4.9,1.2-5.2,4.2H9.8C9.3,6,9,6.3,9,6.8v1.4C6.4,9.3,4.5,11.9,4.5,15c0,4.1,3.4,7.5,7.5,7.5s7.5-3.4,7.5-7.5
		C19.5,11.9,17.6,9.3,15,8.1z M12,20.5c-3,0-5.5-2.5-5.5-5.5S9,9.5,12,9.5s5.5,2.5,5.5,5.5S15,20.5,12,20.5z M14.8,16.4
		c0.4,0.4,0.4,1,0,1.4c-0.2,0.2-0.5,0.3-0.7,0.3s-0.5-0.1-0.7-0.3L11,15.4V12c0-0.6,0.4-1,1-1s1,0.4,1,1v2.6L14.8,16.4z"/>
</g>
<g id="retract">
	<rect id="space_346_" style="fill:none;" width="24" height="24"/>
	<g>
		<path d="M15,8.1V6.8C15,6.3,14.7,6,14.2,6h-1.5c0.2-2.1,1.1-2.8,3.7-2.8c0.4,0,0.8-0.3,0.8-0.8s-0.3-0.8-0.8-0.8
			c-3.4,0-4.9,1.2-5.2,4.2H9.8C9.3,6,9,6.3,9,6.8v1.4C6.4,9.3,4.5,11.9,4.5,15c0,4.1,3.4,7.5,7.5,7.5s7.5-3.4,7.5-7.5
			C19.5,11.9,17.6,9.3,15,8.1z M14.8,17.8c-0.2,0.2-0.5,0.3-0.7,0.3s-0.5-0.1-0.7-0.3L11,15.4V12c0-0.6,0.4-1,1-1s1,0.4,1,1v2.6
			l1.8,1.8C15.2,16.8,15.2,17.4,14.8,17.8z"/>
	</g>
</g>
<g id="bin">
	<rect id="space_353_" style="fill:none;" width="24" height="24"/>
	<path d="M15,4H9V3c0-0.6,0.4-1,1-1h4c0.6,0,1,0.4,1,1V4z M19,6v1h-1v12c0,1.1-0.9,2-2,2H8c-1.1,0-2-0.9-2-2V7H5V6c0-0.6,0.4-1,1-1
		h12C18.6,5,19,5.4,19,6z M10.5,9h-1v9h1V9z M14.5,9h-1v9h1V9z"/>
</g>
<g id="nested3d">
	<g>
		<g>
			<path d="M22,14.4V9.7c0-1.2-0.6-2.3-1.7-2.9L12,2L3.7,6.8C2.6,7.4,2,8.5,2,9.7v4.7C2,24.5,22,24.5,22,14.4z M12,14.5L3.7,9.7
				c0-0.6,0.3-1.1,0.8-1.4L12,3.9l7.5,4.3c0.5,0.3,0.8,0.8,0.8,1.4L12,14.5z"/>
		</g>
		
			<radialGradient id="SVGID_2_" cx="2.2854" cy="-89.9426" r="11.4175" gradientTransform="matrix(-0.875 0 0 -0.6562 13.9995 -44.5372)" gradientUnits="userSpaceOnUse">
			<stop  offset="0" style="stop-color:#000000"/>
			<stop  offset="1" style="stop-color:#000000;stop-opacity:0"/>
		</radialGradient>
		<path style="fill:url(#SVGID_2_);" d="M12,14.5l9.9-5.7C22,9.1,22,9.4,22,9.7v4.7c0,5-5,7.6-10,7.6V14.5z"/>
	</g>
	<rect id="space_11_" style="fill:none;" width="24" height="24"/>
</g>
<g id="pencil">
	<rect id="space_600_" x="0" style="fill:none;" width="24" height="24"/>
	<path d="M17.3,10.7l-7.5,7.5C8,20,5.6,21,3,21c0-2.6,1-5,2.8-6.8l7.5-7.5L17.3,10.7z M20,4c-1.1-1.1-2.9-1.1-4,0l-1.3,1.3l4,4L20,8
		C21.1,6.9,21.1,5.1,20,4z"/>
</g>
<g id="ask_1_">
	<rect id="space_720_" x="0" style="fill:none;" width="24" height="24"/>
	<path d="M22,12c0,5.5-4.5,10-10,10S2,17.5,2,12S6.5,2,12,2S22,6.5,22,12z M12.6,13.9v-0.5c0-0.3,0.1-0.6,0.2-0.7
		c0.1-0.2,0.4-0.5,0.9-0.8c0.7-0.5,1.2-1,1.5-1.4c0.3-0.4,0.4-0.9,0.4-1.5c0-0.8-0.3-1.5-0.9-2c-0.6-0.5-1.5-0.8-2.5-0.8
		c-1.3,0-2.5,0.3-3.6,1l0.8,1.7c1-0.5,1.9-0.8,2.6-0.8c0.4,0,0.8,0.1,1,0.3c0.2,0.2,0.4,0.4,0.4,0.8c0,0.3-0.1,0.6-0.3,0.8
		c-0.2,0.2-0.5,0.6-1.1,0.9c-0.6,0.4-0.9,0.8-1.1,1.2c-0.2,0.4-0.3,0.8-0.3,1.3v0.6H12.6z M10.6,17.5c0.2,0.2,0.6,0.3,1,0.3
		c0.4,0,0.7-0.1,1-0.3c0.2-0.2,0.4-0.6,0.4-1c0-0.4-0.1-0.7-0.3-1c-0.2-0.2-0.6-0.3-1-0.3c-0.4,0-0.8,0.1-1,0.3
		c-0.2,0.2-0.3,0.5-0.3,1C10.3,16.9,10.4,17.2,10.6,17.5z"/>
</g>
<g id="open-message">
	<rect id="space_12_" x="0" style="fill:none;" width="24" height="24"/>
	<path style="fill-rule:evenodd;clip-rule:evenodd;" d="M3.2,6.9L12,2.7l8.8,4.1c0.7,0.3,1.2,1,1.2,1.8l0,9.3c0,1.1-0.9,2-2,2H4
		c-1.1,0-2-0.9-2-2l0-9.3C2,7.9,2.5,7.2,3.2,6.9z M20,8.7v2.2l-8,3.7l-8-3.7V8.7l8-3.7L20,8.7z"/>
</g>
<g id="home-wire">
	<rect id="space_290_" style="fill:none;" width="24" height="24"/>
	<g>
		<path d="M12,4.7l9.2,4.3c0.2,0.1,0.3,0.3,0.3,0.5V19c0,0.3-0.2,0.5-0.5,0.5h-4.5V15c0-2.5-2-4.5-4.5-4.5s-4.5,2-4.5,4.5v4.5H3
			c-0.3,0-0.5-0.2-0.5-0.5V9.4c0-0.2,0.1-0.4,0.3-0.5L12,4.7 M12,3L2.2,7.6C1.5,7.9,1,8.6,1,9.4V19c0,1.1,0.9,2,2,2h6v-6
			c0-1.7,1.3-3,3-3s3,1.3,3,3v6h6c1.1,0,2-0.9,2-2V9.4c0-0.8-0.5-1.5-1.2-1.8L12,3L12,3z"/>
	</g>
</g>
<g id="home">
	<rect id="space_283_" style="fill:none;" width="24" height="24"/>
	<path d="M15,15v6h6c1.1,0,2-0.9,2-2V9.4c0-0.8-0.5-1.5-1.2-1.8L12,3L2.2,7.6C1.5,7.9,1,8.6,1,9.4V19c0,1.1,0.9,2,2,2h6v-6
		c0-1.7,1.3-3,3-3h0C13.7,12,15,13.3,15,15z"/>
</g>
<g id="message-history-wire">
	<rect id="space_171_" style="fill:none;" width="24" height="24"/>
	<path d="M16,22.5c-2.7,0-5-1.4-6.3-3.5H3c-1.1,0-2-0.9-2-2V5c0-1.1,0.9-2,2-2h16c1.1,0,2,0.9,2,2v4.4c1.5,1.4,2.5,3.4,2.5,5.6
		C23.5,19.1,20.1,22.5,16,22.5z M16,9.5c-3,0-5.5,2.5-5.5,5.5s2.5,5.5,5.5,5.5s5.5-2.5,5.5-5.5S19,9.5,16,9.5z M3,9.9V17h5.8
		c-0.2-0.6-0.3-1.3-0.3-2c0-0.8,0.1-1.6,0.4-2.4L3,9.9z M3,7.7l6.8,3.2c1.3-2,3.6-3.3,6.2-3.3c1.1,0,2.1,0.2,3,0.6V5H3V7.7z
		 M17.3,17.7l-2-2C15.1,15.5,15,15.3,15,15v-4h2v3.6l1.7,1.7L17.3,17.7z"/>
</g>
<g id="message-history">
	<rect id="space_164_" style="fill:none;" width="24" height="24"/>
	<path style="fill-rule:evenodd;clip-rule:evenodd;" d="M21,9.4L21,9.4V5c0-1.1-0.9-2-2-2H3C1.9,3,1,3.9,1,5v12c0,1.1,0.9,2,2,2h6.7
		c1.3,2.1,3.7,3.5,6.3,3.5c4.1,0,7.5-3.4,7.5-7.5C23.5,12.8,22.5,10.8,21,9.4z M3,7.7l6.8,3.2c-0.2,0.3-0.3,0.5-0.5,0.8
		c0,0,0,0.1-0.1,0.1C9.1,12,9,12.3,8.9,12.6L3,9.9V7.7z M16,9.5c-3,0-5.5,2.5-5.5,5.5s2.5,5.5,5.5,5.5s5.5-2.5,5.5-5.5
		S19,9.5,16,9.5z M17.3,17.7L15,15.4V11h2v3.6l1.7,1.7L17.3,17.7z"/>
</g>
<g id="message-baloon">
	<rect id="space_185_" style="fill:none;" width="24" height="24"/>
	<path d="M20,17H7l-5,5V5c0-1.1,0.9-2,2-2h16c1.1,0,2,0.9,2,2v10C22,16.1,21.1,17,20,17z M12,10.4L4,6.7v2.2l8,3.7l8-3.7V6.7
		L12,10.4z"/>
</g>
<g id="message-baloon-wire">
	<rect id="space_178_" style="fill:none;" width="24" height="24"/>
	<path d="M20,3H4C2.9,3,2,3.9,2,5v17l5-5h13c1.1,0,2-0.9,2-2V5C22,3.9,21.1,3,20,3z M20,5v1.7l-8,3.7L4,6.7V5H20z M6.2,15l-0.6,0.6
		L4,17.2V8.9l8,3.7l8-3.7V15H6.2z"/>
</g>
<g id="arrow">
	<rect x="0" style="fill:none;" width="24" height="24"/>
	<polygon points="12,16.4 6.3,10.7 7.7,9.3 12,13.6 16.3,9.3 17.7,10.7 	"/>
</g>
<g id="arrow-up">
	<rect x="0" y="0" style="fill:none;" width="24" height="24"/>
	<polygon points="12,7.6 17.7,13.3 16.3,14.7 12,10.4 7.7,14.7 6.3,13.3 	"/>
</g>
<g id="nonsearch">
	<rect id="space_1385_" style="fill:none;" width="24" height="24"/>
	<path d="M12.5,8.2L10.7,10l1.8,1.8l-0.7,0.7L10,10.7l-1.8,1.8l-0.7-0.7L9.3,10L7.5,8.2l0.7-0.7L10,9.3l1.8-1.8L12.5,8.2z
		 M20.2,20.2c-0.4,0.4-1.2,0.4-1.6,0l-4.9-4.9c-1.1,0.7-2.3,1.2-3.7,1.2c-3.6,0-6.5-2.9-6.5-6.5S6.4,3.5,10,3.5s6.5,2.9,6.5,6.5
		c0,1.4-0.4,2.7-1.2,3.7l4.9,4.9C20.6,19.1,20.6,19.8,20.2,20.2z M10,14.5c2.5,0,4.5-2,4.5-4.5s-2-4.5-4.5-4.5s-4.5,2-4.5,4.5
		S7.5,14.5,10,14.5z"/>
</g>
<g id="xcross">
	<rect id="space_38_" style="fill:none;" width="24" height="24"/>
	<polygon points="7.1,5.6 5.6,7.1 10.6,12 5.6,16.9 7.1,18.4 12,13.4 16.9,18.4 18.4,16.9 13.4,12 18.4,7.1 16.9,5.6 12,10.6 	"/>
</g>
<g id="compose">
	<rect id="space_16_" style="fill:none;" width="24" height="24"/>
	<path d="M16,15h2v6c0,0.6-0.4,1-1,1H3c-0.6,0-1-0.4-1-1V7c0-0.6,0.4-1,1-1h6v2H4v12h12V15z M20.4,8l-6.7,6.7
		C11.7,16.8,10.4,18,7,18H6v-1c0-3.4,1.2-4.7,3.3-6.7L16,3.6c1.2-1.2,3.2-1.2,4.4,0C21.6,4.8,21.6,6.8,20.4,8z M16.6,9L15,7.4
		l-4.3,4.3c-1.7,1.7-2.5,2.5-2.7,4.2c1.8-0.2,2.6-1,4.2-2.7L16.6,9z M19,5c-0.2-0.2-0.5-0.3-0.8-0.3S17.6,4.8,17.4,5l-1,1L18,7.6
		l1-1C19.4,6.2,19.4,5.5,19,5z"/>
</g>
<g id="cross">
	<rect id="space_31_" style="fill:none;" width="24" height="24"/>
	<polygon points="13,4 11,4 11,11 4,11 4,13 11,13 11,20 13,20 13,13 20,13 20,11 13,11 	"/>
</g>
<g id="grip">
	<rect id="space_66_" style="fill:none;" width="24" height="24"/>
	<path d="M22,15H2v-2h20V15z M22,8H2v2h20V8z"/>
</g>
<g id="check">
	<rect id="space_73_" style="fill:none;" width="24" height="24"/>
	<polygon points="9,19.4 3.3,13.7 4.7,12.3 9,16.6 20.3,5.3 21.7,6.7 	"/>
</g>
<g id="heavy-check">
	<rect id="space_80_" style="fill:none;" width="24" height="24"/>
	<polygon points="9,19.1 3.4,13.6 5.6,11.4 9,14.9 17.4,6.4 19.6,8.6 	"/>
</g>
<g id="back_1_">
	<rect id="space_59_" style="fill:none;" width="24" height="24"/>
	<polygon points="20,11 8.4,11 13.7,5.7 12.3,4.3 4.6,12 12.3,19.7 13.7,18.3 8.4,13 20,13 	"/>
</g>
<g id="retry">
	<rect id="space_23_" style="fill:none;" width="24" height="24"/>
	<g>
		<path d="M12,22.5c-5.2,0-9.5-4.3-9.5-9.5S6.8,3.5,12,3.5V0.7L19.5,5L12,9.3V6.5c-3.6,0-6.5,2.9-6.5,6.5s2.9,6.5,6.5,6.5
			s6.5-2.9,6.5-6.5h3C21.5,18.2,17.2,22.5,12,22.5z"/>
	</g>
</g>
<g id="unavailable">
	<rect id="space_108_" style="fill:none;" width="24" height="24"/>
	<g>
		<path d="M12,21.5c-2.4,0-4.9-0.9-6.7-2.8C1.6,15,1.6,9,5.3,5.3C9,1.6,15,1.6,18.7,5.3l0,0c3.7,3.7,3.7,9.7,0,13.4
			C16.9,20.6,14.4,21.5,12,21.5z M8.6,17.5c2.5,1.5,5.8,1.2,8-0.9c2.2-2.2,2.5-5.5,0.9-8L8.6,17.5z M12,5.5c-1.7,0-3.3,0.6-4.6,1.9
			c-2.2,2.2-2.5,5.5-0.9,8l8.9-8.9C14.4,5.8,13.2,5.5,12,5.5z"/>
	</g>
</g>
<g id="downloads">
	<rect id="space_29_" style="fill:none;" width="24" height="24"/>
	<path d="M19,21H4v-3h15V21z M11.5,17.6L3.4,9.6l2.1-2.1l4.4,4.4V2h3v9.9l4.4-4.4l2.1,2.1L11.5,17.6z"/>
</g>
<g id="ask">
	<rect id="space_129_" style="fill:none;" width="24" height="24"/>
	<path d="M22,12c0,5.5-4.5,10-10,10S2,17.5,2,12S6.5,2,12,2S22,6.5,22,12z M12.6,13.9v-0.5c0-0.3,0.1-0.6,0.2-0.7
		c0.1-0.2,0.4-0.5,0.9-0.8c0.7-0.5,1.2-1,1.5-1.4c0.3-0.4,0.4-0.9,0.4-1.5c0-0.8-0.3-1.5-0.9-2c-0.6-0.5-1.5-0.8-2.5-0.8
		c-1.3,0-2.5,0.3-3.6,1l0.8,1.7c1-0.5,1.9-0.8,2.6-0.8c0.4,0,0.8,0.1,1,0.3c0.2,0.2,0.4,0.4,0.4,0.8c0,0.3-0.1,0.6-0.3,0.8
		c-0.2,0.2-0.5,0.6-1.1,0.9c-0.6,0.4-0.9,0.8-1.1,1.2c-0.2,0.4-0.3,0.8-0.3,1.3v0.6H12.6z M10.6,17.5c0.2,0.2,0.6,0.3,1,0.3
		c0.4,0,0.7-0.1,1-0.3c0.2-0.2,0.4-0.6,0.4-1c0-0.4-0.1-0.7-0.3-1c-0.2-0.2-0.6-0.3-1-0.3c-0.4,0-0.8,0.1-1,0.3
		c-0.2,0.2-0.3,0.5-0.3,1C10.3,16.9,10.4,17.2,10.6,17.5z"/>
</g>
<g id="alert">
	<rect id="space_804_" style="fill:none;" width="24" height="24"/>
	<path style="fill-rule:evenodd;clip-rule:evenodd;" d="M13.7,3.2L22.3,18c0.8,1.3-0.2,3-1.7,3H3.5c-1.5,0-2.5-1.7-1.7-3l8.5-14.8
		C11,1.9,13,1.9,13.7,3.2z M12,15L12,15c0.6,0,1-0.4,1.1-1l0.4-6c0-0.8-0.6-1.5-1.4-1.5h0c-0.8,0-1.5,0.7-1.4,1.5l0.4,6
		C11,14.6,11.4,15,12,15z M13.5,18L13.5,18c0,0.8-0.7,1.5-1.5,1.5h0c-0.8,0-1.5-0.7-1.5-1.5v0c0-0.8,0.7-1.5,1.5-1.5h0
		C12.8,16.5,13.5,17.2,13.5,18z"/>
</g>
<g id="exclamation-mark">
	<rect id="space_811_" style="fill:none;" width="24" height="24"/>
	<path style="fill-rule:evenodd;clip-rule:evenodd;" d="M12,16L12,16c-1.1,0-2.1-0.9-2.1-2L9.2,4C9.1,2.4,10.4,1,12,1h0
		c1.6,0,2.9,1.4,2.8,3l-0.7,10C14.1,15.1,13.1,16,12,16z M12,17.5L12,17.5c-1.4,0-2.5,1.1-2.5,2.5v0c0,1.4,1.1,2.5,2.5,2.5h0
		c1.4,0,2.5-1.1,2.5-2.5v0C14.5,18.6,13.4,17.5,12,17.5z"/>
</g>
<g id="exit">
	<g id="space_36_">
		<rect x="0" style="fill:none;" width="24" height="24"/>
	</g>
	<path d="M13,3h5.5C19.9,3,21,4.1,21,5.5v12c0,1.4-1.1,2.5-2.5,2.5H13v-3h5V6h-5V3z M8.4,3.4l2.1,2.1L6.1,10H15v3H6.1l4.4,4.4
		l-2.1,2.1l-7-7c-0.6-0.6-0.6-1.5,0-2.1L8.4,3.4z"/>
</g>
<g id="open-in-new">
	<rect id="space_1426_" style="fill:none;" width="24" height="24"/>
	<path d="M15,22h-2v-2h2v-2h2v2C17,21.1,16.1,22,15,22z M11,22H8v-2h3V22z M6,22H4c-1.1,0-2-0.9-2-2v-2h2v2h2V22z M20,17H9
		c-1.1,0-2-0.9-2-2V4c0-1.1,0.9-2,2-2h11c1.1,0,2,0.9,2,2v11C22,16.1,21.1,17,20,17z M20,15L20,15 M9,4v11h11l0-11H9z M4,16H2v-3h2
		V16z M4,11H2V9c0-1.1,0.9-2,2-2h2v2H4V11z"/>
</g>
<g id="side-bar">
	<rect id="space_1433_" style="fill:none;" width="24" height="24"/>
	<path d="M19,4H5C3.3,4,2,5.3,2,7v10c0,1.7,1.3,3,3,3h14c1.7,0,3-1.3,3-3V7C22,5.3,20.7,4,19,4z M4,17V7c0-0.6,0.4-1,1-1h10v12H5
		C4.4,18,4,17.6,4,17z"/>
</g>
<g id="infinity">
	<path style="fill:none;" d="M0,0v24h24V0H0z"/>
	<g>
		<path d="M18,17.5c-3.4,0-5.4-2.4-7.2-4.5C9.3,11.1,8,9.5,6,9.5c-1.4,0-2.5,1.1-2.5,2.5s1.1,2.5,2.5,2.5c0.5,0,1-0.1,1.5-0.3
			c0.8-0.3,1.6,0,2,0.8c0.3,0.8,0,1.6-0.8,2c-0.8,0.4-1.7,0.6-2.7,0.6c-3,0-5.5-2.5-5.5-5.5S3,6.5,6,6.5c3.4,0,5.4,2.4,7.2,4.5
			c1.5,1.9,2.8,3.5,4.8,3.5c1.4,0,2.5-1.1,2.5-2.5S19.4,9.5,18,9.5c-0.5,0-1,0.1-1.5,0.3c-0.8,0.3-1.6,0-2-0.8c-0.3-0.8,0-1.6,0.8-2
			c0.8-0.4,1.7-0.6,2.7-0.6c3,0,5.5,2.5,5.5,5.5S21,17.5,18,17.5z"/>
	</g>
</g>
<g id="pause">
	<rect id="space_958_" style="fill:none;" width="24" height="24"/>
	<path d="M6,5h4v14H6V5z M14,5v14h4V5H14z"/>
</g>
<g id="play">
	<rect id="space_951_" style="fill:none;" width="24" height="24"/>
	<polygon points="8,19 20,12 8,5 	"/>
</g>
<g id="fast-forward">
	<rect id="space_944_" style="fill:none;" width="24" height="24"/>
	<path d="M4,6l9,6l-9,6V6z M13,18l9-6l-9-6V18z"/>
</g>
<g id="fast-rewind">
	<rect id="space_937_" style="fill:none;" width="24" height="24"/>
	<path d="M22,18l-9-6l9-6V18z M13,6l-9,6l9,6V6z"/>
</g>
<g id="next">
	<rect id="space_930_" style="fill:none;" width="24" height="24"/>
	<path d="M6,6l9,6l-9,6V6z M15,18h3V6h-3V18z"/>
</g>
<g id="back">
	<rect id="space_923_" style="fill:none;" width="24" height="24"/>
	<path d="M18,18l-9-6l9-6V18z M9,6H6v12h3V6z"/>
</g>
<g id="gif">
	<rect id="space_740_" style="fill:none;" width="24" height="24"/>
	<path d="M20,4H4C2.3,4,1,5.3,1,7v10c0,1.7,1.3,3,3,3h16c1.7,0,3-1.3,3-3V7C23,5.3,21.7,4,20,4z M10,16c0,0.6-0.4,1-1,1H5v-2h3v-2H5
		c-0.6,0-1-0.4-1-1V8c0-0.6,0.4-1,1-1h4c0.6,0,1,0.4,1,1V16z M14,17h-2v-6h2V17z M13,9.5L13,9.5c-0.8,0-1.5-0.7-1.5-1.5v0
		c0-0.8,0.7-1.5,1.5-1.5h0c0.8,0,1.5,0.7,1.5,1.5v0C14.5,8.8,13.8,9.5,13,9.5z M20,9h-2v3h2v2h-2v3h-2V9c0-1.1,0.9-2,2-2h2V9z M6,9
		h2v2H6V9z"/>
</g>
<g id="two-eighth-note-wire">
	<rect id="space_733_" style="fill:none;" width="24" height="24"/>
	<path d="M20.5,2.3l-9.2,2.3C9.9,5,9,6.2,9,7.6v6.4c-0.6-0.3-1.4-0.5-2.3-0.5C3.9,13.5,1,15.2,1,18c0,2.3,1.9,3.5,4.3,3.5
		c2.8,0,5.7-1.7,5.7-4.5V7.6c0-0.5,0.3-0.9,0.8-1L21,4.3v6.6c-0.6-0.3-1.4-0.5-2.3-0.5c-2.8,0-5.7,1.7-5.7,4.5
		c0,2.3,1.9,3.5,4.3,3.5c2.8,0,5.7-1.7,5.7-4.5V4.3C23,3,21.8,2,20.5,2.3z M5.3,19.5C4.1,19.5,3,19.2,3,18c0-1.7,2.2-2.5,3.7-2.5
		C7.9,15.5,9,15.8,9,17C9,18.7,6.8,19.5,5.3,19.5z M17.3,16.5c-1.1,0-2.3-0.4-2.3-1.5c0-1.7,2.2-2.5,3.7-2.5c1.1,0,2.3,0.4,2.3,1.5
		C21,15.7,18.8,16.5,17.3,16.5z"/>
</g>
<g id="two-eighth-note">
	<rect id="space_726_" style="fill:none;" width="24" height="24"/>
	<path d="M19.9,1.4l-9.2,2.3C9.1,4.1,8,5.5,8,7.1v6.5c-0.4-0.1-0.8-0.1-1.3-0.1C3.9,13.5,1,15.2,1,18c0,2.3,1.9,3.5,4.3,3.5
		c2.8,0,5.7-1.7,5.7-4.5V7.1c0-0.2,0.2-0.4,0.4-0.5L20,4.4v6.2c-0.4-0.1-0.8-0.1-1.3-0.1c-2.8,0-5.7,1.7-5.7,4.5
		c0,2.3,1.9,3.5,4.3,3.5c2.8,0,5.7-1.7,5.7-4.5V3.8C23,2.2,21.5,1,19.9,1.4z"/>
</g>
<g id="exchange">
	<rect id="space_1475_" style="fill:none;" width="24" height="24"/>
	<path d="M9.3,20.7L4.6,16l4.7-4.7l1.4,1.4L8.4,15H18v2H8.4l2.3,2.3L9.3,20.7z M14.7,12.7l-1.4-1.4L15.6,9H6V7h9.6l-2.3-2.3l1.4-1.4
		L19.4,8L14.7,12.7z"/>
</g>
<g id="preferences">
	<rect id="space_1482_" style="fill:none;" width="24" height="24"/>
	<g>
		<path d="M19.5,8c0-1-0.6-1.9-1.5-2.3V4h-2v1.7C15.1,6.1,14.5,7,14.5,8c0,1,0.6,1.9,1.5,2.3V20h2v-9.7C18.9,9.9,19.5,9,19.5,8z
			 M17,8.5c-0.3,0-0.5-0.2-0.5-0.5s0.2-0.5,0.5-0.5s0.5,0.2,0.5,0.5S17.3,8.5,17,8.5z"/>
		<path d="M9.5,12c0-1-0.6-1.9-1.5-2.3V4H6v5.7C5.1,10.1,4.5,11,4.5,12c0,1,0.6,1.9,1.5,2.3V20h2v-5.7C8.9,13.9,9.5,13,9.5,12z
			 M7,12.5c-0.3,0-0.5-0.2-0.5-0.5s0.2-0.5,0.5-0.5s0.5,0.2,0.5,0.5S7.3,12.5,7,12.5z"/>
		<path d="M13,13.7V4h-2v9.7C10.1,14.1,9.5,15,9.5,16c0,1,0.6,1.9,1.5,2.3V20h2v-1.7c0.9-0.4,1.5-1.3,1.5-2.3
			C14.5,15,13.9,14.1,13,13.7z M12,16.5c-0.3,0-0.5-0.2-0.5-0.5s0.2-0.5,0.5-0.5s0.5,0.2,0.5,0.5S12.3,16.5,12,16.5z"/>
	</g>
</g>
<g id="info">
	<rect id="space_1440_" style="fill:none;" width="24" height="24"/>
	<path style="fill-rule:evenodd;clip-rule:evenodd;" d="M1.5,12C1.5,6.2,6.2,1.5,12,1.5S22.5,6.2,22.5,12S17.8,22.5,12,22.5
		S1.5,17.8,1.5,12z M10,10h3v7l1,1h-4l1-1v-6L10,10z M12,8.5c0.8,0,1.5-0.7,1.5-1.5S12.8,5.5,12,5.5S10.5,6.2,10.5,7
		S11.2,8.5,12,8.5z"/>
</g>
<g id="info-wire">
	<rect id="space_1447_" style="fill:none;" width="24" height="24"/>
	<path d="M12,3.5c4.7,0,8.5,3.8,8.5,8.5s-3.8,8.5-8.5,8.5S3.5,16.7,3.5,12S7.3,3.5,12,3.5 M12,1.5C6.2,1.5,1.5,6.2,1.5,12
		S6.2,22.5,12,22.5S22.5,17.8,22.5,12S17.8,1.5,12,1.5L12,1.5z M10,10h3v7l1,1h-4l1-1v-6L10,10z M12,8.5c0.8,0,1.5-0.7,1.5-1.5
		S12.8,5.5,12,5.5S10.5,6.2,10.5,7S11.2,8.5,12,8.5z"/>
</g>
<g id="sync_2_">
	<rect id="space_1_" style="fill:none;" width="24" height="24"/>
	<g>
		<path d="M18.7,7.6C17.2,5.3,14.7,4,12,4V1L8,5l4,4V6c2,0,3.9,1,5,2.7c1.1,1.7,1.3,3.8,0.5,5.6l1.8,0.8
			C20.4,12.6,20.2,9.8,18.7,7.6z"/>
		<path d="M12,18c-2,0-3.9-1-5-2.7c-1.1-1.7-1.3-3.8-0.5-5.6L4.6,8.9c-1,2.5-0.8,5.3,0.7,7.5c1.5,2.2,4,3.6,6.7,3.6v3l4-4l-4-4V18z"
			/>
	</g>
</g>
<g id="restore">
	<rect id="space_1392_" style="fill:none;" width="24" height="24"/>
	<path d="M13,7H8.4l3.3-3.3l-1.4-1.4L4.6,8l5.7,5.7l1.4-1.4L8.4,9H13c2.2,0,4,1.8,4,4s-1.8,4-4,4H8.7c-0.3-0.6-1-1-1.7-1
		c-1.1,0-2,0.9-2,2c0,1.1,0.9,2,2,2c0.7,0,1.4-0.4,1.7-1H13c3.3,0,6-2.7,6-6S16.3,7,13,7z"/>
</g>
</svg>
