<svg id="icn16" xmlns="http://www.w3.org/2000/svg" xmlns:xlink="http://www.w3.org/1999/xlink" viewBox="0 0 16 16">
  <defs>
    <linearGradient id="linear-gradient" x1="8" y1="10" x2="8" y2="5" gradientUnits="userSpaceOnUse">
      <stop offset="0" stop-color="#fff"/>
      <stop offset="1" stop-color="#d9d9d9"/>
    </linearGradient>
    <linearGradient id="linear-gradient-2" x1="8" y1="12" x2="8" y2="4" gradientUnits="userSpaceOnUse">
      <stop offset="0" stop-color="#fff"/>
      <stop offset="1"/>
    </linearGradient>
  </defs>
  <title>WebIconExporter</title>
  <g id="favedplace">
    <path d="M7,1.33,5.83,5H2a1,1,0,0,0-.59,1.81L4.5,9.08,3.31,12.74a1,1,0,0,0,1.54,1.12L8,11.6l3.12,2.27a1,1,0,0,0,1.54-1.12L11.44,9.08l3.09-2.25A1,1,0,0,0,14,5H10.12L8.92,1.33A1,1,0,0,0,7,1.33Z" style="fill: #fff"/>
    <rect id="space" width="16" height="16" style="fill: none"/>
    <polygon points="10.26 8.69 11.68 13.05 7.97 10.36 4.26 13.05 5.68 8.69 1.97 6 6.56 6 7.97 1.64 9.39 6 13.97 6 10.26 8.69" style="fill: #00b45a"/>
  </g>
  <g id="openplace">
    <rect id="_Path_" data-name="&lt;Path&gt;" x="4" y="4" width="8" height="7" rx="1" ry="1" style="fill: #fff"/>
    <rect id="space-2" data-name="space" width="16" height="16" style="fill: none"/>
    <path d="M4,5v5a1,1,0,0,0,1,1h6a1,1,0,0,0,1-1V5a1,1,0,0,0-1-1H5A1,1,0,0,0,4,5ZM5,5h6v5H5ZM7.09,9.09l-.18-.18,3-3,.18.18Z" style="fill: #d9d9d9"/>
    <rect x="5" y="5" width="6" height="5" style="opacity: 0.2;fill: url(#linear-gradient)"/>
  </g>
  <g id="closedplace">
    <rect id="_Path_2" data-name="&lt;Path&gt;" x="4" y="4" width="8" height="7" rx="1" ry="1" style="fill: #fff"/>
    <rect id="space-3" data-name="space" width="16" height="16" style="fill: none"/>
    <path id="_Compound_Path_" data-name="&lt;Compound Path&gt;" d="M4,5v5a1,1,0,0,0,1,1h6a1,1,0,0,0,1-1V5a1,1,0,0,0-1-1H5A1,1,0,0,0,4,5ZM5,5H8V7H5Zm1,5H5V8H6Zm5,0H7V8h4Zm0-3H9V5h2Z" style="fill: #d9d9d9"/>
  </g>
  <g id="cross">
    <rect id="space-4" data-name="space" width="16" height="16" style="fill: none"/>
    <polygon points="9 3 7 3 7 7 3 7 3 9 7 9 7 13 9 13 9 9 13 9 13 7 9 7 9 3"/>
  </g>
  <g id="replied">
    <rect id="space-5" data-name="space" width="16" height="16" style="fill: none"/>
    <rect id="space-6" data-name="space" width="16" height="16" style="fill: none"/>
    <path d="M11.89,12.37C10.5,9.32,8.42,8,5,8h0L6.71,9.79a1,1,0,0,1-1.41,1.41l-3.5-3.5a1,1,0,0,1,0-1.41l3.5-3.5A1,1,0,0,1,6.71,4.21L4.9,6H5c4.26,0,7,1.77,8.75,5.53a1,1,0,0,1-1.82.83Z"/>
  </g>
  <g id="forwarded">
    <rect id="space-7" data-name="space" width="16" height="16" style="fill: none"/>
    <path d="M8,13.5a1,1,0,0,1-1-1V5.91L5.21,7.71A1,1,0,0,1,3.79,6.29l3.5-3.5a1,1,0,0,1,1.41,0l3.5,3.5a1,1,0,0,1-1.41,1.41L9,5.91V12.5A1,1,0,0,1,8,13.5Z"/>
  </g>
  <g id="heavy-tick">
    <rect width="16" height="16" style="fill: none"/>
    <polygon points="6 12.41 2.29 8.71 3.71 7.29 6 9.59 11.29 4.29 12.71 5.71 6 12.41"/>
  </g>
  <g id="exclamation-mark">
    <rect id="space-8" data-name="space" width="16" height="16" style="fill: none"/>
    <path d="M10,11H6V1h4Zm0,1H6v3h4Z" style="fill-rule: evenodd"/>
  </g>
  <g id="menu">
    <rect id="space-9" data-name="space" width="16" height="16" style="fill: none"/>
    <path d="M14,9H2V8H14Zm0-4H2V6H14Zm0,6H2v1H14Z"/>
  </g>
  <g id="star">
    <rect id="space-10" data-name="space" width="16" height="16" style="fill: none"/>
    <polygon id="_Path_3" data-name="&lt;Path&gt;" points="10.26 8.69 13.97 6 9.39 6 7.97 1.64 6.56 6 1.97 6 5.68 8.69 4.26 13.05 7.97 10.36 11.68 13.05 10.26 8.69"/>
  </g>
  <g id="search">
    <rect id="space-11" data-name="space" width="16" height="16" style="fill: none"/>
    <path d="M7,11.5A4.5,4.5,0,1,1,11.5,7,4.51,4.51,0,0,1,7,11.5ZM7,4a3,3,0,1,0,3,3A3,3,0,0,0,7,4Zm7.53,9.47-3-3-1.06,1.06,3,3Z"/>
  </g>
  <g id="downloads">
    <rect width="16" height="16" style="fill: none"/>
    <path d="M13,14H3V12H13ZM8,11.41,3.29,6.71,4.71,5.29,7,7.59V2H9V7.59l2.29-2.29,1.41,1.41Z"/>
  </g>
  <g id="filter">
    <rect width="16" height="16" style="fill: none"/>
    <polygon points="7 14 6 14 6 8.71 1.15 3.85 1.5 3 14.5 3 14.85 3.85 10 8.71 10 12 9 12 9 8.29 13.29 4 2.71 4 7 8.29 7 14"/>
  </g>
  <g id="atsign">
    <rect width="16" height="16" style="fill: none"/>
    <path d="M8.21,15q-.4,0-.81,0A6.63,6.63,0,0,1,1,7.39,6.85,6.85,0,0,1,8.61,1c3.82.34,5.3,2.34,5.84,3.5A5.62,5.62,0,0,1,14,10a3.41,3.41,0,0,1-3.12,1.58,2,2,0,0,1-1.39-.8,1.88,1.88,0,0,1-.16-.28,3.69,3.69,0,0,1-3.1.76A2.76,2.76,0,0,1,4,9.23,3.89,3.89,0,0,1,5.13,5.39c.78-.74,2.58-1.8,5.83-.62a.75.75,0,0,1,.47.87c-.1.43-.19.85-.28,1.25L11,7.57l0,.2c-.15.69-.24,1.16-.24,1.16-.14.65,0,.89,0,1s.08.12.33.16a2,2,0,0,0,1.72-1,4.07,4.07,0,0,0,.3-3.94C12.6,4.1,11.4,2.78,8.48,2.52a5.31,5.31,0,0,0-6,5,5.1,5.1,0,0,0,5,6,5.93,5.93,0,0,0,3.24-.54l.67-.34.68,1.34-.67.34A7.11,7.11,0,0,1,8.21,15Zm0-9.27a3,3,0,0,0-2.09.74A2.35,2.35,0,0,0,5.48,8.8a1.28,1.28,0,0,0,1,1c2.12.37,2.82-1.64,3-2.34l.18-.83v0L9.82,6A5.87,5.87,0,0,0,8.26,5.74Z"/>
  </g>
  <g id="forward">
    <rect id="space-12" data-name="space" width="16" height="16" style="fill: none"/>
    <polygon id="_Path_4" data-name="&lt;Path&gt;" points="3.5 7 8.5 2 13.5 7 10.17 7 8.5 14.33 6.83 7 3.5 7"/>
  </g>
  <g id="reply">
    <rect id="space-13" data-name="space" width="16" height="16" style="fill: none"/>
    <path d="M14.33,12.53A8.91,8.91,0,0,0,7,5.17V2.5l-5,5,5,5V9.17C10,9.17,12.82,9.91,14.33,12.53Z"/>
  </g>
  <g id="retract">
    <rect id="space-14" data-name="space" width="16" height="16" style="fill: none"/>
    <path d="M10,5.42V4.5A.5.5,0,0,0,9.5,4h-1c.1-1.55.7-2,2.48-2a.5.5,0,1,0,0-1c-2.34,0-3.34.86-3.47,3h-1a.5.5,0,0,0-.5.5v.92a5,5,0,1,0,4,0ZM8,13.5A3.5,3.5,0,1,1,11.5,10,3.5,3.5,0,0,1,8,13.5Zm1.77-2.44a.5.5,0,1,1-.71.71L7.5,10.21V8a.5.5,0,0,1,1,0V9.79Z"/>
  </g>
  <g id="bin">
    <rect id="space-15" data-name="space" width="16" height="16" style="fill: none"/>
    <path d="M10,2H6V1h4ZM3,3H13V4H12v8a2,2,0,0,1-2,2H6a2,2,0,0,1-2-2V4H3ZM7,5.67H6V12H7Zm3,0H9V12h1Z"/>
  </g>
  <g id="printer">
    <rect id="space-16" data-name="space" width="16" height="16" style="fill: none"/>
    <path d="M11,5H5V3h6Zm3,2a1,1,0,1,1-1-1A1,1,0,0,1,14,7Zm-3,6H5V9h6Zm4-6a2,2,0,0,0-2-2H12V2H4V5H3A2,2,0,0,0,1,7v5H4v2h8V12h3Z"/>
  </g>
  <g id="message">
    <rect id="space-17" data-name="space" width="16" height="16" style="fill: none"/>
    <path d="M13.5,3H2.5A1.5,1.5,0,0,0,1,4.5v8A1.5,1.5,0,0,0,2.5,14h11A1.5,1.5,0,0,0,15,12.5v-8A1.5,1.5,0,0,0,13.5,3ZM2.5,7.76,8,10.33l5.5-2.56V6.11L8,8.67,2.5,6.11Z" style="fill-rule: evenodd"/>
  </g>
  <g id="more">
    <rect id="space-18" data-name="space" width="16" height="16" style="fill: none"/>
    <path d="M9.5,8A1.5,1.5,0,1,1,8,6.5,1.5,1.5,0,0,1,9.5,8ZM8,11.5A1.5,1.5,0,1,0,9.5,13,1.5,1.5,0,0,0,8,11.5Zm0-10A1.5,1.5,0,1,0,9.5,3,1.5,1.5,0,0,0,8,1.5Z"/>
  </g>
  <g id="sort">
    <rect id="space-19" data-name="space" width="16" height="16" style="fill: none"/>
    <path d="M11,9H2V8h9Zm3-4H2V6H14ZM8,11H2v1H8Z"/>
  </g>
  <g id="ask">
    <rect id="space-20" data-name="space" width="16" height="16" style="fill: none"/>
    <path d="M15,8A7,7,0,1,1,8,1,7,7,0,0,1,15,8ZM8.4,9.3V9a.9.9,0,0,1,.14-.52,3.11,3.11,0,0,1,.65-.58,3.84,3.84,0,0,0,1-1,1.89,1.89,0,0,0,.27-1,1.74,1.74,0,0,0-.65-1.42,2.7,2.7,0,0,0-1.76-.53,5.12,5.12,0,0,0-2.54.67l.58,1.18a4.13,4.13,0,0,1,1.84-.53,1.22,1.22,0,0,1,.72.18A.61.61,0,0,1,8.92,6a1,1,0,0,1-.18.56A3.34,3.34,0,0,1,8,7.2a2.9,2.9,0,0,0-.8.81,1.76,1.76,0,0,0-.22.9v.4ZM7,11.82a1,1,0,0,0,.7.24.93.93,0,0,0,.69-.24,1,1,0,0,0,0-1.35,1,1,0,0,0-.69-.24,1,1,0,0,0-.7.23.9.9,0,0,0-.24.68A.89.89,0,0,0,7,11.82Z"/>
  </g>
  <g id="alert">
    <rect id="space-21" data-name="space" width="16" height="16" style="fill: none"/>
    <path d="M9.3,2.39l5.4,9.36A1.5,1.5,0,0,1,13.4,14H2.6a1.5,1.5,0,0,1-1.3-2.25L6.7,2.39A1.5,1.5,0,0,1,9.3,2.39ZM9,5H7v5H9Zm0,8H7V11H9Z" style="fill-rule: evenodd"/>
  </g>
  <g id="person">
    <rect id="space-22" data-name="space" width="16" height="16" style="fill: none"/>
    <path d="M4,14V12.5a3,3,0,0,1,3-3H9a3,3,0,0,1,3,3V14ZM5,5A3,3,0,1,0,8,2,3,3,0,0,0,5,5Z"/>
  </g>
  <g id="brick-wall">
    <rect id="space-23" data-name="space" width="16" height="16" style="fill: none"/>
    <path id="_Compound_Path_2" data-name="&lt;Compound Path&gt;" d="M1,3V13a1,1,0,0,0,1,1H14a1,1,0,0,0,1-1V3a1,1,0,0,0-1-1H2A1,1,0,0,0,1,3ZM3,4H8V6H3Zm7,5H6V7h4ZM3,7H5V9H3Zm0,5V10H7v2Zm10,0H8V10h5Zm0-3H11V7h2Zm0-3H9V4h4Z"/>
  </g>
  <g id="window">
    <rect id="space-24" data-name="space" width="16" height="16" style="fill: none"/>
    <rect x="3" y="4" width="10" height="8" style="opacity: 0.2;fill: url(#linear-gradient-2)"/>
    <path d="M1,3V13a1,1,0,0,0,1,1H14a1,1,0,0,0,1-1V3a1,1,0,0,0-1-1H2A1,1,0,0,0,1,3ZM3,4H13v8H3ZM8.09,9.09l-.18-.18,4-4,.18.18Zm0,2-.18-.18,4-4,.18.18Z"/>
  </g>
  <g id="gear">
    <rect id="space-25" data-name="space" width="16" height="16" style="fill: none"/>
    <path id="_Compound_Path_3" data-name="&lt;Compound Path&gt;" d="M11.13,8A3.12,3.12,0,1,1,8,4.88,3.12,3.12,0,0,1,11.13,8Zm2,2.18,0-.07A1.25,1.25,0,0,1,14,9.37l.64-.19A1.23,1.23,0,0,0,15.5,8s0,0,0,0a1.23,1.23,0,0,0-.88-1.17L14,6.63a1.25,1.25,0,0,1-.79-.74l0-.07a1.25,1.25,0,0,1,0-1.08l.32-.59a1.23,1.23,0,0,0-.21-1.45h0a1.23,1.23,0,0,0-1.45-.21l-.59.32a1.25,1.25,0,0,1-1.08,0l-.07,0A1.25,1.25,0,0,1,9.37,2l-.19-.64A1.23,1.23,0,0,0,8,.5H8a1.23,1.23,0,0,0-1.17.88L6.63,2a1.25,1.25,0,0,1-.74.79l-.07,0a1.25,1.25,0,0,1-1.08,0l-.59-.32a1.23,1.23,0,0,0-1.45.21h0a1.23,1.23,0,0,0-.21,1.45l.32.59a1.25,1.25,0,0,1,0,1.08l0,.07A1.25,1.25,0,0,1,2,6.63l-.64.19A1.23,1.23,0,0,0,.5,8s0,0,0,0a1.23,1.23,0,0,0,.88,1.17L2,9.37a1.25,1.25,0,0,1,.79.74l0,.07a1.25,1.25,0,0,1,0,1.08l-.32.59a1.23,1.23,0,0,0,.21,1.45h0a1.23,1.23,0,0,0,1.45.21l.59-.32a1.25,1.25,0,0,1,1.08,0l.07,0a1.25,1.25,0,0,1,.74.79l.19.64A1.23,1.23,0,0,0,8,15.5H8a1.23,1.23,0,0,0,1.17-.88L9.37,14a1.25,1.25,0,0,1,.74-.79l.07,0a1.25,1.25,0,0,1,1.08,0l.59.32a1.23,1.23,0,0,0,1.45-.21h0a1.23,1.23,0,0,0,.21-1.45l-.32-.59A1.25,1.25,0,0,1,13.16,10.18Z"/>
  </g>
  <g id="crown">
    <rect id="space-26" data-name="space" width="16" height="16" style="fill: none"/>
    <path d="M13,5.79a1.66,1.66,0,0,0-1.06,2.94l-.69.61A1.33,1.33,0,0,1,9.2,9L8.5,7.71a1.67,1.67,0,1,0-1,0L6.8,9a1.33,1.33,0,0,1-2.06.36l-.69-.61A1.66,1.66,0,1,0,3,9.13l.17,0,.35,2.73A1.33,1.33,0,0,0,4.84,13h6.32a1.33,1.33,0,0,0,1.32-1.16l.35-2.73.17,0a1.67,1.67,0,0,0,0-3.33Z"/>
  </g>
  <g id="exit">
    <g id="space-27" data-name="space">
      <rect width="16" height="16" style="fill: none"/>
    </g>
    <path d="M8,14H4a2,2,0,0,1-2-2V4A2,2,0,0,1,4,2H8V4H4v8H8Zm2.71-1.29L9.29,11.29,11.59,9H6V7h5.59L9.29,4.71l1.41-1.41,4,4a1,1,0,0,1,0,1.41Z"/>
  </g>
  <g id="enter">
    <g id="space-28" data-name="space">
      <rect width="16" height="16" style="fill: none"/>
    </g>
    <path d="M12,14H8V12h4V4H8V2h4a2,2,0,0,1,2,2v8A2,2,0,0,1,12,14ZM5.71,12.71,4.29,11.29,6.59,9H2V7H6.59L4.29,4.71,5.71,3.29l4,4a1,1,0,0,1,0,1.41Z"/>
  </g>
  <g id="xcross">
    <rect id="space-29" data-name="space" width="16" height="16" style="fill: none"/>
    <polygon points="4.46 3.05 3.05 4.46 6.59 8 3.05 11.54 4.46 12.95 8 9.41 11.54 12.95 12.95 11.54 9.41 8 12.95 4.46 11.54 3.05 8 6.59 4.46 3.05"/>
  </g>
  <g id="arrow">
    <g id="space-30" data-name="space">
      <rect width="16" height="16" style="fill: none"/>
    </g>
    <g id="path">
      <polygon points="8 11.41 3.29 6.71 4.71 5.29 8 8.59 11.29 5.29 12.71 6.71 8 11.41"/>
    </g>
  </g>
  <g id="comment">
    <rect id="space-31" data-name="space" width="16" height="16" style="fill: none"/>
    <path d="M2,3H14a1,1,0,0,1,1,1v6a1,1,0,0,1-1,1H4.67L1,14.67V4A1,1,0,0,1,2,3Z" style="fill-rule: evenodd"/>
  </g>
  <g id="comments">
    <rect id="space-32" data-name="space" width="16" height="16" style="fill: none"/>
    <path d="M2,2h9a1,1,0,0,1,1,1V9H3.67L1,11.67V3A1,1,0,0,1,2,2ZM14,4.67H13V10H4v1a1,1,0,0,0,1,1h7.33L15,14.67v-9A1,1,0,0,0,14,4.67Z" style="fill-rule: evenodd"/>
  </g>
  <g id="eye-open">
    <rect id="space-33" data-name="space" width="16" height="16" style="fill: none"/>
    <path d="M6.5,6.5a1,1,0,1,0,1,1A1,1,0,0,0,6.5,6.5ZM8,5a5.56,5.56,0,0,1,3.6,1.28,3.87,3.87,0,0,1,0,3.44A5.56,5.56,0,0,1,8,11,5.56,5.56,0,0,1,4.4,9.72a3.87,3.87,0,0,1,0-3.44A5.56,5.56,0,0,1,8,5ZM8,4a6.18,6.18,0,0,1,5.95,4A6.18,6.18,0,0,1,8,12,6.18,6.18,0,0,1,2.05,8,6.18,6.18,0,0,1,8,4M8,3A7.11,7.11,0,0,0,1,8a7.11,7.11,0,0,0,7,5,7.11,7.11,0,0,0,7-5A7.11,7.11,0,0,0,8,3Z"/>
  </g>
  <g id="roll-color">
    <path d="M14.5,1H8A4,4,0,0,0,4,5v7L1.5,15H8a4,4,0,0,0,4-4V4Z" style="fill: #91dfff"/>
    <path d="M4,12H0v1.5A1.5,1.5,0,0,0,1.5,15h0A2.5,2.5,0,0,0,4,12.5Z" style="fill: #669bb3"/>
    <path d="M12,4h4V2.5A1.5,1.5,0,0,0,14.5,1h0A2.5,2.5,0,0,0,12,3.5Z" style="fill: #669bb3"/>
    <rect width="16" height="16" style="fill: none"/>
  </g>
</svg>
