<?xml version="1.0" encoding="utf-8"?>
<!-- Generator: Adobe Illustrator 19.0.0, SVG Export Plug-In . SVG Version: 6.00 Build 0)  -->
<svg version="1.1" id="icn20" xmlns="http://www.w3.org/2000/svg" xmlns:xlink="http://www.w3.org/1999/xlink" x="0px" y="0px"
	 viewBox="0 0 20 20" style="enable-background:new 0 0 20 20;" xml:space="preserve">
<g id="menu_7_">
	<rect id="space_86_" style="fill:none;" width="20" height="20"/>
	<path d="M18,11H2V9h16V11z M18,5H2v2h16V5z M18,13H2v2h16V13z"/>
</g>
<g id="bell_2_">
	<rect id="space_286_" style="fill:none;" width="20" height="20"/>
	<path d="M17,13v2H3v-2l2-2V6.5c0-2.761,2.239-5,5-5h0c2.761,0,5,2.239,5,5V11L17,13z M7.5,16c0,1.381,1.119,2.5,2.5,2.5
		s2.5-1.119,2.5-2.5H7.5z"/>
</g>
<g id="message_1_">
	<rect id="space_513_" style="fill:none;" width="20" height="20"/>
	<path style="fill-rule:evenodd;clip-rule:evenodd;" d="M16.25,4H3.75C2.784,4,2,4.784,2,5.75v9.5C2,16.216,2.784,17,3.75,17h12.5
		c0.966,0,1.75-0.784,1.75-1.75v-9.5C18,4.784,17.216,4,16.25,4z M3.75,9.553L10,12.465l6.25-2.912v-1.93L10,10.535L3.75,7.623
		V9.553z"/>
</g>
<g id="file_2_">
	<rect id="space_1113_" style="fill:none;" width="20" height="20"/>
	<path d="M15.879,8H11V3.121L15.879,8z M12,2H5.5C4.672,2,4,2.672,4,3.5v14C4,18.328,4.672,19,5.5,19h10c0.828,0,1.5-0.672,1.5-1.5
		V7L12,2L12,2z M7.25,12c-0.414,0-0.75-0.336-0.75-0.75s0.336-0.75,0.75-0.75h6.5c0.414,0,0.75,0.336,0.75,0.75S14.164,12,13.75,12
		H7.25L7.25,12z M7.25,16c-0.414,0-0.75-0.336-0.75-0.75s0.336-0.75,0.75-0.75h6.5c0.414,0,0.75,0.336,0.75,0.75S14.164,16,13.75,16
		H7.25L7.25,16z"/>
</g>
<g id="search_1_">
	<rect id="space_26_" style="fill:none;" width="20" height="20"/>
	<path d="M17,15.763l-4.547-4.547C13.109,10.31,13.5,9.201,13.5,8c0-3.033-2.467-5.5-5.5-5.5S2.5,4.967,2.5,8s2.467,5.5,5.5,5.5
		c1.201,0,2.31-0.391,3.215-1.047L15.763,17c0.342,0.342,0.896,0.342,1.237,0S17.342,16.104,17,15.763z M4.25,8
		c0-2.068,1.682-3.75,3.75-3.75S11.75,5.932,11.75,8S10.068,11.75,8,11.75S4.25,10.068,4.25,8z"/>
</g>
<g id="atsign_2_">
	<rect id="space_420_" style="fill:none;" width="20" height="20"/>
	<g>
		<path d="M10.264,18.823c-0.335,0-0.677-0.016-1.025-0.047c-2.589-0.228-4.719-1.253-6.157-2.964
			C1.641,14.099,1,11.824,1.229,9.234c0.221-2.506,1.348-4.693,3.173-6.157c1.75-1.404,4.016-2.066,6.369-1.855
			c4.81,0.424,6.673,2.945,7.355,4.411c1.02,2.188,0.801,4.946-0.542,6.862c-0.987,1.407-2.433,2.136-3.96,2.002
			c-0.807-0.122-1.4-0.473-1.78-1.024c-0.062-0.09-0.117-0.184-0.167-0.282c-0.992,0.785-2.289,1.187-3.869,0.906
			c-1.379-0.243-2.406-1.171-2.816-2.544C4.496,9.891,5.051,7.936,6.374,6.689c0.992-0.934,3.264-2.278,7.349-0.79
			c0.473,0.173,0.744,0.67,0.632,1.161c-0.187,0.821-0.364,1.643-0.511,2.332c-0.004,0.028-0.009,0.056-0.015,0.084
			c-0.017,0.083-0.036,0.165-0.056,0.246c-0.182,0.86-0.3,1.447-0.3,1.449c-0.175,0.807-0.03,1.097,0.018,1.167
			c0.06,0.087,0.186,0.145,0.372,0.174c1.042,0.094,1.751-0.691,2.083-1.166c0.788-1.123,1.207-3.065,0.367-4.87
			c-0.611-1.312-2.1-2.944-5.718-3.263C8.758,3.057,7,3.557,5.653,4.637C4.237,5.773,3.396,7.424,3.221,9.41
			c-0.18,2.049,0.301,3.817,1.392,5.115c1.091,1.297,2.752,2.078,4.804,2.259c1.516,0.134,2.865-0.088,4.015-0.667
			c0.493-0.251,1.095-0.051,1.343,0.442c0.249,0.493,0.051,1.095-0.442,1.343C13.116,18.515,11.751,18.823,10.264,18.823z
			 M10.32,7.237c-1.055,0-1.934,0.304-2.575,0.908c-0.907,0.855-1.074,2.04-0.836,2.835c0.133,0.446,0.458,1.008,1.248,1.147
			c2.6,0.453,3.453-2.011,3.672-2.876c0.107-0.51,0.236-1.11,0.375-1.739C11.53,7.329,10.899,7.237,10.32,7.237z"/>
	</g>
</g>
<g id="window_2_">
	<rect id="space_526_" style="fill:none;" width="20" height="20"/>
	<linearGradient id="SVGID_1_" gradientUnits="userSpaceOnUse" x1="10" y1="15" x2="10" y2="4">
		<stop  offset="0" style="stop-color:#FFFFFF"/>
		<stop  offset="1" style="stop-color:#000000"/>
	</linearGradient>
	<rect x="3" y="4" style="opacity:0.2;fill:url(#SVGID_1_);" width="14" height="11"/>
	<path id="XMLID_771_" d="M1,3v13c0,0.552,0.448,1,1,1h16c0.552,0,1-0.448,1-1V3c0-0.552-0.448-1-1-1H2C1.448,2,1,2.448,1,3z M3,4
		h14v11H3V4z"/>
	<path style="fill:none;stroke:#000000;stroke-width:0.255;stroke-miterlimit:10;" d="M16,5l-4,4 M16,8l-4,4"/>
</g>
<g id="brick-wall_2_">
	<rect id="space_533_" style="fill:none;" width="20" height="20"/>
	<path id="XMLID_709_" d="M1,3v13c0,0.552,0.448,1,1,1h16c0.552,0,1-0.448,1-1V3c0-0.552-0.448-1-1-1H2C1.448,2,1,2.448,1,3z M3,4h7
		v3H3V4z M13,11H7V8h6V11z M3,8h3v3H3V8z M3,15v-3h6v3H3z M17,15h-7v-3h7V15z M17,11h-3V8h3V11z M17,7h-6V4h6V7z"/>
</g>
<g id="places_2_">
	<rect id="space_1280_" style="fill:none;" width="20" height="20"/>
	<path d="M16,18H4c-1.105,0-2-0.895-2-2V4c0-1.105,0.895-2,2-2h12c1.105,0,2,0.895,2,2v12C18,17.105,17.105,18,16,18z M4.387,13
		c1.478,0,2.8,0.722,3.845,1.768C8.685,15.22,9.31,15.5,10,15.5h0c0.69,0,1.315-0.28,1.768-0.732C12.813,13.722,14.135,13,15.613,13
		L16,13V4H4v9L4.387,13z"/>
</g>
<g id="reply_5_">
	<rect style="fill:none;" width="20" height="20"/>
	<path d="M17.917,15.792C17.073,11.004,13.788,7.427,9,6.583V3L2.5,9.5L9,16v-4.417C12.789,11.583,16.022,12.51,17.917,15.792z"/>
</g>
<g id="forward_5_">
	<rect style="fill:none;" width="20" height="20"/>
	<polygon points="4,9 10.5,2.5 17,9 12.833,9 10.5,17.917 8.167,9 	"/>
</g>
<g id="replied_3_">
	<rect style="fill:none;" width="20" height="20"/>
	<path d="M15.085,15.604c-1.783-3.909-4.443-5.582-8.895-5.591H5.552l2.655,2.656c0.391,0.391,0.391,1.023,0,1.414
		s-1.023,0.391-1.414,0L2.418,9.707c-0.391-0.391-0.391-1.023,0-1.414l4.375-4.375c0.391-0.391,1.023-0.391,1.414,0
		s0.391,1.023,0,1.414l-2.68,2.68h0.665c5.21,0.012,8.613,2.16,10.713,6.761C17.459,15.991,15.631,16.799,15.085,15.604z"/>
</g>
<g id="forwarded_3_">
	<rect style="fill:none;" width="20" height="20"/>
	<path d="M10,16.625c-0.553,0-1-0.448-1-1V6.789L6.332,9.457c-0.391,0.391-1.023,0.391-1.414,0s-0.391-1.023,0-1.414l4.375-4.375
		c0.391-0.391,1.023-0.391,1.414,0l4.375,4.375c0.391,0.391,0.391,1.023,0,1.414s-1.023,0.391-1.414,0L11,6.789v8.836
		C11,16.177,10.553,16.625,10,16.625z"/>
</g>
<g id="cross_3_">
	<rect id="space_32_" style="fill:none;" width="20" height="20"/>
	<polygon points="11,3 9,3 9,9 3,9 3,11 9,11 9,17 11,17 11,11 17,11 17,9 11,9 	"/>
</g>
<g id="more_3_">
	<rect id="space_27_" style="fill:none;" width="20" height="20"/>
	<path d="M12,10c0,1.105-0.895,2-2,2c-1.105,0-2-0.895-2-2s0.895-2,2-2C11.105,8,12,8.895,12,10z M12,4c0,1.105-0.895,2-2,2
		C8.895,6,8,5.105,8,4s0.895-2,2-2C11.105,2,12,2.895,12,4z M12,16c0,1.105-0.895,2-2,2c-1.105,0-2-0.895-2-2s0.895-2,2-2
		C11.105,14,12,14.895,12,16z"/>
</g>
<g id="filter_5_">
	<rect style="fill:none;" width="20" height="20"/>
	<polygon points="9,17.833 7,17.833 7,10.414 1.293,4.707 2,3 18,3 18.707,4.707 13,10.414 13,15 11,15 11,9.586 15.586,5 4.414,5 
		9,9.586 	"/>
</g>
<g id="downloads_2_">
	<rect id="space_819_" style="fill:none;" width="20" height="20"/>
	<path d="M14.75,17H4.25v-2.5h10.5V17z M9.5,13.768L3.866,8.134l1.768-1.768L8.25,8.982V2h2.5v6.982l2.616-2.616l1.768,1.768
		L9.5,13.768z"/>
</g>
<g id="sort_1_">
	<rect id="space_53_" style="fill:none;" width="20" height="20"/>
	<path d="M14,11H2V9h12V11z M18,5H2v2h16V5z M10,13H2v2h8V13z"/>
</g>
<g id="earth_1_">
	<rect id="space_512_" style="fill:none;" width="20" height="20"/>
	<path d="M10,2.5c-4.142,0-7.5,3.358-7.5,7.5s3.358,7.5,7.5,7.5s7.5-3.358,7.5-7.5S14.142,2.5,10,2.5z M4.5,10
		c0-0.935,0.236-1.816,0.65-2.588C5.129,7.557,5.132,7.708,5.246,7.794C5.302,7.84,5.375,7.858,5.449,7.877
		c0.305,0.092,0.6,0.277,0.775,0.554C6.317,8.56,6.372,8.717,6.483,8.837C6.585,8.957,6.76,9.04,6.908,8.975
		C6.898,8.929,6.898,8.883,6.889,8.837c0.037-0.046,0.12,0.009,0.148,0.074c0.194,0.462-0.36,0.923-0.36,1.431
		c0,0.369,0.295,0.665,0.415,1.015c0.046,0.138,0.065,0.295,0.138,0.415c0.138,0.24,0.434,0.332,0.637,0.526
		c0.314,0.314,0.314,0.812,0.341,1.255c0.046,0.605,0.193,1.209,0.43,1.769C6.264,14.714,4.5,12.562,4.5,10z M10,15.5
		c-0.25,0-0.494-0.023-0.735-0.055c-0.041-0.024-0.08-0.051-0.124-0.073c0.083-0.157,0.111-0.342,0.074-0.517
		c0.268-0.083,0.572-0.194,0.674-0.452c0.268-0.037,0.452-0.277,0.582-0.508c0.12-0.24,0.222-0.508,0.425-0.674
		c0.314-0.277,0.868-0.323,0.988-0.72c0.046-0.129,0.018-0.277,0.046-0.406c0.037-0.249,0.231-0.471,0.471-0.545
		c0.065-0.018,0.138-0.037,0.175-0.092c0.028-0.055,0.018-0.111,0.009-0.166c-0.046-0.185-0.083-0.369-0.129-0.563
		c-0.295-0.212-0.674-0.277-1.025-0.388c-0.342-0.111-0.665-0.258-0.96-0.443c0.018-0.36-0.305-0.702-0.665-0.711
		c-0.074,0-0.157,0.009-0.222-0.018C9.52,9.132,9.474,9.04,9.52,8.985C9.354,9.012,9.169,8.92,9.095,8.763
		C9.086,8.726,9.068,8.689,9.04,8.661C9.003,8.643,8.966,8.634,8.929,8.634C8.606,8.606,8.274,8.588,7.951,8.56
		C7.628,8.532,7.212,8.569,7.12,8.874c-0.083-0.055-0.175-0.12-0.268-0.185C6.788,8.726,6.714,8.754,6.649,8.791
		c-0.12-0.222-0.129-0.489-0.028-0.72C6.529,7.969,6.391,7.914,6.252,7.914c0-0.102,0.055-0.194,0.102-0.286
		c0.055-0.092,0.092-0.203,0.055-0.295C6.363,7.231,6.206,7.203,6.16,7.295C6.142,7.323,6.151,7.369,6.142,7.397
		C6.105,7.526,5.911,7.545,5.818,7.462c-0.092-0.092-0.111-0.24-0.083-0.369C5.837,6.658,6.317,6.4,6.769,6.391
		c0.129-0.009,0.305,0.055,0.305,0.175c0-0.018,0.009-0.028,0-0.046c0.028,0.074,0.083,0.138,0.138,0.175
		C7.332,6.4,7.397,6.077,7.406,5.763c0.406,0.074,0.84-0.222,0.923-0.628C8.68,5.191,8.902,4.6,9.252,4.674
		C9.217,4.63,9.161,4.608,9.112,4.578c0.231-0.038,0.466-0.061,0.705-0.069C9.812,4.514,9.811,4.521,9.806,4.526
		c0.027-0.006,0.052-0.014,0.079-0.02C9.923,4.505,9.961,4.5,10,4.5c0.868,0,1.686,0.208,2.417,0.567
		c-0.082,0.112-0.165,0.227-0.192,0.308c-0.055,0.166,0.009,0.212-0.009,0.388c-0.018,0.231-0.166,0.369-0.286,0.526
		c0.037,0.157,0.166,0.351,0.194,0.48c0.018,0.065-0.046,0.194-0.028,0.24c0.046,0.129,0.175,0.157,0.277,0.268
		c-0.268,0.323-0.055,0.702,0.194,0.988c0.166,0.212,0.434,0.332,0.6,0.545c0.037,0.055,0,0.129,0.037,0.185
		c0.083,0.111,0.203,0.185,0.286,0.295c0.314-0.12,0.194-0.138,0.554-0.009c0.111-0.12,0.369-0.351,0.572-0.332
		c0.323,0.018,0.295,0.332,0.618,0.351c0.031,0.478,0.143,0.954,0.212,1.433C15.086,13.419,12.784,15.5,10,15.5z"/>
</g>
<g id="member_5_">
	<rect id="space_99_" style="fill:none;" width="20" height="20"/>
	<g>
		<path d="M14,13v3h-1v-3c0-0.55-0.45-1-1-1v7h-1v-3c0-0.55-0.45-1-1-1s-1,0.45-1,1v3H8v-7c-0.55,0-1,0.45-1,1v3H6v-3
			c0-1.1,0.9-2,2-2h4C13.1,11,14,11.9,14,13z M10,5.5C8.619,5.5,7.5,6.619,7.5,8s1.119,2.5,2.5,2.5s2.5-1.119,2.5-2.5
			S11.381,5.5,10,5.5z"/>
	</g>
</g>
<g id="manager-member_5_">
	<rect id="space_94_" style="fill:none;" width="20" height="20"/>
	<g>
		<path d="M9,12v7H8v-2c0-0.55-0.45-1-1-1s-1,0.45-1,1v2H5v-7c-0.55,0-1,0.45-1,1v2H3v-2c0-1.1,0.9-2,2-2h11c1.1,0,2,0.9,2,2v2h-1
			v-2c0-0.55-0.45-1-1-1v7h-1v-2c0-0.55-0.45-1-1-1s-1,0.45-1,1v2h-1v-7H9z M10.75,1.59c-0.69,0-1.25,0.56-1.25,1.25
			c0,0.39,0.18,0.74,0.46,0.96L9.44,4.26C8.96,4.69,8.21,4.55,7.9,3.99L7.37,3.02C7.88,2.88,8.25,2.4,8.25,1.84
			c0-0.69-0.56-1.25-1.25-1.25S5.75,1.15,5.75,1.84c0,0.56,0.37,1.04,0.88,1.18L6.1,3.99c-0.31,0.56-1.06,0.7-1.54,0.27L4.04,3.8
			C4.32,3.58,4.5,3.23,4.5,2.84c0-0.69-0.56-1.25-1.25-1.25S2,2.15,2,2.84s0.56,1.25,1.25,1.25c0.04,0,0.09,0,0.13-0.02l0.26,2.06
			C3.7,6.63,4.13,7,4.63,7h4.74c0.5,0,0.93-0.37,0.99-0.87l0.26-2.06c0.04,0.02,0.09,0.02,0.13,0.02c0.69,0,1.25-0.56,1.25-1.25
			S11.44,1.59,10.75,1.59z M4.5,8c0,1.38,1.12,2.5,2.5,2.5S9.5,9.38,9.5,8H4.5z M14,5.5c-1.381,0-2.5,1.119-2.5,2.5
			s1.119,2.5,2.5,2.5s2.5-1.119,2.5-2.5S15.381,5.5,14,5.5z"/>
	</g>
</g>
<g id="team_5_">
	<rect id="space_90_" style="fill:none;" width="20" height="20"/>
	<path d="M6.5,8c0,1.381-1.119,2.5-2.5,2.5S1.5,9.381,1.5,8S2.619,5.5,4,5.5S6.5,6.619,6.5,8z M10,5.5C8.619,5.5,7.5,6.619,7.5,8
		s1.119,2.5,2.5,2.5s2.5-1.119,2.5-2.5S11.381,5.5,10,5.5z M16,5.5c-1.381,0-2.5,1.119-2.5,2.5s1.119,2.5,2.5,2.5s2.5-1.119,2.5-2.5
		S17.381,5.5,16,5.5z M6,12v7H5v-2c0-0.55-0.45-1-1-1s-1,0.45-1,1v2H2v-7c-0.55,0-1,0.45-1,1v3H0v-3c0-1.1,0.9-2,2-2h16
		c1.1,0,2,0.9,2,2v2h-1v-2c0-0.55-0.45-1-1-1v7h-1v-2c0-0.55-0.45-1-1-1s-1,0.45-1,1v2h-1v-7h-2v7h-1v-2c0-0.55-0.45-1-1-1
		s-1,0.45-1,1v2H8v-7H6z"/>
</g>
<g id="manager_5_">
	<rect id="space_89_" style="fill:none;" width="20" height="20"/>
	<g>
		<path d="M14,13v2h-1v-2c0-0.55-0.45-1-1-1v7h-1v-2c0-0.55-0.45-1-1-1s-1,0.45-1,1v2H8v-7c-0.55,0-1,0.45-1,1v2H6v-2
			c0-1.1,0.9-2,2-2h4C13.1,11,14,11.9,14,13z M7.5,8c0,1.38,1.12,2.5,2.5,2.5s2.5-1.12,2.5-2.5H7.5z M15,2.84
			c0,0.69-0.56,1.25-1.25,1.25c-0.04,0-0.09,0-0.13-0.02l-0.26,2.06C13.3,6.63,12.87,7,12.37,7H7.63C7.13,7,6.7,6.63,6.64,6.13
			L6.38,4.07C6.34,4.09,6.29,4.09,6.25,4.09C5.56,4.09,5,3.53,5,2.84s0.56-1.25,1.25-1.25S7.5,2.15,7.5,2.84
			c0,0.39-0.18,0.74-0.46,0.96l0.52,0.46C8.04,4.69,8.79,4.55,9.1,3.99l0.53-0.97C9.12,2.88,8.75,2.4,8.75,1.84
			c0-0.69,0.56-1.25,1.25-1.25s1.25,0.56,1.25,1.25c0,0.56-0.37,1.04-0.88,1.18l0.53,0.97c0.31,0.56,1.06,0.7,1.54,0.27l0.52-0.46
			c-0.28-0.22-0.46-0.57-0.46-0.96c0-0.69,0.56-1.25,1.25-1.25S15,2.15,15,2.84z"/>
	</g>
</g>
<g id="crown_2_">
	<rect id="space_477_" style="fill:none;" width="20" height="20"/>
	<path d="M16.25,6.823c-1.151,0-2.083,0.933-2.083,2.083c0,0.644,0.299,1.213,0.758,1.595l-0.858,0.762
		c-0.801,0.712-2.057,0.494-2.57-0.448l-0.872-1.599c0.844-0.266,1.459-1.046,1.459-1.978c0-1.151-0.933-2.083-2.083-2.083
		c-1.151,0-2.083,0.933-2.083,2.083c0,0.932,0.616,1.711,1.459,1.978l-0.872,1.599c-0.513,0.941-1.769,1.16-2.57,0.448l-0.858-0.762
		c0.459-0.382,0.758-0.951,0.758-1.595c0-1.151-0.933-2.083-2.083-2.083c-1.151,0-2.083,0.933-2.083,2.083
		c0,1.151,0.933,2.083,2.083,2.083c0.072,0,0.14-0.014,0.211-0.021l0.437,3.411c0.106,0.831,0.814,1.454,1.652,1.454h7.901
		c0.838,0,1.546-0.623,1.652-1.454l0.437-3.411c0.07,0.007,0.138,0.021,0.211,0.021c1.151,0,2.083-0.933,2.083-2.083
		C18.333,7.756,17.401,6.823,16.25,6.823z"/>
</g>
<g id="person_2_">
	<rect id="space_470_" style="fill:none;" width="20" height="20"/>
	<path d="M4,18v-3c0-1.657,1.343-3,3-3h6c1.657,0,3,1.343,3,3v3H4z M6.25,6c0,2.071,1.679,3.75,3.75,3.75S13.75,8.071,13.75,6
		S12.071,2.25,10,2.25S6.25,3.929,6.25,6z"/>
</g>
<g id="hourglass_2_">
	<rect id="space_463_" style="fill:none;" width="20" height="20"/>
	<g style="opacity:0.2;">
		<path d="M14,14.24V17H6v-2.76c0-0.79,0.32-1.56,0.88-2.12L8,11V9L6.88,7.88C6.38,7.38,6.07,6.71,6.01,6h7.98
			c-0.06,0.71-0.37,1.38-0.87,1.88L12,9v2l1.12,1.12C13.68,12.68,14,13.45,14,14.24z"/>
	</g>
	<path d="M13.121,7.879C13.684,7.316,14,6.553,14,5.757V4h1V3c0-0.552-0.448-1-1-1H6C5.448,2,5,2.448,5,3v1h1v1.757
		c0,0.796,0.316,1.559,0.879,2.121L8,9v2l-1.121,1.121C6.316,12.684,6,13.447,6,14.243V16H5v1c0,0.552,0.448,1,1,1h8
		c0.552,0,1-0.448,1-1v-1h-1v-1.757c0-0.796-0.316-1.559-0.879-2.121L12,11V9L13.121,7.879z M11.293,11.707l1.121,1.121
		C12.792,13.206,13,13.708,13,14.243V16H7v-1.757c0-0.534,0.208-1.036,0.586-1.414l1.121-1.121L9,11.414V8.586L8.707,8.293
		L7.586,7.172C7.208,6.794,7,6.292,7,5.757V4h6v1.757c0,0.534-0.208,1.036-0.586,1.414l-1.121,1.121L11,8.586v2.828L11.293,11.707z"
		/>
</g>
<g id="bookmark-sign">
	<rect id="space_616_" style="fill:none;" width="20" height="20"/>
	<path d="M16,19l-6-6l-6,6V4c0-1.657,1.343-3,3-3h6c1.657,0,3,1.343,3,3V19z"/>
</g>
<g>
	<rect id="space_623_" style="fill:none;" width="20" height="20"/>
	<path d="M13,2.5c0.827,0,1.5,0.673,1.5,1.5v11.379l-3.439-3.439L10,10.879l-1.061,1.061L5.5,15.379V4c0-0.827,0.673-1.5,1.5-1.5H13
		 M13,1H7C5.343,1,4,2.343,4,4v15l6-6l6,6V4C16,2.343,14.657,1,13,1L13,1z"/>
</g>
<g id="photo-wire_1_">
	<g id="space_756_">
		<rect style="fill:none;" width="20" height="20"/>
	</g>
	<path d="M10,6c0,1.105-0.895,2-2,2S6,7.105,6,6s0.895-2,2-2S10,4.895,10,6z M20,15V4c0-1.654-1.346-3-3-3H3C1.346,1,0,2.346,0,4v11
		c0,1.654,1.346,3,3,3h14C18.654,18,20,16.654,20,15z M5.5,11.914l3,3l7-7l2.5,2.5V15c0,0.551-0.448,1-1,1H3
		c-0.428,0-0.794-0.271-0.937-0.649L5.5,11.914z M17,3c0.552,0,1,0.449,1,1v3.586l-2.5-2.5l-7,7l-3-3l-3.5,3.5V4
		c0-0.551,0.448-1,1-1H17z"/>
</g>
<g id="video-wire">
	<g id="space_749_">
		<rect style="fill:none;" width="20" height="20"/>
	</g>
	<g>
		<g>
			<g>
				<polygon points="7,6 7,13 13.5,9.5 				"/>
			</g>
		</g>
		<g>
			<path d="M17,18h-1.5v-1c0-0.271-0.229-0.5-0.5-0.5s-0.5,0.229-0.5,0.5v1h-4v-1c0-0.271-0.229-0.5-0.5-0.5S9.5,16.729,9.5,17v1h-4
				v-1c0-0.271-0.229-0.5-0.5-0.5S4.5,16.729,4.5,17v1H3c-1.654,0-3-1.346-3-3V4c0-1.654,1.346-3,3-3h1.5v1
				c0,0.271,0.229,0.5,0.5,0.5S5.5,2.271,5.5,2V1h4v1c0,0.271,0.229,0.5,0.5,0.5s0.5-0.229,0.5-0.5V1h4v1c0,0.271,0.229,0.5,0.5,0.5
				s0.5-0.229,0.5-0.5V1H17c1.654,0,3,1.346,3,3v11C20,16.654,18.654,18,17,18z M12.291,16h0.418c0.387-0.882,1.268-1.5,2.291-1.5
				c1.008,0,1.879,0.6,2.274,1.462C17.692,15.842,18,15.457,18,15V4c0-0.457-0.308-0.842-0.726-0.962C16.879,3.9,16.008,4.5,15,4.5
				c-1.023,0-1.904-0.618-2.291-1.5h-0.418C11.904,3.882,11.023,4.5,10,4.5S8.096,3.882,7.709,3H7.291C6.904,3.882,6.023,4.5,5,4.5
				c-1.008,0-1.879-0.6-2.274-1.462C2.308,3.158,2,3.543,2,4v11c0,0.457,0.308,0.842,0.726,0.962C3.121,15.1,3.992,14.5,5,14.5
				c1.023,0,1.904,0.618,2.291,1.5h0.418c0.387-0.882,1.268-1.5,2.291-1.5S11.904,15.118,12.291,16z"/>
		</g>
	</g>
</g>
<g id="two-eighth-note-wire_1_">
	<g id="space_735_">
		<rect style="fill:none;" width="20" height="20"/>
	</g>
	<path d="M20,3.309c0-1.319-1.254-2.278-2.525-1.929L9.211,3.633C7.909,3.988,7,5.179,7,6.528v5.04
		c-0.538-0.22-1.157-0.352-1.857-0.352C2.615,11.215,0,12.75,0,15.318c0,2.075,1.727,3.228,3.857,3.228
		C6.385,18.546,9,17.012,9,14.443V6.528c0-0.45,0.303-0.847,0.736-0.965L18,3.309v5.712c-0.538-0.22-1.157-0.352-1.857-0.352
		c-2.527,0-5.143,1.535-5.143,4.103C11,14.847,12.727,16,14.857,16C17.385,16,20,14.465,20,11.897C20,11.792,20,3.309,20,3.309z
		 M3.857,16.546C2.934,16.546,2,16.249,2,15.318c0-1.372,1.825-2.103,3.143-2.103c0.559,0,1.857,0.12,1.857,1.228
		C7,15.815,5.175,16.546,3.857,16.546z M14.857,14C13.934,14,13,13.703,13,12.772c0-1.372,1.825-2.103,3.143-2.103
		c0.559,0,1.857,0.12,1.857,1.228C18,13.269,16.175,14,14.857,14z"/>
</g>
</svg>
