<?xml version="1.0" encoding="utf-8"?>
<!-- Generator: Adobe Illustrator 19.0.0, SVG Export Plug-In . SVG Version: 6.00 Build 0)  -->
<svg version="1.1" id="icn32" xmlns="http://www.w3.org/2000/svg" xmlns:xlink="http://www.w3.org/1999/xlink" x="0px" y="0px"
	 viewBox="0 0 32 32" style="enable-background:new 0 0 32 32;" xml:space="preserve">
<g id="candidate">
	<rect id="space_465_" style="fill:none;" width="32" height="32"/>
	<g style="opacity:0.2;">
		<path style="fill:#0079F2;" d="M12.5,21.5V20c0-0.641,0.246-1.254,0.693-1.727L14.5,16.9V15.1L12.502,13h6.995L17.5,15.1V16.9
			l1.308,1.374C19.254,18.746,19.5,19.359,19.5,20v1.5H12.5z"/>
	</g>
	<path style="fill:#0079F2;" d="M19.172,14.069C19.704,13.511,20,12.77,20,12v-1h1v-1c0-0.552-0.448-1-1-1h-8c-0.552,0-1,0.448-1,1
		v1h1v1c0,0.77,0.296,1.511,0.828,2.069L14,15.3v1.4l-1.172,1.231C12.296,18.489,12,19.23,12,20v1h-1v1c0,0.552,0.448,1,1,1h8
		c0.552,0,1-0.448,1-1v-1h-1v-1c0-0.77-0.296-1.511-0.828-2.069L18,16.7v-1.4L19.172,14.069z M18.448,18.621
		C18.804,18.994,19,19.484,19,20v1h-6v-1c0-0.516,0.196-1.006,0.552-1.379L15,17.1v-2.2l-1.448-1.521C13.196,13.006,13,12.516,13,12
		v-1h6v1c0,0.516-0.196,1.006-0.552,1.379L17,14.9v2.2L18.448,18.621z"/>
</g>
<g id="in-progress-simple">
	<rect id="space_1_" style="fill:none;" width="32" height="32"/>
	<path style="fill:#0079F2;opacity:.4;" d="M25,16c0,4.971-4.029,9-9,9s-9-4.029-9-9s4.029-9,9-9S25,11.029,25,16z M16,9c-3.866,0-7,3.134-7,7
		s3.134,7,7,7s7-3.134,7-7S19.866,9,16,9z"/>
</g>
<g id="in-progress-with-todo">
	<rect id="space_3_" style="fill:none;" width="32" height="32"/>
	<path fill="#0079F2" style="opacity:.4;" d="M16,8c4.411,0,8,3.589,8,8s-3.589,8-8,8s-8-3.589-8-8S11.589,8,16,8 M16,7c-4.971,0-9,4.029-9,9
		s4.029,9,9,9s9-4.029,9-9S20.971,7,16,7L16,7z M16,11c2.757,0,5,2.243,5,5s-2.243,5-5,5s-5-2.243-5-5S13.243,11,16,11 M16,10
		c-3.314,0-6,2.686-6,6s2.686,6,6,6s6-2.686,6-6S19.314,10,16,10L16,10z M16,14c1.103,0,2,0.897,2,2s-0.897,2-2,2s-2-0.897-2-2
		S14.897,14,16,14 M16,13c-1.657,0-3,1.343-3,3s1.343,3,3,3s3-1.343,3-3S17.657,13,16,13L16,13z"/>
</g>
<g id="completed">
	<rect id="space_5_" style="fill:none;" width="32" height="32"/>
	<circle style="fill:#14D769" cx="16" cy="16" r="9"/>
	<polyline style="fill:none;stroke:#FFFFFF;stroke-width:2;stroke-miterlimit:10;" points="11,16 14.5,19.5 21,13"/>
</g>
<g id="hold">
	<rect id="space_4_" style="fill:none;" width="32" height="32"/>
	<path d="M11,9h3v14h-3V9z M18,9v14h3V9H18z"/>
</g>
<g id="rejected">
	<rect id="space_6_" style="fill:none;" width="32" height="32"/>
	<path style="fill:#F2C230;" d="M25,16c0,4.971-4.029,9-9,9s-9-4.029-9-9s4.029-9,9-9S25,11.029,25,16z M20.243,13.172l-1.414-1.414
		L16,14.586l-2.828-2.828l-1.414,1.414L14.586,16l-2.828,2.828l1.414,1.414L16,17.414l2.828,2.828l1.414-1.414L17.414,16
		L20.243,13.172z"/>
</g>
<g id="overdue">
	<circle style="fill:#FF3344;" cx="16" cy="16" r="9"/>
	<rect id="space_7_" style="fill:none;" width="32" height="32"/>
	<path style="fill:#FFFFFF;" d="M14.461,17l-0.164-6.251C14.271,9.791,15.041,9,16,9s1.729,0.791,1.704,1.749L17.539,17
		c-0.022,0.834-0.705,1.5-1.539,1.5S14.482,17.835,14.461,17z M16,19.25c-0.966,0-1.75,0.784-1.75,1.75s0.784,1.75,1.75,1.75
		s1.75-0.784,1.75-1.75S16.966,19.25,16,19.25z"/>
</g>
<g id="failed">
	<rect id="space_6_" style="fill:none;" width="32" height="32"/>
	<path style="fill:#6d6d6d;" d="M25,16c0,4.971-4.029,9-9,9s-9-4.029-9-9s4.029-9,9-9S25,11.029,25,16z M20.243,13.172l-1.414-1.414
		L16,14.586l-2.828-2.828l-1.414,1.414L14.586,16l-2.828,2.828l1.414,1.414L16,17.414l2.828,2.828l1.414-1.414L17.414,16
		L20.243,13.172z"/>
</g>
</svg>
