<svg id="icons" xmlns="http://www.w3.org/2000/svg" viewBox="0 0 40 40">
  <title>nst</title>
  <g id="sq40dashed">
    <polygon points="30 18 30 22 22 22 22 30 18 30 18 22 10 22 10 18 18 18 18 10 22 10 22 18 30 18"/>
    <path d="M1,6H0V4.5A4.5,4.5,0,0,1,4.5,0H6V1H4.5A3.5,3.5,0,0,0,1,4.5Z"/>
    <rect y="10" width="1" height="4"/>
    <rect y="18" width="1" height="4"/>
    <rect y="26" width="1" height="4"/>
    <path d="M6,40H4.5A4.5,4.5,0,0,1,0,35.5V34H1v1.5A3.5,3.5,0,0,0,4.5,39H6Z"/>
    <rect x="10" y="39" width="4" height="1"/>
    <rect x="18" y="39" width="4" height="1"/>
    <rect x="26" y="39" width="4" height="1"/>
    <path d="M35.5,40H34V39h1.5A3.5,3.5,0,0,0,39,35.5V34h1v1.5A4.5,4.5,0,0,1,35.5,40Z"/>
    <rect x="39" y="26" width="1" height="4"/>
    <rect x="39" y="18" width="1" height="4"/>
    <rect x="39" y="10" width="1" height="4"/>
    <path d="M40,6H39V4.5A3.5,3.5,0,0,0,35.5,1H34V0h1.5A4.5,4.5,0,0,1,40,4.5Z"/>
    <rect x="26" width="4" height="1"/>
    <rect x="18" width="4" height="1"/>
    <rect x="10" width="4" height="1"/>
  </g>
  <g id="sq40">
    <polygon points="30 18 30 22 22 22 22 30 18 30 18 22 10 22 10 18 18 18 18 10 22 10 22 18 30 18"/>
    <path d="M1,6H0V4.5A4.5,4.5,0,0,1,4.5,0H10V1H4.5A3.5,3.5,0,0,0,1,4.5Z"/>
    <rect y="6" width="1" height="8"/>
    <rect y="14" width="1" height="8"/>
    <rect y="22" width="1" height="8"/>
    <path d="M6,40H4.5A4.5,4.5,0,0,1,0,35.5V30H1v5.5A3.5,3.5,0,0,0,4.5,39H6Z"/>
    <rect x="6" y="39" width="8" height="1"/>
    <rect x="14" y="39" width="8" height="1"/>
    <rect x="22" y="39" width="8" height="1"/>
    <path d="M35.5,40H30V39h5.5A3.5,3.5,0,0,0,39,35.5V34h1v1.5A4.5,4.5,0,0,1,35.5,40Z"/>
    <rect x="39" y="26" width="1" height="8"/>
    <rect x="39" y="18" width="1" height="8"/>
    <rect x="39" y="10" width="1" height="8"/>
    <path d="M40,10H39V4.5A3.5,3.5,0,0,0,35.5,1H34V0h1.5A4.5,4.5,0,0,1,40,4.5Z"/>
    <rect x="26" width="8" height="1"/>
    <rect x="18" width="8" height="1"/>
    <rect x="10" width="8" height="1"/>
  </g>
</svg>
