<svg id="icons" xmlns="http://www.w3.org/2000/svg" viewBox="0 0 24 24">
  <title>nst24res</title>
  <g id="logoutW24">
    <rect id="empty24" width="24" height="24" style="fill: none"/>
    <path d="M7,18h3.75v1H7a2,2,0,0,1-2-2V8A2,2,0,0,1,7,6h3.75V7H7A1,1,0,0,0,6,8v9A1,1,0,0,0,7,18ZM13.85,6.65l-.71.71L17.79,12H9v1h8.79l-4.65,4.65.71.71,5.85-5.85Z"/>
  </g>
  <g id="settingW24">
    <rect id="empty24-2" data-name="empty24" width="24" height="24" style="fill: none"/>
    <path d="M12,20.9a2,2,0,0,1-1.92-1.52L10,19.08a1,1,0,0,0-.63-.7,1.07,1.07,0,0,0-1,0l-.26.16a2,2,0,0,1-2.7-2.7l.15-.26a1,1,0,0,0,.05-.94A1.07,1.07,0,0,0,4.92,14h0l-.29-.07a2,2,0,0,1,0-3.82L4.92,10a1,1,0,0,0,.7-.63,1.06,1.06,0,0,0,0-1l-.16-.26a2,2,0,0,1,2.7-2.7l.26.16a1,1,0,0,0,.94,0A1.07,1.07,0,0,0,10,4.92l.07-.29a2,2,0,0,1,3.82,0l.07.29a1,1,0,0,0,.63.7,1.08,1.08,0,0,0,1,0l.26-.16a2,2,0,0,1,2.7,2.7l-.16.26a1,1,0,0,0,0,.94,1.07,1.07,0,0,0,.72.69l.29.07a2,2,0,0,1,0,3.82l-.29.07a1,1,0,0,0-.7.63,1.07,1.07,0,0,0,0,1l.15.25a2,2,0,0,1-2.7,2.7l-.26-.15a1,1,0,0,0-.94-.05,1.07,1.07,0,0,0-.69.72l-.07.29A2,2,0,0,1,12,20.9ZM8.9,17.27a2.12,2.12,0,0,1,.82.17A2.07,2.07,0,0,1,11,18.84l.07.29a1,1,0,0,0,1.88,0l.07-.29a2,2,0,0,1,1.22-1.39,2.07,2.07,0,0,1,1.89.1l.26.15a1,1,0,0,0,1.33-1.33l-.16-.26a2,2,0,0,1-.12-1.85A2.07,2.07,0,0,1,18.84,13l.29-.07a1,1,0,0,0,0-1.87L18.84,11a2,2,0,0,1-1.39-1.22,2.08,2.08,0,0,1,.1-1.89l.16-.26a1,1,0,0,0-1.33-1.33l-.26.16a2.05,2.05,0,0,1-1.84.12A2.07,2.07,0,0,1,13,5.16l-.07-.29a1,1,0,0,0-1.88,0L11,5.16A2,2,0,0,1,9.77,6.54a2.07,2.07,0,0,1-1.89-.1l-.26-.16A1,1,0,0,0,6.29,7.62l.16.26a2,2,0,0,1,.12,1.84A2.07,2.07,0,0,1,5.16,11l-.29.07a1,1,0,0,0,0,1.88l.29.07a2,2,0,0,1,1.39,1.22,2.08,2.08,0,0,1-.1,1.89l-.15.26a1,1,0,0,0,1.33,1.33l.26-.16A2,2,0,0,1,8.9,17.27ZM12,16.5A4.5,4.5,0,1,1,16.5,12,4.5,4.5,0,0,1,12,16.5Zm0-8A3.5,3.5,0,1,0,15.5,12,3.5,3.5,0,0,0,12,8.5Z"/>
  </g>
  <g id="sent24">
    <rect id="empty24-3" data-name="empty24" width="24" height="24" style="fill: none"/>
    <path d="M23,18H9a1,1,0,0,1-1-1V9A1,1,0,0,1,9,8H23a1,1,0,0,1,1,1v8A1,1,0,0,1,23,18Zm0-7.54-7,3.48L9,10.46v1.12l7,3.48,7-3.48ZM7,10H1v1H7Zm0,2H3v1H7Zm0,2H5v1H7Z"/>
  </g>
  <g id="allmsg24">
    <rect id="empty24-4" data-name="empty24" width="24" height="24" style="fill: none"/>
    <path d="M15,19H1a1,1,0,0,1-1-1V10A1,1,0,0,1,1,9H15a1,1,0,0,1,1,1v8A1,1,0,0,1,15,19ZM1,11.46v1.12l7,3.48,7-3.37V11.58L8,14.94ZM23,5H9A1,1,0,0,0,8,6V8h7a2,2,0,0,1,2,2v.6l6-2.87V8.84l-6,2.88V15h6a1,1,0,0,0,1-1V6A1,1,0,0,0,23,5Z"/>
  </g>
  <g id="fav24">
    <rect id="empty24-5" data-name="empty24" width="24" height="24" style="fill: none"/>
    <path id="_Path_" data-name="&lt;Path&gt;" d="M16.61,14.42l5-3.61A1,1,0,0,0,21,9H14.85L13,3.16a1,1,0,0,0-1.9,0L9.15,9H3a1,1,0,0,0-.59,1.81l5,3.61-1.9,5.84A1,1,0,0,0,7,21.37l5-3.61,5,3.61a1,1,0,0,0,1.54-1.12Z"/>
  </g>
</svg>
