<svg id="icons" xmlns="http://www.w3.org/2000/svg" viewBox="0 0 16 16">
  <title>nst</title>
  <rect id="closeplace" x="4" y="4" width="8" height="8" rx="2" ry="2" style="fill: #ced9d3"/>
  <rect id="empty16" width="16" height="16" style="fill: none"/>
  <g id="favplace">
    <path d="M12,15.1a1,1,0,0,1-.59-.19L8,12.43,4.59,14.9A1,1,0,0,1,4,15.1a1,1,0,0,1-.81-.42,1,1,0,0,1-.14-.89l1.3-4L1,7.31A1,1,0,0,1,1.54,5.5H5.75L7,1.5A1,1,0,0,1,9,1.5l1.3,4h4.21A1,1,0,0,1,15,7.31L11.64,9.78l1.3,4a1,1,0,0,1-.14.89,1,1,0,0,1-.81.42Z" style="fill: #14d769"/>
    <path d="M8,1.31a.49.49,0,0,1,.48.35L9.89,6h4.57a.5.5,0,0,1,.29.9l-3.7,2.69,1.41,4.35a.5.5,0,0,1-.48.66.49.49,0,0,1-.29-.1L8,11.81,4.3,14.5a.49.49,0,0,1-.29.1.5.5,0,0,1-.48-.66L4.94,9.59,1.24,6.9A.5.5,0,0,1,1.54,6H6.11L7.52,1.65A.49.49,0,0,1,8,1.31m0-1a1.5,1.5,0,0,0-1.43,1L5.38,5H1.54A1.5,1.5,0,0,0,.66,7.71L3.77,10,2.58,13.63A1.48,1.48,0,0,0,2.79,15,1.51,1.51,0,0,0,4,15.6a1.49,1.49,0,0,0,.88-.29L8,13l3.11,2.26a1.49,1.49,0,0,0,.88.29A1.51,1.51,0,0,0,13.21,15a1.48,1.48,0,0,0,.21-1.34L12.23,10l3.11-2.26A1.5,1.5,0,0,0,14.46,5H10.62L9.43,1.34A1.5,1.5,0,0,0,8,.31Z" style="fill: #fff"/>
  </g>
  <g id="openplace">
    <rect x="4" y="4" width="8" height="8" rx="2" ry="2" style="fill: #fff"/>
    <path d="M11,10a1,1,0,0,1-1,1H6a1,1,0,0,1-1-1V9H4v1a2,2,0,0,0,2,2h4a2,2,0,0,0,2-2V9H11Z" style="fill: #ced9d3"/>
    <path d="M5,6A1,1,0,0,1,6,5h4a1,1,0,0,1,1,1V7h1V6a2,2,0,0,0-2-2H6A2,2,0,0,0,4,6V7H5Z" style="fill: #ced9d3"/>
  </g>
  <g id="cross">
    <rect id="empty16-2" data-name="empty16" width="16" height="16" style="fill: none"/>
    <polygon points="13 7 13 9 9 9 9 13 7 13 7 9 3 9 3 7 7 7 7 3 9 3 9 7 13 7"/>
  </g>
  <g id="fwd">
    <rect id="empty16-3" data-name="empty16" width="16" height="16" style="fill: none"/>
    <path id="_Compound_Path_" data-name="&lt;Compound Path&gt;" d="M8.5,1.29,1.79,8H6.35L8,15H9l1.64-7h4.56Z"/>
  </g>
  <g id="re">
    <rect id="empty16-4" data-name="empty16" width="16" height="16" style="fill: none"/>
    <path d="M8,14.21,1.29,7.5,8,.79V5.27a6.94,6.94,0,0,1,6.6,7.08v.5h-1v-.5C13.6,10,9.79,9.56,8,9.51Z"/>
  </g>
  <g id="tick">
    <rect id="empty16-5" data-name="empty16" width="16" height="16" style="fill: none"/>
    <polygon points="7 11.91 3.79 8.71 5.21 7.29 7 9.09 11.29 4.79 12.71 6.21 7 11.91"/>
  </g>
</svg>
