<svg xmlns="http://www.w3.org/2000/svg" viewBox="0 0 32 32">
  <title>nst</title>
  <g id="icn32">
    <g id="compose">
      <rect id="space" width="32" height="32" style="fill: none"/>
      <path d="M24,25H8a1,1,0,0,1-1-1V8A1,1,0,0,1,8,7h6V8H8V24H24V19h1v5A1,1,0,0,1,24,25ZM12,20a9.84,9.84,0,0,1,3.15-7.85l9-9a3.33,3.33,0,0,1,4.71,4.71l-9,9A9.86,9.86,0,0,1,12,20ZM22.5,6.21l-6.65,6.65A8.68,8.68,0,0,0,13,19a8.68,8.68,0,0,0,6.14-2.84L25.79,9.5Zm.71-.71L26.5,8.79l1.65-1.65a2.33,2.33,0,0,0-3.29-3.29Z"/>
    </g>
    <g id="more">
      <rect id="space-2" data-name="space" x="8" width="16" height="32" style="fill: none"/>
      <path d="M19,16a3,3,0,1,1-3-3A3,3,0,0,1,19,16Zm-3,5a3,3,0,1,0,3,3A3,3,0,0,0,16,21ZM16,5a3,3,0,1,0,3,3A3,3,0,0,0,16,5Z"/>
    </g>
    <g id="downloads">
      <rect id="space-3" data-name="space" width="32" height="32" style="fill: none"/>
      <path d="M27,28H5V24H27ZM16,22.83,6.59,13.41l2.83-2.83L14,15.17V3h4V15.17l4.59-4.59,2.83,2.83Z"/>
    </g>
    <g id="arrow">
      <rect id="space-4" data-name="space" width="32" height="32" style="fill: none"/>
      <g id="path">
        <polygon points="16 22.12 7.94 14.06 10.06 11.94 16 17.88 21.94 11.94 24.06 14.06 16 22.12"/>
      </g>
    </g>
    <g id="menu">
      <rect id="space-5" data-name="space" width="32" height="32" style="fill: none"/>
      <path d="M28,17H4V14H28ZM28,7H4v3H28Zm0,14H4v3H28Z"/>
    </g>
    <g id="filter">
      <rect width="32" height="32" style="fill: none"/>
      <polygon points="15 27.83 12 27.83 12 16.62 2.94 7.56 4 5 28 5 29.06 7.56 20 16.62 20 23 17 23 17 15.38 24.38 8 7.62 8 15 15.38 15 27.83"/>
    </g>
    <g id="cross">
      <rect id="space-6" data-name="space" width="32" height="32" style="fill: none"/>
      <polygon points="14 28 18 28 18 18 28 18 28 14 18 14 18 4 14 4 14 14 4 14 4 18 14 18 14 28"/>
    </g>
    <g id="search">
      <rect id="space-7" data-name="space" width="32" height="32" style="fill: none"/>
      <path d="M26.5,24.38l-6.17-6.17a9,9,0,1,0-2.12,2.12l6.17,6.17a1.5,1.5,0,0,0,2.12-2.12ZM13,19a6,6,0,1,1,6-6A6,6,0,0,1,13,19Z"/>
    </g>
    <g id="atsign">
      <rect id="space-8" data-name="space" width="32" height="32" style="fill: none"/>
      <path d="M16.42,30q-.8,0-1.63-.08A14,14,0,0,1,5,25.23,13.94,13.94,0,0,1,2.07,14.78,13.91,13.91,0,0,1,7.11,5,14.06,14.06,0,0,1,17.22,2.05c9.45.83,13.17,7,12.66,12.68-.44,5-4,8.73-8.08,8.36A3.91,3.91,0,0,1,19,21.5a3.79,3.79,0,0,1-.31-.55,7.41,7.41,0,0,1-6.21,1.51,5.51,5.51,0,0,1-4.43-4,7.77,7.77,0,0,1,2.18-7.68c1.57-1.48,5.17-3.61,11.66-1.24a1.5,1.5,0,0,1,.95,1.74c-.3,1.31-.59,2.63-.82,3.74l0,.12-.08.38c-.29,1.37-.48,2.32-.48,2.34-.28,1.29-.06,1.79,0,1.94s.17.25.66.32c2.59.21,4.47-2.69,4.73-5.65C27.24,10.56,24.85,5.74,17,5a11.1,11.1,0,0,0-8,2.3A10.79,10.79,0,0,0,5.05,15,11,11,0,0,0,7.3,23.3,11.08,11.08,0,0,0,15.06,27a11.82,11.82,0,0,0,6.48-1.08,1.5,1.5,0,0,1,1.35,2.68A14.18,14.18,0,0,1,16.42,30Zm.09-18.54A5.92,5.92,0,0,0,12.32,13,4.7,4.7,0,0,0,11,17.6,2.56,2.56,0,0,0,13,19.5c4.25.76,5.64-3.3,6-4.69.18-.84.39-1.83.62-2.87A11.74,11.74,0,0,0,16.51,11.48Z"/>
    </g>
    <g id="store">
      <rect id="space-8" data-name="space" width="32" height="32" style="fill: none"/>
      <path d="M3.06946 13.2057L7.99993 15.99L12.9304 13.2057L13.7942 13.7001C13.9341 13.7806 14.0481 13.8948 14.1263 14.0297C14.1635 14.0938 14.1921 14.1616 14.2119 14.2316L7.99993 17.7396L1.78797 14.2316C1.80777 14.1616 1.83636 14.0938 1.87353 14.0297L3.06946 13.2057Z" transform="translate(8 6)" fill="white"/>
      <path d="M7.99963 13.9492L2.87422 11.0548L1.87353 11.7848C1.83636 11.8489 1.80777 11.9167 1.78797 11.9867L7.99993 15.4947L14.2119 11.9867C14.1921 11.9167 14.1635 11.8489 14.1263 11.7848C14.0481 11.6499 13.9341 11.5357 13.7942 11.4552L13.1026 11.0675L7.99963 13.9492Z" transform="translate(8 6)" fill="white"/>
      <path d="M2.79996 9.07407L7.99963 12.0105L13.1993 9.07407L13.7939 9.4144C13.9338 9.49486 14.0478 9.60906 14.126 9.74402C14.1632 9.80809 14.1918 9.87593 14.2116 9.94591L7.99963 13.4539L1.78767 9.94591C1.80746 9.87593 1.83606 9.80809 1.87323 9.74402L2.79996 9.07407Z" transform="translate(8 6)" fill="white"/>
      <path d="M7.99993 9.8676L2.97957 7.03247L1.87323 7.80524C1.83606 7.86931 1.80746 7.93715 1.78767 8.00713L7.99963 11.5152L14.2116 8.00713C14.1918 7.93715 14.1632 7.86931 14.126 7.80524C14.0478 7.67029 13.9338 7.55608 13.7939 7.47562L13.02 7.03264L7.99993 9.8676Z" transform="translate(8 6)" fill="white"/>
      <path fill-rule="evenodd" clip-rule="evenodd" d="M15.9998 6.10285V13.1721C15.9998 13.8881 16.0197 14.5776 15.6456 15.2188C15.4113 15.6204 15.0733 15.953 14.6664 16.1824L7.99986 20L1.33333 16.1824C0.928589 15.9505 0.592422 15.6173 0.358425 15.2163C0.125556 14.8171 0.0155291 14.3734 3.33046e-05 13.9126V6.10285C-0.00231805 5.63899 0.119876 5.18284 0.354177 4.78123C0.588478 4.37963 0.926465 4.04703 1.3334 3.81759L7.99993 0L14.6665 3.81759C15.0712 4.04952 15.4074 4.38267 15.6414 4.78371C15.8754 5.18475 15.9989 5.63963 15.9998 6.10285ZM1.3334 6.10285L2.5426 6.78572L1.99974 7.09647C1.79662 7.21323 1.62808 7.38089 1.51104 7.58262C1.39401 7.78435 1.33264 8.01304 1.3331 8.24571L2.36299 8.82731L1.99974 9.03525C1.79662 9.152 1.62808 9.31967 1.51104 9.5214C1.39401 9.72313 1.33264 9.95182 1.3331 10.1845L2.44915 10.8148L2.00005 11.0761C1.79692 11.1928 1.62838 11.3605 1.51135 11.5622C1.39431 11.7639 1.33295 11.9926 1.3334 12.2253L2.63248 12.9589L2.00005 13.321C1.79692 13.4377 1.62838 13.6054 1.51135 13.8071C1.39431 14.0088 1.33295 14.2375 1.3334 14.4702L7.99993 18.2349L14.6665 14.4702C14.6669 14.2375 14.6056 14.0088 14.4885 13.8071C14.3716 13.6054 14.203 13.4377 13.9998 13.321L13.3674 12.9589L14.6665 12.2253C14.6669 11.9926 14.6056 11.7639 14.4885 11.5622C14.3716 11.3605 14.203 11.1928 13.9998 11.0761L13.5096 10.8376L14.6662 10.1845C14.6666 9.95182 14.6053 9.72313 14.4882 9.5214C14.3713 9.31967 14.2027 9.152 13.9995 9.03525L13.6363 8.82731L14.6662 8.24571C14.6666 8.01304 14.6053 7.78435 14.4882 7.58262C14.3713 7.38089 14.2027 7.21323 13.9995 7.09647L13.457 6.78589L14.6665 6.10285C14.6669 5.87018 14.6056 5.64149 14.4885 5.43976C14.3716 5.23803 14.203 5.07037 13.9998 4.95362L7.99993 1.51911L2.00005 4.95362C1.79692 5.07037 1.62838 5.23803 1.51135 5.43976C1.39431 5.64149 1.33295 5.87018 1.3334 6.10285Z" transform="translate(8 6)" fill="white"/>
    </g>
  </g>
</svg>
