<svg xmlns="http://www.w3.org/2000/svg" xmlns:xlink="http://www.w3.org/1999/xlink" viewBox="0 0 24 24">
  <defs>
    <linearGradient id="linear-gradient" x1="12" y1="19" x2="12" y2="5" gradientUnits="userSpaceOnUse">
      <stop offset="0" stop-color="#fff"/>
      <stop offset="1" stop-color="#323d47"/>
    </linearGradient>
    <radialGradient id="radial-gradient" cx="12" cy="-89.94" r="11.42" gradientTransform="translate(22.5 -44.54) rotate(180) scale(0.88 0.66)" gradientUnits="userSpaceOnUse">
      <stop offset="0" stop-color="#00b45a"/>
      <stop offset="0.22" stop-color="#00b45a" stop-opacity="0.71"/>
      <stop offset="0.49" stop-color="#00b45a" stop-opacity="0.41"/>
      <stop offset="0.71" stop-color="#00b45a" stop-opacity="0.19"/>
      <stop offset="0.89" stop-color="#00b45a" stop-opacity="0.05"/>
      <stop offset="1" stop-color="#00b45a" stop-opacity="0"/>
    </radialGradient>
  </defs>
  <title>nst</title>
  <g id="icn24">
    <g id="menu">
      <rect id="space" width="24" height="24" style="fill: none"/>
      <path d="M21,13H3V11H21Zm0-7H3V8H21Zm0,10H3v2H21Z" style="fill: #323d47"/>
    </g>
    <g id="bookmark">
      <rect id="space-2" data-name="space" width="24" height="24" style="fill: none"/>
      <polygon points="20 24 12 16 4 24 4 0 20 0 20 24" style="fill: #323d47"/>
    </g>
    <g id="bookmark-wire">
      <rect id="space-3" data-name="space" width="24" height="24" style="fill: none"/>
      <polygon points="20 0 20 0 20 24 12 16 4 24 4 0 5 0 5 21.59 12 14.59 19 21.59 19 0 20 0" style="fill: #323d47"/>
    </g>
    <g id="brick-wall">
      <rect id="space-4" data-name="space" width="24" height="24" style="fill: none"/>
      <path id="_Compound_Path_" data-name="&lt;Compound Path&gt;" d="M2,5V19a2,2,0,0,0,2,2H20a2,2,0,0,0,2-2V5a2,2,0,0,0-2-2H4A2,2,0,0,0,2,5ZM4,5h9V9H4Zm12,9H8V10h8ZM4,10H7v4H4Zm0,9V15h8v4Zm16,0H13V15h7Zm0-5H17V10h3Zm0-5H14V5h6Z" style="fill: #323d47"/>
    </g>
    <g id="window">
      <rect id="space-5" data-name="space" width="24" height="24" style="fill: none"/>
      <rect x="4" y="5" width="16" height="14" style="opacity: 0.30000000000000004;fill: url(#linear-gradient)"/>
      <path d="M2,5V19a2,2,0,0,0,2,2H20a2,2,0,0,0,2-2V5a2,2,0,0,0-2-2H4A2,2,0,0,0,2,5ZM4,5H20V19H4ZM19.09,6.09l-.18-.18-6,6,.18.18Zm0,4-.18-.18-6,6,.18.18Z" style="fill: #323d47"/>
    </g>
    <g id="places">
      <rect id="space-6" data-name="space" width="24" height="24" style="fill: none"/>
      <path d="M19,21H5a2,2,0,0,1-2-2V5A2,2,0,0,1,5,3H19a2,2,0,0,1,2,2V19A2,2,0,0,1,19,21ZM5.42,15a5.66,5.66,0,0,1,4.3,2A3,3,0,0,0,12,18h0a3,3,0,0,0,2.28-1,5.66,5.66,0,0,1,4.3-2H19V5H5V15Z" style="fill: #323d47"/>
    </g>
    <g id="search">
      <rect id="space-7" data-name="space" width="24" height="24" style="fill: none"/>
      <path d="M20.2,18.61l-4.89-4.89a6.52,6.52,0,1,0-1.59,1.59l4.89,4.89a1.12,1.12,0,0,0,1.59-1.59ZM5.5,10A4.5,4.5,0,1,1,10,14.5,4.5,4.5,0,0,1,5.5,10Z" style="fill: #323d47"/>
    </g>
    <g id="forward">
      <rect id="space-8" data-name="space" width="24" height="24" style="fill: none"/>
      <polygon id="_Path_" data-name="&lt;Path&gt;" points="5 10 12.5 2.5 20 10 15 10 12.5 21 10 10 5 10" style="fill: #323d47"/>
    </g>
    <g id="reply">
      <rect id="space-9" data-name="space" width="24" height="24" style="fill: none"/>
      <path d="M21,19A13.36,13.36,0,0,0,10,8V4L2.5,11.5,10,19V14C14.55,14,18.73,15.11,21,19Z" style="fill: #323d47"/>
    </g>
    <g id="more">
      <rect id="space-10" data-name="space" x="6" width="12" height="24" style="fill: none"/>
      <path d="M14.5,12A2.5,2.5,0,1,1,12,9.5,2.5,2.5,0,0,1,14.5,12ZM12,2.5A2.5,2.5,0,1,0,14.5,5,2.5,2.5,0,0,0,12,2.5Zm0,14A2.5,2.5,0,1,0,14.5,19,2.5,2.5,0,0,0,12,16.5Z" style="fill: #323d47"/>
    </g>
    <g id="crown">
      <rect id="space-11" data-name="space" width="24" height="24" style="fill: none"/>
      <path d="M19.5,8.19a2.49,2.49,0,0,0-1.59,4.41l-1,.91A2,2,0,0,1,13.8,13l-1-1.92a2.5,2.5,0,1,0-1.5,0L10.2,13a2,2,0,0,1-3.08.54l-1-.91a2.49,2.49,0,1,0-1.59.59l.25,0,.52,4.09a2,2,0,0,0,2,1.75h9.48a2,2,0,0,0,2-1.75l.52-4.09.25,0a2.5,2.5,0,0,0,0-5Z" style="fill: #323d47"/>
    </g>
    <g id="tag">
      <rect id="space-12" data-name="space" width="24" height="24" style="fill: none"/>
      <path d="M10.62,2.88l-8.5,8.5a3,3,0,0,0,0,4.24l6.26,6.26a3,3,0,0,0,4.24,0l8.5-8.5A3,3,0,0,0,22,11.26V5a3,3,0,0,0-3-3H12.74A3,3,0,0,0,10.62,2.88Zm5.64,7.88a3,3,0,1,1,3-3A3,3,0,0,1,16.26,10.76Z" style="fill: #323d47"/>
    </g>
    <g id="tag-wire">
      <rect id="space-13" data-name="space" width="24" height="24" style="fill: none"/>
      <path d="M19,4a1,1,0,0,1,1,1v6.26a1,1,0,0,1-.29.71l-8.5,8.5a1,1,0,0,1-1.41,0L3.54,14.21a1,1,0,0,1,0-1.41L12,4.29A1,1,0,0,1,12.74,4H19m0-2H12.74a3,3,0,0,0-2.12.88l-8.5,8.5a3,3,0,0,0,0,4.24l6.26,6.26a3,3,0,0,0,4.24,0l8.5-8.5A3,3,0,0,0,22,11.26V5a3,3,0,0,0-3-3ZM15.26,7.76a1,1,0,0,1,0,2,1,1,0,0,1-1-1,1,1,0,0,1,1-1m0-2a3,3,0,1,0,3,3,3,3,0,0,0-3-3Z" style="fill: #323d47"/>
    </g>
    <g id="microphone-wire">
      <rect id="space-14" data-name="space" width="24" height="24" style="fill: none"/>
      <path d="M12,3.5a3,3,0,0,1,3,3v6a3,3,0,0,1-6,0v-6a3,3,0,0,1,3-3m0-2a5,5,0,0,0-5,5v6a5,5,0,0,0,10,0v-6a5,5,0,0,0-5-5ZM18,23a1,1,0,0,0-1-1H13V20.94a8.51,8.51,0,0,0,7.5-8.44,1,1,0,0,0-2,0,6.5,6.5,0,0,1-13,0,1,1,0,0,0-2,0A8.51,8.51,0,0,0,11,20.94V22H7a1,1,0,0,0,0,2H17A1,1,0,0,0,18,23Z" style="fill: #323d47"/>
    </g>
    <g id="attach">
      <rect id="space-15" data-name="space" width="24" height="24" style="fill: none"/>
      <path d="M9,22.36A7.36,7.36,0,0,1,3.79,9.79l6.5-6.5a5.24,5.24,0,0,1,7.41,7.41l-6.5,6.5a3.12,3.12,0,1,1-4.41-4.41l6.5-6.5a1,1,0,0,1,1.41,1.41l-6.5,6.5a1.12,1.12,0,0,0,0,1.59,1.13,1.13,0,0,0,1.59,0l6.5-6.5a3.25,3.25,0,0,0,0-4.59,3.32,3.32,0,0,0-4.59,0l-6.5,6.5a5.36,5.36,0,0,0,7.59,7.59l7.5-7.5a1,1,0,0,1,1.41,1.41l-7.5,7.5A7.34,7.34,0,0,1,9,22.36Z" style="fill: #323d47"/>
    </g>
    <g id="small-face-wire">
      <rect id="space-16" data-name="space" width="24" height="24" style="fill: none"/>
      <path d="M17.5,9.5a2,2,0,1,1-2-2A2,2,0,0,1,17.5,9.5Zm-9-2a2,2,0,1,0,2,2A2,2,0,0,0,8.5,7.5ZM12,22C5.13,22,1.5,18.54,1.5,12S5.13,2,12,2,22.5,5.46,22.5,12,18.87,22,12,22ZM12,4C6.28,4,3.5,6.62,3.5,12s2.78,8,8.5,8,8.5-2.62,8.5-8S17.72,4,12,4Zm0,14c-1.6,0-5.36,0-6.26-3.61a1,1,0,1,1,1.94-.48C8.06,15.43,9.23,16,12,16s3.94-.57,4.32-2.09a1,1,0,1,1,1.94.48C17.36,18,13.6,18,12,18Z" style="fill: #323d47"/>
    </g>
    <g id="camera-wire">
      <rect id="space-17" data-name="space" width="24" height="24" style="fill: none"/>
      <path d="M14.17,4l2.41,2.41.59.59H19a2,2,0,0,1,2,2v9a2,2,0,0,1-2,2H5a2,2,0,0,1-2-2V9A2,2,0,0,1,5,7H6.83l.59-.59L9.83,4h4.34M15,2H9L6,5H5A4,4,0,0,0,1,9v9a4,4,0,0,0,4,4H19a4,4,0,0,0,4-4V9a4,4,0,0,0-4-4H18L15,2ZM12,9a4,4,0,1,1-4,4,4,4,0,0,1,4-4m0-2a6,6,0,1,0,6,6,6,6,0,0,0-6-6Z" style="fill: #323d47"/>
    </g>
    <g id="manager">
      <rect id="space-18" data-name="space" width="24" height="24" style="fill: none"/>
      <path d="M16,13v4H15V13a1,1,0,0,0-1-1V22H13V18a1,1,0,0,0-2,0v4H10V12a1,1,0,0,0-1,1v4H8V13a2,2,0,0,1,2-2h4A2,2,0,0,1,16,13ZM15.75,1.59A1.25,1.25,0,0,0,14.5,2.84a1.23,1.23,0,0,0,.46.95l-.52.47A1,1,0,0,1,12.9,4l-.53-1a1.24,1.24,0,0,0,.88-1.18,1.25,1.25,0,1,0-2.5,0A1.24,1.24,0,0,0,11.63,3L11.1,4a1,1,0,0,1-1.54.27L9,3.79a1.23,1.23,0,0,0,.46-.95A1.25,1.25,0,1,0,8.25,4.09l.12,0,.26,2.06a1,1,0,0,0,1,.87h4.74a1,1,0,0,0,1-.87l.26-2.06.12,0a1.25,1.25,0,0,0,0-2.5ZM12,10.5A2.5,2.5,0,0,0,14.5,8h-5A2.5,2.5,0,0,0,12,10.5Z" style="fill: #323d47"/>
    </g>
    <g id="member">
      <rect id="space-19" data-name="space" width="24" height="24" style="fill: none"/>
      <path d="M16,13v4H15V13a1,1,0,0,0-1-1V22H13V18a1,1,0,0,0-2,0v4H10V12a1,1,0,0,0-1,1v4H8V13a2,2,0,0,1,2-2h4A2,2,0,0,1,16,13ZM12,5.5A2.5,2.5,0,1,0,14.5,8,2.5,2.5,0,0,0,12,5.5Z" style="fill: #323d47"/>
    </g>
    <g id="manager-member">
      <rect id="space-20" data-name="space" width="24" height="24" style="fill: none"/>
      <path d="M19,13v4H18V13a1,1,0,0,0-1-1V22H16V18a1,1,0,0,0-2,0v4H13V12H10V22H9V18a1,1,0,1,0-2,0v4H6V12a1,1,0,0,0-1,1v4H4V13a2,2,0,0,1,2-2H17A2,2,0,0,1,19,13ZM4.37,4.07l.26,2.06a1,1,0,0,0,1,.87h4.74a1,1,0,0,0,1-.87l.26-2.06.12,0A1.25,1.25,0,1,0,10.5,2.84a1.23,1.23,0,0,0,.46.95l-.52.47A1,1,0,0,1,8.9,4L8.37,3a1.24,1.24,0,0,0,.88-1.18,1.25,1.25,0,1,0-2.5,0A1.24,1.24,0,0,0,7.63,3L7.1,4a1,1,0,0,1-1.54.27L5,3.79a1.23,1.23,0,0,0,.46-.95A1.25,1.25,0,1,0,4.25,4.09ZM15,10.5A2.5,2.5,0,1,0,12.5,8,2.5,2.5,0,0,0,15,10.5Zm-7,0A2.5,2.5,0,0,0,10.5,8h-5A2.5,2.5,0,0,0,8,10.5Z" style="fill: #323d47"/>
    </g>
    <g id="team">
      <rect id="space-21" data-name="space" width="24" height="24" style="fill: none"/>
      <path d="M7.5,8A2.5,2.5,0,1,1,5,5.5,2.5,2.5,0,0,1,7.5,8ZM12,5.5A2.5,2.5,0,1,0,14.5,8,2.5,2.5,0,0,0,12,5.5Zm7,0A2.5,2.5,0,1,0,21.5,8,2.5,2.5,0,0,0,19,5.5ZM7,12V22H6V18a1,1,0,0,0-2,0v4H3V12a1,1,0,0,0-1,1v4H1V13a2,2,0,0,1,2-2H21a2,2,0,0,1,2,2v4H22V13a1,1,0,0,0-1-1V22H20V18a1,1,0,0,0-2,0v4H17V12H14V22H13V18a1,1,0,0,0-2,0v4H10V12Z" style="fill: #323d47"/>
    </g>
    <g id="photo-wire">
      <rect id="space-22" data-name="space" width="24" height="24" style="fill: none"/>
      <path d="M12,8a2,2,0,1,1-2-2A2,2,0,0,1,12,8ZM23,18V5a3,3,0,0,0-3-3H4A3,3,0,0,0,1,5V18a3,3,0,0,0,3,3H20A3,3,0,0,0,23,18ZM7.5,13.91l3,3,7-7,3.5,3.5V18a1,1,0,0,1-1,1H4a1,1,0,0,1-.94-.65ZM20,4a1,1,0,0,1,1,1v5.59l-3.5-3.5-7,7-3-3L3,15.59V5A1,1,0,0,1,4,4Z" style="fill: #323d47"/>
    </g>
    <g id="film-wire">
      <rect id="space-23" data-name="space" width="24" height="24" style="fill: none"/>
      <path d="M9,8v7l6.5-3.5ZM20,21H18.5V20a.5.5,0,0,0-1,0v1h-5V20a.5.5,0,0,0-1,0v1h-5V20a.5.5,0,0,0-1,0v1H4a3,3,0,0,1-3-3V5A3,3,0,0,1,4,2H5.5V3a.5.5,0,0,0,1,0V2h5V3a.5.5,0,0,0,1,0V2h5V3a.5.5,0,0,0,1,0V2H20a3,3,0,0,1,3,3V18A3,3,0,0,1,20,21Zm-5.71-2h1.42a2.5,2.5,0,0,1,4.57,0A1,1,0,0,0,21,18V5a1,1,0,0,0-.73-1,2.5,2.5,0,0,1-4.57,0H14.29A2.5,2.5,0,0,1,9.71,4H8.29A2.5,2.5,0,0,1,3.73,4,1,1,0,0,0,3,5V18a1,1,0,0,0,.73,1,2.5,2.5,0,0,1,4.57,0H9.71a2.5,2.5,0,0,1,4.58,0Z" style="fill: #323d47"/>
    </g>
    <g id="bell">
      <rect id="space-24" data-name="space" width="24" height="24" style="fill: none"/>
      <path d="M12,22.67a2.5,2.5,0,0,0,2.5-2.5h-5A2.5,2.5,0,0,0,12,22.67ZM21,16v3H3V16l3-3V8a6,6,0,0,1,6-6h0a6,6,0,0,1,6,6v5Z" style="fill: #323d47"/>
    </g>
    <g id="bell-ringed">
      <rect id="space-25" data-name="space" width="24" height="24" style="fill: none"/>
      <path d="M20.33,20.33a.5.5,0,0,1-.35-.85,3.5,3.5,0,0,0,0-4.95.5.5,0,0,1,.71-.71,4.5,4.5,0,0,1,0,6.36A.5.5,0,0,1,20.33,20.33Zm-16.66,0a.5.5,0,0,1-.35-.15,4.5,4.5,0,0,1,0-6.36.5.5,0,0,1,.71.71,3.5,3.5,0,0,0,0,4.95.5.5,0,0,1-.35.85Z" style="fill: #323d47;opacity: 0.75"/>
      <path d="M21.74,21.74a.5.5,0,0,1-.35-.85,5.5,5.5,0,0,0,0-7.78.5.5,0,0,1,.71-.71,6.5,6.5,0,0,1,0,9.19A.5.5,0,0,1,21.74,21.74Zm-19.49,0a.5.5,0,0,1-.35-.15,6.5,6.5,0,0,1,0-9.19.5.5,0,0,1,.71.71,5.5,5.5,0,0,0,0,7.78.5.5,0,0,1-.35.85Z" style="fill: #323d47;opacity: 0.5"/>
      <path d="M17,9v5l2,2v2H5V16l2-2V9a5,5,0,0,1,5-5h0A5,5,0,0,1,17,9ZM12,21a2,2,0,0,0,2-2H10A2,2,0,0,0,12,21Z" style="fill: #323d47"/>
    </g>
    <g id="bell-muted">
      <rect id="space-26" data-name="space" width="24" height="24" style="fill: none"/>
      <path d="M21.12,18.29l-1.41,1.41-16-16L5.12,2.29,8.4,5.57A4.93,4.93,0,0,1,12,4a5,5,0,0,1,5,5v5.17ZM7,14,5,16v2H15.17L7,9.83Zm5,7a2,2,0,0,0,2-2H10A2,2,0,0,0,12,21Z" style="fill: #323d47"/>
    </g>
    <g id="forwarded">
      <g id="space-27" data-name="space">
        <rect width="24" height="24" style="fill: none"/>
      </g>
      <path d="M12.5,20.5A1.5,1.5,0,0,1,11,19V9.12L8.06,12.06A1.5,1.5,0,1,1,5.94,9.94l5.5-5.5a1.5,1.5,0,0,1,2.12,0l5.5,5.5a1.5,1.5,0,0,1-2.12,2.12L14,9.12V19A1.5,1.5,0,0,1,12.5,20.5Z" style="fill: #323d47"/>
    </g>
    <g id="replied">
      <rect width="24" height="24" style="fill: none"/>
      <path d="M18.58,19.55C16.5,15,13.38,13,8.18,13h0l2.92,2.92a1.5,1.5,0,0,1-2.12,2.12l-5.5-5.5a1.5,1.5,0,0,1,0-2.12l5.5-5.5a1.5,1.5,0,0,1,2.12,2.12l-3,3h.07c6.38,0,10.55,2.65,13.13,8.29A1.5,1.5,0,0,1,18.58,19.55Z" style="fill: #323d47"/>
    </g>
    <g id="exit">
      <g id="space-28" data-name="space">
        <rect width="24" height="24" style="fill: none"/>
      </g>
      <path d="M11,21H5.5A2.5,2.5,0,0,1,3,18.5V6.5A2.5,2.5,0,0,1,5.5,4H11V7H6V18h5Zm4.56-.44-2.12-2.12L17.88,14H9V11h8.88L13.44,6.56l2.12-2.12,7,7a1.5,1.5,0,0,1,0,2.12Z" style="fill: #323d47"/>
    </g>
    <g id="gear">
      <rect id="space-29" data-name="space" width="24" height="24" style="fill: none"/>
      <g id="_Group_" data-name="&lt;Group&gt;">
        <path d="M3.3,13.87l-.37-.09A1.85,1.85,0,0,1,1.51,12s0,0,0,0a1.85,1.85,0,0,1,1.43-1.76l.37-.09A1.92,1.92,0,0,0,4.6,9l0-.07a1.92,1.92,0,0,0-.1-1.74l-.19-.32a1.85,1.85,0,0,1,.24-2.26l0,0a1.85,1.85,0,0,1,2.26-.24l.32.19a1.92,1.92,0,0,0,1.74.1L9,4.6a1.92,1.92,0,0,0,1.16-1.3l.09-.37A1.85,1.85,0,0,1,12,1.51h0a1.85,1.85,0,0,1,1.76,1.43l.09.37A1.92,1.92,0,0,0,15,4.6l.07,0a1.92,1.92,0,0,0,1.74-.1l.32-.19a1.85,1.85,0,0,1,2.26.24l0,0a1.85,1.85,0,0,1,.24,2.26l-.19.32a1.92,1.92,0,0,0-.1,1.74l0,.07a1.92,1.92,0,0,0,1.3,1.16l.37.09A1.85,1.85,0,0,1,22.5,12s0,0,0,0a1.85,1.85,0,0,1-1.43,1.76l-.37.09A1.92,1.92,0,0,0,19.4,15l0,.07a1.92,1.92,0,0,0,.1,1.74l.19.32a1.85,1.85,0,0,1-.24,2.26l0,0a1.85,1.85,0,0,1-2.26.24l-.32-.19a1.92,1.92,0,0,0-1.74-.1l-.07,0a1.92,1.92,0,0,0-1.16,1.3l-.09.37A1.85,1.85,0,0,1,12,22.49h0a1.85,1.85,0,0,1-1.76-1.43l-.09-.37A1.92,1.92,0,0,0,9,19.4l-.07,0a1.92,1.92,0,0,0-1.74.1l-.32.19a1.85,1.85,0,0,1-2.26-.24l0,0a1.85,1.85,0,0,1-.24-2.26l.19-.32a1.92,1.92,0,0,0,.1-1.74l0-.07A1.92,1.92,0,0,0,3.3,13.87ZM12,7a5,5,0,1,0,5,5A5,5,0,0,0,12,7Z" style="fill: #323d47"/>
      </g>
    </g>
    <g id="gear-wire">
      <rect id="space-30" data-name="space" width="24" height="24" style="fill: none"/>
      <path d="M12,3a.35.35,0,0,1,.31.28l.09.37A3.43,3.43,0,0,0,14.46,6l.05,0a3.51,3.51,0,0,0,1.36.28,3.35,3.35,0,0,0,1.73-.48l.32-.19a.41.41,0,0,1,.21-.06.31.31,0,0,1,.23.1.35.35,0,0,1,0,.42l-.19.32A3.44,3.44,0,0,0,18,9.49l0,.05a3.43,3.43,0,0,0,2.34,2l.37.09a.33.33,0,0,1,0,.65l-.37.09a3.43,3.43,0,0,0-2.34,2l0,.05a3.44,3.44,0,0,0,.21,3.09l.19.32a.36.36,0,0,1,0,.44.29.29,0,0,1-.21.08.41.41,0,0,1-.21-.06l-.32-.19a3.35,3.35,0,0,0-1.73-.48,3.51,3.51,0,0,0-1.36.27l-.05,0a3.43,3.43,0,0,0-2,2.34l-.09.37a.33.33,0,0,1-.65,0l-.09-.37a3.43,3.43,0,0,0-2-2.34l-.06,0a3.51,3.51,0,0,0-1.36-.28,3.35,3.35,0,0,0-1.73.48l-.32.19a.41.41,0,0,1-.21.06.31.31,0,0,1-.23-.1.35.35,0,0,1,0-.42l.19-.32a3.44,3.44,0,0,0,.2-3.1l0-.05a3.43,3.43,0,0,0-2.34-2l-.37-.09a.33.33,0,0,1,0-.65l.37-.09A3.43,3.43,0,0,0,6,9.54l0-.05a3.44,3.44,0,0,0-.21-3.09l-.19-.32a.36.36,0,0,1,0-.44.3.3,0,0,1,.21-.08.41.41,0,0,1,.21.06l.32.19a3.35,3.35,0,0,0,1.73.48A3.52,3.52,0,0,0,9.49,6l.05,0a3.43,3.43,0,0,0,2-2.34l.09-.37A.35.35,0,0,1,12,3h0m0-1.5h0a1.85,1.85,0,0,0-1.76,1.43l-.09.37A1.92,1.92,0,0,1,9,4.6l-.07,0a2,2,0,0,1-.78.16,1.84,1.84,0,0,1-1-.26l-.32-.19a1.91,1.91,0,0,0-1-.28,1.79,1.79,0,0,0-1.27.52l0,0a1.85,1.85,0,0,0-.24,2.26l.19.32a1.92,1.92,0,0,1,.1,1.74L4.6,9a1.92,1.92,0,0,1-1.3,1.16l-.37.09A1.85,1.85,0,0,0,1.51,12s0,0,0,0a1.85,1.85,0,0,0,1.43,1.76l.37.09A1.92,1.92,0,0,1,4.6,15l0,.07a1.92,1.92,0,0,1-.1,1.74l-.19.32a1.85,1.85,0,0,0,.24,2.26l0,0a1.79,1.79,0,0,0,1.27.52,1.91,1.91,0,0,0,1-.28l.32-.19a1.84,1.84,0,0,1,1-.26,2,2,0,0,1,.78.16l.07,0a1.92,1.92,0,0,1,1.16,1.3l.09.37A1.85,1.85,0,0,0,12,22.49h0a1.85,1.85,0,0,0,1.76-1.43l.09-.37A1.92,1.92,0,0,1,15,19.4l.07,0a2,2,0,0,1,.78-.16,1.84,1.84,0,0,1,1,.26l.32.19a1.91,1.91,0,0,0,1,.28,1.79,1.79,0,0,0,1.27-.52l0,0a1.85,1.85,0,0,0,.24-2.26l-.19-.32a1.92,1.92,0,0,1-.1-1.74l0-.07a1.92,1.92,0,0,1,1.3-1.16l.37-.09A1.85,1.85,0,0,0,22.5,12s0,0,0,0a1.85,1.85,0,0,0-1.43-1.76l-.37-.09A1.92,1.92,0,0,1,19.4,9l0-.07a1.92,1.92,0,0,1,.1-1.74l.19-.32a1.85,1.85,0,0,0-.24-2.26l0,0a1.79,1.79,0,0,0-1.27-.52,1.91,1.91,0,0,0-1,.28l-.32.19a1.84,1.84,0,0,1-1,.26,2,2,0,0,1-.78-.16L15,4.6a1.92,1.92,0,0,1-1.16-1.3l-.09-.37A1.85,1.85,0,0,0,12,1.51Zm0,7A3.5,3.5,0,1,1,8.5,12,3.5,3.5,0,0,1,12,8.5M12,7a5,5,0,1,0,5,5,5,5,0,0,0-5-5Z" style="fill: #323d47"/>
    </g>
    <g id="sort">
      <rect id="space-31" data-name="space" width="24" height="24" style="fill: none"/>
      <path d="M16,13H2V11H16Zm6-7H2V8H22ZM10,16H2v2h8Z" style="fill: #323d47"/>
    </g>
    <g id="filter">
      <rect id="space-32" data-name="space" width="24" height="24" style="fill: none"/>
      <polygon points="11 21 9 21 9 12.41 2.29 5.71 3 4 21 4 21.71 5.71 15 12.41 15 17 13 17 13 11.59 18.59 6 5.41 6 11 11.59 11 21" style="fill: #323d47"/>
    </g>
    <g id="list-check">
      <rect id="space-33" data-name="space" width="24" height="24" style="fill: none"/>
      <path d="M5.5,19.91.29,14.71l1.41-1.41L5.5,17.09,16.29,6.29l1.41,1.41ZM16,19H10V17h6Zm4-4H14V13h6Zm4-4H18V9h6Z" style="fill: #323d47"/>
    </g>
    <g id="rotateccw">
      <rect id="space-34" data-name="space" width="24" height="24" style="fill: none"/>
      <path d="M21,12H19a7,7,0,0,0-7-7h-.5V7.46L5.5,4l6-3.46V3H12A9,9,0,0,1,21,12Zm-8,0v7H6V12h7m0-2H6a2,2,0,0,0-2,2v7a2,2,0,0,0,2,2h7a2,2,0,0,0,2-2V12a2,2,0,0,0-2-2Z" style="fill: #323d47"/>
    </g>
    <g id="rotatecw">
      <rect id="space-35" data-name="space" width="24" height="24" style="fill: none"/>
      <path d="M5,12H3a9,9,0,0,1,9-9h.5V.54L18.5,4l-6,3.46V5H12A7,7,0,0,0,5,12Zm13,0v7H11V12h7m0-2H11a2,2,0,0,0-2,2v7a2,2,0,0,0,2,2h7a2,2,0,0,0,2-2V12a2,2,0,0,0-2-2Z" style="fill: #323d47"/>
    </g>
    <g id="replace">
      <rect id="space-36" data-name="space" width="24" height="24" style="fill: none"/>
      <path d="M9.29,22.71,4.59,18l4.71-4.71,1.41,1.41L8.41,17H17V11h2v6a2,2,0,0,1-2,2H8.41l2.29,2.29ZM7,13H5V7A2,2,0,0,1,7,5h8.59L13.29,2.71l1.41-1.41L19.41,6l-4.71,4.71L13.29,9.29,15.59,7H7Z" style="fill: #323d47"/>
    </g>
    <g id="expand">
      <rect id="space-37" data-name="space" width="24" height="24" style="fill: none"/>
      <path d="M20,5v6H18V7.41L14.41,11,13,9.59,16.59,6H13V4h6A1,1,0,0,1,20,5ZM9.59,13,6,16.59V13H4v6a1,1,0,0,0,1,1h6V18H7.41L11,14.41Z" style="fill: #323d47"/>
    </g>
    <g id="collapse">
      <rect id="space-38" data-name="space" width="24" height="24" style="fill: none"/>
      <path d="M11,14v6H9V16.41L5.41,20,4,18.59,7.59,15H4V13h6A1,1,0,0,1,11,14Zm9-8.59L18.59,4,15,7.59V4H13v6a1,1,0,0,0,1,1h6V9H16.41Z" style="fill: #323d47"/>
    </g>
    <g id="sarrow">
      <rect id="space-39" data-name="space" width="24" height="24" style="fill: none"/>
      <polygon points="12 15 17 10 7 10 12 15" style="fill: #323d47"/>
    </g>
    <g id="sync">
      <rect id="space-40" data-name="space" width="24" height="24" style="fill: none"/>
      <path d="M19.37,15.11l-1.84-.78A5.9,5.9,0,0,0,17,8.69,6,6,0,0,0,12,6V9L8,5l4-4V4a8,8,0,0,1,7.37,11.11ZM12,18a6,6,0,0,1-5-2.69,5.9,5.9,0,0,1-.53-5.65L4.63,8.89A8,8,0,0,0,12,20v3l4-4-4-4Z" style="fill: #323d47"/>
    </g>
    <g id="earth">
      <rect id="space-41" data-name="space" width="24" height="24" style="fill: none"/>
      <path d="M12,2.5A9.5,9.5,0,1,0,21.5,12,9.5,9.5,0,0,0,12,2.5ZM4.5,12a7.44,7.44,0,0,1,.72-3.18.31.31,0,0,0,0,.06A.71.71,0,0,0,5.55,9a2,2,0,0,1,1.1.78,5.36,5.36,0,0,0,.37.58.55.55,0,0,0,.6.2c0-.07,0-.13,0-.2s.17,0,.21.1c.27.65-.51,1.31-.51,2,0,.52.42.94.59,1.44a2.83,2.83,0,0,0,.2.59c.2.34.61.47.9.75A2.66,2.66,0,0,1,9.46,17a8,8,0,0,0,.5,2.18A7.51,7.51,0,0,1,4.5,12ZM12,19.5a7.48,7.48,0,0,1-1.15-.1,1.07,1.07,0,0,0,0-.52c.38-.12.81-.27,1-.64a1.25,1.25,0,0,0,.82-.72,2.76,2.76,0,0,1,.6-1c.44-.39,1.23-.46,1.4-1a4.3,4.3,0,0,0,.07-.58,1,1,0,0,1,.67-.77.42.42,0,0,0,.25-.13.36.36,0,0,0,0-.24c-.07-.26-.12-.52-.18-.8A5,5,0,0,0,14,12.48a6.13,6.13,0,0,1-1.36-.63,1,1,0,0,0-.94-1,.83.83,0,0,1-.31,0c-.09-.05-.16-.18-.09-.26a.58.58,0,0,1-.6-.31.31.31,0,0,0-.08-.14.35.35,0,0,0-.16,0L9.1,10c-.46,0-1,0-1.18.44l-.38-.26-.29.14a1.16,1.16,0,0,1,0-1A.71.71,0,0,0,6.69,9a1,1,0,0,1,.14-.41.49.49,0,0,0,.08-.42c-.07-.14-.29-.18-.35-.05s0,.1,0,.14a.29.29,0,0,1-.46.09A.57.57,0,0,1,6,7.88a1.49,1.49,0,0,1,1.46-1c.18,0,.43.08.43.25,0,0,0,0,0-.07a.54.54,0,0,0,.2.25A3.84,3.84,0,0,0,8.33,6a1.17,1.17,0,0,0,1.31-.89c.29,0,.52-.22.76-.43a7.39,7.39,0,0,1,4.86.58,1,1,0,0,0-.1.19c-.08.24,0,.3,0,.55a1.39,1.39,0,0,1-.41.75c.05.22.24.5.27.68s-.07.27,0,.34.25.22.39.38c-.38.46-.08,1,.27,1.4s.61.47.85.77c.05.08,0,.18.05.26s.29.26.41.42c.44-.17.27-.2.78,0,.16-.17.52-.5.81-.47.46,0,.42.47.88.5,0,.19,0,.38.06.57s0,.28,0,.43A7.51,7.51,0,0,1,12,19.5Z" style="fill: #323d47"/>
    </g>
    <g id="star">
      <rect id="space-42" data-name="space" width="24" height="24" style="fill: none"/>
      <polygon id="_Path_2" data-name="&lt;Path&gt;" points="16.17 13.94 22.97 9 14.57 9 11.97 1.01 9.38 9 0.97 9 7.77 13.94 5.17 21.93 11.97 16.99 18.77 21.93 16.17 13.94" style="fill: #323d47"/>
    </g>
    <g id="star-wire">
      <rect id="space-43" data-name="space" width="24" height="24" style="fill: none"/>
      <path d="M12,5.86l1.17,3.6.34,1h4.88l-3.06,2.23-.88.64.34,1L15.92,18l-3.06-2.23L12,15.14l-.88.64L8,18,9.2,14.4l.34-1-.88-.64L5.59,10.5h4.88l.34-1L12,5.86M12,1,9.38,9H1l6.8,4.94-2.6,8L12,17l6.8,4.94-2.6-8L23,9h-8.4L12,1Z" style="fill: #323d47"/>
    </g>
    <g id="square-clock-wire">
      <rect id="space-44" data-name="space" width="24" height="24" style="fill: none"/>
      <path d="M19,22H5a3,3,0,0,1-3-3V5A3,3,0,0,1,5,2H19a3,3,0,0,1,3,3V19A3,3,0,0,1,19,22ZM5,4A1,1,0,0,0,4,5V19a1,1,0,0,0,1,1H19a1,1,0,0,0,1-1V5a1,1,0,0,0-1-1Zm9.29,12.71L11,13.41V6h2v6.59l2.71,2.71Z" style="fill: #323d47"/>
    </g>
    <g id="square-clock">
      <rect id="space-45" data-name="space" width="24" height="24" style="fill: none"/>
      <path d="M19,22H5a3,3,0,0,1-3-3V5A3,3,0,0,1,5,2H19a3,3,0,0,1,3,3V19A3,3,0,0,1,19,22Zm-4.71-5.29L11,13.41V6h2v6.59l2.71,2.71Z" style="fill: #323d47;fill-rule: evenodd"/>
    </g>
    <g id="atsign">
      <g id="space-46" data-name="space">
        <rect width="24" height="24" style="fill: none"/>
      </g>
      <path d="M12.32,22.64q-.61,0-1.23-.06A10.63,10.63,0,0,1,3.66,19a10.58,10.58,0,0,1-2.24-7.93A10.56,10.56,0,0,1,5.25,3.65a10.68,10.68,0,0,1,7.68-2.24c5.8.51,8,3.55,8.87,5.32A8.56,8.56,0,0,1,21.14,15a5.29,5.29,0,0,1-4.8,2.42,3.05,3.05,0,0,1-2.17-1.25,3.13,3.13,0,0,1-.18-.29A5.69,5.69,0,0,1,9.36,17a4.26,4.26,0,0,1-3.42-3.09A6,6,0,0,1,7.61,8c1.2-1.13,3.94-2.75,8.87-1a1.25,1.25,0,0,1,.79,1.45c-.22,1-.44,2-.61,2.8l0,.1-.07.29c-.22,1-.36,1.74-.36,1.74a2,2,0,0,0,0,1.36.6.6,0,0,0,.41.19,2.88,2.88,0,0,0,2.45-1.38,6,6,0,0,0,.44-5.79C18.8,6.23,17,4.29,12.71,3.91A8.21,8.21,0,0,0,6.81,5.6a8,8,0,0,0-2.9,5.69,8.14,8.14,0,0,0,1.66,6.1,8.19,8.19,0,0,0,5.73,2.69,8.72,8.72,0,0,0,4.79-.8,1.25,1.25,0,0,1,1.13,2.23A10.77,10.77,0,0,1,12.32,22.64Zm.07-13.9A4.32,4.32,0,0,0,9.33,9.81a3.4,3.4,0,0,0-1,3.35A1.8,1.8,0,0,0,9.8,14.5c3.08.54,4.09-2.4,4.35-3.42.13-.6.28-1.3.44-2A8.55,8.55,0,0,0,12.39,8.73Z" style="fill: #323d47"/>
    </g>
    <g id="comment">
      <rect id="space-47" data-name="space" width="24" height="24" style="fill: none"/>
      <path d="M17.5,9H7L1,3V14.5A5.5,5.5,0,0,0,6.5,20h11a5.5,5.5,0,0,0,0-11Zm-11,7A1.5,1.5,0,1,1,8,14.5,1.5,1.5,0,0,1,6.5,16ZM12,16a1.5,1.5,0,1,1,1.5-1.5A1.5,1.5,0,0,1,12,16Zm5.5,0A1.5,1.5,0,1,1,19,14.5,1.5,1.5,0,0,1,17.5,16Z" style="fill: #323d47;fill-rule: evenodd"/>
    </g>
    <g id="comments">
      <rect id="space-48" data-name="space" width="24" height="24" style="fill: none"/>
      <path d="M17.9,10H11a7,7,0,0,0-6.87,5.64A5,5,0,0,1,1,11V2L5,6h8a5,5,0,0,1,4.9,4Z" style="fill: #323d47;fill-rule: evenodd;opacity: 0.5"/>
      <path d="M23,8l-4,4H11a5,5,0,0,0-5,5H6a5,5,0,0,0,5,5h7a5,5,0,0,0,5-5V8M11,15.75A1.25,1.25,0,1,0,12.25,17,1.25,1.25,0,0,0,11,15.75Zm7,0A1.25,1.25,0,1,0,19.25,17,1.25,1.25,0,0,0,18,15.75Zm-3.5,0A1.25,1.25,0,1,0,15.75,17,1.25,1.25,0,0,0,14.5,15.75Z" style="fill: #323d47;fill-rule: evenodd"/>
    </g>
    <g id="unread-circle">
      <rect id="space-49" data-name="space" width="24" height="24" style="fill: none"/>
      <circle cx="12" cy="12" r="4" style="fill: #323d47"/>
    </g>
    <g id="log">
      <rect id="space-50" data-name="space" width="24" height="24" style="fill: none"/>
      <path d="M19.25,2c0,.69-.21,1.25-1.25,1.25S16.75,2.69,16.75,2h-1.5c0,.69-.21,1.25-1.25,1.25S12.75,2.69,12.75,2h-1.5c0,.69-.21,1.25-1.25,1.25S8.75,2.69,8.75,2H7.25C7.25,2.69,7,3.25,6,3.25S4.75,2.69,4.75,2H4V22h.75c0-.69.21-1.25,1.25-1.25s1.25.56,1.25,1.25h1.5c0-.69.21-1.25,1.25-1.25s1.25.56,1.25,1.25h1.5c0-.69.21-1.25,1.25-1.25s1.25.56,1.25,1.25h1.5c0-.69.21-1.25,1.25-1.25s1.25.56,1.25,1.25H20V2ZM16.5,17h-9a1,1,0,0,1,0-2h9a1,1,0,0,1,0,2Zm0-4h-9a1,1,0,0,1,0-2h9a1,1,0,0,1,0,2Zm0-4h-9a1,1,0,0,1,0-2h9a1,1,0,0,1,0,2Z" style="fill: #323d47;fill-rule: evenodd"/>
    </g>
    <g id="place-members">
      <rect id="space-51" data-name="space" width="24" height="24" style="fill: none"/>
      <path d="M19,4H14.29A2.5,2.5,0,0,0,9.71,4H5A2,2,0,0,0,3,6V20a2,2,0,0,0,2,2H19a2,2,0,0,0,2-2V6A2,2,0,0,0,19,4ZM12,4a1,1,0,1,1-1,1A1,1,0,0,1,12,4Zm0,4.25A3.75,3.75,0,1,1,8.25,12,3.75,3.75,0,0,1,12,8.25ZM17,20H7V19a2,2,0,0,1,2-2h6a2,2,0,0,1,2,2Z" style="fill: #323d47;fill-rule: evenodd"/>
    </g>
    <g id="file">
      <rect id="space-52" data-name="space" width="24" height="24" style="fill: none"/>
      <path d="M18,22H6a2,2,0,0,1-2-2V4A2,2,0,0,1,6,2h8l6,6V20A2,2,0,0,1,18,22ZM15.5,12h-7a1,1,0,0,0-1,1h0a1,1,0,0,0,1,1h7a1,1,0,0,0,1-1h0A1,1,0,0,0,15.5,12Zm0,4h-7a1,1,0,0,0-1,1h0a1,1,0,0,0,1,1h7a1,1,0,0,0,1-1h0A1,1,0,0,0,15.5,16ZM13,3.83V9h5.17Z" style="fill: #323d47"/>
    </g>
    <g id="sent-message">
      <rect id="space-53" data-name="space" width="24" height="24" style="fill: none"/>
      <path d="M24,8v9a2,2,0,0,1-2,2H9a2,2,0,0,1-2-2V16H4V14H7V12H0V10H7V8H2V6H22A2,2,0,0,1,24,8ZM22,9.37l-6.5,3L9,9.37v2.21l6.5,3,6.5-3Z" style="fill: #323d47;fill-rule: evenodd"/>
    </g>
    <g id="messages">
      <rect id="space-54" data-name="space" width="24" height="24" style="fill: none"/>
      <path d="M15,8H2a2,2,0,0,0-2,2v9a2,2,0,0,0,2,2H15a2,2,0,0,0,2-2V10A2,2,0,0,0,15,8ZM2,13.57l6.5,3,6.5-3V11.37l-6.5,3-6.5-3ZM24,6v9a2,2,0,0,1-2,2H18V12.18l4-1.87V8.1L18,10a3,3,0,0,0-3-3H7V6A2,2,0,0,1,9,4H22A2,2,0,0,1,24,6Z" style="fill: #323d47;fill-rule: evenodd"/>
    </g>
    <g id="unread-message">
      <rect id="space-55" data-name="space" width="24" height="24" style="fill: none"/>
      <path d="M22,11.58V19a2,2,0,0,1-2,2H4a2,2,0,0,1-2-2V7A2,2,0,0,1,4,5H15.42A5,5,0,0,0,22,11.58ZM15.07,12,12,13.4,4,9.67v2.2l8,3.73,4.95-2.31A7,7,0,0,1,15.07,12ZM20,4a3,3,0,1,0,3,3A3,3,0,0,0,20,4Z" style="fill: #323d47"/>
    </g>
    <g id="microphone">
      <rect id="space-56" data-name="space" width="24" height="24" style="fill: none"/>
      <path d="M7,12.5v-6a5,5,0,1,1,10,0v6a5,5,0,1,1-10,0ZM17,22H13V20.94a8.51,8.51,0,0,0,7.5-8.44,1,1,0,0,0-2,0,6.5,6.5,0,1,1-13,0,1,1,0,0,0-2,0A8.51,8.51,0,0,0,11,20.94V22H7a1,1,0,0,0,0,2H17a1,1,0,0,0,0-2Z" style="fill: #323d47"/>
    </g>
    <g id="camera">
      <rect id="space-57" data-name="space" width="24" height="24" style="fill: none"/>
      <path d="M23,9v9a4,4,0,0,1-4,4H5a4,4,0,0,1-4-4V9A4,4,0,0,1,5,5H6L9,2h6l3,3h1A4,4,0,0,1,23,9ZM12,7a6,6,0,1,0,6,6A6,6,0,0,0,12,7Z" style="fill: #323d47"/>
    </g>
    <g id="bookmark-sign-wire">
      <rect id="space-58" data-name="space" width="24" height="24" style="fill: none"/>
      <path d="M17,3a1,1,0,0,1,1,1V18.17l-4.59-4.59L12,12.17l-1.41,1.41L6,18.17V4A1,1,0,0,1,7,3H17m0-2H7A3,3,0,0,0,4,4V23l8-8,8,8V4a3,3,0,0,0-3-3Z" style="fill: #323d47"/>
    </g>
    <g>
      <rect id="space-59" data-name="space" width="24" height="24" style="fill: none"/>
      <path d="M20,23l-8-8L4,23V4A3,3,0,0,1,7,1H17a3,3,0,0,1,3,3Z" style="fill: #323d47"/>
    </g>
    <g id="person">
      <rect id="space-60" data-name="space" width="24" height="24" style="fill: none"/>
      <path d="M5,21V18a4,4,0,0,1,4-4h6a4,4,0,0,1,4,4v3ZM7.5,7A4.5,4.5,0,1,0,12,2.5,4.5,4.5,0,0,0,7.5,7Z" style="fill: #323d47"/>
    </g>
    <g id="hourglass">
      <rect id="space-61" data-name="space" width="24" height="24" style="fill: none"/>
      <g style="opacity: 0.2">
        <path d="M17,17.66V21H7V17.66a4,4,0,0,1,1.17-2.83L10,13V11L8.17,9.17A4,4,0,0,1,7.06,7h9.88a4,4,0,0,1-1.11,2.17L14,11v2l1.83,1.83A4,4,0,0,1,17,17.66Z" style="fill: #323d47"/>
      </g>
      <path d="M15.83,9.17A4,4,0,0,0,17,6.34V4h1V3a1,1,0,0,0-1-1H7A1,1,0,0,0,6,3V4H7V6.34A4,4,0,0,0,8.17,9.17L10,11v2L8.17,14.83A4,4,0,0,0,7,17.66V20H6v1a1,1,0,0,0,1,1H17a1,1,0,0,0,1-1V20H17V17.66a4,4,0,0,0-1.17-2.83L14,13V11Zm-2.54,4.54,1.83,1.83A3,3,0,0,1,16,17.66V20H8V17.66a3,3,0,0,1,.88-2.12l1.83-1.83.29-.29V10.59l-.29-.29L8.88,8.46A3,3,0,0,1,8,6.34V4h8V6.34a3,3,0,0,1-.88,2.12l-1.83,1.83-.29.29v2.83Z" style="fill: #323d47"/>
    </g>
    <g id="retract-wire">
      <rect id="space-62" data-name="space" width="24" height="24" style="fill: none"/>
      <path d="M15,8.13V6.75A.75.75,0,0,0,14.25,6H12.79C13,3.87,13.92,3.25,16.5,3.25a.75.75,0,0,0,0-1.5C13.08,1.75,11.56,3,11.3,6H9.75A.75.75,0,0,0,9,6.75V8.13a7.5,7.5,0,1,0,6,0ZM12,20.5A5.5,5.5,0,1,1,17.5,15,5.51,5.51,0,0,1,12,20.5Zm2.83-4.09a1,1,0,1,1-1.41,1.41L11,15.41V12a1,1,0,0,1,2,0v2.59Z" style="fill: #323d47"/>
    </g>
    <g id="retract">
      <rect id="space-63" data-name="space" width="24" height="24" style="fill: none"/>
      <path d="M15,8.13V6.75A.75.75,0,0,0,14.25,6H12.79C13,3.87,13.92,3.25,16.5,3.25a.75.75,0,0,0,0-1.5C13.08,1.75,11.56,3,11.3,6H9.75A.75.75,0,0,0,9,6.75V8.13a7.5,7.5,0,1,0,6,0Zm-.17,9.7a1,1,0,0,1-1.41,0L11,15.41V12a1,1,0,0,1,2,0v2.59l1.83,1.83A1,1,0,0,1,14.83,17.83Z" style="fill: #323d47"/>
    </g>
    <g id="bin">
      <rect id="space-64" data-name="space" width="24" height="24" style="fill: none"/>
      <path d="M15,4H9V3a1,1,0,0,1,1-1h4a1,1,0,0,1,1,1Zm4,2V7H18V19a2,2,0,0,1-2,2H8a2,2,0,0,1-2-2V7H5V6A1,1,0,0,1,6,5H18A1,1,0,0,1,19,6ZM10.5,9h-1v9h1Zm4,0h-1v9h1Z" style="fill: #323d47"/>
    </g>
    <g id="nested3d">
      <g>
        <path d="M22,14.44V9.7a3.33,3.33,0,0,0-1.67-2.89L12,2,3.67,6.81A3.33,3.33,0,0,0,2,9.7v4.74C2,24.5,22,24.5,22,14.44Zm-10,.07L3.67,9.7A1.67,1.67,0,0,1,4.5,8.25L12,3.92l7.5,4.33a1.67,1.67,0,0,1,.83,1.44Z" style="fill: #14d769"/>
        <path d="M12,14.51l9.88-5.7A3.32,3.32,0,0,1,22,9.7v4.74c0,5-5,7.56-10,7.56Z" style="fill: url(#radial-gradient)"/>
      </g>
      <rect id="space-65" data-name="space" width="24" height="24" style="fill: none"/>
    </g>
    <g id="edit">
      <rect id="space-66" data-name="space" width="24" height="24" style="fill: none"/>
      <path d="M17.29,10.71,9.83,18.17A9.66,9.66,0,0,1,3,21a9.66,9.66,0,0,1,2.83-6.83l7.46-7.46ZM20,4a2.83,2.83,0,0,0-4,0L14.71,5.29l4,4L20,8A2.83,2.83,0,0,0,20,4Z" style="fill: #323d47"/>
    </g>
    <g id="ask">
      <rect id="space-67" data-name="space" width="24" height="24" style="fill: none"/>
      <path d="M22,12A10,10,0,1,1,12,2,10,10,0,0,1,22,12Zm-9.43,1.86V13.4a1.28,1.28,0,0,1,.2-.74,4.45,4.45,0,0,1,.93-.83,5.48,5.48,0,0,0,1.46-1.38A2.7,2.7,0,0,0,15.54,9a2.48,2.48,0,0,0-.93-2,3.86,3.86,0,0,0-2.51-.76,7.32,7.32,0,0,0-3.63,1L9.3,8.85a5.9,5.9,0,0,1,2.63-.75,1.75,1.75,0,0,1,1,.26.87.87,0,0,1,.37.76,1.36,1.36,0,0,1-.26.81,4.77,4.77,0,0,1-1.06.93A4.14,4.14,0,0,0,10.85,12a2.51,2.51,0,0,0-.32,1.28v.57Zm-1.93,3.59a1.38,1.38,0,0,0,1,.34,1.33,1.33,0,0,0,1-.35,1.49,1.49,0,0,0,0-1.92,1.36,1.36,0,0,0-1-.34,1.4,1.4,0,0,0-1,.33,1.28,1.28,0,0,0-.35,1A1.28,1.28,0,0,0,10.64,17.45Z" style="fill: #323d47"/>
    </g>
    <g id="open-message">
      <rect id="space-68" data-name="space" width="24" height="24" style="fill: none"/>
      <path d="M3.15,6.86,12,2.73l8.85,4.12A2,2,0,0,1,22,8.67V18a2,2,0,0,1-2,2H4a2,2,0,0,1-2-2V8.67A2,2,0,0,1,3.15,6.86ZM20,8.67v2.2L12,14.6,4,10.87V8.67l8-3.73Z" style="fill: #323d47;fill-rule: evenodd"/>
    </g>
    <g id="home-wire">
      <rect id="space-69" data-name="space" width="24" height="24" style="fill: none"/>
      <path d="M12,4.65l9.21,4.29a.5.5,0,0,1,.29.45V19a.5.5,0,0,1-.5.5H16.5V15a4.5,4.5,0,0,0-9,0v4.5H3a.5.5,0,0,1-.5-.5V9.4a.5.5,0,0,1,.29-.45L12,4.65M12,3,2.16,7.59A2,2,0,0,0,1,9.4V19a2,2,0,0,0,2,2H9V15a3,3,0,0,1,6,0v6h6a2,2,0,0,0,2-2V9.4a2,2,0,0,0-1.16-1.81L12,3Z" style="fill: #323d47"/>
    </g>
    <g id="home">
      <rect id="space-70" data-name="space" width="24" height="24" style="fill: none"/>
      <path d="M15,15v6h6a2,2,0,0,0,2-2V9.4a2,2,0,0,0-1.16-1.81L12,3,2.16,7.59A2,2,0,0,0,1,9.4V19a2,2,0,0,0,2,2H9V15a3,3,0,0,1,3-3h0A3,3,0,0,1,15,15Z" style="fill: #323d47"/>
    </g>
    <g id="message-history-wire">
      <rect id="space-71" data-name="space" width="24" height="24" style="fill: none"/>
      <path d="M16,22.5A7.5,7.5,0,0,1,9.66,19H3a2,2,0,0,1-2-2V5A2,2,0,0,1,3,3H19a2,2,0,0,1,2,2V9.41A7.5,7.5,0,0,1,16,22.5Zm0-13A5.5,5.5,0,1,0,21.5,15,5.51,5.51,0,0,0,16,9.5ZM3,9.88V17H8.77a7.52,7.52,0,0,1,.12-4.38ZM3,7.67l6.77,3.16A7.5,7.5,0,0,1,19,8.13V5H3Zm14.29,10-2-2A1,1,0,0,1,15,15V11h2v3.59l1.71,1.71Z" style="fill: #323d47"/>
    </g>
    <g id="message-history">
      <rect id="space-72" data-name="space" width="24" height="24" style="fill: none"/>
      <path d="M21,9.43h0V5a2,2,0,0,0-2-2H3A2,2,0,0,0,1,5V17a2,2,0,0,0,2,2H9.67A7.49,7.49,0,1,0,21,9.43ZM3,7.67l6.77,3.16a7.51,7.51,0,0,0-.46.8l-.06.13a7.45,7.45,0,0,0-.35.85L3,9.87ZM16,9.5A5.5,5.5,0,1,0,21.5,15,5.51,5.51,0,0,0,16,9.5Zm1.29,8.21L15,15.41V11h2v3.59l1.71,1.71Z" style="fill: #323d47;fill-rule: evenodd"/>
    </g>
    <g id="message-baloon">
      <rect id="space-73" data-name="space" width="24" height="24" style="fill: none"/>
      <path d="M20,17H7L2,22V5A2,2,0,0,1,4,3H20a2,2,0,0,1,2,2V15A2,2,0,0,1,20,17Zm-8-6.6L4,6.67v2.2l8,3.73,8-3.73V6.67Z" style="fill: #323d47"/>
    </g>
    <g id="message-baloon-wire">
      <rect id="space-74" data-name="space" width="24" height="24" style="fill: none"/>
      <path d="M20,3H4A2,2,0,0,0,2,5V22l5-5H20a2,2,0,0,0,2-2V5A2,2,0,0,0,20,3Zm0,2V6.67L12,10.4,4,6.67V5ZM6.17,15l-.59.59L4,17.17V8.88l8,3.73,8-3.73V15Z" style="fill: #323d47"/>
    </g>
    <g id="arrow">
      <rect width="24" height="24" style="fill: none"/>
      <polygon points="12 16.41 6.29 10.71 7.71 9.29 12 13.59 16.29 9.29 17.71 10.71 12 16.41" style="fill: #323d47"/>
    </g>
    <g id="arrow-up">
      <rect width="24" height="24" transform="translate(24 24) rotate(-180)" style="fill: none"/>
      <polygon points="12 7.59 17.71 13.29 16.29 14.71 12 10.41 7.71 14.71 6.29 13.29 12 7.59" style="fill: #323d47"/>
    </g>
    <g id="nonsearch">
      <rect id="space-75" data-name="space" width="24" height="24" style="fill: none"/>
      <path d="M12.47,8.23,10.71,10l1.77,1.77-.71.71L10,10.71,8.23,12.47l-.71-.71L9.29,10,7.53,8.23l.71-.71L10,9.29l1.77-1.77Zm7.73,12a1.13,1.13,0,0,1-1.59,0l-4.89-4.89a6.52,6.52,0,1,1,1.59-1.59l4.89,4.89A1.12,1.12,0,0,1,20.2,20.2ZM10,14.5A4.5,4.5,0,1,0,5.5,10,4.5,4.5,0,0,0,10,14.5Z" style="fill: #323d47"/>
    </g>
    <g id="xcross">
      <rect id="space-76" data-name="space" width="24" height="24" style="fill: none"/>
      <polygon points="7.05 5.64 5.64 7.05 10.59 12 5.64 16.95 7.05 18.36 12 13.41 16.95 18.36 18.36 16.95 13.41 12 18.36 7.05 16.95 5.64 12 10.59 7.05 5.64" style="fill: #323d47"/>
    </g>
    <g id="compose">
      <rect id="space-77" data-name="space" width="24" height="24" style="fill: none"/>
      <path d="M16,15h2v6a1,1,0,0,1-1,1H3a1,1,0,0,1-1-1V7A1,1,0,0,1,3,6H9V8H4V20H16Zm4.38-7-6.67,6.67C11.65,16.76,10.41,18,7,18H6V17c0-3.41,1.24-4.65,3.29-6.71L16,3.62A3.12,3.12,0,1,1,20.38,8ZM16.59,9,15,7.41l-4.29,4.29C9,13.38,8.25,14.17,8.05,15.95c1.78-.2,2.57-1,4.24-2.66ZM19,5a1.12,1.12,0,0,0-1.58,0l-1,1L18,7.59l1-1A1.12,1.12,0,0,0,19,5Z" style="fill: #323d47"/>
    </g>
    <g id="cross">
      <rect id="space-78" data-name="space" width="24" height="24" style="fill: none"/>
      <polygon points="13 4 11 4 11 11 4 11 4 13 11 13 11 20 13 20 13 13 20 13 20 11 13 11 13 4" style="fill: #323d47"/>
    </g>
    <g id="grip">
      <rect id="space-79" data-name="space" width="24" height="24" style="fill: none"/>
      <path d="M22,15H2V13H22Zm0-7H2v2H22Z" style="fill: #323d47"/>
    </g>
    <g id="check">
      <rect id="space-80" data-name="space" width="24" height="24" style="fill: none"/>
      <polygon points="9 19.41 3.29 13.71 4.71 12.29 9 16.59 20.29 5.29 21.71 6.71 9 19.41" style="fill: #323d47"/>
    </g>
    <g id="heavy-check">
      <rect id="space-81" data-name="space" width="24" height="24" style="fill: none"/>
      <polygon points="9 19.12 3.44 13.56 5.56 11.44 9 14.88 17.44 6.44 19.56 8.56 9 19.12" style="fill: #323d47"/>
    </g>
    <g id="back">
      <rect id="space-82" data-name="space" width="24" height="24" style="fill: none"/>
      <polygon points="20 11 8.41 11 13.71 5.71 12.29 4.29 4.59 12 12.29 19.71 13.71 18.29 8.41 13 20 13 20 11" style="fill: #323d47"/>
    </g>
    <g id="retry">
      <rect id="space-83" data-name="space" width="24" height="24" style="fill: none"/>
      <path d="M12,22.5a9.5,9.5,0,0,1,0-19V.67L19.5,5,12,9.33V6.5A6.5,6.5,0,1,0,18.5,13h3A9.51,9.51,0,0,1,12,22.5Z" style="fill: #323d47"/>
    </g>
    <g id="unavailable">
      <rect id="space-84" data-name="space" width="24" height="24" style="fill: none"/>
      <path d="M12,21.5A9.5,9.5,0,1,1,18.72,5.28h0A9.5,9.5,0,0,1,12,21.5Zm-3.41-4a6.5,6.5,0,0,0,8.95-8.95ZM12,5.5a6.5,6.5,0,0,0-5.53,9.91l8.95-8.95A6.5,6.5,0,0,0,12,5.5Z" style="fill: #323d47"/>
    </g>
    <g id="downloads">
      <rect id="space-85" data-name="space" width="24" height="24" style="fill: none"/>
      <path d="M19,21H4V18H19Zm-7.5-3.38L3.44,9.56,5.56,7.44,10,11.88V2h3v9.88l4.44-4.44,2.12,2.12Z" style="fill: #323d47"/>
    </g>
    <g id="ask-2" data-name="ask">
      <rect id="space-86" data-name="space" width="24" height="24" style="fill: none"/>
      <path d="M22,12A10,10,0,1,1,12,2,10,10,0,0,1,22,12Zm-9.43,1.86V13.4a1.28,1.28,0,0,1,.2-.74,4.45,4.45,0,0,1,.93-.83,5.48,5.48,0,0,0,1.46-1.38A2.7,2.7,0,0,0,15.54,9a2.48,2.48,0,0,0-.93-2,3.86,3.86,0,0,0-2.51-.76,7.32,7.32,0,0,0-3.63,1L9.3,8.85a5.9,5.9,0,0,1,2.63-.75,1.75,1.75,0,0,1,1,.26.87.87,0,0,1,.37.76,1.36,1.36,0,0,1-.26.81,4.77,4.77,0,0,1-1.06.93A4.14,4.14,0,0,0,10.85,12a2.51,2.51,0,0,0-.32,1.28v.57Zm-1.93,3.59a1.38,1.38,0,0,0,1,.34,1.33,1.33,0,0,0,1-.35,1.49,1.49,0,0,0,0-1.92,1.36,1.36,0,0,0-1-.34,1.4,1.4,0,0,0-1,.33,1.28,1.28,0,0,0-.35,1A1.28,1.28,0,0,0,10.64,17.45Z" style="fill: #323d47"/>
    </g>
    <g id="alert">
      <rect id="space-87" data-name="space" width="24" height="24" style="fill: none"/>
      <path d="M13.73,3.22,22.27,18a2,2,0,0,1-1.73,3H3.46a2,2,0,0,1-1.73-3L10.27,3.22A2,2,0,0,1,13.73,3.22ZM12,15h0a1.06,1.06,0,0,0,1.06-1l.35-6A1.41,1.41,0,0,0,12,6.5h0A1.41,1.41,0,0,0,10.59,8l.35,6A1.06,1.06,0,0,0,12,15Zm1.5,3h0A1.5,1.5,0,0,1,12,19.5h0A1.5,1.5,0,0,1,10.5,18h0A1.5,1.5,0,0,1,12,16.5h0A1.5,1.5,0,0,1,13.5,18Z" style="fill: #323d47;fill-rule: evenodd"/>
    </g>
    <g id="exclamation-mark">
      <rect id="space-88" data-name="space" width="24" height="24" style="fill: none"/>
      <path d="M12,16h0a2.14,2.14,0,0,1-2.13-2L9.2,4A2.81,2.81,0,0,1,12,1h0a2.81,2.81,0,0,1,2.8,3l-.67,10A2.14,2.14,0,0,1,12,16Zm0,1.5h0A2.5,2.5,0,0,0,9.5,20h0A2.5,2.5,0,0,0,12,22.5h0A2.5,2.5,0,0,0,14.5,20h0A2.5,2.5,0,0,0,12,17.5Z" style="fill: #323d47;fill-rule: evenodd"/>
    </g>
  </g>
</svg>
