<?xml version="1.0" encoding="utf-8"?>
<!-- Generator: Adobe Illustrator 19.0.0, SVG Export Plug-In . SVG Version: 6.00 Build 0)  -->
<svg version="1.1" id="icn16" xmlns="http://www.w3.org/2000/svg" xmlns:xlink="http://www.w3.org/1999/xlink" x="0px" y="0px"
	 viewBox="0 0 16 16" enable-background="new 0 0 16 16" xml:space="preserve">
<g id="replied">
	<rect id="space_223_" fill="none" width="16" height="16"/>
	<rect id="space_206_" y="0" fill="none" width="16" height="16"/>
	<path id="XMLID_2_" d="M11.9,12.4C10.5,9.3,8.4,8,5,8h0l1.8,1.8c0.4,0.4,0.4,1,0,1.4s-1,0.4-1.4,0L1.8,7.7c-0.4-0.4-0.4-1,0-1.4
		l3.5-3.5c0.4-0.4,1-0.4,1.4,0s0.4,1,0,1.4L4.9,6h0c4.3,0,7,1.8,8.8,5.5c0.2,0.5,0,1.1-0.5,1.3C12.7,13.1,12.1,12.9,11.9,12.4z"/>
</g>
<g id="forwarded">
	<rect id="space_207_" fill="none" width="16" height="16"/>
	<g id="XMLID_3_">
		<path id="XMLID_4_" d="M8,13.5c-0.6,0-1-0.4-1-1V5.9L5.2,7.7c-0.4,0.4-1,0.4-1.4,0s-0.4-1,0-1.4l3.5-3.5c0.4-0.4,1-0.4,1.4,0
			l3.5,3.5c0.4,0.4,0.4,1,0,1.4s-1,0.4-1.4,0L9,5.9v6.6C9,13.1,8.6,13.5,8,13.5z"/>
	</g>
</g>
<g id="retract">
	<rect id="space_658_" fill="none" width="16" height="16"/>
	<path id="XMLID_5_" d="M10,5.4V4.5C10,4.2,9.8,4,9.5,4h-1C8.6,2.5,9.2,2,11,2c0.3,0,0.5-0.2,0.5-0.5S11.3,1,11,1
		C8.7,1,7.7,1.9,7.5,4h-1C6.2,4,6,4.2,6,4.5v0.9C4.2,6.2,3,8,3,10c0,2.8,2.2,5,5,5s5-2.2,5-5C13,8,11.8,6.2,10,5.4z M8,13.5
		c-1.9,0-3.5-1.6-3.5-3.5c0-1.9,1.6-3.5,3.5-3.5s3.5,1.6,3.5,3.5C11.5,11.9,9.9,13.5,8,13.5z M9.8,11.1c0.2,0.2,0.2,0.5,0,0.7
		c-0.1,0.1-0.2,0.1-0.4,0.1s-0.3,0-0.4-0.1l-1.6-1.6V8c0-0.3,0.2-0.5,0.5-0.5S8.5,7.7,8.5,8v1.8L9.8,11.1z"/>
</g>
<g id="bin">
	<rect id="space_151_" fill="none" width="16" height="16"/>
	<path id="XMLID_9_" d="M10,2H6V1h4V2z M3,3h10v1h-1v8c0,1.1-0.9,2-2,2H6c-1.1,0-2-0.9-2-2V4H3V3z M7,5.7H6V12h1V5.7z M10,5.7H9V12
		h1V5.7z"/>
</g>
<g id="printer">
	<rect id="space_554_" fill="none" width="16" height="16"/>
	<path id="XMLID_14_" d="M11,5H5V3h6V5z M14,7c0,0.6-0.4,1-1,1s-1-0.4-1-1s0.4-1,1-1S14,6.4,14,7z M11,13H5V9h6V13z M15,7
		c0-1.1-0.9-2-2-2h-1V2H4v3H3C1.9,5,1,5.9,1,7v5h3v2h8v-2h3V7z"/>
</g>
<g id="message">
	<rect id="space_514_" fill="none" width="16" height="16"/>
	<path id="XMLID_18_" fill-rule="evenodd" clip-rule="evenodd" d="M13.5,3h-11C1.7,3,1,3.7,1,4.5v8C1,13.3,1.7,14,2.5,14h11
		c0.8,0,1.5-0.7,1.5-1.5v-8C15,3.7,14.3,3,13.5,3z M2.5,7.8L8,10.3l5.5-2.6V6.1L8,8.7L2.5,6.1V7.8z"/>
</g>
<g id="more">
	<rect id="space_15_" fill="none" width="16" height="16"/>
	<path id="XMLID_21_" d="M9.5,8c0,0.8-0.7,1.5-1.5,1.5S6.5,8.8,6.5,8S7.2,6.5,8,6.5S9.5,7.2,9.5,8z M8,11.5c-0.8,0-1.5,0.7-1.5,1.5
		s0.7,1.5,1.5,1.5s1.5-0.7,1.5-1.5S8.8,11.5,8,11.5z M8,1.5C7.2,1.5,6.5,2.2,6.5,3S7.2,4.5,8,4.5S9.5,3.8,9.5,3S8.8,1.5,8,1.5z"/>
</g>
<g id="alert">
	<rect id="space_642_" fill="none" width="16" height="16"/>
	<path id="XMLID_22_" fill-rule="evenodd" clip-rule="evenodd" d="M9.3,2.4l5.4,9.4c0.6,1-0.1,2.2-1.3,2.2H2.6
		c-1.2,0-1.9-1.2-1.3-2.2l5.4-9.4C7.3,1.4,8.7,1.4,9.3,2.4z M9,5H7v5h2V5z M9,13H7v-2h2V13z"/>
</g>
<g id="exit">
	<g id="space_320_">
		<rect fill="none" width="16" height="16"/>
	</g>
	<path id="XMLID_23_" d="M8,14H4c-1.1,0-2-0.9-2-2V4c0-1.1,0.9-2,2-2h4v2H4v8h4V14z M10.7,12.7l-1.4-1.4L11.6,9H6V7h5.6L9.3,4.7
		l1.4-1.4l4,4c0.4,0.4,0.4,1,0,1.4L10.7,12.7z"/>
</g>
<g id="enter">
	<g id="space_312_">
		<rect fill="none" width="16" height="16"/>
	</g>
	<path id="XMLID_26_" d="M12,14H8v-2h4V4H8V2h4c1.1,0,2,0.9,2,2v8C14,13.1,13.1,14,12,14z M5.7,12.7l-1.4-1.4L6.6,9H2V7h4.6L4.3,4.7
		l1.4-1.4l4,4c0.4,0.4,0.4,1,0,1.4L5.7,12.7z"/>
</g>
<g id="eye-open">
	<rect id="space_666_" fill="none" width="16" height="16"/>
	<path id="XMLID_29_" d="M6.5,6.5c-0.6,0-1,0.4-1,1s0.4,1,1,1s1-0.4,1-1S7.1,6.5,6.5,6.5z M8,5c1.2,0,2.5,0.4,3.6,1.3
		C11.8,6.8,12,7.4,12,8s-0.2,1.2-0.4,1.7C10.5,10.6,9.2,11,8,11s-2.5-0.4-3.6-1.3C4.2,9.2,4,8.6,4,8c0-0.6,0.2-1.2,0.4-1.7
		C5.5,5.4,6.8,5,8,5z M8,4c2.1,0,4.9,1.1,5.9,4c-1.1,2.9-3.8,4-5.9,4s-4.9-1.1-5.9-4C3.1,5.1,5.9,4,8,4 M8,3C5,3,2,4.7,1,8
		c1,3.3,4,5,7,5s6-1.7,7-5C14,4.7,11,3,8,3L8,3z"/>
</g>
<g id="add-to-place">
	<rect id="space_730_" fill="none" width="16" height="16"/>
	<path id="XMLID_33_" d="M12,14H8v-2h4V4H8V2h4c1.1,0,2,0.9,2,2v8C14,13.1,13.1,14,12,14z M7,12H5V9H2V7h3V4h2v3h3v2H7V12z"/>
</g>
<g id="remove-from-place">
	<rect id="space_738_" fill="none" width="16" height="16"/>
	<path id="XMLID_36_" d="M8,14H4c-1.1,0-2-0.9-2-2V4c0-1.1,0.9-2,2-2h4v2H4v8h4V14z M14,9H6V7h8V9z"/>
</g>
<g id="ignor-place">
	<rect fill="none" width="16" height="16"/>
	<path id="XMLID_39_" d="M12,14H9v-2h3V4H9V2h3c1.1,0,2,0.9,2,2v8C14,13.1,13.1,14,12,14z M8.1,11.5L6,9.4l-2.1,2.1l-1.4-1.4L4.6,8
		L2.5,5.9l1.4-1.4L6,6.6l2.1-2.1l1.4,1.4L7.4,8l2.1,2.1L8.1,11.5z"/>
</g>
<g id="messages">
	<rect id="space_426_" fill="none" width="16" height="16"/>
	<path id="XMLID_42_" d="M10.7,5H1.3C0.6,5,0,5.6,0,6.3v6.3C0,13.4,0.6,14,1.3,14h9.3c0.7,0,1.3-0.6,1.3-1.3V6.3
		C12,5.6,11.4,5,10.7,5L10.7,5z M10.5,7.7v1.5L6,11.2L1.5,9.1V7.7L6,9.8L10.5,7.7z M16,3.3v6.3c0,0.7-0.6,1.3-1.3,1.3H13V8l1.5-0.7
		V5.8L13,6.5V6.3C13,5,12,4,10.7,4H4V3.3C4,2.6,4.6,2,5.3,2h9.3C15.4,2,16,2.6,16,3.3z"/>
</g>
<g id="bookmarked-message">
	<path id="XMLID_46_" d="M14,5.3v6.3c0,0.7-0.6,1.3-1.3,1.3H3.3C2.6,13,2,12.4,2,11.7V5.3C2,4.6,2.6,4,3.3,4H8v7l2-2l2,2V4h0.7
		C13.4,4,14,4.6,14,5.3z"/>
	<rect id="space_17_" fill="none" width="16" height="16"/>
</g>
<g id="sent-message">
	<rect id="space_336_" fill="none" width="16" height="16"/>
	<path id="XMLID_47_" fill-rule="evenodd" clip-rule="evenodd" d="M1,5V4h13.5C15.3,4,16,4.7,16,5.5v6c0,0.8-0.7,1.5-1.5,1.5h-9
		C4.7,13,4,12.3,4,11.5V9H2V8h2V7H0V6h4V5H1z M14.5,6.5L10,8.4L5.5,6.5v1.6l4.5,1.9l4.5-1.9V6.5z"/>
</g>
<g id="sort">
	<rect id="space_63_" fill="none" width="16" height="16"/>
	<path id="XMLID_50_" d="M11,9H1V7h10V9z M15,3H1v2h14V3z M7,11H1v2h6V11z"/>
</g>
<g id="expand">
	<rect id="space_818_" fill="none" width="16" height="16"/>
	<path id="XMLID_51_" d="M14,2.8V7h-1.5V4.6L10.1,7L9,5.9l2.4-2.4H9V2h4.2C13.7,2,14,2.3,14,2.8z M2,13.2V9h1.5v2.4L5.9,9L7,10.1
		l-2.4,2.4H7V14H2.8C2.3,14,2,13.7,2,13.2z"/>
</g>
<g id="collapse">
	<rect id="space_810_" fill="none" width="16" height="16"/>
	<path id="XMLID_53_" d="M9,6.2V2h1.5v2.4L12.9,2L14,3.1l-2.4,2.4H14V7H9.8C9.3,7,9,6.7,9,6.2z M7,9.8V14H5.5v-2.4L3.1,14L2,12.9
		l2.4-2.4H2V9h4.2C6.7,9,7,9.3,7,9.8z"/>
</g>
<g id="comment">
	<rect id="space_4_" fill="none" width="16" height="16"/>
	<path id="XMLID_54_" fill-rule="evenodd" clip-rule="evenodd" d="M16,9L16,9c0,2.2-1.8,4-4,4H4c-2.2,0-4-1.8-4-4V1l4,4h8
		C14.2,5,16,6.8,16,9z M12,10.2c0.7,0,1.2-0.6,1.2-1.2S12.7,7.8,12,7.8S10.8,8.3,10.8,9S11.3,10.2,12,10.2z M8,10.2
		c0.7,0,1.2-0.6,1.2-1.2S8.7,7.8,8,7.8S6.8,8.3,6.8,9S7.3,10.2,8,10.2z M4,10.2c0.7,0,1.2-0.6,1.2-1.2S4.7,7.8,4,7.8S2.8,8.3,2.8,9
		S3.3,10.2,4,10.2z"/>
</g>
<g id="arrow">
	<g id="space_47_">
		<rect fill="none" width="16" height="16"/>
	</g>
	<g id="path_2_">
		<polygon id="XMLID_57_" points="8,11.4 3.3,6.7 4.7,5.3 8,8.6 11.3,5.3 12.7,6.7 		"/>
	</g>
</g>
<g id="gear">
	<rect id="space_231_" fill="none" width="16" height="16"/>
	<path id="XMLID_359_" d="M11.1,8c0,1.7-1.4,3.1-3.1,3.1S4.9,9.7,4.9,8S6.3,4.9,8,4.9S11.1,6.3,11.1,8z M13.2,10.2
		C13.2,10.2,13.2,10.1,13.2,10.2c0.2-0.4,0.5-0.7,0.8-0.8l0.6-0.2C15.1,9,15.5,8.6,15.5,8c0,0,0,0,0,0c0-0.5-0.4-1-0.9-1.2L14,6.6
		c-0.4-0.1-0.6-0.4-0.8-0.7c0,0,0,0,0-0.1c-0.1-0.4-0.1-0.7,0-1.1l0.3-0.6c0.3-0.5,0.2-1.1-0.2-1.4c0,0,0,0,0,0
		c-0.4-0.4-1-0.5-1.4-0.2l-0.6,0.3c-0.3,0.2-0.7,0.2-1.1,0c0,0,0,0-0.1,0C9.8,2.7,9.5,2.4,9.4,2L9.2,1.4C9,0.9,8.6,0.5,8,0.5
		c0,0,0,0,0,0c-0.5,0-1,0.4-1.2,0.9L6.6,2C6.5,2.4,6.2,2.7,5.9,2.8c0,0,0,0-0.1,0C5.5,3,5.1,3,4.7,2.8L4.2,2.5
		C3.7,2.2,3.1,2.3,2.7,2.7c0,0,0,0,0,0c-0.4,0.4-0.5,1-0.2,1.4l0.3,0.6C3,5.1,3,5.5,2.8,5.8c0,0,0,0,0,0.1C2.7,6.2,2.4,6.5,2,6.6
		L1.4,6.8C0.9,7,0.5,7.4,0.5,8c0,0,0,0,0,0c0,0.5,0.4,1,0.9,1.2L2,9.4c0.4,0.1,0.6,0.4,0.8,0.7c0,0,0,0,0,0.1c0.1,0.4,0.1,0.7,0,1.1
		l-0.3,0.6c-0.3,0.5-0.2,1.1,0.2,1.4c0,0,0,0,0,0c0.4,0.4,1,0.5,1.4,0.2l0.6-0.3c0.3-0.2,0.7-0.2,1.1,0c0,0,0,0,0.1,0
		c0.4,0.1,0.6,0.4,0.7,0.8l0.2,0.6C7,15.1,7.4,15.5,8,15.5c0,0,0,0,0,0c0.5,0,1-0.4,1.2-0.9L9.4,14c0.1-0.4,0.4-0.6,0.7-0.8
		c0,0,0,0,0.1,0c0.4-0.1,0.7-0.1,1.1,0l0.6,0.3c0.5,0.3,1.1,0.2,1.4-0.2c0,0,0,0,0,0c0.4-0.4,0.5-1,0.2-1.4l-0.3-0.6
		C13,10.9,13,10.5,13.2,10.2z"/>
</g>
<g id="brick-wall">
	<rect id="space_167_" fill="none" width="16" height="16"/>
	<path id="XMLID_731_" d="M1,4v8c0,1.1,0.9,2,2,2h10c1.1,0,2-0.9,2-2V4c0-1.1-0.9-2-2-2H3C1.9,2,1,2.9,1,4z M3,4h5v2H3V4z M10,9H6V7
		h4V9z M3,7h2v2H3V7z M3,12v-2h4v2H3z M13,12H8v-2h5V12z M13,9h-2V7h2V9z M13,6H9V4h4V6z"/>
</g>
<g id="window">
	<rect id="space_175_" fill="none" width="16" height="16"/>
	<linearGradient id="SVGID_1_" gradientUnits="userSpaceOnUse" x1="8" y1="12" x2="8" y2="4">
		<stop  offset="0" style="stop-color:#FFFFFF"/>
		<stop  offset="1" style="stop-color:#000000"/>
	</linearGradient>
	<rect x="3" y="4" opacity="0.2" fill="url(#SVGID_1_)" width="10" height="8"/>
	<path id="XMLID_56_" d="M1,4v8c0,1.1,0.9,2,2,2h10c1.1,0,2-0.9,2-2V4c0-1.1-0.9-2-2-2H3C1.9,2,1,2.9,1,4z M3,4h10v8H3V4z M8.1,9.1
		L7.9,8.9l4-4l0.2,0.2L8.1,9.1z M8.1,11.1l-0.2-0.2l4-4l0.2,0.2L8.1,11.1z"/>
</g>
<g id="places">
	<rect id="space_401_" fill="none" width="16" height="16"/>
	<path id="XMLID_60_" d="M13,14H3c-1.1,0-2-0.9-2-2V4c0-1.1,0.9-2,2-2h10c1.1,0,2,0.9,2,2v8C15,13.1,14.1,14,13,14z M3.5,10
		c1.2,0,2.2,0.6,3.1,1.4C6.9,11.8,7.4,12,8,12h0c0.6,0,1.1-0.2,1.4-0.6c0.8-0.8,1.9-1.4,3.1-1.4H13V4H3v6H3.5z"/>
</g>
<g id="earth">
	<rect id="space_19_" fill="none" width="16" height="16"/>
	<path id="XMLID_62_" d="M8,1.5C4.4,1.5,1.5,4.4,1.5,8s2.9,6.5,6.5,6.5s6.5-2.9,6.5-6.5S11.6,1.5,8,1.5z M3.5,8
		c0-0.7,0.2-1.3,0.4-1.9c0.2,0.1,0.5,0.2,0.6,0.5c0.1,0.1,0.1,0.3,0.2,0.4C4.9,7,5,7.1,5.2,7.1c0,0,0-0.1,0-0.1c0,0,0.1,0,0.1,0.1
		C5.5,7.4,5,7.8,5,8.3c0,0.3,0.3,0.6,0.4,0.9c0,0.1,0.1,0.3,0.1,0.4C5.6,9.8,5.9,9.9,6,10.1c0.3,0.3,0.3,0.7,0.3,1.2
		c0,0.3,0.1,0.7,0.2,1C4.8,11.6,3.5,10,3.5,8z M8,12.5c-0.2,0-0.4,0-0.7-0.1c0.2-0.1,0.5-0.2,0.6-0.4c0.2,0,0.4-0.3,0.5-0.5
		c0.1-0.2,0.2-0.5,0.4-0.6c0.3-0.3,0.8-0.3,0.9-0.7c0-0.1,0-0.3,0-0.4c0-0.2,0.2-0.4,0.4-0.5c0.1,0,0.1,0,0.2-0.1c0-0.1,0-0.1,0-0.2
		c0-0.2-0.1-0.3-0.1-0.5C10,8.5,9.6,8.4,9.3,8.3C9,8.2,8.7,8.1,8.4,7.9c0-0.3-0.3-0.6-0.6-0.7c-0.1,0-0.1,0-0.2,0
		c-0.1,0-0.1-0.1-0.1-0.2C7.4,7.1,7.2,7,7.2,6.9c0,0,0-0.1-0.1-0.1c0,0-0.1,0-0.1,0c-0.3,0-0.6,0-0.9-0.1c-0.3,0-0.7,0-0.8,0.3
		C5.3,6.9,5.2,6.9,5.1,6.8C5.1,6.8,5,6.9,4.9,6.9c-0.1-0.2-0.1-0.4,0-0.7C4.8,6.1,4.7,6.1,4.6,6.1c0-0.1,0.1-0.2,0.1-0.3
		c0.1-0.1,0.1-0.2,0.1-0.3c0-0.1-0.2-0.1-0.2,0c0,0,0,0.1,0,0.1c0,0.1-0.2,0.1-0.3,0.1C4.4,5.3,4.7,5,5,4.7c0,0,0.1,0,0.1,0
		c0.1,0,0.3,0.1,0.3,0.2c0,0,0,0,0,0c0,0.1,0.1,0.1,0.1,0.2c0.1-0.2,0.2-0.5,0.2-0.8c0.1,0,0.1-0.1,0.2-0.1C6,4.1,6.2,4,6.3,3.8
		C6.8,3.6,7.4,3.5,8,3.5c0.7,0,1.4,0.2,2,0.5c0,0,0,0.1,0,0.1c0,0.2-0.2,0.3-0.3,0.5c0,0.1,0.2,0.3,0.2,0.4c0,0.1,0,0.2,0,0.2
		c0,0.1,0.2,0.1,0.3,0.2c-0.2,0.3-0.1,0.6,0.2,0.9c0.2,0.2,0.4,0.3,0.5,0.5c0,0.1,0,0.1,0,0.2c0.1,0.1,0.2,0.2,0.3,0.3
		c0.3-0.1,0.2-0.1,0.5,0C11.8,7.2,12,7,12.2,7c0.1,0,0.1,0,0.2,0.1c0.1,0.3,0.1,0.6,0.1,0.9C12.5,10.5,10.5,12.5,8,12.5z"/>
</g>
<g id="cross">
	<rect id="space_39_" fill="none" width="16" height="16"/>
	<polygon id="XMLID_66_" points="9,2 7,2 7,7 2,7 2,9 7,9 7,14 9,14 9,9 14,9 14,7 9,7 	"/>
</g>
<g id="crown">
	<rect id="space_247_" fill="none" width="16" height="16"/>
	<g id="XMLID_69_">
		<path id="XMLID_68_" d="M13,5.8c-0.9,0-1.7,0.7-1.7,1.7c0,0.5,0.2,1,0.6,1.3l-0.7,0.6C10.6,9.9,9.6,9.7,9.2,9L8.5,7.7
			c0.7-0.2,1.2-0.8,1.2-1.6c0-0.9-0.7-1.7-1.7-1.7S6.3,5.2,6.3,6.1c0,0.7,0.5,1.4,1.2,1.6L6.8,9C6.4,9.7,5.4,9.9,4.7,9.3L4.1,8.7
			C4.4,8.4,4.7,8,4.7,7.5c0-0.9-0.7-1.7-1.7-1.7S1.3,6.5,1.3,7.5S2.1,9.1,3,9.1c0.1,0,0.1,0,0.2,0l0.3,2.7C3.6,12.5,4.2,13,4.8,13
			h6.3c0.7,0,1.2-0.5,1.3-1.2l0.3-2.7c0.1,0,0.1,0,0.2,0c0.9,0,1.7-0.7,1.7-1.7S13.9,5.8,13,5.8z"/>
	</g>
</g>
<g id="manager">
	<rect id="space_95_" fill="none" width="16" height="16"/>
	<path id="XMLID_70_" d="M12,13v2h-1v-2c0-0.5-0.5-1-1-1v3H6v-3c-0.5,0-1,0.5-1,1v2H4v-2c0-1.1,0.9-2,2-2h4C11.1,11,12,11.9,12,13z
		 M11.8,2.6c-0.7,0-1.2,0.6-1.2,1.2c0,0.4,0.2,0.7,0.5,0.9l-0.5,0.5C10,5.7,9.2,5.6,8.9,5L8.4,4c0.5-0.2,0.9-0.6,0.9-1.2
		c0-0.7-0.6-1.2-1.2-1.2S6.8,2.2,6.8,2.8c0,0.6,0.4,1,0.9,1.2L7.1,5C6.8,5.6,6,5.7,5.6,5.3L5,4.8c0.3-0.2,0.5-0.6,0.5-0.9
		c0-0.7-0.6-1.2-1.2-1.2S3,3.2,3,3.8s0.6,1.2,1.2,1.2c0.1,0,0.1,0,0.2,0l0.2,1.1C4.7,6.6,5.1,7,5.6,7h4.8c0.5,0,0.9-0.4,1-0.8
		l0.2-1.1c0.1,0,0.1,0,0.2,0c0.7,0,1.2-0.6,1.2-1.2S12.4,2.6,11.8,2.6z M8,10.5c1.4,0,2.5-1.1,2.5-2.5h-5C5.5,9.4,6.6,10.5,8,10.5z"
		/>
</g>
<g id="manager-member">
	<rect id="space_103_" fill="none" width="16" height="16"/>
	<path id="XMLID_74_" d="M15,13v2h-1v-2c0-0.5-0.5-1-1-1v3H9v-3H7v3H3v-3c-0.5,0-1,0.5-1,1v2H1v-2c0-1.1,0.9-2,2-2h10
		C14.1,11,15,11.9,15,13z M1.4,5.1l0.2,1.1C1.7,6.6,2.1,7,2.6,7h4.8c0.5,0,0.9-0.4,1-0.8l0.2-1.1c0.1,0,0.1,0,0.2,0
		c0.7,0,1.2-0.6,1.2-1.2S9.4,2.6,8.8,2.6S7.5,3.2,7.5,3.8c0,0.4,0.2,0.7,0.5,0.9L7.4,5.3C7,5.7,6.2,5.6,5.9,5L5.4,4
		c0.5-0.2,0.9-0.6,0.9-1.2c0-0.7-0.6-1.2-1.2-1.2S3.8,2.2,3.8,2.8c0,0.6,0.4,1,0.9,1.2L4.1,5C3.8,5.6,3,5.7,2.6,5.3L2,4.8
		c0.3-0.2,0.5-0.6,0.5-0.9c0-0.7-0.6-1.2-1.2-1.2S0,3.2,0,3.8s0.6,1.2,1.2,1.2C1.3,5.1,1.4,5.1,1.4,5.1z M5,10.5
		c1.4,0,2.5-1.1,2.5-2.5h-5C2.5,9.4,3.6,10.5,5,10.5z M8.5,8c0,1.4,1.1,2.5,2.5,2.5c1.4,0,2.5-1.1,2.5-2.5c0-1.4-1.1-2.5-2.5-2.5
		C9.6,5.5,8.5,6.6,8.5,8z"/>
</g>
<g id="member">
	<rect id="space_87_" fill="none" width="16" height="16"/>
	<path id="XMLID_79_" d="M6,15v-3c-0.5,0-1,0.5-1,1v2H4v-2c0-1.1,0.9-2,2-2h4c1.1,0,2,0.9,2,2v2h-1v-2c0-0.5-0.5-1-1-1v3H6z M8,5.5
		C6.6,5.5,5.5,6.6,5.5,8s1.1,2.5,2.5,2.5s2.5-1.1,2.5-2.5S9.4,5.5,8,5.5z"/>
</g>
<g id="team">
	<rect id="space_111_" fill="none" width="16" height="16"/>
	<path id="XMLID_81_" d="M16,13v2h-1v-2c0-0.5-0.5-1-1-1v3h-3v-3h-1v3H6v-3H5v3H2v-3c-0.5,0-1,0.5-1,1v2H0v-2c0-1.1,0.9-2,2-2h12
		C15.1,11,16,11.9,16,13z M13,10.2c1.2,0,2.2-1,2.2-2.2c0-1.2-1-2.2-2.2-2.2c-1.2,0-2.2,1-2.2,2.2C10.8,9.2,11.8,10.2,13,10.2z
		 M8,10.2c1.2,0,2.2-1,2.2-2.2c0-1.2-1-2.2-2.2-2.2c-1.2,0-2.2,1-2.2,2.2C5.8,9.2,6.8,10.2,8,10.2z M3,10.2c1.2,0,2.2-1,2.2-2.2
		c0-1.2-1-2.2-2.2-2.2c-1.2,0-2.2,1-2.2,2.2C0.8,9.2,1.8,10.2,3,10.2z"/>
</g>
<g id="search">
	<rect id="space_22_" fill="none" width="16" height="16"/>
	<path id="XMLID_86_" d="M14,12.9l-3.3-3.3C11.2,8.9,11.5,8,11.5,7c0-2.5-2-4.5-4.5-4.5c-2.5,0-4.5,2-4.5,4.5c0,2.5,2,4.5,4.5,4.5
		c1,0,1.9-0.3,2.6-0.8l3.3,3.3c0.3,0.3,0.8,0.3,1.1,0C14.3,13.7,14.3,13.2,14,12.9z M4,7c0-1.7,1.3-3,3-3s3,1.3,3,3s-1.3,3-3,3
		S4,8.7,4,7z"/>
</g>
<g id="person">
	<rect id="space_255_" fill="none" width="16" height="16"/>
	<path id="XMLID_89_" d="M12,12v2H4v-2c0-0.9,0.4-1.7,1-2.2C5.8,10.5,6.8,11,8,11s2.2-0.5,3-1.2C11.6,10.3,12,11.1,12,12z M10.6,5
		L10.3,7C10.1,8.2,9.1,9,8,9h0C6.9,9,5.9,8.2,5.7,7L5.4,5C5.2,3.4,6.4,2,8,2h0C9.6,2,10.8,3.4,10.6,5z M10.6,5L10.3,7
		C10.1,8.2,9.1,9,8,9h0C6.9,9,5.9,8.2,5.7,7L5.4,5C5.2,3.4,6.4,2,8,2h0C9.6,2,10.8,3.4,10.6,5z"/>
</g>
<g id="small-face-wire">
	<path id="XMLID_90_" opacity="0.16" d="M8,15.2c-6.9,0-7.8-4.1-7.8-7.2S1.1,0.8,8,0.8s7.8,4.1,7.8,7.2S14.9,15.2,8,15.2z"/>
	<rect id="space_779_" fill="none" width="16" height="16"/>
	<path id="XMLID_91_" d="M7,6.5C7,7.3,6.3,8,5.5,8S4,7.3,4,6.5S4.7,5,5.5,5S7,5.7,7,6.5z M10.5,5C9.7,5,9,5.7,9,6.5S9.7,8,10.5,8
		S12,7.3,12,6.5S11.3,5,10.5,5z M8,15.2c-6.9,0-7.8-4.1-7.8-7.2S1.1,0.8,8,0.8s7.8,4.1,7.8,7.2S14.9,15.2,8,15.2z M8,2.2
		C2.8,2.2,1.8,4.5,1.8,8s1.1,5.8,6.2,5.8s6.2-2.3,6.2-5.8S13.2,2.2,8,2.2z M8,12.2c-2.2,0-4.2-0.3-4.7-2.6C3.3,9.2,3.5,8.9,4,8.8
		C4.4,8.7,4.8,9,4.8,9.4C4.9,10,5.1,10.8,8,10.8c2.2,0,3-0.3,3.2-1.4C11.2,9,11.6,8.7,12,8.8c0.4,0.1,0.7,0.5,0.6,0.9
		C12.2,12.2,9.5,12.2,8,12.2z"/>
</g>
<g id="atsign">
	<rect id="space_422_" fill="none" width="16" height="16"/>
	<g id="XMLID_95_">
		<path id="XMLID_96_" d="M8.2,15c-0.3,0-0.5,0-0.8,0C3.2,14.6,0.7,11.6,1,7.4c0.4-4,3.6-6.7,7.6-6.4c3.8,0.3,5.3,2.3,5.8,3.5
			c0.8,1.7,0.6,3.9-0.4,5.4c-0.8,1.1-1.9,1.7-3.1,1.6c-0.6-0.1-1.1-0.4-1.4-0.8c-0.1-0.1-0.1-0.2-0.2-0.3c-0.8,0.6-1.8,1-3.1,0.8
			C5.2,11,4.4,10.3,4,9.2c-0.4-1.3,0-2.9,1.1-3.8C5.9,4.6,7.7,3.6,11,4.8c0.4,0.1,0.6,0.5,0.5,0.9C11.3,6.3,11.1,7,11,7.5
			c0,0,0,0,0,0.1c0,0.1,0,0.1,0,0.2c-0.1,0.7-0.2,1.2-0.2,1.2c-0.1,0.6,0,0.9,0,1c0,0,0.1,0.1,0.3,0.2c0.9,0.1,1.4-0.6,1.7-1
			c0.6-0.9,1-2.5,0.3-3.9c-0.5-1.1-1.7-2.4-4.6-2.6c-3.2-0.3-5.7,1.8-6,5c-0.3,3.4,1.6,5.7,5,6c1.2,0.1,2.3-0.1,3.2-0.5
			c0.4-0.2,0.8,0,1,0.3c0.2,0.4,0,0.8-0.3,1C10.5,14.8,9.4,15,8.2,15z M8.3,5.7C7.4,5.7,6.7,6,6.2,6.5C5.4,7.2,5.3,8.1,5.5,8.8
			c0.1,0.4,0.4,0.8,1,1c2.1,0.4,2.8-1.6,3-2.3C9.6,7,9.7,6.5,9.8,6C9.3,5.8,8.7,5.7,8.3,5.7z"/>
	</g>
</g>
<g id="downloads">
	<rect id="space_821_" fill="none" width="16" height="16"/>
	<g id="XMLID_99_">
		<path id="XMLID_100_" d="M13,14H3v-2h10V14z M8,11.4L3.3,6.7l1.4-1.4L7,7.6V1h2v6.6l2.3-2.3l1.4,1.4L8,11.4z"/>
	</g>
</g>
<g id="bookmark-wire">
	<rect id="space_639_" fill="none" width="16" height="16"/>
	<polygon id="XMLID_103_" points="13,0 13,0 13,16 8,11 3,16 3,0 4,0 4,13.6 8,9.6 12,13.6 12,0 	"/>
</g>
<g id="heavy-tick">
	<rect fill="none" width="16" height="16"/>
	<polygon id="XMLID_104_" points="6,12.4 2.3,8.7 3.7,7.3 6,9.6 11.3,4.3 12.7,5.7 	"/>
</g>
<g id="exclamation-mark">
	<rect id="space_814_" fill="none" width="16" height="16"/>
	<path id="XMLID_105_" fill-rule="evenodd" clip-rule="evenodd" d="M8,11L8,11c-0.8,0-1.5-0.7-1.6-1.5L6.1,3C6,1.9,6.9,1,8,1h0
		c1.1,0,2,0.9,1.9,2L9.6,9.5C9.5,10.3,8.8,11,8,11z M8.5,12h-1C6.7,12,6,12.7,6,13.5v0C6,14.3,6.7,15,7.5,15h1
		c0.8,0,1.5-0.7,1.5-1.5v0C10,12.7,9.3,12,8.5,12z"/>
</g>
<g id="menu">
	<rect id="space" fill="none" width="16" height="16"/>
	<path id="XMLID_107_" d="M14,9H2V7h12V9z M14,4H2v2h12V4z M14,10H2v2h12V10z"/>
</g>
<g id="filter">
	<rect id="space_828_" fill="none" width="16" height="16"/>
	<g id="XMLID_108_">
		<polygon id="XMLID_109_" points="7,14 5,14 5,8.9 0.7,3.6 1.5,2 14.5,2 15.3,3.6 11,8.9 11,12 9,12 9,8.1 12.4,4 3.6,4 7,8.1 		
			"/>
	</g>
</g>
<g id="forward">
	<rect id="space_653_" fill="none" width="16" height="16"/>
	<polygon id="XMLID_321_" points="3.5,7 8.5,2 13.5,7 10.2,7 8.5,14.3 6.8,7 	"/>
</g>
<g id="reply">
	<rect id="space_667_" fill="none" width="16" height="16"/>
	<path d="M14.3,12.5C13.7,8.7,10.8,5.8,7,5.2V2.5l-5,5l5,5V9.2C10,9.2,12.8,9.9,14.3,12.5z"/>
</g>
<g id="ask">
	<rect id="space_25_" fill="none" width="16" height="16"/>
	<path id="XMLID_110_" d="M15,8c0,3.9-3.1,7-7,7s-7-3.1-7-7s3.1-7,7-7S15,4.1,15,8z M8.4,9.3V9c0-0.2,0-0.4,0.1-0.5
		c0.1-0.1,0.3-0.3,0.7-0.6c0.5-0.4,0.8-0.7,1-1s0.3-0.6,0.3-1c0-0.6-0.2-1.1-0.7-1.4c-0.4-0.4-1-0.5-1.8-0.5c-0.9,0-1.7,0.2-2.5,0.7
		l0.6,1.2c0.7-0.4,1.3-0.5,1.8-0.5c0.3,0,0.5,0.1,0.7,0.2C8.8,5.6,8.9,5.7,8.9,6c0,0.2-0.1,0.4-0.2,0.6C8.6,6.7,8.4,6.9,8,7.2
		C7.6,7.5,7.3,7.8,7.2,8C7,8.3,7,8.6,7,8.9v0.4H8.4z M7,11.8c0.2,0.2,0.4,0.2,0.7,0.2c0.3,0,0.5-0.1,0.7-0.2s0.2-0.4,0.2-0.7
		c0-0.3-0.1-0.5-0.2-0.7c-0.2-0.2-0.4-0.2-0.7-0.2c-0.3,0-0.5,0.1-0.7,0.2c-0.2,0.2-0.2,0.4-0.2,0.7C6.8,11.4,6.9,11.7,7,11.8z"/>
</g>
<g id="xcross">
	<rect id="space_8_" fill="none" width="16" height="16"/>
	<polygon points="4.5,3.1 3.1,4.5 6.6,8 3.1,11.5 4.5,12.9 8,9.4 11.5,12.9 12.9,11.5 9.4,8 12.9,4.5 11.5,3.1 8,6.6 	"/>
</g>
<g id="comments">
	<rect id="space_391_" fill="none" width="16" height="16"/>
	<path opacity="0.5" fill-rule="evenodd" clip-rule="evenodd" d="M0,7.5L0,1l3,3h6.5c1.4,0,2.6,0.8,3.2,2H6.5C4,6,2,8,2,10.5
		c0,0,0,0.1,0,0.2C0.8,10.1,0,8.9,0,7.5z"/>
	<path id="XMLID_113_" fill-rule="evenodd" clip-rule="evenodd" d="M6.5,14h6c1.9,0,3.5-1.6,3.5-3.5V4l-3,3H6.5C5.5,7,4.7,7.4,4,8
		c-0.6,0.6-1,1.5-1,2.5C3,12.4,4.6,14,6.5,14z M7.5,10.5c0,0.6-0.4,1-1,1s-1-0.4-1-1s0.4-1,1-1S7.5,9.9,7.5,10.5z M10.5,10.5
		c0,0.6-0.4,1-1,1s-1-0.4-1-1s0.4-1,1-1S10.5,9.9,10.5,10.5z M13.5,10.5c0,0.6-0.4,1-1,1s-1-0.4-1-1s0.4-1,1-1S13.5,9.9,13.5,10.5z"
		/>
</g>
<g id="hourglass">
	<rect id="space_263_" fill="none" width="16" height="16"/>
	<g id="XMLID_114_" opacity="0.1">
		<path id="XMLID_115_" d="M12,12v2H4v-2c0-0.8,0.3-1.5,0.8-2.1L6,8.7V7.3L4.8,6.1C4.5,5.8,4.3,5.4,4.2,5h7.6
			c-0.1,0.4-0.4,0.8-0.6,1.1L10,7.3v1.4l1.2,1.2C11.7,10.5,12,11.2,12,12z"/>
	</g>
	<path id="XMLID_116_" d="M11.2,6.1C11.7,5.5,12,4.8,12,4V3h1V2c0-0.6-0.4-1-1-1H4C3.4,1,3,1.4,3,2v1h1v1c0,0.8,0.3,1.5,0.8,2.1
		L6,7.3v1.4L4.8,9.9C4.3,10.5,4,11.2,4,12v1H3v1c0,0.6,0.4,1,1,1h8c0.6,0,1-0.4,1-1v-1h-1v-1c0-0.8-0.3-1.5-0.8-2.1L10,8.7V7.3
		L11.2,6.1z M9.3,9.4l1.2,1.2C10.8,11,11,11.5,11,12v1H5v-1c0-0.5,0.2-1,0.6-1.4l1.2-1.2L7,9.1V6.9L6.7,6.6L5.6,5.4C5.2,5,5,4.5,5,4
		V3h6v1c0,0.5-0.2,1-0.6,1.4L9.3,6.6L9,6.9v2.2L9.3,9.4z"/>
</g>
<g id="device-phone">
	<rect id="space_538_" fill="none" width="16" height="16"/>
	<path id="XMLID_255_" d="M12,4.5v-2C12,1.7,11.3,1,10.5,1h-5C4.7,1,4,1.7,4,2.5v11C4,14.3,4.7,15,5.5,15h5c0.8,0,1.5-0.7,1.5-1.5
		v-7c0.3,0,0.5-0.2,0.5-0.5V5C12.5,4.7,12.3,4.5,12,4.5z M11,13.5c0,0.3-0.2,0.5-0.5,0.5h-5C5.2,14,5,13.8,5,13.5v-11
		C5,2.2,5.2,2,5.5,2h1l0.4,0.7C6.9,2.9,7.1,3,7.3,3h1.4c0.2,0,0.4-0.1,0.4-0.3L9.5,2h1C10.8,2,11,2.2,11,2.5V13.5z"/>
	<path id="XMLID_208_" opacity="0.2" d="M10.5,2h-5C5.2,2,5,2.2,5,2.5v11C5,13.8,5.2,14,5.5,14h5c0.3,0,0.5-0.2,0.5-0.5v-11
		C11,2.2,10.8,2,10.5,2z"/>
</g>
<g id="lock">
	<rect id="space_546_" fill="none" width="16" height="16"/>
	<path id="XMLID_120_" d="M13,6h-1V5c0-2.2-1.8-4-4-4S4,2.8,4,5v1H3C2.4,6,2,6.4,2,7v6c0,1.1,0.9,2,2,2h8c1.1,0,2-0.9,2-2V7
		C14,6.4,13.6,6,13,6z M6,5c0-1.1,0.9-2,2-2s2,0.9,2,2v1H6V5z M9,13H7V9h2V13z"/>
</g>
<g id="bookmark">
	<rect id="space_632_" fill="none" width="16" height="16"/>
	<polygon id="XMLID_124_" points="13,16 8,11 3,16 3,0 13,0 	"/>
</g>
<g id="open-message">
	<rect id="space_594_" fill="none" width="16" height="16"/>
	<path id="XMLID_125_" fill-rule="evenodd" clip-rule="evenodd" d="M1.9,4.7L8,1.9l6.1,2.9C14.7,5,15,5.5,15,6.1v6.4
		c0,0.8-0.7,1.5-1.5,1.5h-11C1.7,14,1,13.3,1,12.5V6.1C1,5.5,1.3,5,1.9,4.7z M2.5,6.1L8,3.5l5.5,2.6v1.7L8,10.3L2.5,7.8V6.1z"/>
</g>
<g id="log">
	<rect id="space_1122_" fill="none" width="16" height="16"/>
	<path id="XMLID_127_" fill-rule="evenodd" clip-rule="evenodd" d="M13.2,1c0,0.7-0.2,1.2-1.2,1.2S10.8,1.7,10.8,1H9.2
		C9.2,1.7,9,2.2,8,2.2S6.8,1.7,6.8,1H5.2C5.2,1.7,5,2.2,4,2.2S2.8,1.7,2.8,1H2v15h0.8c0-0.7,0.2-1.2,1.2-1.2s1.2,0.6,1.2,1.2h1.5
		c0-0.7,0.2-1.2,1.2-1.2s1.2,0.6,1.2,1.2h1.5c0-0.7,0.2-1.2,1.2-1.2s1.2,0.6,1.2,1.2H14V1H13.2z M11.5,12h-7C4.2,12,4,11.8,4,11.5
		C4,11.2,4.2,11,4.5,11h7c0.3,0,0.5,0.2,0.5,0.5C12,11.8,11.8,12,11.5,12z M11.5,9h-7C4.2,9,4,8.8,4,8.5C4,8.2,4.2,8,4.5,8h7
		C11.8,8,12,8.2,12,8.5C12,8.8,11.8,9,11.5,9z M11.5,6h-7C4.2,6,4,5.8,4,5.5C4,5.2,4.2,5,4.5,5h7C11.8,5,12,5.2,12,5.5
		C12,5.8,11.8,6,11.5,6z"/>
</g>
<g id="roll">
	<rect id="space_989_" x="0" fill="none" width="16" height="16"/>
	<g id="XMLID_132_">
		<path id="XMLID_133_" opacity="0.4" d="M14.5,1H8C5.8,1,4,2.8,4,5v7l-2.5,3H8c2.2,0,4-1.8,4-4V4L14.5,1z"/>
		<g id="XMLID_136_">
			<path id="XMLID_294_" d="M4,12.5C4,13.9,2.9,15,1.5,15h0C0.7,15,0,14.3,0,13.5L0,12h4V12.5z M12,4h4V2.5C16,1.7,15.3,1,14.5,1h0
				C13.1,1,12,2.1,12,3.5V4z"/>
		</g>
	</g>
</g>
<g id="bell">
	<rect id="space_287_" fill="none" width="16" height="16"/>
	<path id="XMLID_137_" d="M14,11v1H2v-1l2-2V5c0-2.2,1.8-4,4-4h0c2.2,0,4,1.8,4,4v4L14,11z M6.2,13c0,1,0.8,1.8,1.8,1.8
		S9.8,14,9.8,13H6.2z"/>
</g>
<g id="nested3d">
	<g id="XMLID_140_">
		<g>
			<path id="XMLID_297_" d="M15,9.7V6.4c0-0.8-0.4-1.6-1.2-2L8,1L2.2,4.4C1.4,4.8,1,5.6,1,6.4v3.3C1,16.8,15,16.8,15,9.7z M8,9.8
				L2.2,6.4c0-0.4,0.2-0.8,0.6-1l5.2-3l5.2,3c0.4,0.2,0.6,0.6,0.6,1L8,9.8z"/>
		</g>
		
			<radialGradient id="SVGID_2_" cx="7.9998" cy="9.7414" r="6.9932" gradientTransform="matrix(-1 0 0 -0.75 15.9996 17.0474)" gradientUnits="userSpaceOnUse">
			<stop  offset="0" style="stop-color:#000000"/>
			<stop  offset="1" style="stop-color:#000000;stop-opacity:0"/>
		</radialGradient>
		<path fill="url(#SVGID_2_)" d="M8,9.8l6.9-4C15,6,15,6.2,15,6.4v3.3c0,3.5-3.5,5.3-7,5.3V9.8z"/>
	</g>
	<rect id="space_10_" fill="none" width="16" height="16"/>
</g>
<g id="replace">
	<rect id="space_1325_" fill="none" width="16" height="16"/>
	<path id="XMLID_141_" d="M5.3,15.7L1.6,12l3.7-3.7l1.4,1.4L5.4,11H11c0.6,0,1-0.4,1-1V8h2v2c0,1.7-1.3,3-3,3H5.4l1.3,1.3L5.3,15.7z
		 M4,8H2V6c0-1.7,1.3-3,3-3h5.6L9.3,1.7l1.4-1.4L14.4,4l-3.7,3.7L9.3,6.3L10.6,5H5C4.4,5,4,5.4,4,6V8z"/>
</g>
<g id="square-clock">
	<rect id="space_321_" fill="none" width="16" height="16"/>
	<g id="XMLID_149_">
		<path id="XMLID_305_" d="M13,15H3c-1.1,0-2-0.9-2-2V3c0-1.1,0.9-2,2-2h10c1.1,0,2,0.9,2,2v10C15,14.1,14.1,15,13,15z M11.7,10.3
			L9,7.6V3H7v5.4l3.3,3.3L11.7,10.3z"/>
	</g>
</g>
<g id="square-clock-wire">
	<rect id="space_314_" fill="none" width="16" height="16"/>
	<path id="XMLID_152_" d="M13.5,15h-11C1.7,15,1,14.3,1,13.5v-11C1,1.7,1.7,1,2.5,1h11C14.3,1,15,1.7,15,2.5v11
		C15,14.3,14.3,15,13.5,15z M13.5,13.5v0.8V13.5C13.5,13.5,13.5,13.5,13.5,13.5z M2.5,2.5v11h11l0-11H2.5z M9.5,11L7.2,8.8V4h1.5
		v4.2l1.8,1.8L9.5,11z"/>
</g>
<g id="tag-wire">
	<rect id="space_328_" fill="none" width="16" height="16"/>
	<path id="XMLID_157_" d="M13,2c0.6,0,1,0.4,1,1v4.2c0,0.3-0.1,0.5-0.3,0.7l-6,6c-0.2,0.2-0.4,0.3-0.7,0.3c-0.3,0-0.5-0.1-0.7-0.3
		L2.1,9.7C1.9,9.5,1.8,9.3,1.8,9s0.1-0.5,0.3-0.7l6-6C8.3,2.1,8.6,2,8.8,2H13 M13,1H8.8c-0.5,0-1,0.2-1.4,0.6l-6,6
		c-0.8,0.8-0.8,2,0,2.8l4.2,4.2C6,15,6.5,15.2,7,15.2s1-0.2,1.4-0.6l6-6C14.8,8.2,15,7.7,15,7.2V3C15,1.9,14.1,1,13,1L13,1z M11,4
		c0.5,0,1,0.5,1,1c0,0.6-0.4,1-1,1c-0.6,0-1-0.5-1-1C10,4.5,10.5,4,11,4 M11,3C9.9,3,9,3.9,9,5c0,1.1,0.9,2,2,2c1.1,0,2-0.9,2-2
		C13,3.9,12.1,3,11,3L11,3z"/>
</g>
<g id="bookmark-sign-wire">
	<rect id="space_625_" fill="none" width="16" height="16"/>
	<path id="XMLID_162_" d="M11,2c0.6,0,1,0.4,1,1v9.6L8.7,9.3L8,8.6L7.3,9.3L4,12.6V3c0-0.6,0.4-1,1-1H11 M11,1H5C3.9,1,3,1.9,3,3v12
		l5-5l5,5V3C13,1.9,12.1,1,11,1L11,1z"/>
</g>
<g id="bookmark-sign">
	<rect id="space_618_" fill="none" width="16" height="16"/>
	<path id="XMLID_165_" d="M13,15l-5-5l-5,5V3c0-1.1,0.9-2,2-2h6c1.1,0,2,0.9,2,2V15z"/>
</g>
<g id="circle">
	<rect id="space_442_" fill="none" width="16" height="16"/>
	<circle id="XMLID_166_" cx="8" cy="8" r="5"/>
</g>
<g id="hole">
	<rect id="space_1402_" fill="none" width="16" height="16"/>
	<path d="M9,9.5H8c-0.6,0-1-0.4-1-1v-1c0-0.6,0.4-1,1-1h1c0.6,0,1,0.4,1,1v1C10,9.1,9.6,9.5,9,9.5z"/>
</g>
<g id="pencil">
	<rect fill="none" width="16" height="16"/>
	<path id="XMLID_167_" d="M11.3,7.7L7,12c-2,2-3,3-6,3c0-3,1-4,3-6l4.3-4.3L11.3,7.7z M13.7,2.3c-0.8-0.8-2.2-0.8-3,0l-1,1l3,3l1-1
		C14.5,4.5,14.5,3.2,13.7,2.3z"/>
</g>
<g id="star">
	<rect fill="none" width="16" height="16"/>
	<polygon id="XMLID_170_" points="10.6,9.1 15,6 9.6,6 8,0.9 6.3,6 1,6 5.3,9.1 3.6,14.2 8,11.1 12.3,14.2 	"/>
</g>
<g id="pause">
	<rect id="space_961_" fill="none" width="16" height="16"/>
	<path id="XMLID_171_" d="M3,3h3v10H3V3z M10,3v10h3V3H10z"/>
</g>
<g id="play">
	<rect id="space_954_" fill="none" width="16" height="16"/>
	<polygon points="5.3,12.5 13.3,8 5.3,3.5 	"/>
</g>
<g id="player-next">
	<rect id="space_933_" fill="none" width="16" height="16"/>
	<path id="XMLID_174_" d="M13,3h-3v10h3V3z M11.7,8L3,3v10L11.7,8"/>
</g>
<g id="player-back">
	<rect id="space_926_" fill="none" width="16" height="16"/>
	<path id="XMLID_175_" d="M3,13h3V3H3V13z M4.3,8l8.7,5V3L4.3,8"/>
</g>
<g id="file">
	<rect id="space_1115_" fill="none" width="16" height="16"/>
	<path id="XMLID_177_" fill-rule="evenodd" clip-rule="evenodd" d="M13,5v8.5c0,0.8-0.7,1.5-1.5,1.5h-7C3.7,15,3,14.3,3,13.5v-11
		C3,1.7,3.7,1,4.5,1H9L13,5z M9,2.4V5h2.6L9,2.4z"/>
</g>
<g id="exchange">
	<rect id="space_1478_" fill="none" width="16" height="16"/>
	<g id="XMLID_180_">
		<path id="XMLID_182_" d="M5.3,14.7L1.6,11l3.7-3.7l1.4,1.4L5.4,10H13v2H5.4l1.3,1.3L5.3,14.7z M10.7,8.7L9.3,7.3L10.6,6H3V4h7.6
			L9.3,2.7l1.4-1.4L14.4,5L10.7,8.7z"/>
	</g>
</g>
<g id="preferences">
	<rect id="space_1485_" fill="none" width="16" height="16"/>
	<g id="XMLID_185_">
		<path id="XMLID_186_" d="M10,11c0,0.7-0.4,1.2-1,1.4V13H8v-0.6c-0.6-0.2-1-0.8-1-1.4c0-0.6,0.4-1.2,1-1.4V3h1v6.6
			C9.6,9.8,10,10.4,10,11z"/>
		<path id="XMLID_187_" d="M6,7c0,0.7-0.4,1.2-1,1.4V13H4V8.4C3.4,8.2,3,7.6,3,7c0-0.6,0.4-1.2,1-1.4V3h1v2.6C5.6,5.8,6,6.4,6,7z"/>
		<path id="XMLID_188_" d="M14,5c0,0.7-0.4,1.2-1,1.4V13h-1V6.4c-0.6-0.2-1-0.8-1-1.4c0-0.6,0.4-1.2,1-1.4V3h1v0.6
			C13.6,3.8,14,4.4,14,5z"/>
	</g>
</g>
<g id="place-members">
	<rect id="space_1108_" fill="none" width="16" height="16"/>
	<path id="XMLID_189_" fill-rule="evenodd" clip-rule="evenodd" d="M12.7,3h-2.4C9.9,2.1,9,1.5,8,1.5S6.1,2.1,5.7,3H3.3
		C2.6,3,2,3.6,2,4.3v9.3C2,14.4,2.6,15,3.3,15h9.3c0.7,0,1.3-0.6,1.3-1.3V4.3C14,3.6,13.4,3,12.7,3z M8,3c0.6,0,1,0.4,1,1
		c0,0.6-0.4,1-1,1S7,4.6,7,4C7,3.4,7.4,3,8,3z M8,5.5c1.4,0,2.5,1.1,2.5,2.5c0,1.4-1.1,2.5-2.5,2.5S5.5,9.4,5.5,8
		C5.5,6.6,6.6,5.5,8,5.5z M11,14H5v-0.5C5,12.7,5.7,12,6.5,12h3c0.8,0,1.5,0.7,1.5,1.5V14z"/>
</g>
<g id="info">
	<rect id="space_1443_" fill="none" width="16" height="16"/>
	<g id="XMLID_194_">
		<path id="XMLID_195_" fill-rule="evenodd" clip-rule="evenodd" d="M15.5,8c0,4.1-3.4,7.5-7.5,7.5S0.5,12.1,0.5,8S3.9,0.5,8,0.5
			S15.5,3.9,15.5,8z M6,7h3v4l1,1H6l1-1V8L6,7z M8,6c0.6,0,1-0.4,1-1S8.6,4,8,4S7,4.4,7,5S7.4,6,8,6z"/>
	</g>
</g>
<g id="info-wire_1_">
	<rect id="space_1450_" fill="none" width="16" height="16"/>
	<path id="XMLID_196_" d="M8,1.5c3.6,0,6.5,2.9,6.5,6.5s-2.9,6.5-6.5,6.5S1.5,11.6,1.5,8S4.4,1.5,8,1.5 M8,0.5
		C3.9,0.5,0.5,3.9,0.5,8s3.4,7.5,7.5,7.5s7.5-3.4,7.5-7.5S12.1,0.5,8,0.5L8,0.5z M6,7h3v4l1,1H6l1-1V8L6,7z M8,6c0.6,0,1-0.4,1-1
		S8.6,4,8,4S7,4.4,7,5S7.4,6,8,6z"/>
</g>
<g id="card-view">
	<rect id="space_1464_" fill="none" width="16" height="16"/>
	<g id="XMLID_199_">
		<path d="M12.5,13h-9C2.7,13,2,12.3,2,11.5v-7C2,3.7,2.7,3,3.5,3h9C13.3,3,14,3.7,14,4.5v7C14,12.3,13.3,13,12.5,13z"/>
	</g>
</g>
<g id="list-view">
	<rect id="space_1457_" fill="none" width="16" height="16"/>
	<g id="XMLID_200_">
		<path id="XMLID_201_" d="M13.5,7h-11C2.2,7,2,6.8,2,6.5v-3C2,3.2,2.2,3,2.5,3h11C13.8,3,14,3.2,14,3.5v3C14,6.8,13.8,7,13.5,7z
			 M14,12.5v-3C14,9.2,13.8,9,13.5,9h-11C2.2,9,2,9.2,2,9.5v3C2,12.8,2.2,13,2.5,13h11C13.8,13,14,12.8,14,12.5z"/>
	</g>
</g>
<g id="double-check">
	<rect id="space_1471_" fill="none" width="16" height="16"/>
	<g id="XMLID_202_">
		<polygon id="XMLID_203_" points="9,12.1 6.5,9.6 4,12.1 0.5,8.5 1.5,7.5 4,9.9 9.5,4.5 10.5,5.5 7.6,8.5 9,9.9 14.5,4.5 15.5,5.5 
					"/>
	</g>
</g>
<g id="tag">
	<rect id="space_335_" fill="none" width="16" height="16"/>
	<g id="XMLID_209_">
		<g id="XMLID_316_">
			<path id="XMLID_317_" d="M6.9,2.6l-5,5c-0.8,0.8-0.8,2,0,2.8l3.7,3.7c0.8,0.8,2,0.8,2.8,0l5-5C13.8,8.7,14,8.2,14,7.7V4
				c0-1.1-0.9-2-2-2H8.3C7.8,2,7.3,2.2,6.9,2.6z M10,8C8.9,8,8,7.1,8,6c0-1.1,0.9-2,2-2c1.1,0,2,0.9,2,2C12,7.1,11.1,8,10,8z"/>
		</g>
	</g>
</g>
<g id="negative-xcross">
	<rect id="space_1423_" fill="none" width="16" height="16"/>
	<path id="XMLID_212_" d="M15,8c0,3.9-3.1,7-7,7s-7-3.1-7-7s3.1-7,7-7S15,4.1,15,8z M5.9,4.5L4.5,5.9L6.6,8l-2.1,2.1l1.4,1.4L8,9.4
		l2.1,2.1l1.4-1.4L9.4,8l2.1-2.1l-1.4-1.4L8,6.6L5.9,4.5z"/>
</g>
<g id="calendar">
	<g id="space_1618_">
		<rect fill="none" width="16" height="16"/>
	</g>
	<path id="XMLID_134_" d="M12,2h-1c0-0.6-0.4-1-1-1C9.4,1,9,1.4,9,2H7c0-0.6-0.4-1-1-1C5.4,1,5,1.4,5,2H4C2.9,2,2,2.9,2,4v8
		c0,1.1,0.9,2,2,2h8c1.1,0,2-0.9,2-2V4C14,2.9,13.1,2,12,2z M5,4c0,0.6,0.4,1,1,1c0.6,0,1-0.4,1-1h2c0,0.6,0.4,1,1,1
		c0.6,0,1-0.4,1-1h1v2H4V4H5z M7,9V7h2v2H7z M9,10v2H7v-2H9z M6,9H4V7h2V9z M10,7h2v2h-2V7z M4,10h2v2H4V10z M10,12v-2h2v2H10z"/>
</g>
<g id="glance">
	<g id="space_1604_">
		<rect fill="none" width="16" height="16"/>
	</g>
	<path id="XMLID_213_" d="M12,9h2v3c0,1.1-0.9,2-2,2H4c-1.1,0-2-0.9-2-2V4c0-1.1,0.9-2,2-2h3v2H4v8h8V9z M12,1c-1.7,0-3,1.3-3,3
		s1.3,3,3,3s3-1.3,3-3S13.7,1,12,1z"/>
</g>
<g id="checked-box">
	<g id="space_1611_">
		<rect x="0" fill="none" width="16" height="16"/>
	</g>
	<path id="XMLID_135_" d="M14,9v3c0,1.1-0.9,2-2,2H4c-1.1,0-2-0.9-2-2V4c0-1.1,0.9-2,2-2h3v2H4v8h8V9H14z M5.3,7.7L8,10.4l5.7-5.7
		l-1.4-1.4L8,7.6L6.7,6.3L5.3,7.7z"/>
</g>
<g id="internal">
	<g id="space_1597_">
		<rect fill="none" width="16" height="16"/>
	</g>
	<path id="XMLID_224_" d="M12,2c-0.6,0-1,0.4-1,1v3.6L7.7,3.3c-0.4-0.4-1-0.4-1.4,0s-0.4,1,0,1.4L8.6,7H3C2.4,7,2,7.4,2,8s0.4,1,1,1
		h5.6l-2.3,2.3c-0.4,0.4-0.4,1,0,1.4C6.5,12.9,6.7,13,7,13s0.5-0.1,0.7-0.3L11,9.4V13c0,0.6,0.4,1,1,1s1-0.4,1-1V3
		C13,2.4,12.6,2,12,2z"/>
</g>
<g id="external">
	<g id="space_1590_">
		<rect fill="none" width="16" height="16"/>
	</g>
	<path id="XMLID_227_" d="M13.7,7.3l-4-4c-0.4-0.4-1-0.4-1.4,0s-0.4,1,0,1.4L10.6,7H5V3c0-0.6-0.4-1-1-1S3,2.4,3,3v10
		c0,0.6,0.4,1,1,1s1-0.4,1-1V9h5.6l-2.3,2.3c-0.4,0.4-0.4,1,0,1.4C8.5,12.9,8.7,13,9,13s0.5-0.1,0.7-0.3l4-4
		C14.1,8.3,14.1,7.7,13.7,7.3z"/>
</g>
<g id="filter-plus">
	<g id="space_1576_">
		<rect fill="none" width="16" height="16"/>
	</g>
	<polygon id="XMLID_228_" opacity="0.5" points="7,14 5,14 5,8.9 0.7,3.6 1.5,2 14,2 14,4 3.6,4 7,8.1 	"/>
	<polygon id="XMLID_229_" points="16,9 16,11 13,11 13,14 11,14 11,11 8,11 8,9 11,9 11,6 13,6 13,9 	"/>
</g>
<g id="ragged-list">
	<g id="space_1583_">
		<rect fill="none" width="16" height="16"/>
	</g>
	<path id="XMLID_230_" d="M13,13H6c-0.6,0-1-0.4-1-1s0.4-1,1-1h7c0.6,0,1,0.4,1,1S13.6,13,13,13z M10,9H3C2.4,9,2,8.6,2,8s0.4-1,1-1
		h7c0.6,0,1,0.4,1,1S10.6,9,10,9z M13,5H6C5.4,5,5,4.6,5,4s0.4-1,1-1h7c0.6,0,1,0.4,1,1S13.6,5,13,5z M3,5C2.5,5,2,4.6,2,4
		s0.4-1,1-1h0c0.6,0,1,0.4,1,1S3.6,5,3,5z M13,9c-0.6,0-1-0.4-1-1s0.4-1,1-1h0c0.6,0,1,0.4,1,1S13.6,9,13,9z M3,13c-0.6,0-1-0.4-1-1
		s0.4-1,1-1h0c0.6,0,1,0.4,1,1S3.6,13,3,13z"/>
</g>
<g id="list-check">
	<rect id="space_1304_" fill="none" width="16" height="16"/>
	<path id="XMLID_142_" fill="none" stroke="#000000" stroke-width="2" stroke-miterlimit="10" d="M12,6h4 M9,9h4 M6,12h4 M1,9
		l2.5,2.5L10,5"/>
</g>
<g id="finish-flag">
	<rect id="space_1569_" fill="none" width="16" height="16"/>
	<path id="XMLID_261_" d="M12,1H4C2.3,1,1,2.3,1,4v4c0,1.7,1.3,3,3,3h9v4h2V4C15,2.3,13.7,1,12,1z M3,9V3h10v6H3z"/>
	<path id="XMLID_245_" d="M13,5v2h-2V5H13z M9,9h2V7H9V9z M11,3H9v2h2V3z M7,5v2h2V5H7z M5,9h2V7H5V9z M7,3H5v2h2V3z M3,5v2h2V5H3z"
		/>
</g>
<g id="petition">
	<rect id="space_1562_" fill="none" width="16" height="16"/>
	<polygon id="XMLID_206_" opacity="0.5" points="13,11 10,11 10,14 	"/>
	<path id="XMLID_148_" d="M10,14H4c-0.6,0-1-0.4-1-1V2c0-0.6,0.4-1,1-1h8c0.6,0,1,0.4,1,1v9h-3V14z M11,4H5v1h6V4z M11,6H5v1h6V6z
		 M11,8H5v1h6V8z"/>
</g>
<g id="bullet-list">
	<rect id="space_1555_" fill="none" width="16" height="16"/>
	<path id="XMLID_275_" d="M3.5,4c0,0.8-0.7,1.5-1.5,1.5S0.5,4.8,0.5,4S1.2,2.5,2,2.5S3.5,3.2,3.5,4z M2,6.5C1.2,6.5,0.5,7.2,0.5,8
		S1.2,9.5,2,9.5S3.5,8.8,3.5,8S2.8,6.5,2,6.5z M2,10.5c-0.8,0-1.5,0.7-1.5,1.5s0.7,1.5,1.5,1.5s1.5-0.7,1.5-1.5S2.8,10.5,2,10.5z
		 M15,4L15,4c0-0.6-0.4-1-1-1H6C5.4,3,5,3.4,5,4v0c0,0.6,0.4,1,1,1h8C14.6,5,15,4.6,15,4z M15,8L15,8c0-0.6-0.4-1-1-1H6
		C5.4,7,5,7.4,5,8v0c0,0.6,0.4,1,1,1h8C14.6,9,15,8.6,15,8z M15,12L15,12c0-0.6-0.4-1-1-1H6c-0.6,0-1,0.4-1,1v0c0,0.6,0.4,1,1,1h8
		C14.6,13,15,12.6,15,12z"/>
</g>
<g id="attach">
	<rect id="space_800_" fill="none" width="16" height="16"/>
	<path id="XMLID_269_" d="M6,15c-1.3,0-2.6-0.5-3.5-1.5c-1.9-1.9-1.9-5.1,0-7.1l4.3-4.3c1.4-1.4,3.7-1.4,5.1,0
		c1.4,1.4,1.4,3.7,0,5.1l-4.3,4.3c-0.8,0.8-2.2,0.8-3.1,0c-0.8-0.8-0.8-2.2,0-3.1l4.3-4.3c0.3-0.3,0.8-0.3,1.1,0s0.3,0.8,0,1.1
		L5.5,9.5c-0.3,0.3-0.3,0.7,0,0.9c0.2,0.3,0.7,0.3,0.9,0l4.3-4.3c0.8-0.8,0.8-2.1,0-2.9s-2.1-0.8-2.9,0L3.5,7.5
		c-1.4,1.4-1.4,3.6,0,4.9c1.3,1.3,3.6,1.3,4.9,0l5-5c0.3-0.3,0.8-0.3,1.1,0s0.3,0.8,0,1.1l-5,5C8.6,14.5,7.3,15,6,15z"/>
</g>
<g id="todo-undone_1_">
	<rect id="space_2_" x="0" fill="none" width="16" height="16"/>
	<path id="XMLID_266_" opacity="0.24" d="M8,2.5c3,0,5.5,2.5,5.5,5.5S11,13.5,8,13.5S2.5,11,2.5,8S5,2.5,8,2.5 M8,1C4.1,1,1,4.1,1,8
		s3.1,7,7,7s7-3.1,7-7S11.9,1,8,1L8,1z"/>
</g>
<g id="todo-done_1_">
	<path id="XMLID_277_" opacity="0.24" d="M8,1c3.9,0,7,3.1,7,7s-3.1,7-7,7s-7-3.1-7-7S4.1,1,8,1L8,1z"/>
	<rect id="space_1_" x="0" fill="none" width="16" height="16"/>
	<path id="XMLID_258_" opacity="0.24" d="M15,8c0,3.9-3.1,7-7,7s-7-3.1-7-7s3.1-7,7-7S15,4.1,15,8z M8,2.5C5,2.5,2.5,5,2.5,8
		S5,13.5,8,13.5S13.5,11,13.5,8S11,2.5,8,2.5"/>
	<g id="XMLID_257_">
		<polygon id="XMLID_271_" points="7,11.1 4.5,8.5 5.5,7.5 7,8.9 10.5,5.5 11.5,6.5 		"/>
	</g>
</g>
</svg>
