<svg id="icons" xmlns="http://www.w3.org/2000/svg" viewBox="0 0 32 32">
  <title>nst</title>
  <g id="Wcompose">
    <rect id="empty32" width="32" height="32" style="fill: none"/>
    <path d="M28.15,5.52a3.23,3.23,0,0,0-4.46,0L13.46,15.75a9.48,9.48,0,0,0-2.8,6.75V23h.5a9.49,9.49,0,0,0,6.75-2.8L28.15,10A3.16,3.16,0,0,0,28.15,5.52Zm-10.93,14A8.49,8.49,0,0,1,11.68,22a8.49,8.49,0,0,1,2.49-5.53L22.67,8l3,3ZM27.44,9.27l-1,1-3-3,1-1a2.15,2.15,0,0,1,3,3ZM23,27H5V9H16v1H6V26H22V19h1Z"/>
  </g>
  <g id="W_" data-name="W@">
    <rect id="empty32-2" data-name="empty32" width="32" height="32" style="fill: none"/>
    <path d="M16.33,26.51q-.61,0-1.24-.06a10.52,10.52,0,0,1-7.35-3.52,10.47,10.47,0,0,1-2.19-7.85A10.27,10.27,0,0,1,16.91,5.54c4.27.38,7.39,2.22,8.78,5.2a8.27,8.27,0,0,1-.63,8A4.79,4.79,0,0,1,20.7,21,2.41,2.41,0,0,1,19,20a2.71,2.71,0,0,1-.44-1.44,5.29,5.29,0,0,1-5.23,1.91,3.73,3.73,0,0,1-3-2.71,5.5,5.5,0,0,1,1.56-5.43c1.14-1.07,3.77-2.61,8.6-.85l.41.15-.1.43c-.21.9-1.13,5.27-1.13,5.28a2.77,2.77,0,0,0,.15,2.09,1.41,1.41,0,0,0,1,.55,3.77,3.77,0,0,0,3.42-1.82,7.24,7.24,0,0,0,.54-7c-.87-1.87-3-4.18-8-4.63A9.18,9.18,0,0,0,6.54,15.18a9.49,9.49,0,0,0,2,7.12,9.54,9.54,0,0,0,6.68,3.17,10.16,10.16,0,0,0,5.56-.93l.45-.23.45.89-.45.22A10.66,10.66,0,0,1,16.33,26.51Zm.07-14.83a5.41,5.41,0,0,0-3.83,1.38,4.48,4.48,0,0,0-1.28,4.42,2.75,2.75,0,0,0,2.21,2c3.23.57,5-1.88,5.59-4.26.18-.85.4-1.89.64-3A10.67,10.67,0,0,0,16.4,11.68Z"/>
  </g>
</svg>
