<svg xmlns="http://www.w3.org/2000/svg" xmlns:xlink="http://www.w3.org/1999/xlink" viewBox="0 0 20 20">
  <defs>
    <linearGradient id="linear-gradient" x1="10" y1="15" x2="10" y2="4" gradientUnits="userSpaceOnUse">
      <stop offset="0" stop-color="#fff"/>
      <stop offset="1" stop-color="#323d47"/>
    </linearGradient>
  </defs>
  <title>nst</title>
  <g id="icn20">
    <g id="menu">
      <rect id="space" width="20" height="20" style="fill: none"/>
      <path d="M18,11H2V9H18Zm0-6H2V7H18Zm0,8H2v2H18Z" style="fill: #323d47"/>
    </g>
    <g id="bell">
      <rect id="space-2" data-name="space" width="20" height="20" style="fill: none"/>
      <path d="M17,13v2H3V13l2-2V6.5a5,5,0,0,1,5-5h0a5,5,0,0,1,5,5V11ZM7.5,16a2.5,2.5,0,0,0,5,0Z" style="fill: #323d47"/>
    </g>
    <g id="message">
      <rect id="space-3" data-name="space" width="20" height="20" style="fill: none"/>
      <path d="M16.25,4H3.75A1.75,1.75,0,0,0,2,5.75v9.5A1.75,1.75,0,0,0,3.75,17h12.5A1.75,1.75,0,0,0,18,15.25V5.75A1.75,1.75,0,0,0,16.25,4ZM3.75,9.55,10,12.46l6.25-2.91V7.62L10,10.54,3.75,7.62Z" style="fill: #323d47;fill-rule: evenodd"/>
    </g>
    <g id="file">
      <rect id="space-4" data-name="space" width="20" height="20" style="fill: none"/>
      <path d="M15.88,8H11V3.12ZM12,2H5.5A1.5,1.5,0,0,0,4,3.5v14A1.5,1.5,0,0,0,5.5,19h10A1.5,1.5,0,0,0,17,17.5V7L12,2ZM7.25,12a.75.75,0,0,1,0-1.5h6.5a.75.75,0,0,1,0,1.5Zm0,4a.75.75,0,0,1,0-1.5h6.5a.75.75,0,0,1,0,1.5Z" style="fill: #323d47"/>
    </g>
    <g id="search">
      <rect id="space-5" data-name="space" width="20" height="20" style="fill: none"/>
      <path d="M17,15.76l-4.55-4.55a5.52,5.52,0,1,0-1.24,1.24L15.76,17A.87.87,0,0,0,17,15.76ZM4.25,8A3.75,3.75,0,1,1,8,11.75,3.75,3.75,0,0,1,4.25,8Z" style="fill: #323d47"/>
    </g>
    <g id="atsign">
      <rect id="space-6" data-name="space" width="20" height="20" style="fill: none"/>
      <path d="M10.26,18.82q-.5,0-1,0a8.81,8.81,0,0,1-6.16-3A8.78,8.78,0,0,1,1.23,9.23,8.75,8.75,0,0,1,4.4,3.08a8.85,8.85,0,0,1,6.37-1.86c4.81.42,6.67,2.95,7.35,4.41a7.09,7.09,0,0,1-.54,6.86,4.35,4.35,0,0,1-4,2,2.5,2.5,0,0,1-1.78-1,2.33,2.33,0,0,1-.17-.28,4.7,4.7,0,0,1-3.87.91A3.5,3.5,0,0,1,5,11.55,4.92,4.92,0,0,1,6.37,6.69c1-.93,3.26-2.28,7.35-.79a1,1,0,0,1,.63,1.16c-.19.82-.36,1.64-.51,2.33v.08l-.06.25c-.18.86-.3,1.45-.3,1.45-.17.81,0,1.1,0,1.17a.54.54,0,0,0,.37.17,2.39,2.39,0,0,0,2.08-1.17,5,5,0,0,0,.37-4.87c-.61-1.31-2.1-2.94-5.72-3.26A6.9,6.9,0,0,0,5.65,4.64,6.69,6.69,0,0,0,3.22,9.41a6.83,6.83,0,0,0,1.39,5.12,6.87,6.87,0,0,0,4.8,2.26,7.36,7.36,0,0,0,4-.67,1,1,0,1,1,.9,1.79A8.94,8.94,0,0,1,10.26,18.82Zm.06-11.59a3.64,3.64,0,0,0-2.58.91A2.88,2.88,0,0,0,6.91,11a1.54,1.54,0,0,0,1.25,1.15c2.6.45,3.45-2,3.67-2.88.11-.51.24-1.11.38-1.74A7.21,7.21,0,0,0,10.32,7.24Z" style="fill: #323d47"/>
    </g>
    <g id="window">
      <rect id="space-7" data-name="space" width="20" height="20" style="fill: none"/>
      <rect x="3" y="4" width="14" height="11" style="opacity: 0.2;fill: url(#linear-gradient)"/>
      <path id="_Compound_Path_" data-name="&lt;Compound Path&gt;" d="M1,3V16a1,1,0,0,0,1,1H18a1,1,0,0,0,1-1V3a1,1,0,0,0-1-1H2A1,1,0,0,0,1,3ZM3,4H17V15H3Z" style="fill: #323d47"/>
      <path d="M16,5,12,9m4-1-4,4" style="fill: none;stroke: #323d47;stroke-miterlimit: 10;stroke-width: 0.254982488530874px"/>
    </g>
    <g id="brick-wall">
      <rect id="space-8" data-name="space" width="20" height="20" style="fill: none"/>
      <path id="_Compound_Path_2" data-name="&lt;Compound Path&gt;" d="M1,3V16a1,1,0,0,0,1,1H18a1,1,0,0,0,1-1V3a1,1,0,0,0-1-1H2A1,1,0,0,0,1,3ZM3,4h7V7H3Zm10,7H7V8h6ZM3,8H6v3H3Zm0,7V12H9v3Zm14,0H10V12h7Zm0-4H14V8h3Zm0-4H11V4h6Z" style="fill: #323d47"/>
    </g>
    <g id="places">
      <rect id="space-9" data-name="space" width="20" height="20" style="fill: none"/>
      <path d="M16,18H4a2,2,0,0,1-2-2V4A2,2,0,0,1,4,2H16a2,2,0,0,1,2,2V16A2,2,0,0,1,16,18ZM4.39,13a5.49,5.49,0,0,1,3.85,1.77A2.49,2.49,0,0,0,10,15.5h0a2.49,2.49,0,0,0,1.77-.73A5.49,5.49,0,0,1,15.61,13H16V4H4v9Z" style="fill: #323d47"/>
    </g>
    <g id="reply">
      <rect width="20" height="20" style="fill: none"/>
      <path d="M17.92,15.79A10.87,10.87,0,0,0,9,6.58V3L2.5,9.5,9,16V11.58C12.79,11.58,16,12.51,17.92,15.79Z" style="fill: #323d47"/>
    </g>
    <g id="forward">
      <rect width="20" height="20" style="fill: none"/>
      <polygon points="4 9 10.5 2.5 17 9 12.83 9 10.5 17.92 8.17 9 4 9" style="fill: #323d47"/>
    </g>
    <g id="replied">
      <rect width="20" height="20" style="fill: none"/>
      <path d="M15.08,15.6C13.3,11.69,10.64,10,6.19,10H5.55l2.66,2.66a1,1,0,0,1-1.41,1.41L2.42,9.71a1,1,0,0,1,0-1.41L6.79,3.92A1,1,0,0,1,8.21,5.33L5.53,8h.67c5.21,0,8.61,2.16,10.71,6.76A1,1,0,0,1,15.08,15.6Z" style="fill: #323d47"/>
    </g>
    <g id="forwarded">
      <rect width="20" height="20" style="fill: none"/>
      <path d="M10,16.63a1,1,0,0,1-1-1V6.79L6.33,9.46A1,1,0,0,1,4.92,8L9.29,3.67a1,1,0,0,1,1.41,0L15.08,8a1,1,0,0,1-1.41,1.41L11,6.79v8.84A1,1,0,0,1,10,16.63Z" style="fill: #323d47"/>
    </g>
    <g id="cross">
      <rect id="space-10" data-name="space" width="20" height="20" style="fill: none"/>
      <polygon points="11 3 9 3 9 9 3 9 3 11 9 11 9 17 11 17 11 11 17 11 17 9 11 9 11 3" style="fill: #323d47"/>
    </g>
    <g id="more">
      <rect id="space-11" data-name="space" width="20" height="20" style="fill: none"/>
      <path d="M12,10a2,2,0,1,1-2-2A2,2,0,0,1,12,10Zm0-6a2,2,0,1,1-2-2A2,2,0,0,1,12,4Zm0,12a2,2,0,1,1-2-2A2,2,0,0,1,12,16Z" style="fill: #323d47"/>
    </g>
    <g id="filter">
      <rect width="20" height="20" style="fill: none"/>
      <polygon points="9 17.83 7 17.83 7 10.41 1.29 4.71 2 3 18 3 18.71 4.71 13 10.41 13 15 11 15 11 9.59 15.59 5 4.41 5 9 9.59 9 17.83" style="fill: #323d47"/>
    </g>
    <g id="downloads">
      <rect id="space-12" data-name="space" width="20" height="20" style="fill: none"/>
      <path d="M14.75,17H4.25V14.5h10.5ZM9.5,13.77,3.87,8.13,5.63,6.37,8.25,9V2h2.5V9l2.62-2.62,1.77,1.77Z" style="fill: #323d47"/>
    </g>
    <g id="sort">
      <rect id="space-13" data-name="space" width="20" height="20" style="fill: none"/>
      <path d="M14,11H2V9H14Zm4-6H2V7H18Zm-8,8H2v2h8Z" style="fill: #323d47"/>
    </g>
    <g id="earth">
      <rect id="space-14" data-name="space" width="20" height="20" style="fill: none"/>
      <path d="M10,2.5A7.5,7.5,0,1,0,17.5,10,7.5,7.5,0,0,0,10,2.5ZM4.5,10a5.46,5.46,0,0,1,.65-2.59.38.38,0,0,0,.1.38.5.5,0,0,0,.2.08,1.39,1.39,0,0,1,.78.55,3.77,3.77,0,0,0,.26.41A.39.39,0,0,0,6.91,9s0-.09,0-.14.12,0,.15.07c.19.46-.36.92-.36,1.43s.3.66.42,1a2,2,0,0,0,.14.42c.14.24.43.33.64.53a1.88,1.88,0,0,1,.34,1.26,5.66,5.66,0,0,0,.43,1.77A5.5,5.5,0,0,1,4.5,10ZM10,15.5a5.5,5.5,0,0,1-.73-.05l-.12-.07a.77.77,0,0,0,.07-.52c.27-.08.57-.19.67-.45a.88.88,0,0,0,.58-.51,2,2,0,0,1,.42-.67c.31-.28.87-.32,1-.72a3,3,0,0,0,0-.41.69.69,0,0,1,.47-.54.3.3,0,0,0,.18-.09.26.26,0,0,0,0-.17c0-.18-.08-.37-.13-.56a3.51,3.51,0,0,0-1-.39,4.33,4.33,0,0,1-1-.44.71.71,0,0,0-.66-.71.59.59,0,0,1-.22,0c-.06,0-.11-.13-.06-.18a.41.41,0,0,1-.42-.22A.22.22,0,0,0,9,8.66l-.11,0L8,8.56c-.32,0-.74,0-.83.31l-.27-.18-.2.1a.82.82,0,0,1,0-.72.5.5,0,0,0-.37-.16.67.67,0,0,1,.1-.29.35.35,0,0,0,.06-.3c0-.1-.2-.13-.25,0s0,.07,0,.1a.21.21,0,0,1-.32.06.4.4,0,0,1-.08-.37,1.05,1.05,0,0,1,1-.7c.13,0,.3.06.3.18s0,0,0,0a.38.38,0,0,0,.14.18,2.71,2.71,0,0,0,.19-.93.83.83,0,0,0,.92-.63c.35.06.57-.54.92-.46a.5.5,0,0,0-.14-.1,5.5,5.5,0,0,1,.7-.07v0l.08,0H10a5.46,5.46,0,0,1,2.42.57,1.45,1.45,0,0,0-.19.31c-.06.17,0,.21,0,.39a1,1,0,0,1-.29.53c0,.16.17.35.19.48s0,.19,0,.24.18.16.28.27c-.27.32-.06.7.19,1s.43.33.6.54c0,.06,0,.13,0,.18s.2.18.29.3c.31-.12.19-.14.55,0,.11-.12.37-.35.57-.33s.3.33.62.35c0,.48.14,1,.21,1.43A5.5,5.5,0,0,1,10,15.5Z" style="fill: #323d47"/>
    </g>
    <g id="member">
      <rect id="space-15" data-name="space" width="20" height="20" style="fill: none"/>
      <path d="M14,13v3H13V13a1,1,0,0,0-1-1v7H11V16a1,1,0,0,0-2,0v3H8V12a1,1,0,0,0-1,1v3H6V13a2,2,0,0,1,2-2h4A2,2,0,0,1,14,13ZM10,5.5A2.5,2.5,0,1,0,12.5,8,2.5,2.5,0,0,0,10,5.5Z" style="fill: #323d47"/>
    </g>
    <g id="manager-member">
      <rect id="space-16" data-name="space" width="20" height="20" style="fill: none"/>
      <path d="M9,12v7H8V17a1,1,0,0,0-2,0v2H5V12a1,1,0,0,0-1,1v2H3V13a2,2,0,0,1,2-2H16a2,2,0,0,1,2,2v2H17V13a1,1,0,0,0-1-1v7H15V17a1,1,0,0,0-2,0v2H12V12ZM10.75,1.59A1.25,1.25,0,0,0,9.5,2.84a1.22,1.22,0,0,0,.46,1l-.52.46A1,1,0,0,1,7.9,4L7.37,3a1.22,1.22,0,0,0,.88-1.18,1.25,1.25,0,0,0-2.5,0A1.22,1.22,0,0,0,6.63,3L6.1,4a1,1,0,0,1-1.54.27L4,3.8a1.22,1.22,0,0,0,.46-1A1.25,1.25,0,1,0,3.25,4.09a.3.3,0,0,0,.13,0l.26,2.06a1,1,0,0,0,1,.87H9.37a1,1,0,0,0,1-.87l.26-2.06a.3.3,0,0,0,.13,0,1.25,1.25,0,1,0,0-2.5ZM4.5,8a2.5,2.5,0,0,0,5,0ZM14,5.5A2.5,2.5,0,1,0,16.5,8,2.5,2.5,0,0,0,14,5.5Z" style="fill: #323d47"/>
    </g>
    <g id="team">
      <rect id="space-17" data-name="space" width="20" height="20" style="fill: none"/>
      <path d="M6.5,8A2.5,2.5,0,1,1,4,5.5,2.5,2.5,0,0,1,6.5,8ZM10,5.5A2.5,2.5,0,1,0,12.5,8,2.5,2.5,0,0,0,10,5.5Zm6,0A2.5,2.5,0,1,0,18.5,8,2.5,2.5,0,0,0,16,5.5ZM6,12v7H5V17a1,1,0,0,0-2,0v2H2V12a1,1,0,0,0-1,1v3H0V13a2,2,0,0,1,2-2H18a2,2,0,0,1,2,2v2H19V13a1,1,0,0,0-1-1v7H17V17a1,1,0,0,0-2,0v2H14V12H12v7H11V17a1,1,0,0,0-2,0v2H8V12Z" style="fill: #323d47"/>
    </g>
    <g id="manager">
      <rect id="space-18" data-name="space" width="20" height="20" style="fill: none"/>
      <path d="M14,13v2H13V13a1,1,0,0,0-1-1v7H11V17a1,1,0,0,0-2,0v2H8V12a1,1,0,0,0-1,1v2H6V13a2,2,0,0,1,2-2h4A2,2,0,0,1,14,13ZM7.5,8a2.5,2.5,0,0,0,5,0ZM15,2.84a1.25,1.25,0,0,1-1.25,1.25.3.3,0,0,1-.13,0l-.26,2.06a1,1,0,0,1-1,.87H7.63a1,1,0,0,1-1-.87L6.38,4.07a.3.3,0,0,1-.13,0A1.25,1.25,0,1,1,7.5,2.84,1.22,1.22,0,0,1,7,3.8l.52.46A1,1,0,0,0,9.1,4l.53-1a1.22,1.22,0,0,1-.88-1.18,1.25,1.25,0,0,1,2.5,0A1.22,1.22,0,0,1,10.37,3l.53,1a1,1,0,0,0,1.54.27L13,3.8a1.22,1.22,0,0,1-.46-1,1.25,1.25,0,1,1,2.5,0Z" style="fill: #323d47"/>
    </g>
    <g id="crown">
      <rect id="space-19" data-name="space" width="20" height="20" style="fill: none"/>
      <path d="M16.25,6.82a2.08,2.08,0,0,0-1.33,3.68l-.86.76a1.67,1.67,0,0,1-2.57-.45l-.87-1.6a2.08,2.08,0,1,0-1.25,0l-.87,1.6a1.67,1.67,0,0,1-2.57.45l-.86-.76A2.07,2.07,0,1,0,3.75,11L4,11l.44,3.41A1.67,1.67,0,0,0,6,15.83H14a1.67,1.67,0,0,0,1.65-1.45L16,11l.21,0a2.08,2.08,0,1,0,0-4.17Z" style="fill: #323d47"/>
    </g>
    <g id="person">
      <rect id="space-20" data-name="space" width="20" height="20" style="fill: none"/>
      <path d="M4,18V15a3,3,0,0,1,3-3h6a3,3,0,0,1,3,3v3ZM6.25,6A3.75,3.75,0,1,0,10,2.25,3.75,3.75,0,0,0,6.25,6Z" style="fill: #323d47"/>
    </g>
    <g id="hourglass">
      <rect id="space-21" data-name="space" width="20" height="20" style="fill: none"/>
      <g style="opacity: 0.2">
        <path d="M14,14.24V17H6V14.24a3,3,0,0,1,.88-2.12L8,11V9L6.88,7.88A3,3,0,0,1,6,6h8a3,3,0,0,1-.87,1.88L12,9v2l1.12,1.12A3,3,0,0,1,14,14.24Z" style="fill: #323d47"/>
      </g>
      <path d="M13.12,7.88A3,3,0,0,0,14,5.76V4h1V3a1,1,0,0,0-1-1H6A1,1,0,0,0,5,3V4H6V5.76a3,3,0,0,0,.88,2.12L8,9v2L6.88,12.12A3,3,0,0,0,6,14.24V16H5v1a1,1,0,0,0,1,1h8a1,1,0,0,0,1-1V16H14V14.24a3,3,0,0,0-.88-2.12L12,11V9Zm-1.83,3.83,1.12,1.12A2,2,0,0,1,13,14.24V16H7V14.24a2,2,0,0,1,.59-1.41l1.12-1.12L9,11.41V8.59l-.29-.29L7.59,7.17A2,2,0,0,1,7,5.76V4h6V5.76a2,2,0,0,1-.59,1.41L11.29,8.29,11,8.59v2.83Z" style="fill: #323d47"/>
    </g>
    <g id="bookmark-sign">
      <rect id="space-22" data-name="space" width="20" height="20" style="fill: none"/>
      <path d="M16,19l-6-6L4,19V4A3,3,0,0,1,7,1h6a3,3,0,0,1,3,3Z" style="fill: #323d47"/>
    </g>
    <g>
      <rect id="space-23" data-name="space" width="20" height="20" style="fill: none"/>
      <path d="M13,2.5A1.5,1.5,0,0,1,14.5,4V15.38l-3.44-3.44L10,10.88,8.94,11.94,5.5,15.38V4A1.5,1.5,0,0,1,7,2.5h6M13,1H7A3,3,0,0,0,4,4V19l6-6,6,6V4a3,3,0,0,0-3-3Z" style="fill: #323d47"/>
    </g>
  </g>
</svg>
