<?xml version="1.0" encoding="utf-8"?>
<!-- Generator: Adobe Illustrator 19.0.0, SVG Export Plug-In . SVG Version: 6.00 Build 0)  -->
<svg version="1.1" id="icn24" xmlns="http://www.w3.org/2000/svg" xmlns:xlink="http://www.w3.org/1999/xlink" x="0px" y="0px"
	 viewBox="0 0 24 24" style="enable-background:new 0 0 24 24;" xml:space="preserve">
<g id="menu">
	<rect id="space_6_" x="0" style="fill:none;" width="24" height="24"/>
	<path d="M21,13H3v-2h18V13z M21,6H3v2h18V6z M21,16H3v2h18V16z"/>
</g>
<g id="bookmark">
	<rect id="space_784_" x="0" style="fill:none;" width="24" height="24"/>
	<polygon points="20,24 12,16 4,24 4,0 20,0 	"/>
</g>
<g id="bookmark-wire">
	<rect id="space_776_" x="0" y="0" style="fill:none;" width="24" height="24"/>
	<polygon points="20,0 20,0 20,24 12,16 4,24 4,0 5,0 5,21.586 12,14.586 19,21.586 19,0 	"/>
</g>
<g id="brick-wall">
	<rect id="space_165_" x="0" style="fill:none;" width="24" height="24"/>
	<path id="XMLID_748_" d="M2,5v14c0,1.105,0.895,2,2,2h16c1.105,0,2-0.895,2-2V5c0-1.105-0.895-2-2-2H4C2.895,3,2,3.895,2,5z M4,5h9
		v4H4V5z M16,14H8v-4h8V14z M4,10h3v4H4V10z M4,19v-4h8v4H4z M20,19h-7v-4h7V19z M20,14h-3v-4h3V14z M20,9h-6V5h6V9z"/>
</g>
<g id="window">
	<rect id="space_173_" x="0" style="fill:none;" width="24" height="24"/>
	<linearGradient id="SVGID_1_" gradientUnits="userSpaceOnUse" x1="12" y1="19" x2="12" y2="5">
		<stop  offset="0" style="stop-color:#FFFFFF"/>
		<stop  offset="1" style="stop-color:#000000"/>
	</linearGradient>
	<rect x="4" y="5" style="opacity:0.3;fill:url(#SVGID_1_);" width="16" height="14"/>
	<path d="M2,5v14c0,1.105,0.895,2,2,2h16c1.105,0,2-0.895,2-2V5c0-1.105-0.895-2-2-2H4C2.895,3,2,3.895,2,5z M4,5h16v14H4V5z
		 M19.089,6.088l-0.178-0.177l-6,6l0.178,0.177L19.089,6.088z M19.089,10.088l-0.178-0.177l-6,6l0.178,0.177L19.089,10.088z"/>
</g>
<g id="places">
	<rect id="space_398_" x="0" style="fill:none;" width="24" height="24"/>
	<path d="M19,21H5c-1.105,0-2-0.895-2-2V5c0-1.105,0.895-2,2-2h14c1.105,0,2,0.895,2,2v14C21,20.105,20.105,21,19,21z M5.418,15
		c1.649,0,3.23,0.699,4.303,1.951C10.271,17.593,11.088,18,12,18h0c0.912,0,1.729-0.407,2.279-1.049
		C15.352,15.699,16.933,15,18.582,15L19,15V5H5v10L5.418,15z"/>
</g>
<g id="search">
	<rect id="space_13_" x="0" style="fill:none;" width="24" height="24"/>
	<path d="M20.205,18.614l-4.887-4.887C16.06,12.67,16.5,11.386,16.5,10c0-3.584-2.916-6.5-6.5-6.5S3.5,6.416,3.5,10
		s2.916,6.5,6.5,6.5c1.386,0,2.67-0.44,3.727-1.183l4.887,4.887c0.439,0.439,1.152,0.439,1.591,0
		C20.644,19.765,20.644,19.053,20.205,18.614z M5.5,10c0-2.481,2.019-4.5,4.5-4.5s4.5,2.019,4.5,4.5s-2.019,4.5-4.5,4.5
		S5.5,12.481,5.5,10z"/>
</g>
<g id="forward">
	<rect id="space_42_" x="0" style="fill:none;" width="24" height="24"/>
	<polygon id="XMLID_7_" points="5,10 12.5,2.5 20,10 15,10 12.5,21 10,10 	"/>
</g>
<g id="reply">
	<rect id="space_41_" x="0" style="fill:none;" width="24" height="24"/>
	<path d="M21,19.05C19.987,13.305,15.745,9.013,10,8V4l-7.5,7.5L10,19v-5C14.547,14,18.727,15.112,21,19.05z"/>
</g>
<g id="more">
	<rect id="space_43_" x="6" style="fill:none;" width="12" height="24"/>
	<path d="M14.5,12c0,1.381-1.119,2.5-2.5,2.5c-1.381,0-2.5-1.119-2.5-2.5s1.119-2.5,2.5-2.5C13.381,9.5,14.5,10.619,14.5,12z
		 M12,2.5c-1.381,0-2.5,1.119-2.5,2.5s1.119,2.5,2.5,2.5c1.381,0,2.5-1.119,2.5-2.5S13.381,2.5,12,2.5z M12,16.5
		c-1.381,0-2.5,1.119-2.5,2.5s1.119,2.5,2.5,2.5c1.381,0,2.5-1.119,2.5-2.5S13.381,16.5,12,16.5z"/>
</g>
<g id="crown">
	<rect id="space_245_" x="0" style="fill:none;" width="24" height="24"/>
	<path d="M19.5,8.188c-1.381,0-2.5,1.119-2.5,2.5c0,0.773,0.358,1.455,0.909,1.914l-1.029,0.915
		c-0.962,0.855-2.468,0.592-3.085-0.537l-1.047-1.919c1.012-0.32,1.751-1.255,1.751-2.373c0-1.381-1.119-2.5-2.5-2.5
		c-1.381,0-2.5,1.119-2.5,2.5c0,1.118,0.739,2.053,1.751,2.373l-1.047,1.919c-0.616,1.13-2.123,1.392-3.085,0.537l-1.029-0.915
		C6.642,12.143,7,11.461,7,10.688c0-1.381-1.119-2.5-2.5-2.5c-1.381,0-2.5,1.119-2.5,2.5s1.119,2.5,2.5,2.5
		c0.087,0,0.168-0.017,0.253-0.025l0.524,4.093C5.404,18.253,6.254,19,7.259,19h9.481c1.006,0,1.855-0.747,1.983-1.745l0.524-4.093
		c0.084,0.009,0.166,0.025,0.253,0.025c1.381,0,2.5-1.119,2.5-2.5S20.881,8.188,19.5,8.188z"/>
</g>
<g id="tag">
	<rect id="space_704_" x="0" style="fill:none;" width="24" height="24"/>
	<g>
		<g>
			<path d="M10.621,3.879l-7.5,7.5c-1.172,1.172-1.172,3.071,0,4.243l5.257,5.257c1.172,1.172,3.071,1.172,4.243,0l7.5-7.5
				C20.684,12.816,21,12.053,21,11.257V6c0-1.657-1.343-3-3-3h-5.257C11.947,3,11.184,3.316,10.621,3.879z M18,9
				c0,1.657-1.343,3-3,3s-3-1.343-3-3s1.343-3,3-3S18,7.343,18,9z"/>
		</g>
	</g>
</g>
<g id="tag-wire">
	<rect id="space_325_" style="fill:none;" width="24" height="24"/>
	<path d="M18,5c0.551,0,1,0.449,1,1v5.257c0,0.267-0.104,0.518-0.293,0.707l-7.5,7.5c-0.255,0.255-0.552,0.293-0.707,0.293
		c-0.155,0-0.452-0.038-0.707-0.293l-5.257-5.257c-0.255-0.255-0.293-0.552-0.293-0.707c0-0.155,0.038-0.452,0.293-0.707l7.5-7.5
		C12.224,5.104,12.476,5,12.743,5H18 M18,3h-5.257c-0.796,0-1.559,0.316-2.121,0.879l-7.5,7.5c-1.172,1.172-1.172,3.071,0,4.243
		l5.257,5.257c0.586,0.586,1.354,0.879,2.121,0.879s1.536-0.293,2.121-0.879l7.5-7.5C20.684,12.816,21,12.053,21,11.257V6
		C21,4.343,19.657,3,18,3L18,3z M15,8c0.551,0,1,0.449,1,1s-0.449,1-1,1s-1-0.449-1-1S14.449,8,15,8 M15,6c-1.657,0-3,1.343-3,3
		s1.343,3,3,3s3-1.343,3-3S16.657,6,15,6L15,6z"/>
</g>
<g id="microphone-wire">
	<rect id="space_769_" style="fill:none;" width="24" height="24"/>
	<path d="M12,3.5c1.654,0,3,1.346,3,3v6c0,1.654-1.346,3-3,3s-3-1.346-3-3v-6C9,4.846,10.346,3.5,12,3.5 M12,1.5
		c-2.761,0-5,2.239-5,5v6c0,2.761,2.239,5,5,5s5-2.239,5-5v-6C17,3.739,14.761,1.5,12,1.5L12,1.5z M18,23c0-0.553-0.448-1-1-1h-4
		v-1.059c4.218-0.496,7.5-4.093,7.5-8.441c0-0.553-0.448-1-1-1s-1,0.447-1,1c0,3.584-2.916,6.5-6.5,6.5s-6.5-2.916-6.5-6.5
		c0-0.553-0.448-1-1-1s-1,0.447-1,1c0,4.349,3.282,7.945,7.5,8.441V22H7c-0.552,0-1,0.447-1,1s0.448,1,1,1h10
		C17.552,24,18,23.553,18,23z"/>
</g>
<g id="microphone">
	<path transform="translate(3.5 1.5)"/ id="path0_fill" d="M 8.5 16C 5.739 16 3.5 13.761 3.5 11L 3.5 5C 3.5 2.239 5.739 0 8.5 0C 11.261 0 13.5 2.239 13.5 5L 13.5 11C 13.5 13.761 11.261 16 8.5 16Z"/>
	<path transform="translate(3.5 1.5)"/ id="path1_fill" fill-rule="evenodd" d="M 1 10C 1.55228 10 2 10.4477 2 11C 2 14.5897 4.91028 17.5 8.5 17.5C 12.0897 17.5 15 14.5897 15 11C 15 10.4477 15.4477 10 16 10C 16.5523 10 17 10.4477 17 11C 17 15.356 13.7231 18.9468 9.5 19.4418L 9.5 20.5L 13.5 20.5C 14.0523 20.5 14.5 20.9477 14.5 21.5C 14.5 22.0523 14.0523 22.5 13.5 22.5L 3.5 22.5C 2.94772 22.5 2.5 22.0523 2.5 21.5C 2.5 20.9477 2.94772 20.5 3.5 20.5L 7.5 20.5L 7.5 19.4418C 3.27693 18.9468 0 15.356 0 11C 0 10.4477 0.447715 10 1 10Z"/>
</g>
<g id="attach">
	<rect id="space_797_" style="fill:none;" width="24" height="24"/>
	<path d="M9,22.36c-1.886,0-3.771-0.718-5.207-2.153c-2.871-2.871-2.871-7.543,0-10.414l6.5-6.5C11.283,2.303,12.6,1.757,14,1.757
		s2.717,0.546,3.707,1.536c2.043,2.044,2.043,5.37,0,7.414l-6.5,6.5c-1.217,1.217-3.197,1.217-4.414,0
		C6.203,16.618,5.878,15.834,5.878,15s0.325-1.618,0.915-2.207l6.5-6.5c0.391-0.391,1.023-0.391,1.414,0s0.391,1.023,0,1.414
		l-6.5,6.5C7.995,14.419,7.878,14.7,7.878,15s0.117,0.581,0.329,0.793c0.438,0.436,1.148,0.436,1.586,0l6.5-6.5
		c1.264-1.265,1.264-3.321,0-4.586c-1.226-1.225-3.36-1.225-4.586,0l-6.5,6.5c-2.091,2.092-2.091,5.494,0,7.586
		c2.092,2.092,5.494,2.092,7.586,0l7.5-7.5c0.391-0.391,1.023-0.391,1.414,0s0.391,1.023,0,1.414l-7.5,7.5
		C12.771,21.643,10.886,22.36,9,22.36z"/>
</g>
<g id="small-face-wire">
	<rect id="space_28_" style="fill:none;" width="24" height="24"/>
	<path d="M17.5,9.5c0,1.105-0.895,2-2,2s-2-0.895-2-2s0.895-2,2-2S17.5,8.395,17.5,9.5z M8.5,7.5c-1.105,0-2,0.895-2,2s0.895,2,2,2
		s2-0.895,2-2S9.605,7.5,8.5,7.5z M12,22C5.131,22,1.5,18.542,1.5,12S5.131,2,12,2s10.5,3.458,10.5,10S18.869,22,12,22z M12,4
		c-5.72,0-8.5,2.617-8.5,8s2.78,8,8.5,8s8.5-2.617,8.5-8S17.72,4,12,4z M12,18c-1.605,0-5.363,0-6.261-3.609
		c-0.134-0.535,0.193-1.078,0.729-1.212c0.535-0.129,1.079,0.192,1.212,0.729C8.059,15.433,9.23,16,12,16s3.941-0.567,4.32-2.092
		c0.132-0.537,0.674-0.859,1.211-0.729c0.536,0.134,0.862,0.676,0.729,1.212C17.363,18,13.605,18,12,18z"/>
</g>
<g id="camera-wire">
	<rect id="space_790_" style="fill:none;" width="24" height="24"/>
	<path d="M14.172,4l2.414,2.414L17.172,7H18h1c1.103,0,2,0.897,2,2v9c0,1.103-0.897,2-2,2H5c-1.103,0-2-0.897-2-2V9
		c0-1.103,0.897-2,2-2h1h0.828l0.586-0.586L9.828,4H14.172 M15,2H9L6,5H5C2.791,5,1,6.791,1,9v9c0,2.209,1.791,4,4,4h14
		c2.209,0,4-1.791,4-4V9c0-2.209-1.791-4-4-4h-1L15,2L15,2z M12,9c2.206,0,4,1.794,4,4s-1.794,4-4,4s-4-1.794-4-4S9.794,9,12,9
		 M12,7c-3.314,0-6,2.686-6,6s2.686,6,6,6s6-2.686,6-6S15.314,7,12,7L12,7z"/>
</g>
<g id="manager">
	<rect id="space_93_" x="0" style="fill:none;" width="24" height="24"/>
	<path d="M16,13v4h-1v-4c0-0.55-0.45-1-1-1v10h-1v-4c0-0.55-0.45-1-1-1s-1,0.45-1,1v4h-1V12c-0.55,0-1,0.45-1,1v4H8v-4
		c0-1.1,0.9-2,2-2h4C15.1,11,16,11.9,16,13z M15.75,1.594c-0.69,0-1.25,0.56-1.25,1.25c0,0.387,0.187,0.72,0.463,0.949L14.44,4.258
		c-0.481,0.427-1.234,0.296-1.542-0.269l-0.529-0.97c0.507-0.159,0.881-0.616,0.881-1.176c0-0.69-0.56-1.25-1.25-1.25
		c-0.69,0-1.25,0.56-1.25,1.25c0,0.56,0.375,1.016,0.882,1.176l-0.529,0.97c-0.308,0.565-1.061,0.696-1.542,0.269L9.037,3.793
		C9.313,3.564,9.5,3.231,9.5,2.844c0-0.69-0.56-1.25-1.25-1.25C7.56,1.594,7,2.153,7,2.844s0.56,1.25,1.25,1.25
		c0.044,0,0.082-0.021,0.125-0.025l0.263,2.058C8.702,6.626,9.127,7,9.63,7h4.74c0.503,0,0.928-0.374,0.992-0.873l0.263-2.058
		c0.043,0.005,0.081,0.025,0.125,0.025c0.69,0,1.25-0.56,1.25-1.25S16.44,1.594,15.75,1.594z M12,10.5c1.381,0,2.5-1.119,2.5-2.5h-5
		C9.5,9.381,10.619,10.5,12,10.5z"/>
</g>
<g id="member">
	<rect id="space_85_" x="0" style="fill:none;" width="24" height="24"/>
	<g>
		<path d="M16,13v4h-1v-4c0-0.55-0.45-1-1-1v10h-1v-4c0-0.55-0.45-1-1-1s-1,0.45-1,1v4h-1V12c-0.55,0-1,0.45-1,1v4H8v-4
			c0-1.1,0.9-2,2-2h4C15.1,11,16,11.9,16,13z M12,5.5c-1.381,0-2.5,1.119-2.5,2.5s1.119,2.5,2.5,2.5s2.5-1.119,2.5-2.5
			S13.381,5.5,12,5.5z"/>
	</g>
</g>
<g id="manager-member">
	<rect id="space_101_" x="0" style="fill:none;" width="24" height="24"/>
	<path d="M19,13v4h-1v-4c0-0.55-0.45-1-1-1v10h-1v-4c0-0.55-0.45-1-1-1s-1,0.45-1,1v4h-1V12h-3v10H9v-4c0-0.55-0.45-1-1-1
		s-1,0.45-1,1v4H6V12c-0.55,0-1,0.45-1,1v4H4v-4c0-1.1,0.9-2,2-2h11C18.1,11,19,11.9,19,13z M4.375,4.069l0.263,2.058
		C4.702,6.626,5.127,7,5.63,7h4.74c0.503,0,0.928-0.374,0.992-0.873l0.263-2.058c0.043,0.005,0.081,0.025,0.125,0.025
		c0.69,0,1.25-0.56,1.25-1.25s-0.56-1.25-1.25-1.25c-0.69,0-1.25,0.56-1.25,1.25c0,0.387,0.187,0.72,0.463,0.949L10.44,4.258
		C9.959,4.686,9.206,4.554,8.898,3.99l-0.529-0.97C8.876,2.86,9.25,2.403,9.25,1.844c0-0.69-0.56-1.25-1.25-1.25
		c-0.69,0-1.25,0.56-1.25,1.25c0,0.56,0.375,1.016,0.882,1.176L7.102,3.99C6.794,4.554,6.041,4.686,5.56,4.258L5.037,3.793
		C5.313,3.564,5.5,3.231,5.5,2.844c0-0.69-0.56-1.25-1.25-1.25C3.56,1.594,3,2.153,3,2.844s0.56,1.25,1.25,1.25
		C4.294,4.094,4.332,4.073,4.375,4.069z M15,10.5c1.381,0,2.5-1.119,2.5-2.5c0-1.381-1.119-2.5-2.5-2.5c-1.381,0-2.5,1.119-2.5,2.5
		C12.5,9.381,13.619,10.5,15,10.5z M8,10.5c1.381,0,2.5-1.119,2.5-2.5h-5C5.5,9.381,6.619,10.5,8,10.5z"/>
</g>
<g id="team">
	<rect id="space_109_" x="0" style="fill:none;" width="24" height="24"/>
	<path d="M7.5,8c0,1.381-1.119,2.5-2.5,2.5S2.5,9.381,2.5,8S3.619,5.5,5,5.5S7.5,6.619,7.5,8z M12,5.5c-1.381,0-2.5,1.119-2.5,2.5
		s1.119,2.5,2.5,2.5s2.5-1.119,2.5-2.5S13.381,5.5,12,5.5z M19,5.5c-1.381,0-2.5,1.119-2.5,2.5s1.119,2.5,2.5,2.5s2.5-1.119,2.5-2.5
		S20.381,5.5,19,5.5z M7,12v10H6v-4c0-0.55-0.45-1-1-1s-1,0.45-1,1v4H3V12c-0.55,0-1,0.45-1,1v4H1v-4c0-1.1,0.9-2,2-2h18
		c1.1,0,2,0.9,2,2v4h-1v-4c0-0.55-0.45-1-1-1v10h-1v-4c0-0.55-0.45-1-1-1s-1,0.45-1,1v4h-1V12h-3v10h-1v-4c0-0.55-0.45-1-1-1
		s-1,0.45-1,1v4h-1V12H7z"/>
</g>
<g id="photo-wire">
	<rect id="space_755_" style="fill:none;" width="24" height="24"/>
	<path d="M12,8c0,1.105-0.895,2-2,2S8,9.105,8,8s0.895-2,2-2S12,6.895,12,8z M23,18V5c0-1.654-1.346-3-3-3H4C2.346,2,1,3.346,1,5v13
		c0,1.654,1.346,3,3,3h16C21.654,21,23,19.654,23,18z M7.5,13.914l3,3l7-7l3.5,3.5V18c0,0.552-0.448,1-1,1H4
		c-0.428,0-0.794-0.271-0.937-0.649L7.5,13.914z M20,4c0.552,0,1,0.448,1,1v5.586l-3.5-3.5l-7,7l-3-3l-4.5,4.5V5
		c0-0.552,0.448-1,1-1H20z"/>
</g>
<g id="film-wire">
	<rect id="space_748_" style="fill:none;" width="24" height="24"/>
	<path d="M9,8v7l6.5-3.5L9,8z M20,21h-1.5v-1c0-0.271-0.229-0.5-0.5-0.5s-0.5,0.229-0.5,0.5v1h-5v-1c0-0.271-0.229-0.5-0.5-0.5
		s-0.5,0.229-0.5,0.5v1h-5v-1c0-0.271-0.229-0.5-0.5-0.5S5.5,19.729,5.5,20v1H4c-1.654,0-3-1.346-3-3V5c0-1.654,1.346-3,3-3h1.5v1
		c0,0.271,0.229,0.5,0.5,0.5S6.5,3.271,6.5,3V2h5v1c0,0.271,0.229,0.5,0.5,0.5s0.5-0.229,0.5-0.5V2h5v1c0,0.271,0.229,0.5,0.5,0.5
		s0.5-0.229,0.5-0.5V2H20c1.654,0,3,1.346,3,3v13C23,19.654,21.654,21,20,21z M14.291,19h1.418c0.387-0.882,1.268-1.5,2.291-1.5
		c1.008,0,1.879,0.6,2.274,1.462C20.692,18.843,21,18.456,21,18V5c0-0.456-0.308-0.843-0.726-0.962C19.879,4.9,19.008,5.5,18,5.5
		c-1.023,0-1.904-0.618-2.291-1.5h-1.418C13.904,4.882,13.023,5.5,12,5.5S10.096,4.882,9.709,4H8.291C7.904,4.882,7.023,5.5,6,5.5
		c-1.008,0-1.879-0.6-2.274-1.462C3.308,4.157,3,4.544,3,5v13c0,0.456,0.308,0.843,0.726,0.962C4.121,18.1,4.992,17.5,6,17.5
		c1.023,0,1.904,0.618,2.291,1.5h1.418c0.387-0.882,1.268-1.5,2.291-1.5S13.904,18.118,14.291,19z"/>
</g>
<g id="bell">
	<rect id="space_412_" style="fill:none;" width="24" height="24"/>
	<path d="M12,22.667c1.381,0,2.5-1.119,2.5-2.5h-5C9.5,21.547,10.619,22.667,12,22.667z M21,16v3H3v-3l3-3V8c0-3.314,2.686-6,6-6h0
		c3.314,0,6,2.686,6,6v5L21,16z"/>
</g>
<g id="bell-ringed">
	<rect id="space_405_" style="fill:none;" width="24" height="24"/>
	<path style="opacity:0.75;" d="M20.329,20.328c-0.128,0-0.256-0.049-0.354-0.146c-0.195-0.195-0.195-0.512,0-0.707
		C20.636,18.813,21,17.935,21,17s-0.364-1.813-1.025-2.475c-0.195-0.195-0.195-0.512,0-0.707s0.512-0.195,0.707,0
		C21.532,14.668,22,15.798,22,17s-0.468,2.332-1.318,3.182C20.584,20.279,20.457,20.328,20.329,20.328z M3.671,20.328
		c-0.128,0-0.256-0.049-0.354-0.146C2.468,19.332,2,18.202,2,17s0.468-2.332,1.318-3.182c0.195-0.195,0.512-0.195,0.707,0
		s0.195,0.512,0,0.707C3.364,15.187,3,16.065,3,17s0.364,1.813,1.025,2.475c0.195,0.195,0.195,0.512,0,0.707
		C3.927,20.279,3.799,20.328,3.671,20.328z"/>
	<path style="opacity:0.5;" d="M21.743,21.742c-0.128,0-0.256-0.049-0.354-0.146c-0.195-0.195-0.195-0.512,0-0.707
		C22.428,19.85,23,18.469,23,17s-0.572-2.85-1.611-3.889c-0.195-0.195-0.195-0.512,0-0.707s0.512-0.195,0.707,0
		C23.324,13.632,24,15.264,24,17s-0.676,3.368-1.904,4.596C21.999,21.693,21.871,21.742,21.743,21.742z M2.257,21.742
		c-0.128,0-0.256-0.049-0.354-0.146C0.676,20.368,0,18.736,0,17s0.676-3.368,1.904-4.596c0.195-0.195,0.512-0.195,0.707,0
		s0.195,0.512,0,0.707C1.572,14.15,1,15.531,1,17s0.572,2.85,1.611,3.889c0.195,0.195,0.195,0.512,0,0.707
		C2.513,21.693,2.385,21.742,2.257,21.742z"/>
	<path d="M17,9v5l2,2v2H5v-2l2-2V9c0-2.761,2.239-5,5-5h0C14.761,4,17,6.239,17,9z M12,21c1.105,0,2-0.895,2-2h-4
		C10,20.105,10.895,21,12,21z"/>
</g>
<g id="bell-muted">
	<rect id="space_1273_" style="fill:none;" width="24" height="24"/>
	<path d="M21.121,18.293l-1.414,1.414l-16-16l1.414-1.414l3.276,3.276C9.302,4.608,10.574,4,12,4c2.761,0,5,2.239,5,5v5.172
		L21.121,18.293z M7,14l-2,2v2h10.172L7,9.828V14z M12,21c1.105,0,2-0.895,2-2h-4C10,20.105,10.895,21,12,21z"/>
</g>
<g id="forwarded">
	<g id="space_40_">
		<rect x="0" style="fill:none;" width="24" height="24"/>
	</g>
	<g>
		<path d="M12.5,20.5c-0.829,0-1.5-0.672-1.5-1.5V9.121l-2.939,2.939c-0.586,0.586-1.535,0.586-2.121,0s-0.586-1.535,0-2.121
			l5.5-5.5c0.586-0.586,1.535-0.586,2.121,0l5.5,5.5c0.586,0.586,0.586,1.535,0,2.121s-1.535,0.586-2.121,0L14,9.121V19
			C14,19.828,13.329,20.5,12.5,20.5z"/>
	</g>
</g>
<g id="replied">
	<rect x="0" style="fill:none;" width="24" height="24"/>
	<path d="M18.58,19.549c-2.085-4.568-5.195-6.522-10.402-6.534H8.136l2.925,2.925c0.586,0.586,0.586,1.535,0,2.121
		s-1.535,0.586-2.121,0l-5.5-5.5c-0.586-0.586-0.586-1.535,0-2.121l5.5-5.5c0.586-0.586,1.535-0.586,2.121,0s0.586,1.535,0,2.121
		l-2.954,2.954h0.074c6.385,0.014,10.555,2.648,13.128,8.29C22.143,20.128,19.395,21.343,18.58,19.549z"/>
</g>
<g id="gear">
	<rect id="space_367_" style="fill:none;" width="24" height="24"/>
	<g id="XMLID_358_">
		<path d="M3.297,13.869l-0.365-0.09c-0.818-0.201-1.425-0.923-1.426-1.765c0-0.01,0-0.019,0-0.029
			c0.001-0.842,0.608-1.564,1.426-1.765l0.365-0.09c0.6-0.147,1.072-0.587,1.305-1.159C4.611,8.95,4.62,8.928,4.629,8.906
			c0.238-0.569,0.215-1.212-0.105-1.74L4.33,6.845c-0.436-0.72-0.355-1.66,0.239-2.256C4.576,4.582,4.583,4.576,4.59,4.569
			c0.596-0.595,1.536-0.676,2.256-0.239l0.321,0.195c0.527,0.319,1.171,0.342,1.74,0.105C8.929,4.619,8.951,4.61,8.973,4.601
			c0.572-0.233,1.012-0.705,1.159-1.305l0.09-0.365c0.201-0.818,0.923-1.425,1.765-1.426c0.01,0,0.019,0,0.029,0
			c0.842,0.001,1.564,0.608,1.765,1.426l0.09,0.365c0.147,0.6,0.587,1.072,1.159,1.305c0.022,0.009,0.044,0.018,0.066,0.027
			c0.569,0.238,1.212,0.215,1.74-0.105l0.321-0.195c0.72-0.436,1.66-0.355,2.256,0.239c0.007,0.007,0.014,0.014,0.021,0.021
			c0.595,0.596,0.676,1.536,0.239,2.256l-0.195,0.321c-0.319,0.527-0.342,1.171-0.105,1.74c0.009,0.022,0.018,0.044,0.027,0.066
			c0.233,0.572,0.705,1.012,1.305,1.159l0.365,0.09c0.818,0.201,1.425,0.923,1.426,1.765c0,0.01,0,0.019,0,0.029
			c-0.001,0.842-0.608,1.564-1.426,1.765l-0.365,0.09c-0.6,0.147-1.072,0.587-1.305,1.159c-0.009,0.022-0.018,0.044-0.027,0.066
			c-0.238,0.569-0.215,1.212,0.105,1.74l0.194,0.321c0.436,0.72,0.355,1.66-0.239,2.256c-0.007,0.007-0.014,0.014-0.021,0.021
			c-0.596,0.595-1.536,0.676-2.256,0.239l-0.321-0.195c-0.527-0.319-1.171-0.342-1.74-0.105c-0.022,0.009-0.044,0.018-0.066,0.027
			c-0.572,0.233-1.012,0.705-1.159,1.305l-0.09,0.365c-0.201,0.818-0.923,1.425-1.765,1.426c-0.01,0-0.019,0-0.029,0
			c-0.842-0.001-1.564-0.608-1.765-1.426l-0.09-0.365c-0.147-0.6-0.587-1.072-1.159-1.305c-0.022-0.009-0.044-0.018-0.066-0.027
			c-0.569-0.238-1.212-0.215-1.74,0.105l-0.321,0.195c-0.72,0.436-1.66,0.355-2.256-0.239c-0.007-0.007-0.014-0.014-0.021-0.021
			c-0.595-0.596-0.676-1.536-0.239-2.256l0.195-0.321c0.319-0.527,0.342-1.171,0.105-1.74c-0.009-0.022-0.018-0.044-0.027-0.066
			C4.369,14.456,3.897,14.016,3.297,13.869z M12,7c-2.761,0-5,2.239-5,5s2.239,5,5,5s5-2.239,5-5S14.761,7,12,7z"/>
	</g>
</g>
<g id="gear-wire">
	<rect id="space_360_" style="fill:none;" width="24" height="24"/>
	<path d="M12.014,3.005c0.137,0,0.27,0.122,0.31,0.284l0.09,0.365c0.257,1.044,1.023,1.918,2.051,2.337l0.052,0.021
		c0.437,0.183,0.895,0.275,1.361,0.275c0.615,0,1.215-0.166,1.734-0.481l0.321-0.195c0.081-0.049,0.159-0.059,0.211-0.059
		c0.06,0,0.145,0.013,0.227,0.096c0.097,0.097,0.105,0.277,0.018,0.42L18.194,6.39c-0.555,0.917-0.632,2.074-0.205,3.096
		l0.022,0.052c0.418,1.027,1.292,1.793,2.336,2.05l0.365,0.09c0.162,0.04,0.284,0.173,0.284,0.335c0,0.137-0.122,0.27-0.284,0.31
		l-0.365,0.09c-1.044,0.257-1.918,1.023-2.336,2.049l-0.022,0.054c-0.427,1.021-0.35,2.178,0.205,3.095l0.194,0.321
		c0.086,0.143,0.078,0.323-0.036,0.438c-0.064,0.064-0.149,0.078-0.209,0.078c-0.051,0-0.13-0.01-0.211-0.059l-0.321-0.194
		c-0.519-0.315-1.119-0.481-1.734-0.481c-0.466,0-0.924,0.093-1.359,0.275l-0.055,0.023c-1.027,0.418-1.793,1.292-2.05,2.336
		l-0.09,0.365c-0.04,0.162-0.173,0.284-0.335,0.284c-0.137,0-0.27-0.122-0.31-0.284l-0.09-0.365
		c-0.257-1.044-1.023-1.918-2.048-2.335l-0.055-0.023c-0.437-0.183-0.895-0.275-1.361-0.275c-0.615,0-1.215,0.166-1.734,0.481
		l-0.321,0.195c-0.081,0.049-0.159,0.059-0.211,0.059c-0.06,0-0.145-0.013-0.227-0.096c-0.097-0.097-0.104-0.277-0.018-0.42
		l0.195-0.321c0.555-0.917,0.632-2.074,0.205-3.096l-0.021-0.052c-0.418-1.027-1.292-1.793-2.336-2.05l-0.365-0.09
		c-0.162-0.04-0.284-0.173-0.284-0.335c0-0.137,0.122-0.27,0.284-0.31l0.365-0.09c1.044-0.257,1.918-1.023,2.336-2.05l0.022-0.053
		C6.44,8.464,6.363,7.307,5.808,6.39L5.613,6.068C5.527,5.926,5.535,5.746,5.65,5.631c0.068-0.068,0.16-0.078,0.209-0.078
		c0.051,0,0.13,0.01,0.21,0.059l0.322,0.195C6.91,6.122,7.51,6.288,8.125,6.288c0.466,0,0.924-0.093,1.363-0.276L9.539,5.99
		c1.027-0.418,1.793-1.292,2.05-2.336l0.09-0.365c0.04-0.162,0.173-0.284,0.308-0.284H12.014 M12.015,1.505c-0.01,0-0.019,0-0.029,0
		c-0.842,0.001-1.564,0.608-1.765,1.426l-0.09,0.365c-0.147,0.6-0.587,1.072-1.159,1.305C8.951,4.61,8.929,4.619,8.907,4.628
		C8.656,4.734,8.389,4.788,8.125,4.788c-0.333,0-0.663-0.086-0.957-0.264L6.846,4.329C6.542,4.145,6.199,4.053,5.859,4.053
		c-0.465,0-0.924,0.172-1.268,0.516C4.583,4.576,4.576,4.582,4.57,4.589C3.975,5.185,3.894,6.125,4.33,6.845l0.195,0.321
		c0.319,0.527,0.342,1.171,0.105,1.74C4.62,8.928,4.611,8.95,4.602,8.972c-0.233,0.572-0.705,1.012-1.305,1.159l-0.365,0.09
		c-0.818,0.201-1.425,0.923-1.426,1.765c0,0.01,0,0.019,0,0.029c0.001,0.842,0.608,1.564,1.426,1.765l0.365,0.09
		c0.6,0.147,1.072,0.587,1.305,1.159c0.009,0.022,0.018,0.044,0.027,0.066c0.238,0.569,0.215,1.212-0.105,1.74L4.33,17.155
		c-0.436,0.72-0.355,1.66,0.239,2.256c0.007,0.007,0.014,0.014,0.021,0.021c0.344,0.344,0.803,0.516,1.268,0.516
		c0.34,0,0.683-0.092,0.988-0.276l0.321-0.195c0.294-0.178,0.624-0.264,0.957-0.264c0.264,0,0.531,0.054,0.783,0.159
		c0.022,0.009,0.044,0.018,0.066,0.027c0.572,0.233,1.012,0.705,1.159,1.305l0.09,0.365c0.201,0.818,0.923,1.425,1.765,1.426
		c0.01,0,0.019,0,0.029,0c0.842-0.001,1.564-0.608,1.765-1.426l0.09-0.365c0.147-0.6,0.587-1.072,1.159-1.305
		c0.022-0.009,0.044-0.018,0.066-0.027c0.252-0.105,0.518-0.159,0.783-0.159c0.333,0,0.663,0.086,0.957,0.264l0.321,0.195
		c0.304,0.184,0.648,0.276,0.988,0.276c0.465,0,0.924-0.172,1.268-0.516c0.007-0.007,0.014-0.014,0.021-0.021
		c0.595-0.596,0.676-1.536,0.239-2.256l-0.194-0.321c-0.319-0.527-0.342-1.171-0.105-1.74c0.009-0.022,0.018-0.044,0.027-0.066
		c0.233-0.572,0.705-1.012,1.305-1.159l0.365-0.09c0.818-0.201,1.425-0.923,1.426-1.765c0-0.01,0-0.019,0-0.029
		c-0.001-0.842-0.608-1.564-1.426-1.765l-0.365-0.09c-0.6-0.147-1.072-0.587-1.305-1.159c-0.009-0.022-0.018-0.044-0.027-0.066
		c-0.238-0.569-0.215-1.212,0.105-1.74l0.195-0.321c0.436-0.72,0.355-1.66-0.239-2.256c-0.007-0.007-0.014-0.014-0.021-0.021
		c-0.344-0.344-0.803-0.516-1.268-0.516c-0.34,0-0.683,0.092-0.988,0.276l-0.321,0.195c-0.294,0.178-0.624,0.264-0.957,0.264
		c-0.264,0-0.531-0.054-0.783-0.159c-0.022-0.009-0.044-0.018-0.066-0.027c-0.572-0.233-1.012-0.705-1.159-1.305l-0.09-0.365
		C13.579,2.113,12.858,1.506,12.015,1.505L12.015,1.505z M12,8.5c1.93,0,3.5,1.57,3.5,3.5s-1.57,3.5-3.5,3.5S8.5,13.93,8.5,12
		S10.07,8.5,12,8.5 M12,7c-2.761,0-5,2.239-5,5s2.239,5,5,5c2.761,0,5-2.239,5-5S14.761,7,12,7L12,7z"/>
</g>
<g id="sort">
	<rect id="space_52_" style="fill:none;" width="24" height="24"/>
	<path d="M16,13H2v-2h14V13z M22,6H2v2h20V6z M10,16H2v2h8V16z"/>
</g>
<g id="filter">
	<rect id="space_825_" style="fill:none;" width="24" height="24"/>
	<polygon points="11,21 9,21 9,12.414 2.293,5.707 3,4 21,4 21.707,5.707 15,12.414 15,17 13,17 13,11.586 18.586,6 5.414,6 
		11,11.586 	"/>
</g>
<g id="list-check">
	<rect id="space_1301_" style="fill:none;" width="24" height="24"/>
	<path d="M5.5,19.914l-5.207-5.207l1.414-1.414L5.5,17.086L16.293,6.293l1.415,1.414L5.5,19.914z M16,19h-6v-2h6V19z M20,15h-6v-2h6
		V15z M24,11h-6V9h6V11z"/>
</g>
<g id="rotateccw">
	<rect id="space_1315_" style="fill:none;" width="24" height="24"/>
	<path d="M21,12h-2c0-3.859-3.141-7-7-7h-0.5v2.465L5.5,4l6-3.465V3H12C16.963,3,21,7.037,21,12z M13,12v7H6v-7H13 M13,10H6
		c-1.105,0-2,0.895-2,2v7c0,1.105,0.895,2,2,2h7c1.105,0,2-0.895,2-2v-7C15,10.895,14.105,10,13,10L13,10z"/>
</g>
<g id="rotatecw">
	<rect id="space_1308_" style="fill:none;" width="24" height="24"/>
	<path d="M5,12H3c0-4.963,4.037-9,9-9h0.5V0.535L18.5,4l-6,3.465V5H12C8.141,5,5,8.141,5,12z M18,12v7h-7v-7H18 M18,10h-7
		c-1.105,0-2,0.895-2,2v7c0,1.105,0.895,2,2,2h7c1.105,0,2-0.895,2-2v-7C20,10.895,19.105,10,18,10L18,10z"/>
</g>
<g id="replace">
	<rect id="space_1322_" style="fill:none;" width="24" height="24"/>
	<path d="M9.293,22.707L4.586,18l4.707-4.707l1.414,1.414L8.414,17H17v-6h2v6c0,1.103-0.897,2-2,2H8.414l2.293,2.293L9.293,22.707z
		 M7,13H5V7c0-1.103,0.897-2,2-2h8.586l-2.293-2.293l1.414-1.414L19.414,6l-4.707,4.707l-1.414-1.414L15.586,7H7V13z"/>
</g>
<g id="expand">
	<rect id="space_816_" x="0" style="fill:none;" width="24" height="24"/>
	<path d="M20,5v6h-2V7.414L14.414,11L13,9.586L16.586,6H13V4h6C19.552,4,20,4.448,20,5z M9.586,13L6,16.586V13H4v6
		c0,0.552,0.448,1,1,1h6v-2H7.414L11,14.414L9.586,13z"/>
</g>
<g id="collapse">
	<rect id="space_808_" x="0" style="fill:none;" width="24" height="24"/>
	<path d="M11,14v6H9v-3.586L5.414,20L4,18.586L7.586,15H4v-2h6C10.552,13,11,13.448,11,14z M20,5.414L18.586,4L15,7.586V4h-2v6
		c0,0.552,0.448,1,1,1h6V9h-3.586L20,5.414z"/>
</g>
<g id="sarrow">
	<rect id="space_1357_" style="fill:none;" width="24" height="24"/>
	<polygon points="12,15 17,10 7,10 	"/>
</g>
<g id="sync">
	<rect id="space_1364_" style="fill:none;" width="24" height="24"/>
	<path d="M19.371,15.114l-1.842-0.779c0.796-1.882,0.604-3.939-0.527-5.646C15.886,7.005,14.016,6,12,6v3L8,5l4-4v3
		c2.688,0,5.182,1.34,6.669,3.584C20.155,9.826,20.417,12.641,19.371,15.114z M12,18c-2.016,0-3.886-1.006-5.002-2.689
		c-1.131-1.706-1.323-3.764-0.527-5.646L4.629,8.886c-1.046,2.474-0.784,5.288,0.701,7.529C6.818,18.66,9.312,20,12,20v3l4-4l-4-4
		V18z"/>
</g>
<g id="earth">
	<rect id="space_181_" x="0" style="fill:none;" width="24" height="24"/>
	<path d="M12,2.5c-5.247,0-9.5,4.253-9.5,9.5s4.253,9.5,9.5,9.5s9.5-4.253,9.5-9.5S17.247,2.5,12,2.5z M4.5,12
		c0-1.139,0.263-2.216,0.719-3.184c0.016,0.019,0.024,0.043,0.046,0.059C5.344,8.94,5.448,8.966,5.553,8.992
		c0.432,0.131,0.85,0.392,1.098,0.785c0.131,0.183,0.209,0.405,0.366,0.575c0.144,0.17,0.392,0.288,0.602,0.196
		c-0.013-0.065-0.013-0.131-0.026-0.196c0.052-0.065,0.17,0.013,0.209,0.105c0.275,0.654-0.51,1.308-0.51,2.027
		c0,0.523,0.418,0.942,0.588,1.438c0.065,0.196,0.092,0.418,0.196,0.589c0.196,0.34,0.615,0.471,0.902,0.745
		c0.445,0.445,0.445,1.151,0.484,1.778c0.056,0.742,0.239,1.476,0.5,2.177C6.815,18.321,4.5,15.429,4.5,12z M12,19.5
		c-0.391,0-0.773-0.039-1.148-0.097c0.05-0.17,0.074-0.348,0.037-0.524c0.379-0.118,0.811-0.275,0.955-0.641
		c0.379-0.052,0.641-0.392,0.824-0.719c0.17-0.34,0.314-0.719,0.602-0.955c0.445-0.392,1.229-0.458,1.399-1.02
		c0.065-0.183,0.026-0.392,0.065-0.575c0.052-0.353,0.327-0.667,0.667-0.772c0.092-0.026,0.196-0.052,0.248-0.131
		c0.039-0.078,0.026-0.157,0.013-0.235c-0.065-0.262-0.118-0.523-0.183-0.798c-0.418-0.301-0.955-0.392-1.452-0.549
		c-0.484-0.157-0.942-0.366-1.36-0.628c0.026-0.51-0.432-0.994-0.942-1.007c-0.105,0-0.222,0.013-0.314-0.026
		c-0.092-0.052-0.157-0.183-0.092-0.261c-0.235,0.039-0.497-0.092-0.601-0.314c-0.013-0.052-0.039-0.105-0.078-0.144
		c-0.052-0.026-0.105-0.039-0.157-0.039c-0.458-0.039-0.928-0.065-1.386-0.105C8.639,9.921,8.051,9.973,7.92,10.405
		c-0.118-0.079-0.248-0.17-0.379-0.262c-0.092,0.052-0.196,0.092-0.288,0.144c-0.17-0.314-0.183-0.693-0.039-1.02
		C7.083,9.123,6.887,9.045,6.691,9.045c0-0.144,0.078-0.275,0.144-0.405c0.078-0.131,0.131-0.288,0.078-0.418
		C6.848,8.077,6.625,8.038,6.56,8.168C6.534,8.208,6.547,8.273,6.534,8.312C6.482,8.495,6.207,8.522,6.076,8.404
		c-0.131-0.131-0.157-0.34-0.118-0.523C6.102,7.266,6.782,6.9,7.423,6.887c0.183-0.013,0.432,0.078,0.432,0.248
		c0-0.026,0.013-0.039,0-0.065c0.039,0.105,0.118,0.196,0.196,0.248C8.221,6.9,8.312,6.442,8.325,5.998
		c0.575,0.105,1.19-0.314,1.308-0.889c0.292,0.046,0.52-0.221,0.76-0.431C10.911,4.564,11.448,4.5,12,4.5
		c1.167,0,2.269,0.276,3.255,0.754c-0.046,0.072-0.085,0.14-0.104,0.195c-0.078,0.235,0.013,0.301-0.013,0.549
		c-0.026,0.327-0.235,0.523-0.405,0.745c0.052,0.222,0.235,0.497,0.275,0.68c0.026,0.092-0.065,0.275-0.039,0.34
		c0.065,0.183,0.248,0.222,0.392,0.379c-0.379,0.458-0.078,0.994,0.275,1.399c0.235,0.301,0.615,0.471,0.85,0.772
		c0.052,0.078,0,0.183,0.052,0.261c0.118,0.157,0.288,0.262,0.405,0.418c0.445-0.17,0.275-0.196,0.785-0.013
		c0.157-0.17,0.523-0.497,0.811-0.471c0.458,0.026,0.418,0.471,0.876,0.497c0.012,0.19,0.036,0.379,0.064,0.568
		C19.486,11.716,19.5,11.856,19.5,12C19.5,16.135,16.135,19.5,12,19.5z"/>
</g>
<g id="star">
	<rect id="space_381_" style="fill:none;" width="24" height="24"/>
	<polygon id="XMLID_217_" points="16.174,13.939 22.972,9 14.569,9 11.972,1.008 9.375,9 0.972,9 7.77,13.939 5.174,21.931 
		11.972,16.992 18.77,21.931 	"/>
</g>
<g id="star-wire">
	<rect id="space_374_" style="fill:none;" width="24" height="24"/>
	<path d="M11.972,5.862l1.17,3.602l0.337,1.036h1.09h3.787l-3.063,2.226l-0.882,0.641l0.337,1.036l1.17,3.602l-3.063-2.226
		l-0.882-0.641l-0.882,0.641l-3.064,2.226l1.17-3.602l0.337-1.036l-0.882-0.641L5.589,10.5h3.787h1.09l0.337-1.036L11.972,5.862
		 M11.972,1.008L9.375,9H0.972l6.798,4.939l-2.597,7.992l6.798-4.939l6.798,4.939l-2.597-7.992L22.972,9h-8.403L11.972,1.008
		L11.972,1.008z"/>
</g>
<g id="square-clock-wire">
	<rect id="space_311_" style="fill:none;" width="24" height="24"/>
	<path d="M19,22H5c-1.654,0-3-1.346-3-3V5c0-1.654,1.346-3,3-3h14c1.654,0,3,1.346,3,3v14C22,20.654,20.654,22,19,22z M5,4
		C4.449,4,4,4.448,4,5v14c0,0.552,0.449,1,1,1h14c0.551,0,1-0.448,1-1V5c0-0.552-0.449-1-1-1H5z M14.293,16.707L11,13.414V6h2v6.586
		l2.707,2.707L14.293,16.707z"/>
</g>
<g id="square-clock">
	<rect id="space_318_" style="fill:none;" width="24" height="24"/>
	<path style="fill-rule:evenodd;clip-rule:evenodd;" d="M19,22H5c-1.654,0-3-1.346-3-3V5c0-1.654,1.346-3,3-3h14
		c1.654,0,3,1.346,3,3v14C22,20.654,20.654,22,19,22z M14.293,16.707L11,13.414V6h2v6.586l2.707,2.707L14.293,16.707z"/>
</g>
<g id="atsign">
	<g id="space_419_">
		<rect style="fill:none;" width="24" height="24"/>
	</g>
	<path d="M12.316,22.639c-0.404,0-0.815-0.019-1.234-0.057c-3.12-0.275-5.688-1.512-7.422-3.575c-1.737-2.066-2.51-4.809-2.235-7.93
		C1.69,8.056,3.049,5.42,5.25,3.653c2.11-1.692,4.836-2.489,7.679-2.237c5.797,0.511,8.044,3.555,8.867,5.323
		c1.23,2.642,0.966,5.971-0.655,8.284c-1.195,1.703-2.949,2.577-4.797,2.423c-0.985-0.148-1.708-0.577-2.172-1.25
		c-0.064-0.094-0.122-0.19-0.175-0.29c-1.193,0.925-2.748,1.394-4.635,1.06c-1.675-0.296-2.921-1.422-3.419-3.089
		c-0.601-2.012,0.071-4.378,1.672-5.886c1.199-1.13,3.945-2.753,8.87-0.96c0.592,0.216,0.931,0.839,0.791,1.452
		c-0.225,0.985-0.438,1.971-0.614,2.799c-0.004,0.033-0.01,0.066-0.017,0.1c-0.02,0.097-0.042,0.192-0.065,0.289
		c-0.219,1.037-0.361,1.744-0.361,1.744c-0.164,0.758-0.1,1.198,0.014,1.363c0.063,0.092,0.202,0.155,0.412,0.188
		c1.202,0.094,2.059-0.818,2.451-1.378c0.937-1.337,1.436-3.646,0.436-5.794c-0.728-1.563-2.502-3.507-6.821-3.888
		c-2.194-0.192-4.289,0.41-5.895,1.697c-1.688,1.354-2.691,3.323-2.9,5.692c-0.215,2.445,0.358,4.555,1.659,6.102
		c1.3,1.547,3.282,2.479,5.731,2.694c1.807,0.166,3.418-0.104,4.79-0.797c0.616-0.311,1.368-0.063,1.679,0.554
		c0.311,0.616,0.063,1.368-0.553,1.679C15.754,22.267,14.109,22.639,12.316,22.639z M12.385,8.734c-1.254,0-2.297,0.36-3.057,1.076
		c-1.074,1.012-1.271,2.412-0.991,3.352c0.156,0.522,0.536,1.179,1.459,1.343c3.085,0.541,4.092-2.397,4.35-3.42
		c0.126-0.598,0.276-1.299,0.439-2.035C13.799,8.839,13.062,8.734,12.385,8.734z"/>
</g>
<g id="comment">
	<rect id="space_395_" style="fill:none;" width="24" height="24"/>
	<path style="fill-rule:evenodd;clip-rule:evenodd;" d="M17.5,9H7L1,3v11.5C1,17.54,3.46,20,6.5,20h11c1.52,0,2.9-0.62,3.89-1.61
		C22.38,17.4,23,16.02,23,14.5C23,11.46,20.54,9,17.5,9z M6.5,16C5.672,16,5,15.328,5,14.5S5.672,13,6.5,13S8,13.672,8,14.5
		S7.328,16,6.5,16z M12,16c-0.828,0-1.5-0.672-1.5-1.5S11.172,13,12,13s1.5,0.672,1.5,1.5S12.828,16,12,16z M17.5,16
		c-0.828,0-1.5-0.672-1.5-1.5s0.672-1.5,1.5-1.5s1.5,0.672,1.5,1.5S18.328,16,17.5,16z"/>
</g>
<g id="comments">
	<rect id="space_388_" style="fill:none;" width="24" height="24"/>
	<path style="opacity:0.5;fill-rule:evenodd;clip-rule:evenodd;" d="M17.9,10H11c-3.39,0-6.23,2.43-6.87,5.64C2.3,14.9,1,13.1,1,11
		V2l4,4h8c1.38,0,2.63,0.56,3.54,1.46C17.22,8.14,17.7,9.02,17.9,10z"/>
	<path style="fill-rule:evenodd;clip-rule:evenodd;" d="M23,8l-4,4h-8c-2.761,0-5,2.239-5,5v0c0,2.761,2.239,5,5,5h7
		c2.761,0,5-2.239,5-5V8 M11,15.75c-0.69,0-1.25,0.56-1.25,1.25s0.56,1.25,1.25,1.25s1.25-0.56,1.25-1.25S11.69,15.75,11,15.75z
		 M18,15.75c-0.69,0-1.25,0.56-1.25,1.25s0.56,1.25,1.25,1.25s1.25-0.56,1.25-1.25S18.69,15.75,18,15.75z M14.5,15.75
		c-0.69,0-1.25,0.56-1.25,1.25s0.56,1.25,1.25,1.25s1.25-0.56,1.25-1.25S15.19,15.75,14.5,15.75z"/>
</g>
<g id="unread-circle">
	<rect id="space_3_" x="0" style="fill:none;" width="24" height="24"/>
	<circle cx="12" cy="12" r="4"/>
</g>
<g id="log">
	<rect id="space_1119_" style="fill:none;" width="24" height="24"/>
	<path style="fill-rule:evenodd;clip-rule:evenodd;" d="M19.25,2c0,0.69-0.214,1.25-1.25,1.25S16.75,2.69,16.75,2h-1.5
		c0,0.69-0.214,1.25-1.25,1.25S12.75,2.69,12.75,2h-1.5c0,0.69-0.214,1.25-1.25,1.25S8.75,2.69,8.75,2h-1.5
		c0,0.69-0.214,1.25-1.25,1.25S4.75,2.69,4.75,2H4v20h0.75c0-0.69,0.214-1.25,1.25-1.25S7.25,21.31,7.25,22h1.5
		c0-0.69,0.214-1.25,1.25-1.25s1.25,0.56,1.25,1.25h1.5c0-0.69,0.214-1.25,1.25-1.25s1.25,0.56,1.25,1.25h1.5
		c0-0.69,0.214-1.25,1.25-1.25s1.25,0.56,1.25,1.25H20V2H19.25z M16.5,17h-9c-0.552,0-1-0.448-1-1c0-0.552,0.448-1,1-1h9
		c0.552,0,1,0.448,1,1C17.5,16.552,17.052,17,16.5,17z M16.5,13h-9c-0.552,0-1-0.448-1-1c0-0.552,0.448-1,1-1h9c0.552,0,1,0.448,1,1
		C17.5,12.552,17.052,13,16.5,13z M16.5,9h-9c-0.552,0-1-0.448-1-1c0-0.552,0.448-1,1-1h9c0.552,0,1,0.448,1,1
		C17.5,8.552,17.052,9,16.5,9z"/>
</g>
<g id="place-members">
	<rect id="space_1105_" style="fill:none;" width="24" height="24"/>
	<path style="fill-rule:evenodd;clip-rule:evenodd;" d="M19,4h-4.711C13.903,3.118,13.025,2.5,12,2.5S10.097,3.118,9.711,4H5
		C3.895,4,3,4.895,3,6v14c0,1.104,0.895,2,2,2h14c1.105,0,2-0.896,2-2V6C21,4.895,20.105,4,19,4z M12,4c0.552,0,1,0.448,1,1
		s-0.448,1-1,1s-1-0.448-1-1S11.448,4,12,4z M12,8.25c2.071,0,3.75,1.679,3.75,3.75s-1.679,3.75-3.75,3.75S8.25,14.071,8.25,12
		S9.929,8.25,12,8.25z M17,20H7v-1c0-1.105,0.895-2,2-2h6c1.105,0,2,0.895,2,2V20z"/>
</g>
<g id="file">
	<rect id="space_1112_" style="fill:none;" width="24" height="24"/>
	<path d="M18,22H6c-1.105,0-2-0.895-2-2V4c0-1.105,0.895-2,2-2h8l6,6v12C20,21.105,19.105,22,18,22z M15.5,12h-7
		c-0.552,0-1,0.448-1,1v0c0,0.552,0.448,1,1,1h7c0.552,0,1-0.448,1-1v0C16.5,12.448,16.052,12,15.5,12z M15.5,16h-7
		c-0.552,0-1,0.448-1,1v0c0,0.552,0.448,1,1,1h7c0.552,0,1-0.448,1-1v0C16.5,16.448,16.052,16,15.5,16z M13,3.83V9h5.17L13,3.83z"/>
</g>
<g id="sent-message">
	<rect id="space_24_" x="0" style="fill:none;" width="24" height="24"/>
	<path style="fill-rule:evenodd;clip-rule:evenodd;" d="M24,8v9c0,1.105-0.895,2-2,2H9c-1.105,0-2-0.895-2-2v-1H4v-2h3v-2H0v-2h7V8
		H2V6h6.999v0L9,6h13C23.105,6,24,6.895,24,8z M22,9.368l-6.5,3.028L9,9.368v2.206l6.5,3.029l6.5-3.029V9.368z"/>
</g>
<g id="messages">
	<rect id="space_341_" x="0" style="fill:none;" width="24" height="24"/>
	<path style="fill-rule:evenodd;clip-rule:evenodd;" d="M15,8H2c-1.105,0-2,0.895-2,2v9c0,1.105,0.895,2,2,2h13c1.105,0,2-0.895,2-2
		v-9C17,8.895,16.105,8,15,8z M2,13.574l6.5,3.029l6.5-3.029v-2.206l-6.5,3.029L2,11.368V13.574z M24,6v9c0,1.1-0.9,2-2,2h-4v-4.82
		l4-1.87V8.1l-4,1.87C17.98,8.33,16.64,7,15,7H7V6c0-1.1,0.9-2,2-2h13C23.1,4,24,4.9,24,6z"/>
</g>
<g id="unread-message">
	<rect id="space_440_" x="0" style="fill:none;" width="24" height="24"/>
	<path d="M22,11.578V19c0,1.105-0.895,2-2,2H4c-1.105,0-2-0.895-2-2V7c0-1.105,0.895-2,2-2h11.422C15.154,5.613,15,6.288,15,7
		c0,2.761,2.239,5,5,5C20.712,12,21.387,11.846,22,11.578z M15.071,11.968L12,13.4L4,9.67v2.2l8,3.73l4.949-2.307
		C16.251,12.954,15.615,12.509,15.071,11.968z M20,4c-1.657,0-3,1.343-3,3s1.343,3,3,3s3-1.343,3-3S21.657,4,20,4z"/>
</g>
<g id="microphone">
	<rect id="space_762_" style="fill:none;" width="24" height="24"/>
	<path d="M7,12.5v-6c0-2.761,2.239-5,5-5s5,2.239,5,5v6c0,2.761-2.239,5-5,5S7,15.261,7,12.5z M17,22h-4v-1.059
		c4.218-0.496,7.5-4.093,7.5-8.441c0-0.553-0.447-1-1-1s-1,0.447-1,1c0,3.584-2.916,6.5-6.5,6.5s-6.5-2.916-6.5-6.5
		c0-0.553-0.447-1-1-1c-0.552,0-1,0.447-1,1c0,4.349,3.282,7.945,7.5,8.441V22H7c-0.553,0-1,0.447-1,1s0.447,1,1,1h10
		c0.553,0,1-0.447,1-1S17.553,22,17,22z"/>
</g>
<g id="camera">
	<rect id="space_783_" style="fill:none;" width="24" height="24"/>
	<g>
		<path d="M23,9v9c0,2.209-1.791,4-4,4H5c-2.209,0-4-1.791-4-4V9c0-2.209,1.791-4,4-4h1l3-3h6l3,3h1C21.209,5,23,6.791,23,9z M12,7
			c-3.314,0-6,2.686-6,6s2.686,6,6,6s6-2.686,6-6S15.314,7,12,7z"/>
	</g>
</g>
<g id="bookmark-sign-wire">
	<rect id="space_622_" style="fill:none;" width="24" height="24"/>
	<path d="M17,3c0.551,0,1,0.449,1,1v14.172l-4.586-4.586L12,12.172l-1.414,1.414L6,18.172V4c0-0.551,0.449-1,1-1H17 M17,1H7
		C5.343,1,4,2.343,4,4v19l8-8l8,8V4C20,2.343,18.657,1,17,1L17,1z"/>
</g>
<g id="bookmark-sign">
	<rect id="space_615_" style="fill:none;" width="24" height="24"/>
	<path d="M20,23l-8-8l-8,8V4c0-1.657,1.343-3,3-3h10c1.657,0,3,1.343,3,3V23z"/>
</g>
<g id="person">
	<rect id="space_468_" style="fill:none;" width="24" height="24"/>
	<path d="M5,21v-3c0-2.209,1.791-4,4-4h6c2.209,0,4,1.791,4,4v3H5z M7.5,7c0,2.485,2.015,4.5,4.5,4.5s4.5-2.015,4.5-4.5
		S14.485,2.5,12,2.5S7.5,4.515,7.5,7z"/>
</g>
<g id="hourglass">
	<rect id="space_461_" style="fill:none;" width="24" height="24"/>
	<g style="opacity:0.2;">
		<path d="M17,17.66V21H7v-3.34c0-1.06,0.42-2.08,1.17-2.83L10,13v-2L8.17,9.17C7.58,8.58,7.19,7.82,7.06,7h9.88
			c-0.13,0.82-0.52,1.58-1.11,2.17L14,11v2l1.83,1.83C16.58,15.58,17,16.6,17,17.66z"/>
	</g>
	<path d="M15.828,9.172C16.579,8.421,17,7.404,17,6.343V4h1V3c0-0.552-0.448-1-1-1H7C6.448,2,6,2.448,6,3v1h1v2.343
		c0,1.061,0.421,2.078,1.172,2.828L10,11v2l-1.828,1.828C7.421,15.579,7,16.596,7,17.657V20H6v1c0,0.552,0.448,1,1,1h10
		c0.552,0,1-0.448,1-1v-1h-1v-2.343c0-1.061-0.421-2.078-1.172-2.828L14,13v-2L15.828,9.172z M13.293,13.707l1.828,1.828
		C15.688,16.102,16,16.856,16,17.657V20H8v-2.343c0-0.801,0.312-1.555,0.879-2.121l1.828-1.828L11,13.414v-2.828l-0.293-0.293
		L8.879,8.465C8.312,7.898,8,7.144,8,6.343V4h8v2.343c0,0.801-0.312,1.555-0.879,2.121l-1.828,1.828L13,10.586v2.828L13.293,13.707z
		"/>
</g>
<g id="retract-wire">
	<rect id="space_339_" style="fill:none;" width="24" height="24"/>
	<path d="M15,8.128V6.75C15,6.336,14.664,6,14.25,6h-1.46c0.193-2.131,1.131-2.75,3.71-2.75c0.414,0,0.75-0.336,0.75-0.75
		s-0.336-0.75-0.75-0.75c-3.418,0-4.935,1.223-5.196,4.25H9.75C9.336,6,9,6.336,9,6.75v1.378C6.352,9.286,4.5,11.925,4.5,15
		c0,4.142,3.358,7.5,7.5,7.5s7.5-3.358,7.5-7.5C19.5,11.925,17.648,9.286,15,8.128z M12,20.5c-3.033,0-5.5-2.467-5.5-5.5
		S8.967,9.5,12,9.5s5.5,2.467,5.5,5.5S15.033,20.5,12,20.5z M14.828,16.414c0.391,0.391,0.391,1.023,0,1.414
		c-0.195,0.195-0.451,0.293-0.707,0.293s-0.512-0.098-0.707-0.293L11,15.414V12c0-0.553,0.447-1,1-1s1,0.447,1,1v2.586
		L14.828,16.414z"/>
</g>
<g id="retract">
	<rect id="space_346_" style="fill:none;" width="24" height="24"/>
	<g>
		<path d="M15,8.128V6.75C15,6.336,14.664,6,14.25,6h-1.46c0.193-2.131,1.131-2.75,3.71-2.75c0.414,0,0.75-0.336,0.75-0.75
			s-0.336-0.75-0.75-0.75c-3.418,0-4.935,1.223-5.196,4.25H9.75C9.336,6,9,6.336,9,6.75v1.378C6.352,9.286,4.5,11.925,4.5,15
			c0,4.142,3.358,7.5,7.5,7.5s7.5-3.358,7.5-7.5C19.5,11.925,17.648,9.286,15,8.128z M14.828,17.828
			c-0.195,0.195-0.451,0.293-0.707,0.293s-0.512-0.098-0.707-0.293L11,15.414V12c0-0.553,0.447-1,1-1s1,0.447,1,1v2.586l1.828,1.828
			C15.219,16.805,15.219,17.438,14.828,17.828z"/>
	</g>
</g>
<g id="bin">
	<rect id="space_353_" style="fill:none;" width="24" height="24"/>
	<path d="M15,4H9V3c0-0.552,0.448-1,1-1h4c0.552,0,1,0.448,1,1V4z M19,6v1h-1v12c0,1.105-0.895,2-2,2H8c-1.105,0-2-0.895-2-2V7H5V6
		c0-0.552,0.448-1,1-1h12C18.552,5,19,5.448,19,6z M10.5,9h-1v9h1V9z M14.5,9h-1v9h1V9z"/>
</g>
<g id="nested3d">
	<g>
		<g>
			<path d="M22,14.44V9.698c0-1.191-0.635-2.292-1.667-2.887L12,2L3.667,6.811C2.635,7.407,2,8.507,2,9.698v4.742
				C2,24.501,22,24.501,22,14.44z M12,14.51L3.667,9.698c0-0.594,0.319-1.147,0.833-1.443l7.5-4.33l7.5,4.33
				c0.514,0.297,0.833,0.85,0.833,1.443L12,14.51z"/>
		</g>
		
			<radialGradient id="SVGID_2_" cx="2.2854" cy="-89.9426" r="11.4175" gradientTransform="matrix(-0.875 0 0 -0.6562 13.9995 -44.5372)" gradientUnits="userSpaceOnUse">
			<stop  offset="0" style="stop-color:#000000"/>
			<stop  offset="1" style="stop-color:#000000;stop-opacity:0"/>
		</radialGradient>
		<path style="fill:url(#SVGID_2_);" d="M12,14.51l9.878-5.703C21.958,9.093,22,9.393,22,9.698v4.742C22,19.418,16.959,22,12,22
			V14.51z"/>
	</g>
	<rect id="space_11_" style="fill:none;" width="24" height="24"/>
</g>
<g id="pencil">
	<rect id="space_600_" x="0" style="fill:none;" width="24" height="24"/>
	<path d="M17.293,10.707l-7.465,7.465C8.017,19.983,5.561,21,3,21c0-2.561,1.017-5.017,2.828-6.828l7.465-7.465L17.293,10.707z
		 M20,4c-1.105-1.105-2.895-1.105-4,0l-1.293,1.293l4,4L20,8C21.105,6.895,21.105,5.105,20,4z"/>
</g>
<g id="ask_1_">
	<rect id="space_720_" x="0" style="fill:none;" width="24" height="24"/>
	<path d="M22,12c0,5.523-4.477,10-10,10S2,17.523,2,12S6.477,2,12,2S22,6.477,22,12z M12.568,13.864v-0.46
		c0-0.307,0.064-0.554,0.195-0.744c0.13-0.19,0.441-0.466,0.932-0.829c0.716-0.512,1.203-0.972,1.458-1.381
		c0.255-0.409,0.384-0.896,0.384-1.458c0-0.844-0.311-1.519-0.932-2.026c-0.622-0.506-1.459-0.759-2.514-0.759
		c-1.278,0-2.487,0.319-3.629,0.958l0.836,1.681c0.982-0.502,1.858-0.753,2.626-0.753c0.439,0,0.781,0.088,1.027,0.262
		c0.246,0.173,0.368,0.427,0.368,0.759c0,0.297-0.085,0.565-0.257,0.806c-0.172,0.24-0.525,0.552-1.063,0.935
		c-0.557,0.41-0.94,0.797-1.15,1.159c-0.211,0.363-0.315,0.791-0.315,1.282v0.566H12.568z M10.642,17.452
		c0.236,0.227,0.568,0.34,0.997,0.34c0.42,0,0.746-0.116,0.982-0.349c0.236-0.233,0.353-0.551,0.353-0.954
		c0-0.42-0.116-0.742-0.349-0.968c-0.233-0.225-0.562-0.338-0.986-0.338c-0.439,0-0.776,0.11-1.004,0.331
		c-0.232,0.22-0.346,0.545-0.346,0.975C10.289,16.902,10.406,17.225,10.642,17.452z"/>
</g>
<g id="open-message">
	<rect id="space_12_" x="0" style="fill:none;" width="24" height="24"/>
	<path style="fill-rule:evenodd;clip-rule:evenodd;" d="M3.155,6.857L12,2.733l8.845,4.124C21.55,7.186,22,7.892,22,8.67L22,18
		c0,1.105-0.895,2-2,2H4c-1.105,0-2-0.895-2-2l0-9.33C2,7.892,2.45,7.186,3.155,6.857z M20,8.67v2.2l-8,3.73l-8-3.73v-2.2l8-3.73
		L20,8.67z"/>
</g>
<g id="home-wire">
	<rect id="space_290_" style="fill:none;" width="24" height="24"/>
	<g>
		<path d="M12,4.655l9.211,4.292C21.387,9.029,21.5,9.207,21.5,9.4V19c0,0.276-0.224,0.5-0.5,0.5h-4.5V15c0-2.481-2.019-4.5-4.5-4.5
			S7.5,12.519,7.5,15v4.5H3c-0.276,0-0.5-0.224-0.5-0.5V9.4c0-0.194,0.113-0.371,0.289-0.453L12,4.655 M12,3L2.155,7.588
			C1.451,7.916,1,8.623,1,9.4V19c0,1.105,0.895,2,2,2h6v-6c0-1.657,1.343-3,3-3s3,1.343,3,3v6h6c1.105,0,2-0.895,2-2V9.4
			c0-0.777-0.451-1.484-1.155-1.813L12,3L12,3z"/>
	</g>
</g>
<g id="home">
	<rect id="space_283_" style="fill:none;" width="24" height="24"/>
	<path d="M15,15v6h6c1.105,0,2-0.895,2-2V9.4c0-0.777-0.451-1.484-1.155-1.813L12,3L2.155,7.588C1.451,7.916,1,8.623,1,9.4V19
		c0,1.105,0.895,2,2,2h6v-6c0-1.657,1.343-3,3-3h0C13.657,12,15,13.343,15,15z"/>
</g>
<g id="message-history-wire">
	<rect id="space_171_" style="fill:none;" width="24" height="24"/>
	<path d="M16,22.5c-2.666,0-5.012-1.398-6.342-3.5H3c-1.103,0-2-0.897-2-2V5c0-1.103,0.897-2,2-2h16c1.103,0,2,0.897,2,2v4.414
		c1.533,1.375,2.5,3.369,2.5,5.586C23.5,19.136,20.136,22.5,16,22.5z M16,9.5c-3.032,0-5.5,2.468-5.5,5.5s2.468,5.5,5.5,5.5
		s5.5-2.468,5.5-5.5S19.032,9.5,16,9.5z M3,9.875V17h5.771C8.595,16.363,8.5,15.692,8.5,15c0-0.832,0.137-1.633,0.388-2.382L3,9.875
		z M3,7.668l6.772,3.156C11.12,8.82,13.409,7.5,16,7.5c1.066,0,2.081,0.224,3,0.626V5H3V7.668z M17.293,17.707l-2-2
		C15.105,15.52,15,15.266,15,15v-4h2v3.586l1.707,1.707L17.293,17.707z"/>
</g>
<g id="message-history">
	<rect id="space_164_" style="fill:none;" width="24" height="24"/>
	<path style="fill-rule:evenodd;clip-rule:evenodd;" d="M21,9.426L21,9.426V5c0-1.105-0.895-2-2-2H3C1.895,3,1,3.895,1,5v12
		c0,1.105,0.895,2,2,2h6.667c1.331,2.099,3.669,3.5,6.333,3.5c4.136,0,7.5-3.364,7.5-7.5C23.5,12.786,22.53,10.8,21,9.426z M3,7.67
		l6.772,3.157c-0.172,0.256-0.323,0.527-0.464,0.804c-0.022,0.044-0.043,0.088-0.064,0.132c-0.133,0.276-0.251,0.56-0.35,0.854
		L3,9.87V7.67z M16,9.5c-3.032,0-5.5,2.468-5.5,5.5s2.468,5.5,5.5,5.5s5.5-2.468,5.5-5.5S19.032,9.5,16,9.5z M17.293,17.707
		L15,15.414V11h2v3.586l1.707,1.707L17.293,17.707z"/>
</g>
<g id="message-baloon">
	<rect id="space_185_" style="fill:none;" width="24" height="24"/>
	<path d="M20,17H7l-5,5V5c0-1.105,0.895-2,2-2h16c1.105,0,2,0.895,2,2v10C22,16.105,21.105,17,20,17z M12,10.4L4,6.67v2.2l8,3.73
		l8-3.73v-2.2L12,10.4z"/>
</g>
<g id="message-baloon-wire">
	<rect id="space_178_" style="fill:none;" width="24" height="24"/>
	<path d="M20,3H4C2.895,3,2,3.895,2,5v17l5-5h13c1.105,0,2-0.895,2-2V5C22,3.895,21.105,3,20,3z M20,5v1.668l-8,3.728L4,6.668V5H20z
		 M6.172,15l-0.586,0.586L4,17.172V8.875l8,3.729l8-3.729V15H6.172z"/>
</g>
<g id="arrow">
	<rect x="0" style="fill:none;" width="24" height="24"/>
	<polygon points="12,16.414 6.293,10.707 7.707,9.293 12,13.586 16.293,9.293 17.707,10.707 	"/>
</g>
<g id="arrow-up">
	<rect x="0" y="0" style="fill:none;" width="24" height="24"/>
	<polygon points="12,7.586 17.707,13.293 16.293,14.707 12,10.414 7.707,14.707 6.293,13.293 	"/>
</g>
<g id="nonsearch">
	<rect id="space_1385_" style="fill:none;" width="24" height="24"/>
	<path d="M12.475,8.232L10.707,10l1.768,1.768l-0.707,0.707L10,10.707l-1.768,1.768l-0.707-0.707L9.293,10L7.525,8.232l0.707-0.707
		L10,9.293l1.768-1.768L12.475,8.232z M20.205,20.205c-0.439,0.439-1.152,0.439-1.591,0l-4.887-4.887
		C12.67,16.06,11.386,16.5,10,16.5c-3.584,0-6.5-2.916-6.5-6.5S6.416,3.5,10,3.5s6.5,2.916,6.5,6.5c0,1.386-0.44,2.67-1.183,3.727
		l4.887,4.887C20.644,19.053,20.644,19.765,20.205,20.205z M10,14.5c2.481,0,4.5-2.019,4.5-4.5S12.481,5.5,10,5.5S5.5,7.519,5.5,10
		S7.519,14.5,10,14.5z"/>
</g>
<g id="xcross">
	<rect id="space_38_" style="fill:none;" width="24" height="24"/>
	<polygon points="7.05,5.636 5.636,7.05 10.586,12 5.636,16.95 7.05,18.364 12,13.414 16.95,18.364 18.364,16.95 13.414,12 
		18.364,7.05 16.95,5.636 12,10.586 	"/>
</g>
<g id="compose">
	<rect id="space_16_" style="fill:none;" width="24" height="24"/>
	<path d="M16,15h2v6c0,0.553-0.447,1-1,1H3c-0.553,0-1-0.447-1-1V7c0-0.553,0.447-1,1-1h6v2H4v12h12V15z M20.379,8.035l-6.672,6.672
		C11.653,16.761,10.414,18,7,18H6v-1c0-3.414,1.239-4.653,3.293-6.707l6.672-6.672c1.217-1.216,3.195-1.216,4.414-0.001
		C21.596,4.839,21.596,6.819,20.379,8.035z M16.586,9L15,7.414l-4.293,4.293c-1.674,1.674-2.457,2.458-2.655,4.241
		c1.783-0.198,2.567-0.981,4.241-2.655L16.586,9z M18.964,5.035c-0.218-0.219-0.505-0.327-0.792-0.327s-0.574,0.108-0.793,0.327
		L16.414,6L18,7.586l0.965-0.965C19.401,6.184,19.401,5.473,18.964,5.035z"/>
</g>
<g id="cross">
	<rect id="space_31_" style="fill:none;" width="24" height="24"/>
	<polygon points="13,4 11,4 11,11 4,11 4,13 11,13 11,20 13,20 13,13 20,13 20,11 13,11"/>
</g>
<g id="grip">
	<rect id="space_66_" style="fill:none;" width="24" height="24"/>
	<path d="M22,15H2v-2h20V15z M22,8H2v2h20V8z"/>
</g>
<g id="check">
	<rect id="space_73_" style="fill:none;" width="24" height="24"/>
	<polygon points="9,19.414 3.293,13.707 4.707,12.293 9,16.586 20.293,5.293 21.707,6.707 	"/>
</g>
<g id="heavy-check">
	<rect id="space_80_" style="fill:none;" width="24" height="24"/>
	<polygon points="9,19.121 3.439,13.561 5.561,11.439 9,14.879 17.439,6.439 19.561,8.561 "/>
</g>
<g id="back_1_">
	<rect id="space_59_" style="fill:none;" width="24" height="24"/>
	<polygon points="20,11 8.414,11 13.707,5.707 12.293,4.293 4.586,12 12.293,19.707 13.707,18.293 8.414,13 20,13 	"/>
</g>
<g id="retry">
	<rect id="space_23_" style="fill:none;" width="24" height="24"/>
	<g>
		<path d="M12,22.5c-5.238,0-9.5-4.262-9.5-9.5S6.762,3.5,12,3.5V0.669L19.5,5L12,9.331V6.5c-3.584,0-6.5,2.916-6.5,6.5
			s2.916,6.5,6.5,6.5s6.5-2.916,6.5-6.5h3C21.5,18.238,17.238,22.5,12,22.5z"/>
	</g>
</g>
<g id="unavailable">
	<rect id="space_108_" style="fill:none;" width="24" height="24"/>
	<g>
		<path d="M12,21.495c-2.433,0-4.865-0.926-6.718-2.777c-3.703-3.704-3.703-9.731,0-13.436c3.703-3.703,9.73-3.703,13.436,0l0,0
			c3.703,3.704,3.703,9.731,0,13.436C16.866,20.569,14.433,21.495,12,21.495z M8.588,17.533c2.502,1.545,5.838,1.231,8.009-0.937
			c2.169-2.17,2.48-5.504,0.937-8.009L8.588,17.533z M12,5.503c-1.665,0-3.329,0.634-4.597,1.9c-2.169,2.17-2.48,5.504-0.937,8.009
			l8.945-8.945C14.37,5.824,13.186,5.503,12,5.503z"/>
	</g>
</g>
<g id="downloads">
	<rect id="space_29_" style="fill:none;" width="24" height="24"/>
	<path d="M19,21H4v-3h15V21z M11.5,17.621L3.439,9.561l2.121-2.121L10,11.879V2h3v9.879l4.439-4.439l2.121,2.121L11.5,17.621z"/>
</g>
<g id="ask">
	<rect id="space_129_" style="fill:none;" width="24" height="24"/>
	<path d="M22,12c0,5.523-4.477,10-10,10S2,17.523,2,12S6.477,2,12,2S22,6.477,22,12z M12.568,13.864v-0.46
		c0-0.307,0.064-0.554,0.195-0.744c0.13-0.19,0.441-0.466,0.932-0.829c0.716-0.512,1.203-0.972,1.458-1.381
		c0.255-0.409,0.384-0.896,0.384-1.458c0-0.844-0.311-1.519-0.932-2.026c-0.622-0.506-1.459-0.759-2.514-0.759
		c-1.278,0-2.487,0.319-3.629,0.958l0.836,1.681c0.982-0.502,1.858-0.753,2.626-0.753c0.439,0,0.781,0.088,1.027,0.262
		c0.246,0.173,0.368,0.427,0.368,0.759c0,0.297-0.085,0.565-0.257,0.806c-0.172,0.24-0.525,0.552-1.063,0.935
		c-0.557,0.41-0.94,0.797-1.15,1.159c-0.211,0.363-0.315,0.791-0.315,1.282v0.566H12.568z M10.642,17.452
		c0.236,0.227,0.568,0.34,0.997,0.34c0.42,0,0.746-0.116,0.982-0.349c0.236-0.233,0.353-0.551,0.353-0.954
		c0-0.42-0.116-0.742-0.349-0.968c-0.233-0.225-0.562-0.338-0.986-0.338c-0.439,0-0.776,0.11-1.004,0.331
		c-0.232,0.22-0.346,0.545-0.346,0.975C10.289,16.902,10.406,17.225,10.642,17.452z"/>
</g>
<g id="alert">
	<rect id="space_804_" style="fill:none;" width="24" height="24"/>
	<path style="fill-rule:evenodd;clip-rule:evenodd;" d="M13.732,3.215L22.268,18c0.77,1.333-0.192,3-1.732,3H3.464
		c-1.54,0-2.502-1.667-1.732-3l8.536-14.785C11.038,1.882,12.962,1.882,13.732,3.215z M12,15L12,15c0.562,0,1.026-0.438,1.059-0.998
		l0.353-6.004C13.46,7.185,12.814,6.5,12,6.5h0c-0.814,0-1.46,0.685-1.412,1.497l0.353,6.004C10.974,14.562,11.438,15,12,15z
		 M13.5,18L13.5,18c0,0.828-0.672,1.5-1.5,1.5h0c-0.828,0-1.5-0.672-1.5-1.5v0c0-0.828,0.672-1.5,1.5-1.5h0
		C12.828,16.5,13.5,17.172,13.5,18z"/>
</g>
<g id="exclamation-mark">
	<rect id="space_811_" style="fill:none;" width="24" height="24"/>
	<path style="fill-rule:evenodd;clip-rule:evenodd;" d="M12,16L12,16c-1.125,0-2.058-0.873-2.133-1.996L9.2,3.993
		C9.092,2.373,10.376,1,12,1h0c1.624,0,2.908,1.373,2.8,2.993l-0.667,10.011C14.058,15.127,13.125,16,12,16z M12,17.5L12,17.5
		c-1.381,0-2.5,1.119-2.5,2.5v0c0,1.381,1.119,2.5,2.5,2.5h0c1.381,0,2.5-1.119,2.5-2.5v0C14.5,18.619,13.381,17.5,12,17.5z"/>
</g>
<g id="exit">
	<g id="space_36_">
		<rect x="0" style="fill:none;" width="24" height="24"/>
	</g>
	<path d="M13,3h5.5C19.879,3,21,4.121,21,5.5v12c0,1.379-1.121,2.5-2.5,2.5H13v-3h5V6h-5V3z M8.439,3.439l2.121,2.121L6.121,10H15v3
		H6.121l4.439,4.439l-2.121,2.121l-7-7c-0.586-0.586-0.586-1.535,0-2.121L8.439,3.439z"/>
</g>
<g id="open-in-new">
	<rect id="space_1426_" style="fill:none;" width="24" height="24"/>
	<path d="M15,22h-2v-2h2v-2h2v2C17,21.103,16.103,22,15,22z M11,22H8v-2h3V22z M6,22H4c-1.103,0-2-0.897-2-2v-2h2v2h2V22z M20,17H9
		c-1.103,0-2-0.897-2-2V4c0-1.103,0.897-2,2-2h11c1.103,0,2,0.897,2,2v11C22,16.103,21.103,17,20,17z M20.001,15L20.001,15 M9,4v11
		h10.999L20,4H9z M4,16H2v-3h2V16z M4,11H2V9c0-1.103,0.897-2,2-2h2v2H4V11z"/>
</g>
<g id="side-bar">
	<rect id="space_1433_" style="fill:none;" width="24" height="24"/>
	<path d="M19,4H5C3.346,4,2,5.346,2,7v10c0,1.654,1.346,3,3,3h14c1.654,0,3-1.346,3-3V7C22,5.346,20.654,4,19,4z M4,17V7
		c0-0.552,0.448-1,1-1h10v12H5C4.448,18,4,17.552,4,17z"/>
</g>
<g id="infinity">
	<path style="fill:none;" d="M0,0v24h24V0H0z"/>
	<g>
		<path d="M18,17.5c-3.413,0-5.402-2.415-7.158-4.546C9.315,11.101,7.997,9.5,6,9.5c-1.379,0-2.5,1.121-2.5,2.5s1.121,2.5,2.5,2.5
			c0.512,0,0.989-0.1,1.461-0.305c0.764-0.331,1.645,0.018,1.974,0.776c0.331,0.76-0.017,1.644-0.776,1.974
			C7.813,17.313,6.919,17.5,6,17.5c-3.032,0-5.5-2.468-5.5-5.5S2.968,6.5,6,6.5c3.413,0,5.402,2.415,7.158,4.546
			C14.685,12.899,16.003,14.5,18,14.5c1.379,0,2.5-1.121,2.5-2.5S19.379,9.5,18,9.5c-0.512,0-0.989,0.1-1.461,0.305
			c-0.762,0.332-1.644-0.018-1.974-0.776c-0.331-0.76,0.017-1.644,0.776-1.974C16.187,6.687,17.081,6.5,18,6.5
			c3.032,0,5.5,2.468,5.5,5.5S21.032,17.5,18,17.5z"/>
	</g>
</g>
<g id="pause">
	<rect id="space_958_" style="fill:none;" width="24" height="24"/>
	<path d="M6,5h4v14H6V5z M14,5v14h4V5H14z"/>
</g>
<g id="play">
	<rect id="space_951_" style="fill:none;" width="24" height="24"/>
	<polygon points="8,19 20,12 8,5 	"/>
</g>
<g id="fast-forward">
	<rect id="space_944_" style="fill:none;" width="24" height="24"/>
	<path d="M4,6l9,6l-9,6V6z M13,18l9-6l-9-6V18z"/>
</g>
<g id="fast-rewind">
	<rect id="space_937_" style="fill:none;" width="24" height="24"/>
	<path d="M22,18l-9-6l9-6V18z M13,6l-9,6l9,6V6z"/>
</g>
<g id="next">
	<rect id="space_930_" style="fill:none;" width="24" height="24"/>
	<path d="M6,6l9,6l-9,6V6z M15,18h3V6h-3V18z"/>
</g>
<g id="back">
	<rect id="space_923_" style="fill:none;" width="24" height="24"/>
	<path d="M18,18l-9-6l9-6V18z M9,6H6v12h3V6z"/>
</g>
<g id="gif">
	<rect id="space_740_" style="fill:none;" width="24" height="24"/>
	<path d="M20,4H4C2.343,4,1,5.343,1,7v10c0,1.657,1.343,3,3,3h16c1.657,0,3-1.343,3-3V7C23,5.343,21.657,4,20,4z M10,16
		c0,0.552-0.448,1-1,1H5v-2h3v-2H5c-0.552,0-1-0.448-1-1V8c0-0.552,0.448-1,1-1h4c0.552,0,1,0.448,1,1V16z M14,17h-2v-6h2V17z
		 M13,9.5L13,9.5c-0.828,0-1.5-0.672-1.5-1.5v0c0-0.828,0.672-1.5,1.5-1.5h0c0.828,0,1.5,0.672,1.5,1.5v0
		C14.5,8.828,13.828,9.5,13,9.5z M20,9h-2v3h2v2h-2v3h-2V9c0-1.105,0.896-2,2-2h2V9z M6,9h2v2H6V9z"/>
</g>
<g id="two-eighth-note-wire">
	<rect id="space_733_" style="fill:none;" width="24" height="24"/>
	<path d="M20.515,2.34l-9.242,2.311C9.935,4.985,9,6.182,9,7.562v6.353c-0.649-0.302-1.419-0.461-2.265-0.461
		C3.916,13.454,1,15.154,1,18c0,2.299,1.924,3.546,4.265,3.546C8.084,21.546,11,19.846,11,17V7.562c0-0.46,0.312-0.859,0.758-0.97
		L21,4.281v6.634c-0.649-0.302-1.419-0.461-2.265-0.461C15.916,10.454,13,12.154,13,15c0,2.299,1.924,3.546,4.265,3.546
		C20.084,18.546,23,16.846,23,14V4.281C23,2.98,21.777,2.024,20.515,2.34z M5.265,19.546C4.119,19.546,3,19.15,3,18
		c0-1.662,2.169-2.546,3.735-2.546C7.881,15.454,9,15.85,9,17C9,18.662,6.831,19.546,5.265,19.546z M17.265,16.546
		C16.119,16.546,15,16.15,15,15c0-1.662,2.169-2.546,3.735-2.546C19.881,12.454,21,12.85,21,14
		C21,15.662,18.831,16.546,17.265,16.546z"/>
</g>
<g id="two-eighth-note">
	<rect id="space_726_" style="fill:none;" width="24" height="24"/>
	<path d="M19.894,1.355l-9.242,2.311C9.09,4.056,8,5.453,8,7.062v6.534c-0.399-0.086-0.817-0.142-1.265-0.142
		C3.916,13.454,1,15.154,1,18c0,2.299,1.924,3.546,4.265,3.546C8.084,21.546,11,19.846,11,17V7.062c0-0.23,0.156-0.429,0.379-0.485
		L20,4.421v6.175c-0.399-0.086-0.817-0.142-1.265-0.142C15.916,10.454,13,12.154,13,15c0,2.299,1.924,3.546,4.265,3.546
		C20.084,18.546,23,16.846,23,14V3.781C23,2.157,21.476,0.961,19.894,1.355z"/>
</g>
<g id="exchange">
	<rect id="space_1475_" style="fill:none;" width="24" height="24"/>
	<path d="M9.293,20.707L4.586,16l4.707-4.707l1.414,1.414L8.414,15H18v2H8.414l2.293,2.293L9.293,20.707z M14.707,12.707
		l-1.414-1.414L15.586,9H6V7h9.586l-2.293-2.293l1.414-1.414L19.414,8L14.707,12.707z"/>
</g>
<g id="preferences">
	<rect id="space_1482_" style="fill:none;" width="24" height="24"/>
	<g>
		<path d="M19.5,8c0-1.025-0.618-1.903-1.5-2.289V4h-2v1.711C15.118,6.097,14.5,6.975,14.5,8c0,1.025,0.618,1.903,1.5,2.289V20h2
			v-9.711C18.882,9.903,19.5,9.025,19.5,8z M17,8.5c-0.276,0-0.5-0.224-0.5-0.5s0.224-0.5,0.5-0.5s0.5,0.224,0.5,0.5
			S17.276,8.5,17,8.5z"/>
		<path d="M9.5,12c0-1.025-0.618-1.903-1.5-2.289V4H6v5.711C5.118,10.097,4.5,10.975,4.5,12c0,1.025,0.618,1.903,1.5,2.289V20h2
			v-5.711C8.882,13.903,9.5,13.025,9.5,12z M7,12.5c-0.276,0-0.5-0.224-0.5-0.5s0.224-0.5,0.5-0.5s0.5,0.224,0.5,0.5
			S7.276,12.5,7,12.5z"/>
		<path d="M13,13.711V4h-2v9.711C10.118,14.097,9.5,14.975,9.5,16c0,1.025,0.618,1.903,1.5,2.289V20h2v-1.711
			c0.882-0.386,1.5-1.264,1.5-2.289C14.5,14.975,13.882,14.097,13,13.711z M12,16.5c-0.276,0-0.5-0.224-0.5-0.5s0.224-0.5,0.5-0.5
			s0.5,0.224,0.5,0.5S12.276,16.5,12,16.5z"/>
	</g>
</g>
<g id="info">
	<rect id="space_1440_" style="fill:none;" width="24" height="24"/>
	<path style="fill-rule:evenodd;clip-rule:evenodd;" d="M1.5,12C1.5,6.201,6.201,1.5,12,1.5S22.5,6.201,22.5,12S17.799,22.5,12,22.5
		S1.5,17.799,1.5,12z M10,10h3v7l1,1h-4l1-1v-6L10,10z M12,8.5c0.828,0,1.5-0.672,1.5-1.5S12.828,5.5,12,5.5S10.5,6.172,10.5,7
		S11.172,8.5,12,8.5z"/>
</g>
<g id="info-wire">
	<rect id="space_1447_" style="fill:none;" width="24" height="24"/>
	<path d="M12,3.5c4.687,0,8.5,3.813,8.5,8.5s-3.813,8.5-8.5,8.5S3.5,16.687,3.5,12S7.313,3.5,12,3.5 M12,1.5
		C6.201,1.5,1.5,6.201,1.5,12S6.201,22.5,12,22.5S22.5,17.799,22.5,12S17.799,1.5,12,1.5L12,1.5z M10,10h3v7l1,1h-4l1-1v-6L10,10z
		 M12,8.5c0.828,0,1.5-0.672,1.5-1.5S12.828,5.5,12,5.5S10.5,6.172,10.5,7S11.172,8.5,12,8.5z"/>
</g>
<g id="sync_2_">
	<rect id="space_1_" style="fill:none;" width="24" height="24"/>
	<g>
		<path d="M18.669,7.584C17.182,5.34,14.688,4,12,4V1L8,5l4,4V6c2.016,0,3.886,1.005,5.002,2.689
			c1.131,1.706,1.323,3.764,0.527,5.646l1.842,0.779C20.417,12.641,20.155,9.826,18.669,7.584z"/>
		<path d="M12,18c-2.016,0-3.886-1.005-5.002-2.69c-1.131-1.706-1.323-3.763-0.527-5.645L4.629,8.886
			c-1.046,2.473-0.784,5.288,0.701,7.529C6.818,18.66,9.312,20,12,20v3l4-4l-4-4V18z"/>
	</g>
</g>
<g id="restore">
	<rect id="space_1392_" style="fill:none;" width="24" height="24"/>
	<path d="M13,7H8.414l3.293-3.293l-1.414-1.414L4.586,8l5.707,5.707l1.414-1.414L8.414,9H13c2.206,0,4,1.794,4,4s-1.794,4-4,4H8.723
		C8.376,16.405,7.738,16,7,16c-1.105,0-2,0.895-2,2c0,1.105,0.895,2,2,2c0.738,0,1.376-0.405,1.723-1H13c3.309,0,6-2.691,6-6
		S16.309,7,13,7z"/>
</g>
<g id="dotted-grip">
	<path transform="translate(8.5 4.5)" d="M 1.5 3C 0.672 3 0 2.328 0 1.5C 0 0.672 0.672 0 1.5 0C 2.328 0 3 0.672 3 1.5C 3 2.328 2.328 3 1.5 3ZM 3 13.5C 3 12.672 2.328 12 1.5 12C 0.672 12 0 12.672 0 13.5C 0 14.328 0.672 15 1.5 15C 2.328 15 3 14.328 3 13.5ZM 3 9.5C 3 8.672 2.328 8 1.5 8C 0.672 8 0 8.672 0 9.5C 0 10.328 0.672 11 1.5 11C 2.328 11 3 10.328 3 9.5ZM 3 5.5C 3 4.672 2.328 4 1.5 4C 0.672 4 0 4.672 0 5.5C 0 6.328 0.672 7 1.5 7C 2.328 7 3 6.328 3 5.5ZM 7 1.5C 7 0.672 6.328 0 5.5 0C 4.672 0 4 0.672 4 1.5C 4 2.328 4.672 3 5.5 3C 6.328 3 7 2.328 7 1.5ZM 7 13.5C 7 12.672 6.328 12 5.5 12C 4.672 12 4 12.672 4 13.5C 4 14.328 4.672 15 5.5 15C 6.328 15 7 14.328 7 13.5ZM 7 9.5C 7 8.672 6.328 8 5.5 8C 4.672 8 4 8.672 4 9.5C 4 10.328 4.672 11 5.5 11C 6.328 11 7 10.328 7 9.5ZM 7 5.5C 7 4.672 6.328 4 5.5 4C 4.672 4 4 4.672 4 5.5C 4 6.328 4.672 7 5.5 7C 6.328 7 7 6.328 7 5.5Z"/>
</g>
<g id="ask-wire">
	<rect id="space_1651_" style="fill:none;" width="24" height="24"/>
	<path d="M12.568,13.864v-0.46c0-0.307,0.064-0.554,0.195-0.744c0.13-0.19,0.441-0.466,0.932-0.829
		c0.716-0.512,1.203-0.972,1.458-1.381c0.255-0.409,0.384-0.896,0.384-1.458c0-0.844-0.311-1.519-0.932-2.026
		c-0.622-0.506-1.459-0.759-2.514-0.759c-1.278,0-2.487,0.319-3.629,0.958l0.836,1.681c0.982-0.502,1.858-0.753,2.626-0.753
		c0.439,0,0.781,0.088,1.027,0.262c0.246,0.173,0.368,0.427,0.368,0.759c0,0.297-0.085,0.565-0.257,0.806
		c-0.172,0.24-0.525,0.552-1.063,0.935c-0.557,0.41-0.94,0.797-1.15,1.159c-0.211,0.363-0.315,0.791-0.315,1.282v0.566H12.568z
		 M10.642,17.452c0.236,0.227,0.568,0.34,0.997,0.34c0.42,0,0.746-0.116,0.982-0.349c0.236-0.233,0.353-0.551,0.353-0.954
		c0-0.42-0.116-0.742-0.349-0.968c-0.233-0.225-0.562-0.338-0.986-0.338c-0.439,0-0.776,0.11-1.004,0.331
		c-0.232,0.22-0.346,0.545-0.346,0.975C10.289,16.902,10.406,17.225,10.642,17.452z M12,22.5c-0.702,0-1.404-0.07-2.088-0.208
		l0.198-0.98C10.729,21.437,11.364,21.5,12,21.5V22.5z M7.285,21.384c-1.109-0.558-2.104-1.302-2.956-2.213l0.73-0.684
		c0.771,0.825,1.671,1.499,2.675,2.004L7.285,21.384z M2.717,16.911c-0.583-1.101-0.961-2.284-1.125-3.519l0.991-0.131
		c0.148,1.115,0.491,2.186,1.018,3.181L2.717,16.911z M2.582,10.747L1.59,10.616c0.163-1.235,0.541-2.42,1.123-3.52l0.884,0.468
		C3.07,8.559,2.729,9.63,2.582,10.747z M5.055,5.518l-0.73-0.683c0.85-0.91,1.844-1.656,2.954-2.216l0.45,0.893
		C6.725,4.019,5.825,4.693,5.055,5.518z M10.11,2.688l-0.198-0.98C10.594,1.57,11.296,1.5,12,1.5v1
		C11.363,2.5,10.727,2.563,10.11,2.688z M13.89,2.688C13.273,2.563,12.637,2.5,12,2.5v-1c0.704,0,1.406,0.07,2.088,0.208
		L13.89,2.688z M16.722,21.38l-0.449-0.893c1.002-0.505,1.902-1.18,2.672-2.005l0.731,0.682
		C18.824,20.077,17.83,20.822,16.722,21.38z M21.288,16.902l-0.884-0.467c0.526-0.995,0.867-2.066,1.015-3.183l0.991,0.131
		C22.247,14.618,21.87,15.802,21.288,16.902z M21.417,10.739c-0.148-1.116-0.491-2.187-1.018-3.182l0.884-0.468
		c0.583,1.1,0.961,2.283,1.125,3.519L21.417,10.739z M18.94,5.513c-0.771-0.824-1.671-1.498-2.675-2.003l0.449-0.894
		c1.11,0.559,2.104,1.304,2.956,2.214L18.94,5.513z M12,22.5v-1c0.636,0,1.271-0.063,1.89-0.188l0.198,0.98
		C13.404,22.43,12.702,22.5,12,22.5z"/>
</g>
</svg>
