<svg id="142fdb54-2d2f-4296-ad49-bacef808fdee" data-name="Layer 1" xmlns="http://www.w3.org/2000/svg" width="24" height="144" viewBox="0 0 24 144"><title>Source</title><rect x="-24" y="24" width="24" height="24" transform="translate(-24 72) rotate(-180)" style="fill:none"/><rect y="48" width="24" height="24" style="fill:none"/><g id="be53b9f1-6237-46e8-b004-d4a813f7286e" data-name="&lt;Group&gt;"><path d="M14,77.5A4.5,4.5,0,1,1,9.5,82,4.51,4.51,0,0,1,14,77.5m0-1A5.5,5.5,0,1,0,19.5,82,5.5,5.5,0,0,0,14,76.5h0Z" style="fill:#869d91"/></g><line x1="5.5" y1="90.5" x2="9" y2="87" style="fill:none;stroke:#869d91;stroke-linecap:round;stroke-miterlimit:10;stroke-width:2px"/><rect y="72" width="24" height="24" style="fill:none"/><path d="M15.56,63.36c4.61,0.41,6.74-10-2.91-10.83a7.29,7.29,0,0,0-8.12,6.82c-0.4,4.54,2.28,7.72,6.82,8.12a8,8,0,0,0,4.37-.74" style="fill:none;stroke:#869d91;stroke-linecap:round;stroke-linejoin:round"/><path d="M15.3,56.68c-0.45,2-.92,4.26-0.92,4.26-0.35,1.61.25,2.28,1.17,2.43" style="fill:none;stroke:#869d91;stroke-linecap:round;stroke-linejoin:round"/><path d="M14.73,59.3c-0.46,2.18-2,4.16-4.67,3.69-3.89-.69-2.43-8.8,5.18-6" style="fill:none;stroke:#869d91;stroke-linecap:round;stroke-linejoin:round"/><rect y="24" width="24" height="24" style="fill:none"/><path d="M5.5,33.5h13a0,0,0,0,1,0,0v9a1,1,0,0,1-1,1H6.5a1,1,0,0,1-1-1v-9A0,0,0,0,1,5.5,33.5Z" style="fill:#fff;stroke:#869d91;stroke-linecap:round;stroke-linejoin:round"/><path id="ee391e6d-878f-4835-8864-d94c682414fa" data-name="&lt;Path&gt;" d="M7.5,33V31c0-2.07,1.39-3.5,4.5-3.5s4.5,1.43,4.5,3.5v2" style="fill:none;stroke:#869d91;stroke-linecap:round;stroke-linejoin:round"/><line id="f5f02150-2395-43ec-9107-c56a5ee228b2" data-name="&lt;Path&gt;" x1="12" y1="36.5" x2="12" y2="40.5" style="fill:none;stroke:#869d91;stroke-linecap:round;stroke-linejoin:round;stroke-width:2px"/><path d="M21.21,14.71l-2.41-2.41A1,1,0,0,0,18.09,12H5.91a1,1,0,0,0-.71.29L2.79,14.71a1,1,0,0,0-.29.71V19.5a2,2,0,0,0,2,2h15a2,2,0,0,0,2-2V15.41A1,1,0,0,0,21.21,14.71Z" style="fill:#869d91;stroke:#869d91;stroke-linecap:round;stroke-miterlimit:10"/><rect x="6.5" y="2.5" width="11" height="17" style="fill:#fff;stroke:#a6b9af;stroke-linecap:round;stroke-linejoin:round"/><rect width="24" height="24" style="fill:none"/><path d="M15.87,14.5a1,1,0,0,0-1,.74c-0.35,1.3-.81,2.26-2.91,2.26s-2.56-1-2.91-2.26a1,1,0,0,0-1-.74H3.5a1,1,0,0,0-1,1v4a2,2,0,0,0,2,2h15a2,2,0,0,0,2-2v-4a1,1,0,0,0-1-1H15.87Z" style="fill:#fff;stroke:#869d91;stroke-linecap:round;stroke-miterlimit:10"/><path d="M20.5,14.5H15.87a1,1,0,0,0-1,.8c-0.35,1.27-.83,2.2-2.89,2.2s-2.54-.94-2.89-2.2a1,1,0,0,0-1-.8H3.5" style="fill:#fff"/><path d="M20.5,14.5H15.86a1,1,0,0,0-.73.34,2,2,0,0,0-.34.79,2.51,2.51,0,0,1-1,1.46,3.45,3.45,0,0,1-1.8.41,3.45,3.45,0,0,1-1.8-.41,2.51,2.51,0,0,1-1-1.46,2,2,0,0,0-.34-0.79,1,1,0,0,0-.73-0.34H3.5a0.5,0.5,0,0,1,0-1H8.16a2,2,0,0,1,1.47.69,2.15,2.15,0,0,1,.41.72l0.12,0.41a1.54,1.54,0,0,0,.57.92,1.59,1.59,0,0,0,.53.19,4.05,4.05,0,0,0,.77.06,2.53,2.53,0,0,0,1.23-.26,1.54,1.54,0,0,0,.57-0.92L14,14.88a2.19,2.19,0,0,1,.4-0.69,2,2,0,0,1,1.44-.69H20.5A0.5,0.5,0,0,1,20.5,14.5Z" style="fill:#869d91"/><rect x="0.01" y="120" width="24" height="24" style="fill:none"/><path d="M9,139a2.5,2.5,0,0,1,5,0A2.5,2.5,0,1,1,9,139Zm2.5-16" style="fill:#869d91"/><path d="M5.73,130.64a8.55,8.55,0,0,0,3.57-3,4.26,4.26,0,0,1,4-1.93,3.58,3.58,0,0,1,.21-0.44,2,2,0,1,1,3.46,2,3.58,3.58,0,0,1-.27.4,4.26,4.26,0,0,1,.35,4.47,8.55,8.55,0,0,0-.79,4.58C17.13,144.21-1.14,133.66,5.73,130.64Z" style="fill:#fff;stroke:#869d91;stroke-linecap:round;stroke-linejoin:round"/><path d="M13.61,125.22c-0.83,1.45,2.63,3.45,3.46,2" style="fill:none;stroke:#869d91;stroke-linecap:round;stroke-linejoin:round;stroke-width:0.5px"/><rect y="96" width="24" height="24" style="fill:none"/><path d="M8.5,102C0.77,102,.77,112,7,112" style="fill:none;stroke:#869d91;stroke-linecap:round;stroke-linejoin:round"/><path d="M15.5,115c7.73,0,7.73-10,1.49-10" style="fill:none;stroke:#869d91;stroke-linecap:round;stroke-linejoin:round"/><path d="M7,112c-4.33,0-4.33-6.5,0-6.5S11.33,112,7,112Z" style="fill:#869d91;stroke:#869d91;stroke-linecap:round;stroke-linejoin:round"/><path d="M17,105c4.33,0,4.33,6.5,0,6.5S12.67,105,17,105Z" style="fill:#869d91;stroke:#869d91;stroke-linecap:round;stroke-linejoin:round"/></svg>