<svg xmlns="http://www.w3.org/2000/svg" width="24" height="144" viewBox="0 0 24 144"><defs><style>.a,.f,.g{fill:#869d91;}.b,.c,.d,.e,.h,.i{fill:none;}.b,.c,.d,.e,.f,.g,.h{stroke:#869d91;stroke-linecap:round;}.b,.g,.h{stroke-miterlimit:10;}.b,.d{stroke-width:2px;}.c,.d,.e,.f,.i{stroke-linejoin:round;}.e{stroke-width:0.5px;}.i{stroke:#a6b9af;}</style></defs><title>Source</title><path class="a" d="M14,77.5A4.5,4.5,0,1,1,9.5,82,4.51,4.51,0,0,1,14,77.5m0-1A5.5,5.5,0,1,0,19.5,82,5.5,5.5,0,0,0,14,76.5h0Z"/><line class="b" x1="5.5" y1="90.5" x2="9" y2="87"/><path class="c" d="M15.56,63.36c4.61,0.41,6.74-10-2.91-10.83a7.29,7.29,0,0,0-8.12,6.82c-0.4,4.54,2.28,7.72,6.82,8.12a8,8,0,0,0,4.37-.74"/><path class="c" d="M15.3,56.68c-0.45,2-.92,4.26-0.92,4.26-0.35,1.61.25,2.28,1.17,2.43"/><path class="c" d="M14.73,59.3c-0.46,2.18-2,4.16-4.67,3.69-3.89-.69-2.43-8.8,5.18-6"/><path class="c" d="M5.5,33.5h13a0,0,0,0,1,0,0v9a1,1,0,0,1-1,1H6.5a1,1,0,0,1-1-1v-9A0,0,0,0,1,5.5,33.5Z"/><path class="c" d="M7.5,33V31c0-2.07,1.39-3.5,4.5-3.5s4.5,1.43,4.5,3.5v2"/><line class="d" x1="12" y1="36.5" x2="12" y2="40.5"/><path class="c" d="M5.73,130.64a8.55,8.55,0,0,0,3.57-3,4.26,4.26,0,0,1,4-1.93,3.58,3.58,0,0,1,.21-0.44,2,2,0,1,1,3.46,2,3.58,3.58,0,0,1-.27.4,4.26,4.26,0,0,1,.35,4.47,8.55,8.55,0,0,0-.79,4.58C17.13,144.21-1.14,133.66,5.73,130.64Z"/><path class="e" d="M13.61,125.22c-0.83,1.45,2.63,3.45,3.46,2"/><path class="c" d="M8.5,102C0.77,102,.77,112,7,112"/><path class="c" d="M15.5,115c7.73,0,7.73-10,1.49-10"/><path class="f" d="M7,112c-4.33,0-4.33-6.5,0-6.5S11.33,112,7,112Z"/><path class="f" d="M17,105c4.33,0,4.33,6.5,0,6.5S12.67,105,17,105Z"/><path class="a" d="M9.23,137.89A2.71,2.71,0,0,0,9,139a2.5,2.5,0,0,0,5,.33A11.12,11.12,0,0,1,9.23,137.89Z"/><path class="g" d="M21.5,15.41V15.5a1,1,0,0,0-1-1H15.87a1,1,0,0,0-1,.74A2.54,2.54,0,0,1,12,17.5a2.54,2.54,0,0,1-2.91-2.26,1,1,0,0,0-1-.74H3.5a1,1,0,0,0-1,1V15.41a1,1,0,0,1,.29-0.7l2.42-2.42A1,1,0,0,1,5.92,12H6.5v2H8.13a1.74,1.74,0,0,1,1.68,1.29C10.12,16.38,10.37,17,12,17s1.89-.62,2.19-1.71A1.74,1.74,0,0,1,15.87,14H17.5V12h0.59a1,1,0,0,1,.7.29l2.42,2.42A1,1,0,0,1,21.5,15.41Z"/><path class="h" d="M15.87,14.5a1,1,0,0,0-1,.74c-0.35,1.3-.81,2.26-2.91,2.26s-2.56-1-2.91-2.26a1,1,0,0,0-1-.74H3.5a1,1,0,0,0-1,1v4a2,2,0,0,0,2,2h15a2,2,0,0,0,2-2v-4a1,1,0,0,0-1-1H15.87Z"/><polyline class="i" points="6.5 13.5 6.5 2.5 17.5 2.5 17.5 13.5"/></svg>