<svg xmlns="http://www.w3.org/2000/svg" width="32" height="96" viewBox="0 0 32 96"><defs><style>.a,.b,.d,.e{fill:none;}.b,.c,.d,.e{stroke:#869d91;}.b,.d,.e{stroke-linejoin:round;}.c{fill:#fff;stroke-miterlimit:10;}.d{stroke-linecap:square;}.e{stroke-linecap:round;}</style></defs><title>Source</title><rect class="a" y="64" width="32" height="32"/><rect class="b" x="10.5" y="70.5" width="12" height="22" rx="1.2" ry="1.2" transform="translate(-65 98) rotate(-90)"/><polyline class="b" points="5.5 77.94 16.5 82.83 27.5 77.94 27.5 77.94"/><rect class="a" x="-24" width="24" height="24"/><rect class="a" width="32" height="32"/><path class="c" d="M18,16a1.73,1.73,0,0,1-2,2,1.73,1.73,0,0,1-2-2,1.73,1.73,0,0,1,2-2A1.73,1.73,0,0,1,18,16ZM16,6a1.73,1.73,0,0,0-2,2,1.73,1.73,0,0,0,2,2,1.73,1.73,0,0,0,2-2A1.73,1.73,0,0,0,16,6Zm0,16a1.73,1.73,0,0,0-2,2,1.73,1.73,0,0,0,2,2,1.73,1.73,0,0,0,2-2A1.73,1.73,0,0,0,16,22Z"/><rect class="a" y="32" width="32" height="32"/><path class="d" d="M18.5,48.5a1.73,1.73,0,0,1,2-2,1.73,1.73,0,0,1,2,2,1.73,1.73,0,0,1-2,2A1.73,1.73,0,0,1,18.5,48.5Z"/><path class="d" d="M13.5,41.5a1.73,1.73,0,0,1,2-2,1.73,1.73,0,0,1,2,2,1.73,1.73,0,0,1-2,2A1.73,1.73,0,0,1,13.5,41.5Z"/><path class="d" d="M9.5,54.5a1.73,1.73,0,0,1,2-2,1.73,1.73,0,0,1,2,2,1.73,1.73,0,0,1-2,2A1.73,1.73,0,0,1,9.5,54.5Z"/><line class="e" x1="5.5" y1="54.5" x2="7.5" y2="54.5"/><line class="e" x1="5.5" y1="48.5" x2="16.5" y2="48.5"/><line class="e" x1="5.5" y1="41.5" x2="11.5" y2="41.5"/><line class="e" x1="15.5" y1="54.5" x2="26.5" y2="54.5"/><line class="e" x1="24.5" y1="48.5" x2="26.5" y2="48.5"/><line class="e" x1="19.5" y1="41.5" x2="26.5" y2="41.5"/></svg>