<svg xmlns="http://www.w3.org/2000/svg" xmlns:xlink="http://www.w3.org/1999/xlink" viewBox="4332 526 16 192"><defs><style>.a{opacity:0.16;}.a,.g{fill:url(#a);}.b,.d,.e,.i{fill:none;}.b,.e{stroke:#323d47;}.b{opacity:0.48;}.c{fill:#14d769;}.d{stroke:#fff;stroke-miterlimit:10;stroke-width:2px;}.e{opacity:0.24;}.f{fill:#323d47;opacity:0.12;}.g{opacity:0.08;}.h{stroke:none;}</style><linearGradient id="a" x1="0.5" x2="0.5" y2="1" gradientUnits="objectBoundingBox"><stop offset="0" stop-color="#323d47" stop-opacity="0"/><stop offset="1" stop-color="#323d47"/></linearGradient></defs><g transform="translate(-304 16)"><g transform="translate(-247 12)"><g transform="translate(4812 510)"><rect class="a" width="16" height="16" rx="8" transform="translate(71 100)"/><g class="b" transform="translate(71 100)"><rect class="h" width="16" height="16" rx="8"/><rect class="i" x="0.5" y="0.5" width="15" height="15" rx="7.5"/></g><rect class="c" width="10" height="10" rx="5" transform="translate(74 103)"/></g><g transform="translate(4812 382)"><rect class="c" width="16" height="16" rx="3" transform="translate(71 132)"/><rect class="a" width="16" height="16" rx="3" transform="translate(71 132)"/><g class="b" transform="translate(71 132)"><rect class="h" width="16" height="16" rx="3"/><rect class="i" x="0.5" y="0.5" width="15" height="15" rx="2.5"/></g><path class="d" d="M13,5,6,12,3,9" transform="translate(71 131.5)"/></g><g transform="translate(4832 366)"><rect class="c" width="16" height="16" rx="3" transform="translate(51 132)"/><path class="d" d="M13,5,6,12,3,9" transform="translate(51 131.5)"/><g class="e" transform="translate(51 132)"><rect class="h" width="16" height="16" rx="3"/><rect class="i" x="0.5" y="0.5" width="15" height="15" rx="2.5"/></g></g><g transform="translate(4792 526)"><g class="b" transform="translate(91 100)"><rect class="h" width="16" height="16" rx="8"/><rect class="i" x="0.5" y="0.5" width="15" height="15" rx="7.5"/></g><rect class="c" width="10" height="10" rx="5" transform="translate(94 103)"/><rect class="f" width="16" height="16" rx="8" transform="translate(91 100)"/></g><g transform="translate(4792 398)"><rect class="c" width="16" height="16" rx="3" transform="translate(91 132)"/><g class="b" transform="translate(91 132)"><rect class="h" width="16" height="16" rx="3"/><rect class="i" x="0.5" y="0.5" width="15" height="15" rx="2.5"/></g><path class="d" d="M13,5,6,12,3,9" transform="translate(91 131.5)"/><rect class="f" width="16" height="16" rx="3" transform="translate(91 132)"/></g><g transform="translate(4752 430)"><rect class="g" width="16" height="16" rx="3" transform="translate(131 132)"/><g class="b" transform="translate(131 132)"><rect class="h" width="16" height="16" rx="3"/><rect class="i" x="0.5" y="0.5" width="15" height="15" rx="2.5"/></g></g><g transform="translate(4752 558)"><rect class="g" width="16" height="16" rx="8" transform="translate(131 100)"/><g class="b" transform="translate(131 100)"><rect class="h" width="16" height="16" rx="8"/><rect class="i" x="0.5" y="0.5" width="15" height="15" rx="7.5"/></g></g><g transform="translate(4772 542)"><g class="e" transform="translate(111 100)"><rect class="h" width="16" height="16" rx="8"/><rect class="i" x="0.5" y="0.5" width="15" height="15" rx="7.5"/></g></g><g transform="translate(4772 414)"><g class="e" transform="translate(111 132)"><rect class="h" width="16" height="16" rx="3"/><rect class="i" x="0.5" y="0.5" width="15" height="15" rx="2.5"/></g></g><g transform="translate(4732 574)"><g class="b" transform="translate(151 100)"><rect class="h" width="16" height="16" rx="8"/><rect class="i" x="0.5" y="0.5" width="15" height="15" rx="7.5"/></g><rect class="f" width="16" height="16" rx="8" transform="translate(151 100)"/></g><g transform="translate(4732 446)"><g class="b" transform="translate(151 132)"><rect class="h" width="16" height="16" rx="3"/><rect class="i" x="0.5" y="0.5" width="15" height="15" rx="2.5"/></g><rect class="f" width="16" height="16" rx="3" transform="translate(151 132)"/></g><g transform="translate(4832 494)"><rect class="c" width="10" height="10" rx="5" transform="translate(54 103)"/><g class="e" transform="translate(51 100)"><rect class="h" width="16" height="16" rx="8"/><rect class="i" x="0.5" y="0.5" width="15" height="15" rx="7.5"/></g></g></g></g></svg>