<svg xmlns="http://www.w3.org/2000/svg" width="32" height="128" viewBox="0 0 32 128"><defs><style>.a{fill:#fff;stroke:#000;stroke-linejoin:round;}.b,.c,.d{fill:none;}.c{stroke:#a6b9af;stroke-width:2px;}.c,.d{stroke-linecap:round;stroke-miterlimit:10;}.d{stroke:#ced9d3;}</style></defs><title>Source</title><path class="a" d="M-0.5,7v7a1,1,0,0,1-1,1h-14a1,1,0,0,1-1-1V7a1,1,0,0,1,1-1h14A1,1,0,0,1-.5,7Z"/><rect class="b" x="-24" width="24" height="24" transform="translate(-24 24) rotate(180)"/><line class="c" x1="27" y1="27" x2="21" y2="21"/><path class="c" d="M23,14c0,5-2.79,9-9,9s-9-4-9-9,2.79-9,9-9S23,9,23,14Z"/><line class="d" x1="25" y1="57" x2="7" y2="39"/><line class="d" x1="25" y1="39" x2="7" y2="57"/><rect class="b" y="32" width="32" height="32" transform="translate(32 96) rotate(180)"/></svg>