<svg xmlns="http://www.w3.org/2000/svg" viewBox="0 0 24 24"><rect width="24" height="24" style="fill:none"/><path d="M115,154H101a1,1,0,0,1-1-1v-8a1,1,0,0,1,1-1h14a1,1,0,0,1,1,1v8A1,1,0,0,1,115,154Zm0-7.54-7,3.48-7-3.48v1.12l7,3.48,7-3.48Z" transform="translate(-92 -136)" style="fill:#fff"/><line x1="1" y1="10.5" x2="8" y2="10.5" style="fill:none;stroke:#fff;stroke-miterlimit:10"/><line x1="3" y1="12.5" x2="8" y2="12.5" style="fill:none;stroke:#fff;stroke-miterlimit:10"/><line x1="5" y1="14.5" x2="8" y2="14.5" style="fill:none;stroke:#fff;stroke-miterlimit:10"/></svg>