<svg xmlns="http://www.w3.org/2000/svg" width="24" height="96" viewBox="0 0 24 96"><defs><style>.a{fill:#fff;}.a,.c,.d{stroke:#000;stroke-linejoin:round;}.b,.c,.d{fill:none;}.d{stroke-linecap:round;}</style></defs><title>Source</title><path class="a" d="M23.5,7v7a1,1,0,0,1-1,1H8.5a1,1,0,0,1-1-1V7a1,1,0,0,1,1-1h14A1,1,0,0,1,23.5,7Z"/><rect class="b" width="24" height="24" transform="translate(24 24) rotate(180)"/><path class="a" d="M16.5,11v7a1,1,0,0,1-1,1H1.5a1,1,0,0,1-1-1V11a1,1,0,0,1,1-1h14A1,1,0,0,1,16.5,11Z"/><polyline class="c" points="0.5 12 8.5 16 23.5 8.5 16.5 12"/><rect class="b" y="48" width="24" height="24"/><path class="c" d="M23.5,56.5v7a1,1,0,0,1-1,1H8.5a1,1,0,0,1-1-1v-7a1,1,0,0,1,1-1h14A1,1,0,0,1,23.5,56.5Z"/><line class="c" y1="57.5" x2="6" y2="57.5"/><line class="c" x1="2" y1="59.5" x2="6" y2="59.5"/><line class="c" x1="4" y1="61.5" x2="6" y2="61.5"/><polyline class="c" points="23.5 57.5 15.5 61.5 7.5 57.5"/><rect class="b" y="24" width="24" height="24"/><path class="d" d="M6.5,33.15c0-3,1.7-5.5,5.5-5.5s5.5,2.46,5.5,5.5v11l-5.5-5-5.5,5v-11Z"/><rect class="b" x="24" width="32" height="32" transform="translate(80 32) rotate(180)"/><rect class="b" x="24" y="32" width="32" height="32" transform="translate(80 96) rotate(180)"/></svg>