<svg xmlns="http://www.w3.org/2000/svg" width="24" height="96" viewBox="0 0 24 96"><title>Source</title><rect y="24" width="24" height="24" style="fill:none"/><path d="M8.5,30C0.77,30,.77,40,7,40" style="fill:none;stroke:#000;stroke-linecap:round;stroke-linejoin:round"/><path d="M15.5,43c7.73,0,7.73-10,1.49-10" style="fill:none;stroke:#000;stroke-linecap:round;stroke-linejoin:round"/><path d="M7,40c-4.33,0-4.33-6.5,0-6.5S11.33,40,7,40Z" style="stroke:#000;stroke-linecap:round;stroke-linejoin:round"/><path d="M17,33c4.33,0,4.33,6.5,0,6.5S12.67,33,17,33Z" style="stroke:#000;stroke-linecap:round;stroke-linejoin:round"/><path d="M23.5,7v7a1,1,0,0,1-1,1H8.5a1,1,0,0,1-1-1V7a1,1,0,0,1,1-1h14A1,1,0,0,1,23.5,7Z" style="fill:#fff;stroke:#000;stroke-linejoin:round"/><rect width="24" height="24" transform="translate(24 24) rotate(180)" style="fill:none"/><path d="M16.5,11v7a1,1,0,0,1-1,1H1.5a1,1,0,0,1-1-1V11a1,1,0,0,1,1-1h14A1,1,0,0,1,16.5,11Z" style="fill:#fff;stroke:#000;stroke-linejoin:round"/><polyline points="0.5 12 8.5 16 23.5 8.5 16.5 12" style="fill:none;stroke:#000;stroke-linejoin:round"/><rect y="48" width="24" height="24" style="fill:none"/><path d="M23.5,56.5v7a1,1,0,0,1-1,1H8.5a1,1,0,0,1-1-1v-7a1,1,0,0,1,1-1h14A1,1,0,0,1,23.5,56.5Z" style="fill:none;stroke:#000;stroke-linejoin:round"/><line y1="57.5" x2="6" y2="57.5" style="fill:none;stroke:#000;stroke-linejoin:round"/><line x1="2" y1="59.5" x2="6" y2="59.5" style="fill:none;stroke:#000;stroke-linejoin:round"/><line x1="4" y1="61.5" x2="6" y2="61.5" style="fill:none;stroke:#000;stroke-linejoin:round"/><polyline points="23.5 57.5 15.5 61.5 7.5 57.5" style="fill:none;stroke:#000;stroke-linejoin:round"/></svg>