<svg xmlns="http://www.w3.org/2000/svg" width="24" height="72" viewBox="0 0 24 72"><defs><style>.a,.b{fill:none;stroke:#000;stroke-linejoin:round;}.b{stroke-linecap:round;}</style></defs><title>Source</title><path class="a" d="M7.5,9.5v-3a1,1,0,0,1,1-1h14a1,1,0,0,1,1,1v7a1,1,0,0,1-1,1h-6m0-4v7a1,1,0,0,1-1,1H1.5a1,1,0,0,1-1-1v-7a1,1,0,0,1,1-1h14A1,1,0,0,1,16.5,10.5Zm-16,1,8,4L23.5,8l-7,3.5"/><path class="a" d="M23.5,56.5v7a1,1,0,0,1-1,1H8.5a1,1,0,0,1-1-1v-7a1,1,0,0,1,1-1h14A1,1,0,0,1,23.5,56.5ZM0,57.5H6m-4,2H6m-2,2H6m1.5-4,8,4,8-4"/><path class="b" d="M6.5,33.15c0-3,1.7-5.5,5.5-5.5s5.5,2.46,5.5,5.5v11l-5.5-5-5.5,5v-11Z"/></svg>