<svg xmlns="http://www.w3.org/2000/svg" width="24" height="96" viewBox="0 0 24 96"><defs><style>.a,.b,.d,.e{fill:none;}.b{stroke:#a6b9af;stroke-miterlimit:10;}.c{fill:#fff;}.c,.d,.e{stroke:#000;stroke-linejoin:round;}.e{stroke-linecap:round;}</style></defs><title>Source</title><rect class="a" x="-32" y="24" width="32" height="24" transform="translate(-32 72) rotate(180)"/><line class="b" y1="57.5" x2="-12" y2="57.5"/><rect class="a" x="-32" y="48" width="32" height="24" transform="translate(-32 120) rotate(180)"/><path class="c" d="M23.5,7v7a1,1,0,0,1-1,1H8.5a1,1,0,0,1-1-1V7a1,1,0,0,1,1-1h14A1,1,0,0,1,23.5,7Z"/><rect class="a" width="24" height="24" transform="translate(24 24) rotate(180)"/><path class="c" d="M16.5,11v7a1,1,0,0,1-1,1H1.5a1,1,0,0,1-1-1V11a1,1,0,0,1,1-1h14A1,1,0,0,1,16.5,11Z"/><polyline class="d" points="0.5 12 8.5 16 23.5 8.5 16.5 12"/><rect class="a" y="48" width="24" height="24"/><path class="d" d="M23.5,56.5v7a1,1,0,0,1-1,1H8.5a1,1,0,0,1-1-1v-7a1,1,0,0,1,1-1h14A1,1,0,0,1,23.5,56.5Z"/><line class="d" y1="57.5" x2="6" y2="57.5"/><line class="d" x1="2" y1="59.5" x2="6" y2="59.5"/><line class="d" x1="4" y1="61.5" x2="6" y2="61.5"/><polyline class="d" points="23.5 57.5 15.5 61.5 7.5 57.5"/><rect class="a" y="24" width="24" height="24"/><path class="e" d="M6.5,33.15c0-3,1.7-5.5,5.5-5.5s5.5,2.46,5.5,5.5v11l-5.5-5-5.5,5v-11Z"/><rect class="a" x="24" y="32" width="32" height="32" transform="translate(80 96) rotate(180)"/></svg>