<?xml version="1.0" encoding="utf-8"?>
<!-- Generator: Adobe Illustrator 19.2.1, SVG Export Plug-In . SVG Version: 6.00 Build 0)  -->
<svg version="1.1" id="Layer_1" xmlns="http://www.w3.org/2000/svg" xmlns:xlink="http://www.w3.org/1999/xlink" x="0px" y="0px"
	 viewBox="0 0 24 120" style="enable-background:new 0 0 24 120;" xml:space="preserve">
<style type="text/css">
	.st0{fill:none;stroke:#FFFFFF;stroke-width:2;stroke-miterlimit:10;}
	.st1{fill:none;stroke:#FFFFFF;stroke-width:2;stroke-linecap:round;stroke-linejoin:round;}
	.st2{fill:#FFFFFF;}
	.st3{fill:none;stroke:#FFFFFF;stroke-width:2;stroke-linecap:round;stroke-miterlimit:10;}
</style>
<title>Source</title>
<polyline class="st0" points="15,103 20,108 15,113 "/>
<line class="st0" x1="19" y1="108" x2="9" y2="108"/>
<path class="st0" d="M12,100H7c-1.7,0-3,1.3-3,3v10c0,1.7,1.3,3,3,3h5"/>
<path class="st1" d="M11.1,41.1c-1.9,1.9-4.5,3-7.2,3l0,0c0-2.7,1.1-5.3,3-7.2l9-9c1.2-1.1,3.1-1.1,4.2,0.1s1.1,2.9,0,4.1L11.1,41.1
	z"/>
<line class="st1" x1="14.4" y1="29.4" x2="18.6" y2="33.6"/>
<path class="st2" d="M2,5C1.5,5,1,4.6,1,4.1V4c0-0.5,0.4-1,0.9-1H2h20c0.5,0,1,0.4,1,0.9V4c0,0.5-0.4,1-0.9,1H22H2z"/>
<path class="st2" d="M2,13c-0.6,0-1-0.4-1-1s0.4-1,1-1h20c0.6,0,1,0.4,1,1s-0.4,1-1,1H2z"/>
<path class="st2" d="M2,21c-0.6,0-1-0.4-1-1s0.4-1,1-1h20c0.6,0,1,0.4,1,1s-0.4,1-1,1H2z"/>
<path class="st2" d="M4.2,53.6c-0.4-0.3-0.4-0.9-0.1-1.3l0.1-0.1c0.3-0.4,0.9-0.4,1.3-0.1l0.1,0.1l14.2,14.1c0.4,0.4,0.5,1,0.1,1.4
	s-1,0.5-1.4,0.1l-0.1-0.1L4.2,53.6z"/>
<path class="st2" d="M5.6,67.8c-0.3,0.4-0.9,0.4-1.3,0.1l-0.1-0.1c-0.4-0.3-0.4-0.9-0.1-1.3l0.1-0.1l14.1-14.1
	c0.4-0.4,1-0.5,1.4-0.1s0.5,1,0.1,1.4l-0.1,0.1L5.6,67.8z"/>
<circle class="st0" cx="12" cy="81" r="5"/>
<path class="st3" d="M7,91c0-2.8,2.2-5,5-5s5,2.2,5,5"/>
</svg>
