<svg xmlns="http://www.w3.org/2000/svg" width="24" height="96" viewBox="0 0 24 96"><defs><style>.a,.b{fill:none;}.a{stroke:#fff;stroke-linecap:round;stroke-linejoin:round;stroke-width:2px;}.c{fill:#fff;}</style></defs><title>Source</title><path class="a" d="M11.12,41.12a10.24,10.24,0,0,1-7.24,3h0a10.24,10.24,0,0,1,3-7.24l9-9a3,3,0,0,1,4.24,4.24Z"/><line class="a" x1="14.38" y1="29.38" x2="18.62" y2="33.62"/><rect class="b" y="24" width="24" height="24"/><path class="c" d="M2,5A0.94,0.94,0,0,1,1,4,0.94,0.94,0,0,1,2,3H22a0.94,0.94,0,0,1,1,1,0.94,0.94,0,0,1-1,1H2Z"/><path class="c" d="M2,13a1,1,0,0,1,0-2H22a1,1,0,0,1,0,2H2Z"/><path class="c" d="M2,21a1,1,0,0,1,0-2H22a1,1,0,0,1,0,2H2Z"/></svg>