<svg xmlns="http://www.w3.org/2000/svg" width="24" height="120" viewBox="0 0 24 120"><defs><style>.a{fill:none;stroke:#fff;stroke-linecap:round;stroke-linejoin:round;stroke-width:2px;}</style></defs><title>Source</title><polyline class="a" points="15 103 20 108 15 113"/><line class="a" x1="19" y1="108" x2="9" y2="108"/><path class="a" d="M12,100H7a3,3,0,0,0-3,3v10a3,3,0,0,0,3,3h5"/><path class="a" d="M11.12,41.12a10.24,10.24,0,0,1-7.24,3h0a10.24,10.24,0,0,1,3-7.24l9-9a3,3,0,0,1,4.24,4.24Z"/><line class="a" x1="14.38" y1="29.38" x2="18.62" y2="33.62"/><circle class="a" cx="12" cy="81" r="5"/><path class="a" d="M7,91a5,5,0,0,1,10,0"/><path class="a" d="M2,4H22"/><path class="a" d="M2,12H22"/><path class="a" d="M2,20H22"/><path class="a" d="M4.93,67.07L19.07,52.93"/><path class="a" d="M19.07,67.07L4.93,52.93"/></svg>