<svg xmlns="http://www.w3.org/2000/svg" width="32" height="192" viewBox="0 0 32 192"><defs><style>.a,.b,.e,.f,.i,.j{fill:none;}.a,.b,.j{stroke:#a6b9af;}.a,.d,.e,.i{stroke-linecap:round;}.a,.b,.d,.e,.f,.h,.i,.j{stroke-linejoin:round;}.c{fill:#a6b9af;}.d,.h,.k{fill:#00b45a;}.d,.h,.i{stroke:#00b45a;}.e,.f{stroke:#fff;}.g{fill:#fff;}.h,.j{stroke-linecap:square;}</style></defs><title>Source</title><polyline class="a" points="22.3 112.8 20.5 110.5 20.5 106"/><line class="b" x1="8" y1="115.5" x2="17" y2="115.5"/><line class="b" x1="8" y1="111.5" x2="17" y2="111.5"/><rect class="c" x="4.5" y="110.5" width="2" height="2" rx="1" ry="1"/><rect class="c" x="4.5" y="114.5" width="2" height="2" rx="1" ry="1"/><path class="a" d="M12.76,108.06A7.5,7.5,0,1,1,20,117.5"/><path class="d" d="M27.5,78A7.5,7.5,0,0,1,20,85.5H5.5a2,2,0,0,1-2-2v-4a2,2,0,0,1,2-2h7A7.5,7.5,0,0,1,27.5,78Z"/><polyline class="e" points="22.3 80.8 20.5 78.5 20.5 74"/><line class="f" x1="8" y1="83.5" x2="17" y2="83.5"/><line class="f" x1="8" y1="79.5" x2="17" y2="79.5"/><rect class="g" x="4.5" y="78.5" width="2" height="2" rx="1" ry="1"/><rect class="g" x="4.5" y="82.5" width="2" height="2" rx="1" ry="1"/><rect class="b" x="7.5" y="38.5" width="12" height="22" rx="1.2" ry="1.2" transform="translate(-36 63) rotate(-90)"/><path class="b" d="M7.5,43.5V39.7a1.2,1.2,0,0,1,1.2-1.2H28.3a1.2,1.2,0,0,1,1.2,1.2V49.3a1.2,1.2,0,0,1-1.2,1.2H24.5"/><polyline class="b" points="2.5 45.94 13.5 50.83 29.5 43.72 24.5 45.94 24.5 45.94"/><path class="h" d="M18.5,144.5a1.73,1.73,0,0,1,2-2,2,2,0,0,1,0,4A1.73,1.73,0,0,1,18.5,144.5Z"/><path class="h" d="M13.5,137.5a1.73,1.73,0,0,1,2-2,2,2,0,0,1,0,4A1.73,1.73,0,0,1,13.5,137.5Z"/><path class="h" d="M9.5,150.5a1.73,1.73,0,0,1,2-2,2,2,0,0,1,0,4A1.73,1.73,0,0,1,9.5,150.5Z"/><line class="i" x1="5.5" y1="150.5" x2="7.5" y2="150.5"/><line class="i" x1="5.5" y1="144.5" x2="16.5" y2="144.5"/><line class="i" x1="5.5" y1="137.5" x2="11.5" y2="137.5"/><line class="i" x1="15.5" y1="150.5" x2="26.5" y2="150.5"/><line class="i" x1="24.5" y1="144.5" x2="26.5" y2="144.5"/><line class="i" x1="19.5" y1="137.5" x2="26.5" y2="137.5"/><path class="j" d="M18.5,176.5a1.73,1.73,0,0,1,2-2,2,2,0,0,1,0,4A1.73,1.73,0,0,1,18.5,176.5Z"/><path class="j" d="M13.5,169.5a1.73,1.73,0,0,1,2-2,2,2,0,0,1,0,4A1.73,1.73,0,0,1,13.5,169.5Z"/><path class="j" d="M9.5,182.5a1.73,1.73,0,0,1,2-2,2,2,0,0,1,0,4A1.73,1.73,0,0,1,9.5,182.5Z"/><line class="a" x1="5.5" y1="182.5" x2="7.5" y2="182.5"/><line class="a" x1="5.5" y1="176.5" x2="16.5" y2="176.5"/><line class="a" x1="5.5" y1="169.5" x2="11.5" y2="169.5"/><line class="a" x1="15.5" y1="182.5" x2="26.5" y2="182.5"/><line class="a" x1="24.5" y1="176.5" x2="26.5" y2="176.5"/><line class="a" x1="19.5" y1="169.5" x2="26.5" y2="169.5"/><path class="k" d="M8,7.7A0.71,0.71,0,0,1,8.7,7H28.3a0.7,0.7,0,0,1,.7.7V11.4l-4,1.78V12.7A1.71,1.71,0,0,0,23.3,11H8V7.7ZM3.7,12H23.3a0.71,0.71,0,0,1,.7.7v0.91L13.5,18.29,3,13.62V12.7A0.71,0.71,0,0,1,3.7,12ZM23.3,23H3.7A0.71,0.71,0,0,1,3,22.3V14.71l10.3,4.58a0.5,0.5,0,0,0,.41,0L24,14.71V22.3A0.7,0.7,0,0,1,23.3,23Zm5-5H25V14.27l4-1.78v4.8A0.7,0.7,0,0,1,28.3,18Z"/></svg>