<svg xmlns="http://www.w3.org/2000/svg" width="32" height="192" viewBox="0 0 32 192"><defs><style>.a,.c,.f{fill:none;stroke:#a6b9af;}.a,.c,.d,.e,.f{stroke-linejoin:round;}.b{fill:#a6b9af;}.c,.d{stroke-linecap:round;}.d,.e,.g{fill:#00b45a;}.d,.e{stroke:#00b45a;}.e,.f{stroke-linecap:square;}</style></defs><title>Source</title><path class="a" d="M8,115.5h9m-9-4h9"/><path class="b" d="M5.5,110.5h0a1,1,0,0,1,1,1h0a1,1,0,0,1-1,1h0a1,1,0,0,1-1-1h0A1,1,0,0,1,5.5,110.5Zm-1,5h0a1,1,0,0,0,1,1h0a1,1,0,0,0,1-1h0a1,1,0,0,0-1-1h0A1,1,0,0,0,4.5,115.5Z"/><path class="c" d="M22.3,112.8l-1.8-2.3V106M20,117.5a7.5,7.5,0,1,0-7.24-9.44"/><path class="d" d="M27.5,78A7.5,7.5,0,0,1,20,85.5H5.5a2,2,0,0,1-2-2v-4a2,2,0,0,1,2-2h7A7.5,7.5,0,0,1,27.5,78Zm-22,4A1.5,1.5,0,1,0,7,83.5,1.5,1.5,0,0,0,5.5,82ZM8,80.5h9v-2H8v2Zm15.09-.32-1.59-2V74a1,1,0,0,0-2,0v4.5a1.08,1.08,0,0,0,.21.62l1.8,2.29a1,1,0,0,0,.79.39,1,1,0,0,0,.62-0.21A1,1,0,0,0,23.09,80.18ZM5.5,78A1.5,1.5,0,1,0,7,79.5,1.5,1.5,0,0,0,5.5,78ZM8,84.5h9v-2H8v2Z"/><path class="a" d="M24.5,44.7V54.3a1.2,1.2,0,0,1-1.2,1.2H3.7a1.2,1.2,0,0,1-1.2-1.2V44.7a1.2,1.2,0,0,1,1.2-1.2H23.3A1.2,1.2,0,0,1,24.5,44.7Zm0,5.8h3.8a1.2,1.2,0,0,0,1.2-1.2V39.7a1.2,1.2,0,0,0-1.2-1.2H8.7a1.2,1.2,0,0,0-1.2,1.2v3.8m-5,2.44,11,4.89,16-7.11-5,2.22h0"/><path class="e" d="M18.5,144.5a1.73,1.73,0,0,1,2-2,2,2,0,0,1,0,4A1.73,1.73,0,0,1,18.5,144.5Zm-3-5a2,2,0,0,0,0-4A2,2,0,0,0,15.5,139.5Zm-4,13a2,2,0,0,0,0-4A2,2,0,0,0,11.5,152.5Zm-6-2h2m-2-6h11m-11-7h6m4,13h11m-2-6h2m-7-7h7"/><path class="f" d="M18.5,176.5a1.73,1.73,0,0,1,2-2,2,2,0,0,1,0,4A1.73,1.73,0,0,1,18.5,176.5Zm-3-5a2,2,0,0,0,0-4A2,2,0,0,0,15.5,171.5Zm-4,13a2,2,0,0,0,0-4A2,2,0,0,0,11.5,184.5Zm-6-2h2m-2-6h11m-11-7h6m4,13h11m-2-6h2m-7-7h7"/><path class="g" d="M8,8.2A1.2,1.2,0,0,1,9.2,7H27.8A1.2,1.2,0,0,1,29,8.2v3.2l-4,1.78h0A2.17,2.17,0,0,0,22.83,11H8V8.2ZM4.2,12H22.8A1.2,1.2,0,0,1,24,13.2v0.42L13.5,18.29,3,13.62V13.2A1.2,1.2,0,0,1,4.2,12ZM22.8,23H4.2A1.2,1.2,0,0,1,3,21.8V14.71l10.3,4.58a0.5,0.5,0,0,0,.41,0L24,14.71V21.8A1.2,1.2,0,0,1,22.8,23Zm5-5H25V14.27l4-1.78V16.8A1.2,1.2,0,0,1,27.8,18Z"/></svg>