<svg xmlns="http://www.w3.org/2000/svg" width="48" height="45" viewBox="0 0 48 45"><defs><style>.a{fill:#a6b9af;}.b{fill:#ced9d3;}.c{opacity:0.2;}.d{fill:#14d769;}</style></defs><title>Source</title><path class="a" d="M46,1a1,1,0,0,1,1,1V13a1,1,0,0,1-1,1H2a1,1,0,0,1-1-1V2A1,1,0,0,1,2,1H46m0-1H2A2,2,0,0,0,0,2V13a2,2,0,0,0,2,2H46a2,2,0,0,0,2-2V2a2,2,0,0,0-2-2h0Z"/><rect class="a" x="3" y="3" width="19" height="1"/><rect class="a" x="3" y="7" width="19" height="1"/><rect class="a" x="3" y="9" width="19" height="1"/><rect class="a" x="3" y="11" width="19" height="1"/><rect class="a" x="3" y="5" width="19" height="1"/><rect x="26" y="3" width="19" height="3"/><rect x="26" y="9" width="19" height="3"/><path class="a" d="M46,16a1,1,0,0,1,1,1V28a1,1,0,0,1-1,1H2a1,1,0,0,1-1-1V17a1,1,0,0,1,1-1H46m0-1H2a2,2,0,0,0-2,2V28a2,2,0,0,0,2,2H46a2,2,0,0,0,2-2V17a2,2,0,0,0-2-2h0Z"/><rect x="3" y="18" width="19" height="1"/><rect x="3" y="22" width="19" height="1"/><rect x="3" y="24" width="19" height="1"/><rect x="3" y="26" width="19" height="1"/><rect x="3" y="20" width="19" height="1"/><rect class="b" x="26" y="18" width="19" height="3"/><rect class="b" x="26" y="24" width="19" height="3"/><rect class="a" x="3" y="33" width="19" height="1"/><rect class="a" x="3" y="37" width="19" height="1"/><rect class="a" x="3" y="39" width="19" height="1"/><rect class="a" x="3" y="41" width="19" height="1"/><rect class="a" x="3" y="35" width="19" height="1"/><rect class="b" x="26" y="33" width="19" height="3"/><rect class="b" x="26" y="39" width="19" height="3"/><g class="c"><rect class="d" y="30" width="48" height="15" rx="2" ry="2"/></g></svg>