<svg xmlns="http://www.w3.org/2000/svg" width="32" height="72" viewBox="0 0 32 72"><defs><style>.a,.b{fill:none;stroke-miterlimit:10;}.a{stroke:#a6b9af;}.b{stroke:#869d91;}</style></defs><title>Source</title><line class="a" x1="30" y1="12.5" x2="20" y2="12.5"/><line class="a" x1="32" y1="9.5" x2="20" y2="9.5"/><line class="a" x1="28" y1="15.5" x2="20" y2="15.5"/><path class="b" d="M3.83,13.69a6.36,6.36,0,0,0,.61,1.48l-1.15,1.9a9.94,9.94,0,0,0,1.64,1.64l1.9-1.15a6.35,6.35,0,0,0,1.48.61l0.53,2.16a9.94,9.94,0,0,0,2.32,0l0.53-2.16a6.35,6.35,0,0,0,1.48-.61l1.9,1.15a9.94,9.94,0,0,0,1.64-1.64l-1.15-1.9a6.36,6.36,0,0,0,.61-1.48l2.16-.53a9.94,9.94,0,0,0,0-2.32l-2.16-.53a6.36,6.36,0,0,0-.61-1.48l1.15-1.9a9.94,9.94,0,0,0-1.64-1.64l-1.9,1.15a6.35,6.35,0,0,0-1.48-.61L11.16,3.67a9.94,9.94,0,0,0-2.32,0L8.31,5.83a6.36,6.36,0,0,0-1.48.61L4.93,5.29A9.94,9.94,0,0,0,3.29,6.93l1.15,1.9a6.36,6.36,0,0,0-.61,1.48l-2.16.53a9.94,9.94,0,0,0,0,2.32Z"/><circle class="b" cx="10" cy="12" r="3"/><polyline class="b" points="11.5 44 11.5 36 17.5 29.5 2.5 29.5 8.5 36 8.5 41"/><line class="a" x1="30" y1="36.5" x2="20" y2="36.5"/><line class="a" x1="32" y1="33.5" x2="20" y2="33.5"/><line class="a" x1="28" y1="39.5" x2="20" y2="39.5"/><line class="a" x1="30" y1="60.5" x2="20" y2="60.5"/><line class="a" x1="32" y1="57.5" x2="20" y2="57.5"/><line class="a" x1="28" y1="63.5" x2="20" y2="63.5"/><line class="b" x1="13.5" y1="53" x2="13.5" y2="67"/><polyline class="b" points="17.5 63 13.5 67 9.5 63"/><line class="b" x1="5.5" y1="67" x2="5.5" y2="53"/><polyline class="b" points="1.5 57 5.5 53 9.5 57"/></svg>