<svg id="aeb3a3bb-0ec9-4727-ab99-ba6e459669b1" data-name="Layer 1" xmlns="http://www.w3.org/2000/svg" width="48" height="45" viewBox="0 0 48 45"><title>Source</title><g id="890c4df8-7b92-4787-9944-d5e4cff3599f" data-name="&lt;Rectangle&gt;"><path d="M46,1a1,1,0,0,1,1,1V13a1,1,0,0,1-1,1H2a1,1,0,0,1-1-1V2A1,1,0,0,1,2,1H46m0-1H2A2,2,0,0,0,0,2V13a2,2,0,0,0,2,2H46a2,2,0,0,0,2-2V2a2,2,0,0,0-2-2h0Z" style="fill:#a6b9af"/></g><g id="0dd87e8f-68c7-49e2-ab7d-cf66750e5591" data-name="&lt;Group&gt;"><rect id="4af5c1ae-5a82-45e8-bbb9-068f57750ae9" data-name="&lt;Path&gt;" x="3" y="3" width="19" height="1" style="fill:#a6b9af"/><rect id="50dd7459-861c-41d2-a4bd-d615f42a8bc4" data-name="&lt;Path&gt;" x="3" y="7" width="19" height="1" style="fill:#a6b9af"/><rect id="aede5fbb-b9ae-4778-be5b-a7eb2f25c406" data-name="&lt;Path&gt;" x="3" y="9" width="19" height="1" style="fill:#a6b9af"/><rect id="8d22f02b-ea1b-4e6b-beab-06cda9dcd72b" data-name="&lt;Path&gt;" x="3" y="11" width="19" height="1" style="fill:#a6b9af"/><rect id="51f5433c-08d0-4922-a1b4-57788d843822" data-name="&lt;Path&gt;" x="3" y="5" width="19" height="1" style="fill:#a6b9af"/></g><g id="b2dc9a66-7e81-4b6c-8c0f-ed013fb91192" data-name="&lt;Group&gt;"><rect id="8a85e40c-f919-4347-9581-c14f582b8d8a" data-name="&lt;Path&gt;" x="26" y="3" width="19" height="3"/><rect id="f601b59e-0e08-4347-9985-89248d113d63" data-name="&lt;Path&gt;" x="26" y="9" width="19" height="3"/></g><g id="6acf66e7-f085-424c-a1e3-ab689a51a41f" data-name="&lt;Rectangle&gt;"><path d="M46,16a1,1,0,0,1,1,1V28a1,1,0,0,1-1,1H2a1,1,0,0,1-1-1V17a1,1,0,0,1,1-1H46m0-1H2a2,2,0,0,0-2,2V28a2,2,0,0,0,2,2H46a2,2,0,0,0,2-2V17a2,2,0,0,0-2-2h0Z" style="fill:#a6b9af"/></g><g id="fe4c12a6-3b60-4b66-a8cb-0099d5942f72" data-name="&lt;Group&gt;"><rect id="5e52011d-58ec-4c21-954e-5bb67aa16cd3" data-name="&lt;Path&gt;" x="3" y="18" width="19" height="1"/><rect id="2c562199-876e-4408-9e8a-547247644bf9" data-name="&lt;Path&gt;" x="3" y="22" width="19" height="1"/><rect id="02bfc096-2ba8-43d1-b2e8-c4a39864a7f9" data-name="&lt;Path&gt;" x="3" y="24" width="19" height="1"/><rect id="c999bd2c-bcb3-49ee-a703-2a8a7746fea7" data-name="&lt;Path&gt;" x="3" y="26" width="19" height="1"/><rect id="69f2657e-88d7-4324-bb5a-b877106610cc" data-name="&lt;Path&gt;" x="3" y="20" width="19" height="1"/></g><g id="c75930b8-0260-4381-8e57-9d2c35eacfb5" data-name="&lt;Group&gt;"><rect id="0b000eb7-af4e-47ab-a023-f7b76b3b99b6" data-name="&lt;Path&gt;" x="26" y="18" width="19" height="3" style="fill:#ced9d3"/><rect id="a4a8751c-d5b4-487c-9f67-ee19c7226024" data-name="&lt;Path&gt;" x="26" y="24" width="19" height="3" style="fill:#ced9d3"/></g><g id="479359a7-9593-432e-aaee-fe3f61450124" data-name="&lt;Group&gt;"><rect id="456974e7-3921-4f0a-ad44-5cc48ecba3fc" data-name="&lt;Path&gt;" x="3" y="33" width="19" height="1" style="fill:#a6b9af"/><rect id="a71011b8-1065-43ec-864c-3db7e303e7b4" data-name="&lt;Path&gt;" x="3" y="37" width="19" height="1" style="fill:#a6b9af"/><rect id="714f4c90-9840-472f-a03f-2f4135021739" data-name="&lt;Path&gt;" x="3" y="39" width="19" height="1" style="fill:#a6b9af"/><rect id="6c8b9644-acda-4fb9-8d71-5a44dfa586f3" data-name="&lt;Path&gt;" x="3" y="41" width="19" height="1" style="fill:#a6b9af"/><rect id="5cd12fa4-826c-4329-b570-d5f1f9338f07" data-name="&lt;Path&gt;" x="3" y="35" width="19" height="1" style="fill:#a6b9af"/></g><g id="808de854-fe93-477b-9036-100b1070075c" data-name="&lt;Group&gt;"><rect id="e0a3bbf8-07fd-46b1-b22d-1ca9cb4a8e02" data-name="&lt;Path&gt;" x="26" y="33" width="19" height="3" style="fill:#ced9d3"/><rect id="63350ac9-0229-4868-8294-6f1b47a92973" data-name="&lt;Path&gt;" x="26" y="39" width="19" height="3" style="fill:#ced9d3"/></g><g id="8d2aadd0-8256-4948-aae4-34bccc5d01ed" data-name="&lt;Rectangle&gt;" style="opacity:0.2"><rect y="30" width="48" height="15" rx="2" ry="2" style="fill:#14d769"/></g></svg>