<svg xmlns="http://www.w3.org/2000/svg" width="32" height="128" viewBox="0 0 32 128"><title>Source</title><line x1="2" y1="12.5" x2="12" y2="12.5" fill="none" stroke="#a6b9af" stroke-miterlimit="10"/><line y1="9.5" x2="12" y2="9.5" fill="none" stroke="#a6b9af" stroke-miterlimit="10"/><line x1="4" y1="15.5" x2="12" y2="15.5" fill="none" stroke="#a6b9af" stroke-miterlimit="10"/><path d="M28.17,13.69a6.36,6.36,0,0,1-.61,1.48l1.15,1.9a9.94,9.94,0,0,1-1.64,1.64l-1.9-1.15a6.35,6.35,0,0,1-1.48.61l-0.53,2.16a9.94,9.94,0,0,1-2.32,0l-0.53-2.16a6.35,6.35,0,0,1-1.48-.61l-1.9,1.15a9.94,9.94,0,0,1-1.64-1.64l1.15-1.9a6.36,6.36,0,0,1-.61-1.48l-2.16-.53a9.94,9.94,0,0,1,0-2.32l2.16-.53a6.36,6.36,0,0,1,.61-1.48l-1.15-1.9a9.94,9.94,0,0,1,1.64-1.64l1.9,1.15a6.35,6.35,0,0,1,1.48-.61l0.53-2.16a9.94,9.94,0,0,1,2.32,0l0.53,2.16a6.36,6.36,0,0,1,1.48.61l1.9-1.15a9.94,9.94,0,0,1,1.64,1.64l-1.15,1.9a6.36,6.36,0,0,1,.61,1.48l2.16,0.53a9.94,9.94,0,0,1,0,2.32Z" fill="none" stroke="#869d91" stroke-miterlimit="10"/><circle cx="22" cy="12" r="3" fill="none" stroke="#869d91" stroke-miterlimit="10"/><rect width="32" height="24" fill="none"/><polyline points="20.5 44 20.5 36 14.5 29.5 29.5 29.5 23.5 36 23.5 41" fill="none" stroke="#869d91" stroke-miterlimit="10"/><line x1="2" y1="36.5" x2="12" y2="36.5" fill="none" stroke="#a6b9af" stroke-miterlimit="10"/><line y1="33.5" x2="12" y2="33.5" fill="none" stroke="#a6b9af" stroke-miterlimit="10"/><line x1="4" y1="39.5" x2="12" y2="39.5" fill="none" stroke="#a6b9af" stroke-miterlimit="10"/><rect y="24" width="32" height="24" fill="none"/><line x1="2" y1="60.5" x2="12" y2="60.5" fill="none" stroke="#a6b9af" stroke-miterlimit="10"/><line y1="57.5" x2="12" y2="57.5" fill="none" stroke="#a6b9af" stroke-miterlimit="10"/><line x1="4" y1="63.5" x2="12" y2="63.5" fill="none" stroke="#a6b9af" stroke-miterlimit="10"/><rect y="48" width="32" height="24" fill="none"/><line x1="18.5" y1="53" x2="18.5" y2="67" fill="none" stroke="#869d91" stroke-miterlimit="10"/><polyline points="14.5 63 18.5 67 22.5 63" fill="none" stroke="#869d91" stroke-miterlimit="10"/><line x1="26.5" y1="67" x2="26.5" y2="53" fill="none" stroke="#869d91" stroke-miterlimit="10"/><polyline points="30.5 57 26.5 53 22.5 57" fill="none" stroke="#869d91" stroke-miterlimit="10"/><rect x="32" width="24" height="24" transform="translate(88 24) rotate(180)" fill="none"/><path d="M48.5,11v7a1,1,0,0,1-1,1h-14a1,1,0,0,1-1-1V11a1,1,0,0,1,1-1h14A1,1,0,0,1,48.5,11Z" fill="#fff" stroke="#000" stroke-linejoin="round"/></svg>