<svg width="160" height="160" xmlns="http://www.w3.org/2000/svg">
  <defs>
    <radialGradient id="radial-gradient" cx="80" cy="94.93" r="59.94" gradientTransform="translate(160 166.12) rotate(180) scale(1 0.75)" gradientUnits="userSpaceOnUse">
      <stop offset="0" stop-color="#00c869"/>
      <stop offset="0.01" stop-color="#00c869" stop-opacity="0.99"/>
      <stop offset="0.28" stop-color="#00c869" stop-opacity="0.64"/>
      <stop offset="0.52" stop-color="#00c869" stop-opacity="0.37"/>
      <stop offset="0.73" stop-color="#00c869" stop-opacity="0.17"/>
      <stop offset="0.9" stop-color="#00c869" stop-opacity="0.04"/>
      <stop offset="1" stop-color="#00c869" stop-opacity="0"/>
    </radialGradient>
  </defs>
  <path id="svg_2" d="m80.21006,22.4312c0,0 0,-30.726 -0.14492,-30.72464c9.39225,2.57929 90.57971,0.57971 90.43478,0.57971c0.14493,0 -3.62319,173.33334 -3.76812,173.04348c0.14493,0.28986 -174.05797,-3.47826 -174.05797,-3.76811c0,-0.28986 2.31884,-168.98551 2.46377,-168.98551c-0.07661,0.10766 93.91883,0.5117 81.49482,0.10766c11.23538,-0.38415 2.42857,33.42857 2.28572,33.42857c0.14285,0 -47.28572,27.14286 -47.28572,27.14286c0,0 -7.14285,15.14285 -7.14285,15.14285c0,0 0,20 0,20c0,0 8.28571,26 8.28571,26c0,0 16.85714,13.71429 16.71429,13.71429c0.14285,0 28.42857,5.14286 28.28571,5.14286c0.14286,0 29,-3.42857 28.85714,-3.71429c0.14286,0.28572 17,-9.14286 16.85715,-9.14286c0.14285,0 10.14285,-14.57142 10.14285,-14.57142c0,0 3.42857,-22.57143 3.42857,-22.57143c0,0 -3.14285,-24 -3.28571,-24c0.14286,0 -9.85714,-9.42857 -9.85714,-9.42857c0,0 -38.28572,-21.14286 -38.28572,-21.14286c0,0 -4.21188,-4.66132 -5.42236,-6.25259z" stroke-width="0" fill="#fff"/>
  <path id="svg_1" fill=" #14d769" d="m140,94.64l0,-28.45a20,20 0 0 0 -10,-17.32l-50,-28.87l-50,28.87a20,20 0 0 0 -10,17.32l0,28.45c0,60.36 120,60.36 120,0zm-60,0.42l-50,-28.87a10,10 0 0 1 5,-8.66l45,-26l45,26a10,10 0 0 1 5,8.66l-50,28.87z"/>
  <path fill=" url(#radial-gradient)" d="m80,95.06l59.27,-34.22a19.91,19.91 0 0 1 0.73,5.35l0,28.45c0,29.87 -30.25,45.36 -60,45.36" id="NstLogoD"/>
</svg>